<?xml version="1.0" encoding="utf-8" standalone="no"?>
<!DOCTYPE svg PUBLIC "-//W3C//DTD SVG 1.1//EN"
  "http://www.w3.org/Graphics/SVG/1.1/DTD/svg11.dtd">
<svg xmlns:xlink="http://www.w3.org/1999/xlink" width="576pt" height="216pt" viewBox="0 0 576 216" xmlns="http://www.w3.org/2000/svg" version="1.1">
 <metadata>
  <rdf:RDF xmlns:dc="http://purl.org/dc/elements/1.1/" xmlns:cc="http://creativecommons.org/ns#" xmlns:rdf="http://www.w3.org/1999/02/22-rdf-syntax-ns#">
   <cc:Work>
    <dc:type rdf:resource="http://purl.org/dc/dcmitype/StillImage"/>
    <dc:date>2026-06-24T12:58:42.533177</dc:date>
    <dc:format>image/svg+xml</dc:format>
    <dc:creator>
     <cc:Agent>
      <dc:title>Matplotlib v3.11.0, https://matplotlib.org/</dc:title>
     </cc:Agent>
    </dc:creator>
   </cc:Work>
  </rdf:RDF>
 </metadata>
 <defs>
  <style type="text/css">*{stroke-linejoin: round; stroke-linecap: butt}</style>
 </defs>
 <g id="figure_1">
  <g id="patch_1">
   <path d="M 0 216 
L 576 216 
L 576 0 
L 0 0 
L 0 216 
z
" style="fill: none"/>
  </g>
  <g id="axes_1">
   <g id="matplotlib.axis_1"/>
   <g id="matplotlib.axis_2"/>
   <g id="text_1">
    <!-- $e^-(p)$ -->
    <g transform="translate(8.01 36.038359) scale(0.14 -0.14)">
     <defs>
      <path id="DejaVuSans-Oblique-48" d="M 3078 2063 
Q 3088 2113 3092 2166 
Q 3097 2219 3097 2272 
Q 3097 2653 2873 2875 
Q 2650 3097 2266 3097 
Q 1838 3097 1509 2826 
Q 1181 2556 1013 2059 
L 3078 2063 
z
M 3578 1613 
L 903 1613 
Q 884 1494 878 1425 
Q 872 1356 872 1306 
Q 872 872 1139 634 
Q 1406 397 1894 397 
Q 2269 397 2603 481 
Q 2938 566 3225 728 
L 3116 159 
Q 2806 34 2476 -28 
Q 2147 -91 1806 -91 
Q 1078 -91 686 257 
Q 294 606 294 1247 
Q 294 1794 489 2264 
Q 684 2734 1063 3103 
Q 1306 3334 1642 3459 
Q 1978 3584 2356 3584 
Q 2950 3584 3301 3228 
Q 3653 2872 3653 2272 
Q 3653 2128 3634 1964 
Q 3616 1800 3578 1613 
z
" transform="scale(0.015625)"/>
      <path id="DejaVuSans-c9c" d="M 678 2272 
L 4684 2272 
L 4684 1741 
L 678 1741 
L 678 2272 
z
" transform="scale(0.015625)"/>
      <path id="DejaVuSans-b" d="M 1984 4856 
Q 1566 4138 1362 3434 
Q 1159 2731 1159 2009 
Q 1159 1288 1364 580 
Q 1569 -128 1984 -844 
L 1484 -844 
Q 1016 -109 783 600 
Q 550 1309 550 2009 
Q 550 2706 781 3412 
Q 1013 4119 1484 4856 
L 1984 4856 
z
" transform="scale(0.015625)"/>
      <path id="DejaVuSans-Oblique-53" d="M 3175 2156 
Q 3175 2616 2975 2859 
Q 2775 3103 2400 3103 
Q 2144 3103 1911 2972 
Q 1678 2841 1497 2591 
Q 1319 2344 1212 1994 
Q 1106 1644 1106 1300 
Q 1106 863 1306 627 
Q 1506 391 1875 391 
Q 2147 391 2380 519 
Q 2613 647 2778 891 
Q 2956 1147 3065 1494 
Q 3175 1841 3175 2156 
z
M 1394 2969 
Q 1625 3272 1939 3428 
Q 2253 3584 2638 3584 
Q 3175 3584 3472 3232 
Q 3769 2881 3769 2247 
Q 3769 1728 3584 1258 
Q 3400 788 3053 416 
Q 2822 169 2531 39 
Q 2241 -91 1919 -91 
Q 1547 -91 1294 64 
Q 1041 219 916 525 
L 556 -1331 
L -19 -1331 
L 922 3500 
L 1497 3500 
L 1394 2969 
z
" transform="scale(0.015625)"/>
      <path id="DejaVuSans-c" d="M 513 4856 
L 1013 4856 
Q 1481 4119 1714 3412 
Q 1947 2706 1947 2009 
Q 1947 1309 1714 600 
Q 1481 -109 1013 -844 
L 513 -844 
Q 928 -128 1133 580 
Q 1338 1288 1338 2009 
Q 1338 2731 1133 3434 
Q 928 4138 513 4856 
z
" transform="scale(0.015625)"/>
     </defs>
     <use xlink:href="#DejaVuSans-Oblique-48" transform="translate(0 0.125)"/>
     <use xlink:href="#DejaVuSans-c9c" transform="translate(79.811029 41.425) scale(0.7)"/>
     <use xlink:href="#DejaVuSans-b" transform="translate(154.835443 0.125)"/>
     <use xlink:href="#DejaVuSans-Oblique-53" transform="translate(193.849115 0.125)"/>
     <use xlink:href="#DejaVuSans-c" transform="translate(257.325677 0.125)"/>
    </g>
   </g>
   <g id="text_2">
    <!-- $\gamma(k)$ -->
    <g transform="translate(15.08 187.238359) scale(0.14 -0.14)">
     <defs>
      <path id="DejaVuSans-Oblique-347" d="M 1491 2950 
L 1838 788 
L 3456 3500 
L 4066 3500 
L 1972 0 
L 1713 -1331 
L 1138 -1331 
L 1397 0 
L 988 2613 
Q 925 3006 628 3006 
L 475 3006 
L 569 3500 
L 788 3500 
Q 1403 3500 1491 2950 
z
" transform="scale(0.015625)"/>
      <path id="DejaVuSans-Oblique-4e" d="M 1172 4863 
L 1747 4863 
L 1197 2028 
L 3169 3500 
L 3916 3500 
L 1716 1825 
L 3322 0 
L 2625 0 
L 1131 1709 
L 800 0 
L 225 0 
L 1172 4863 
z
" transform="scale(0.015625)"/>
     </defs>
     <use xlink:href="#DejaVuSans-Oblique-347" transform="translate(0 0.015625)"/>
     <use xlink:href="#DejaVuSans-b" transform="translate(59.179688 0.015625)"/>
     <use xlink:href="#DejaVuSans-Oblique-4e" transform="translate(98.193359 0.015625)"/>
     <use xlink:href="#DejaVuSans-c" transform="translate(156.103516 0.015625)"/>
    </g>
   </g>
   <g id="text_3">
    <!-- $e^-(p')$ -->
    <g transform="translate(294.19 36.388359) scale(0.14 -0.14)">
     <defs>
      <path id="Cmsy10-49" d="M 225 347 
Q 184 359 184 409 
L 966 3316 
Q 1003 3434 1093 3506 
Q 1184 3578 1300 3578 
Q 1450 3578 1564 3479 
Q 1678 3381 1678 3231 
Q 1678 3166 1644 3084 
L 488 319 
Q 466 275 428 275 
Q 394 275 320 306 
Q 247 338 225 347 
z
" transform="scale(0.015625)"/>
     </defs>
     <use xlink:href="#DejaVuSans-Oblique-48" transform="translate(0 0.565625)"/>
     <use xlink:href="#DejaVuSans-c9c" transform="translate(79.811029 41.865625) scale(0.7)"/>
     <use xlink:href="#DejaVuSans-b" transform="translate(154.835443 0.565625)"/>
     <use xlink:href="#DejaVuSans-Oblique-53" transform="translate(193.849115 0.565625)"/>
     <use xlink:href="#Cmsy10-49" transform="translate(261.975573 41.865625) scale(0.7)"/>
     <use xlink:href="#DejaVuSans-c" transform="translate(283.953112 0.565625)"/>
    </g>
   </g>
   <g id="text_4">
    <!-- $\gamma(k')$ -->
    <g transform="translate(301.05 187.588359) scale(0.14 -0.14)">
     <use xlink:href="#DejaVuSans-Oblique-347" transform="translate(0 0.565625)"/>
     <use xlink:href="#DejaVuSans-b" transform="translate(59.179688 0.565625)"/>
     <use xlink:href="#DejaVuSans-Oblique-4e" transform="translate(98.193359 0.565625)"/>
     <use xlink:href="#Cmsy10-49" transform="translate(163.551224 41.865625) scale(0.7)"/>
     <use xlink:href="#DejaVuSans-c" transform="translate(185.528763 0.565625)"/>
    </g>
   </g>
   <g id="text_5">
    <!-- (s-channel) -->
    <g transform="translate(133.466562 144.037266) scale(0.14 -0.14)">
     <defs>
      <path id="DejaVuSans-56" d="M 2834 3397 
L 2834 2853 
Q 2591 2978 2328 3040 
Q 2066 3103 1784 3103 
Q 1356 3103 1142 2972 
Q 928 2841 928 2578 
Q 928 2378 1081 2264 
Q 1234 2150 1697 2047 
L 1894 2003 
Q 2506 1872 2764 1633 
Q 3022 1394 3022 966 
Q 3022 478 2636 193 
Q 2250 -91 1575 -91 
Q 1294 -91 989 -36 
Q 684 19 347 128 
L 347 722 
Q 666 556 975 473 
Q 1284 391 1588 391 
Q 1994 391 2212 530 
Q 2431 669 2431 922 
Q 2431 1156 2273 1281 
Q 2116 1406 1581 1522 
L 1381 1569 
Q 847 1681 609 1914 
Q 372 2147 372 2553 
Q 372 3047 722 3315 
Q 1072 3584 1716 3584 
Q 2034 3584 2315 3537 
Q 2597 3491 2834 3397 
z
" transform="scale(0.015625)"/>
      <path id="DejaVuSans-10" d="M 313 2009 
L 1997 2009 
L 1997 1497 
L 313 1497 
L 313 2009 
z
" transform="scale(0.015625)"/>
      <path id="DejaVuSans-46" d="M 3122 3366 
L 3122 2828 
Q 2878 2963 2633 3030 
Q 2388 3097 2138 3097 
Q 1578 3097 1268 2742 
Q 959 2388 959 1747 
Q 959 1106 1268 751 
Q 1578 397 2138 397 
Q 2388 397 2633 464 
Q 2878 531 3122 666 
L 3122 134 
Q 2881 22 2623 -34 
Q 2366 -91 2075 -91 
Q 1284 -91 818 406 
Q 353 903 353 1747 
Q 353 2603 823 3093 
Q 1294 3584 2113 3584 
Q 2378 3584 2631 3529 
Q 2884 3475 3122 3366 
z
" transform="scale(0.015625)"/>
      <path id="DejaVuSans-4b" d="M 3513 2113 
L 3513 0 
L 2938 0 
L 2938 2094 
Q 2938 2591 2744 2837 
Q 2550 3084 2163 3084 
Q 1697 3084 1428 2787 
Q 1159 2491 1159 1978 
L 1159 0 
L 581 0 
L 581 4863 
L 1159 4863 
L 1159 2956 
Q 1366 3272 1645 3428 
Q 1925 3584 2291 3584 
Q 2894 3584 3203 3211 
Q 3513 2838 3513 2113 
z
" transform="scale(0.015625)"/>
      <path id="DejaVuSans-44" d="M 2194 1759 
Q 1497 1759 1228 1600 
Q 959 1441 959 1056 
Q 959 750 1161 570 
Q 1363 391 1709 391 
Q 2188 391 2477 730 
Q 2766 1069 2766 1631 
L 2766 1759 
L 2194 1759 
z
M 3341 1997 
L 3341 0 
L 2766 0 
L 2766 531 
Q 2569 213 2275 61 
Q 1981 -91 1556 -91 
Q 1019 -91 701 211 
Q 384 513 384 1019 
Q 384 1609 779 1909 
Q 1175 2209 1959 2209 
L 2766 2209 
L 2766 2266 
Q 2766 2663 2505 2880 
Q 2244 3097 1772 3097 
Q 1472 3097 1187 3025 
Q 903 2953 641 2809 
L 641 3341 
Q 956 3463 1253 3523 
Q 1550 3584 1831 3584 
Q 2591 3584 2966 3190 
Q 3341 2797 3341 1997 
z
" transform="scale(0.015625)"/>
      <path id="DejaVuSans-51" d="M 3513 2113 
L 3513 0 
L 2938 0 
L 2938 2094 
Q 2938 2591 2744 2837 
Q 2550 3084 2163 3084 
Q 1697 3084 1428 2787 
Q 1159 2491 1159 1978 
L 1159 0 
L 581 0 
L 581 3500 
L 1159 3500 
L 1159 2956 
Q 1366 3272 1645 3428 
Q 1925 3584 2291 3584 
Q 2894 3584 3203 3211 
Q 3513 2838 3513 2113 
z
" transform="scale(0.015625)"/>
      <path id="DejaVuSans-48" d="M 3597 1894 
L 3597 1613 
L 953 1613 
Q 991 1019 1311 708 
Q 1631 397 2203 397 
Q 2534 397 2845 478 
Q 3156 559 3463 722 
L 3463 178 
Q 3153 47 2828 -22 
Q 2503 -91 2169 -91 
Q 1331 -91 842 396 
Q 353 884 353 1716 
Q 353 2575 817 3079 
Q 1281 3584 2069 3584 
Q 2775 3584 3186 3129 
Q 3597 2675 3597 1894 
z
M 3022 2063 
Q 3016 2534 2758 2815 
Q 2500 3097 2075 3097 
Q 1594 3097 1305 2825 
Q 1016 2553 972 2059 
L 3022 2063 
z
" transform="scale(0.015625)"/>
      <path id="DejaVuSans-4f" d="M 603 4863 
L 1178 4863 
L 1178 0 
L 603 0 
L 603 4863 
z
" transform="scale(0.015625)"/>
     </defs>
     <use xlink:href="#DejaVuSans-b"/>
     <use xlink:href="#DejaVuSans-56" transform="translate(39.015625 0)"/>
     <use xlink:href="#DejaVuSans-10" transform="translate(91.109375 0)"/>
     <use xlink:href="#DejaVuSans-46" transform="translate(127.1875 0)"/>
     <use xlink:href="#DejaVuSans-4b" transform="translate(182.171875 0)"/>
     <use xlink:href="#DejaVuSans-44" transform="translate(245.546875 0)"/>
     <use xlink:href="#DejaVuSans-51" transform="translate(306.828125 0)"/>
     <use xlink:href="#DejaVuSans-51" transform="translate(370.203125 0)"/>
     <use xlink:href="#DejaVuSans-48" transform="translate(433.578125 0)"/>
     <use xlink:href="#DejaVuSans-4f" transform="translate(495.109375 0)"/>
     <use xlink:href="#DejaVuSans-c" transform="translate(522.890625 0)"/>
    </g>
   </g>
   <g id="text_6">
    <!-- $e^-(p)$ -->
    <g transform="translate(353.61 36.038359) scale(0.14 -0.14)">
     <use xlink:href="#DejaVuSans-Oblique-48" transform="translate(0 0.125)"/>
     <use xlink:href="#DejaVuSans-c9c" transform="translate(79.811029 41.425) scale(0.7)"/>
     <use xlink:href="#DejaVuSans-b" transform="translate(154.835443 0.125)"/>
     <use xlink:href="#DejaVuSans-Oblique-53" transform="translate(193.849115 0.125)"/>
     <use xlink:href="#DejaVuSans-c" transform="translate(257.325677 0.125)"/>
    </g>
   </g>
   <g id="text_7">
    <!-- $\gamma(k)$ -->
    <g transform="translate(360.68 187.238359) scale(0.14 -0.14)">
     <use xlink:href="#DejaVuSans-Oblique-347" transform="translate(0 0.015625)"/>
     <use xlink:href="#DejaVuSans-b" transform="translate(59.179688 0.015625)"/>
     <use xlink:href="#DejaVuSans-Oblique-4e" transform="translate(98.193359 0.015625)"/>
     <use xlink:href="#DejaVuSans-c" transform="translate(156.103516 0.015625)"/>
    </g>
   </g>
   <g id="text_8">
    <!-- $\gamma(k')$ -->
    <g transform="translate(531.45 36.388359) scale(0.14 -0.14)">
     <use xlink:href="#DejaVuSans-Oblique-347" transform="translate(0 0.565625)"/>
     <use xlink:href="#DejaVuSans-b" transform="translate(59.179688 0.565625)"/>
     <use xlink:href="#DejaVuSans-Oblique-4e" transform="translate(98.193359 0.565625)"/>
     <use xlink:href="#Cmsy10-49" transform="translate(163.551224 41.865625) scale(0.7)"/>
     <use xlink:href="#DejaVuSans-c" transform="translate(185.528763 0.565625)"/>
    </g>
   </g>
   <g id="text_9">
    <!-- $e^-(p')$ -->
    <g transform="translate(524.59 187.588359) scale(0.14 -0.14)">
     <use xlink:href="#DejaVuSans-Oblique-48" transform="translate(0 0.565625)"/>
     <use xlink:href="#DejaVuSans-c9c" transform="translate(79.811029 41.865625) scale(0.7)"/>
     <use xlink:href="#DejaVuSans-b" transform="translate(154.835443 0.565625)"/>
     <use xlink:href="#DejaVuSans-Oblique-53" transform="translate(193.849115 0.565625)"/>
     <use xlink:href="#Cmsy10-49" transform="translate(261.975573 41.865625) scale(0.7)"/>
     <use xlink:href="#DejaVuSans-c" transform="translate(283.953112 0.565625)"/>
    </g>
   </g>
   <g id="text_10">
    <!-- (u-channel) -->
    <g transform="translate(478.276875 111.637266) scale(0.14 -0.14)">
     <defs>
      <path id="DejaVuSans-58" d="M 544 1381 
L 544 3500 
L 1119 3500 
L 1119 1403 
Q 1119 906 1312 657 
Q 1506 409 1894 409 
Q 2359 409 2629 706 
Q 2900 1003 2900 1516 
L 2900 3500 
L 3475 3500 
L 3475 0 
L 2900 0 
L 2900 538 
Q 2691 219 2414 64 
Q 2138 -91 1772 -91 
Q 1169 -91 856 284 
Q 544 659 544 1381 
z
M 1991 3584 
L 1991 3584 
z
" transform="scale(0.015625)"/>
     </defs>
     <use xlink:href="#DejaVuSans-b"/>
     <use xlink:href="#DejaVuSans-58" transform="translate(39.015625 0)"/>
     <use xlink:href="#DejaVuSans-10" transform="translate(102.390625 0)"/>
     <use xlink:href="#DejaVuSans-46" transform="translate(138.46875 0)"/>
     <use xlink:href="#DejaVuSans-4b" transform="translate(193.453125 0)"/>
     <use xlink:href="#DejaVuSans-44" transform="translate(256.828125 0)"/>
     <use xlink:href="#DejaVuSans-51" transform="translate(318.109375 0)"/>
     <use xlink:href="#DejaVuSans-51" transform="translate(381.484375 0)"/>
     <use xlink:href="#DejaVuSans-48" transform="translate(444.859375 0)"/>
     <use xlink:href="#DejaVuSans-4f" transform="translate(506.390625 0)"/>
     <use xlink:href="#DejaVuSans-c" transform="translate(534.171875 0)"/>
    </g>
   </g>
   <g id="line2d_1">
    <path d="M 28.8 43.2 
L 115.2 108 
L 115.2 108 
" clip-path="url(#p9ad7a49028)" style="fill: none; stroke: #000000; stroke-width: 3"/>
   </g>
   <g id="line2d_2">
    <path d="M 28.8 172.8 
L 23.571012 170.398512 
L 21.370026 169.173797 
L 20.339566 168.371563 
L 20.002816 167.902408 
L 19.969505 167.490147 
L 20.251175 167.136945 
L 20.851574 166.843505 
L 22.338594 166.513298 
L 24.485104 166.306746 
L 28.22458 166.195868 
L 35.108944 166.268641 
L 46.862625 166.442381 
L 50.557031 166.323052 
L 53.218815 166.010107 
L 54.426857 165.627592 
L 54.836011 165.298293 
L 54.92774 164.909478 
L 54.710491 164.462728 
L 54.200358 163.961063 
L 52.938904 163.115518 
L 50.503569 161.846863 
L 45.124729 159.417278 
L 40.722376 157.373791 
L 38.563168 156.15691 
L 37.572722 155.362179 
L 37.265579 154.898574 
L 37.263374 154.492146 
L 37.576879 154.144913 
L 38.209052 153.85743 
L 39.741909 153.535818 
L 41.929812 153.337028 
L 45.713645 153.234466 
L 52.633038 153.313807 
L 64.347929 153.480274 
L 67.996563 153.352363 
L 70.059183 153.130082 
L 71.453919 152.782572 
L 71.990651 152.477194 
L 72.208773 152.112077 
L 72.113605 151.688218 
L 71.71822 151.208069 
L 70.608992 150.391066 
L 68.326741 149.151114 
L 63.838314 147.091488 
L 57.875455 144.349392 
L 55.758776 143.140485 
L 54.80875 142.353332 
L 54.531399 141.895314 
L 54.560407 141.494738 
L 54.905776 141.15348 
L 55.569675 140.871946 
L 57.148149 140.558887 
L 59.377063 140.367786 
L 63.204531 140.273406 
L 70.157559 140.359054 
L 81.83129 140.517803 
L 85.433463 140.38118 
L 87.453607 140.150935 
L 88.801918 139.794721 
L 89.306774 139.483366 
L 89.493199 139.112306 
L 89.367295 138.682684 
L 88.942897 138.197094 
L 87.794934 137.372828 
L 85.473217 136.125476 
L 80.95896 134.061008 
L 75.030292 131.325323 
L 72.956881 130.124528 
L 72.047672 129.345029 
L 71.800288 128.892629 
L 71.86061 128.497925 
L 72.237864 128.162645 
L 72.933432 127.887049 
L 74.557293 127.5825 
L 76.826828 127.399015 
L 80.697195 127.312679 
L 88.910833 127.431684 
L 99.31267 127.55496 
L 102.867703 127.409499 
L 104.845032 127.171225 
L 106.146744 126.806274 
L 106.619707 126.488939 
L 106.774495 126.111947 
L 106.617994 125.676588 
L 106.164796 125.185598 
L 104.978544 124.354154 
L 102.61815 123.09955 
L 98.079505 121.030509 
L 92.821321 118.623547 
L 90.579317 117.391141 
L 89.50926 116.581482 
L 89.143093 116.106811 
L 89.078792 115.68874 
L 89.328666 115.329576 
L 89.897248 115.03017 
L 90.781185 114.789893 
L 92.671906 114.535381 
L 96.130671 114.371869 
L 101.586177 114.379739 
L 117.757179 114.569697 
L 121.015792 114.368656 
L 122.729691 114.08099 
L 123.748825 113.663055 
L 124.030495 113.309853 
L 123.997184 112.897592 
L 123.660434 112.428437 
L 122.629974 111.626203 
L 121.054596 110.721797 
L 117.564489 109.052364 
L 115.2 108 
L 115.2 108 
" clip-path="url(#p9ad7a49028)" style="fill: none; stroke: #000000; stroke-width: 3"/>
   </g>
   <g id="line2d_3">
    <path d="M 115.2 108 
L 230.4 108 
L 230.4 108 
" clip-path="url(#p9ad7a49028)" style="fill: none; stroke: #000000; stroke-width: 3"/>
   </g>
   <g id="line2d_4">
    <path d="M 230.4 108 
L 316.8 43.2 
L 316.8 43.2 
" clip-path="url(#p9ad7a49028)" style="fill: none; stroke: #000000; stroke-width: 3"/>
   </g>
   <g id="line2d_5">
    <path d="M 230.4 108 
L 239.719258 107.876699 
L 243.436287 107.991786 
L 246.126508 108.2994 
L 247.358023 108.677514 
L 247.783129 109.003821 
L 247.890593 109.389687 
L 247.688474 109.833599 
L 247.192489 110.332611 
L 245.949661 111.174664 
L 243.532756 112.439864 
L 238.16407 114.867545 
L 233.746483 116.913888 
L 231.566291 118.134704 
L 230.555786 118.933196 
L 230.233816 119.39958 
L 230.216045 119.808928 
L 230.513628 120.159146 
L 231.12992 120.449606 
L 232.639885 120.77551 
L 234.807138 120.978173 
L 238.568882 121.084876 
L 245.470935 121.008786 
L 257.205517 120.838627 
L 260.877124 120.962231 
L 262.960851 121.180555 
L 264.378731 121.523725 
L 264.931392 121.826116 
L 265.165384 122.188257 
L 265.085633 122.609226 
L 264.704832 123.086641 
L 263.615136 123.899982 
L 261.991618 124.813414 
L 258.452854 126.49197 
L 250.286658 130.256214 
L 248.370354 131.427551 
L 247.606983 132.179706 
L 247.465763 132.6122 
L 247.636361 132.986227 
L 248.125272 133.300572 
L 248.931115 133.555491 
L 250.711855 133.830625 
L 254.04668 134.017375 
L 259.400334 134.028603 
L 276.618995 133.845217 
L 279.747641 134.070626 
L 281.348838 134.379424 
L 282.028579 134.657987 
L 282.389888 134.996257 
L 282.434541 135.393899 
L 282.172152 135.849113 
L 281.619929 136.358669 
L 280.303313 137.214557 
L 277.813916 138.493349 
L 271.622422 141.278315 
L 267.449913 143.278705 
L 265.580071 144.441331 
L 264.859175 145.185521 
L 264.748622 145.612265 
L 264.950889 145.980355 
L 265.471685 146.288721 
L 266.308842 146.537769 
L 268.133795 146.804613 
L 271.518666 146.98198 
L 276.913864 146.985417 
L 294.079669 146.811942 
L 297.155335 147.047284 
L 298.711029 147.364614 
L 299.359072 147.649121 
L 299.688505 147.993368 
L 299.701894 148.396872 
L 299.409624 148.857688 
L 298.829646 149.372449 
L 297.476862 150.235118 
L 294.952463 151.520473 
L 288.747146 154.30803 
L 284.61515 156.300825 
L 283.156879 157.183273 
L 282.268225 157.958918 
L 282.035888 158.408497 
L 282.111902 158.800259 
L 282.505105 159.132548 
L 283.216483 159.40518 
L 284.862948 159.705491 
L 287.152642 159.885195 
L 291.044181 159.967562 
L 299.273878 159.845546 
L 308.631118 159.715124 
L 313.183817 159.876531 
L 315.139614 160.118841 
L 316.417966 160.488173 
L 316.874978 160.808498 
L 317.013972 161.188452 
L 316.842227 161.626669 
L 316.374711 162.120343 
L 315.169485 162.955346 
L 312.790053 164.213519 
L 308.239756 166.284745 
L 302.99596 168.689009 
L 300.774369 169.917588 
L 299.724058 170.723544 
L 299.372575 171.195462 
L 299.323754 171.610631 
L 299.589521 171.966814 
L 300.174016 172.263237 
L 301.63804 172.597755 
L 303.763713 172.808214 
L 307.480742 172.923301 
L 314.347072 172.853909 
L 316.8 172.8 
L 316.8 172.8 
" clip-path="url(#p9ad7a49028)" style="fill: none; stroke: #000000; stroke-width: 3"/>
   </g>
   <g id="line2d_6">
    <path d="M 374.4 43.2 
L 460.8 64.8 
L 460.8 64.8 
" clip-path="url(#p9ad7a49028)" style="fill: none; stroke: #000000; stroke-width: 3"/>
   </g>
   <g id="line2d_7">
    <path d="M 374.4 172.8 
L 371.427118 169.720235 
L 370.525253 168.509177 
L 370.25947 167.831854 
L 370.308024 167.507286 
L 370.548938 167.290921 
L 370.986968 167.185432 
L 372.012 167.234194 
L 374.026962 167.66385 
L 377.41664 168.690845 
L 384.809466 171.265851 
L 390.930527 173.301429 
L 393.722091 173.991985 
L 394.862491 174.10564 
L 395.563983 173.97241 
L 395.785367 173.745058 
L 395.815131 173.409921 
L 395.523562 172.718094 
L 394.87663 171.826375 
L 393.211554 170.01007 
L 388.378989 165.004535 
L 387.65247 163.892108 
L 387.545948 163.30437 
L 387.709076 163.04425 
L 388.068 162.894265 
L 388.976177 162.877295 
L 390.313514 163.101727 
L 392.695016 163.737563 
L 397.224557 165.229791 
L 408.341188 169.019738 
L 411.091353 169.687007 
L 412.203076 169.784531 
L 412.874932 169.63463 
L 413.076838 169.396323 
L 413.087913 169.050673 
L 412.77079 168.344472 
L 411.813908 167.102466 
L 409.617152 164.811152 
L 405.872811 160.945561 
L 405.027716 159.766436 
L 404.814182 159.118504 
L 404.900596 158.815232 
L 405.180708 158.620915 
L 405.658303 158.537683 
L 406.741234 158.619012 
L 408.825734 159.087784 
L 412.280616 160.151456 
L 420.531371 163.033107 
L 425.750413 164.737239 
L 428.003325 165.300742 
L 429.541697 165.462317 
L 430.183911 165.295743 
L 430.366397 165.046512 
L 430.358887 164.690408 
L 430.01645 163.969968 
L 429.032734 162.712868 
L 426.815553 160.410064 
L 423.386092 156.897534 
L 422.42921 155.655528 
L 422.112087 154.949327 
L 422.123162 154.603677 
L 422.325068 154.36537 
L 422.723528 154.237623 
L 423.69029 154.253607 
L 425.082464 154.508886 
L 427.526038 155.179637 
L 432.11324 156.704299 
L 442.504984 160.262437 
L 445.378065 160.998846 
L 446.87835 161.138997 
L 447.490924 160.95575 
L 447.654052 160.69563 
L 447.628067 160.329133 
L 447.260562 159.594593 
L 446.250471 158.322657 
L 444.013736 156.008854 
L 440.606035 152.508564 
L 439.676438 151.281906 
L 439.384869 150.590079 
L 439.414633 150.254942 
L 439.636017 150.02759 
L 440.05426 149.910972 
L 441.0502 149.943369 
L 443.02996 150.353225 
L 446.386174 151.361396 
L 452.920445 153.629404 
L 459.237643 155.77531 
L 462.26835 156.600383 
L 463.919946 156.825646 
L 464.651062 156.709079 
L 464.891976 156.492714 
L 464.94053 156.168146 
L 464.806239 155.740728 
L 464.293838 154.924682 
L 463.135487 153.569351 
L 460.8 151.2 
L 460.8 151.2 
" clip-path="url(#p9ad7a49028)" style="fill: none; stroke: #000000; stroke-width: 3"/>
   </g>
   <g id="line2d_8">
    <path d="M 460.8 64.8 
L 460.8 151.2 
L 460.8 151.2 
" clip-path="url(#p9ad7a49028)" style="fill: none; stroke: #000000; stroke-width: 3"/>
   </g>
   <g id="line2d_9">
    <path d="M 460.8 64.8 
L 457.827118 61.720235 
L 456.925253 60.509177 
L 456.65947 59.831854 
L 456.708024 59.507286 
L 456.948938 59.290921 
L 457.386968 59.185432 
L 458.412 59.234194 
L 460.426962 59.66385 
L 463.81664 60.690845 
L 471.209466 63.265851 
L 477.330527 65.301429 
L 480.122091 65.991985 
L 481.262491 66.10564 
L 481.963983 65.97241 
L 482.185367 65.745058 
L 482.215131 65.409921 
L 481.923562 64.718094 
L 481.27663 63.826375 
L 479.611554 62.01007 
L 474.778989 57.004535 
L 474.05247 55.892108 
L 473.945948 55.30437 
L 474.109076 55.04425 
L 474.468 54.894265 
L 475.376177 54.877295 
L 476.713514 55.101727 
L 479.095016 55.737563 
L 483.624557 57.229791 
L 494.741188 61.019738 
L 497.491353 61.687007 
L 498.603076 61.784531 
L 499.274932 61.63463 
L 499.476838 61.396323 
L 499.487913 61.050673 
L 499.17079 60.344472 
L 498.213908 59.102466 
L 496.017152 56.811152 
L 492.272811 52.945561 
L 491.427716 51.766436 
L 491.214182 51.118504 
L 491.300596 50.815232 
L 491.580708 50.620915 
L 492.058303 50.537683 
L 493.141234 50.619012 
L 495.225734 51.087784 
L 498.680616 52.151456 
L 506.931371 55.033107 
L 512.150413 56.737239 
L 514.403325 57.300742 
L 515.941697 57.462317 
L 516.583911 57.295743 
L 516.766397 57.046512 
L 516.758887 56.690408 
L 516.41645 55.969968 
L 515.432734 54.712868 
L 513.215553 52.410064 
L 509.786092 48.897534 
L 508.82921 47.655528 
L 508.512087 46.949327 
L 508.523162 46.603677 
L 508.725068 46.36537 
L 509.123528 46.237623 
L 510.09029 46.253607 
L 511.482464 46.508886 
L 513.926038 47.179637 
L 518.51324 48.704299 
L 528.904984 52.262437 
L 531.778065 52.998846 
L 533.27835 53.138997 
L 533.890924 52.95575 
L 534.054052 52.69563 
L 534.028067 52.329133 
L 533.660562 51.594593 
L 532.650471 50.322657 
L 530.413736 48.008854 
L 527.006035 44.508564 
L 526.076438 43.281906 
L 525.784869 42.590079 
L 525.814633 42.254942 
L 526.036017 42.02759 
L 526.45426 41.910972 
L 527.4502 41.943369 
L 529.42996 42.353225 
L 532.786174 43.361396 
L 539.320445 45.629404 
L 545.637643 47.77531 
L 548.66835 48.600383 
L 550.319946 48.825646 
L 551.051062 48.709079 
L 551.291976 48.492714 
L 551.34053 48.168146 
L 551.206239 47.740728 
L 550.693838 46.924682 
L 549.535487 45.569351 
L 547.2 43.2 
L 547.2 43.2 
" clip-path="url(#p9ad7a49028)" style="fill: none; stroke: #000000; stroke-width: 3"/>
   </g>
   <g id="line2d_10">
    <path d="M 460.8 151.2 
L 547.2 172.8 
L 547.2 172.8 
" clip-path="url(#p9ad7a49028)" style="fill: none; stroke: #000000; stroke-width: 3"/>
   </g>
   <g id="patch_2">
    <path d="M 83.700047 84.375035 
L 79.836122 74.232231 
L 74.19479 77.246093 
L 64.38042 77.130175 
z
" clip-path="url(#p9ad7a49028)" style="stroke: #000000; stroke-linejoin: miter"/>
   </g>
   <g id="patch_3">
    <path d="M 198.864361 108 
L 172.944361 104.76 
L 177.609961 108 
L 172.944361 111.24 
z
" clip-path="url(#p9ad7a49028)" style="stroke: #000000; stroke-linejoin: miter"/>
   </g>
   <g id="patch_4">
    <path d="M 285.300047 66.824965 
L 265.98042 74.069825 
L 275.79479 73.953907 
L 281.436122 76.967769 
z
" clip-path="url(#p9ad7a49028)" style="stroke: #000000; stroke-linejoin: miter"/>
   </g>
   <g id="patch_5">
    <path d="M 439.275014 59.418754 
L 422.50088 51.331225 
L 421.590285 54.997571 
L 412.915661 56.722911 
z
" clip-path="url(#p9ad7a49028)" style="stroke: #000000; stroke-linejoin: miter"/>
   </g>
   <g id="patch_6">
    <path d="M 460.8 117.828271 
L 469.44 108.108271 
L 460.8 109.857871 
L 452.16 108.108271 
z
" clip-path="url(#p9ad7a49028)" style="stroke: #000000; stroke-linejoin: miter"/>
   </g>
   <g id="patch_7">
    <path d="M 525.675014 167.418754 
L 508.90088 159.331225 
L 507.990285 162.997571 
L 499.315661 164.722911 
z
" clip-path="url(#p9ad7a49028)" style="stroke: #000000; stroke-linejoin: miter"/>
   </g>
   <g id="line2d_11"/>
   <g id="line2d_12"/>
   <g id="line2d_13">
    <defs>
     <path id="m903f76db6e" d="M 0 5 
C 1.326016 5 2.597899 4.473168 3.535534 3.535534 
C 4.473168 2.597899 5 1.326016 5 0 
C 5 -1.326016 4.473168 -2.597899 3.535534 -3.535534 
C 2.597899 -4.473168 1.326016 -5 0 -5 
C -1.326016 -5 -2.597899 -4.473168 -3.535534 -3.535534 
C -4.473168 -2.597899 -5 -1.326016 -5 0 
C -5 1.326016 -4.473168 2.597899 -3.535534 3.535534 
C -2.597899 4.473168 -1.326016 5 0 5 
z
" style="stroke: #000000"/>
    </defs>
    <g clip-path="url(#p9ad7a49028)">
     <use xlink:href="#m903f76db6e" x="115.2" y="108" style="stroke: #000000"/>
    </g>
   </g>
   <g id="line2d_14">
    <g clip-path="url(#p9ad7a49028)">
     <use xlink:href="#m903f76db6e" x="230.4" y="108" style="stroke: #000000"/>
    </g>
   </g>
   <g id="line2d_15"/>
   <g id="line2d_16"/>
   <g id="line2d_17"/>
   <g id="line2d_18"/>
   <g id="line2d_19">
    <g clip-path="url(#p9ad7a49028)">
     <use xlink:href="#m903f76db6e" x="460.8" y="64.8" style="stroke: #000000"/>
    </g>
   </g>
   <g id="line2d_20">
    <g clip-path="url(#p9ad7a49028)">
     <use xlink:href="#m903f76db6e" x="460.8" y="151.2" style="stroke: #000000"/>
    </g>
   </g>
   <g id="line2d_21"/>
   <g id="line2d_22"/>
  </g>
 </g>
 <defs>
  <clipPath id="p9ad7a49028">
   <rect x="0" y="0" width="576" height="216"/>
  </clipPath>
 </defs>
</svg>
