<?xml version="1.0" encoding="utf-8" standalone="no"?>
<!DOCTYPE svg PUBLIC "-//W3C//DTD SVG 1.1//EN"
  "http://www.w3.org/Graphics/SVG/1.1/DTD/svg11.dtd">
<svg xmlns:xlink="http://www.w3.org/1999/xlink" width="525.635pt" height="324.37pt" viewBox="0 0 525.635 324.37" xmlns="http://www.w3.org/2000/svg" version="1.1">
 <metadata>
  <rdf:RDF xmlns:dc="http://purl.org/dc/elements/1.1/" xmlns:cc="http://creativecommons.org/ns#" xmlns:rdf="http://www.w3.org/1999/02/22-rdf-syntax-ns#">
   <cc:Work>
    <dc:type rdf:resource="http://purl.org/dc/dcmitype/StillImage"/>
    <dc:date>2026-07-25T00:23:39.444326</dc:date>
    <dc:format>image/svg+xml</dc:format>
    <dc:creator>
     <cc:Agent>
      <dc:title>Matplotlib v3.11.0, https://matplotlib.org/</dc:title>
     </cc:Agent>
    </dc:creator>
   </cc:Work>
  </rdf:RDF>
 </metadata>
 <defs>
  <style type="text/css">*{stroke-linejoin: round; stroke-linecap: butt}</style>
 </defs>
 <g id="figure_1">
  <g id="patch_1">
   <path d="M 0 324.37 
L 525.635 324.37 
L 525.635 0 
L 0 0 
z
" style="fill: #fbfcfe"/>
  </g>
  <g id="axes_1">
   <g id="patch_2">
    <path d="M 64.69 268.473086 
L 500.39 268.473086 
L 500.39 12.96 
L 64.69 12.96 
z
" style="fill: #fbfcfe"/>
   </g>
   <g id="matplotlib.axis_1">
    <g id="xtick_1">
     <g id="line2d_1">
      <path d="M 64.69 268.473086 
L 64.69 12.96 
" clip-path="url(#p3e600a3cff)" style="fill: none; stroke: #dce2ec; stroke-opacity: 0.9; stroke-width: 0.7; stroke-linecap: square"/>
     </g>
     <g id="line2d_2">
      <defs>
       <path id="md13051f6cd" d="M 0 0 
L 0 3.5 
" style="stroke: #6a7688; stroke-width: 0.8"/>
      </defs>
      <g>
       <use xlink:href="#md13051f6cd" x="64.69" y="268.473086" style="fill: #6a7688; stroke: #6a7688; stroke-width: 0.8"/>
      </g>
     </g>
     <g id="text_1">
      <!-- $\mathdefault{10^{-4}}$ -->
      <g style="fill: #6a7688" transform="translate(48.4225 288.163086) scale(0.135 -0.135)">
       <defs>
        <path id="DejaVuSerif-14" d="M 909 0 
L 909 331 
L 1722 331 
L 1722 4213 
L 781 3603 
L 781 4013 
L 1919 4750 
L 2350 4750 
L 2350 331 
L 3163 331 
L 3163 0 
L 909 0 
z
" transform="scale(0.015625)"/>
        <path id="DejaVuSerif-13" d="M 2034 219 
Q 2513 219 2750 744 
Q 2988 1269 2988 2328 
Q 2988 3391 2750 3916 
Q 2513 4441 2034 4441 
Q 1556 4441 1318 3916 
Q 1081 3391 1081 2328 
Q 1081 1269 1318 744 
Q 1556 219 2034 219 
z
M 2034 -91 
Q 1275 -91 848 546 
Q 422 1184 422 2328 
Q 422 3475 848 4112 
Q 1275 4750 2034 4750 
Q 2797 4750 3222 4112 
Q 3647 3475 3647 2328 
Q 3647 1184 3222 546 
Q 2797 -91 2034 -91 
z
" transform="scale(0.015625)"/>
        <path id="DejaVuSerif-8cf" d="M 678 2259 
L 4684 2259 
L 4684 1753 
L 678 1753 
L 678 2259 
z
" transform="scale(0.015625)"/>
        <path id="DejaVuSerif-17" d="M 2234 1581 
L 2234 4063 
L 641 1581 
L 2234 1581 
z
M 3609 0 
L 1484 0 
L 1484 331 
L 2234 331 
L 2234 1247 
L 197 1247 
L 197 1588 
L 2241 4750 
L 2859 4750 
L 2859 1581 
L 3750 1581 
L 3750 1247 
L 2859 1247 
L 2859 331 
L 3609 331 
L 3609 0 
z
" transform="scale(0.015625)"/>
       </defs>
       <use xlink:href="#DejaVuSerif-14" transform="translate(0 0.757641)"/>
       <use xlink:href="#DejaVuSerif-13" transform="translate(63.623047 0.757641)"/>
       <use xlink:href="#DejaVuSerif-8cf" transform="translate(131.250385 42.046875) scale(0.7)"/>
       <use xlink:href="#DejaVuSerif-17" transform="translate(189.902728 42.046875) scale(0.7)"/>
      </g>
     </g>
    </g>
    <g id="xtick_2">
     <g id="line2d_3">
      <path d="M 173.615 268.473086 
L 173.615 12.96 
" clip-path="url(#p3e600a3cff)" style="fill: none; stroke: #dce2ec; stroke-opacity: 0.9; stroke-width: 0.7; stroke-linecap: square"/>
     </g>
     <g id="line2d_4">
      <g>
       <use xlink:href="#md13051f6cd" x="173.615" y="268.473086" style="fill: #6a7688; stroke: #6a7688; stroke-width: 0.8"/>
      </g>
     </g>
     <g id="text_2">
      <!-- $\mathdefault{10^{-3}}$ -->
      <g style="fill: #6a7688" transform="translate(157.3475 288.163086) scale(0.135 -0.135)">
       <defs>
        <path id="DejaVuSerif-16" d="M 622 4469 
Q 988 4606 1323 4678 
Q 1659 4750 1953 4750 
Q 2638 4750 3022 4454 
Q 3406 4159 3406 3634 
Q 3406 3213 3140 2930 
Q 2875 2647 2388 2547 
Q 2963 2466 3280 2130 
Q 3597 1794 3597 1259 
Q 3597 606 3158 257 
Q 2719 -91 1894 -91 
Q 1528 -91 1179 -12 
Q 831 66 488 225 
L 488 1131 
L 838 1131 
Q 869 681 1141 450 
Q 1413 219 1906 219 
Q 2384 219 2661 495 
Q 2938 772 2938 1253 
Q 2938 1803 2653 2086 
Q 2369 2369 1819 2369 
L 1522 2369 
L 1522 2688 
L 1678 2688 
Q 2225 2688 2498 2914 
Q 2772 3141 2772 3597 
Q 2772 4006 2547 4223 
Q 2322 4441 1900 4441 
Q 1478 4441 1245 4241 
Q 1013 4041 972 3647 
L 622 3647 
L 622 4469 
z
" transform="scale(0.015625)"/>
       </defs>
       <use xlink:href="#DejaVuSerif-14" transform="translate(0 0.757641)"/>
       <use xlink:href="#DejaVuSerif-13" transform="translate(63.623047 0.757641)"/>
       <use xlink:href="#DejaVuSerif-8cf" transform="translate(131.250385 42.046875) scale(0.7)"/>
       <use xlink:href="#DejaVuSerif-16" transform="translate(189.902728 42.046875) scale(0.7)"/>
      </g>
     </g>
    </g>
    <g id="xtick_3">
     <g id="line2d_5">
      <path d="M 282.54 268.473086 
L 282.54 12.96 
" clip-path="url(#p3e600a3cff)" style="fill: none; stroke: #dce2ec; stroke-opacity: 0.9; stroke-width: 0.7; stroke-linecap: square"/>
     </g>
     <g id="line2d_6">
      <g>
       <use xlink:href="#md13051f6cd" x="282.54" y="268.473086" style="fill: #6a7688; stroke: #6a7688; stroke-width: 0.8"/>
      </g>
     </g>
     <g id="text_3">
      <!-- $\mathdefault{10^{-2}}$ -->
      <g style="fill: #6a7688" transform="translate(266.2725 288.163086) scale(0.135 -0.135)">
       <defs>
        <path id="DejaVuSerif-15" d="M 819 3553 
L 469 3553 
L 469 4384 
Q 803 4563 1142 4656 
Q 1481 4750 1806 4750 
Q 2534 4750 2956 4397 
Q 3378 4044 3378 3438 
Q 3378 2753 2422 1800 
Q 2347 1728 2309 1691 
L 1131 513 
L 3078 513 
L 3078 1088 
L 3444 1088 
L 3444 0 
L 434 0 
L 434 341 
L 1850 1753 
Q 2319 2222 2519 2614 
Q 2719 3006 2719 3438 
Q 2719 3909 2473 4175 
Q 2228 4441 1797 4441 
Q 1350 4441 1106 4219 
Q 863 3997 819 3553 
z
" transform="scale(0.015625)"/>
       </defs>
       <use xlink:href="#DejaVuSerif-14" transform="translate(0 0.757641)"/>
       <use xlink:href="#DejaVuSerif-13" transform="translate(63.623047 0.757641)"/>
       <use xlink:href="#DejaVuSerif-8cf" transform="translate(131.250385 42.046875) scale(0.7)"/>
       <use xlink:href="#DejaVuSerif-15" transform="translate(189.902728 42.046875) scale(0.7)"/>
      </g>
     </g>
    </g>
    <g id="xtick_4">
     <g id="line2d_7">
      <path d="M 391.465 268.473086 
L 391.465 12.96 
" clip-path="url(#p3e600a3cff)" style="fill: none; stroke: #dce2ec; stroke-opacity: 0.9; stroke-width: 0.7; stroke-linecap: square"/>
     </g>
     <g id="line2d_8">
      <g>
       <use xlink:href="#md13051f6cd" x="391.465" y="268.473086" style="fill: #6a7688; stroke: #6a7688; stroke-width: 0.8"/>
      </g>
     </g>
     <g id="text_4">
      <!-- $\mathdefault{10^{-1}}$ -->
      <g style="fill: #6a7688" transform="translate(375.1975 288.163086) scale(0.135 -0.135)">
       <use xlink:href="#DejaVuSerif-14" transform="translate(0 0.757641)"/>
       <use xlink:href="#DejaVuSerif-13" transform="translate(63.623047 0.757641)"/>
       <use xlink:href="#DejaVuSerif-8cf" transform="translate(131.250385 42.046875) scale(0.7)"/>
       <use xlink:href="#DejaVuSerif-14" transform="translate(189.902728 42.046875) scale(0.7)"/>
      </g>
     </g>
    </g>
    <g id="xtick_5">
     <g id="line2d_9">
      <path d="M 500.39 268.473086 
L 500.39 12.96 
" clip-path="url(#p3e600a3cff)" style="fill: none; stroke: #dce2ec; stroke-opacity: 0.9; stroke-width: 0.7; stroke-linecap: square"/>
     </g>
     <g id="line2d_10">
      <g>
       <use xlink:href="#md13051f6cd" x="500.39" y="268.473086" style="fill: #6a7688; stroke: #6a7688; stroke-width: 0.8"/>
      </g>
     </g>
     <g id="text_5">
      <!-- $\mathdefault{10^{0}}$ -->
      <g style="fill: #6a7688" transform="translate(488.105 288.163086) scale(0.135 -0.135)">
       <use xlink:href="#DejaVuSerif-14" transform="translate(0 0.757641)"/>
       <use xlink:href="#DejaVuSerif-13" transform="translate(63.623047 0.757641)"/>
       <use xlink:href="#DejaVuSerif-13" transform="translate(131.250385 42.046875) scale(0.7)"/>
      </g>
     </g>
    </g>
    <g id="xtick_6">
     <g id="line2d_11">
      <defs>
       <path id="mf2995fd214" d="M 0 0 
L 0 2 
" style="stroke: #6a7688; stroke-width: 0.6"/>
      </defs>
      <g>
       <use xlink:href="#mf2995fd214" x="97.479692" y="268.473086" style="fill: #6a7688; stroke: #6a7688; stroke-width: 0.6"/>
      </g>
     </g>
    </g>
    <g id="xtick_7">
     <g id="line2d_12">
      <g>
       <use xlink:href="#mf2995fd214" x="116.660433" y="268.473086" style="fill: #6a7688; stroke: #6a7688; stroke-width: 0.6"/>
      </g>
     </g>
    </g>
    <g id="xtick_8">
     <g id="line2d_13">
      <g>
       <use xlink:href="#mf2995fd214" x="130.269385" y="268.473086" style="fill: #6a7688; stroke: #6a7688; stroke-width: 0.6"/>
      </g>
     </g>
    </g>
    <g id="xtick_9">
     <g id="line2d_14">
      <g>
       <use xlink:href="#mf2995fd214" x="140.825308" y="268.473086" style="fill: #6a7688; stroke: #6a7688; stroke-width: 0.6"/>
      </g>
     </g>
    </g>
    <g id="xtick_10">
     <g id="line2d_15">
      <g>
       <use xlink:href="#mf2995fd214" x="149.450125" y="268.473086" style="fill: #6a7688; stroke: #6a7688; stroke-width: 0.6"/>
      </g>
     </g>
    </g>
    <g id="xtick_11">
     <g id="line2d_16">
      <g>
       <use xlink:href="#mf2995fd214" x="156.742304" y="268.473086" style="fill: #6a7688; stroke: #6a7688; stroke-width: 0.6"/>
      </g>
     </g>
    </g>
    <g id="xtick_12">
     <g id="line2d_17">
      <g>
       <use xlink:href="#mf2995fd214" x="163.059077" y="268.473086" style="fill: #6a7688; stroke: #6a7688; stroke-width: 0.6"/>
      </g>
     </g>
    </g>
    <g id="xtick_13">
     <g id="line2d_18">
      <g>
       <use xlink:href="#mf2995fd214" x="168.630865" y="268.473086" style="fill: #6a7688; stroke: #6a7688; stroke-width: 0.6"/>
      </g>
     </g>
    </g>
    <g id="xtick_14">
     <g id="line2d_19">
      <g>
       <use xlink:href="#mf2995fd214" x="206.404692" y="268.473086" style="fill: #6a7688; stroke: #6a7688; stroke-width: 0.6"/>
      </g>
     </g>
    </g>
    <g id="xtick_15">
     <g id="line2d_20">
      <g>
       <use xlink:href="#mf2995fd214" x="225.585433" y="268.473086" style="fill: #6a7688; stroke: #6a7688; stroke-width: 0.6"/>
      </g>
     </g>
    </g>
    <g id="xtick_16">
     <g id="line2d_21">
      <g>
       <use xlink:href="#mf2995fd214" x="239.194385" y="268.473086" style="fill: #6a7688; stroke: #6a7688; stroke-width: 0.6"/>
      </g>
     </g>
    </g>
    <g id="xtick_17">
     <g id="line2d_22">
      <g>
       <use xlink:href="#mf2995fd214" x="249.750308" y="268.473086" style="fill: #6a7688; stroke: #6a7688; stroke-width: 0.6"/>
      </g>
     </g>
    </g>
    <g id="xtick_18">
     <g id="line2d_23">
      <g>
       <use xlink:href="#mf2995fd214" x="258.375125" y="268.473086" style="fill: #6a7688; stroke: #6a7688; stroke-width: 0.6"/>
      </g>
     </g>
    </g>
    <g id="xtick_19">
     <g id="line2d_24">
      <g>
       <use xlink:href="#mf2995fd214" x="265.667304" y="268.473086" style="fill: #6a7688; stroke: #6a7688; stroke-width: 0.6"/>
      </g>
     </g>
    </g>
    <g id="xtick_20">
     <g id="line2d_25">
      <g>
       <use xlink:href="#mf2995fd214" x="271.984077" y="268.473086" style="fill: #6a7688; stroke: #6a7688; stroke-width: 0.6"/>
      </g>
     </g>
    </g>
    <g id="xtick_21">
     <g id="line2d_26">
      <g>
       <use xlink:href="#mf2995fd214" x="277.555865" y="268.473086" style="fill: #6a7688; stroke: #6a7688; stroke-width: 0.6"/>
      </g>
     </g>
    </g>
    <g id="xtick_22">
     <g id="line2d_27">
      <g>
       <use xlink:href="#mf2995fd214" x="315.329692" y="268.473086" style="fill: #6a7688; stroke: #6a7688; stroke-width: 0.6"/>
      </g>
     </g>
    </g>
    <g id="xtick_23">
     <g id="line2d_28">
      <g>
       <use xlink:href="#mf2995fd214" x="334.510433" y="268.473086" style="fill: #6a7688; stroke: #6a7688; stroke-width: 0.6"/>
      </g>
     </g>
    </g>
    <g id="xtick_24">
     <g id="line2d_29">
      <g>
       <use xlink:href="#mf2995fd214" x="348.119385" y="268.473086" style="fill: #6a7688; stroke: #6a7688; stroke-width: 0.6"/>
      </g>
     </g>
    </g>
    <g id="xtick_25">
     <g id="line2d_30">
      <g>
       <use xlink:href="#mf2995fd214" x="358.675308" y="268.473086" style="fill: #6a7688; stroke: #6a7688; stroke-width: 0.6"/>
      </g>
     </g>
    </g>
    <g id="xtick_26">
     <g id="line2d_31">
      <g>
       <use xlink:href="#mf2995fd214" x="367.300125" y="268.473086" style="fill: #6a7688; stroke: #6a7688; stroke-width: 0.6"/>
      </g>
     </g>
    </g>
    <g id="xtick_27">
     <g id="line2d_32">
      <g>
       <use xlink:href="#mf2995fd214" x="374.592304" y="268.473086" style="fill: #6a7688; stroke: #6a7688; stroke-width: 0.6"/>
      </g>
     </g>
    </g>
    <g id="xtick_28">
     <g id="line2d_33">
      <g>
       <use xlink:href="#mf2995fd214" x="380.909077" y="268.473086" style="fill: #6a7688; stroke: #6a7688; stroke-width: 0.6"/>
      </g>
     </g>
    </g>
    <g id="xtick_29">
     <g id="line2d_34">
      <g>
       <use xlink:href="#mf2995fd214" x="386.480865" y="268.473086" style="fill: #6a7688; stroke: #6a7688; stroke-width: 0.6"/>
      </g>
     </g>
    </g>
    <g id="xtick_30">
     <g id="line2d_35">
      <g>
       <use xlink:href="#mf2995fd214" x="424.254692" y="268.473086" style="fill: #6a7688; stroke: #6a7688; stroke-width: 0.6"/>
      </g>
     </g>
    </g>
    <g id="xtick_31">
     <g id="line2d_36">
      <g>
       <use xlink:href="#mf2995fd214" x="443.435433" y="268.473086" style="fill: #6a7688; stroke: #6a7688; stroke-width: 0.6"/>
      </g>
     </g>
    </g>
    <g id="xtick_32">
     <g id="line2d_37">
      <g>
       <use xlink:href="#mf2995fd214" x="457.044385" y="268.473086" style="fill: #6a7688; stroke: #6a7688; stroke-width: 0.6"/>
      </g>
     </g>
    </g>
    <g id="xtick_33">
     <g id="line2d_38">
      <g>
       <use xlink:href="#mf2995fd214" x="467.600308" y="268.473086" style="fill: #6a7688; stroke: #6a7688; stroke-width: 0.6"/>
      </g>
     </g>
    </g>
    <g id="xtick_34">
     <g id="line2d_39">
      <g>
       <use xlink:href="#mf2995fd214" x="476.225125" y="268.473086" style="fill: #6a7688; stroke: #6a7688; stroke-width: 0.6"/>
      </g>
     </g>
    </g>
    <g id="xtick_35">
     <g id="line2d_40">
      <g>
       <use xlink:href="#mf2995fd214" x="483.517304" y="268.473086" style="fill: #6a7688; stroke: #6a7688; stroke-width: 0.6"/>
      </g>
     </g>
    </g>
    <g id="xtick_36">
     <g id="line2d_41">
      <g>
       <use xlink:href="#mf2995fd214" x="489.834077" y="268.473086" style="fill: #6a7688; stroke: #6a7688; stroke-width: 0.6"/>
      </g>
     </g>
    </g>
    <g id="xtick_37">
     <g id="line2d_42">
      <g>
       <use xlink:href="#mf2995fd214" x="495.405865" y="268.473086" style="fill: #6a7688; stroke: #6a7688; stroke-width: 0.6"/>
      </g>
     </g>
    </g>
    <g id="text_6">
     <!-- scale factor  $a$ -->
     <g style="fill: #29323f" transform="translate(225.9 307.56625) scale(0.16 -0.16)">
      <defs>
       <path id="DejaVuSerif-56" d="M 359 184 
L 359 959 
L 691 959 
Q 703 588 923 403 
Q 1144 219 1575 219 
Q 1963 219 2166 364 
Q 2369 509 2369 788 
Q 2369 1006 2220 1140 
Q 2072 1275 1594 1428 
L 1178 1569 
Q 750 1706 558 1912 
Q 366 2119 366 2438 
Q 366 2894 700 3153 
Q 1034 3413 1625 3413 
Q 1888 3413 2178 3344 
Q 2469 3275 2778 3144 
L 2778 2419 
L 2447 2419 
Q 2434 2741 2221 2922 
Q 2009 3103 1644 3103 
Q 1281 3103 1095 2975 
Q 909 2847 909 2591 
Q 909 2381 1050 2254 
Q 1191 2128 1613 1997 
L 2069 1856 
Q 2541 1709 2748 1489 
Q 2956 1269 2956 922 
Q 2956 450 2595 179 
Q 2234 -91 1600 -91 
Q 1278 -91 972 -22 
Q 666 47 359 184 
z
" transform="scale(0.015625)"/>
       <path id="DejaVuSerif-46" d="M 3291 997 
Q 3169 466 2822 187 
Q 2475 -91 1925 -91 
Q 1200 -91 759 389 
Q 319 869 319 1663 
Q 319 2459 759 2936 
Q 1200 3413 1925 3413 
Q 2241 3413 2553 3339 
Q 2866 3266 3181 3116 
L 3181 2266 
L 2847 2266 
Q 2781 2703 2561 2903 
Q 2341 3103 1931 3103 
Q 1466 3103 1228 2742 
Q 991 2381 991 1663 
Q 991 944 1227 581 
Q 1463 219 1931 219 
Q 2303 219 2525 412 
Q 2747 606 2828 997 
L 3291 997 
z
" transform="scale(0.015625)"/>
       <path id="DejaVuSerif-44" d="M 2547 1044 
L 2547 1747 
L 1806 1747 
Q 1378 1747 1168 1562 
Q 959 1378 959 997 
Q 959 650 1171 447 
Q 1384 244 1747 244 
Q 2106 244 2326 466 
Q 2547 688 2547 1044 
z
M 3122 2075 
L 3122 331 
L 3634 331 
L 3634 0 
L 2547 0 
L 2547 359 
Q 2356 128 2106 18 
Q 1856 -91 1522 -91 
Q 969 -91 644 203 
Q 319 497 319 997 
Q 319 1513 691 1797 
Q 1063 2081 1741 2081 
L 2547 2081 
L 2547 2309 
Q 2547 2688 2317 2895 
Q 2088 3103 1672 3103 
Q 1328 3103 1125 2947 
Q 922 2791 872 2484 
L 575 2484 
L 575 3156 
Q 875 3284 1158 3348 
Q 1441 3413 1709 3413 
Q 2400 3413 2761 3070 
Q 3122 2728 3122 2075 
z
" transform="scale(0.015625)"/>
       <path id="DejaVuSerif-4f" d="M 1313 331 
L 1856 331 
L 1856 0 
L 184 0 
L 184 331 
L 738 331 
L 738 4531 
L 184 4531 
L 184 4863 
L 1313 4863 
L 1313 331 
z
" transform="scale(0.015625)"/>
       <path id="DejaVuSerif-48" d="M 3469 1600 
L 991 1600 
L 991 1575 
Q 991 903 1244 561 
Q 1497 219 1991 219 
Q 2369 219 2611 417 
Q 2853 616 2950 1006 
L 3413 1006 
Q 3275 459 2904 184 
Q 2534 -91 1931 -91 
Q 1203 -91 761 389 
Q 319 869 319 1663 
Q 319 2450 753 2931 
Q 1188 3413 1894 3413 
Q 2647 3413 3050 2948 
Q 3453 2484 3469 1600 
z
M 2791 1931 
Q 2772 2513 2545 2808 
Q 2319 3103 1894 3103 
Q 1497 3103 1269 2806 
Q 1041 2509 991 1931 
L 2791 1931 
z
" transform="scale(0.015625)"/>
       <path id="DejaVuSerif-3" transform="scale(0.015625)"/>
       <path id="DejaVuSerif-49" d="M 2753 4078 
L 2450 4078 
Q 2447 4313 2317 4434 
Q 2188 4556 1941 4556 
Q 1619 4556 1487 4379 
Q 1356 4203 1356 3750 
L 1356 3322 
L 2284 3322 
L 2284 2988 
L 1356 2988 
L 1356 331 
L 2094 331 
L 2094 0 
L 231 0 
L 231 331 
L 781 331 
L 781 2988 
L 231 2988 
L 231 3322 
L 781 3322 
L 781 3738 
Q 781 4294 1070 4578 
Q 1359 4863 1919 4863 
Q 2128 4863 2337 4825 
Q 2547 4788 2753 4709 
L 2753 4078 
z
" transform="scale(0.015625)"/>
       <path id="DejaVuSerif-57" d="M 691 2988 
L 184 2988 
L 184 3322 
L 691 3322 
L 691 4353 
L 1269 4353 
L 1269 3322 
L 2350 3322 
L 2350 2988 
L 1269 2988 
L 1269 878 
Q 1269 456 1350 337 
Q 1431 219 1650 219 
Q 1875 219 1978 351 
Q 2081 484 2088 781 
L 2522 781 
Q 2497 328 2275 118 
Q 2053 -91 1600 -91 
Q 1103 -91 897 129 
Q 691 350 691 878 
L 691 2988 
z
" transform="scale(0.015625)"/>
       <path id="DejaVuSerif-52" d="M 1925 219 
Q 2388 219 2623 584 
Q 2859 950 2859 1663 
Q 2859 2375 2623 2739 
Q 2388 3103 1925 3103 
Q 1463 3103 1227 2739 
Q 991 2375 991 1663 
Q 991 950 1228 584 
Q 1466 219 1925 219 
z
M 1925 -91 
Q 1200 -91 759 389 
Q 319 869 319 1663 
Q 319 2456 758 2934 
Q 1197 3413 1925 3413 
Q 2653 3413 3092 2934 
Q 3531 2456 3531 1663 
Q 3531 869 3092 389 
Q 2653 -91 1925 -91 
z
" transform="scale(0.015625)"/>
       <path id="DejaVuSerif-55" d="M 3059 3328 
L 3059 2497 
L 2728 2497 
Q 2713 2744 2591 2866 
Q 2469 2988 2234 2988 
Q 1809 2988 1582 2694 
Q 1356 2400 1356 1850 
L 1356 331 
L 2022 331 
L 2022 0 
L 263 0 
L 263 331 
L 781 331 
L 781 2994 
L 231 2994 
L 231 3322 
L 1356 3322 
L 1356 2731 
Q 1525 3078 1790 3245 
Q 2056 3413 2438 3413 
Q 2578 3413 2733 3391 
Q 2888 3369 3059 3328 
z
" transform="scale(0.015625)"/>
       <path id="Cmmi10-79" d="M 1113 -72 
Q 709 -72 476 233 
Q 244 538 244 953 
Q 244 1363 456 1803 
Q 669 2244 1030 2536 
Q 1391 2828 1806 2828 
Q 1997 2828 2147 2725 
Q 2297 2622 2381 2444 
Q 2453 2700 2663 2700 
Q 2744 2700 2798 2651 
Q 2853 2603 2853 2522 
Q 2853 2503 2851 2493 
Q 2850 2484 2847 2472 
L 2400 684 
Q 2356 494 2356 372 
Q 2356 97 2541 97 
Q 2741 97 2845 351 
Q 2950 606 3022 941 
Q 3034 978 3072 978 
L 3150 978 
Q 3175 978 3190 956 
Q 3206 934 3206 916 
Q 3094 469 2961 198 
Q 2828 -72 2528 -72 
Q 2313 -72 2147 54 
Q 1981 181 1941 391 
Q 1528 -72 1113 -72 
z
M 1119 97 
Q 1350 97 1567 270 
Q 1784 444 1941 678 
Q 1947 684 1947 697 
L 2291 2088 
L 2297 2106 
Q 2259 2334 2132 2498 
Q 2006 2663 1791 2663 
Q 1575 2663 1389 2486 
Q 1203 2309 1075 2069 
Q 950 1813 836 1366 
Q 722 919 722 672 
Q 722 450 817 273 
Q 913 97 1119 97 
z
" transform="scale(0.015625)"/>
      </defs>
      <use xlink:href="#DejaVuSerif-56" transform="translate(0 0.015625)"/>
      <use xlink:href="#DejaVuSerif-46" transform="translate(51.318359 0.015625)"/>
      <use xlink:href="#DejaVuSerif-44" transform="translate(107.324219 0.015625)"/>
      <use xlink:href="#DejaVuSerif-4f" transform="translate(166.943359 0.015625)"/>
      <use xlink:href="#DejaVuSerif-48" transform="translate(198.925781 0.015625)"/>
      <use xlink:href="#DejaVuSerif-3" transform="translate(258.105469 0.015625)"/>
      <use xlink:href="#DejaVuSerif-49" transform="translate(289.892578 0.015625)"/>
      <use xlink:href="#DejaVuSerif-44" transform="translate(326.904297 0.015625)"/>
      <use xlink:href="#DejaVuSerif-46" transform="translate(386.523438 0.015625)"/>
      <use xlink:href="#DejaVuSerif-57" transform="translate(442.529297 0.015625)"/>
      <use xlink:href="#DejaVuSerif-52" transform="translate(482.714844 0.015625)"/>
      <use xlink:href="#DejaVuSerif-55" transform="translate(542.919922 0.015625)"/>
      <use xlink:href="#DejaVuSerif-3" transform="translate(590.722656 0.015625)"/>
      <use xlink:href="#DejaVuSerif-3" transform="translate(622.509766 0.015625)"/>
      <use xlink:href="#Cmmi10-79" transform="translate(654.296875 0.015625)"/>
     </g>
    </g>
   </g>
   <g id="matplotlib.axis_2">
    <g id="ytick_1">
     <g id="line2d_43">
      <path d="M 64.69 242.887825 
L 500.39 242.887825 
" clip-path="url(#p3e600a3cff)" style="fill: none; stroke: #dce2ec; stroke-opacity: 0.9; stroke-width: 0.7; stroke-linecap: square"/>
     </g>
     <g id="line2d_44">
      <defs>
       <path id="m13aba78c8b" d="M 0 0 
L -3.5 0 
" style="stroke: #6a7688; stroke-width: 0.8"/>
      </defs>
      <g>
       <use xlink:href="#m13aba78c8b" x="64.69" y="242.887825" style="fill: #6a7688; stroke: #6a7688; stroke-width: 0.8"/>
      </g>
     </g>
     <g id="text_7">
      <!-- $\mathdefault{10^{0}}$ -->
      <g style="fill: #6a7688" transform="translate(33.12 249.232825) scale(0.135 -0.135)">
       <use xlink:href="#DejaVuSerif-14" transform="translate(0 0.757641)"/>
       <use xlink:href="#DejaVuSerif-13" transform="translate(63.623047 0.757641)"/>
       <use xlink:href="#DejaVuSerif-13" transform="translate(131.250385 42.046875) scale(0.7)"/>
      </g>
     </g>
    </g>
    <g id="ytick_2">
     <g id="line2d_45">
      <path d="M 64.69 193.956288 
L 500.39 193.956288 
" clip-path="url(#p3e600a3cff)" style="fill: none; stroke: #dce2ec; stroke-opacity: 0.9; stroke-width: 0.7; stroke-linecap: square"/>
     </g>
     <g id="line2d_46">
      <g>
       <use xlink:href="#m13aba78c8b" x="64.69" y="193.956288" style="fill: #6a7688; stroke: #6a7688; stroke-width: 0.8"/>
      </g>
     </g>
     <g id="text_8">
      <!-- $\mathdefault{10^{1}}$ -->
      <g style="fill: #6a7688" transform="translate(33.12 200.301288) scale(0.135 -0.135)">
       <use xlink:href="#DejaVuSerif-14" transform="translate(0 0.757641)"/>
       <use xlink:href="#DejaVuSerif-13" transform="translate(63.623047 0.757641)"/>
       <use xlink:href="#DejaVuSerif-14" transform="translate(131.250385 42.046875) scale(0.7)"/>
      </g>
     </g>
    </g>
    <g id="ytick_3">
     <g id="line2d_47">
      <path d="M 64.69 145.024751 
L 500.39 145.024751 
" clip-path="url(#p3e600a3cff)" style="fill: none; stroke: #dce2ec; stroke-opacity: 0.9; stroke-width: 0.7; stroke-linecap: square"/>
     </g>
     <g id="line2d_48">
      <g>
       <use xlink:href="#m13aba78c8b" x="64.69" y="145.024751" style="fill: #6a7688; stroke: #6a7688; stroke-width: 0.8"/>
      </g>
     </g>
     <g id="text_9">
      <!-- $\mathdefault{10^{2}}$ -->
      <g style="fill: #6a7688" transform="translate(33.12 151.369751) scale(0.135 -0.135)">
       <use xlink:href="#DejaVuSerif-14" transform="translate(0 0.757641)"/>
       <use xlink:href="#DejaVuSerif-13" transform="translate(63.623047 0.757641)"/>
       <use xlink:href="#DejaVuSerif-15" transform="translate(131.250385 42.046875) scale(0.7)"/>
      </g>
     </g>
    </g>
    <g id="ytick_4">
     <g id="line2d_49">
      <path d="M 64.69 96.093214 
L 500.39 96.093214 
" clip-path="url(#p3e600a3cff)" style="fill: none; stroke: #dce2ec; stroke-opacity: 0.9; stroke-width: 0.7; stroke-linecap: square"/>
     </g>
     <g id="line2d_50">
      <g>
       <use xlink:href="#m13aba78c8b" x="64.69" y="96.093214" style="fill: #6a7688; stroke: #6a7688; stroke-width: 0.8"/>
      </g>
     </g>
     <g id="text_10">
      <!-- $\mathdefault{10^{3}}$ -->
      <g style="fill: #6a7688" transform="translate(33.12 102.438214) scale(0.135 -0.135)">
       <use xlink:href="#DejaVuSerif-14" transform="translate(0 0.757641)"/>
       <use xlink:href="#DejaVuSerif-13" transform="translate(63.623047 0.757641)"/>
       <use xlink:href="#DejaVuSerif-16" transform="translate(131.250385 42.046875) scale(0.7)"/>
      </g>
     </g>
    </g>
    <g id="ytick_5">
     <g id="line2d_51">
      <path d="M 64.69 47.161677 
L 500.39 47.161677 
" clip-path="url(#p3e600a3cff)" style="fill: none; stroke: #dce2ec; stroke-opacity: 0.9; stroke-width: 0.7; stroke-linecap: square"/>
     </g>
     <g id="line2d_52">
      <g>
       <use xlink:href="#m13aba78c8b" x="64.69" y="47.161677" style="fill: #6a7688; stroke: #6a7688; stroke-width: 0.8"/>
      </g>
     </g>
     <g id="text_11">
      <!-- $\mathdefault{10^{4}}$ -->
      <g style="fill: #6a7688" transform="translate(33.12 53.506677) scale(0.135 -0.135)">
       <use xlink:href="#DejaVuSerif-14" transform="translate(0 0.757641)"/>
       <use xlink:href="#DejaVuSerif-13" transform="translate(63.623047 0.757641)"/>
       <use xlink:href="#DejaVuSerif-17" transform="translate(131.250385 42.046875) scale(0.7)"/>
      </g>
     </g>
    </g>
    <g id="ytick_6">
     <g id="line2d_53">
      <defs>
       <path id="m1c6bb69256" d="M 0 0 
L -2 0 
" style="stroke: #6a7688; stroke-width: 0.6"/>
      </defs>
      <g>
       <use xlink:href="#m1c6bb69256" x="64.69" y="268.473086" style="fill: #6a7688; stroke: #6a7688; stroke-width: 0.6"/>
      </g>
     </g>
    </g>
    <g id="ytick_7">
     <g id="line2d_54">
      <g>
       <use xlink:href="#m1c6bb69256" x="64.69" y="262.359642" style="fill: #6a7688; stroke: #6a7688; stroke-width: 0.6"/>
      </g>
     </g>
    </g>
    <g id="ytick_8">
     <g id="line2d_55">
      <g>
       <use xlink:href="#m1c6bb69256" x="64.69" y="257.617686" style="fill: #6a7688; stroke: #6a7688; stroke-width: 0.6"/>
      </g>
     </g>
    </g>
    <g id="ytick_9">
     <g id="line2d_56">
      <g>
       <use xlink:href="#m1c6bb69256" x="64.69" y="253.743226" style="fill: #6a7688; stroke: #6a7688; stroke-width: 0.6"/>
      </g>
     </g>
    </g>
    <g id="ytick_10">
     <g id="line2d_57">
      <g>
       <use xlink:href="#m1c6bb69256" x="64.69" y="250.467416" style="fill: #6a7688; stroke: #6a7688; stroke-width: 0.6"/>
      </g>
     </g>
    </g>
    <g id="ytick_11">
     <g id="line2d_58">
      <g>
       <use xlink:href="#m1c6bb69256" x="64.69" y="247.629781" style="fill: #6a7688; stroke: #6a7688; stroke-width: 0.6"/>
      </g>
     </g>
    </g>
    <g id="ytick_12">
     <g id="line2d_59">
      <g>
       <use xlink:href="#m1c6bb69256" x="64.69" y="245.12681" style="fill: #6a7688; stroke: #6a7688; stroke-width: 0.6"/>
      </g>
     </g>
    </g>
    <g id="ytick_13">
     <g id="line2d_60">
      <g>
       <use xlink:href="#m1c6bb69256" x="64.69" y="228.157965" style="fill: #6a7688; stroke: #6a7688; stroke-width: 0.6"/>
      </g>
     </g>
    </g>
    <g id="ytick_14">
     <g id="line2d_61">
      <g>
       <use xlink:href="#m1c6bb69256" x="64.69" y="219.541549" style="fill: #6a7688; stroke: #6a7688; stroke-width: 0.6"/>
      </g>
     </g>
    </g>
    <g id="ytick_15">
     <g id="line2d_62">
      <g>
       <use xlink:href="#m1c6bb69256" x="64.69" y="213.428104" style="fill: #6a7688; stroke: #6a7688; stroke-width: 0.6"/>
      </g>
     </g>
    </g>
    <g id="ytick_16">
     <g id="line2d_63">
      <g>
       <use xlink:href="#m1c6bb69256" x="64.69" y="208.686148" style="fill: #6a7688; stroke: #6a7688; stroke-width: 0.6"/>
      </g>
     </g>
    </g>
    <g id="ytick_17">
     <g id="line2d_64">
      <g>
       <use xlink:href="#m1c6bb69256" x="64.69" y="204.811688" style="fill: #6a7688; stroke: #6a7688; stroke-width: 0.6"/>
      </g>
     </g>
    </g>
    <g id="ytick_18">
     <g id="line2d_65">
      <g>
       <use xlink:href="#m1c6bb69256" x="64.69" y="201.535879" style="fill: #6a7688; stroke: #6a7688; stroke-width: 0.6"/>
      </g>
     </g>
    </g>
    <g id="ytick_19">
     <g id="line2d_66">
      <g>
       <use xlink:href="#m1c6bb69256" x="64.69" y="198.698244" style="fill: #6a7688; stroke: #6a7688; stroke-width: 0.6"/>
      </g>
     </g>
    </g>
    <g id="ytick_20">
     <g id="line2d_67">
      <g>
       <use xlink:href="#m1c6bb69256" x="64.69" y="196.195272" style="fill: #6a7688; stroke: #6a7688; stroke-width: 0.6"/>
      </g>
     </g>
    </g>
    <g id="ytick_21">
     <g id="line2d_68">
      <g>
       <use xlink:href="#m1c6bb69256" x="64.69" y="179.226428" style="fill: #6a7688; stroke: #6a7688; stroke-width: 0.6"/>
      </g>
     </g>
    </g>
    <g id="ytick_22">
     <g id="line2d_69">
      <g>
       <use xlink:href="#m1c6bb69256" x="64.69" y="170.610012" style="fill: #6a7688; stroke: #6a7688; stroke-width: 0.6"/>
      </g>
     </g>
    </g>
    <g id="ytick_23">
     <g id="line2d_70">
      <g>
       <use xlink:href="#m1c6bb69256" x="64.69" y="164.496567" style="fill: #6a7688; stroke: #6a7688; stroke-width: 0.6"/>
      </g>
     </g>
    </g>
    <g id="ytick_24">
     <g id="line2d_71">
      <g>
       <use xlink:href="#m1c6bb69256" x="64.69" y="159.754611" style="fill: #6a7688; stroke: #6a7688; stroke-width: 0.6"/>
      </g>
     </g>
    </g>
    <g id="ytick_25">
     <g id="line2d_72">
      <g>
       <use xlink:href="#m1c6bb69256" x="64.69" y="155.880151" style="fill: #6a7688; stroke: #6a7688; stroke-width: 0.6"/>
      </g>
     </g>
    </g>
    <g id="ytick_26">
     <g id="line2d_73">
      <g>
       <use xlink:href="#m1c6bb69256" x="64.69" y="152.604342" style="fill: #6a7688; stroke: #6a7688; stroke-width: 0.6"/>
      </g>
     </g>
    </g>
    <g id="ytick_27">
     <g id="line2d_74">
      <g>
       <use xlink:href="#m1c6bb69256" x="64.69" y="149.766707" style="fill: #6a7688; stroke: #6a7688; stroke-width: 0.6"/>
      </g>
     </g>
    </g>
    <g id="ytick_28">
     <g id="line2d_75">
      <g>
       <use xlink:href="#m1c6bb69256" x="64.69" y="147.263735" style="fill: #6a7688; stroke: #6a7688; stroke-width: 0.6"/>
      </g>
     </g>
    </g>
    <g id="ytick_29">
     <g id="line2d_76">
      <g>
       <use xlink:href="#m1c6bb69256" x="64.69" y="130.294891" style="fill: #6a7688; stroke: #6a7688; stroke-width: 0.6"/>
      </g>
     </g>
    </g>
    <g id="ytick_30">
     <g id="line2d_77">
      <g>
       <use xlink:href="#m1c6bb69256" x="64.69" y="121.678475" style="fill: #6a7688; stroke: #6a7688; stroke-width: 0.6"/>
      </g>
     </g>
    </g>
    <g id="ytick_31">
     <g id="line2d_78">
      <g>
       <use xlink:href="#m1c6bb69256" x="64.69" y="115.56503" style="fill: #6a7688; stroke: #6a7688; stroke-width: 0.6"/>
      </g>
     </g>
    </g>
    <g id="ytick_32">
     <g id="line2d_79">
      <g>
       <use xlink:href="#m1c6bb69256" x="64.69" y="110.823074" style="fill: #6a7688; stroke: #6a7688; stroke-width: 0.6"/>
      </g>
     </g>
    </g>
    <g id="ytick_33">
     <g id="line2d_80">
      <g>
       <use xlink:href="#m1c6bb69256" x="64.69" y="106.948614" style="fill: #6a7688; stroke: #6a7688; stroke-width: 0.6"/>
      </g>
     </g>
    </g>
    <g id="ytick_34">
     <g id="line2d_81">
      <g>
       <use xlink:href="#m1c6bb69256" x="64.69" y="103.672805" style="fill: #6a7688; stroke: #6a7688; stroke-width: 0.6"/>
      </g>
     </g>
    </g>
    <g id="ytick_35">
     <g id="line2d_82">
      <g>
       <use xlink:href="#m1c6bb69256" x="64.69" y="100.83517" style="fill: #6a7688; stroke: #6a7688; stroke-width: 0.6"/>
      </g>
     </g>
    </g>
    <g id="ytick_36">
     <g id="line2d_83">
      <g>
       <use xlink:href="#m1c6bb69256" x="64.69" y="98.332198" style="fill: #6a7688; stroke: #6a7688; stroke-width: 0.6"/>
      </g>
     </g>
    </g>
    <g id="ytick_37">
     <g id="line2d_84">
      <g>
       <use xlink:href="#m1c6bb69256" x="64.69" y="81.363353" style="fill: #6a7688; stroke: #6a7688; stroke-width: 0.6"/>
      </g>
     </g>
    </g>
    <g id="ytick_38">
     <g id="line2d_85">
      <g>
       <use xlink:href="#m1c6bb69256" x="64.69" y="72.746937" style="fill: #6a7688; stroke: #6a7688; stroke-width: 0.6"/>
      </g>
     </g>
    </g>
    <g id="ytick_39">
     <g id="line2d_86">
      <g>
       <use xlink:href="#m1c6bb69256" x="64.69" y="66.633493" style="fill: #6a7688; stroke: #6a7688; stroke-width: 0.6"/>
      </g>
     </g>
    </g>
    <g id="ytick_40">
     <g id="line2d_87">
      <g>
       <use xlink:href="#m1c6bb69256" x="64.69" y="61.891537" style="fill: #6a7688; stroke: #6a7688; stroke-width: 0.6"/>
      </g>
     </g>
    </g>
    <g id="ytick_41">
     <g id="line2d_88">
      <g>
       <use xlink:href="#m1c6bb69256" x="64.69" y="58.017077" style="fill: #6a7688; stroke: #6a7688; stroke-width: 0.6"/>
      </g>
     </g>
    </g>
    <g id="ytick_42">
     <g id="line2d_89">
      <g>
       <use xlink:href="#m1c6bb69256" x="64.69" y="54.741268" style="fill: #6a7688; stroke: #6a7688; stroke-width: 0.6"/>
      </g>
     </g>
    </g>
    <g id="ytick_43">
     <g id="line2d_90">
      <g>
       <use xlink:href="#m1c6bb69256" x="64.69" y="51.903633" style="fill: #6a7688; stroke: #6a7688; stroke-width: 0.6"/>
      </g>
     </g>
    </g>
    <g id="ytick_44">
     <g id="line2d_91">
      <g>
       <use xlink:href="#m1c6bb69256" x="64.69" y="49.400661" style="fill: #6a7688; stroke: #6a7688; stroke-width: 0.6"/>
      </g>
     </g>
    </g>
    <g id="ytick_45">
     <g id="line2d_92">
      <g>
       <use xlink:href="#m1c6bb69256" x="64.69" y="32.431816" style="fill: #6a7688; stroke: #6a7688; stroke-width: 0.6"/>
      </g>
     </g>
    </g>
    <g id="ytick_46">
     <g id="line2d_93">
      <g>
       <use xlink:href="#m1c6bb69256" x="64.69" y="23.8154" style="fill: #6a7688; stroke: #6a7688; stroke-width: 0.6"/>
      </g>
     </g>
    </g>
    <g id="ytick_47">
     <g id="line2d_94">
      <g>
       <use xlink:href="#m1c6bb69256" x="64.69" y="17.701956" style="fill: #6a7688; stroke: #6a7688; stroke-width: 0.6"/>
      </g>
     </g>
    </g>
    <g id="ytick_48">
     <g id="line2d_95">
      <g>
       <use xlink:href="#m1c6bb69256" x="64.69" y="12.96" style="fill: #6a7688; stroke: #6a7688; stroke-width: 0.6"/>
      </g>
     </g>
    </g>
    <g id="text_12">
     <!-- CDM density contrast  $|\delta_c|$ -->
     <g style="fill: #29323f" transform="translate(25.12 245.516543) rotate(-90) scale(0.16 -0.16)">
      <defs>
       <path id="DejaVuSerif-26" d="M 4513 1234 
Q 4306 581 3820 245 
Q 3334 -91 2591 -91 
Q 2134 -91 1743 65 
Q 1353 222 1050 525 
Q 700 875 529 1320 
Q 359 1766 359 2328 
Q 359 3416 987 4083 
Q 1616 4750 2644 4750 
Q 3025 4750 3456 4650 
Q 3888 4550 4384 4347 
L 4384 3272 
L 4031 3272 
Q 3916 3859 3567 4137 
Q 3219 4416 2591 4416 
Q 1844 4416 1459 3886 
Q 1075 3356 1075 2328 
Q 1075 1303 1459 773 
Q 1844 244 2591 244 
Q 3113 244 3450 492 
Q 3788 741 3938 1234 
L 4513 1234 
z
" transform="scale(0.015625)"/>
       <path id="DejaVuSerif-27" d="M 1581 331 
L 2163 331 
Q 3072 331 3558 850 
Q 4044 1369 4044 2338 
Q 4044 3306 3559 3818 
Q 3075 4331 2163 4331 
L 1581 4331 
L 1581 331 
z
M 353 0 
L 353 331 
L 947 331 
L 947 4331 
L 353 4331 
L 353 4666 
L 2209 4666 
Q 3416 4666 4089 4050 
Q 4763 3434 4763 2338 
Q 4763 1238 4088 619 
Q 3413 0 2209 0 
L 353 0 
z
" transform="scale(0.015625)"/>
       <path id="DejaVuSerif-30" d="M 353 0 
L 353 331 
L 947 331 
L 947 4331 
L 319 4331 
L 319 4666 
L 1678 4666 
L 3316 1344 
L 4953 4666 
L 6228 4666 
L 6228 4331 
L 5606 4331 
L 5606 331 
L 6203 331 
L 6203 0 
L 4378 0 
L 4378 331 
L 4972 331 
L 4972 3938 
L 3372 684 
L 2931 684 
L 1331 3938 
L 1331 331 
L 1925 331 
L 1925 0 
L 353 0 
z
" transform="scale(0.015625)"/>
       <path id="DejaVuSerif-47" d="M 3359 331 
L 3909 331 
L 3909 0 
L 2784 0 
L 2784 519 
Q 2616 206 2355 57 
Q 2094 -91 1709 -91 
Q 1097 -91 708 395 
Q 319 881 319 1663 
Q 319 2444 706 2928 
Q 1094 3413 1709 3413 
Q 2094 3413 2355 3264 
Q 2616 3116 2784 2803 
L 2784 4531 
L 2241 4531 
L 2241 4863 
L 3359 4863 
L 3359 331 
z
M 2784 1497 
L 2784 1825 
Q 2784 2422 2554 2737 
Q 2325 3053 1888 3053 
Q 1444 3053 1217 2703 
Q 991 2353 991 1663 
Q 991 975 1217 622 
Q 1444 269 1888 269 
Q 2325 269 2554 583 
Q 2784 897 2784 1497 
z
" transform="scale(0.015625)"/>
       <path id="DejaVuSerif-51" d="M 263 0 
L 263 331 
L 781 331 
L 781 2988 
L 231 2988 
L 231 3322 
L 1356 3322 
L 1356 2731 
Q 1516 3069 1770 3241 
Q 2025 3413 2363 3413 
Q 2913 3413 3172 3097 
Q 3431 2781 3431 2113 
L 3431 331 
L 3944 331 
L 3944 0 
L 2356 0 
L 2356 331 
L 2853 331 
L 2853 1931 
Q 2853 2541 2703 2767 
Q 2553 2994 2175 2994 
Q 1775 2994 1565 2701 
Q 1356 2409 1356 1850 
L 1356 331 
L 1856 331 
L 1856 0 
L 263 0 
z
" transform="scale(0.015625)"/>
       <path id="DejaVuSerif-4c" d="M 622 4353 
Q 622 4497 726 4603 
Q 831 4709 978 4709 
Q 1122 4709 1226 4603 
Q 1331 4497 1331 4353 
Q 1331 4206 1228 4103 
Q 1125 4000 978 4000 
Q 831 4000 726 4103 
Q 622 4206 622 4353 
z
M 1356 331 
L 1900 331 
L 1900 0 
L 231 0 
L 231 331 
L 781 331 
L 781 2988 
L 231 2988 
L 231 3322 
L 1356 3322 
L 1356 331 
z
" transform="scale(0.015625)"/>
       <path id="DejaVuSerif-5c" d="M 1381 -609 
L 1600 -56 
L 359 2988 
L -19 2988 
L -19 3322 
L 1509 3322 
L 1509 2988 
L 978 2988 
L 1913 703 
L 2847 2988 
L 2350 2988 
L 2350 3322 
L 3597 3322 
L 3597 2988 
L 3225 2988 
L 1703 -750 
Q 1547 -1138 1356 -1280 
Q 1166 -1422 819 -1422 
Q 672 -1422 517 -1397 
Q 363 -1372 206 -1325 
L 206 -691 
L 500 -691 
Q 519 -903 608 -995 
Q 697 -1088 884 -1088 
Q 1056 -1088 1161 -992 
Q 1266 -897 1381 -609 
z
" transform="scale(0.015625)"/>
       <path id="Cmsy10-2f" d="M 763 -1484 
L 763 4684 
Q 763 4734 800 4767 
Q 838 4800 891 4800 
Q 938 4800 978 4767 
Q 1019 4734 1019 4684 
L 1019 -1484 
Q 1019 -1534 978 -1567 
Q 938 -1600 891 -1600 
Q 838 -1600 800 -1567 
Q 763 -1534 763 -1484 
z
" transform="scale(0.015625)"/>
       <path id="Cmmi10-26" d="M 1281 -97 
Q 1059 -97 868 -14 
Q 678 69 536 225 
Q 394 381 325 573 
Q 256 766 256 991 
Q 256 1391 445 1767 
Q 634 2144 961 2419 
Q 1288 2694 1672 2791 
Q 1484 3138 1386 3389 
Q 1288 3641 1288 3903 
Q 1288 4097 1378 4245 
Q 1469 4394 1628 4478 
Q 1788 4563 1984 4563 
Q 2175 4563 2741 4434 
Q 2888 4400 2888 4263 
Q 2888 4156 2809 4068 
Q 2731 3981 2625 3981 
Q 2547 3981 2484 4017 
Q 2422 4053 2287 4143 
Q 2153 4234 2047 4282 
Q 1941 4331 1825 4331 
Q 1694 4331 1589 4251 
Q 1484 4172 1484 4044 
Q 1484 3841 1664 3577 
Q 1844 3313 2175 2900 
Q 2553 2419 2553 1838 
Q 2553 1550 2470 1215 
Q 2388 881 2230 584 
Q 2072 288 1826 95 
Q 1581 -97 1281 -97 
z
M 1294 78 
Q 1544 78 1723 337 
Q 1903 597 1995 955 
Q 2088 1313 2088 1556 
Q 2088 2034 1753 2631 
Q 1416 2538 1172 2238 
Q 928 1938 803 1547 
Q 678 1156 678 806 
Q 678 500 837 289 
Q 997 78 1294 78 
z
" transform="scale(0.015625)"/>
       <path id="Cmmi10-7f" d="M 750 763 
Q 750 484 892 290 
Q 1034 97 1300 97 
Q 1681 97 2032 272 
Q 2384 447 2606 756 
Q 2625 775 2656 775 
Q 2688 775 2720 739 
Q 2753 703 2753 672 
Q 2753 647 2741 634 
Q 2506 306 2109 117 
Q 1713 -72 1288 -72 
Q 981 -72 747 73 
Q 513 219 384 462 
Q 256 706 256 1013 
Q 256 1444 497 1869 
Q 738 2294 1138 2561 
Q 1538 2828 1978 2828 
Q 2266 2828 2495 2689 
Q 2725 2550 2725 2278 
Q 2725 2103 2623 1979 
Q 2522 1856 2350 1856 
Q 2247 1856 2176 1920 
Q 2106 1984 2106 2088 
Q 2106 2238 2215 2344 
Q 2325 2450 2472 2450 
L 2484 2450 
Q 2409 2559 2267 2611 
Q 2125 2663 1972 2663 
Q 1597 2663 1315 2342 
Q 1034 2022 892 1576 
Q 750 1131 750 763 
z
" transform="scale(0.015625)"/>
      </defs>
      <use xlink:href="#DejaVuSerif-26" transform="translate(0 0.015625)"/>
      <use xlink:href="#DejaVuSerif-27" transform="translate(76.513672 0.015625)"/>
      <use xlink:href="#DejaVuSerif-30" transform="translate(156.689453 0.015625)"/>
      <use xlink:href="#DejaVuSerif-3" transform="translate(259.082031 0.015625)"/>
      <use xlink:href="#DejaVuSerif-47" transform="translate(290.869141 0.015625)"/>
      <use xlink:href="#DejaVuSerif-48" transform="translate(354.882812 0.015625)"/>
      <use xlink:href="#DejaVuSerif-51" transform="translate(414.0625 0.015625)"/>
      <use xlink:href="#DejaVuSerif-56" transform="translate(478.466797 0.015625)"/>
      <use xlink:href="#DejaVuSerif-4c" transform="translate(529.785156 0.015625)"/>
      <use xlink:href="#DejaVuSerif-57" transform="translate(561.767578 0.015625)"/>
      <use xlink:href="#DejaVuSerif-5c" transform="translate(601.953125 0.015625)"/>
      <use xlink:href="#DejaVuSerif-3" transform="translate(658.447266 0.015625)"/>
      <use xlink:href="#DejaVuSerif-46" transform="translate(690.234375 0.015625)"/>
      <use xlink:href="#DejaVuSerif-52" transform="translate(746.240234 0.015625)"/>
      <use xlink:href="#DejaVuSerif-51" transform="translate(806.445312 0.015625)"/>
      <use xlink:href="#DejaVuSerif-57" transform="translate(870.849609 0.015625)"/>
      <use xlink:href="#DejaVuSerif-55" transform="translate(911.035156 0.015625)"/>
      <use xlink:href="#DejaVuSerif-44" transform="translate(958.837891 0.015625)"/>
      <use xlink:href="#DejaVuSerif-56" transform="translate(1018.457031 0.015625)"/>
      <use xlink:href="#DejaVuSerif-57" transform="translate(1069.775391 0.015625)"/>
      <use xlink:href="#DejaVuSerif-3" transform="translate(1109.960938 0.015625)"/>
      <use xlink:href="#DejaVuSerif-3" transform="translate(1141.748047 0.015625)"/>
      <use xlink:href="#Cmsy10-2f" transform="translate(1173.535156 0.015625)"/>
      <use xlink:href="#Cmmi10-26" transform="translate(1201.220703 0.015625)"/>
      <use xlink:href="#Cmmi10-7f" transform="translate(1245.605469 -14.984337) scale(0.7)"/>
      <use xlink:href="#Cmsy10-2f" transform="translate(1281.574908 0.015625)"/>
     </g>
    </g>
   </g>
   <g id="line2d_96">
    <path d="M 64.69 244.101031 
L 96.186386 243.452051 
L 132.932169 242.454833 
L 178.426948 241.218065 
L 255.418112 239.996507 
L 297.413293 239.449391 
L 353.406867 238.981033 
L 402.401245 238.496467 
L 425.148635 238.062548 
L 440.896827 237.550888 
L 453.145422 236.922872 
L 461.894418 236.279112 
L 470.643414 235.413277 
L 479.39241 234.28358 
L 488.141406 232.886304 
L 498.640201 230.938845 
L 500.39 230.597254 
L 500.39 230.597254 
" clip-path="url(#p3e600a3cff)" style="fill: none; stroke: #3f9e93; stroke-width: 2.6; stroke-linecap: square"/>
   </g>
   <g id="line2d_97">
    <path d="M 64.69 243.196031 
L 76.938594 242.471975 
L 87.43739 241.640032 
L 97.936185 240.563641 
L 106.685181 239.44535 
L 115.434177 238.099179 
L 124.183173 236.505862 
L 132.932169 234.654537 
L 141.681165 232.544632 
L 150.430161 230.186529 
L 159.179157 227.600625 
L 169.677952 224.239962 
L 181.926546 220.040361 
L 195.92494 214.962672 
L 213.422932 208.355618 
L 237.92012 198.867783 
L 258.917711 190.509271 
L 278.165502 182.605307 
L 300.912892 173.008968 
L 327.15988 161.687732 
L 362.155863 146.33153 
L 454.895221 105.475437 
L 465.394016 101.172087 
L 474.143012 97.806491 
L 481.142209 95.319065 
L 488.141406 93.061037 
L 495.140602 91.066472 
L 500.39 89.754704 
L 500.39 89.754704 
" clip-path="url(#p3e600a3cff)" style="fill: none; stroke: #4d69a8; stroke-width: 2.6; stroke-linecap: square"/>
   </g>
   <g id="line2d_98">
    <path d="M 64.69 194.742338 
L 69.939398 192.902384 
L 76.938594 190.717583 
L 85.68759 188.262508 
L 99.685984 184.354019 
L 138.181566 172.95559 
L 153.929759 167.996037 
L 169.677952 162.779909 
L 185.426145 157.324158 
L 202.924137 151.008022 
L 220.422129 144.438639 
L 237.92012 137.629824 
L 257.167912 129.890166 
L 278.165502 121.193976 
L 302.662691 110.788553 
L 332.409277 97.88963 
L 370.904859 80.938263 
L 447.896024 46.939541 
L 460.144618 41.791158 
L 470.643414 37.623833 
L 479.39241 34.426265 
L 486.391606 32.110524 
L 493.390803 30.050936 
L 500.39 28.269535 
L 500.39 28.269535 
" clip-path="url(#p3e600a3cff)" style="fill: none; stroke: #c65b57; stroke-width: 2.6; stroke-linecap: square"/>
   </g>
   <g id="line2d_99">
    <path d="M 108.942976 268.473086 
L 108.942976 12.96 
" clip-path="url(#p3e600a3cff)" style="fill: none; stroke-dasharray: 2,3; stroke-dashoffset: 0; stroke: #29323f; stroke-opacity: 0.6"/>
   </g>
   <g id="patch_3">
    <path d="M 64.69 268.473086 
L 64.69 12.96 
" style="fill: none; stroke: #6a7688; stroke-width: 1.1; stroke-linejoin: miter; stroke-linecap: square"/>
   </g>
   <g id="patch_4">
    <path d="M 500.39 268.473086 
L 500.39 12.96 
" style="fill: none; stroke: #6a7688; stroke-width: 1.1; stroke-linejoin: miter; stroke-linecap: square"/>
   </g>
   <g id="patch_5">
    <path d="M 64.69 268.473086 
L 500.39 268.473086 
" style="fill: none; stroke: #6a7688; stroke-width: 1.1; stroke-linejoin: miter; stroke-linecap: square"/>
   </g>
   <g id="patch_6">
    <path d="M 64.69 12.96 
L 500.39 12.96 
" style="fill: none; stroke: #6a7688; stroke-width: 1.1; stroke-linejoin: miter; stroke-linecap: square"/>
   </g>
   <g id="text_13">
    <!-- $a_{\rm eq}$ -->
    <g style="fill: #29323f" transform="translate(101.957976 21.317422) scale(0.11 -0.11)">
     <defs>
      <path id="Cmr10-82" d="M 1594 -72 
Q 1203 -72 876 133 
Q 550 338 364 680 
Q 178 1022 178 1403 
Q 178 1778 348 2115 
Q 519 2453 823 2661 
Q 1128 2869 1503 2869 
Q 1797 2869 2014 2770 
Q 2231 2672 2372 2497 
Q 2513 2322 2584 2084 
Q 2656 1847 2656 1563 
Q 2656 1478 2591 1478 
L 738 1478 
L 738 1409 
Q 738 878 952 497 
Q 1166 116 1650 116 
Q 1847 116 2014 203 
Q 2181 291 2304 447 
Q 2428 603 2472 781 
Q 2478 803 2495 820 
Q 2513 838 2534 838 
L 2591 838 
Q 2656 838 2656 756 
Q 2566 394 2266 161 
Q 1966 -72 1594 -72 
z
M 744 1638 
L 2203 1638 
Q 2203 1878 2136 2125 
Q 2069 2372 1912 2536 
Q 1756 2700 1503 2700 
Q 1141 2700 942 2361 
Q 744 2022 744 1638 
z
" transform="scale(0.015625)"/>
      <path id="Cmr10-4a" d="M 1919 -1241 
L 1919 -1019 
Q 2138 -1019 2278 -981 
Q 2419 -944 2419 -813 
L 2419 372 
Q 2269 172 2041 50 
Q 1813 -72 1563 -72 
Q 1275 -72 1028 47 
Q 781 166 598 369 
Q 416 572 314 839 
Q 213 1106 213 1381 
Q 213 1763 400 2098 
Q 588 2434 914 2631 
Q 1241 2828 1619 2828 
Q 1891 2828 2122 2675 
Q 2353 2522 2491 2266 
L 2719 2828 
L 2888 2828 
L 2888 -813 
Q 2888 -944 3028 -981 
Q 3169 -1019 3384 -1019 
L 3384 -1241 
L 1919 -1241 
z
M 1600 97 
Q 1884 97 2107 286 
Q 2331 475 2438 763 
L 2438 1888 
Q 2372 2194 2165 2419 
Q 1959 2644 1672 2644 
Q 1453 2644 1281 2528 
Q 1109 2413 995 2219 
Q 881 2025 825 1800 
Q 769 1575 769 1375 
Q 769 1119 859 817 
Q 950 516 1137 306 
Q 1325 97 1600 97 
z
" transform="scale(0.015625)"/>
     </defs>
     <use xlink:href="#Cmmi10-79" transform="translate(0 0.8125)"/>
     <use xlink:href="#Cmr10-82" transform="translate(52.783203 -14.187462) scale(0.7)"/>
     <use xlink:href="#Cmr10-4a" transform="translate(83.852539 -14.187462) scale(0.7)"/>
    </g>
   </g>
   <g id="legend_1">
    <g id="line2d_100">
     <path d="M 269.075 218.278164 
L 279.575 218.278164 
L 290.075 218.278164 
" style="fill: none; stroke: #3f9e93; stroke-width: 2.6; stroke-linecap: square"/>
    </g>
    <g id="text_14">
     <!-- $k=10^{-4}\,\mathrm{Mpc^{-1}}$  (super-horizon today) -->
     <g style="fill: #29323f" transform="translate(298.475 221.953164) scale(0.105 -0.105)">
      <defs>
       <path id="Cmmi10-3e" d="M 341 116 
Q 341 153 347 172 
L 1275 3872 
Q 1300 3981 1306 4044 
Q 1306 4147 891 4147 
Q 825 4147 825 4231 
Q 828 4247 839 4287 
Q 850 4328 867 4350 
Q 884 4372 916 4372 
L 1778 4441 
L 1797 4441 
Q 1797 4434 1819 4423 
Q 1841 4413 1844 4409 
Q 1856 4378 1856 4359 
L 1184 1684 
Q 1416 1781 1767 2145 
Q 2119 2509 2317 2668 
Q 2516 2828 2816 2828 
Q 2994 2828 3119 2706 
Q 3244 2584 3244 2406 
Q 3244 2294 3197 2198 
Q 3150 2103 3065 2043 
Q 2981 1984 2869 1984 
Q 2766 1984 2695 2048 
Q 2625 2113 2625 2216 
Q 2625 2369 2733 2473 
Q 2841 2578 2994 2578 
Q 2931 2663 2803 2663 
Q 2613 2663 2436 2553 
Q 2259 2444 2054 2239 
Q 1850 2034 1681 1864 
Q 1513 1694 1369 1606 
Q 1747 1563 2025 1408 
Q 2303 1253 2303 934 
Q 2303 869 2278 769 
Q 2222 528 2222 384 
Q 2222 97 2419 97 
Q 2650 97 2770 350 
Q 2891 603 2969 941 
Q 2981 978 3022 978 
L 3097 978 
Q 3122 978 3139 962 
Q 3156 947 3156 922 
Q 3156 916 3150 903 
Q 2909 -72 2406 -72 
Q 2225 -72 2086 12 
Q 1947 97 1872 242 
Q 1797 388 1797 569 
Q 1797 672 1825 781 
Q 1844 856 1844 922 
Q 1844 1169 1625 1297 
Q 1406 1425 1125 1453 
L 800 147 
Q 775 50 703 -11 
Q 631 -72 538 -72 
Q 456 -72 398 -17 
Q 341 38 341 116 
z
" transform="scale(0.015625)"/>
       <path id="Cmr10-29" d="M 481 850 
Q 428 850 393 890 
Q 359 931 359 978 
Q 359 1031 393 1068 
Q 428 1106 481 1106 
L 4500 1106 
Q 4547 1106 4581 1068 
Q 4616 1031 4616 978 
Q 4616 931 4581 890 
Q 4547 850 4500 850 
L 481 850 
z
M 481 2094 
Q 428 2094 393 2131 
Q 359 2169 359 2222 
Q 359 2269 393 2309 
Q 428 2350 481 2350 
L 4500 2350 
Q 4547 2350 4581 2309 
Q 4616 2269 4616 2222 
Q 4616 2169 4581 2131 
Q 4547 2094 4500 2094 
L 481 2094 
z
" transform="scale(0.015625)"/>
       <path id="Cmr10-64" d="M 594 0 
L 594 225 
Q 1394 225 1394 428 
L 1394 3788 
Q 1063 3628 556 3628 
L 556 3853 
Q 1341 3853 1741 4263 
L 1831 4263 
Q 1853 4263 1873 4245 
Q 1894 4228 1894 4206 
L 1894 428 
Q 1894 225 2694 225 
L 2694 0 
L 594 0 
z
" transform="scale(0.015625)"/>
       <path id="Cmr10-28" d="M 1600 -141 
Q 816 -141 533 504 
Q 250 1150 250 2041 
Q 250 2597 351 3087 
Q 453 3578 754 3920 
Q 1056 4263 1600 4263 
Q 2022 4263 2290 4056 
Q 2559 3850 2700 3523 
Q 2841 3197 2892 2823 
Q 2944 2450 2944 2041 
Q 2944 1491 2842 1011 
Q 2741 531 2444 195 
Q 2147 -141 1600 -141 
z
M 1600 25 
Q 1956 25 2131 390 
Q 2306 756 2347 1200 
Q 2388 1644 2388 2144 
Q 2388 2625 2347 3031 
Q 2306 3438 2132 3767 
Q 1959 4097 1600 4097 
Q 1238 4097 1063 3765 
Q 888 3434 847 3029 
Q 806 2625 806 2144 
Q 806 1788 823 1472 
Q 841 1156 916 820 
Q 991 484 1158 254 
Q 1325 25 1600 25 
z
" transform="scale(0.015625)"/>
       <path id="Cmsy10-11" d="M 653 1472 
Q 600 1472 565 1512 
Q 531 1553 531 1600 
Q 531 1647 565 1687 
Q 600 1728 653 1728 
L 4325 1728 
Q 4375 1728 4408 1687 
Q 4441 1647 4441 1600 
Q 4441 1553 4408 1512 
Q 4375 1472 4325 1472 
L 653 1472 
z
" transform="scale(0.015625)"/>
       <path id="Cmr10-3b" d="M 178 1056 
L 178 1281 
L 2156 4231 
Q 2178 4263 2222 4263 
L 2316 4263 
Q 2388 4263 2388 4191 
L 2388 1281 
L 3016 1281 
L 3016 1056 
L 2388 1056 
L 2388 428 
Q 2388 297 2575 261 
Q 2763 225 3009 225 
L 3009 0 
L 1247 0 
L 1247 225 
Q 1494 225 1681 261 
Q 1869 297 1869 428 
L 1869 1056 
L 178 1056 
z
M 391 1281 
L 1906 1281 
L 1906 3547 
L 391 1281 
z
" transform="scale(0.015625)"/>
       <path id="Cmr10-17" d="M 225 0 
L 225 225 
Q 884 225 884 603 
L 884 3944 
Q 884 4147 225 4147 
L 225 4372 
L 1434 4372 
Q 1513 4372 1538 4300 
L 2931 678 
L 4325 4300 
Q 4350 4372 4428 4372 
L 5638 4372 
L 5638 4147 
Q 4978 4147 4978 3944 
L 4978 428 
Q 4978 225 5638 225 
L 5638 0 
L 3775 0 
L 3775 225 
Q 4434 225 4434 428 
L 4434 4153 
L 2859 72 
Q 2831 0 2753 0 
Q 2672 0 2644 72 
L 1088 4103 
L 1088 603 
Q 1088 225 1747 225 
L 1747 0 
L 225 0 
z
" transform="scale(0.015625)"/>
       <path id="Cmr10-7d" d="M 166 -1241 
L 166 -1019 
Q 384 -1019 525 -981 
Q 666 -944 666 -813 
L 666 2272 
Q 666 2447 541 2490 
Q 416 2534 166 2534 
L 166 2759 
L 1113 2828 
L 1113 2431 
Q 1288 2625 1520 2726 
Q 1753 2828 2016 2828 
Q 2394 2828 2697 2623 
Q 3000 2419 3170 2086 
Q 3341 1753 3341 1381 
Q 3341 994 3152 659 
Q 2963 325 2636 126 
Q 2309 -72 1919 -72 
Q 1453 -72 1131 306 
L 1131 -813 
Q 1131 -944 1273 -981 
Q 1416 -1019 1631 -1019 
L 1631 -1241 
L 166 -1241 
z
M 1131 622 
Q 1244 394 1444 245 
Q 1644 97 1881 97 
Q 2103 97 2273 215 
Q 2444 334 2559 534 
Q 2675 734 2729 954 
Q 2784 1175 2784 1381 
Q 2784 1638 2692 1936 
Q 2600 2234 2411 2439 
Q 2222 2644 1953 2644 
Q 1694 2644 1476 2511 
Q 1259 2378 1131 2150 
L 1131 622 
z
" transform="scale(0.015625)"/>
       <path id="Cmr10-7b" d="M 1594 -72 
Q 1206 -72 890 129 
Q 575 331 394 667 
Q 213 1003 213 1381 
Q 213 1759 392 2106 
Q 572 2453 889 2661 
Q 1206 2869 1594 2869 
Q 1969 2869 2276 2722 
Q 2584 2575 2584 2241 
Q 2584 2116 2495 2023 
Q 2406 1931 2278 1931 
Q 2150 1931 2061 2023 
Q 1972 2116 1972 2241 
Q 1972 2353 2044 2436 
Q 2116 2519 2222 2541 
Q 2000 2681 1600 2681 
Q 1294 2681 1106 2478 
Q 919 2275 844 1975 
Q 769 1675 769 1381 
Q 769 1072 861 783 
Q 953 494 1158 305 
Q 1363 116 1672 116 
Q 1975 116 2187 302 
Q 2400 488 2478 788 
Q 2478 825 2528 825 
L 2606 825 
Q 2625 825 2640 808 
Q 2656 791 2656 769 
L 2656 750 
Q 2559 372 2271 150 
Q 1984 -72 1594 -72 
z
" transform="scale(0.015625)"/>
       <path id="DejaVuSerif-b" d="M 2041 -997 
Q 1281 -656 893 83 
Q 506 822 506 1931 
Q 506 3044 893 3783 
Q 1281 4522 2041 4863 
L 2041 4556 
Q 1559 4225 1350 3623 
Q 1141 3022 1141 1931 
Q 1141 844 1350 242 
Q 1559 -359 2041 -691 
L 2041 -997 
z
" transform="scale(0.015625)"/>
       <path id="DejaVuSerif-58" d="M 2266 3322 
L 3341 3322 
L 3341 331 
L 3884 331 
L 3884 0 
L 2766 0 
L 2766 588 
Q 2606 256 2353 82 
Q 2100 -91 1766 -91 
Q 1213 -91 952 223 
Q 691 538 691 1209 
L 691 2988 
L 172 2988 
L 172 3322 
L 1269 3322 
L 1269 1388 
Q 1269 781 1417 556 
Q 1566 331 1947 331 
Q 2347 331 2556 625 
Q 2766 919 2766 1478 
L 2766 2988 
L 2266 2988 
L 2266 3322 
z
" transform="scale(0.015625)"/>
       <path id="DejaVuSerif-53" d="M 1313 1825 
L 1313 1497 
Q 1313 897 1542 583 
Q 1772 269 2209 269 
Q 2650 269 2876 622 
Q 3103 975 3103 1663 
Q 3103 2353 2876 2703 
Q 2650 3053 2209 3053 
Q 1772 3053 1542 2737 
Q 1313 2422 1313 1825 
z
M 738 2988 
L 184 2988 
L 184 3322 
L 1313 3322 
L 1313 2803 
Q 1481 3116 1742 3264 
Q 2003 3413 2388 3413 
Q 3000 3413 3387 2928 
Q 3775 2444 3775 1663 
Q 3775 881 3387 395 
Q 3000 -91 2388 -91 
Q 2003 -91 1742 57 
Q 1481 206 1313 519 
L 1313 -997 
L 1856 -997 
L 1856 -1331 
L 184 -1331 
L 184 -997 
L 738 -997 
L 738 2988 
z
" transform="scale(0.015625)"/>
       <path id="DejaVuSerif-10" d="M 281 1959 
L 1881 1959 
L 1881 1472 
L 281 1472 
L 281 1959 
z
" transform="scale(0.015625)"/>
       <path id="DejaVuSerif-4b" d="M 263 0 
L 263 331 
L 781 331 
L 781 4531 
L 231 4531 
L 231 4863 
L 1356 4863 
L 1356 2731 
Q 1516 3069 1770 3241 
Q 2025 3413 2363 3413 
Q 2913 3413 3172 3097 
Q 3431 2781 3431 2113 
L 3431 331 
L 3944 331 
L 3944 0 
L 2356 0 
L 2356 331 
L 2853 331 
L 2853 1931 
Q 2853 2541 2704 2764 
Q 2556 2988 2175 2988 
Q 1775 2988 1565 2697 
Q 1356 2406 1356 1850 
L 1356 331 
L 1856 331 
L 1856 0 
L 263 0 
z
" transform="scale(0.015625)"/>
       <path id="DejaVuSerif-5d" d="M 256 0 
L 256 269 
L 2338 2988 
L 691 2988 
L 691 2413 
L 359 2413 
L 359 3322 
L 3078 3322 
L 3078 3053 
L 997 331 
L 2803 331 
L 2803 934 
L 3138 934 
L 3138 0 
L 256 0 
z
" transform="scale(0.015625)"/>
       <path id="DejaVuSerif-c" d="M 453 -997 
L 453 -691 
Q 934 -359 1145 242 
Q 1356 844 1356 1931 
Q 1356 3022 1145 3623 
Q 934 4225 453 4556 
L 453 4863 
Q 1216 4522 1603 3783 
Q 1991 3044 1991 1931 
Q 1991 822 1603 83 
Q 1216 -656 453 -997 
z
" transform="scale(0.015625)"/>
      </defs>
      <use xlink:href="#Cmmi10-3e" transform="translate(0 0.084203)"/>
      <use xlink:href="#Cmr10-29" transform="translate(72.00201 0.084203)"/>
      <use xlink:href="#Cmr10-64" transform="translate(169.687614 0.084203)"/>
      <use xlink:href="#Cmr10-28" transform="translate(219.687614 0.084203)"/>
      <use xlink:href="#Cmsy10-11" transform="translate(273.691905 41.373437) scale(0.7)"/>
      <use xlink:href="#Cmr10-3b" transform="translate(328.071788 41.373437) scale(0.7)"/>
      <use xlink:href="#Cmr10-17" transform="translate(385.459251 0.084203)"/>
      <use xlink:href="#Cmr10-7d" transform="translate(477.060814 0.084203)"/>
      <use xlink:href="#Cmr10-7b" transform="translate(532.578392 0.084203)"/>
      <use xlink:href="#Cmsy10-11" transform="translate(580.967448 41.373437) scale(0.7)"/>
      <use xlink:href="#Cmr10-64" transform="translate(635.347331 41.373437) scale(0.7)"/>
      <use xlink:href="#DejaVuSerif-3" transform="translate(676.067747 0.084203)"/>
      <use xlink:href="#DejaVuSerif-3" transform="translate(707.854856 0.084203)"/>
      <use xlink:href="#DejaVuSerif-b" transform="translate(739.641965 0.084203)"/>
      <use xlink:href="#DejaVuSerif-56" transform="translate(778.655637 0.084203)"/>
      <use xlink:href="#DejaVuSerif-58" transform="translate(829.973997 0.084203)"/>
      <use xlink:href="#DejaVuSerif-53" transform="translate(894.378294 0.084203)"/>
      <use xlink:href="#DejaVuSerif-48" transform="translate(958.391965 0.084203)"/>
      <use xlink:href="#DejaVuSerif-55" transform="translate(1017.571653 0.084203)"/>
      <use xlink:href="#DejaVuSerif-10" transform="translate(1065.374387 0.084203)"/>
      <use xlink:href="#DejaVuSerif-4b" transform="translate(1099.16345 0.084203)"/>
      <use xlink:href="#DejaVuSerif-52" transform="translate(1163.567747 0.084203)"/>
      <use xlink:href="#DejaVuSerif-55" transform="translate(1223.772825 0.084203)"/>
      <use xlink:href="#DejaVuSerif-4c" transform="translate(1271.575559 0.084203)"/>
      <use xlink:href="#DejaVuSerif-5d" transform="translate(1303.557981 0.084203)"/>
      <use xlink:href="#DejaVuSerif-52" transform="translate(1356.243528 0.084203)"/>
      <use xlink:href="#DejaVuSerif-51" transform="translate(1416.448606 0.084203)"/>
      <use xlink:href="#DejaVuSerif-3" transform="translate(1480.852903 0.084203)"/>
      <use xlink:href="#DejaVuSerif-57" transform="translate(1512.640012 0.084203)"/>
      <use xlink:href="#DejaVuSerif-52" transform="translate(1552.825559 0.084203)"/>
      <use xlink:href="#DejaVuSerif-47" transform="translate(1613.030637 0.084203)"/>
      <use xlink:href="#DejaVuSerif-44" transform="translate(1677.044309 0.084203)"/>
      <use xlink:href="#DejaVuSerif-5c" transform="translate(1736.66345 0.084203)"/>
      <use xlink:href="#DejaVuSerif-c" transform="translate(1793.15759 0.084203)"/>
     </g>
    </g>
    <g id="line2d_101">
     <path d="M 269.075 235.290625 
L 279.575 235.290625 
L 290.075 235.290625 
" style="fill: none; stroke: #4d69a8; stroke-width: 2.6; stroke-linecap: square"/>
    </g>
    <g id="text_15">
     <!-- $k=0.01\,\mathrm{Mpc^{-1}}$  ($\sim k_{\rm eq}$) -->
     <g style="fill: #29323f" transform="translate(298.475 238.965625) scale(0.105 -0.105)">
      <defs>
       <path id="Cmmi10-33" d="M 538 353 
Q 538 497 644 600 
Q 750 703 891 703 
Q 978 703 1062 656 
Q 1147 609 1194 525 
Q 1241 441 1241 353 
Q 1241 213 1137 106 
Q 1034 0 891 0 
Q 750 0 644 106 
Q 538 213 538 353 
z
" transform="scale(0.015625)"/>
       <path id="Cmsy10-1b" d="M 447 850 
Q 378 850 359 1013 
L 359 1050 
Q 359 1544 654 1947 
Q 950 2350 1422 2350 
Q 1716 2350 1955 2204 
Q 2194 2059 2516 1768 
Q 2838 1478 3055 1343 
Q 3272 1209 3553 1209 
Q 3806 1209 4006 1346 
Q 4206 1484 4320 1712 
Q 4434 1941 4434 2188 
Q 4453 2350 4525 2350 
Q 4597 2350 4616 2188 
L 4616 2150 
Q 4616 1841 4486 1537 
Q 4356 1234 4115 1042 
Q 3875 850 3553 850 
Q 3259 850 3031 989 
Q 2803 1128 2481 1417 
Q 2159 1706 1931 1848 
Q 1703 1991 1422 1991 
Q 1172 1991 969 1853 
Q 766 1716 652 1487 
Q 538 1259 538 1013 
Q 519 850 447 850 
z
" transform="scale(0.015625)"/>
      </defs>
      <use xlink:href="#Cmmi10-3e" transform="translate(0 0.084203)"/>
      <use xlink:href="#Cmr10-29" transform="translate(72.00201 0.084203)"/>
      <use xlink:href="#Cmr10-28" transform="translate(169.687614 0.084203)"/>
      <use xlink:href="#Cmmi10-33" transform="translate(219.687614 0.084203)"/>
      <use xlink:href="#Cmr10-28" transform="translate(247.373161 0.084203)"/>
      <use xlink:href="#Cmr10-64" transform="translate(297.373161 0.084203)"/>
      <use xlink:href="#Cmr10-17" transform="translate(364.040209 0.084203)"/>
      <use xlink:href="#Cmr10-7d" transform="translate(455.641772 0.084203)"/>
      <use xlink:href="#Cmr10-7b" transform="translate(511.15935 0.084203)"/>
      <use xlink:href="#Cmsy10-11" transform="translate(559.548406 41.373437) scale(0.7)"/>
      <use xlink:href="#Cmr10-64" transform="translate(613.928289 41.373437) scale(0.7)"/>
      <use xlink:href="#DejaVuSerif-3" transform="translate(654.648704 0.084203)"/>
      <use xlink:href="#DejaVuSerif-3" transform="translate(686.435814 0.084203)"/>
      <use xlink:href="#DejaVuSerif-b" transform="translate(718.222923 0.084203)"/>
      <use xlink:href="#Cmsy10-1b" transform="translate(777.236652 0.084203)"/>
      <use xlink:href="#Cmmi10-3e" transform="translate(874.922256 0.084203)"/>
      <use xlink:href="#Cmr10-82" transform="translate(926.924209 -14.915759) scale(0.7)"/>
      <use xlink:href="#Cmr10-4a" transform="translate(957.993545 -14.915759) scale(0.7)"/>
      <use xlink:href="#DejaVuSerif-c" transform="translate(1000.593844 0.084203)"/>
     </g>
    </g>
    <g id="line2d_102">
     <path d="M 269.075 252.825625 
L 279.575 252.825625 
L 290.075 252.825625 
" style="fill: none; stroke: #c65b57; stroke-width: 2.6; stroke-linecap: square"/>
    </g>
    <g id="text_16">
     <!-- $k=0.2\,\mathrm{Mpc^{-1}}$  (sub-horizon) -->
     <g style="fill: #29323f" transform="translate(298.475 256.500625) scale(0.105 -0.105)">
      <defs>
       <path id="Cmr10-31" d="M 319 0 
L 319 172 
Q 319 188 331 206 
L 1325 1306 
Q 1550 1550 1690 1715 
Q 1831 1881 1968 2097 
Q 2106 2313 2186 2536 
Q 2266 2759 2266 3009 
Q 2266 3272 2169 3511 
Q 2072 3750 1880 3894 
Q 1688 4038 1416 4038 
Q 1138 4038 916 3870 
Q 694 3703 603 3438 
Q 628 3444 672 3444 
Q 816 3444 917 3347 
Q 1019 3250 1019 3097 
Q 1019 2950 917 2848 
Q 816 2747 672 2747 
Q 522 2747 420 2851 
Q 319 2956 319 3097 
Q 319 3338 409 3548 
Q 500 3759 670 3923 
Q 841 4088 1055 4175 
Q 1269 4263 1509 4263 
Q 1875 4263 2190 4108 
Q 2506 3953 2690 3670 
Q 2875 3388 2875 3009 
Q 2875 2731 2753 2481 
Q 2631 2231 2440 2026 
Q 2250 1822 1953 1562 
Q 1656 1303 1563 1216 
L 838 519 
L 1453 519 
Q 1906 519 2211 526 
Q 2516 534 2534 550 
Q 2609 631 2688 1141 
L 2875 1141 
L 2694 0 
L 319 0 
z
" transform="scale(0.015625)"/>
       <path id="DejaVuSerif-45" d="M 738 331 
L 738 4531 
L 184 4531 
L 184 4863 
L 1313 4863 
L 1313 2803 
Q 1481 3116 1742 3264 
Q 2003 3413 2388 3413 
Q 3000 3413 3387 2928 
Q 3775 2444 3775 1663 
Q 3775 881 3387 395 
Q 3000 -91 2388 -91 
Q 2003 -91 1742 57 
Q 1481 206 1313 519 
L 1313 0 
L 184 0 
L 184 331 
L 738 331 
z
M 1313 1497 
Q 1313 897 1542 583 
Q 1772 269 2209 269 
Q 2650 269 2876 622 
Q 3103 975 3103 1663 
Q 3103 2353 2876 2703 
Q 2650 3053 2209 3053 
Q 1772 3053 1542 2737 
Q 1313 2422 1313 1825 
L 1313 1497 
z
" transform="scale(0.015625)"/>
      </defs>
      <use xlink:href="#Cmmi10-3e" transform="translate(0 0.084203)"/>
      <use xlink:href="#Cmr10-29" transform="translate(72.00201 0.084203)"/>
      <use xlink:href="#Cmr10-28" transform="translate(169.687614 0.084203)"/>
      <use xlink:href="#Cmmi10-33" transform="translate(219.687614 0.084203)"/>
      <use xlink:href="#Cmr10-31" transform="translate(247.373161 0.084203)"/>
      <use xlink:href="#Cmr10-17" transform="translate(314.040209 0.084203)"/>
      <use xlink:href="#Cmr10-7d" transform="translate(405.641772 0.084203)"/>
      <use xlink:href="#Cmr10-7b" transform="translate(461.15935 0.084203)"/>
      <use xlink:href="#Cmsy10-11" transform="translate(509.548406 41.373437) scale(0.7)"/>
      <use xlink:href="#Cmr10-64" transform="translate(563.928289 41.373437) scale(0.7)"/>
      <use xlink:href="#DejaVuSerif-3" transform="translate(604.648704 0.084203)"/>
      <use xlink:href="#DejaVuSerif-3" transform="translate(636.435814 0.084203)"/>
      <use xlink:href="#DejaVuSerif-b" transform="translate(668.222923 0.084203)"/>
      <use xlink:href="#DejaVuSerif-56" transform="translate(707.236595 0.084203)"/>
      <use xlink:href="#DejaVuSerif-58" transform="translate(758.554954 0.084203)"/>
      <use xlink:href="#DejaVuSerif-45" transform="translate(822.959251 0.084203)"/>
      <use xlink:href="#DejaVuSerif-10" transform="translate(886.972923 0.084203)"/>
      <use xlink:href="#DejaVuSerif-4b" transform="translate(920.761986 0.084203)"/>
      <use xlink:href="#DejaVuSerif-52" transform="translate(985.166283 0.084203)"/>
      <use xlink:href="#DejaVuSerif-55" transform="translate(1045.371361 0.084203)"/>
      <use xlink:href="#DejaVuSerif-4c" transform="translate(1093.174095 0.084203)"/>
      <use xlink:href="#DejaVuSerif-5d" transform="translate(1125.156517 0.084203)"/>
      <use xlink:href="#DejaVuSerif-52" transform="translate(1177.842064 0.084203)"/>
      <use xlink:href="#DejaVuSerif-51" transform="translate(1238.047142 0.084203)"/>
      <use xlink:href="#DejaVuSerif-c" transform="translate(1302.451439 0.084203)"/>
     </g>
    </g>
   </g>
  </g>
 </g>
 <defs>
  <clipPath id="p3e600a3cff">
   <rect x="64.69" y="12.96" width="435.7" height="255.513086"/>
  </clipPath>
 </defs>
</svg>
