<?xml version="1.0" encoding="utf-8" standalone="no"?>
<!DOCTYPE svg PUBLIC "-//W3C//DTD SVG 1.1//EN"
  "http://www.w3.org/Graphics/SVG/1.1/DTD/svg11.dtd">
<svg xmlns:xlink="http://www.w3.org/1999/xlink" width="576pt" height="216pt" viewBox="0 0 576 216" xmlns="http://www.w3.org/2000/svg" version="1.1">
 <metadata>
  <rdf:RDF xmlns:dc="http://purl.org/dc/elements/1.1/" xmlns:cc="http://creativecommons.org/ns#" xmlns:rdf="http://www.w3.org/1999/02/22-rdf-syntax-ns#">
   <cc:Work>
    <dc:type rdf:resource="http://purl.org/dc/dcmitype/StillImage"/>
    <dc:date>2026-06-24T12:58:42.390627</dc:date>
    <dc:format>image/svg+xml</dc:format>
    <dc:creator>
     <cc:Agent>
      <dc:title>Matplotlib v3.11.0, https://matplotlib.org/</dc:title>
     </cc:Agent>
    </dc:creator>
   </cc:Work>
  </rdf:RDF>
 </metadata>
 <defs>
  <style type="text/css">*{stroke-linejoin: round; stroke-linecap: butt}</style>
 </defs>
 <g id="figure_1">
  <g id="patch_1">
   <path d="M 0 216 
L 576 216 
L 576 0 
L 0 0 
L 0 216 
z
" style="fill: none"/>
  </g>
  <g id="axes_1">
   <g id="matplotlib.axis_1"/>
   <g id="matplotlib.axis_2"/>
   <g id="text_1">
    <!-- $e^+(k)$ -->
    <g transform="translate(8.43 187.938359) scale(0.14 -0.14)">
     <defs>
      <path id="DejaVuSans-Oblique-48" d="M 3078 2063 
Q 3088 2113 3092 2166 
Q 3097 2219 3097 2272 
Q 3097 2653 2873 2875 
Q 2650 3097 2266 3097 
Q 1838 3097 1509 2826 
Q 1181 2556 1013 2059 
L 3078 2063 
z
M 3578 1613 
L 903 1613 
Q 884 1494 878 1425 
Q 872 1356 872 1306 
Q 872 872 1139 634 
Q 1406 397 1894 397 
Q 2269 397 2603 481 
Q 2938 566 3225 728 
L 3116 159 
Q 2806 34 2476 -28 
Q 2147 -91 1806 -91 
Q 1078 -91 686 257 
Q 294 606 294 1247 
Q 294 1794 489 2264 
Q 684 2734 1063 3103 
Q 1306 3334 1642 3459 
Q 1978 3584 2356 3584 
Q 2950 3584 3301 3228 
Q 3653 2872 3653 2272 
Q 3653 2128 3634 1964 
Q 3616 1800 3578 1613 
z
" transform="scale(0.015625)"/>
      <path id="DejaVuSans-e" d="M 2944 4013 
L 2944 2272 
L 4684 2272 
L 4684 1741 
L 2944 1741 
L 2944 0 
L 2419 0 
L 2419 1741 
L 678 1741 
L 678 2272 
L 2419 2272 
L 2419 4013 
L 2944 4013 
z
" transform="scale(0.015625)"/>
      <path id="DejaVuSans-b" d="M 1984 4856 
Q 1566 4138 1362 3434 
Q 1159 2731 1159 2009 
Q 1159 1288 1364 580 
Q 1569 -128 1984 -844 
L 1484 -844 
Q 1016 -109 783 600 
Q 550 1309 550 2009 
Q 550 2706 781 3412 
Q 1013 4119 1484 4856 
L 1984 4856 
z
" transform="scale(0.015625)"/>
      <path id="DejaVuSans-Oblique-4e" d="M 1172 4863 
L 1747 4863 
L 1197 2028 
L 3169 3500 
L 3916 3500 
L 1716 1825 
L 3322 0 
L 2625 0 
L 1131 1709 
L 800 0 
L 225 0 
L 1172 4863 
z
" transform="scale(0.015625)"/>
      <path id="DejaVuSans-c" d="M 513 4856 
L 1013 4856 
Q 1481 4119 1714 3412 
Q 1947 2706 1947 2009 
Q 1947 1309 1714 600 
Q 1481 -109 1013 -844 
L 513 -844 
Q 928 -128 1133 580 
Q 1338 1288 1338 2009 
Q 1338 2731 1133 3434 
Q 928 4138 513 4856 
z
" transform="scale(0.015625)"/>
     </defs>
     <use xlink:href="#DejaVuSans-Oblique-48" transform="translate(0 0.807813)"/>
     <use xlink:href="#DejaVuSans-e" transform="translate(79.811029 42.107813) scale(0.7)"/>
     <use xlink:href="#DejaVuSans-b" transform="translate(154.835443 0.807813)"/>
     <use xlink:href="#DejaVuSans-Oblique-4e" transform="translate(193.849115 0.807813)"/>
     <use xlink:href="#DejaVuSans-c" transform="translate(251.759271 0.807813)"/>
    </g>
   </g>
   <g id="text_2">
    <!-- $e^-(p')$ -->
    <g transform="translate(294.19 36.388359) scale(0.14 -0.14)">
     <defs>
      <path id="DejaVuSans-c9c" d="M 678 2272 
L 4684 2272 
L 4684 1741 
L 678 1741 
L 678 2272 
z
" transform="scale(0.015625)"/>
      <path id="DejaVuSans-Oblique-53" d="M 3175 2156 
Q 3175 2616 2975 2859 
Q 2775 3103 2400 3103 
Q 2144 3103 1911 2972 
Q 1678 2841 1497 2591 
Q 1319 2344 1212 1994 
Q 1106 1644 1106 1300 
Q 1106 863 1306 627 
Q 1506 391 1875 391 
Q 2147 391 2380 519 
Q 2613 647 2778 891 
Q 2956 1147 3065 1494 
Q 3175 1841 3175 2156 
z
M 1394 2969 
Q 1625 3272 1939 3428 
Q 2253 3584 2638 3584 
Q 3175 3584 3472 3232 
Q 3769 2881 3769 2247 
Q 3769 1728 3584 1258 
Q 3400 788 3053 416 
Q 2822 169 2531 39 
Q 2241 -91 1919 -91 
Q 1547 -91 1294 64 
Q 1041 219 916 525 
L 556 -1331 
L -19 -1331 
L 922 3500 
L 1497 3500 
L 1394 2969 
z
" transform="scale(0.015625)"/>
      <path id="Cmsy10-49" d="M 225 347 
Q 184 359 184 409 
L 966 3316 
Q 1003 3434 1093 3506 
Q 1184 3578 1300 3578 
Q 1450 3578 1564 3479 
Q 1678 3381 1678 3231 
Q 1678 3166 1644 3084 
L 488 319 
Q 466 275 428 275 
Q 394 275 320 306 
Q 247 338 225 347 
z
" transform="scale(0.015625)"/>
     </defs>
     <use xlink:href="#DejaVuSans-Oblique-48" transform="translate(0 0.565625)"/>
     <use xlink:href="#DejaVuSans-c9c" transform="translate(79.811029 41.865625) scale(0.7)"/>
     <use xlink:href="#DejaVuSans-b" transform="translate(154.835443 0.565625)"/>
     <use xlink:href="#DejaVuSans-Oblique-53" transform="translate(193.849115 0.565625)"/>
     <use xlink:href="#Cmsy10-49" transform="translate(261.975573 41.865625) scale(0.7)"/>
     <use xlink:href="#DejaVuSans-c" transform="translate(283.953112 0.565625)"/>
    </g>
   </g>
   <g id="text_3">
    <!-- $e^+(k')$ -->
    <g transform="translate(294.33 187.938359) scale(0.14 -0.14)">
     <use xlink:href="#DejaVuSans-Oblique-48" transform="translate(0 0.807813)"/>
     <use xlink:href="#DejaVuSans-e" transform="translate(79.811029 42.107813) scale(0.7)"/>
     <use xlink:href="#DejaVuSans-b" transform="translate(154.835443 0.807813)"/>
     <use xlink:href="#DejaVuSans-Oblique-4e" transform="translate(193.849115 0.807813)"/>
     <use xlink:href="#Cmsy10-49" transform="translate(259.206979 42.107813) scale(0.7)"/>
     <use xlink:href="#DejaVuSans-c" transform="translate(281.184518 0.807813)"/>
    </g>
   </g>
   <g id="text_4">
    <!-- (s-channel) -->
    <g transform="translate(133.466562 144.037266) scale(0.14 -0.14)">
     <defs>
      <path id="DejaVuSans-56" d="M 2834 3397 
L 2834 2853 
Q 2591 2978 2328 3040 
Q 2066 3103 1784 3103 
Q 1356 3103 1142 2972 
Q 928 2841 928 2578 
Q 928 2378 1081 2264 
Q 1234 2150 1697 2047 
L 1894 2003 
Q 2506 1872 2764 1633 
Q 3022 1394 3022 966 
Q 3022 478 2636 193 
Q 2250 -91 1575 -91 
Q 1294 -91 989 -36 
Q 684 19 347 128 
L 347 722 
Q 666 556 975 473 
Q 1284 391 1588 391 
Q 1994 391 2212 530 
Q 2431 669 2431 922 
Q 2431 1156 2273 1281 
Q 2116 1406 1581 1522 
L 1381 1569 
Q 847 1681 609 1914 
Q 372 2147 372 2553 
Q 372 3047 722 3315 
Q 1072 3584 1716 3584 
Q 2034 3584 2315 3537 
Q 2597 3491 2834 3397 
z
" transform="scale(0.015625)"/>
      <path id="DejaVuSans-10" d="M 313 2009 
L 1997 2009 
L 1997 1497 
L 313 1497 
L 313 2009 
z
" transform="scale(0.015625)"/>
      <path id="DejaVuSans-46" d="M 3122 3366 
L 3122 2828 
Q 2878 2963 2633 3030 
Q 2388 3097 2138 3097 
Q 1578 3097 1268 2742 
Q 959 2388 959 1747 
Q 959 1106 1268 751 
Q 1578 397 2138 397 
Q 2388 397 2633 464 
Q 2878 531 3122 666 
L 3122 134 
Q 2881 22 2623 -34 
Q 2366 -91 2075 -91 
Q 1284 -91 818 406 
Q 353 903 353 1747 
Q 353 2603 823 3093 
Q 1294 3584 2113 3584 
Q 2378 3584 2631 3529 
Q 2884 3475 3122 3366 
z
" transform="scale(0.015625)"/>
      <path id="DejaVuSans-4b" d="M 3513 2113 
L 3513 0 
L 2938 0 
L 2938 2094 
Q 2938 2591 2744 2837 
Q 2550 3084 2163 3084 
Q 1697 3084 1428 2787 
Q 1159 2491 1159 1978 
L 1159 0 
L 581 0 
L 581 4863 
L 1159 4863 
L 1159 2956 
Q 1366 3272 1645 3428 
Q 1925 3584 2291 3584 
Q 2894 3584 3203 3211 
Q 3513 2838 3513 2113 
z
" transform="scale(0.015625)"/>
      <path id="DejaVuSans-44" d="M 2194 1759 
Q 1497 1759 1228 1600 
Q 959 1441 959 1056 
Q 959 750 1161 570 
Q 1363 391 1709 391 
Q 2188 391 2477 730 
Q 2766 1069 2766 1631 
L 2766 1759 
L 2194 1759 
z
M 3341 1997 
L 3341 0 
L 2766 0 
L 2766 531 
Q 2569 213 2275 61 
Q 1981 -91 1556 -91 
Q 1019 -91 701 211 
Q 384 513 384 1019 
Q 384 1609 779 1909 
Q 1175 2209 1959 2209 
L 2766 2209 
L 2766 2266 
Q 2766 2663 2505 2880 
Q 2244 3097 1772 3097 
Q 1472 3097 1187 3025 
Q 903 2953 641 2809 
L 641 3341 
Q 956 3463 1253 3523 
Q 1550 3584 1831 3584 
Q 2591 3584 2966 3190 
Q 3341 2797 3341 1997 
z
" transform="scale(0.015625)"/>
      <path id="DejaVuSans-51" d="M 3513 2113 
L 3513 0 
L 2938 0 
L 2938 2094 
Q 2938 2591 2744 2837 
Q 2550 3084 2163 3084 
Q 1697 3084 1428 2787 
Q 1159 2491 1159 1978 
L 1159 0 
L 581 0 
L 581 3500 
L 1159 3500 
L 1159 2956 
Q 1366 3272 1645 3428 
Q 1925 3584 2291 3584 
Q 2894 3584 3203 3211 
Q 3513 2838 3513 2113 
z
" transform="scale(0.015625)"/>
      <path id="DejaVuSans-48" d="M 3597 1894 
L 3597 1613 
L 953 1613 
Q 991 1019 1311 708 
Q 1631 397 2203 397 
Q 2534 397 2845 478 
Q 3156 559 3463 722 
L 3463 178 
Q 3153 47 2828 -22 
Q 2503 -91 2169 -91 
Q 1331 -91 842 396 
Q 353 884 353 1716 
Q 353 2575 817 3079 
Q 1281 3584 2069 3584 
Q 2775 3584 3186 3129 
Q 3597 2675 3597 1894 
z
M 3022 2063 
Q 3016 2534 2758 2815 
Q 2500 3097 2075 3097 
Q 1594 3097 1305 2825 
Q 1016 2553 972 2059 
L 3022 2063 
z
" transform="scale(0.015625)"/>
      <path id="DejaVuSans-4f" d="M 603 4863 
L 1178 4863 
L 1178 0 
L 603 0 
L 603 4863 
z
" transform="scale(0.015625)"/>
     </defs>
     <use xlink:href="#DejaVuSans-b"/>
     <use xlink:href="#DejaVuSans-56" transform="translate(39.015625 0)"/>
     <use xlink:href="#DejaVuSans-10" transform="translate(91.109375 0)"/>
     <use xlink:href="#DejaVuSans-46" transform="translate(127.1875 0)"/>
     <use xlink:href="#DejaVuSans-4b" transform="translate(182.171875 0)"/>
     <use xlink:href="#DejaVuSans-44" transform="translate(245.546875 0)"/>
     <use xlink:href="#DejaVuSans-51" transform="translate(306.828125 0)"/>
     <use xlink:href="#DejaVuSans-51" transform="translate(370.203125 0)"/>
     <use xlink:href="#DejaVuSans-48" transform="translate(433.578125 0)"/>
     <use xlink:href="#DejaVuSans-4f" transform="translate(495.109375 0)"/>
     <use xlink:href="#DejaVuSans-c" transform="translate(522.890625 0)"/>
    </g>
   </g>
   <g id="text_5">
    <!-- $e^-(p)$ -->
    <g transform="translate(353.61 36.038359) scale(0.14 -0.14)">
     <use xlink:href="#DejaVuSans-Oblique-48" transform="translate(0 0.125)"/>
     <use xlink:href="#DejaVuSans-c9c" transform="translate(79.811029 41.425) scale(0.7)"/>
     <use xlink:href="#DejaVuSans-b" transform="translate(154.835443 0.125)"/>
     <use xlink:href="#DejaVuSans-Oblique-53" transform="translate(193.849115 0.125)"/>
     <use xlink:href="#DejaVuSans-c" transform="translate(257.325677 0.125)"/>
    </g>
   </g>
   <g id="text_6">
    <!-- $e^+(k)$ -->
    <g transform="translate(354.03 187.938359) scale(0.14 -0.14)">
     <use xlink:href="#DejaVuSans-Oblique-48" transform="translate(0 0.807813)"/>
     <use xlink:href="#DejaVuSans-e" transform="translate(79.811029 42.107813) scale(0.7)"/>
     <use xlink:href="#DejaVuSans-b" transform="translate(154.835443 0.807813)"/>
     <use xlink:href="#DejaVuSans-Oblique-4e" transform="translate(193.849115 0.807813)"/>
     <use xlink:href="#DejaVuSans-c" transform="translate(251.759271 0.807813)"/>
    </g>
   </g>
   <g id="text_7">
    <!-- $e^-(p')$ -->
    <g transform="translate(524.59 36.388359) scale(0.14 -0.14)">
     <use xlink:href="#DejaVuSans-Oblique-48" transform="translate(0 0.565625)"/>
     <use xlink:href="#DejaVuSans-c9c" transform="translate(79.811029 41.865625) scale(0.7)"/>
     <use xlink:href="#DejaVuSans-b" transform="translate(154.835443 0.565625)"/>
     <use xlink:href="#DejaVuSans-Oblique-53" transform="translate(193.849115 0.565625)"/>
     <use xlink:href="#Cmsy10-49" transform="translate(261.975573 41.865625) scale(0.7)"/>
     <use xlink:href="#DejaVuSans-c" transform="translate(283.953112 0.565625)"/>
    </g>
   </g>
   <g id="text_8">
    <!-- $e^+(k')$ -->
    <g transform="translate(524.73 187.938359) scale(0.14 -0.14)">
     <use xlink:href="#DejaVuSans-Oblique-48" transform="translate(0 0.807813)"/>
     <use xlink:href="#DejaVuSans-e" transform="translate(79.811029 42.107813) scale(0.7)"/>
     <use xlink:href="#DejaVuSans-b" transform="translate(154.835443 0.807813)"/>
     <use xlink:href="#DejaVuSans-Oblique-4e" transform="translate(193.849115 0.807813)"/>
     <use xlink:href="#Cmsy10-49" transform="translate(259.206979 42.107813) scale(0.7)"/>
     <use xlink:href="#DejaVuSans-c" transform="translate(281.184518 0.807813)"/>
    </g>
   </g>
   <g id="text_9">
    <!-- (t-channel) -->
    <g transform="translate(479.968906 111.637266) scale(0.14 -0.14)">
     <defs>
      <path id="DejaVuSans-57" d="M 1172 4494 
L 1172 3500 
L 2356 3500 
L 2356 3053 
L 1172 3053 
L 1172 1153 
Q 1172 725 1289 603 
Q 1406 481 1766 481 
L 2356 481 
L 2356 0 
L 1766 0 
Q 1100 0 847 248 
Q 594 497 594 1153 
L 594 3053 
L 172 3053 
L 172 3500 
L 594 3500 
L 594 4494 
L 1172 4494 
z
" transform="scale(0.015625)"/>
     </defs>
     <use xlink:href="#DejaVuSans-b"/>
     <use xlink:href="#DejaVuSans-57" transform="translate(39.015625 0)"/>
     <use xlink:href="#DejaVuSans-10" transform="translate(78.21875 0)"/>
     <use xlink:href="#DejaVuSans-46" transform="translate(114.296875 0)"/>
     <use xlink:href="#DejaVuSans-4b" transform="translate(169.28125 0)"/>
     <use xlink:href="#DejaVuSans-44" transform="translate(232.65625 0)"/>
     <use xlink:href="#DejaVuSans-51" transform="translate(293.9375 0)"/>
     <use xlink:href="#DejaVuSans-51" transform="translate(357.3125 0)"/>
     <use xlink:href="#DejaVuSans-48" transform="translate(420.6875 0)"/>
     <use xlink:href="#DejaVuSans-4f" transform="translate(482.21875 0)"/>
     <use xlink:href="#DejaVuSans-c" transform="translate(510 0)"/>
    </g>
   </g>
   <g id="text_10">
    <g clip-path="url(#pf5db39a167)">
     <!-- $e^-(p)$ -->
     <g transform="translate(20.589264 85.341017) scale(0.14 -0.14)">
      <use xlink:href="#DejaVuSans-Oblique-48" transform="translate(0 0.125)"/>
      <use xlink:href="#DejaVuSans-c9c" transform="translate(79.811029 41.425) scale(0.7)"/>
      <use xlink:href="#DejaVuSans-b" transform="translate(154.835443 0.125)"/>
      <use xlink:href="#DejaVuSans-Oblique-53" transform="translate(193.849115 0.125)"/>
      <use xlink:href="#DejaVuSans-c" transform="translate(257.325677 0.125)"/>
     </g>
    </g>
   </g>
   <g id="line2d_1">
    <path d="M 28.8 43.2 
L 115.2 108 
L 115.2 108 
" clip-path="url(#pf5db39a167)" style="fill: none; stroke: #000000; stroke-width: 3"/>
   </g>
   <g id="line2d_2">
    <path d="M 28.8 172.8 
L 115.2 108 
L 115.2 108 
" clip-path="url(#pf5db39a167)" style="fill: none; stroke: #000000; stroke-width: 3"/>
   </g>
   <g id="line2d_3">
    <path d="M 115.2 108 
L 28.8 172.8 
L 28.8 172.8 
" clip-path="url(#pf5db39a167)" style="fill: none; stroke: #000000; stroke-width: 3"/>
   </g>
   <g id="line2d_4">
    <path d="M 115.2 108 
L 117.221053 105.172166 
L 118.37594 103.886224 
L 119.242105 103.181827 
L 120.108271 102.745013 
L 120.974436 102.600042 
L 121.840602 102.754963 
L 122.706767 103.201174 
L 123.572932 103.913894 
L 124.72782 105.208475 
L 126.46015 107.61766 
L 128.769925 110.863967 
L 129.924812 112.141191 
L 130.790977 112.837222 
L 131.657143 113.264611 
L 132.523308 113.399623 
L 133.389474 113.234761 
L 134.255639 112.779181 
L 135.121805 112.058182 
L 136.276692 110.755043 
L 138.009023 108.339917 
L 140.318797 105.100076 
L 141.473684 103.83165 
L 142.33985 103.14403 
L 143.206015 102.726091 
L 144.07218 102.601046 
L 144.938346 102.775838 
L 145.804511 103.24076 
L 146.670677 103.969993 
L 147.825564 105.28161 
L 149.557895 107.702526 
L 151.867669 110.9357 
L 153.022556 112.19525 
L 153.888722 112.874418 
L 154.754887 113.282879 
L 155.621053 113.39795 
L 156.487218 113.213238 
L 157.353383 112.739003 
L 158.219549 112.001582 
L 159.374436 110.681568 
L 161.106767 108.255012 
L 163.416541 105.028706 
L 164.571429 103.77811 
L 165.437594 103.107436 
L 166.303759 102.708477 
L 167.169925 102.603389 
L 168.03609 102.798008 
L 168.902256 103.281527 
L 169.768421 104.027091 
L 170.923308 105.355419 
L 172.655639 107.787466 
L 174.965414 111.006705 
L 176.120301 112.248268 
L 176.986466 112.910406 
L 177.852632 113.299838 
L 178.718797 113.394937 
L 179.584962 113.190422 
L 180.451128 112.697651 
L 181.317293 111.94399 
L 182.47218 110.607429 
L 184.204511 108.170043 
L 186.514286 104.958072 
L 187.669173 103.725617 
L 188.535338 103.072056 
L 189.401504 102.692175 
L 190.267669 102.60707 
L 191.133835 102.821469 
L 192 103.323463 
L 192.866165 104.085174 
L 194.021053 105.429884 
L 195.753383 107.872458 
L 198.063158 111.076964 
L 199.218045 112.300233 
L 200.084211 112.945176 
L 200.950376 113.315483 
L 201.816541 113.390587 
L 202.682707 113.166319 
L 203.548872 112.655134 
L 204.415038 111.885419 
L 205.569925 110.532643 
L 207.302256 108.085032 
L 209.323308 105.244957 
L 210.478195 103.941818 
L 211.344361 103.220819 
L 212.210526 102.765239 
L 213.076692 102.600377 
L 213.942857 102.735389 
L 214.809023 103.162778 
L 215.675188 103.858809 
L 216.830075 105.136033 
L 218.273684 107.111189 
L 221.160902 111.146459 
L 222.315789 112.351132 
L 223.181955 112.97872 
L 224.04812 113.329809 
L 224.914286 113.384901 
L 225.780451 113.140935 
L 226.646617 112.611462 
L 227.512782 111.825885 
L 228.667669 110.45723 
L 230.4 108 
L 230.4 108 
" clip-path="url(#pf5db39a167)" style="fill: none; stroke: #000000; stroke-width: 3"/>
   </g>
   <g id="line2d_5">
    <path d="M 230.4 108 
L 316.8 43.2 
L 316.8 43.2 
" clip-path="url(#pf5db39a167)" style="fill: none; stroke: #000000; stroke-width: 3"/>
   </g>
   <g id="line2d_6">
    <path d="M 316.8 172.8 
L 230.4 108 
L 230.4 108 
" clip-path="url(#pf5db39a167)" style="fill: none; stroke: #000000; stroke-width: 3"/>
   </g>
   <g id="line2d_7">
    <path d="M 374.4 43.2 
L 460.8 64.8 
L 460.8 64.8 
" clip-path="url(#pf5db39a167)" style="fill: none; stroke: #000000; stroke-width: 3"/>
   </g>
   <g id="line2d_8">
    <path d="M 374.4 172.8 
L 460.8 151.2 
L 460.8 151.2 
" clip-path="url(#pf5db39a167)" style="fill: none; stroke: #000000; stroke-width: 3"/>
   </g>
   <g id="line2d_9">
    <path d="M 460.8 151.2 
L 374.4 172.8 
L 374.4 172.8 
" clip-path="url(#pf5db39a167)" style="fill: none; stroke: #000000; stroke-width: 3"/>
   </g>
   <g id="line2d_10">
    <path d="M 460.8 64.8 
L 469.282443 66.532331 
L 472.469805 67.398496 
L 474.120078 68.04812 
L 474.813297 68.481203 
L 475.159735 68.914286 
L 475.150817 69.347368 
L 474.786764 69.780451 
L 474.076586 70.213534 
L 472.403018 70.863158 
L 470.085061 71.512782 
L 465.152685 72.595489 
L 451.342771 75.410526 
L 448.444156 76.276692 
L 447.056568 76.926316 
L 446.552497 77.359398 
L 446.401004 77.792481 
L 446.605838 78.225564 
L 447.16193 78.658647 
L 448.055518 79.091729 
L 449.97818 79.741353 
L 453.45322 80.607519 
L 459.893553 81.906767 
L 468.53313 83.639098 
L 471.9156 84.505263 
L 473.749254 85.154887 
L 474.863756 85.804511 
L 475.174899 86.237594 
L 475.130312 86.670677 
L 474.731098 87.103759 
L 473.987136 87.536842 
L 472.267288 88.186466 
L 469.005236 89.052632 
L 463.838275 90.135338 
L 452.045084 92.517293 
L 448.934189 93.383459 
L 447.354411 94.033083 
L 446.712322 94.466165 
L 446.418855 94.899248 
L 446.481273 95.332331 
L 446.898031 95.765414 
L 447.658817 96.198496 
L 449.401645 96.84812 
L 452.688191 97.714286 
L 457.872647 98.796992 
L 469.644663 101.178947 
L 472.729681 102.045113 
L 474.285762 102.694737 
L 474.910727 103.12782 
L 475.1865 103.560902 
L 475.106254 103.993985 
L 474.671977 104.427068 
L 473.894416 104.86015 
L 472.128715 105.509774 
L 468.817879 106.37594 
L 463.61625 107.458647 
L 451.866139 109.840602 
L 448.807189 110.706767 
L 447.274901 111.356391 
L 446.667098 111.789474 
L 446.409038 112.222556 
L 446.507105 112.655639 
L 446.958874 113.088722 
L 447.753164 113.521805 
L 449.541627 114.171429 
L 452.876548 115.037594 
L 458.095027 116.120301 
L 468.911809 118.285714 
L 472.198355 119.15188 
L 473.941183 119.801504 
L 474.701969 120.234586 
L 475.118727 120.667669 
L 475.181145 121.100752 
L 474.887678 121.533835 
L 474.245589 121.966917 
L 472.665811 122.616541 
L 470.427052 123.266165 
L 466.636285 124.132331 
L 450.053314 127.596992 
L 448.108695 128.246617 
L 446.868902 128.896241 
L 446.469688 129.329323 
L 446.425101 129.762406 
L 446.736244 130.195489 
L 447.395418 130.628571 
L 448.998794 131.278195 
L 451.257564 131.92782 
L 455.067546 132.793985 
L 471.62182 136.258647 
L 473.544482 136.908271 
L 474.759364 137.557895 
L 475.141009 137.990977 
L 475.167762 138.42406 
L 474.838962 138.857143 
L 474.162744 139.290226 
L 472.53587 139.93985 
L 470.257229 140.589474 
L 466.428268 141.455639 
L 449.903718 144.920301 
L 448.003132 145.569925 
L 446.813236 146.219549 
L 446.449183 146.652632 
L 446.440265 147.085714 
L 446.786703 147.518797 
L 447.479922 147.95188 
L 449.130195 148.601504 
L 451.428564 149.251128 
L 456.339374 150.333835 
L 460.8 151.2 
L 460.8 151.2 
" clip-path="url(#pf5db39a167)" style="fill: none; stroke: #000000; stroke-width: 3"/>
   </g>
   <g id="line2d_11">
    <path d="M 460.8 64.8 
L 547.2 43.2 
L 547.2 43.2 
" clip-path="url(#pf5db39a167)" style="fill: none; stroke: #000000; stroke-width: 3"/>
   </g>
   <g id="line2d_12">
    <path d="M 547.2 172.8 
L 460.8 151.2 
L 460.8 151.2 
" clip-path="url(#pf5db39a167)" style="fill: none; stroke: #000000; stroke-width: 3"/>
   </g>
   <g id="patch_2">
    <path d="M 83.700047 84.375035 
L 79.836122 74.232231 
L 74.19479 77.246093 
L 64.38042 77.130175 
z
" clip-path="url(#pf5db39a167)" style="stroke: #000000; stroke-linejoin: miter"/>
   </g>
   <g id="patch_3">
    <path d="M 60.299953 149.175035 
L 79.61958 141.930175 
L 69.80521 142.046093 
L 64.163878 139.032231 
z
" clip-path="url(#pf5db39a167)" style="stroke: #000000; stroke-linejoin: miter"/>
   </g>
   <g id="patch_4">
    <path d="M 285.300047 66.824965 
L 265.98042 74.069825 
L 275.79479 73.953907 
L 281.436122 76.967769 
z
" clip-path="url(#pf5db39a167)" style="stroke: #000000; stroke-linejoin: miter"/>
   </g>
   <g id="patch_5">
    <path d="M 261.899953 131.624965 
L 265.763878 141.767769 
L 271.40521 138.753907 
L 281.21958 138.869825 
z
" clip-path="url(#pf5db39a167)" style="stroke: #000000; stroke-linejoin: miter"/>
   </g>
   <g id="patch_6">
    <path d="M 439.275014 59.418754 
L 422.50088 51.331225 
L 421.590285 54.997571 
L 412.915661 56.722911 
z
" clip-path="url(#pf5db39a167)" style="stroke: #000000; stroke-linejoin: miter"/>
   </g>
   <g id="patch_7">
    <path d="M 395.924986 167.418754 
L 422.284339 164.722911 
L 413.609715 162.997571 
L 412.69912 159.331225 
z
" clip-path="url(#pf5db39a167)" style="stroke: #000000; stroke-linejoin: miter"/>
   </g>
   <g id="patch_8">
    <path d="M 525.675014 48.581246 
L 499.315661 51.277089 
L 507.990285 53.002429 
L 508.90088 56.668775 
z
" clip-path="url(#pf5db39a167)" style="stroke: #000000; stroke-linejoin: miter"/>
   </g>
   <g id="patch_9">
    <path d="M 482.324986 156.581246 
L 499.09912 164.668775 
L 500.009715 161.002429 
L 508.684339 159.277089 
z
" clip-path="url(#pf5db39a167)" style="stroke: #000000; stroke-linejoin: miter"/>
   </g>
   <g id="line2d_13"/>
   <g id="line2d_14"/>
   <g id="line2d_15">
    <defs>
     <path id="m5773c68a4e" d="M 0 5 
C 1.326016 5 2.597899 4.473168 3.535534 3.535534 
C 4.473168 2.597899 5 1.326016 5 0 
C 5 -1.326016 4.473168 -2.597899 3.535534 -3.535534 
C 2.597899 -4.473168 1.326016 -5 0 -5 
C -1.326016 -5 -2.597899 -4.473168 -3.535534 -3.535534 
C -4.473168 -2.597899 -5 -1.326016 -5 0 
C -5 1.326016 -4.473168 2.597899 -3.535534 3.535534 
C -2.597899 4.473168 -1.326016 5 0 5 
z
" style="stroke: #000000"/>
    </defs>
    <g clip-path="url(#pf5db39a167)">
     <use xlink:href="#m5773c68a4e" x="115.2" y="108" style="stroke: #000000"/>
    </g>
   </g>
   <g id="line2d_16">
    <g clip-path="url(#pf5db39a167)">
     <use xlink:href="#m5773c68a4e" x="230.4" y="108" style="stroke: #000000"/>
    </g>
   </g>
   <g id="line2d_17"/>
   <g id="line2d_18"/>
   <g id="line2d_19"/>
   <g id="line2d_20"/>
   <g id="line2d_21">
    <g clip-path="url(#pf5db39a167)">
     <use xlink:href="#m5773c68a4e" x="460.8" y="64.8" style="stroke: #000000"/>
    </g>
   </g>
   <g id="line2d_22">
    <g clip-path="url(#pf5db39a167)">
     <use xlink:href="#m5773c68a4e" x="460.8" y="151.2" style="stroke: #000000"/>
    </g>
   </g>
   <g id="line2d_23"/>
   <g id="line2d_24"/>
  </g>
 </g>
 <defs>
  <clipPath id="pf5db39a167">
   <rect x="0" y="0" width="576" height="216"/>
  </clipPath>
 </defs>
</svg>
