<?xml version="1.0" encoding="utf-8" standalone="no"?>
<!DOCTYPE svg PUBLIC "-//W3C//DTD SVG 1.1//EN"
  "http://www.w3.org/Graphics/SVG/1.1/DTD/svg11.dtd">
<svg xmlns:xlink="http://www.w3.org/1999/xlink" width="828.063125pt" height="225.406976pt" viewBox="0 0 828.063125 225.406976" xmlns="http://www.w3.org/2000/svg" version="1.1">
 <metadata>
  <rdf:RDF xmlns:dc="http://purl.org/dc/elements/1.1/" xmlns:cc="http://creativecommons.org/ns#" xmlns:rdf="http://www.w3.org/1999/02/22-rdf-syntax-ns#">
   <cc:Work>
    <dc:type rdf:resource="http://purl.org/dc/dcmitype/StillImage"/>
    <dc:date>2026-06-29T18:52:18.997289</dc:date>
    <dc:format>image/svg+xml</dc:format>
    <dc:creator>
     <cc:Agent>
      <dc:title>Matplotlib v3.9.4, https://matplotlib.org/</dc:title>
     </cc:Agent>
    </dc:creator>
   </cc:Work>
  </rdf:RDF>
 </metadata>
 <defs>
  <style type="text/css">*{stroke-linejoin: round; stroke-linecap: butt}</style>
 </defs>
 <g id="figure_1">
  <g id="patch_1">
   <path d="M 0 225.406976 
L 828.063125 225.406976 
L 828.063125 0 
L 0 0 
z
" style="fill: #ffffff"/>
  </g>
  <g id="axes_1">
   <g id="patch_2">
    <path d="M 30.103125 167.0264 
L 263.583125 167.0264 
L 263.583125 21.56 
L 30.103125 21.56 
z
" style="fill: #ffffff"/>
   </g>
   <g id="matplotlib.axis_1">
    <g id="xtick_1">
     <g id="line2d_1">
      <path d="M 80.51358 167.0264 
L 80.51358 21.56 
" clip-path="url(#p3c217b4674)" style="fill: none; stroke: #b0b0b0; stroke-opacity: 0.22; stroke-width: 0.8; stroke-linecap: square"/>
     </g>
     <g id="line2d_2">
      <defs>
       <path id="m977133f96b" d="M 0 0 
L 0 3.5 
" style="stroke: #000000; stroke-width: 0.8"/>
      </defs>
      <g>
       <use xlink:href="#m977133f96b" x="80.51358" y="167.0264" style="stroke: #000000; stroke-width: 0.8"/>
      </g>
     </g>
     <g id="text_1">
      <!-- −2 -->
      <g transform="translate(73.142486 181.624837) scale(0.1 -0.1)">
       <defs>
        <path id="DejaVuSans-2212" d="M 678 2272 
L 4684 2272 
L 4684 1741 
L 678 1741 
L 678 2272 
z
" transform="scale(0.015625)"/>
        <path id="DejaVuSans-32" d="M 1228 531 
L 3431 531 
L 3431 0 
L 469 0 
L 469 531 
Q 828 903 1448 1529 
Q 2069 2156 2228 2338 
Q 2531 2678 2651 2914 
Q 2772 3150 2772 3378 
Q 2772 3750 2511 3984 
Q 2250 4219 1831 4219 
Q 1534 4219 1204 4116 
Q 875 4013 500 3803 
L 500 4441 
Q 881 4594 1212 4672 
Q 1544 4750 1819 4750 
Q 2544 4750 2975 4387 
Q 3406 4025 3406 3419 
Q 3406 3131 3298 2873 
Q 3191 2616 2906 2266 
Q 2828 2175 2409 1742 
Q 1991 1309 1228 531 
z
" transform="scale(0.015625)"/>
       </defs>
       <use xlink:href="#DejaVuSans-2212"/>
       <use xlink:href="#DejaVuSans-32" x="83.789062"/>
      </g>
     </g>
    </g>
    <g id="xtick_2">
     <g id="line2d_3">
      <path d="M 146.843125 167.0264 
L 146.843125 21.56 
" clip-path="url(#p3c217b4674)" style="fill: none; stroke: #b0b0b0; stroke-opacity: 0.22; stroke-width: 0.8; stroke-linecap: square"/>
     </g>
     <g id="line2d_4">
      <g>
       <use xlink:href="#m977133f96b" x="146.843125" y="167.0264" style="stroke: #000000; stroke-width: 0.8"/>
      </g>
     </g>
     <g id="text_2">
      <!-- 0 -->
      <g transform="translate(143.661875 181.624837) scale(0.1 -0.1)">
       <defs>
        <path id="DejaVuSans-30" d="M 2034 4250 
Q 1547 4250 1301 3770 
Q 1056 3291 1056 2328 
Q 1056 1369 1301 889 
Q 1547 409 2034 409 
Q 2525 409 2770 889 
Q 3016 1369 3016 2328 
Q 3016 3291 2770 3770 
Q 2525 4250 2034 4250 
z
M 2034 4750 
Q 2819 4750 3233 4129 
Q 3647 3509 3647 2328 
Q 3647 1150 3233 529 
Q 2819 -91 2034 -91 
Q 1250 -91 836 529 
Q 422 1150 422 2328 
Q 422 3509 836 4129 
Q 1250 4750 2034 4750 
z
" transform="scale(0.015625)"/>
       </defs>
       <use xlink:href="#DejaVuSans-30"/>
      </g>
     </g>
    </g>
    <g id="xtick_3">
     <g id="line2d_5">
      <path d="M 213.17267 167.0264 
L 213.17267 21.56 
" clip-path="url(#p3c217b4674)" style="fill: none; stroke: #b0b0b0; stroke-opacity: 0.22; stroke-width: 0.8; stroke-linecap: square"/>
     </g>
     <g id="line2d_6">
      <g>
       <use xlink:href="#m977133f96b" x="213.17267" y="167.0264" style="stroke: #000000; stroke-width: 0.8"/>
      </g>
     </g>
     <g id="text_3">
      <!-- 2 -->
      <g transform="translate(209.99142 181.624837) scale(0.1 -0.1)">
       <use xlink:href="#DejaVuSans-32"/>
      </g>
     </g>
    </g>
    <g id="text_4">
     <!-- $\nu/\sqrt{\sigma}$ -->
     <g transform="translate(134.743125 195.424837) scale(0.1 -0.1)">
      <defs>
       <path id="DejaVuSans-Oblique-3bd" d="M 959 0 
L 572 3500 
L 1191 3500 
L 1522 563 
Q 1972 950 2391 1488 
Q 2706 1891 2788 2241 
Q 2825 2406 2809 2719 
Q 2794 3091 2544 3500 
L 3125 3500 
L 3125 3500 
Q 3288 3222 3353 2834 
Q 3416 2478 3369 2234 
Q 3250 1622 2719 1075 
Q 2025 363 1572 0 
L 959 0 
z
" transform="scale(0.015625)"/>
       <path id="DejaVuSans-2f" d="M 1625 4666 
L 2156 4666 
L 531 -594 
L 0 -594 
L 1625 4666 
z
" transform="scale(0.015625)"/>
       <path id="DejaVuSans-221a" d="M 3488 5191 
L 4078 5191 
L 4078 4891 
L 3719 4891 
L 1863 -128 
L 1656 -128 
L 659 2631 
L 269 2491 
L 191 2741 
L 1075 3047 
L 1875 831 
L 3488 5191 
z
" transform="scale(0.015625)"/>
       <path id="DejaVuSans-Oblique-3c3" d="M 2219 3044 
Q 1744 3044 1422 2700 
Q 1081 2341 969 1747 
Q 844 1119 1044 756 
Q 1241 397 1706 397 
Q 2166 397 2503 759 
Q 2844 1122 2966 1747 
Q 3075 2319 2881 2700 
Q 2700 3044 2219 3044 
z
M 2309 3503 
L 4219 3500 
L 4106 2925 
L 3463 2925 
Q 3706 2438 3575 1747 
Q 3406 888 2884 400 
Q 2359 -91 1609 -91 
Q 856 -91 525 400 
Q 194 888 363 1747 
Q 528 2609 1050 3097 
Q 1484 3503 2309 3503 
z
" transform="scale(0.015625)"/>
      </defs>
      <use xlink:href="#DejaVuSans-Oblique-3bd" transform="translate(0 0.890625)"/>
      <use xlink:href="#DejaVuSans-2f" transform="translate(55.859375 0.890625)"/>
      <use xlink:href="#DejaVuSans-221a" transform="translate(89.550781 0.890625)"/>
      <use xlink:href="#DejaVuSans-Oblique-3c3" transform="translate(165.771484 1.015625)"/>
      <path d="M 153.271484 75.5 
L 153.271484 81.75 
L 241.650391 81.75 
L 241.650391 75.5 
L 153.271484 75.5 
z
"/>
     </g>
    </g>
   </g>
   <g id="matplotlib.axis_2">
    <g id="ytick_1">
     <g id="line2d_7">
      <path d="M 30.103125 160.505285 
L 263.583125 160.505285 
" clip-path="url(#p3c217b4674)" style="fill: none; stroke: #b0b0b0; stroke-opacity: 0.22; stroke-width: 0.8; stroke-linecap: square"/>
     </g>
     <g id="line2d_8">
      <defs>
       <path id="m4d9c047b04" d="M 0 0 
L -3.5 0 
" style="stroke: #000000; stroke-width: 0.8"/>
      </defs>
      <g>
       <use xlink:href="#m4d9c047b04" x="30.103125" y="160.505285" style="stroke: #000000; stroke-width: 0.8"/>
      </g>
     </g>
     <g id="text_5">
      <!-- 0.0 -->
      <g transform="translate(7.2 164.304503) scale(0.1 -0.1)">
       <defs>
        <path id="DejaVuSans-2e" d="M 684 794 
L 1344 794 
L 1344 0 
L 684 0 
L 684 794 
z
" transform="scale(0.015625)"/>
       </defs>
       <use xlink:href="#DejaVuSans-30"/>
       <use xlink:href="#DejaVuSans-2e" x="63.623047"/>
       <use xlink:href="#DejaVuSans-30" x="95.410156"/>
      </g>
     </g>
    </g>
    <g id="ytick_2">
     <g id="line2d_9">
      <path d="M 30.103125 134.020451 
L 263.583125 134.020451 
" clip-path="url(#p3c217b4674)" style="fill: none; stroke: #b0b0b0; stroke-opacity: 0.22; stroke-width: 0.8; stroke-linecap: square"/>
     </g>
     <g id="line2d_10">
      <g>
       <use xlink:href="#m4d9c047b04" x="30.103125" y="134.020451" style="stroke: #000000; stroke-width: 0.8"/>
      </g>
     </g>
     <g id="text_6">
      <!-- 0.2 -->
      <g transform="translate(7.2 137.819669) scale(0.1 -0.1)">
       <use xlink:href="#DejaVuSans-30"/>
       <use xlink:href="#DejaVuSans-2e" x="63.623047"/>
       <use xlink:href="#DejaVuSans-32" x="95.410156"/>
      </g>
     </g>
    </g>
    <g id="ytick_3">
     <g id="line2d_11">
      <path d="M 30.103125 107.535617 
L 263.583125 107.535617 
" clip-path="url(#p3c217b4674)" style="fill: none; stroke: #b0b0b0; stroke-opacity: 0.22; stroke-width: 0.8; stroke-linecap: square"/>
     </g>
     <g id="line2d_12">
      <g>
       <use xlink:href="#m4d9c047b04" x="30.103125" y="107.535617" style="stroke: #000000; stroke-width: 0.8"/>
      </g>
     </g>
     <g id="text_7">
      <!-- 0.4 -->
      <g transform="translate(7.2 111.334836) scale(0.1 -0.1)">
       <defs>
        <path id="DejaVuSans-34" d="M 2419 4116 
L 825 1625 
L 2419 1625 
L 2419 4116 
z
M 2253 4666 
L 3047 4666 
L 3047 1625 
L 3713 1625 
L 3713 1100 
L 3047 1100 
L 3047 0 
L 2419 0 
L 2419 1100 
L 313 1100 
L 313 1709 
L 2253 4666 
z
" transform="scale(0.015625)"/>
       </defs>
       <use xlink:href="#DejaVuSans-30"/>
       <use xlink:href="#DejaVuSans-2e" x="63.623047"/>
       <use xlink:href="#DejaVuSans-34" x="95.410156"/>
      </g>
     </g>
    </g>
    <g id="ytick_4">
     <g id="line2d_13">
      <path d="M 30.103125 81.050783 
L 263.583125 81.050783 
" clip-path="url(#p3c217b4674)" style="fill: none; stroke: #b0b0b0; stroke-opacity: 0.22; stroke-width: 0.8; stroke-linecap: square"/>
     </g>
     <g id="line2d_14">
      <g>
       <use xlink:href="#m4d9c047b04" x="30.103125" y="81.050783" style="stroke: #000000; stroke-width: 0.8"/>
      </g>
     </g>
     <g id="text_8">
      <!-- 0.6 -->
      <g transform="translate(7.2 84.850002) scale(0.1 -0.1)">
       <defs>
        <path id="DejaVuSans-36" d="M 2113 2584 
Q 1688 2584 1439 2293 
Q 1191 2003 1191 1497 
Q 1191 994 1439 701 
Q 1688 409 2113 409 
Q 2538 409 2786 701 
Q 3034 994 3034 1497 
Q 3034 2003 2786 2293 
Q 2538 2584 2113 2584 
z
M 3366 4563 
L 3366 3988 
Q 3128 4100 2886 4159 
Q 2644 4219 2406 4219 
Q 1781 4219 1451 3797 
Q 1122 3375 1075 2522 
Q 1259 2794 1537 2939 
Q 1816 3084 2150 3084 
Q 2853 3084 3261 2657 
Q 3669 2231 3669 1497 
Q 3669 778 3244 343 
Q 2819 -91 2113 -91 
Q 1303 -91 875 529 
Q 447 1150 447 2328 
Q 447 3434 972 4092 
Q 1497 4750 2381 4750 
Q 2619 4750 2861 4703 
Q 3103 4656 3366 4563 
z
" transform="scale(0.015625)"/>
       </defs>
       <use xlink:href="#DejaVuSans-30"/>
       <use xlink:href="#DejaVuSans-2e" x="63.623047"/>
       <use xlink:href="#DejaVuSans-36" x="95.410156"/>
      </g>
     </g>
    </g>
    <g id="ytick_5">
     <g id="line2d_15">
      <path d="M 30.103125 54.565949 
L 263.583125 54.565949 
" clip-path="url(#p3c217b4674)" style="fill: none; stroke: #b0b0b0; stroke-opacity: 0.22; stroke-width: 0.8; stroke-linecap: square"/>
     </g>
     <g id="line2d_16">
      <g>
       <use xlink:href="#m4d9c047b04" x="30.103125" y="54.565949" style="stroke: #000000; stroke-width: 0.8"/>
      </g>
     </g>
     <g id="text_9">
      <!-- 0.8 -->
      <g transform="translate(7.2 58.365168) scale(0.1 -0.1)">
       <defs>
        <path id="DejaVuSans-38" d="M 2034 2216 
Q 1584 2216 1326 1975 
Q 1069 1734 1069 1313 
Q 1069 891 1326 650 
Q 1584 409 2034 409 
Q 2484 409 2743 651 
Q 3003 894 3003 1313 
Q 3003 1734 2745 1975 
Q 2488 2216 2034 2216 
z
M 1403 2484 
Q 997 2584 770 2862 
Q 544 3141 544 3541 
Q 544 4100 942 4425 
Q 1341 4750 2034 4750 
Q 2731 4750 3128 4425 
Q 3525 4100 3525 3541 
Q 3525 3141 3298 2862 
Q 3072 2584 2669 2484 
Q 3125 2378 3379 2068 
Q 3634 1759 3634 1313 
Q 3634 634 3220 271 
Q 2806 -91 2034 -91 
Q 1263 -91 848 271 
Q 434 634 434 1313 
Q 434 1759 690 2068 
Q 947 2378 1403 2484 
z
M 1172 3481 
Q 1172 3119 1398 2916 
Q 1625 2713 2034 2713 
Q 2441 2713 2670 2916 
Q 2900 3119 2900 3481 
Q 2900 3844 2670 4047 
Q 2441 4250 2034 4250 
Q 1625 4250 1398 4047 
Q 1172 3844 1172 3481 
z
" transform="scale(0.015625)"/>
       </defs>
       <use xlink:href="#DejaVuSans-30"/>
       <use xlink:href="#DejaVuSans-2e" x="63.623047"/>
       <use xlink:href="#DejaVuSans-38" x="95.410156"/>
      </g>
     </g>
    </g>
    <g id="ytick_6">
     <g id="line2d_17">
      <path d="M 30.103125 28.081115 
L 263.583125 28.081115 
" clip-path="url(#p3c217b4674)" style="fill: none; stroke: #b0b0b0; stroke-opacity: 0.22; stroke-width: 0.8; stroke-linecap: square"/>
     </g>
     <g id="line2d_18">
      <g>
       <use xlink:href="#m4d9c047b04" x="30.103125" y="28.081115" style="stroke: #000000; stroke-width: 0.8"/>
      </g>
     </g>
     <g id="text_10">
      <!-- 1.0 -->
      <g transform="translate(7.2 31.880334) scale(0.1 -0.1)">
       <defs>
        <path id="DejaVuSans-31" d="M 794 531 
L 1825 531 
L 1825 4091 
L 703 3866 
L 703 4441 
L 1819 4666 
L 2450 4666 
L 2450 531 
L 3481 531 
L 3481 0 
L 794 0 
L 794 531 
z
" transform="scale(0.015625)"/>
       </defs>
       <use xlink:href="#DejaVuSans-31"/>
       <use xlink:href="#DejaVuSans-2e" x="63.623047"/>
       <use xlink:href="#DejaVuSans-30" x="95.410156"/>
      </g>
     </g>
    </g>
   </g>
   <g id="line2d_19">
    <path d="M 40.715852 28.172109 
L 53.483043 28.404042 
L 61.994503 28.777377 
L 68.378099 29.271978 
L 73.697762 29.896522 
L 78.485458 30.682486 
L 82.741188 31.607365 
L 86.464952 32.628236 
L 90.188716 33.880376 
L 93.380514 35.162855 
L 96.572312 36.660387 
L 99.764109 38.392923 
L 102.955907 40.378877 
L 106.147705 42.634343 
L 109.339502 45.172301 
L 112.5313 48.001821 
L 115.723098 51.127337 
L 118.914895 54.548008 
L 122.638659 58.902671 
L 126.362423 63.628799 
L 130.618153 69.442731 
L 134.873884 75.632815 
L 140.193547 83.771343 
L 149.76894 98.947818 
L 157.216467 110.551821 
L 162.004164 117.628433 
L 166.259894 123.543316 
L 169.983658 128.370105 
L 173.707422 132.833548 
L 176.89922 136.35143 
L 180.091017 139.575701 
L 183.282815 142.503643 
L 186.474613 145.137994 
L 189.66641 147.48636 
L 192.858208 149.5605 
L 196.050006 151.375561 
L 199.241804 152.949271 
L 202.433601 154.301153 
L 206.157365 155.625453 
L 209.881129 156.709047 
L 214.136859 157.694523 
L 218.39259 158.454364 
L 223.180286 159.091721 
L 229.031915 159.630962 
L 235.947477 160.027511 
L 244.990904 160.301192 
L 252.970398 160.414291 
L 252.970398 160.414291 
" clip-path="url(#p3c217b4674)" style="fill: none; stroke: #3a6ea5; stroke-width: 2.2; stroke-linecap: square"/>
   </g>
   <g id="line2d_20">
    <path d="M 30.103125 160.505285 
L 263.583125 160.505285 
" clip-path="url(#p3c217b4674)" style="fill: none; stroke: #cccccc; stroke-width: 0.7; stroke-linecap: square"/>
   </g>
   <g id="patch_3">
    <path d="M 30.103125 167.0264 
L 30.103125 21.56 
" style="fill: none; stroke: #000000; stroke-width: 0.8; stroke-linejoin: miter; stroke-linecap: square"/>
   </g>
   <g id="patch_4">
    <path d="M 263.583125 167.0264 
L 263.583125 21.56 
" style="fill: none; stroke: #000000; stroke-width: 0.8; stroke-linejoin: miter; stroke-linecap: square"/>
   </g>
   <g id="patch_5">
    <path d="M 30.103125 167.0264 
L 263.583125 167.0264 
" style="fill: none; stroke: #000000; stroke-width: 0.8; stroke-linejoin: miter; stroke-linecap: square"/>
   </g>
   <g id="patch_6">
    <path d="M 30.103125 21.56 
L 263.583125 21.56 
" style="fill: none; stroke: #000000; stroke-width: 0.8; stroke-linejoin: miter; stroke-linecap: square"/>
   </g>
   <g id="text_11">
    <!-- fraction of sky above threshold -->
    <g style="fill: #777777" transform="translate(83.020859 216.484976) scale(0.082 -0.082)">
     <defs>
      <path id="DejaVuSans-Oblique-66" d="M 3059 4863 
L 2969 4384 
L 2419 4384 
Q 2106 4384 1964 4261 
Q 1822 4138 1753 3809 
L 1691 3500 
L 2638 3500 
L 2553 3053 
L 1606 3053 
L 1013 0 
L 434 0 
L 1031 3053 
L 481 3053 
L 563 3500 
L 1113 3500 
L 1159 3744 
Q 1278 4363 1576 4613 
Q 1875 4863 2516 4863 
L 3059 4863 
z
" transform="scale(0.015625)"/>
      <path id="DejaVuSans-Oblique-72" d="M 2853 2969 
Q 2766 3016 2653 3041 
Q 2541 3066 2413 3066 
Q 1953 3066 1609 2717 
Q 1266 2369 1153 1784 
L 800 0 
L 225 0 
L 909 3500 
L 1484 3500 
L 1375 2956 
Q 1603 3259 1920 3421 
Q 2238 3584 2597 3584 
Q 2691 3584 2781 3573 
Q 2872 3563 2963 3538 
L 2853 2969 
z
" transform="scale(0.015625)"/>
      <path id="DejaVuSans-Oblique-61" d="M 3438 1997 
L 3047 0 
L 2472 0 
L 2578 531 
Q 2325 219 2001 64 
Q 1678 -91 1281 -91 
Q 834 -91 548 182 
Q 263 456 263 884 
Q 263 1497 752 1853 
Q 1241 2209 2100 2209 
L 2900 2209 
L 2931 2363 
Q 2938 2388 2941 2417 
Q 2944 2447 2944 2509 
Q 2944 2788 2717 2942 
Q 2491 3097 2081 3097 
Q 1800 3097 1504 3025 
Q 1209 2953 897 2809 
L 997 3341 
Q 1322 3463 1633 3523 
Q 1944 3584 2234 3584 
Q 2853 3584 3176 3315 
Q 3500 3047 3500 2534 
Q 3500 2431 3484 2292 
Q 3469 2153 3438 1997 
z
M 2816 1759 
L 2241 1759 
Q 1534 1759 1195 1570 
Q 856 1381 856 984 
Q 856 709 1029 553 
Q 1203 397 1509 397 
Q 1978 397 2328 733 
Q 2678 1069 2791 1631 
L 2816 1759 
z
" transform="scale(0.015625)"/>
      <path id="DejaVuSans-Oblique-63" d="M 3431 3366 
L 3316 2797 
Q 3109 2947 2876 3022 
Q 2644 3097 2394 3097 
Q 2119 3097 1870 3000 
Q 1622 2903 1453 2725 
Q 1184 2453 1037 2087 
Q 891 1722 891 1331 
Q 891 859 1127 628 
Q 1363 397 1844 397 
Q 2081 397 2348 469 
Q 2616 541 2906 684 
L 2797 116 
Q 2547 13 2283 -39 
Q 2019 -91 1741 -91 
Q 1044 -91 669 257 
Q 294 606 294 1253 
Q 294 1797 489 2255 
Q 684 2713 1069 3078 
Q 1331 3328 1684 3456 
Q 2038 3584 2456 3584 
Q 2700 3584 2940 3529 
Q 3181 3475 3431 3366 
z
" transform="scale(0.015625)"/>
      <path id="DejaVuSans-Oblique-74" d="M 2706 3500 
L 2619 3053 
L 1472 3053 
L 1100 1153 
Q 1081 1047 1072 975 
Q 1063 903 1063 863 
Q 1063 663 1183 572 
Q 1303 481 1569 481 
L 2150 481 
L 2053 0 
L 1503 0 
Q 991 0 739 200 
Q 488 400 488 806 
Q 488 878 497 964 
Q 506 1050 525 1153 
L 897 3053 
L 409 3053 
L 500 3500 
L 978 3500 
L 1172 4494 
L 1747 4494 
L 1556 3500 
L 2706 3500 
z
" transform="scale(0.015625)"/>
      <path id="DejaVuSans-Oblique-69" d="M 1172 4863 
L 1747 4863 
L 1606 4134 
L 1031 4134 
L 1172 4863 
z
M 909 3500 
L 1484 3500 
L 800 0 
L 225 0 
L 909 3500 
z
" transform="scale(0.015625)"/>
      <path id="DejaVuSans-Oblique-6f" d="M 1625 -91 
Q 1009 -91 651 289 
Q 294 669 294 1325 
Q 294 1706 417 2101 
Q 541 2497 738 2766 
Q 1047 3184 1428 3384 
Q 1809 3584 2291 3584 
Q 2888 3584 3255 3212 
Q 3622 2841 3622 2241 
Q 3622 1825 3500 1412 
Q 3378 1000 3181 728 
Q 2875 309 2494 109 
Q 2113 -91 1625 -91 
z
M 891 1344 
Q 891 869 1089 633 
Q 1288 397 1691 397 
Q 2269 397 2648 901 
Q 3028 1406 3028 2181 
Q 3028 2634 2825 2865 
Q 2622 3097 2228 3097 
Q 1903 3097 1650 2945 
Q 1397 2794 1197 2484 
Q 1050 2253 970 1956 
Q 891 1659 891 1344 
z
" transform="scale(0.015625)"/>
      <path id="DejaVuSans-Oblique-6e" d="M 3566 2113 
L 3156 0 
L 2578 0 
L 2988 2091 
Q 3016 2238 3031 2350 
Q 3047 2463 3047 2528 
Q 3047 2791 2881 2937 
Q 2716 3084 2419 3084 
Q 1956 3084 1622 2776 
Q 1288 2469 1184 1941 
L 800 0 
L 225 0 
L 903 3500 
L 1478 3500 
L 1363 2950 
Q 1603 3253 1940 3418 
Q 2278 3584 2650 3584 
Q 3113 3584 3367 3334 
Q 3622 3084 3622 2631 
Q 3622 2519 3608 2391 
Q 3594 2263 3566 2113 
z
" transform="scale(0.015625)"/>
      <path id="DejaVuSans-Oblique-20" transform="scale(0.015625)"/>
      <path id="DejaVuSans-Oblique-73" d="M 3200 3397 
L 3091 2853 
Q 2863 2978 2609 3040 
Q 2356 3103 2088 3103 
Q 1634 3103 1373 2948 
Q 1113 2794 1113 2528 
Q 1113 2219 1719 2053 
Q 1766 2041 1788 2034 
L 1972 1978 
Q 2547 1819 2739 1644 
Q 2931 1469 2931 1166 
Q 2931 609 2489 259 
Q 2047 -91 1331 -91 
Q 1053 -91 747 -37 
Q 441 16 72 128 
L 184 722 
Q 500 559 806 475 
Q 1113 391 1394 391 
Q 1816 391 2080 572 
Q 2344 753 2344 1031 
Q 2344 1331 1650 1516 
L 1591 1531 
L 1394 1581 
Q 956 1697 753 1886 
Q 550 2075 550 2369 
Q 550 2928 970 3256 
Q 1391 3584 2113 3584 
Q 2397 3584 2667 3537 
Q 2938 3491 3200 3397 
z
" transform="scale(0.015625)"/>
      <path id="DejaVuSans-Oblique-6b" d="M 1172 4863 
L 1747 4863 
L 1197 2028 
L 3169 3500 
L 3916 3500 
L 1716 1825 
L 3322 0 
L 2625 0 
L 1131 1709 
L 800 0 
L 225 0 
L 1172 4863 
z
" transform="scale(0.015625)"/>
      <path id="DejaVuSans-Oblique-79" d="M 1588 -325 
Q 1188 -997 936 -1164 
Q 684 -1331 294 -1331 
L -159 -1331 
L -63 -850 
L 269 -850 
Q 509 -850 678 -719 
Q 847 -588 1056 -206 
L 1234 128 
L 459 3500 
L 1069 3500 
L 1650 819 
L 3256 3500 
L 3859 3500 
L 1588 -325 
z
" transform="scale(0.015625)"/>
      <path id="DejaVuSans-Oblique-62" d="M 3169 2138 
Q 3169 2591 2961 2847 
Q 2753 3103 2388 3103 
Q 2122 3103 1889 2973 
Q 1656 2844 1484 2597 
Q 1303 2338 1198 1995 
Q 1094 1653 1094 1313 
Q 1094 881 1298 636 
Q 1503 391 1863 391 
Q 2134 391 2365 517 
Q 2597 644 2772 891 
Q 2950 1147 3059 1487 
Q 3169 1828 3169 2138 
z
M 1381 2969 
Q 1594 3256 1914 3420 
Q 2234 3584 2584 3584 
Q 3122 3584 3439 3221 
Q 3756 2859 3756 2241 
Q 3756 1734 3570 1259 
Q 3384 784 3041 416 
Q 2816 172 2522 40 
Q 2228 -91 1906 -91 
Q 1566 -91 1316 65 
Q 1066 222 909 531 
L 806 0 
L 231 0 
L 1178 4863 
L 1753 4863 
L 1381 2969 
z
" transform="scale(0.015625)"/>
      <path id="DejaVuSans-Oblique-76" d="M 459 3500 
L 1069 3500 
L 1581 525 
L 3256 3500 
L 3866 3500 
L 1875 0 
L 1100 0 
L 459 3500 
z
" transform="scale(0.015625)"/>
      <path id="DejaVuSans-Oblique-65" d="M 3078 2063 
Q 3088 2113 3092 2166 
Q 3097 2219 3097 2272 
Q 3097 2653 2873 2875 
Q 2650 3097 2266 3097 
Q 1838 3097 1509 2826 
Q 1181 2556 1013 2059 
L 3078 2063 
z
M 3578 1613 
L 903 1613 
Q 884 1494 878 1425 
Q 872 1356 872 1306 
Q 872 872 1139 634 
Q 1406 397 1894 397 
Q 2269 397 2603 481 
Q 2938 566 3225 728 
L 3116 159 
Q 2806 34 2476 -28 
Q 2147 -91 1806 -91 
Q 1078 -91 686 257 
Q 294 606 294 1247 
Q 294 1794 489 2264 
Q 684 2734 1063 3103 
Q 1306 3334 1642 3459 
Q 1978 3584 2356 3584 
Q 2950 3584 3301 3228 
Q 3653 2872 3653 2272 
Q 3653 2128 3634 1964 
Q 3616 1800 3578 1613 
z
" transform="scale(0.015625)"/>
      <path id="DejaVuSans-Oblique-68" d="M 3566 2113 
L 3156 0 
L 2578 0 
L 2988 2091 
Q 3016 2238 3031 2350 
Q 3047 2463 3047 2528 
Q 3047 2791 2881 2937 
Q 2716 3084 2419 3084 
Q 1956 3084 1617 2771 
Q 1278 2459 1178 1941 
L 800 0 
L 225 0 
L 1172 4863 
L 1747 4863 
L 1375 2950 
Q 1594 3244 1934 3414 
Q 2275 3584 2650 3584 
Q 3113 3584 3367 3334 
Q 3622 3084 3622 2631 
Q 3622 2519 3608 2391 
Q 3594 2263 3566 2113 
z
" transform="scale(0.015625)"/>
      <path id="DejaVuSans-Oblique-6c" d="M 1172 4863 
L 1747 4863 
L 800 0 
L 225 0 
L 1172 4863 
z
" transform="scale(0.015625)"/>
      <path id="DejaVuSans-Oblique-64" d="M 2675 525 
Q 2444 222 2128 65 
Q 1813 -91 1428 -91 
Q 903 -91 598 267 
Q 294 625 294 1247 
Q 294 1766 478 2236 
Q 663 2706 1013 3078 
Q 1244 3325 1534 3454 
Q 1825 3584 2144 3584 
Q 2481 3584 2739 3421 
Q 2997 3259 3138 2956 
L 3513 4863 
L 4091 4863 
L 3144 0 
L 2566 0 
L 2675 525 
z
M 891 1350 
Q 891 897 1095 644 
Q 1300 391 1663 391 
Q 1931 391 2161 520 
Q 2391 650 2566 903 
Q 2750 1166 2856 1509 
Q 2963 1853 2963 2188 
Q 2963 2622 2758 2865 
Q 2553 3109 2194 3109 
Q 1922 3109 1687 2981 
Q 1453 2853 1288 2613 
Q 1106 2353 998 2009 
Q 891 1666 891 1350 
z
" transform="scale(0.015625)"/>
     </defs>
     <use xlink:href="#DejaVuSans-Oblique-66"/>
     <use xlink:href="#DejaVuSans-Oblique-72" x="35.205078"/>
     <use xlink:href="#DejaVuSans-Oblique-61" x="76.318359"/>
     <use xlink:href="#DejaVuSans-Oblique-63" x="137.597656"/>
     <use xlink:href="#DejaVuSans-Oblique-74" x="192.578125"/>
     <use xlink:href="#DejaVuSans-Oblique-69" x="231.787109"/>
     <use xlink:href="#DejaVuSans-Oblique-6f" x="259.570312"/>
     <use xlink:href="#DejaVuSans-Oblique-6e" x="320.751953"/>
     <use xlink:href="#DejaVuSans-Oblique-20" x="384.130859"/>
     <use xlink:href="#DejaVuSans-Oblique-6f" x="415.917969"/>
     <use xlink:href="#DejaVuSans-Oblique-66" x="477.099609"/>
     <use xlink:href="#DejaVuSans-Oblique-20" x="512.304688"/>
     <use xlink:href="#DejaVuSans-Oblique-73" x="544.091797"/>
     <use xlink:href="#DejaVuSans-Oblique-6b" x="596.191406"/>
     <use xlink:href="#DejaVuSans-Oblique-79" x="654.101562"/>
     <use xlink:href="#DejaVuSans-Oblique-20" x="713.28125"/>
     <use xlink:href="#DejaVuSans-Oblique-61" x="745.068359"/>
     <use xlink:href="#DejaVuSans-Oblique-62" x="806.347656"/>
     <use xlink:href="#DejaVuSans-Oblique-6f" x="869.824219"/>
     <use xlink:href="#DejaVuSans-Oblique-76" x="931.005859"/>
     <use xlink:href="#DejaVuSans-Oblique-65" x="990.185547"/>
     <use xlink:href="#DejaVuSans-Oblique-20" x="1051.708984"/>
     <use xlink:href="#DejaVuSans-Oblique-74" x="1083.496094"/>
     <use xlink:href="#DejaVuSans-Oblique-68" x="1122.705078"/>
     <use xlink:href="#DejaVuSans-Oblique-72" x="1186.083984"/>
     <use xlink:href="#DejaVuSans-Oblique-65" x="1227.197266"/>
     <use xlink:href="#DejaVuSans-Oblique-73" x="1288.720703"/>
     <use xlink:href="#DejaVuSans-Oblique-68" x="1340.820312"/>
     <use xlink:href="#DejaVuSans-Oblique-6f" x="1404.199219"/>
     <use xlink:href="#DejaVuSans-Oblique-6c" x="1465.380859"/>
     <use xlink:href="#DejaVuSans-Oblique-64" x="1493.164062"/>
    </g>
   </g>
   <g id="text_12">
    <!-- Area  $v_0(\nu)$ -->
    <g transform="translate(117.308125 15.56) scale(0.11 -0.11)">
     <defs>
      <path id="DejaVuSans-41" d="M 2188 4044 
L 1331 1722 
L 3047 1722 
L 2188 4044 
z
M 1831 4666 
L 2547 4666 
L 4325 0 
L 3669 0 
L 3244 1197 
L 1141 1197 
L 716 0 
L 50 0 
L 1831 4666 
z
" transform="scale(0.015625)"/>
      <path id="DejaVuSans-72" d="M 2631 2963 
Q 2534 3019 2420 3045 
Q 2306 3072 2169 3072 
Q 1681 3072 1420 2755 
Q 1159 2438 1159 1844 
L 1159 0 
L 581 0 
L 581 3500 
L 1159 3500 
L 1159 2956 
Q 1341 3275 1631 3429 
Q 1922 3584 2338 3584 
Q 2397 3584 2469 3576 
Q 2541 3569 2628 3553 
L 2631 2963 
z
" transform="scale(0.015625)"/>
      <path id="DejaVuSans-65" d="M 3597 1894 
L 3597 1613 
L 953 1613 
Q 991 1019 1311 708 
Q 1631 397 2203 397 
Q 2534 397 2845 478 
Q 3156 559 3463 722 
L 3463 178 
Q 3153 47 2828 -22 
Q 2503 -91 2169 -91 
Q 1331 -91 842 396 
Q 353 884 353 1716 
Q 353 2575 817 3079 
Q 1281 3584 2069 3584 
Q 2775 3584 3186 3129 
Q 3597 2675 3597 1894 
z
M 3022 2063 
Q 3016 2534 2758 2815 
Q 2500 3097 2075 3097 
Q 1594 3097 1305 2825 
Q 1016 2553 972 2059 
L 3022 2063 
z
" transform="scale(0.015625)"/>
      <path id="DejaVuSans-61" d="M 2194 1759 
Q 1497 1759 1228 1600 
Q 959 1441 959 1056 
Q 959 750 1161 570 
Q 1363 391 1709 391 
Q 2188 391 2477 730 
Q 2766 1069 2766 1631 
L 2766 1759 
L 2194 1759 
z
M 3341 1997 
L 3341 0 
L 2766 0 
L 2766 531 
Q 2569 213 2275 61 
Q 1981 -91 1556 -91 
Q 1019 -91 701 211 
Q 384 513 384 1019 
Q 384 1609 779 1909 
Q 1175 2209 1959 2209 
L 2766 2209 
L 2766 2266 
Q 2766 2663 2505 2880 
Q 2244 3097 1772 3097 
Q 1472 3097 1187 3025 
Q 903 2953 641 2809 
L 641 3341 
Q 956 3463 1253 3523 
Q 1550 3584 1831 3584 
Q 2591 3584 2966 3190 
Q 3341 2797 3341 1997 
z
" transform="scale(0.015625)"/>
      <path id="DejaVuSans-20" transform="scale(0.015625)"/>
      <path id="DejaVuSans-28" d="M 1984 4856 
Q 1566 4138 1362 3434 
Q 1159 2731 1159 2009 
Q 1159 1288 1364 580 
Q 1569 -128 1984 -844 
L 1484 -844 
Q 1016 -109 783 600 
Q 550 1309 550 2009 
Q 550 2706 781 3412 
Q 1013 4119 1484 4856 
L 1984 4856 
z
" transform="scale(0.015625)"/>
      <path id="DejaVuSans-29" d="M 513 4856 
L 1013 4856 
Q 1481 4119 1714 3412 
Q 1947 2706 1947 2009 
Q 1947 1309 1714 600 
Q 1481 -109 1013 -844 
L 513 -844 
Q 928 -128 1133 580 
Q 1338 1288 1338 2009 
Q 1338 2731 1133 3434 
Q 928 4138 513 4856 
z
" transform="scale(0.015625)"/>
     </defs>
     <use xlink:href="#DejaVuSans-41" transform="translate(0 0.125)"/>
     <use xlink:href="#DejaVuSans-72" transform="translate(68.408203 0.125)"/>
     <use xlink:href="#DejaVuSans-65" transform="translate(109.521484 0.125)"/>
     <use xlink:href="#DejaVuSans-61" transform="translate(171.044922 0.125)"/>
     <use xlink:href="#DejaVuSans-20" transform="translate(232.324219 0.125)"/>
     <use xlink:href="#DejaVuSans-20" transform="translate(264.111328 0.125)"/>
     <use xlink:href="#DejaVuSans-Oblique-76" transform="translate(295.898438 0.125)"/>
     <use xlink:href="#DejaVuSans-30" transform="translate(355.078125 -16.28125) scale(0.7)"/>
     <use xlink:href="#DejaVuSans-28" transform="translate(402.348633 0.125)"/>
     <use xlink:href="#DejaVuSans-Oblique-3bd" transform="translate(441.362305 0.125)"/>
     <use xlink:href="#DejaVuSans-29" transform="translate(497.22168 0.125)"/>
    </g>
   </g>
   <g id="line2d_21">
    <defs>
     <path id="m737e5021f9" d="M 0 2.1 
C 0.556927 2.1 1.091118 1.878731 1.484924 1.484924 
C 1.878731 1.091118 2.1 0.556927 2.1 0 
C 2.1 -0.556927 1.878731 -1.091118 1.484924 -1.484924 
C 1.091118 -1.878731 0.556927 -2.1 0 -2.1 
C -0.556927 -2.1 -1.091118 -1.878731 -1.484924 -1.484924 
C -1.878731 -1.091118 -2.1 -0.556927 -2.1 0 
C -2.1 0.556927 -1.878731 1.091118 -1.484924 1.484924 
C -1.091118 1.878731 -0.556927 2.1 0 2.1 
z
" style="stroke: #e6953c"/>
    </defs>
    <g clip-path="url(#p3c217b4674)">
     <use xlink:href="#m737e5021f9" x="40.715852" y="28.177459" style="fill: #e6953c; stroke: #e6953c"/>
     <use xlink:href="#m737e5021f9" x="47.348807" y="28.262073" style="fill: #e6953c; stroke: #e6953c"/>
     <use xlink:href="#m737e5021f9" x="53.981761" y="28.419271" style="fill: #e6953c; stroke: #e6953c"/>
     <use xlink:href="#m737e5021f9" x="60.614716" y="28.690983" style="fill: #e6953c; stroke: #e6953c"/>
     <use xlink:href="#m737e5021f9" x="67.24767" y="29.142958" style="fill: #e6953c; stroke: #e6953c"/>
     <use xlink:href="#m737e5021f9" x="73.880625" y="29.90251" style="fill: #e6953c; stroke: #e6953c"/>
     <use xlink:href="#m737e5021f9" x="80.51358" y="31.087722" style="fill: #e6953c; stroke: #e6953c"/>
     <use xlink:href="#m737e5021f9" x="87.146534" y="32.867236" style="fill: #e6953c; stroke: #e6953c"/>
     <use xlink:href="#m737e5021f9" x="93.779489" y="35.355534" style="fill: #e6953c; stroke: #e6953c"/>
     <use xlink:href="#m737e5021f9" x="100.412443" y="38.784216" style="fill: #e6953c; stroke: #e6953c"/>
     <use xlink:href="#m737e5021f9" x="107.045398" y="43.247478" style="fill: #e6953c; stroke: #e6953c"/>
     <use xlink:href="#m737e5021f9" x="113.678352" y="48.986532" style="fill: #e6953c; stroke: #e6953c"/>
     <use xlink:href="#m737e5021f9" x="120.311307" y="56.050726" style="fill: #e6953c; stroke: #e6953c"/>
     <use xlink:href="#m737e5021f9" x="126.944261" y="64.324174" style="fill: #e6953c; stroke: #e6953c"/>
     <use xlink:href="#m737e5021f9" x="133.577216" y="73.693041" style="fill: #e6953c; stroke: #e6953c"/>
     <use xlink:href="#m737e5021f9" x="140.21017" y="83.776866" style="fill: #e6953c; stroke: #e6953c"/>
     <use xlink:href="#m737e5021f9" x="146.843125" y="94.351183" style="fill: #e6953c; stroke: #e6953c"/>
     <use xlink:href="#m737e5021f9" x="153.47608" y="104.922769" style="fill: #e6953c; stroke: #e6953c"/>
     <use xlink:href="#m737e5021f9" x="160.109034" y="115.019253" style="fill: #e6953c; stroke: #e6953c"/>
     <use xlink:href="#m737e5021f9" x="166.741989" y="124.257443" style="fill: #e6953c; stroke: #e6953c"/>
     <use xlink:href="#m737e5021f9" x="173.374943" y="132.467304" style="fill: #e6953c; stroke: #e6953c"/>
     <use xlink:href="#m737e5021f9" x="180.007898" y="139.539123" style="fill: #e6953c; stroke: #e6953c"/>
     <use xlink:href="#m737e5021f9" x="186.640852" y="145.278272" style="fill: #e6953c; stroke: #e6953c"/>
     <use xlink:href="#m737e5021f9" x="193.273807" y="149.799169" style="fill: #e6953c; stroke: #e6953c"/>
     <use xlink:href="#m737e5021f9" x="199.906761" y="153.230929" style="fill: #e6953c; stroke: #e6953c"/>
     <use xlink:href="#m737e5021f9" x="206.539716" y="155.749489" style="fill: #e6953c; stroke: #e6953c"/>
     <use xlink:href="#m737e5021f9" x="213.17267" y="157.486712" style="fill: #e6953c; stroke: #e6953c"/>
     <use xlink:href="#m737e5021f9" x="219.805625" y="158.637368" style="fill: #e6953c; stroke: #e6953c"/>
     <use xlink:href="#m737e5021f9" x="226.43858" y="159.391616" style="fill: #e6953c; stroke: #e6953c"/>
     <use xlink:href="#m737e5021f9" x="233.071534" y="159.852541" style="fill: #e6953c; stroke: #e6953c"/>
     <use xlink:href="#m737e5021f9" x="239.704489" y="160.142739" style="fill: #e6953c; stroke: #e6953c"/>
     <use xlink:href="#m737e5021f9" x="246.337443" y="160.313845" style="fill: #e6953c; stroke: #e6953c"/>
     <use xlink:href="#m737e5021f9" x="252.970398" y="160.411909" style="fill: #e6953c; stroke: #e6953c"/>
    </g>
   </g>
   <g id="legend_1">
    <g id="patch_7">
     <path d="M 161.061172 53.312813 
L 257.633125 53.312813 
Q 259.333125 53.312813 259.333125 51.612813 
L 259.333125 27.51 
Q 259.333125 25.81 257.633125 25.81 
L 161.061172 25.81 
Q 159.361172 25.81 159.361172 27.51 
L 159.361172 51.612813 
Q 159.361172 53.312813 161.061172 53.312813 
z
" style="fill: #ffffff; opacity: 0.8; stroke: #cccccc; stroke-linejoin: miter"/>
    </g>
    <g id="line2d_22">
     <path d="M 162.761172 32.693672 
L 171.261172 32.693672 
L 179.761172 32.693672 
" style="fill: none; stroke: #3a6ea5; stroke-width: 2.2; stroke-linecap: square"/>
    </g>
    <g id="text_13">
     <!-- Gaussian theory -->
     <g transform="translate(186.561172 35.668672) scale(0.085 -0.085)">
      <defs>
       <path id="DejaVuSans-47" d="M 3809 666 
L 3809 1919 
L 2778 1919 
L 2778 2438 
L 4434 2438 
L 4434 434 
Q 4069 175 3628 42 
Q 3188 -91 2688 -91 
Q 1594 -91 976 548 
Q 359 1188 359 2328 
Q 359 3472 976 4111 
Q 1594 4750 2688 4750 
Q 3144 4750 3555 4637 
Q 3966 4525 4313 4306 
L 4313 3634 
Q 3963 3931 3569 4081 
Q 3175 4231 2741 4231 
Q 1884 4231 1454 3753 
Q 1025 3275 1025 2328 
Q 1025 1384 1454 906 
Q 1884 428 2741 428 
Q 3075 428 3337 486 
Q 3600 544 3809 666 
z
" transform="scale(0.015625)"/>
       <path id="DejaVuSans-75" d="M 544 1381 
L 544 3500 
L 1119 3500 
L 1119 1403 
Q 1119 906 1312 657 
Q 1506 409 1894 409 
Q 2359 409 2629 706 
Q 2900 1003 2900 1516 
L 2900 3500 
L 3475 3500 
L 3475 0 
L 2900 0 
L 2900 538 
Q 2691 219 2414 64 
Q 2138 -91 1772 -91 
Q 1169 -91 856 284 
Q 544 659 544 1381 
z
M 1991 3584 
L 1991 3584 
z
" transform="scale(0.015625)"/>
       <path id="DejaVuSans-73" d="M 2834 3397 
L 2834 2853 
Q 2591 2978 2328 3040 
Q 2066 3103 1784 3103 
Q 1356 3103 1142 2972 
Q 928 2841 928 2578 
Q 928 2378 1081 2264 
Q 1234 2150 1697 2047 
L 1894 2003 
Q 2506 1872 2764 1633 
Q 3022 1394 3022 966 
Q 3022 478 2636 193 
Q 2250 -91 1575 -91 
Q 1294 -91 989 -36 
Q 684 19 347 128 
L 347 722 
Q 666 556 975 473 
Q 1284 391 1588 391 
Q 1994 391 2212 530 
Q 2431 669 2431 922 
Q 2431 1156 2273 1281 
Q 2116 1406 1581 1522 
L 1381 1569 
Q 847 1681 609 1914 
Q 372 2147 372 2553 
Q 372 3047 722 3315 
Q 1072 3584 1716 3584 
Q 2034 3584 2315 3537 
Q 2597 3491 2834 3397 
z
" transform="scale(0.015625)"/>
       <path id="DejaVuSans-69" d="M 603 3500 
L 1178 3500 
L 1178 0 
L 603 0 
L 603 3500 
z
M 603 4863 
L 1178 4863 
L 1178 4134 
L 603 4134 
L 603 4863 
z
" transform="scale(0.015625)"/>
       <path id="DejaVuSans-6e" d="M 3513 2113 
L 3513 0 
L 2938 0 
L 2938 2094 
Q 2938 2591 2744 2837 
Q 2550 3084 2163 3084 
Q 1697 3084 1428 2787 
Q 1159 2491 1159 1978 
L 1159 0 
L 581 0 
L 581 3500 
L 1159 3500 
L 1159 2956 
Q 1366 3272 1645 3428 
Q 1925 3584 2291 3584 
Q 2894 3584 3203 3211 
Q 3513 2838 3513 2113 
z
" transform="scale(0.015625)"/>
       <path id="DejaVuSans-74" d="M 1172 4494 
L 1172 3500 
L 2356 3500 
L 2356 3053 
L 1172 3053 
L 1172 1153 
Q 1172 725 1289 603 
Q 1406 481 1766 481 
L 2356 481 
L 2356 0 
L 1766 0 
Q 1100 0 847 248 
Q 594 497 594 1153 
L 594 3053 
L 172 3053 
L 172 3500 
L 594 3500 
L 594 4494 
L 1172 4494 
z
" transform="scale(0.015625)"/>
       <path id="DejaVuSans-68" d="M 3513 2113 
L 3513 0 
L 2938 0 
L 2938 2094 
Q 2938 2591 2744 2837 
Q 2550 3084 2163 3084 
Q 1697 3084 1428 2787 
Q 1159 2491 1159 1978 
L 1159 0 
L 581 0 
L 581 4863 
L 1159 4863 
L 1159 2956 
Q 1366 3272 1645 3428 
Q 1925 3584 2291 3584 
Q 2894 3584 3203 3211 
Q 3513 2838 3513 2113 
z
" transform="scale(0.015625)"/>
       <path id="DejaVuSans-6f" d="M 1959 3097 
Q 1497 3097 1228 2736 
Q 959 2375 959 1747 
Q 959 1119 1226 758 
Q 1494 397 1959 397 
Q 2419 397 2687 759 
Q 2956 1122 2956 1747 
Q 2956 2369 2687 2733 
Q 2419 3097 1959 3097 
z
M 1959 3584 
Q 2709 3584 3137 3096 
Q 3566 2609 3566 1747 
Q 3566 888 3137 398 
Q 2709 -91 1959 -91 
Q 1206 -91 779 398 
Q 353 888 353 1747 
Q 353 2609 779 3096 
Q 1206 3584 1959 3584 
z
" transform="scale(0.015625)"/>
       <path id="DejaVuSans-79" d="M 2059 -325 
Q 1816 -950 1584 -1140 
Q 1353 -1331 966 -1331 
L 506 -1331 
L 506 -850 
L 844 -850 
Q 1081 -850 1212 -737 
Q 1344 -625 1503 -206 
L 1606 56 
L 191 3500 
L 800 3500 
L 1894 763 
L 2988 3500 
L 3597 3500 
L 2059 -325 
z
" transform="scale(0.015625)"/>
      </defs>
      <use xlink:href="#DejaVuSans-47"/>
      <use xlink:href="#DejaVuSans-61" x="77.490234"/>
      <use xlink:href="#DejaVuSans-75" x="138.769531"/>
      <use xlink:href="#DejaVuSans-73" x="202.148438"/>
      <use xlink:href="#DejaVuSans-73" x="254.248047"/>
      <use xlink:href="#DejaVuSans-69" x="306.347656"/>
      <use xlink:href="#DejaVuSans-61" x="334.130859"/>
      <use xlink:href="#DejaVuSans-6e" x="395.410156"/>
      <use xlink:href="#DejaVuSans-20" x="458.789062"/>
      <use xlink:href="#DejaVuSans-74" x="490.576172"/>
      <use xlink:href="#DejaVuSans-68" x="529.785156"/>
      <use xlink:href="#DejaVuSans-65" x="593.164062"/>
      <use xlink:href="#DejaVuSans-6f" x="654.6875"/>
      <use xlink:href="#DejaVuSans-72" x="715.869141"/>
      <use xlink:href="#DejaVuSans-79" x="756.982422"/>
     </g>
    </g>
    <g id="line2d_23">
     <g>
      <use xlink:href="#m737e5021f9" x="171.261172" y="45.170078" style="fill: #e6953c; stroke: #e6953c"/>
     </g>
    </g>
    <g id="text_14">
     <!-- measured -->
     <g transform="translate(186.561172 48.145078) scale(0.085 -0.085)">
      <defs>
       <path id="DejaVuSans-6d" d="M 3328 2828 
Q 3544 3216 3844 3400 
Q 4144 3584 4550 3584 
Q 5097 3584 5394 3201 
Q 5691 2819 5691 2113 
L 5691 0 
L 5113 0 
L 5113 2094 
Q 5113 2597 4934 2840 
Q 4756 3084 4391 3084 
Q 3944 3084 3684 2787 
Q 3425 2491 3425 1978 
L 3425 0 
L 2847 0 
L 2847 2094 
Q 2847 2600 2669 2842 
Q 2491 3084 2119 3084 
Q 1678 3084 1418 2786 
Q 1159 2488 1159 1978 
L 1159 0 
L 581 0 
L 581 3500 
L 1159 3500 
L 1159 2956 
Q 1356 3278 1631 3431 
Q 1906 3584 2284 3584 
Q 2666 3584 2933 3390 
Q 3200 3197 3328 2828 
z
" transform="scale(0.015625)"/>
       <path id="DejaVuSans-64" d="M 2906 2969 
L 2906 4863 
L 3481 4863 
L 3481 0 
L 2906 0 
L 2906 525 
Q 2725 213 2448 61 
Q 2172 -91 1784 -91 
Q 1150 -91 751 415 
Q 353 922 353 1747 
Q 353 2572 751 3078 
Q 1150 3584 1784 3584 
Q 2172 3584 2448 3432 
Q 2725 3281 2906 2969 
z
M 947 1747 
Q 947 1113 1208 752 
Q 1469 391 1925 391 
Q 2381 391 2643 752 
Q 2906 1113 2906 1747 
Q 2906 2381 2643 2742 
Q 2381 3103 1925 3103 
Q 1469 3103 1208 2742 
Q 947 2381 947 1747 
z
" transform="scale(0.015625)"/>
      </defs>
      <use xlink:href="#DejaVuSans-6d"/>
      <use xlink:href="#DejaVuSans-65" x="97.412109"/>
      <use xlink:href="#DejaVuSans-61" x="158.935547"/>
      <use xlink:href="#DejaVuSans-73" x="220.214844"/>
      <use xlink:href="#DejaVuSans-75" x="272.314453"/>
      <use xlink:href="#DejaVuSans-72" x="335.693359"/>
      <use xlink:href="#DejaVuSans-65" x="374.556641"/>
      <use xlink:href="#DejaVuSans-64" x="436.080078"/>
     </g>
    </g>
   </g>
  </g>
  <g id="axes_2">
   <g id="patch_8">
    <path d="M 308.743125 167.0264 
L 542.223125 167.0264 
L 542.223125 21.56 
L 308.743125 21.56 
z
" style="fill: #ffffff"/>
   </g>
   <g id="matplotlib.axis_3">
    <g id="xtick_4">
     <g id="line2d_24">
      <path d="M 359.15358 167.0264 
L 359.15358 21.56 
" clip-path="url(#p203a0ac284)" style="fill: none; stroke: #b0b0b0; stroke-opacity: 0.22; stroke-width: 0.8; stroke-linecap: square"/>
     </g>
     <g id="line2d_25">
      <g>
       <use xlink:href="#m977133f96b" x="359.15358" y="167.0264" style="stroke: #000000; stroke-width: 0.8"/>
      </g>
     </g>
     <g id="text_15">
      <!-- −2 -->
      <g transform="translate(351.782486 181.624837) scale(0.1 -0.1)">
       <use xlink:href="#DejaVuSans-2212"/>
       <use xlink:href="#DejaVuSans-32" x="83.789062"/>
      </g>
     </g>
    </g>
    <g id="xtick_5">
     <g id="line2d_26">
      <path d="M 425.483125 167.0264 
L 425.483125 21.56 
" clip-path="url(#p203a0ac284)" style="fill: none; stroke: #b0b0b0; stroke-opacity: 0.22; stroke-width: 0.8; stroke-linecap: square"/>
     </g>
     <g id="line2d_27">
      <g>
       <use xlink:href="#m977133f96b" x="425.483125" y="167.0264" style="stroke: #000000; stroke-width: 0.8"/>
      </g>
     </g>
     <g id="text_16">
      <!-- 0 -->
      <g transform="translate(422.301875 181.624837) scale(0.1 -0.1)">
       <use xlink:href="#DejaVuSans-30"/>
      </g>
     </g>
    </g>
    <g id="xtick_6">
     <g id="line2d_28">
      <path d="M 491.81267 167.0264 
L 491.81267 21.56 
" clip-path="url(#p203a0ac284)" style="fill: none; stroke: #b0b0b0; stroke-opacity: 0.22; stroke-width: 0.8; stroke-linecap: square"/>
     </g>
     <g id="line2d_29">
      <g>
       <use xlink:href="#m977133f96b" x="491.81267" y="167.0264" style="stroke: #000000; stroke-width: 0.8"/>
      </g>
     </g>
     <g id="text_17">
      <!-- 2 -->
      <g transform="translate(488.63142 181.624837) scale(0.1 -0.1)">
       <use xlink:href="#DejaVuSans-32"/>
      </g>
     </g>
    </g>
    <g id="text_18">
     <!-- $\nu/\sqrt{\sigma}$ -->
     <g transform="translate(413.383125 195.424837) scale(0.1 -0.1)">
      <use xlink:href="#DejaVuSans-Oblique-3bd" transform="translate(0 0.890625)"/>
      <use xlink:href="#DejaVuSans-2f" transform="translate(55.859375 0.890625)"/>
      <use xlink:href="#DejaVuSans-221a" transform="translate(89.550781 0.890625)"/>
      <use xlink:href="#DejaVuSans-Oblique-3c3" transform="translate(165.771484 1.015625)"/>
      <path d="M 153.271484 75.5 
L 153.271484 81.75 
L 241.650391 81.75 
L 241.650391 75.5 
L 153.271484 75.5 
z
"/>
     </g>
    </g>
   </g>
   <g id="matplotlib.axis_4">
    <g id="ytick_7">
     <g id="line2d_30">
      <path d="M 308.743125 161.20935 
L 542.223125 161.20935 
" clip-path="url(#p203a0ac284)" style="fill: none; stroke: #b0b0b0; stroke-opacity: 0.22; stroke-width: 0.8; stroke-linecap: square"/>
     </g>
     <g id="line2d_31">
      <g>
       <use xlink:href="#m4d9c047b04" x="308.743125" y="161.20935" style="stroke: #000000; stroke-width: 0.8"/>
      </g>
     </g>
     <g id="text_19">
      <!-- 0.00 -->
      <g transform="translate(279.4775 165.008569) scale(0.1 -0.1)">
       <use xlink:href="#DejaVuSans-30"/>
       <use xlink:href="#DejaVuSans-2e" x="63.623047"/>
       <use xlink:href="#DejaVuSans-30" x="95.410156"/>
       <use xlink:href="#DejaVuSans-30" x="159.033203"/>
      </g>
     </g>
    </g>
    <g id="ytick_8">
     <g id="line2d_32">
      <path d="M 308.743125 140.265416 
L 542.223125 140.265416 
" clip-path="url(#p203a0ac284)" style="fill: none; stroke: #b0b0b0; stroke-opacity: 0.22; stroke-width: 0.8; stroke-linecap: square"/>
     </g>
     <g id="line2d_33">
      <g>
       <use xlink:href="#m4d9c047b04" x="308.743125" y="140.265416" style="stroke: #000000; stroke-width: 0.8"/>
      </g>
     </g>
     <g id="text_20">
      <!-- 0.25 -->
      <g transform="translate(279.4775 144.064635) scale(0.1 -0.1)">
       <defs>
        <path id="DejaVuSans-35" d="M 691 4666 
L 3169 4666 
L 3169 4134 
L 1269 4134 
L 1269 2991 
Q 1406 3038 1543 3061 
Q 1681 3084 1819 3084 
Q 2600 3084 3056 2656 
Q 3513 2228 3513 1497 
Q 3513 744 3044 326 
Q 2575 -91 1722 -91 
Q 1428 -91 1123 -41 
Q 819 9 494 109 
L 494 744 
Q 775 591 1075 516 
Q 1375 441 1709 441 
Q 2250 441 2565 725 
Q 2881 1009 2881 1497 
Q 2881 1984 2565 2268 
Q 2250 2553 1709 2553 
Q 1456 2553 1204 2497 
Q 953 2441 691 2322 
L 691 4666 
z
" transform="scale(0.015625)"/>
       </defs>
       <use xlink:href="#DejaVuSans-30"/>
       <use xlink:href="#DejaVuSans-2e" x="63.623047"/>
       <use xlink:href="#DejaVuSans-32" x="95.410156"/>
       <use xlink:href="#DejaVuSans-35" x="159.033203"/>
      </g>
     </g>
    </g>
    <g id="ytick_9">
     <g id="line2d_34">
      <path d="M 308.743125 119.321482 
L 542.223125 119.321482 
" clip-path="url(#p203a0ac284)" style="fill: none; stroke: #b0b0b0; stroke-opacity: 0.22; stroke-width: 0.8; stroke-linecap: square"/>
     </g>
     <g id="line2d_35">
      <g>
       <use xlink:href="#m4d9c047b04" x="308.743125" y="119.321482" style="stroke: #000000; stroke-width: 0.8"/>
      </g>
     </g>
     <g id="text_21">
      <!-- 0.50 -->
      <g transform="translate(279.4775 123.120701) scale(0.1 -0.1)">
       <use xlink:href="#DejaVuSans-30"/>
       <use xlink:href="#DejaVuSans-2e" x="63.623047"/>
       <use xlink:href="#DejaVuSans-35" x="95.410156"/>
       <use xlink:href="#DejaVuSans-30" x="159.033203"/>
      </g>
     </g>
    </g>
    <g id="ytick_10">
     <g id="line2d_36">
      <path d="M 308.743125 98.377548 
L 542.223125 98.377548 
" clip-path="url(#p203a0ac284)" style="fill: none; stroke: #b0b0b0; stroke-opacity: 0.22; stroke-width: 0.8; stroke-linecap: square"/>
     </g>
     <g id="line2d_37">
      <g>
       <use xlink:href="#m4d9c047b04" x="308.743125" y="98.377548" style="stroke: #000000; stroke-width: 0.8"/>
      </g>
     </g>
     <g id="text_22">
      <!-- 0.75 -->
      <g transform="translate(279.4775 102.176767) scale(0.1 -0.1)">
       <defs>
        <path id="DejaVuSans-37" d="M 525 4666 
L 3525 4666 
L 3525 4397 
L 1831 0 
L 1172 0 
L 2766 4134 
L 525 4134 
L 525 4666 
z
" transform="scale(0.015625)"/>
       </defs>
       <use xlink:href="#DejaVuSans-30"/>
       <use xlink:href="#DejaVuSans-2e" x="63.623047"/>
       <use xlink:href="#DejaVuSans-37" x="95.410156"/>
       <use xlink:href="#DejaVuSans-35" x="159.033203"/>
      </g>
     </g>
    </g>
    <g id="ytick_11">
     <g id="line2d_38">
      <path d="M 308.743125 77.433614 
L 542.223125 77.433614 
" clip-path="url(#p203a0ac284)" style="fill: none; stroke: #b0b0b0; stroke-opacity: 0.22; stroke-width: 0.8; stroke-linecap: square"/>
     </g>
     <g id="line2d_39">
      <g>
       <use xlink:href="#m4d9c047b04" x="308.743125" y="77.433614" style="stroke: #000000; stroke-width: 0.8"/>
      </g>
     </g>
     <g id="text_23">
      <!-- 1.00 -->
      <g transform="translate(279.4775 81.232833) scale(0.1 -0.1)">
       <use xlink:href="#DejaVuSans-31"/>
       <use xlink:href="#DejaVuSans-2e" x="63.623047"/>
       <use xlink:href="#DejaVuSans-30" x="95.410156"/>
       <use xlink:href="#DejaVuSans-30" x="159.033203"/>
      </g>
     </g>
    </g>
    <g id="ytick_12">
     <g id="line2d_40">
      <path d="M 308.743125 56.48968 
L 542.223125 56.48968 
" clip-path="url(#p203a0ac284)" style="fill: none; stroke: #b0b0b0; stroke-opacity: 0.22; stroke-width: 0.8; stroke-linecap: square"/>
     </g>
     <g id="line2d_41">
      <g>
       <use xlink:href="#m4d9c047b04" x="308.743125" y="56.48968" style="stroke: #000000; stroke-width: 0.8"/>
      </g>
     </g>
     <g id="text_24">
      <!-- 1.25 -->
      <g transform="translate(279.4775 60.288899) scale(0.1 -0.1)">
       <use xlink:href="#DejaVuSans-31"/>
       <use xlink:href="#DejaVuSans-2e" x="63.623047"/>
       <use xlink:href="#DejaVuSans-32" x="95.410156"/>
       <use xlink:href="#DejaVuSans-35" x="159.033203"/>
      </g>
     </g>
    </g>
    <g id="ytick_13">
     <g id="line2d_42">
      <path d="M 308.743125 35.545746 
L 542.223125 35.545746 
" clip-path="url(#p203a0ac284)" style="fill: none; stroke: #b0b0b0; stroke-opacity: 0.22; stroke-width: 0.8; stroke-linecap: square"/>
     </g>
     <g id="line2d_43">
      <g>
       <use xlink:href="#m4d9c047b04" x="308.743125" y="35.545746" style="stroke: #000000; stroke-width: 0.8"/>
      </g>
     </g>
     <g id="text_25">
      <!-- 1.50 -->
      <g transform="translate(279.4775 39.344965) scale(0.1 -0.1)">
       <use xlink:href="#DejaVuSans-31"/>
       <use xlink:href="#DejaVuSans-2e" x="63.623047"/>
       <use xlink:href="#DejaVuSans-35" x="95.410156"/>
       <use xlink:href="#DejaVuSans-30" x="159.033203"/>
      </g>
     </g>
    </g>
   </g>
   <g id="line2d_44">
    <path d="M 319.355852 160.414291 
L 324.675515 159.89797 
L 328.931245 159.288264 
L 332.655009 158.562242 
L 336.378773 157.607536 
L 339.570571 156.566271 
L 342.762369 155.279164 
L 345.4222 153.98918 
L 348.082031 152.474949 
L 350.741863 150.710897 
L 353.401694 148.67147 
L 356.061526 146.331867 
L 358.721357 143.668873 
L 361.381188 140.661808 
L 364.04102 137.293549 
L 366.700851 133.551619 
L 369.360683 129.429289 
L 372.020514 124.92666 
L 375.212312 119.033306 
L 378.404109 112.634702 
L 382.127873 104.599318 
L 386.383603 94.808968 
L 392.767199 79.42356 
L 399.150794 64.137134 
L 402.874558 55.752601 
L 406.066356 49.12212 
L 408.726187 44.110807 
L 410.854052 40.501226 
L 412.981917 37.291545 
L 415.109783 34.519119 
L 416.705681 32.746679 
L 418.30158 31.250719 
L 419.897479 30.041417 
L 421.493378 29.127062 
L 423.089277 28.513954 
L 424.685176 28.206333 
L 426.281074 28.206333 
L 427.876973 28.513954 
L 429.472872 29.127062 
L 431.068771 30.041417 
L 432.66467 31.250719 
L 434.260569 32.746679 
L 435.856467 34.519119 
L 437.984333 37.291545 
L 440.112198 40.501226 
L 442.240063 44.110807 
L 444.899894 49.12212 
L 447.559726 54.60686 
L 450.751523 61.684056 
L 455.007254 71.693968 
L 467.774444 102.205124 
L 471.498208 110.397652 
L 474.690006 116.954514 
L 477.881804 123.02062 
L 481.073601 128.559051 
L 483.733433 132.757687 
L 486.393264 136.575362 
L 489.053095 140.017525 
L 491.712927 143.095592 
L 494.372758 145.825844 
L 497.03259 148.228335 
L 499.692421 150.325851 
L 502.352252 152.142947 
L 505.012084 153.705087 
L 507.671915 155.037894 
L 510.863713 156.369902 
L 514.055511 157.449405 
L 517.779274 158.441045 
L 521.503038 159.196686 
L 525.758769 159.832626 
L 530.546465 160.32879 
L 531.610398 160.414291 
L 531.610398 160.414291 
" clip-path="url(#p203a0ac284)" style="fill: none; stroke: #3a6ea5; stroke-width: 2.2; stroke-linecap: square"/>
   </g>
   <g id="line2d_45">
    <path d="M 308.743125 161.20935 
L 542.223125 161.20935 
" clip-path="url(#p203a0ac284)" style="fill: none; stroke: #cccccc; stroke-width: 0.7; stroke-linecap: square"/>
   </g>
   <g id="patch_9">
    <path d="M 308.743125 167.0264 
L 308.743125 21.56 
" style="fill: none; stroke: #000000; stroke-width: 0.8; stroke-linejoin: miter; stroke-linecap: square"/>
   </g>
   <g id="patch_10">
    <path d="M 542.223125 167.0264 
L 542.223125 21.56 
" style="fill: none; stroke: #000000; stroke-width: 0.8; stroke-linejoin: miter; stroke-linecap: square"/>
   </g>
   <g id="patch_11">
    <path d="M 308.743125 167.0264 
L 542.223125 167.0264 
" style="fill: none; stroke: #000000; stroke-width: 0.8; stroke-linejoin: miter; stroke-linecap: square"/>
   </g>
   <g id="patch_12">
    <path d="M 308.743125 21.56 
L 542.223125 21.56 
" style="fill: none; stroke: #000000; stroke-width: 0.8; stroke-linejoin: miter; stroke-linecap: square"/>
   </g>
   <g id="text_26">
    <!-- co-area local estimator -->
    <g style="fill: #777777" transform="translate(378.135172 216.484976) scale(0.082 -0.082)">
     <defs>
      <path id="DejaVuSans-Oblique-2d" d="M 391 2009 
L 2075 2009 
L 1978 1497 
L 288 1497 
L 391 2009 
z
" transform="scale(0.015625)"/>
      <path id="DejaVuSans-Oblique-6d" d="M 5747 2113 
L 5338 0 
L 4763 0 
L 5166 2094 
Q 5191 2228 5203 2325 
Q 5216 2422 5216 2491 
Q 5216 2772 5059 2928 
Q 4903 3084 4622 3084 
Q 4203 3084 3875 2770 
Q 3547 2456 3450 1953 
L 3066 0 
L 2491 0 
L 2900 2094 
Q 2925 2209 2937 2307 
Q 2950 2406 2950 2484 
Q 2950 2769 2794 2926 
Q 2638 3084 2363 3084 
Q 1938 3084 1609 2770 
Q 1281 2456 1184 1953 
L 800 0 
L 225 0 
L 909 3500 
L 1484 3500 
L 1375 2956 
Q 1609 3263 1923 3423 
Q 2238 3584 2597 3584 
Q 2978 3584 3223 3384 
Q 3469 3184 3519 2828 
Q 3781 3197 4126 3390 
Q 4472 3584 4856 3584 
Q 5306 3584 5551 3325 
Q 5797 3066 5797 2591 
Q 5797 2488 5784 2364 
Q 5772 2241 5747 2113 
z
" transform="scale(0.015625)"/>
     </defs>
     <use xlink:href="#DejaVuSans-Oblique-63"/>
     <use xlink:href="#DejaVuSans-Oblique-6f" x="54.980469"/>
     <use xlink:href="#DejaVuSans-Oblique-2d" x="116.162109"/>
     <use xlink:href="#DejaVuSans-Oblique-61" x="152.246094"/>
     <use xlink:href="#DejaVuSans-Oblique-72" x="213.525391"/>
     <use xlink:href="#DejaVuSans-Oblique-65" x="254.638672"/>
     <use xlink:href="#DejaVuSans-Oblique-61" x="316.162109"/>
     <use xlink:href="#DejaVuSans-Oblique-20" x="377.441406"/>
     <use xlink:href="#DejaVuSans-Oblique-6c" x="409.228516"/>
     <use xlink:href="#DejaVuSans-Oblique-6f" x="437.011719"/>
     <use xlink:href="#DejaVuSans-Oblique-63" x="498.193359"/>
     <use xlink:href="#DejaVuSans-Oblique-61" x="553.173828"/>
     <use xlink:href="#DejaVuSans-Oblique-6c" x="614.453125"/>
     <use xlink:href="#DejaVuSans-Oblique-20" x="642.236328"/>
     <use xlink:href="#DejaVuSans-Oblique-65" x="674.023438"/>
     <use xlink:href="#DejaVuSans-Oblique-73" x="735.546875"/>
     <use xlink:href="#DejaVuSans-Oblique-74" x="787.646484"/>
     <use xlink:href="#DejaVuSans-Oblique-69" x="826.855469"/>
     <use xlink:href="#DejaVuSans-Oblique-6d" x="854.638672"/>
     <use xlink:href="#DejaVuSans-Oblique-61" x="952.050781"/>
     <use xlink:href="#DejaVuSans-Oblique-74" x="1013.330078"/>
     <use xlink:href="#DejaVuSans-Oblique-6f" x="1052.539062"/>
     <use xlink:href="#DejaVuSans-Oblique-72" x="1113.720703"/>
    </g>
   </g>
   <g id="text_27">
    <!-- Boundary length  $v_1(\nu)$ -->
    <g transform="translate(362.948125 15.56) scale(0.11 -0.11)">
     <defs>
      <path id="DejaVuSans-42" d="M 1259 2228 
L 1259 519 
L 2272 519 
Q 2781 519 3026 730 
Q 3272 941 3272 1375 
Q 3272 1813 3026 2020 
Q 2781 2228 2272 2228 
L 1259 2228 
z
M 1259 4147 
L 1259 2741 
L 2194 2741 
Q 2656 2741 2882 2914 
Q 3109 3088 3109 3444 
Q 3109 3797 2882 3972 
Q 2656 4147 2194 4147 
L 1259 4147 
z
M 628 4666 
L 2241 4666 
Q 2963 4666 3353 4366 
Q 3744 4066 3744 3513 
Q 3744 3084 3544 2831 
Q 3344 2578 2956 2516 
Q 3422 2416 3680 2098 
Q 3938 1781 3938 1306 
Q 3938 681 3513 340 
Q 3088 0 2303 0 
L 628 0 
L 628 4666 
z
" transform="scale(0.015625)"/>
      <path id="DejaVuSans-6c" d="M 603 4863 
L 1178 4863 
L 1178 0 
L 603 0 
L 603 4863 
z
" transform="scale(0.015625)"/>
      <path id="DejaVuSans-67" d="M 2906 1791 
Q 2906 2416 2648 2759 
Q 2391 3103 1925 3103 
Q 1463 3103 1205 2759 
Q 947 2416 947 1791 
Q 947 1169 1205 825 
Q 1463 481 1925 481 
Q 2391 481 2648 825 
Q 2906 1169 2906 1791 
z
M 3481 434 
Q 3481 -459 3084 -895 
Q 2688 -1331 1869 -1331 
Q 1566 -1331 1297 -1286 
Q 1028 -1241 775 -1147 
L 775 -588 
Q 1028 -725 1275 -790 
Q 1522 -856 1778 -856 
Q 2344 -856 2625 -561 
Q 2906 -266 2906 331 
L 2906 616 
Q 2728 306 2450 153 
Q 2172 0 1784 0 
Q 1141 0 747 490 
Q 353 981 353 1791 
Q 353 2603 747 3093 
Q 1141 3584 1784 3584 
Q 2172 3584 2450 3431 
Q 2728 3278 2906 2969 
L 2906 3500 
L 3481 3500 
L 3481 434 
z
" transform="scale(0.015625)"/>
     </defs>
     <use xlink:href="#DejaVuSans-42" transform="translate(0 0.015625)"/>
     <use xlink:href="#DejaVuSans-6f" transform="translate(68.603516 0.015625)"/>
     <use xlink:href="#DejaVuSans-75" transform="translate(129.785156 0.015625)"/>
     <use xlink:href="#DejaVuSans-6e" transform="translate(193.164062 0.015625)"/>
     <use xlink:href="#DejaVuSans-64" transform="translate(256.542969 0.015625)"/>
     <use xlink:href="#DejaVuSans-61" transform="translate(320.019531 0.015625)"/>
     <use xlink:href="#DejaVuSans-72" transform="translate(381.298828 0.015625)"/>
     <use xlink:href="#DejaVuSans-79" transform="translate(422.412109 0.015625)"/>
     <use xlink:href="#DejaVuSans-20" transform="translate(481.591797 0.015625)"/>
     <use xlink:href="#DejaVuSans-6c" transform="translate(513.378906 0.015625)"/>
     <use xlink:href="#DejaVuSans-65" transform="translate(541.162109 0.015625)"/>
     <use xlink:href="#DejaVuSans-6e" transform="translate(602.685547 0.015625)"/>
     <use xlink:href="#DejaVuSans-67" transform="translate(666.064453 0.015625)"/>
     <use xlink:href="#DejaVuSans-74" transform="translate(729.541016 0.015625)"/>
     <use xlink:href="#DejaVuSans-68" transform="translate(768.75 0.015625)"/>
     <use xlink:href="#DejaVuSans-20" transform="translate(832.128906 0.015625)"/>
     <use xlink:href="#DejaVuSans-20" transform="translate(863.916016 0.015625)"/>
     <use xlink:href="#DejaVuSans-Oblique-76" transform="translate(895.703125 0.015625)"/>
     <use xlink:href="#DejaVuSans-31" transform="translate(954.882812 -16.390625) scale(0.7)"/>
     <use xlink:href="#DejaVuSans-28" transform="translate(1002.15332 0.015625)"/>
     <use xlink:href="#DejaVuSans-Oblique-3bd" transform="translate(1041.166992 0.015625)"/>
     <use xlink:href="#DejaVuSans-29" transform="translate(1097.026367 0.015625)"/>
    </g>
   </g>
   <g id="line2d_46">
    <g clip-path="url(#p203a0ac284)">
     <use xlink:href="#m737e5021f9" x="319.355852" y="160.309111" style="fill: #e6953c; stroke: #e6953c"/>
     <use xlink:href="#m737e5021f9" x="325.988807" y="159.57347" style="fill: #e6953c; stroke: #e6953c"/>
     <use xlink:href="#m737e5021f9" x="332.621761" y="158.345027" style="fill: #e6953c; stroke: #e6953c"/>
     <use xlink:href="#m737e5021f9" x="339.254716" y="156.377473" style="fill: #e6953c; stroke: #e6953c"/>
     <use xlink:href="#m737e5021f9" x="345.88767" y="153.321829" style="fill: #e6953c; stroke: #e6953c"/>
     <use xlink:href="#m737e5021f9" x="352.520625" y="148.787733" style="fill: #e6953c; stroke: #e6953c"/>
     <use xlink:href="#m737e5021f9" x="359.15358" y="142.451193" style="fill: #e6953c; stroke: #e6953c"/>
     <use xlink:href="#m737e5021f9" x="365.786534" y="134.075033" style="fill: #e6953c; stroke: #e6953c"/>
     <use xlink:href="#m737e5021f9" x="372.419489" y="123.54353" style="fill: #e6953c; stroke: #e6953c"/>
     <use xlink:href="#m737e5021f9" x="379.052443" y="110.924791" style="fill: #e6953c; stroke: #e6953c"/>
     <use xlink:href="#m737e5021f9" x="385.685398" y="96.489898" style="fill: #e6953c; stroke: #e6953c"/>
     <use xlink:href="#m737e5021f9" x="392.318352" y="80.886127" style="fill: #e6953c; stroke: #e6953c"/>
     <use xlink:href="#m737e5021f9" x="398.951307" y="65.29155" style="fill: #e6953c; stroke: #e6953c"/>
     <use xlink:href="#m737e5021f9" x="405.584261" y="51.070105" style="fill: #e6953c; stroke: #e6953c"/>
     <use xlink:href="#m737e5021f9" x="412.217216" y="39.662146" style="fill: #e6953c; stroke: #e6953c"/>
     <use xlink:href="#m737e5021f9" x="418.85017" y="32.28241" style="fill: #e6953c; stroke: #e6953c"/>
     <use xlink:href="#m737e5021f9" x="425.483125" y="29.740386" style="fill: #e6953c; stroke: #e6953c"/>
     <use xlink:href="#m737e5021f9" x="432.11608" y="32.366739" style="fill: #e6953c; stroke: #e6953c"/>
     <use xlink:href="#m737e5021f9" x="438.749034" y="39.861281" style="fill: #e6953c; stroke: #e6953c"/>
     <use xlink:href="#m737e5021f9" x="445.381989" y="51.188645" style="fill: #e6953c; stroke: #e6953c"/>
     <use xlink:href="#m737e5021f9" x="452.014943" y="65.110537" style="fill: #e6953c; stroke: #e6953c"/>
     <use xlink:href="#m737e5021f9" x="458.647898" y="80.514067" style="fill: #e6953c; stroke: #e6953c"/>
     <use xlink:href="#m737e5021f9" x="465.280852" y="96.083431" style="fill: #e6953c; stroke: #e6953c"/>
     <use xlink:href="#m737e5021f9" x="471.913807" y="110.595171" style="fill: #e6953c; stroke: #e6953c"/>
     <use xlink:href="#m737e5021f9" x="478.546761" y="123.317041" style="fill: #e6953c; stroke: #e6953c"/>
     <use xlink:href="#m737e5021f9" x="485.179716" y="133.969371" style="fill: #e6953c; stroke: #e6953c"/>
     <use xlink:href="#m737e5021f9" x="491.81267" y="142.408134" style="fill: #e6953c; stroke: #e6953c"/>
     <use xlink:href="#m737e5021f9" x="498.445625" y="148.678521" style="fill: #e6953c; stroke: #e6953c"/>
     <use xlink:href="#m737e5021f9" x="505.07858" y="153.137362" style="fill: #e6953c; stroke: #e6953c"/>
     <use xlink:href="#m737e5021f9" x="511.711534" y="156.168931" style="fill: #e6953c; stroke: #e6953c"/>
     <use xlink:href="#m737e5021f9" x="518.344489" y="158.152208" style="fill: #e6953c; stroke: #e6953c"/>
     <use xlink:href="#m737e5021f9" x="524.977443" y="159.428162" style="fill: #e6953c; stroke: #e6953c"/>
     <use xlink:href="#m737e5021f9" x="531.610398" y="160.22984" style="fill: #e6953c; stroke: #e6953c"/>
    </g>
   </g>
  </g>
  <g id="axes_3">
   <g id="patch_13">
    <path d="M 587.383125 167.0264 
L 820.863125 167.0264 
L 820.863125 21.56 
L 587.383125 21.56 
z
" style="fill: #ffffff"/>
   </g>
   <g id="matplotlib.axis_5">
    <g id="xtick_7">
     <g id="line2d_47">
      <path d="M 637.79358 167.0264 
L 637.79358 21.56 
" clip-path="url(#pbb562d2e99)" style="fill: none; stroke: #b0b0b0; stroke-opacity: 0.22; stroke-width: 0.8; stroke-linecap: square"/>
     </g>
     <g id="line2d_48">
      <g>
       <use xlink:href="#m977133f96b" x="637.79358" y="167.0264" style="stroke: #000000; stroke-width: 0.8"/>
      </g>
     </g>
     <g id="text_28">
      <!-- −2 -->
      <g transform="translate(630.422486 181.624837) scale(0.1 -0.1)">
       <use xlink:href="#DejaVuSans-2212"/>
       <use xlink:href="#DejaVuSans-32" x="83.789062"/>
      </g>
     </g>
    </g>
    <g id="xtick_8">
     <g id="line2d_49">
      <path d="M 704.123125 167.0264 
L 704.123125 21.56 
" clip-path="url(#pbb562d2e99)" style="fill: none; stroke: #b0b0b0; stroke-opacity: 0.22; stroke-width: 0.8; stroke-linecap: square"/>
     </g>
     <g id="line2d_50">
      <g>
       <use xlink:href="#m977133f96b" x="704.123125" y="167.0264" style="stroke: #000000; stroke-width: 0.8"/>
      </g>
     </g>
     <g id="text_29">
      <!-- 0 -->
      <g transform="translate(700.941875 181.624837) scale(0.1 -0.1)">
       <use xlink:href="#DejaVuSans-30"/>
      </g>
     </g>
    </g>
    <g id="xtick_9">
     <g id="line2d_51">
      <path d="M 770.45267 167.0264 
L 770.45267 21.56 
" clip-path="url(#pbb562d2e99)" style="fill: none; stroke: #b0b0b0; stroke-opacity: 0.22; stroke-width: 0.8; stroke-linecap: square"/>
     </g>
     <g id="line2d_52">
      <g>
       <use xlink:href="#m977133f96b" x="770.45267" y="167.0264" style="stroke: #000000; stroke-width: 0.8"/>
      </g>
     </g>
     <g id="text_30">
      <!-- 2 -->
      <g transform="translate(767.27142 181.624837) scale(0.1 -0.1)">
       <use xlink:href="#DejaVuSans-32"/>
      </g>
     </g>
    </g>
    <g id="text_31">
     <!-- $\nu/\sqrt{\sigma}$ -->
     <g transform="translate(692.023125 195.424837) scale(0.1 -0.1)">
      <use xlink:href="#DejaVuSans-Oblique-3bd" transform="translate(0 0.890625)"/>
      <use xlink:href="#DejaVuSans-2f" transform="translate(55.859375 0.890625)"/>
      <use xlink:href="#DejaVuSans-221a" transform="translate(89.550781 0.890625)"/>
      <use xlink:href="#DejaVuSans-Oblique-3c3" transform="translate(165.771484 1.015625)"/>
      <path d="M 153.271484 75.5 
L 153.271484 81.75 
L 241.650391 81.75 
L 241.650391 75.5 
L 153.271484 75.5 
z
"/>
     </g>
    </g>
   </g>
   <g id="matplotlib.axis_6">
    <g id="ytick_14">
     <g id="line2d_53">
      <path d="M 587.383125 149.116595 
L 820.863125 149.116595 
" clip-path="url(#pbb562d2e99)" style="fill: none; stroke: #b0b0b0; stroke-opacity: 0.22; stroke-width: 0.8; stroke-linecap: square"/>
     </g>
     <g id="line2d_54">
      <g>
       <use xlink:href="#m4d9c047b04" x="587.383125" y="149.116595" style="stroke: #000000; stroke-width: 0.8"/>
      </g>
     </g>
     <g id="text_32">
      <!-- −200 -->
      <g transform="translate(552.915937 152.915814) scale(0.1 -0.1)">
       <use xlink:href="#DejaVuSans-2212"/>
       <use xlink:href="#DejaVuSans-32" x="83.789062"/>
       <use xlink:href="#DejaVuSans-30" x="147.412109"/>
       <use xlink:href="#DejaVuSans-30" x="211.035156"/>
      </g>
     </g>
    </g>
    <g id="ytick_15">
     <g id="line2d_55">
      <path d="M 587.383125 122.817169 
L 820.863125 122.817169 
" clip-path="url(#pbb562d2e99)" style="fill: none; stroke: #b0b0b0; stroke-opacity: 0.22; stroke-width: 0.8; stroke-linecap: square"/>
     </g>
     <g id="line2d_56">
      <g>
       <use xlink:href="#m4d9c047b04" x="587.383125" y="122.817169" style="stroke: #000000; stroke-width: 0.8"/>
      </g>
     </g>
     <g id="text_33">
      <!-- −100 -->
      <g transform="translate(552.915937 126.616388) scale(0.1 -0.1)">
       <use xlink:href="#DejaVuSans-2212"/>
       <use xlink:href="#DejaVuSans-31" x="83.789062"/>
       <use xlink:href="#DejaVuSans-30" x="147.412109"/>
       <use xlink:href="#DejaVuSans-30" x="211.035156"/>
      </g>
     </g>
    </g>
    <g id="ytick_16">
     <g id="line2d_57">
      <path d="M 587.383125 96.517743 
L 820.863125 96.517743 
" clip-path="url(#pbb562d2e99)" style="fill: none; stroke: #b0b0b0; stroke-opacity: 0.22; stroke-width: 0.8; stroke-linecap: square"/>
     </g>
     <g id="line2d_58">
      <g>
       <use xlink:href="#m4d9c047b04" x="587.383125" y="96.517743" style="stroke: #000000; stroke-width: 0.8"/>
      </g>
     </g>
     <g id="text_34">
      <!-- 0 -->
      <g transform="translate(574.020625 100.316962) scale(0.1 -0.1)">
       <use xlink:href="#DejaVuSans-30"/>
      </g>
     </g>
    </g>
    <g id="ytick_17">
     <g id="line2d_59">
      <path d="M 587.383125 70.218317 
L 820.863125 70.218317 
" clip-path="url(#pbb562d2e99)" style="fill: none; stroke: #b0b0b0; stroke-opacity: 0.22; stroke-width: 0.8; stroke-linecap: square"/>
     </g>
     <g id="line2d_60">
      <g>
       <use xlink:href="#m4d9c047b04" x="587.383125" y="70.218317" style="stroke: #000000; stroke-width: 0.8"/>
      </g>
     </g>
     <g id="text_35">
      <!-- 100 -->
      <g transform="translate(561.295625 74.017535) scale(0.1 -0.1)">
       <use xlink:href="#DejaVuSans-31"/>
       <use xlink:href="#DejaVuSans-30" x="63.623047"/>
       <use xlink:href="#DejaVuSans-30" x="127.246094"/>
      </g>
     </g>
    </g>
    <g id="ytick_18">
     <g id="line2d_61">
      <path d="M 587.383125 43.918891 
L 820.863125 43.918891 
" clip-path="url(#pbb562d2e99)" style="fill: none; stroke: #b0b0b0; stroke-opacity: 0.22; stroke-width: 0.8; stroke-linecap: square"/>
     </g>
     <g id="line2d_62">
      <g>
       <use xlink:href="#m4d9c047b04" x="587.383125" y="43.918891" style="stroke: #000000; stroke-width: 0.8"/>
      </g>
     </g>
     <g id="text_36">
      <!-- 200 -->
      <g transform="translate(561.295625 47.718109) scale(0.1 -0.1)">
       <use xlink:href="#DejaVuSans-32"/>
       <use xlink:href="#DejaVuSans-30" x="63.623047"/>
       <use xlink:href="#DejaVuSans-30" x="127.246094"/>
      </g>
     </g>
    </g>
   </g>
   <g id="line2d_63">
    <path d="M 597.995852 98.532346 
L 601.719616 99.284564 
L 605.44338 100.265081 
L 608.635178 101.323876 
L 611.826976 102.618177 
L 615.018773 104.18047 
L 617.678605 105.709642 
L 620.338436 107.462909 
L 622.998267 109.453984 
L 625.658099 111.692904 
L 628.31793 114.184863 
L 631.509728 117.507515 
L 634.701526 121.177411 
L 638.42529 125.85221 
L 642.68102 131.602152 
L 654.916244 148.511322 
L 657.576076 151.737927 
L 660.235907 154.598482 
L 662.363772 156.555889 
L 664.491637 158.163832 
L 666.087536 159.110745 
L 667.683435 159.813582 
L 669.279334 160.253787 
L 670.875233 160.414291 
L 672.471131 160.279795 
L 674.06703 159.837038 
L 675.662929 159.075054 
L 677.258828 157.985405 
L 678.854727 156.562394 
L 680.450626 154.803237 
L 682.046524 152.708216 
L 683.642423 150.280782 
L 685.770288 146.539141 
L 687.898153 142.243661 
L 690.026019 137.429349 
L 692.68585 130.750951 
L 695.345681 123.439793 
L 698.537479 114.01074 
L 703.325176 99.051704 
L 710.240737 77.412892 
L 713.432535 68.08867 
L 716.092366 60.894501 
L 718.752198 54.356205 
L 720.880063 49.667776 
L 723.007928 45.507865 
L 725.135793 41.90897 
L 726.731692 39.591758 
L 728.327591 37.608467 
L 729.92349 35.961481 
L 731.519388 34.650047 
L 733.115287 33.670393 
L 734.711186 33.015884 
L 736.307085 32.677218 
L 737.902984 32.642635 
L 739.498883 32.898165 
L 741.094781 33.42789 
L 742.69068 34.214212 
L 744.286579 35.238145 
L 746.414444 36.938155 
L 748.542309 38.975014 
L 750.670174 41.297559 
L 753.330006 44.524164 
L 756.521804 48.740763 
L 761.841466 56.193705 
L 768.225062 65.06966 
L 771.948826 69.902572 
L 775.140623 73.734792 
L 778.332421 77.234059 
L 781.524219 80.376263 
L 784.18405 82.716087 
L 786.843881 84.80534 
L 789.503713 86.652265 
L 792.163544 88.26924 
L 795.355342 89.927905 
L 798.54714 91.307956 
L 801.738937 92.441631 
L 804.930735 93.361393 
L 808.654499 94.205778 
L 810.250398 94.503139 
L 810.250398 94.503139 
" clip-path="url(#pbb562d2e99)" style="fill: none; stroke: #3a6ea5; stroke-width: 2.2; stroke-linecap: square"/>
   </g>
   <g id="line2d_64">
    <path d="M 587.383125 96.517743 
L 820.863125 96.517743 
" clip-path="url(#pbb562d2e99)" style="fill: none; stroke: #cccccc; stroke-width: 0.7; stroke-linecap: square"/>
   </g>
   <g id="patch_14">
    <path d="M 587.383125 167.0264 
L 587.383125 21.56 
" style="fill: none; stroke: #000000; stroke-width: 0.8; stroke-linejoin: miter; stroke-linecap: square"/>
   </g>
   <g id="patch_15">
    <path d="M 820.863125 167.0264 
L 820.863125 21.56 
" style="fill: none; stroke: #000000; stroke-width: 0.8; stroke-linejoin: miter; stroke-linecap: square"/>
   </g>
   <g id="patch_16">
    <path d="M 587.383125 167.0264 
L 820.863125 167.0264 
" style="fill: none; stroke: #000000; stroke-width: 0.8; stroke-linejoin: miter; stroke-linecap: square"/>
   </g>
   <g id="patch_17">
    <path d="M 587.383125 21.56 
L 820.863125 21.56 
" style="fill: none; stroke: #000000; stroke-width: 0.8; stroke-linejoin: miter; stroke-linecap: square"/>
   </g>
   <g id="text_37">
    <!-- direct count: components $-$ holes -->
    <g style="fill: #777777" transform="translate(634.464125 216.484976) scale(0.082 -0.082)">
     <defs>
      <path id="DejaVuSans-Oblique-75" d="M 428 1388 
L 838 3500 
L 1416 3500 
L 1006 1409 
Q 975 1256 961 1147 
Q 947 1038 947 966 
Q 947 700 1109 554 
Q 1272 409 1569 409 
Q 2031 409 2368 721 
Q 2706 1034 2809 1563 
L 3194 3500 
L 3769 3500 
L 3091 0 
L 2516 0 
L 2631 550 
Q 2388 244 2052 76 
Q 1716 -91 1338 -91 
Q 878 -91 622 161 
Q 366 413 366 863 
Q 366 956 381 1097 
Q 397 1238 428 1388 
z
" transform="scale(0.015625)"/>
      <path id="DejaVuSans-Oblique-3a" d="M 978 3309 
L 1638 3309 
L 1484 2516 
L 825 2516 
L 978 3309 
z
M 488 794 
L 1147 794 
L 991 0 
L 331 0 
L 488 794 
z
" transform="scale(0.015625)"/>
      <path id="DejaVuSans-Oblique-70" d="M 3175 2156 
Q 3175 2616 2975 2859 
Q 2775 3103 2400 3103 
Q 2144 3103 1911 2972 
Q 1678 2841 1497 2591 
Q 1319 2344 1212 1994 
Q 1106 1644 1106 1300 
Q 1106 863 1306 627 
Q 1506 391 1875 391 
Q 2147 391 2380 519 
Q 2613 647 2778 891 
Q 2956 1147 3065 1494 
Q 3175 1841 3175 2156 
z
M 1394 2969 
Q 1625 3272 1939 3428 
Q 2253 3584 2638 3584 
Q 3175 3584 3472 3232 
Q 3769 2881 3769 2247 
Q 3769 1728 3584 1258 
Q 3400 788 3053 416 
Q 2822 169 2531 39 
Q 2241 -91 1919 -91 
Q 1547 -91 1294 64 
Q 1041 219 916 525 
L 556 -1331 
L -19 -1331 
L 922 3500 
L 1497 3500 
L 1394 2969 
z
" transform="scale(0.015625)"/>
     </defs>
     <use xlink:href="#DejaVuSans-Oblique-64" transform="translate(0 0.015625)"/>
     <use xlink:href="#DejaVuSans-Oblique-69" transform="translate(63.476562 0.015625)"/>
     <use xlink:href="#DejaVuSans-Oblique-72" transform="translate(91.259766 0.015625)"/>
     <use xlink:href="#DejaVuSans-Oblique-65" transform="translate(132.373047 0.015625)"/>
     <use xlink:href="#DejaVuSans-Oblique-63" transform="translate(193.896484 0.015625)"/>
     <use xlink:href="#DejaVuSans-Oblique-74" transform="translate(248.876953 0.015625)"/>
     <use xlink:href="#DejaVuSans-Oblique-20" transform="translate(288.085938 0.015625)"/>
     <use xlink:href="#DejaVuSans-Oblique-63" transform="translate(319.873047 0.015625)"/>
     <use xlink:href="#DejaVuSans-Oblique-6f" transform="translate(374.853516 0.015625)"/>
     <use xlink:href="#DejaVuSans-Oblique-75" transform="translate(436.035156 0.015625)"/>
     <use xlink:href="#DejaVuSans-Oblique-6e" transform="translate(499.414062 0.015625)"/>
     <use xlink:href="#DejaVuSans-Oblique-74" transform="translate(562.792969 0.015625)"/>
     <use xlink:href="#DejaVuSans-Oblique-3a" transform="translate(602.001953 0.015625)"/>
     <use xlink:href="#DejaVuSans-Oblique-20" transform="translate(635.693359 0.015625)"/>
     <use xlink:href="#DejaVuSans-Oblique-63" transform="translate(667.480469 0.015625)"/>
     <use xlink:href="#DejaVuSans-Oblique-6f" transform="translate(722.460938 0.015625)"/>
     <use xlink:href="#DejaVuSans-Oblique-6d" transform="translate(783.642578 0.015625)"/>
     <use xlink:href="#DejaVuSans-Oblique-70" transform="translate(881.054688 0.015625)"/>
     <use xlink:href="#DejaVuSans-Oblique-6f" transform="translate(944.53125 0.015625)"/>
     <use xlink:href="#DejaVuSans-Oblique-6e" transform="translate(1005.712891 0.015625)"/>
     <use xlink:href="#DejaVuSans-Oblique-65" transform="translate(1069.091797 0.015625)"/>
     <use xlink:href="#DejaVuSans-Oblique-6e" transform="translate(1130.615234 0.015625)"/>
     <use xlink:href="#DejaVuSans-Oblique-74" transform="translate(1193.994141 0.015625)"/>
     <use xlink:href="#DejaVuSans-Oblique-73" transform="translate(1233.203125 0.015625)"/>
     <use xlink:href="#DejaVuSans-Oblique-20" transform="translate(1285.302734 0.015625)"/>
     <use xlink:href="#DejaVuSans-2212" transform="translate(1317.089844 0.015625)"/>
     <use xlink:href="#DejaVuSans-Oblique-20" transform="translate(1400.878906 0.015625)"/>
     <use xlink:href="#DejaVuSans-Oblique-68" transform="translate(1432.666016 0.015625)"/>
     <use xlink:href="#DejaVuSans-Oblique-6f" transform="translate(1496.044922 0.015625)"/>
     <use xlink:href="#DejaVuSans-Oblique-6c" transform="translate(1557.226562 0.015625)"/>
     <use xlink:href="#DejaVuSans-Oblique-65" transform="translate(1585.009766 0.015625)"/>
     <use xlink:href="#DejaVuSans-Oblique-73" transform="translate(1646.533203 0.015625)"/>
    </g>
   </g>
   <g id="text_38">
    <!-- Euler char.  $\chi(\nu)$ -->
    <g transform="translate(660.233125 15.56) scale(0.11 -0.11)">
     <defs>
      <path id="DejaVuSans-45" d="M 628 4666 
L 3578 4666 
L 3578 4134 
L 1259 4134 
L 1259 2753 
L 3481 2753 
L 3481 2222 
L 1259 2222 
L 1259 531 
L 3634 531 
L 3634 0 
L 628 0 
L 628 4666 
z
" transform="scale(0.015625)"/>
      <path id="DejaVuSans-63" d="M 3122 3366 
L 3122 2828 
Q 2878 2963 2633 3030 
Q 2388 3097 2138 3097 
Q 1578 3097 1268 2742 
Q 959 2388 959 1747 
Q 959 1106 1268 751 
Q 1578 397 2138 397 
Q 2388 397 2633 464 
Q 2878 531 3122 666 
L 3122 134 
Q 2881 22 2623 -34 
Q 2366 -91 2075 -91 
Q 1284 -91 818 406 
Q 353 903 353 1747 
Q 353 2603 823 3093 
Q 1294 3584 2113 3584 
Q 2378 3584 2631 3529 
Q 2884 3475 3122 3366 
z
" transform="scale(0.015625)"/>
      <path id="DejaVuSans-Oblique-3c7" d="M 1922 -781 
L 1691 416 
L 394 -1334 
L -284 -1334 
L 1553 1141 
L 1269 2613 
Q 1194 3006 713 3006 
L 559 3006 
L 653 3500 
L 872 3494 
Q 1675 3472 1775 2950 
L 2006 1753 
L 3303 3503 
L 3981 3503 
L 2144 1028 
L 2428 -444 
Q 2503 -838 2984 -838 
L 3138 -838 
L 3044 -1331 
L 2825 -1325 
Q 2022 -1303 1922 -781 
z
" transform="scale(0.015625)"/>
     </defs>
     <use xlink:href="#DejaVuSans-45" transform="translate(0 0.015625)"/>
     <use xlink:href="#DejaVuSans-75" transform="translate(63.183594 0.015625)"/>
     <use xlink:href="#DejaVuSans-6c" transform="translate(126.5625 0.015625)"/>
     <use xlink:href="#DejaVuSans-65" transform="translate(154.345703 0.015625)"/>
     <use xlink:href="#DejaVuSans-72" transform="translate(215.869141 0.015625)"/>
     <use xlink:href="#DejaVuSans-20" transform="translate(256.982422 0.015625)"/>
     <use xlink:href="#DejaVuSans-63" transform="translate(288.769531 0.015625)"/>
     <use xlink:href="#DejaVuSans-68" transform="translate(343.75 0.015625)"/>
     <use xlink:href="#DejaVuSans-61" transform="translate(407.128906 0.015625)"/>
     <use xlink:href="#DejaVuSans-72" transform="translate(468.408203 0.015625)"/>
     <use xlink:href="#DejaVuSans-2e" transform="translate(509.521484 0.015625)"/>
     <use xlink:href="#DejaVuSans-20" transform="translate(541.308594 0.015625)"/>
     <use xlink:href="#DejaVuSans-20" transform="translate(573.095703 0.015625)"/>
     <use xlink:href="#DejaVuSans-Oblique-3c7" transform="translate(604.882812 0.015625)"/>
     <use xlink:href="#DejaVuSans-28" transform="translate(664.0625 0.015625)"/>
     <use xlink:href="#DejaVuSans-Oblique-3bd" transform="translate(703.076172 0.015625)"/>
     <use xlink:href="#DejaVuSans-29" transform="translate(758.935547 0.015625)"/>
    </g>
   </g>
   <g id="line2d_65">
    <g clip-path="url(#pbb562d2e99)">
     <use xlink:href="#m737e5021f9" x="597.995852" y="98.358703" style="fill: #e6953c; stroke: #e6953c"/>
     <use xlink:href="#m737e5021f9" x="604.628807" y="99.903794" style="fill: #e6953c; stroke: #e6953c"/>
     <use xlink:href="#m737e5021f9" x="611.261761" y="101.974874" style="fill: #e6953c; stroke: #e6953c"/>
     <use xlink:href="#m737e5021f9" x="617.894716" y="105.591045" style="fill: #e6953c; stroke: #e6953c"/>
     <use xlink:href="#m737e5021f9" x="624.52767" y="110.489313" style="fill: #e6953c; stroke: #e6953c"/>
     <use xlink:href="#m737e5021f9" x="631.160625" y="116.077941" style="fill: #e6953c; stroke: #e6953c"/>
     <use xlink:href="#m737e5021f9" x="637.79358" y="124.033518" style="fill: #e6953c; stroke: #e6953c"/>
     <use xlink:href="#m737e5021f9" x="644.426534" y="132.810951" style="fill: #e6953c; stroke: #e6953c"/>
     <use xlink:href="#m737e5021f9" x="651.059489" y="141.78563" style="fill: #e6953c; stroke: #e6953c"/>
     <use xlink:href="#m737e5021f9" x="657.692443" y="149.60971" style="fill: #e6953c; stroke: #e6953c"/>
     <use xlink:href="#m737e5021f9" x="664.325398" y="154.277858" style="fill: #e6953c; stroke: #e6953c"/>
     <use xlink:href="#m737e5021f9" x="670.958352" y="154.869595" style="fill: #e6953c; stroke: #e6953c"/>
     <use xlink:href="#m737e5021f9" x="677.591307" y="152.502646" style="fill: #e6953c; stroke: #e6953c"/>
     <use xlink:href="#m737e5021f9" x="684.224261" y="142.607487" style="fill: #e6953c; stroke: #e6953c"/>
     <use xlink:href="#m737e5021f9" x="690.857216" y="129.457774" style="fill: #e6953c; stroke: #e6953c"/>
     <use xlink:href="#m737e5021f9" x="697.49017" y="111.376919" style="fill: #e6953c; stroke: #e6953c"/>
     <use xlink:href="#m737e5021f9" x="704.123125" y="92.178338" style="fill: #e6953c; stroke: #e6953c"/>
     <use xlink:href="#m737e5021f9" x="710.75608" y="72.092151" style="fill: #e6953c; stroke: #e6953c"/>
     <use xlink:href="#m737e5021f9" x="717.389034" y="53.025067" style="fill: #e6953c; stroke: #e6953c"/>
     <use xlink:href="#m737e5021f9" x="724.021989" y="38.889125" style="fill: #e6953c; stroke: #e6953c"/>
     <use xlink:href="#m737e5021f9" x="730.654943" y="30.17744" style="fill: #e6953c; stroke: #e6953c"/>
     <use xlink:href="#m737e5021f9" x="737.287898" y="28.172109" style="fill: #e6953c; stroke: #e6953c"/>
     <use xlink:href="#m737e5021f9" x="743.920852" y="31.196543" style="fill: #e6953c; stroke: #e6953c"/>
     <use xlink:href="#m737e5021f9" x="750.553807" y="36.489303" style="fill: #e6953c; stroke: #e6953c"/>
     <use xlink:href="#m737e5021f9" x="757.186761" y="48.488416" style="fill: #e6953c; stroke: #e6953c"/>
     <use xlink:href="#m737e5021f9" x="763.819716" y="58.547946" style="fill: #e6953c; stroke: #e6953c"/>
     <use xlink:href="#m737e5021f9" x="770.45267" y="68.180111" style="fill: #e6953c; stroke: #e6953c"/>
     <use xlink:href="#m737e5021f9" x="777.085625" y="75.478202" style="fill: #e6953c; stroke: #e6953c"/>
     <use xlink:href="#m737e5021f9" x="783.71858" y="82.776293" style="fill: #e6953c; stroke: #e6953c"/>
     <use xlink:href="#m737e5021f9" x="790.351534" y="87.312944" style="fill: #e6953c; stroke: #e6953c"/>
     <use xlink:href="#m737e5021f9" x="796.984489" y="90.304503" style="fill: #e6953c; stroke: #e6953c"/>
     <use xlink:href="#m737e5021f9" x="803.617443" y="92.638578" style="fill: #e6953c; stroke: #e6953c"/>
     <use xlink:href="#m737e5021f9" x="810.250398" y="94.380915" style="fill: #e6953c; stroke: #e6953c"/>
    </g>
   </g>
  </g>
 </g>
 <defs>
  <clipPath id="p3c217b4674">
   <rect x="30.103125" y="21.56" width="233.48" height="145.4664"/>
  </clipPath>
  <clipPath id="p203a0ac284">
   <rect x="308.743125" y="21.56" width="233.48" height="145.4664"/>
  </clipPath>
  <clipPath id="pbb562d2e99">
   <rect x="587.383125" y="21.56" width="233.48" height="145.4664"/>
  </clipPath>
 </defs>
</svg>
