<?xml version="1.0" encoding="UTF-8"?>
<svg xmlns="http://www.w3.org/2000/svg" xmlns:xlink="http://www.w3.org/1999/xlink" width="434.718pt" height="129.674pt" viewBox="0 0 434.718 129.674">
<defs>
<g>
<g id="glyph-0-0">
<path d="M 2.8125 -1 L 2.8125 -1.4375 L 2.5625 -1.4375 L 2.5625 -1.015625 C 2.5625 -0.46875 2.3125 -0.171875 2.015625 -0.171875 C 1.484375 -0.171875 1.484375 -0.84375 1.484375 -0.984375 L 1.484375 -3.171875 L 2.671875 -3.171875 L 2.671875 -3.421875 L 1.484375 -3.421875 L 1.484375 -4.890625 L 1.234375 -4.890625 C 1.21875 -4.171875 0.90625 -3.40625 0.15625 -3.390625 L 0.15625 -3.171875 L 0.875 -3.171875 L 0.875 -1 C 0.875 -0.0625 1.59375 0.078125 1.953125 0.078125 C 2.484375 0.078125 2.8125 -0.390625 2.8125 -1 Z M 2.8125 -1 "/>
</g>
<g id="glyph-0-1">
<path d="M 4.46875 0 L 4.46875 -0.265625 C 3.953125 -0.265625 3.859375 -0.265625 3.859375 -0.625 L 3.859375 -2.40625 C 3.859375 -3.078125 3.5625 -3.5 2.734375 -3.5 C 2.03125 -3.5 1.65625 -3.0625 1.515625 -2.8125 L 1.515625 -5.515625 L 0.328125 -5.4375 L 0.328125 -5.171875 C 0.859375 -5.171875 0.9375 -5.109375 0.9375 -4.71875 L 0.9375 -0.625 C 0.9375 -0.265625 0.828125 -0.265625 0.328125 -0.265625 L 0.328125 0 C 0.671875 -0.03125 1.015625 -0.03125 1.234375 -0.03125 C 1.46875 -0.03125 1.796875 -0.03125 2.140625 0 L 2.140625 -0.265625 C 1.625 -0.265625 1.53125 -0.265625 1.53125 -0.625 L 1.53125 -2.0625 C 1.53125 -2.890625 2.171875 -3.28125 2.65625 -3.28125 C 3.140625 -3.28125 3.265625 -2.9375 3.265625 -2.4375 L 3.265625 -0.625 C 3.265625 -0.265625 3.171875 -0.265625 2.65625 -0.265625 L 2.65625 0 C 3 -0.03125 3.34375 -0.03125 3.5625 -0.03125 C 3.796875 -0.03125 4.125 -0.03125 4.46875 0 Z M 4.46875 0 "/>
</g>
<g id="glyph-0-2">
<path d="M 3.046875 -3 C 3.046875 -3.28125 2.796875 -3.5 2.453125 -3.5 C 1.9375 -3.5 1.578125 -3.125 1.421875 -2.671875 L 1.40625 -2.671875 L 1.40625 -3.5 L 0.28125 -3.421875 L 0.28125 -3.15625 C 0.8125 -3.15625 0.875 -3.109375 0.875 -2.71875 L 0.875 -0.625 C 0.875 -0.265625 0.78125 -0.265625 0.28125 -0.265625 L 0.28125 0 C 0.59375 -0.03125 1.03125 -0.03125 1.21875 -0.03125 C 1.6875 -0.03125 1.703125 -0.03125 2.21875 0 L 2.21875 -0.265625 L 2.0625 -0.265625 C 1.484375 -0.265625 1.46875 -0.34375 1.46875 -0.640625 L 1.46875 -1.8125 C 1.46875 -2.40625 1.703125 -3.265625 2.46875 -3.28125 C 2.421875 -3.25 2.34375 -3.1875 2.34375 -3 C 2.34375 -2.765625 2.53125 -2.640625 2.703125 -2.640625 C 2.890625 -2.640625 3.046875 -2.78125 3.046875 -3 Z M 3.046875 -3 "/>
</g>
<g id="glyph-0-3">
<path d="M 3.5 -0.953125 C 3.5 -0.984375 3.484375 -1.0625 3.375 -1.0625 C 3.296875 -1.0625 3.28125 -1.015625 3.265625 -0.96875 C 2.96875 -0.1875 2.296875 -0.171875 2.140625 -0.171875 C 1.796875 -0.171875 1.421875 -0.328125 1.1875 -0.703125 C 0.953125 -1.0625 0.953125 -1.578125 0.953125 -1.8125 L 3.28125 -1.8125 C 3.453125 -1.8125 3.5 -1.8125 3.5 -2 C 3.5 -2.703125 3.125 -3.546875 2 -3.546875 C 1.015625 -3.546875 0.234375 -2.734375 0.234375 -1.734375 C 0.234375 -0.71875 1.09375 0.078125 2.09375 0.078125 C 3.109375 0.078125 3.5 -0.765625 3.5 -0.953125 Z M 2.96875 -2.015625 L 0.953125 -2.015625 C 1.03125 -3.140625 1.703125 -3.328125 2 -3.328125 C 2.921875 -3.328125 2.953125 -2.203125 2.96875 -2.015625 Z M 2.96875 -2.015625 "/>
</g>
<g id="glyph-0-4">
<path d="M 3.046875 -1.03125 C 3.046875 -1.40625 2.8125 -1.96875 1.875 -2.140625 C 1.8125 -2.15625 1.359375 -2.234375 1.328125 -2.234375 C 1.078125 -2.296875 0.703125 -2.453125 0.703125 -2.78125 C 0.703125 -3.015625 0.875 -3.34375 1.640625 -3.34375 C 2.53125 -3.34375 2.5625 -2.703125 2.578125 -2.46875 C 2.59375 -2.40625 2.640625 -2.390625 2.703125 -2.390625 C 2.828125 -2.390625 2.828125 -2.4375 2.828125 -2.59375 L 2.828125 -3.34375 C 2.828125 -3.46875 2.828125 -3.546875 2.734375 -3.546875 C 2.6875 -3.546875 2.671875 -3.546875 2.53125 -3.421875 C 2.515625 -3.40625 2.453125 -3.34375 2.421875 -3.34375 C 2.421875 -3.34375 2.40625 -3.34375 2.359375 -3.375 C 2.234375 -3.453125 2 -3.546875 1.640625 -3.546875 C 0.53125 -3.546875 0.28125 -2.9375 0.28125 -2.5625 C 0.28125 -2.15625 0.578125 -1.9375 0.59375 -1.90625 C 0.921875 -1.671875 1.09375 -1.640625 1.625 -1.546875 C 2 -1.46875 2.609375 -1.359375 2.609375 -0.8125 C 2.609375 -0.515625 2.40625 -0.140625 1.671875 -0.140625 C 0.875 -0.140625 0.640625 -0.765625 0.546875 -1.1875 C 0.515625 -1.28125 0.5 -1.328125 0.40625 -1.328125 C 0.28125 -1.328125 0.28125 -1.265625 0.28125 -1.109375 L 0.28125 -0.125 C 0.28125 0 0.28125 0.078125 0.375 0.078125 C 0.421875 0.078125 0.4375 0.078125 0.578125 -0.078125 C 0.625 -0.125 0.703125 -0.21875 0.75 -0.265625 C 1.109375 0.0625 1.484375 0.078125 1.6875 0.078125 C 2.703125 0.078125 3.046875 -0.5 3.046875 -1.03125 Z M 3.046875 -1.03125 "/>
</g>
<g id="glyph-0-5">
<path d="M 3.984375 -1.6875 C 3.984375 -2.6875 3.15625 -3.546875 2.109375 -3.546875 C 1.0625 -3.546875 0.234375 -2.6875 0.234375 -1.6875 C 0.234375 -0.703125 1.09375 0.078125 2.109375 0.078125 C 3.140625 0.078125 3.984375 -0.703125 3.984375 -1.6875 Z M 3.265625 -1.765625 C 3.265625 -1.40625 3.25 -0.96875 3.03125 -0.625 C 2.8125 -0.3125 2.453125 -0.171875 2.109375 -0.171875 C 1.671875 -0.171875 1.34375 -0.375 1.171875 -0.65625 C 0.96875 -0.984375 0.953125 -1.375 0.953125 -1.765625 C 0.953125 -2.0625 0.953125 -2.546875 1.1875 -2.890625 C 1.40625 -3.171875 1.734375 -3.328125 2.109375 -3.328125 C 2.515625 -3.328125 2.859375 -3.125 3.046875 -2.84375 C 3.265625 -2.515625 3.265625 -2.078125 3.265625 -1.765625 Z M 3.265625 -1.765625 "/>
</g>
<g id="glyph-0-6">
<path d="M 2.125 0 L 2.125 -0.265625 C 1.609375 -0.265625 1.515625 -0.265625 1.515625 -0.625 L 1.515625 -5.515625 L 0.328125 -5.4375 L 0.328125 -5.171875 C 0.875 -5.171875 0.9375 -5.109375 0.9375 -4.71875 L 0.9375 -0.625 C 0.9375 -0.265625 0.84375 -0.265625 0.328125 -0.265625 L 0.328125 0 C 0.640625 -0.03125 1.09375 -0.03125 1.21875 -0.03125 C 1.390625 -0.03125 1.8125 -0.03125 2.125 0 Z M 2.125 0 "/>
</g>
<g id="glyph-0-7">
<path d="M 4.40625 0 L 4.40625 -0.265625 C 3.859375 -0.265625 3.796875 -0.3125 3.796875 -0.703125 L 3.796875 -5.515625 L 2.609375 -5.4375 L 2.609375 -5.171875 C 3.15625 -5.171875 3.21875 -5.109375 3.21875 -4.71875 L 3.21875 -3.046875 C 2.9375 -3.34375 2.5625 -3.5 2.15625 -3.5 C 1.15625 -3.5 0.28125 -2.734375 0.28125 -1.703125 C 0.28125 -0.734375 1.078125 0.078125 2.078125 0.078125 C 2.546875 0.078125 2.9375 -0.140625 3.203125 -0.421875 L 3.203125 0.078125 Z M 3.203125 -0.984375 C 3.203125 -0.84375 3.203125 -0.8125 3.078125 -0.65625 C 2.859375 -0.328125 2.484375 -0.140625 2.109375 -0.140625 C 1.75 -0.140625 1.4375 -0.328125 1.234375 -0.625 C 1.03125 -0.9375 0.984375 -1.328125 0.984375 -1.703125 C 0.984375 -2.15625 1.0625 -2.484375 1.234375 -2.765625 C 1.4375 -3.0625 1.796875 -3.28125 2.1875 -3.28125 C 2.578125 -3.28125 2.953125 -3.09375 3.203125 -2.6875 Z M 3.203125 -0.984375 "/>
</g>
<g id="glyph-0-8">
<path d="M 6.09375 -2.828125 C 6.09375 -3.015625 5.90625 -3.015625 5.78125 -3.015625 L 0.78125 -3.015625 C 0.65625 -3.015625 0.46875 -3.015625 0.46875 -2.828125 C 0.46875 -2.640625 0.625 -2.640625 0.75 -2.640625 L 5.8125 -2.640625 C 5.9375 -2.640625 6.09375 -2.640625 6.09375 -2.828125 Z M 6.09375 -1.140625 C 6.09375 -1.328125 5.9375 -1.328125 5.8125 -1.328125 L 0.75 -1.328125 C 0.625 -1.328125 0.46875 -1.328125 0.46875 -1.140625 C 0.46875 -0.96875 0.65625 -0.96875 0.78125 -0.96875 L 5.78125 -0.96875 C 5.90625 -0.96875 6.09375 -0.96875 6.09375 -1.140625 Z M 6.09375 -1.140625 "/>
</g>
<g id="glyph-0-9">
<path d="M 4.40625 -1.71875 C 4.40625 -2.71875 3.59375 -3.5 2.609375 -3.5 C 1.984375 -3.5 1.59375 -3.171875 1.46875 -3.015625 L 1.46875 -5.515625 L 0.28125 -5.4375 L 0.28125 -5.171875 C 0.8125 -5.171875 0.875 -5.109375 0.875 -4.71875 L 0.875 0 L 1.125 0 L 1.421875 -0.5 C 1.609375 -0.21875 1.984375 0.078125 2.515625 0.078125 C 3.53125 0.078125 4.40625 -0.703125 4.40625 -1.71875 Z M 3.703125 -1.71875 C 3.703125 -1.546875 3.703125 -0.984375 3.40625 -0.609375 C 3.125 -0.25 2.75 -0.140625 2.484375 -0.140625 C 2.109375 -0.140625 1.796875 -0.34375 1.578125 -0.65625 C 1.484375 -0.796875 1.484375 -0.8125 1.484375 -0.96875 L 1.484375 -2.515625 C 1.484375 -2.671875 1.484375 -2.6875 1.609375 -2.828125 C 1.84375 -3.125 2.21875 -3.28125 2.5625 -3.28125 C 2.984375 -3.28125 3.296875 -3.03125 3.453125 -2.796875 C 3.59375 -2.578125 3.703125 -2.3125 3.703125 -1.71875 Z M 3.703125 -1.71875 "/>
</g>
<g id="glyph-0-10">
<path d="M 2.0625 0 L 2.0625 -0.265625 C 1.546875 -0.265625 1.515625 -0.296875 1.515625 -0.609375 L 1.515625 -3.5 L 0.359375 -3.421875 L 0.359375 -3.15625 C 0.859375 -3.15625 0.9375 -3.109375 0.9375 -2.71875 L 0.9375 -0.625 C 0.9375 -0.265625 0.84375 -0.265625 0.328125 -0.265625 L 0.328125 0 C 0.640625 -0.03125 1.09375 -0.03125 1.203125 -0.03125 C 1.3125 -0.03125 1.796875 -0.03125 2.0625 0 Z M 1.609375 -4.78125 C 1.609375 -5.046875 1.40625 -5.234375 1.171875 -5.234375 C 0.953125 -5.234375 0.734375 -5.046875 0.734375 -4.78125 C 0.734375 -4.5625 0.921875 -4.34375 1.171875 -4.34375 C 1.421875 -4.34375 1.609375 -4.5625 1.609375 -4.78125 Z M 1.609375 -4.78125 "/>
</g>
<g id="glyph-0-11">
<path d="M 4.46875 0 L 4.46875 -0.265625 C 3.953125 -0.265625 3.859375 -0.265625 3.859375 -0.625 L 3.859375 -2.40625 C 3.859375 -3.078125 3.5625 -3.5 2.734375 -3.5 C 1.9375 -3.5 1.578125 -2.9375 1.484375 -2.75 L 1.484375 -3.5 L 0.328125 -3.421875 L 0.328125 -3.15625 C 0.859375 -3.15625 0.9375 -3.109375 0.9375 -2.71875 L 0.9375 -0.625 C 0.9375 -0.265625 0.828125 -0.265625 0.328125 -0.265625 L 0.328125 0 C 0.671875 -0.03125 1.015625 -0.03125 1.234375 -0.03125 C 1.46875 -0.03125 1.796875 -0.03125 2.140625 0 L 2.140625 -0.265625 C 1.625 -0.265625 1.53125 -0.265625 1.53125 -0.625 L 1.53125 -2.0625 C 1.53125 -2.890625 2.171875 -3.28125 2.65625 -3.28125 C 3.140625 -3.28125 3.265625 -2.9375 3.265625 -2.4375 L 3.265625 -0.625 C 3.265625 -0.265625 3.171875 -0.265625 2.65625 -0.265625 L 2.65625 0 C 3 -0.03125 3.34375 -0.03125 3.5625 -0.03125 C 3.796875 -0.03125 4.125 -0.03125 4.46875 0 Z M 4.46875 0 "/>
</g>
<g id="glyph-0-12">
<path d="M 6.625 -0.078125 C 6.625 -0.078125 6.625 -0.109375 6.5625 -0.203125 L 3.75 -5.515625 C 3.671875 -5.671875 3.578125 -5.671875 3.515625 -5.671875 C 3.453125 -5.671875 3.359375 -5.671875 3.28125 -5.515625 L 0.46875 -0.203125 C 0.40625 -0.109375 0.40625 -0.078125 0.40625 -0.078125 C 0.40625 0 0.46875 0 0.59375 0 L 6.4375 0 C 6.5625 0 6.625 0 6.625 -0.078125 Z M 5.515625 -0.625 L 0.984375 -0.625 L 3.25 -4.90625 Z M 5.515625 -0.625 "/>
</g>
<g id="glyph-0-13">
<path d="M 4.09375 -0.71875 L 4.09375 -1.15625 L 3.84375 -1.15625 L 3.84375 -0.71875 C 3.84375 -0.390625 3.71875 -0.265625 3.5625 -0.265625 C 3.265625 -0.265625 3.265625 -0.625 3.265625 -0.71875 L 3.265625 -2.375 C 3.265625 -3.15625 2.5 -3.546875 1.78125 -3.546875 C 1.125 -3.546875 0.53125 -3.296875 0.53125 -2.765625 C 0.53125 -2.53125 0.703125 -2.390625 0.90625 -2.390625 C 1.125 -2.390625 1.28125 -2.546875 1.28125 -2.765625 C 1.28125 -2.953125 1.15625 -3.078125 0.984375 -3.125 C 1.28125 -3.328125 1.703125 -3.328125 1.765625 -3.328125 C 2.21875 -3.328125 2.65625 -3.015625 2.65625 -2.359375 L 2.65625 -2.109375 C 2.1875 -2.09375 1.65625 -2.0625 1.109375 -1.84375 C 0.40625 -1.53125 0.265625 -1.078125 0.265625 -0.8125 C 0.265625 -0.125 1.078125 0.078125 1.625 0.078125 C 2.203125 0.078125 2.5625 -0.25 2.734375 -0.5625 C 2.78125 -0.265625 2.984375 0.046875 3.328125 0.046875 C 3.40625 0.046875 4.09375 0.015625 4.09375 -0.71875 Z M 2.65625 -1.125 C 2.65625 -0.34375 2 -0.140625 1.6875 -0.140625 C 1.265625 -0.140625 0.921875 -0.421875 0.921875 -0.796875 C 0.921875 -1.328125 1.421875 -1.875 2.65625 -1.90625 Z M 2.65625 -1.125 "/>
</g>
<g id="glyph-0-14">
<path d="M 4.09375 -3.1875 C 4.09375 -3.328125 4 -3.59375 3.640625 -3.59375 C 3.5 -3.59375 3.125 -3.5625 2.765625 -3.234375 C 2.5625 -3.375 2.25 -3.5 1.875 -3.5 C 1.09375 -3.5 0.515625 -2.953125 0.515625 -2.34375 C 0.515625 -1.96875 0.71875 -1.6875 0.875 -1.53125 C 0.703125 -1.328125 0.640625 -1.078125 0.640625 -0.875 C 0.640625 -0.5625 0.796875 -0.3125 0.984375 -0.171875 C 0.5625 -0.0625 0.234375 0.25 0.234375 0.609375 C 0.234375 1.1875 1.0625 1.625 2.109375 1.625 C 3.109375 1.625 3.984375 1.21875 3.984375 0.59375 C 3.984375 0.171875 3.71875 -0.171875 3.453125 -0.296875 C 2.984375 -0.546875 2.59375 -0.546875 1.828125 -0.546875 L 1.375 -0.546875 C 1.125 -0.578125 0.9375 -0.78125 0.9375 -1.078125 C 0.9375 -1.265625 0.984375 -1.34375 1.03125 -1.40625 C 1.375 -1.203125 1.671875 -1.171875 1.875 -1.171875 C 2.65625 -1.171875 3.234375 -1.71875 3.234375 -2.34375 C 3.234375 -2.640625 3.109375 -2.890625 2.90625 -3.109375 C 3.015625 -3.203125 3.28125 -3.359375 3.671875 -3.375 C 3.640625 -3.34375 3.609375 -3.3125 3.609375 -3.1875 C 3.609375 -3.03125 3.703125 -2.9375 3.84375 -2.9375 C 3.953125 -2.9375 4.09375 -3 4.09375 -3.1875 Z M 2.609375 -2.34375 C 2.609375 -2.046875 2.5625 -1.84375 2.453125 -1.671875 C 2.28125 -1.453125 2.015625 -1.40625 1.875 -1.40625 C 1.140625 -1.40625 1.140625 -2.15625 1.140625 -2.34375 C 1.140625 -2.625 1.171875 -2.84375 1.296875 -3 C 1.4375 -3.1875 1.65625 -3.28125 1.875 -3.28125 C 2.609375 -3.28125 2.609375 -2.515625 2.609375 -2.34375 Z M 3.5 0.609375 C 3.5 1.03125 2.890625 1.40625 2.109375 1.40625 C 1.3125 1.40625 0.703125 1.03125 0.703125 0.609375 C 0.703125 0.4375 0.828125 -0.03125 1.484375 -0.03125 L 2.25 -0.03125 C 2.46875 -0.03125 3.5 -0.03125 3.5 0.609375 Z M 3.5 0.609375 "/>
</g>
<g id="glyph-0-15">
<path d="M 4.09375 -5.125 L 2.078125 -5.125 C 1.875 -5.125 1.625 -5.125 1.4375 -5.140625 C 1.015625 -5.171875 1.015625 -5.25 0.984375 -5.375 L 0.734375 -5.375 L 0.46875 -3.703125 L 0.71875 -3.703125 C 0.734375 -3.8125 0.8125 -4.359375 0.9375 -4.4375 C 1.015625 -4.46875 1.609375 -4.46875 1.734375 -4.46875 L 3.421875 -4.46875 L 2.59375 -3.375 C 1.6875 -2.15625 1.5 -0.90625 1.5 -0.28125 C 1.5 -0.203125 1.5 0.171875 1.875 0.171875 C 2.25 0.171875 2.25 -0.1875 2.25 -0.28125 L 2.25 -0.671875 C 2.25 -1.8125 2.4375 -2.75 2.828125 -3.265625 L 4.03125 -4.84375 C 4.09375 -4.9375 4.09375 -4.953125 4.09375 -5.125 Z M 4.09375 -5.125 "/>
</g>
<g id="glyph-0-16">
<path d="M 2.8125 1.890625 C 2.8125 1.859375 2.796875 1.859375 2.703125 1.75 C 1.609375 0.71875 1.34375 -0.75 1.34375 -1.984375 C 1.34375 -4.28125 2.28125 -5.359375 2.6875 -5.71875 C 2.796875 -5.828125 2.8125 -5.828125 2.8125 -5.875 C 2.8125 -5.90625 2.78125 -5.96875 2.703125 -5.96875 C 2.5625 -5.96875 2.171875 -5.5625 2.109375 -5.484375 C 1.046875 -4.375 0.8125 -2.9375 0.8125 -1.984375 C 0.8125 -0.203125 1.5625 1.21875 2.640625 1.984375 C 2.71875 1.984375 2.8125 1.984375 2.8125 1.890625 Z M 2.8125 1.890625 "/>
</g>
<g id="glyph-0-17">
<path d="M 3 -5.03125 C 3 -5.375 2.671875 -5.59375 2.25 -5.59375 C 1.640625 -5.59375 0.9375 -5.171875 0.9375 -4.3125 L 0.9375 -3.421875 L 0.28125 -3.421875 L 0.28125 -3.171875 L 0.9375 -3.171875 L 0.9375 -0.625 C 0.9375 -0.265625 0.84375 -0.265625 0.328125 -0.265625 L 0.328125 0 C 0.640625 -0.03125 1.078125 -0.03125 1.265625 -0.03125 C 1.734375 -0.03125 1.75 -0.03125 2.28125 0 L 2.28125 -0.265625 L 2.109375 -0.265625 C 1.53125 -0.265625 1.515625 -0.34375 1.515625 -0.640625 L 1.515625 -3.171875 L 2.46875 -3.171875 L 2.46875 -3.421875 L 1.5 -3.421875 L 1.5 -4.328125 C 1.5 -5.015625 1.890625 -5.375 2.234375 -5.375 C 2.359375 -5.375 2.4375 -5.34375 2.46875 -5.34375 C 2.328125 -5.265625 2.28125 -5.125 2.28125 -5.03125 C 2.28125 -4.8125 2.4375 -4.671875 2.640625 -4.671875 C 2.859375 -4.671875 3 -4.8125 3 -5.03125 Z M 3 -5.03125 "/>
</g>
<g id="glyph-0-18">
<path d="M 6.8125 0 L 6.8125 -0.265625 C 6.3125 -0.265625 6.21875 -0.265625 6.21875 -0.625 L 6.21875 -2.40625 C 6.21875 -3.046875 5.9375 -3.5 5.0625 -3.5 C 4.328125 -3.5 3.96875 -3 3.84375 -2.78125 C 3.703125 -3.34375 3.25 -3.5 2.734375 -3.5 C 1.953125 -3.5 1.59375 -2.953125 1.484375 -2.75 L 1.484375 -3.5 L 0.328125 -3.421875 L 0.328125 -3.15625 C 0.859375 -3.15625 0.9375 -3.109375 0.9375 -2.71875 L 0.9375 -0.625 C 0.9375 -0.265625 0.828125 -0.265625 0.328125 -0.265625 L 0.328125 0 C 0.671875 -0.03125 1.015625 -0.03125 1.234375 -0.03125 C 1.46875 -0.03125 1.796875 -0.03125 2.140625 0 L 2.140625 -0.265625 C 1.625 -0.265625 1.53125 -0.265625 1.53125 -0.625 L 1.53125 -2.0625 C 1.53125 -2.890625 2.15625 -3.28125 2.671875 -3.28125 C 3.1875 -3.28125 3.265625 -2.875 3.265625 -2.4375 L 3.265625 -0.625 C 3.265625 -0.265625 3.171875 -0.265625 2.671875 -0.265625 L 2.671875 0 C 3 -0.03125 3.359375 -0.03125 3.578125 -0.03125 C 3.796875 -0.03125 4.140625 -0.03125 4.484375 0 L 4.484375 -0.265625 C 3.96875 -0.265625 3.875 -0.265625 3.875 -0.625 L 3.875 -2.0625 C 3.875 -2.890625 4.5 -3.28125 5 -3.28125 C 5.515625 -3.28125 5.609375 -2.875 5.609375 -2.4375 L 5.609375 -0.625 C 5.609375 -0.265625 5.515625 -0.265625 5 -0.265625 L 5 0 C 5.34375 -0.03125 5.6875 -0.03125 5.90625 -0.03125 C 6.140625 -0.03125 6.46875 -0.03125 6.8125 0 Z M 6.8125 0 "/>
</g>
<g id="glyph-0-19">
<path d="M 3.859375 -1.359375 C 3.859375 -2.015625 3.34375 -2.625 2.53125 -2.796875 C 3.15625 -3.015625 3.625 -3.5625 3.625 -4.203125 C 3.625 -4.828125 2.90625 -5.28125 2.078125 -5.28125 C 1.234375 -5.28125 0.59375 -4.828125 0.59375 -4.21875 C 0.59375 -3.921875 0.78125 -3.796875 1 -3.796875 C 1.234375 -3.796875 1.40625 -3.984375 1.40625 -4.203125 C 1.40625 -4.5 1.140625 -4.609375 0.96875 -4.625 C 1.296875 -5.0625 1.921875 -5.078125 2.0625 -5.078125 C 2.265625 -5.078125 2.875 -5.015625 2.875 -4.203125 C 2.875 -3.640625 2.640625 -3.3125 2.53125 -3.1875 C 2.296875 -2.9375 2.109375 -2.921875 1.625 -2.890625 C 1.46875 -2.875 1.40625 -2.875 1.40625 -2.765625 C 1.40625 -2.65625 1.484375 -2.65625 1.609375 -2.65625 L 2.015625 -2.65625 C 2.640625 -2.65625 3.03125 -2.1875 3.03125 -1.359375 C 3.03125 -0.359375 2.46875 -0.078125 2.046875 -0.078125 C 1.609375 -0.078125 1.015625 -0.234375 0.734375 -0.65625 C 1.03125 -0.65625 1.21875 -0.828125 1.21875 -1.09375 C 1.21875 -1.359375 1.046875 -1.53125 0.78125 -1.53125 C 0.578125 -1.53125 0.34375 -1.40625 0.34375 -1.078125 C 0.34375 -0.328125 1.15625 0.171875 2.0625 0.171875 C 3.125 0.171875 3.859375 -0.5625 3.859375 -1.359375 Z M 3.859375 -1.359375 "/>
</g>
<g id="glyph-0-20">
<path d="M 3.796875 -1.59375 C 3.796875 -2.515625 3.125 -3.328125 2.1875 -3.328125 C 1.796875 -3.328125 1.421875 -3.203125 1.109375 -2.9375 L 1.109375 -4.46875 C 1.21875 -4.4375 1.53125 -4.359375 1.875 -4.359375 C 2.859375 -4.359375 3.46875 -5.0625 3.46875 -5.171875 C 3.46875 -5.265625 3.40625 -5.28125 3.375 -5.28125 C 3.375 -5.28125 3.34375 -5.28125 3.265625 -5.25 C 2.953125 -5.125 2.59375 -5.03125 2.15625 -5.03125 C 1.6875 -5.03125 1.296875 -5.15625 1.0625 -5.25 C 0.984375 -5.28125 0.953125 -5.28125 0.953125 -5.28125 C 0.84375 -5.28125 0.84375 -5.203125 0.84375 -5.0625 L 0.84375 -2.734375 C 0.84375 -2.578125 0.84375 -2.484375 0.984375 -2.484375 C 1.046875 -2.484375 1.0625 -2.515625 1.109375 -2.578125 C 1.203125 -2.703125 1.5 -3.109375 2.171875 -3.109375 C 2.625 -3.109375 2.84375 -2.75 2.90625 -2.59375 C 3.046875 -2.3125 3.0625 -1.9375 3.0625 -1.625 C 3.0625 -1.34375 3.046875 -0.90625 2.828125 -0.5625 C 2.6875 -0.3125 2.359375 -0.078125 1.9375 -0.078125 C 1.421875 -0.078125 0.921875 -0.390625 0.734375 -0.921875 C 0.75 -0.90625 0.8125 -0.90625 0.8125 -0.90625 C 1.03125 -0.90625 1.203125 -1.046875 1.203125 -1.296875 C 1.203125 -1.59375 0.984375 -1.6875 0.8125 -1.6875 C 0.671875 -1.6875 0.421875 -1.609375 0.421875 -1.265625 C 0.421875 -0.5625 1.046875 0.171875 1.953125 0.171875 C 2.953125 0.171875 3.796875 -0.609375 3.796875 -1.59375 Z M 3.796875 -1.59375 "/>
</g>
<g id="glyph-0-21">
<path d="M 6.09375 -1.984375 C 6.09375 -2.171875 5.921875 -2.171875 5.8125 -2.171875 L 3.46875 -2.171875 L 3.46875 -4.515625 C 3.46875 -4.625 3.46875 -4.796875 3.28125 -4.796875 C 3.109375 -4.796875 3.109375 -4.625 3.109375 -4.515625 L 3.109375 -2.171875 L 0.75 -2.171875 C 0.640625 -2.171875 0.46875 -2.171875 0.46875 -1.984375 C 0.46875 -1.8125 0.640625 -1.8125 0.75 -1.8125 L 3.109375 -1.8125 L 3.109375 0.546875 C 3.109375 0.65625 3.109375 0.828125 3.28125 0.828125 C 3.46875 0.828125 3.46875 0.65625 3.46875 0.546875 L 3.46875 -1.8125 L 5.8125 -1.8125 C 5.921875 -1.8125 6.09375 -1.8125 6.09375 -1.984375 Z M 6.09375 -1.984375 "/>
</g>
<g id="glyph-0-22">
<path d="M 2.453125 -1.984375 C 2.453125 -2.75 2.328125 -3.65625 1.84375 -4.59375 C 1.453125 -5.328125 0.71875 -5.96875 0.578125 -5.96875 C 0.5 -5.96875 0.484375 -5.90625 0.484375 -5.875 C 0.484375 -5.84375 0.484375 -5.828125 0.578125 -5.71875 C 1.6875 -4.671875 1.9375 -3.21875 1.9375 -1.984375 C 1.9375 0.296875 1 1.375 0.59375 1.734375 C 0.484375 1.84375 0.484375 1.859375 0.484375 1.890625 C 0.484375 1.9375 0.5 1.984375 0.578125 1.984375 C 0.703125 1.984375 1.109375 1.578125 1.171875 1.515625 C 2.234375 0.390625 2.453125 -1.03125 2.453125 -1.984375 Z M 2.453125 -1.984375 "/>
</g>
<g id="glyph-0-23">
<path d="M 4.40625 -1.71875 C 4.40625 -2.71875 3.609375 -3.5 2.640625 -3.5 C 2.328125 -3.5 1.875 -3.421875 1.46875 -3.015625 L 1.46875 -3.5 L 0.28125 -3.421875 L 0.28125 -3.15625 C 0.84375 -3.15625 0.875 -3.109375 0.875 -2.78125 L 0.875 0.921875 C 0.875 1.28125 0.78125 1.28125 0.28125 1.28125 L 0.28125 1.546875 C 0.625 1.515625 0.96875 1.515625 1.1875 1.515625 C 1.421875 1.515625 1.75 1.515625 2.09375 1.546875 L 2.09375 1.28125 C 1.578125 1.28125 1.484375 1.28125 1.484375 0.921875 L 1.484375 -0.390625 C 1.859375 0.015625 2.265625 0.078125 2.515625 0.078125 C 3.53125 0.078125 4.40625 -0.703125 4.40625 -1.71875 Z M 3.703125 -1.71875 C 3.703125 -0.796875 3.125 -0.140625 2.484375 -0.140625 C 2.203125 -0.140625 1.84375 -0.265625 1.578125 -0.65625 C 1.484375 -0.796875 1.484375 -0.796875 1.484375 -0.953125 L 1.484375 -2.640625 C 1.671875 -2.96875 2.0625 -3.265625 2.5625 -3.265625 C 3.1875 -3.265625 3.703125 -2.578125 3.703125 -1.71875 Z M 3.703125 -1.71875 "/>
</g>
<g id="glyph-0-24">
<path d="M 4.328125 0 L 4.328125 -0.265625 C 3.828125 -0.265625 3.75 -0.296875 3.546875 -0.546875 L 2.453125 -1.859375 C 2.671875 -2.140625 2.90625 -2.40625 3.140625 -2.671875 C 3.40625 -2.953125 3.6875 -3.15625 4.1875 -3.171875 L 4.1875 -3.421875 C 3.875 -3.40625 3.859375 -3.40625 3.5 -3.40625 C 3.453125 -3.40625 2.984375 -3.40625 2.75 -3.421875 L 2.75 -3.171875 C 2.890625 -3.15625 2.921875 -3.046875 2.921875 -2.953125 C 2.921875 -2.84375 2.890625 -2.75 2.796875 -2.640625 L 2.296875 -2.046875 L 1.65625 -2.796875 C 1.5625 -2.90625 1.5625 -2.984375 1.5625 -2.984375 C 1.5625 -3.03125 1.609375 -3.15625 1.8125 -3.171875 L 1.8125 -3.421875 C 1.5 -3.40625 1.046875 -3.40625 0.96875 -3.40625 C 0.8125 -3.40625 0.40625 -3.40625 0.171875 -3.421875 L 0.171875 -3.171875 C 0.71875 -3.171875 0.71875 -3.15625 1.140625 -2.671875 L 1.953125 -1.671875 L 1.234375 -0.828125 C 1.03125 -0.609375 0.734375 -0.28125 0.140625 -0.265625 L 0.140625 0 C 0.421875 -0.03125 0.484375 -0.03125 0.8125 -0.03125 C 0.8125 -0.03125 1.3125 -0.03125 1.578125 0 L 1.578125 -0.265625 C 1.46875 -0.28125 1.390625 -0.328125 1.390625 -0.484375 C 1.390625 -0.625 1.484375 -0.734375 1.5 -0.765625 L 2.125 -1.484375 L 2.78125 -0.703125 C 2.9375 -0.515625 2.9375 -0.5 2.9375 -0.453125 C 2.9375 -0.375 2.875 -0.265625 2.6875 -0.265625 L 2.6875 0 C 3.03125 -0.03125 3.390625 -0.03125 3.546875 -0.03125 C 3.6875 -0.03125 4.09375 -0.03125 4.328125 0 Z M 4.328125 0 "/>
</g>
<g id="glyph-0-25">
<path d="M 4.28125 -3.171875 L 4.28125 -3.421875 C 4 -3.40625 3.984375 -3.40625 3.65625 -3.40625 C 3.59375 -3.40625 3.21875 -3.40625 2.96875 -3.421875 L 2.96875 -3.171875 C 3.25 -3.15625 3.3125 -2.96875 3.3125 -2.84375 C 3.3125 -2.765625 3.296875 -2.71875 3.265625 -2.640625 L 2.40625 -0.640625 L 1.46875 -2.796875 C 1.421875 -2.90625 1.421875 -2.96875 1.421875 -2.96875 C 1.421875 -3.171875 1.703125 -3.171875 1.84375 -3.171875 L 1.84375 -3.421875 C 1.5 -3.40625 1.125 -3.40625 0.984375 -3.40625 C 0.8125 -3.40625 0.421875 -3.40625 0.171875 -3.421875 L 0.171875 -3.171875 C 0.65625 -3.171875 0.703125 -3.125 0.8125 -2.84375 L 2.015625 -0.09375 C 2.0625 0.03125 2.109375 0.078125 2.234375 0.078125 C 2.34375 0.078125 2.390625 0.015625 2.4375 -0.078125 L 3.515625 -2.609375 C 3.71875 -3.046875 3.984375 -3.15625 4.28125 -3.171875 Z M 4.28125 -3.171875 "/>
</g>
<g id="glyph-0-26">
<path d="M 4.46875 0 L 4.46875 -0.265625 C 3.921875 -0.265625 3.859375 -0.3125 3.859375 -0.703125 L 3.859375 -3.5 L 2.65625 -3.421875 L 2.65625 -3.15625 C 3.203125 -3.15625 3.265625 -3.109375 3.265625 -2.71875 L 3.265625 -1.328125 C 3.265625 -0.640625 2.84375 -0.140625 2.25 -0.140625 C 1.5625 -0.140625 1.53125 -0.484375 1.53125 -0.875 L 1.53125 -3.5 L 0.328125 -3.421875 L 0.328125 -3.15625 C 0.9375 -3.15625 0.9375 -3.140625 0.9375 -2.421875 L 0.9375 -1.234375 C 0.9375 -0.65625 0.9375 0.078125 2.203125 0.078125 C 2.953125 0.078125 3.234375 -0.5 3.28125 -0.5625 L 3.28125 0.078125 Z M 4.46875 0 "/>
</g>
<g id="glyph-0-27">
<path d="M 1.609375 -2.984375 C 1.609375 -3.25 1.40625 -3.421875 1.171875 -3.421875 C 0.90625 -3.421875 0.734375 -3.21875 0.734375 -2.984375 C 0.734375 -2.71875 0.953125 -2.546875 1.171875 -2.546875 C 1.4375 -2.546875 1.609375 -2.765625 1.609375 -2.984375 Z M 1.609375 -0.4375 C 1.609375 -0.703125 1.40625 -0.875 1.171875 -0.875 C 0.90625 -0.875 0.734375 -0.671875 0.734375 -0.453125 C 0.734375 -0.171875 0.953125 0 1.171875 0 C 1.4375 0 1.609375 -0.21875 1.609375 -0.4375 Z M 1.609375 -0.4375 "/>
</g>
<g id="glyph-0-28">
<path d="M 3.890625 -2.53125 C 3.890625 -3.390625 3.796875 -3.90625 3.546875 -4.40625 C 3.1875 -5.109375 2.546875 -5.28125 2.109375 -5.28125 C 1.109375 -5.28125 0.734375 -4.546875 0.625 -4.3125 C 0.34375 -3.734375 0.328125 -2.953125 0.328125 -2.53125 C 0.328125 -2.015625 0.34375 -1.203125 0.734375 -0.578125 C 1.09375 0.015625 1.6875 0.171875 2.109375 0.171875 C 2.484375 0.171875 3.171875 0.046875 3.578125 -0.734375 C 3.859375 -1.3125 3.890625 -2.015625 3.890625 -2.53125 Z M 3.1875 -2.625 C 3.1875 -2.15625 3.1875 -1.453125 3.078125 -1 C 2.921875 -0.171875 2.375 -0.0625 2.109375 -0.0625 C 1.84375 -0.0625 1.28125 -0.1875 1.125 -1.015625 C 1.03125 -1.46875 1.03125 -2.21875 1.03125 -2.625 C 1.03125 -3.1875 1.03125 -3.734375 1.125 -4.171875 C 1.28125 -4.984375 1.90625 -5.0625 2.109375 -5.0625 C 2.375 -5.0625 2.921875 -4.9375 3.078125 -4.203125 C 3.1875 -3.765625 3.1875 -3.171875 3.1875 -2.625 Z M 3.1875 -2.625 "/>
</g>
<g id="glyph-0-29">
<path d="M 3.5625 0 L 3.5625 -0.265625 L 3.28125 -0.265625 C 2.515625 -0.265625 2.5 -0.359375 2.5 -0.65625 L 2.5 -5.0625 C 2.5 -5.28125 2.484375 -5.28125 2.265625 -5.28125 C 1.9375 -4.96875 1.515625 -4.78125 0.765625 -4.78125 L 0.765625 -4.515625 C 0.984375 -4.515625 1.40625 -4.515625 1.875 -4.734375 L 1.875 -0.65625 C 1.875 -0.359375 1.84375 -0.265625 1.09375 -0.265625 L 0.8125 -0.265625 L 0.8125 0 C 1.140625 -0.03125 1.828125 -0.03125 2.171875 -0.03125 C 2.53125 -0.03125 3.234375 -0.03125 3.5625 0 Z M 3.5625 0 "/>
</g>
<g id="glyph-1-0">
<path d="M 4.390625 -3.265625 C 4.390625 -3.421875 4.265625 -3.5 4.125 -3.5 C 3.984375 -3.5 3.84375 -3.421875 3.78125 -3.203125 C 3.25 -1.390625 1.90625 -0.5625 1.09375 -0.3125 L 1.828125 -3.28125 C 1.84375 -3.3125 1.84375 -3.359375 1.84375 -3.390625 C 1.84375 -3.390625 1.84375 -3.5 1.71875 -3.5 C 1.59375 -3.5 0.8125 -3.4375 0.671875 -3.421875 C 0.59375 -3.40625 0.5625 -3.34375 0.5625 -3.265625 C 0.5625 -3.15625 0.671875 -3.15625 0.765625 -3.15625 C 0.953125 -3.15625 1.15625 -3.15625 1.15625 -3.046875 C 1.15625 -3 1.0625 -2.640625 1.015625 -2.4375 L 0.8125 -1.640625 L 0.53125 -0.5 C 0.5 -0.359375 0.4375 -0.140625 0.4375 -0.109375 C 0.4375 0 0.5625 0 0.59375 0 L 0.703125 0 C 1.453125 -0.125 2.34375 -0.5 3.125 -1.1875 C 4.21875 -2.15625 4.390625 -3.234375 4.390625 -3.265625 Z M 4.390625 -3.265625 "/>
</g>
<g id="glyph-1-1">
<path d="M 4.828125 -1.140625 C 4.828125 -1.1875 4.796875 -1.234375 4.703125 -1.234375 C 4.609375 -1.234375 4.59375 -1.1875 4.546875 -1 C 4.4375 -0.5625 4.28125 -0.140625 3.984375 -0.140625 C 3.796875 -0.140625 3.71875 -0.296875 3.71875 -0.515625 C 3.71875 -0.65625 3.8125 -1 3.859375 -1.21875 L 4.078125 -2.03125 L 4.21875 -2.640625 C 4.265625 -2.828125 4.34375 -3.140625 4.34375 -3.1875 C 4.34375 -3.375 4.1875 -3.421875 4.09375 -3.421875 C 3.8125 -3.421875 3.765625 -3.234375 3.671875 -2.875 L 3.5 -2.21875 L 3.265625 -1.21875 L 3.1875 -0.90625 C 3.171875 -0.84375 2.953125 -0.546875 2.765625 -0.390625 C 2.625 -0.296875 2.40625 -0.140625 2.109375 -0.140625 C 1.734375 -0.140625 1.484375 -0.34375 1.484375 -0.828125 C 1.484375 -1.046875 1.546875 -1.28125 1.59375 -1.46875 L 1.921875 -2.8125 C 1.96875 -2.953125 2.03125 -3.21875 2.03125 -3.265625 C 2.03125 -3.421875 1.90625 -3.5 1.765625 -3.5 C 1.5 -3.5 1.4375 -3.25 1.40625 -3.140625 L 0.296875 1.28125 C 0.265625 1.40625 0.265625 1.46875 0.265625 1.46875 C 0.265625 1.65625 0.421875 1.703125 0.515625 1.703125 C 0.5625 1.703125 0.734375 1.703125 0.84375 1.5 C 0.859375 1.4375 1.09375 0.484375 1.25 -0.15625 C 1.390625 -0.046875 1.65625 0.078125 2.0625 0.078125 C 2.71875 0.078125 3.15625 -0.453125 3.171875 -0.484375 C 3.3125 0.0625 3.859375 0.078125 3.953125 0.078125 C 4.3125 0.078125 4.5 -0.21875 4.5625 -0.359375 C 4.71875 -0.640625 4.828125 -1.109375 4.828125 -1.140625 Z M 4.828125 -1.140625 "/>
</g>
<g id="glyph-1-2">
<path d="M 4.140625 -1.140625 C 4.140625 -1.21875 4.078125 -1.234375 4.03125 -1.234375 C 3.921875 -1.234375 3.90625 -1.1875 3.875 -1.046875 C 3.78125 -0.671875 3.578125 -0.140625 3.203125 -0.140625 C 2.984375 -0.140625 2.9375 -0.3125 2.9375 -0.53125 C 2.9375 -0.640625 2.953125 -0.734375 2.984375 -0.921875 C 3 -0.953125 3.03125 -1.078125 3.03125 -1.15625 C 3.03125 -1.8125 2.21875 -1.953125 1.8125 -2.015625 C 2.09375 -2.1875 2.375 -2.453125 2.46875 -2.5625 C 2.90625 -2.984375 3.265625 -3.28125 3.640625 -3.28125 C 3.75 -3.28125 3.84375 -3.265625 3.90625 -3.1875 C 3.46875 -3.125 3.46875 -2.75 3.46875 -2.75 C 3.46875 -2.5625 3.609375 -2.453125 3.78125 -2.453125 C 4 -2.453125 4.234375 -2.625 4.234375 -2.953125 C 4.234375 -3.21875 4.046875 -3.5 3.65625 -3.5 C 3.1875 -3.5 2.78125 -3.15625 2.328125 -2.703125 C 1.859375 -2.25 1.65625 -2.15625 1.53125 -2.109375 L 2.328125 -5.28125 C 2.328125 -5.296875 2.359375 -5.40625 2.359375 -5.40625 C 2.359375 -5.453125 2.328125 -5.515625 2.234375 -5.515625 C 2.1875 -5.515625 1.953125 -5.5 1.765625 -5.484375 L 1.3125 -5.453125 C 1.140625 -5.4375 1.0625 -5.421875 1.0625 -5.28125 C 1.0625 -5.171875 1.171875 -5.171875 1.265625 -5.171875 C 1.65625 -5.171875 1.65625 -5.125 1.65625 -5.046875 C 1.65625 -5.03125 1.65625 -5.015625 1.609375 -4.875 L 0.484375 -0.34375 C 0.453125 -0.21875 0.453125 -0.171875 0.453125 -0.171875 C 0.453125 -0.03125 0.5625 0.078125 0.71875 0.078125 C 0.984375 0.078125 1.046875 -0.171875 1.078125 -0.28125 L 1.453125 -1.796875 C 1.890625 -1.75 2.421875 -1.59375 2.421875 -1.140625 C 2.421875 -1.109375 2.421875 -1.0625 2.40625 -0.984375 C 2.390625 -0.875 2.375 -0.765625 2.375 -0.734375 C 2.375 -0.265625 2.71875 0.078125 3.1875 0.078125 C 3.515625 0.078125 3.71875 -0.171875 3.828125 -0.3125 C 4.015625 -0.609375 4.140625 -1.09375 4.140625 -1.140625 Z M 4.140625 -1.140625 "/>
</g>
<g id="glyph-1-3">
<path d="M 4.78125 -3.203125 C 4.78125 -3.421875 4.578125 -3.421875 4.453125 -3.421875 L 2.484375 -3.421875 C 1.265625 -3.421875 0.328125 -2.171875 0.328125 -1.203125 C 0.328125 -0.421875 0.875 0.078125 1.625 0.078125 C 2.625 0.078125 3.71875 -0.875 3.71875 -2.0625 C 3.71875 -2.5 3.5625 -2.75 3.46875 -2.90625 L 4.359375 -2.90625 C 4.515625 -2.90625 4.5625 -2.90625 4.65625 -2.96875 C 4.75 -3.03125 4.78125 -3.15625 4.78125 -3.203125 Z M 3.140625 -2.140625 C 3.140625 -1.328125 2.5625 -0.140625 1.625 -0.140625 C 1.234375 -0.140625 0.875 -0.40625 0.875 -0.984375 C 0.875 -1.3125 1.078125 -2.90625 2.359375 -2.90625 C 3.140625 -2.90625 3.140625 -2.3125 3.140625 -2.140625 Z M 3.140625 -2.140625 "/>
</g>
<g id="glyph-1-4">
<path d="M 1.609375 -0.4375 C 1.609375 -0.703125 1.390625 -0.875 1.171875 -0.875 C 0.921875 -0.875 0.734375 -0.671875 0.734375 -0.453125 C 0.734375 -0.171875 0.953125 0 1.171875 0 C 1.421875 0 1.609375 -0.203125 1.609375 -0.4375 Z M 1.609375 -0.4375 "/>
</g>
<g id="glyph-1-5">
<path d="M 4.640625 -1.140625 C 4.640625 -1.1875 4.609375 -1.234375 4.515625 -1.234375 C 4.421875 -1.234375 4.40625 -1.203125 4.359375 -1 C 4.25 -0.59375 4.109375 -0.140625 3.78125 -0.140625 C 3.609375 -0.140625 3.53125 -0.296875 3.53125 -0.515625 C 3.53125 -0.65625 3.609375 -0.921875 3.65625 -1.125 L 3.84375 -1.9375 C 3.921875 -2.234375 3.9375 -2.28125 4.015625 -2.546875 C 4.0625 -2.765625 4.15625 -3.140625 4.15625 -3.1875 C 4.15625 -3.375 4 -3.421875 3.890625 -3.421875 C 3.78125 -3.421875 3.609375 -3.359375 3.5625 -3.171875 L 2.984375 -0.859375 C 2.9375 -0.71875 2.5625 -0.140625 2.03125 -0.140625 C 1.640625 -0.140625 1.515625 -0.421875 1.515625 -0.78125 C 1.515625 -1.25 1.796875 -1.96875 1.96875 -2.421875 C 2.046875 -2.609375 2.0625 -2.6875 2.0625 -2.828125 C 2.0625 -3.265625 1.71875 -3.5 1.359375 -3.5 C 0.5625 -3.5 0.234375 -2.390625 0.234375 -2.296875 C 0.234375 -2.21875 0.296875 -2.1875 0.359375 -2.1875 C 0.46875 -2.1875 0.46875 -2.234375 0.5 -2.3125 C 0.703125 -3.015625 1.046875 -3.28125 1.328125 -3.28125 C 1.453125 -3.28125 1.515625 -3.203125 1.515625 -3.015625 C 1.515625 -2.84375 1.453125 -2.65625 1.34375 -2.375 C 1.015625 -1.53125 0.9375 -1.1875 0.9375 -0.90625 C 0.9375 -0.125 1.53125 0.078125 2 0.078125 C 2.59375 0.078125 2.953125 -0.390625 2.984375 -0.4375 C 3.125 -0.0625 3.46875 0.078125 3.765625 0.078125 C 4.140625 0.078125 4.3125 -0.234375 4.375 -0.359375 C 4.53125 -0.640625 4.640625 -1.109375 4.640625 -1.140625 Z M 4.640625 -1.140625 "/>
</g>
<g id="glyph-2-0">
<path d="M 3.28125 -1.90625 C 3.28125 -2.34375 3.28125 -3.96875 1.828125 -3.96875 C 0.359375 -3.96875 0.359375 -2.34375 0.359375 -1.90625 C 0.359375 -1.46875 0.359375 0.125 1.828125 0.125 C 3.28125 0.125 3.28125 -1.46875 3.28125 -1.90625 Z M 2.71875 -1.984375 C 2.71875 -1.59375 2.71875 -1 2.609375 -0.65625 C 2.453125 -0.140625 2.015625 -0.0625 1.828125 -0.0625 C 1.5625 -0.0625 1.15625 -0.1875 1.015625 -0.6875 C 0.921875 -1.03125 0.921875 -1.609375 0.921875 -1.984375 C 0.921875 -2.375 0.921875 -2.84375 1.015625 -3.15625 C 1.15625 -3.703125 1.609375 -3.78125 1.828125 -3.78125 C 2.09375 -3.78125 2.484375 -3.640625 2.625 -3.1875 C 2.703125 -2.875 2.71875 -2.4375 2.71875 -1.984375 Z M 2.71875 -1.984375 "/>
</g>
<g id="glyph-2-1">
<path d="M 3.015625 0 L 3.015625 -0.234375 L 2.75 -0.234375 C 2.140625 -0.234375 2.140625 -0.3125 2.140625 -0.5 L 2.140625 -3.796875 C 2.140625 -3.96875 2.125 -3.96875 1.9375 -3.96875 C 1.546875 -3.59375 0.9375 -3.59375 0.71875 -3.59375 L 0.71875 -3.359375 C 0.875 -3.359375 1.265625 -3.359375 1.625 -3.515625 L 1.625 -0.5 C 1.625 -0.3125 1.625 -0.234375 1.015625 -0.234375 L 0.765625 -0.234375 L 0.765625 0 C 1.09375 -0.03125 1.546875 -0.03125 1.890625 -0.03125 C 2.21875 -0.03125 2.6875 -0.03125 3.015625 0 Z M 3.015625 0 "/>
</g>
<g id="glyph-2-2">
<path d="M 3.21875 -1.203125 C 3.21875 -1.875 2.65625 -2.5 1.890625 -2.5 C 1.5 -2.5 1.203125 -2.375 1.015625 -2.21875 L 1.015625 -3.3125 C 1.21875 -3.265625 1.421875 -3.234375 1.625 -3.234375 C 1.75 -3.234375 2.09375 -3.234375 2.46875 -3.4375 C 2.5625 -3.5 2.9375 -3.75 2.9375 -3.875 C 2.9375 -3.953125 2.875 -3.96875 2.859375 -3.96875 C 2.828125 -3.96875 2.828125 -3.96875 2.765625 -3.953125 C 2.546875 -3.859375 2.25 -3.78125 1.859375 -3.78125 C 1.5625 -3.78125 1.234375 -3.828125 0.96875 -3.9375 C 0.90625 -3.953125 0.890625 -3.96875 0.859375 -3.96875 C 0.78125 -3.96875 0.78125 -3.90625 0.78125 -3.8125 L 0.78125 -2.015625 C 0.78125 -1.921875 0.78125 -1.84375 0.890625 -1.84375 C 0.9375 -1.84375 0.96875 -1.875 1 -1.921875 C 1.15625 -2.109375 1.421875 -2.3125 1.875 -2.3125 C 2.609375 -2.3125 2.609375 -1.421875 2.609375 -1.21875 C 2.609375 -0.984375 2.59375 -0.65625 2.40625 -0.40625 C 2.21875 -0.1875 1.9375 -0.09375 1.6875 -0.09375 C 1.265625 -0.09375 0.859375 -0.3125 0.71875 -0.65625 C 1.015625 -0.671875 1.046875 -0.90625 1.046875 -0.96875 C 1.046875 -1.140625 0.921875 -1.28125 0.734375 -1.28125 C 0.6875 -1.28125 0.4375 -1.25 0.4375 -0.953125 C 0.4375 -0.40625 0.953125 0.125 1.703125 0.125 C 2.515625 0.125 3.21875 -0.453125 3.21875 -1.203125 Z M 3.21875 -1.203125 "/>
</g>
<g id="glyph-2-3">
<path d="M 3.265625 -1.03125 C 3.265625 -1.46875 2.9375 -1.921875 2.21875 -2.109375 C 2.6875 -2.265625 3.078125 -2.640625 3.078125 -3.140625 C 3.078125 -3.609375 2.515625 -3.96875 1.796875 -3.96875 C 1.09375 -3.96875 0.5625 -3.640625 0.5625 -3.15625 C 0.5625 -2.90625 0.765625 -2.828125 0.890625 -2.828125 C 1.03125 -2.828125 1.203125 -2.9375 1.203125 -3.140625 C 1.203125 -3.328125 1.0625 -3.4375 0.90625 -3.46875 C 1.1875 -3.765625 1.734375 -3.765625 1.78125 -3.765625 C 2.09375 -3.765625 2.46875 -3.625 2.46875 -3.140625 C 2.46875 -2.8125 2.28125 -2.234375 1.6875 -2.203125 C 1.578125 -2.1875 1.421875 -2.171875 1.359375 -2.171875 C 1.3125 -2.171875 1.234375 -2.171875 1.234375 -2.078125 C 1.234375 -1.984375 1.3125 -1.984375 1.40625 -1.984375 L 1.75 -1.984375 C 2.265625 -1.984375 2.609375 -1.640625 2.609375 -1.03125 C 2.609375 -0.375 2.203125 -0.09375 1.765625 -0.09375 C 1.609375 -0.09375 1 -0.125 0.734375 -0.46875 C 0.96875 -0.5 1.0625 -0.65625 1.0625 -0.8125 C 1.0625 -1.015625 0.90625 -1.15625 0.71875 -1.15625 C 0.5625 -1.15625 0.375 -1.046875 0.375 -0.796875 C 0.375 -0.203125 1.03125 0.125 1.796875 0.125 C 2.671875 0.125 3.265625 -0.4375 3.265625 -1.03125 Z M 3.265625 -1.03125 "/>
</g>
<g id="glyph-3-0">
<path d="M 7.21875 -0.1875 C 7.21875 -0.28125 7.140625 -0.359375 7.03125 -0.359375 C 6.921875 -0.359375 6.890625 -0.296875 6.84375 -0.203125 L 3.28125 6.71875 L 1.78125 3.640625 C 1.71875 3.515625 1.6875 3.5 1.640625 3.5 C 1.640625 3.5 1.59375 3.5 1.5 3.578125 L 0.6875 4.140625 C 0.59375 4.203125 0.59375 4.265625 0.59375 4.265625 C 0.59375 4.375 0.6875 4.375 0.734375 4.375 L 1.25 4.03125 L 2.921875 7.46875 C 2.984375 7.59375 3.015625 7.59375 3.09375 7.59375 C 3.234375 7.59375 3.265625 7.546875 3.3125 7.4375 L 7.171875 -0.03125 C 7.21875 -0.125 7.21875 -0.140625 7.21875 -0.1875 Z M 7.21875 -0.1875 "/>
</g>
<g id="glyph-3-1">
<path d="M 5.859375 -1.984375 C 5.859375 -2.171875 5.671875 -2.171875 5.5625 -2.171875 L 1 -2.171875 C 0.875 -2.171875 0.703125 -2.171875 0.703125 -1.984375 C 0.703125 -1.8125 0.875 -1.8125 1 -1.8125 L 5.5625 -1.8125 C 5.671875 -1.8125 5.859375 -1.8125 5.859375 -1.984375 Z M 5.859375 -1.984375 "/>
</g>
<g id="glyph-4-0">
<path d="M 2.078125 -3.71875 C 2.078125 -3.875 1.96875 -3.96875 1.828125 -3.96875 C 1.671875 -3.96875 1.5 -3.8125 1.5 -3.640625 C 1.5 -3.484375 1.609375 -3.390625 1.734375 -3.390625 C 1.921875 -3.390625 2.078125 -3.578125 2.078125 -3.71875 Z M 2.296875 -0.859375 C 2.296875 -0.859375 2.28125 -0.9375 2.171875 -0.9375 C 2.09375 -0.9375 2.09375 -0.90625 2.046875 -0.796875 C 1.953125 -0.5 1.71875 -0.140625 1.40625 -0.140625 C 1.296875 -0.140625 1.25 -0.203125 1.25 -0.359375 C 1.25 -0.46875 1.28125 -0.5625 1.359375 -0.75 L 1.71875 -1.640625 C 1.75 -1.703125 1.796875 -1.84375 1.828125 -1.890625 C 1.84375 -1.953125 1.859375 -2.015625 1.859375 -2.109375 C 1.859375 -2.453125 1.5625 -2.625 1.265625 -2.625 C 0.65625 -2.625 0.359375 -1.84375 0.359375 -1.71875 C 0.359375 -1.6875 0.390625 -1.625 0.46875 -1.625 C 0.5625 -1.625 0.578125 -1.671875 0.59375 -1.71875 C 0.765625 -2.296875 1.078125 -2.4375 1.234375 -2.4375 C 1.359375 -2.4375 1.40625 -2.359375 1.40625 -2.21875 C 1.40625 -2.09375 1.359375 -2.015625 1.359375 -1.96875 L 1.046875 -1.203125 C 0.96875 -1.03125 0.96875 -1.015625 0.890625 -0.8125 C 0.8125 -0.640625 0.78125 -0.5625 0.78125 -0.453125 C 0.78125 -0.15625 1.0625 0.0625 1.390625 0.0625 C 2 0.0625 2.296875 -0.734375 2.296875 -0.859375 Z M 2.296875 -0.859375 "/>
</g>
<g id="glyph-5-0">
<path d="M 10.234375 -8.015625 C 10.234375 -8.140625 10.125 -8.140625 10.078125 -8.140625 L 8.984375 -8.125 L 8.421875 -8.125 C 8.25 -8.125 8.03125 -8.140625 7.875 -8.140625 C 7.796875 -8.140625 7.65625 -8.140625 7.65625 -7.921875 C 7.65625 -7.796875 7.75 -7.796875 7.828125 -7.796875 C 8.546875 -7.765625 8.59375 -7.5 8.59375 -7.28125 C 8.59375 -7.171875 8.578125 -7.140625 8.546875 -6.96875 L 7.203125 -1.59375 L 4.65625 -7.9375 C 4.5625 -8.125 4.546875 -8.140625 4.296875 -8.140625 L 2.84375 -8.140625 C 2.59375 -8.140625 2.484375 -8.140625 2.484375 -7.921875 C 2.484375 -7.796875 2.578125 -7.796875 2.796875 -7.796875 C 2.859375 -7.796875 3.5625 -7.796875 3.5625 -7.6875 C 3.5625 -7.6875 3.546875 -7.578125 3.53125 -7.53125 L 1.9375 -1.21875 C 1.796875 -0.625 1.515625 -0.375 0.734375 -0.34375 C 0.671875 -0.34375 0.546875 -0.328125 0.546875 -0.125 C 0.546875 0 0.671875 0 0.703125 0 L 1.78125 -0.03125 L 2.359375 -0.03125 C 2.53125 -0.03125 2.734375 0 2.890625 0 C 2.984375 0 3.109375 0 3.109375 -0.21875 C 3.109375 -0.328125 3 -0.34375 2.9375 -0.34375 C 2.546875 -0.359375 2.171875 -0.421875 2.171875 -0.859375 C 2.171875 -0.953125 2.1875 -1.0625 2.21875 -1.15625 L 3.828125 -7.53125 C 3.90625 -7.421875 3.90625 -7.390625 3.953125 -7.28125 L 6.78125 -0.21875 C 6.84375 -0.078125 6.859375 0 6.96875 0 C 7.09375 0 7.109375 -0.03125 7.15625 -0.234375 L 8.828125 -6.890625 C 8.953125 -7.40625 9.140625 -7.765625 10.046875 -7.796875 C 10.078125 -7.796875 10.234375 -7.8125 10.234375 -8.015625 Z M 10.234375 -8.015625 "/>
</g>
<g id="glyph-5-1">
<path d="M 6.125 -4.953125 C 6.125 -5.15625 5.96875 -5.25 5.8125 -5.25 C 5.46875 -5.25 5.390625 -4.9375 5.359375 -4.859375 C 4.65625 -2.359375 3.03125 -0.875 1.4375 -0.359375 L 2.625 -5.140625 C 2.625 -5.1875 2.59375 -5.25 2.484375 -5.25 C 2.40625 -5.25 1.28125 -5.15625 1.109375 -5.140625 C 0.984375 -5.125 0.859375 -5.109375 0.859375 -4.90625 C 0.859375 -4.78125 0.953125 -4.78125 1.125 -4.78125 C 1.6875 -4.78125 1.71875 -4.703125 1.71875 -4.5625 C 1.71875 -4.515625 1.6875 -4.375 1.6875 -4.328125 L 0.625 -0.125 C 0.625 -0.078125 0.671875 0 0.75 0 L 1 0 C 1.171875 0 2.984375 -0.421875 4.375 -1.859375 C 5.90625 -3.453125 6.125 -4.90625 6.125 -4.953125 Z M 6.125 -4.953125 "/>
</g>
<g id="glyph-5-2">
<path d="M 2.328125 0.046875 C 2.328125 -0.640625 2.09375 -1.15625 1.609375 -1.15625 C 1.234375 -1.15625 1.03125 -0.84375 1.03125 -0.578125 C 1.03125 -0.328125 1.21875 0 1.625 0 C 1.78125 0 1.90625 -0.046875 2.015625 -0.15625 C 2.03125 -0.171875 2.0625 -0.171875 2.0625 -0.171875 C 2.0625 -0.171875 2.09375 -0.015625 2.09375 0.046875 C 2.09375 0.4375 2.015625 1.21875 1.328125 1.984375 C 1.1875 2.140625 1.1875 2.1875 1.1875 2.1875 C 1.1875 2.234375 1.25 2.296875 1.3125 2.296875 C 1.40625 2.296875 2.328125 1.421875 2.328125 0.046875 Z M 2.328125 0.046875 "/>
</g>
<g id="glyph-5-3">
<path d="M 2.1875 -0.578125 C 2.1875 -0.921875 1.90625 -1.15625 1.625 -1.15625 C 1.28125 -1.15625 1.03125 -0.875 1.03125 -0.578125 C 1.03125 -0.234375 1.328125 0 1.609375 0 C 1.953125 0 2.1875 -0.28125 2.1875 -0.578125 Z M 2.1875 -0.578125 "/>
</g>
<g id="glyph-6-0">
<path d="M 8.421875 -4.078125 C 8.421875 -4.296875 8.21875 -4.296875 8.046875 -4.296875 L 1.03125 -4.296875 C 0.859375 -4.296875 0.640625 -4.296875 0.640625 -4.09375 C 0.640625 -3.859375 0.84375 -3.859375 1.03125 -3.859375 L 8.046875 -3.859375 C 8.21875 -3.859375 8.421875 -3.859375 8.421875 -4.078125 Z M 8.421875 -1.859375 C 8.421875 -2.09375 8.21875 -2.09375 8.046875 -2.09375 L 1.03125 -2.09375 C 0.859375 -2.09375 0.640625 -2.09375 0.640625 -1.875 C 0.640625 -1.640625 0.84375 -1.640625 1.03125 -1.640625 L 8.046875 -1.640625 C 8.21875 -1.640625 8.421875 -1.640625 8.421875 -1.859375 Z M 8.421875 -1.859375 "/>
</g>
<g id="glyph-6-1">
<path d="M 5.34375 -2.03125 C 5.34375 -3.140625 4.453125 -4 3.3125 -4.203125 C 4.34375 -4.5 5.015625 -5.359375 5.015625 -6.296875 C 5.015625 -7.234375 4.046875 -7.921875 2.890625 -7.921875 C 1.6875 -7.921875 0.8125 -7.203125 0.8125 -6.328125 C 0.8125 -5.859375 1.1875 -5.765625 1.359375 -5.765625 C 1.609375 -5.765625 1.890625 -5.9375 1.890625 -6.296875 C 1.890625 -6.671875 1.609375 -6.84375 1.34375 -6.84375 C 1.28125 -6.84375 1.25 -6.84375 1.21875 -6.828125 C 1.671875 -7.640625 2.796875 -7.640625 2.84375 -7.640625 C 3.25 -7.640625 4.015625 -7.46875 4.015625 -6.296875 C 4.015625 -6.0625 3.984375 -5.40625 3.640625 -4.890625 C 3.28125 -4.359375 2.875 -4.328125 2.546875 -4.3125 L 2.1875 -4.28125 C 1.984375 -4.265625 1.9375 -4.25 1.9375 -4.15625 C 1.9375 -4.03125 2 -4.03125 2.21875 -4.03125 L 2.765625 -4.03125 C 3.78125 -4.03125 4.234375 -3.1875 4.234375 -2.046875 C 4.234375 -0.484375 3.421875 -0.078125 2.84375 -0.078125 C 2.265625 -0.078125 1.28125 -0.34375 0.9375 -1.125 C 1.328125 -1.078125 1.671875 -1.28125 1.671875 -1.71875 C 1.671875 -2.0625 1.421875 -2.296875 1.078125 -2.296875 C 0.796875 -2.296875 0.484375 -2.140625 0.484375 -1.6875 C 0.484375 -0.625 1.546875 0.25 2.875 0.25 C 4.296875 0.25 5.34375 -0.828125 5.34375 -2.03125 Z M 5.34375 -2.03125 "/>
</g>
<g id="glyph-6-2">
<path d="M 4.890625 0 L 4.890625 -0.34375 L 4.515625 -0.34375 C 3.46875 -0.34375 3.4375 -0.484375 3.4375 -0.921875 L 3.4375 -7.640625 C 3.4375 -7.921875 3.4375 -7.921875 3.1875 -7.921875 C 2.90625 -7.609375 2.3125 -7.171875 1.078125 -7.171875 L 1.078125 -6.8125 C 1.359375 -6.8125 1.953125 -6.8125 2.609375 -7.125 L 2.609375 -0.921875 C 2.609375 -0.484375 2.578125 -0.34375 1.53125 -0.34375 L 1.15625 -0.34375 L 1.15625 0 C 1.484375 -0.03125 2.640625 -0.03125 3.03125 -0.03125 C 3.421875 -0.03125 4.5625 -0.03125 4.890625 0 Z M 4.890625 0 "/>
</g>
<g id="glyph-6-3">
<path d="M 4.203125 -1.515625 C 4.203125 -2.15625 3.796875 -2.546875 3.703125 -2.640625 C 3.265625 -3.015625 2.9375 -3.09375 2.15625 -3.234375 C 1.796875 -3.296875 0.9375 -3.46875 0.9375 -4.1875 C 0.9375 -4.546875 1.1875 -5.109375 2.25 -5.109375 C 3.546875 -5.109375 3.625 -4 3.640625 -3.625 C 3.65625 -3.53125 3.75 -3.53125 3.78125 -3.53125 C 3.90625 -3.53125 3.90625 -3.59375 3.90625 -3.796875 L 3.90625 -5.046875 C 3.90625 -5.25 3.90625 -5.3125 3.796875 -5.3125 C 3.703125 -5.3125 3.46875 -5.0625 3.390625 -4.953125 C 3.015625 -5.25 2.640625 -5.3125 2.265625 -5.3125 C 0.828125 -5.3125 0.390625 -4.53125 0.390625 -3.875 C 0.390625 -3.75 0.390625 -3.328125 0.84375 -2.90625 C 1.234375 -2.578125 1.640625 -2.484375 2.1875 -2.390625 C 2.84375 -2.25 3 -2.21875 3.296875 -1.984375 C 3.5 -1.796875 3.65625 -1.53125 3.65625 -1.203125 C 3.65625 -0.6875 3.359375 -0.125 2.3125 -0.125 C 1.53125 -0.125 0.953125 -0.578125 0.6875 -1.765625 C 0.640625 -1.984375 0.625 -2 0.625 -2 C 0.609375 -2.046875 0.5625 -2.046875 0.53125 -2.046875 C 0.390625 -2.046875 0.390625 -1.984375 0.390625 -1.78125 L 0.390625 -0.15625 C 0.390625 0.0625 0.390625 0.125 0.515625 0.125 C 0.578125 0.125 0.578125 0.109375 0.78125 -0.140625 C 0.84375 -0.21875 0.84375 -0.25 1.03125 -0.4375 C 1.484375 0.125 2.125 0.125 2.328125 0.125 C 3.578125 0.125 4.203125 -0.578125 4.203125 -1.515625 Z M 4.203125 -1.515625 "/>
</g>
<g id="glyph-6-4">
<path d="M 5.65625 -1.0625 L 5.65625 -1.734375 L 5.390625 -1.734375 L 5.390625 -1.0625 C 5.390625 -0.375 5.109375 -0.28125 4.9375 -0.28125 C 4.484375 -0.28125 4.484375 -0.921875 4.484375 -1.09375 L 4.484375 -3.1875 C 4.484375 -3.828125 4.484375 -4.296875 3.953125 -4.765625 C 3.546875 -5.15625 3 -5.3125 2.484375 -5.3125 C 1.5 -5.3125 0.75 -4.671875 0.75 -3.90625 C 0.75 -3.546875 0.984375 -3.390625 1.25 -3.390625 C 1.53125 -3.390625 1.734375 -3.59375 1.734375 -3.875 C 1.734375 -4.359375 1.3125 -4.359375 1.125 -4.359375 C 1.40625 -4.859375 1.984375 -5.078125 2.453125 -5.078125 C 3 -5.078125 3.703125 -4.625 3.703125 -3.546875 L 3.703125 -3.078125 C 1.3125 -3.046875 0.40625 -2.03125 0.40625 -1.125 C 0.40625 -0.171875 1.5 0.125 2.234375 0.125 C 3.015625 0.125 3.546875 -0.359375 3.78125 -0.9375 C 3.828125 -0.375 4.203125 0.0625 4.703125 0.0625 C 4.953125 0.0625 5.65625 -0.109375 5.65625 -1.0625 Z M 3.703125 -1.6875 C 3.703125 -0.515625 2.84375 -0.125 2.328125 -0.125 C 1.734375 -0.125 1.25 -0.546875 1.25 -1.125 C 1.25 -2.6875 3.28125 -2.84375 3.703125 -2.859375 Z M 3.703125 -1.6875 "/>
</g>
<g id="glyph-6-5">
<path d="M 9.453125 0 L 9.453125 -0.34375 C 8.859375 -0.34375 8.5625 -0.34375 8.546875 -0.703125 L 8.546875 -2.890625 C 8.546875 -4 8.546875 -4.34375 8.28125 -4.71875 C 7.921875 -5.1875 7.375 -5.25 6.96875 -5.25 C 5.96875 -5.25 5.46875 -4.546875 5.28125 -4.078125 C 5.109375 -5 4.46875 -5.25 3.71875 -5.25 C 2.5625 -5.25 2.109375 -4.265625 2.015625 -4.03125 L 2 -4.03125 L 2 -5.25 L 0.375 -5.125 L 0.375 -4.78125 C 1.1875 -4.78125 1.28125 -4.703125 1.28125 -4.109375 L 1.28125 -0.875 C 1.28125 -0.34375 1.15625 -0.34375 0.375 -0.34375 L 0.375 0 C 0.6875 -0.03125 1.328125 -0.03125 1.671875 -0.03125 C 2.015625 -0.03125 2.65625 -0.03125 2.96875 0 L 2.96875 -0.34375 C 2.203125 -0.34375 2.0625 -0.34375 2.0625 -0.875 L 2.0625 -3.09375 C 2.0625 -4.34375 2.890625 -5.015625 3.625 -5.015625 C 4.359375 -5.015625 4.53125 -4.40625 4.53125 -3.6875 L 4.53125 -0.875 C 4.53125 -0.34375 4.40625 -0.34375 3.625 -0.34375 L 3.625 0 C 3.9375 -0.03125 4.578125 -0.03125 4.90625 -0.03125 C 5.25 -0.03125 5.90625 -0.03125 6.21875 0 L 6.21875 -0.34375 C 5.453125 -0.34375 5.3125 -0.34375 5.3125 -0.875 L 5.3125 -3.09375 C 5.3125 -4.34375 6.125 -5.015625 6.859375 -5.015625 C 7.609375 -5.015625 7.765625 -4.40625 7.765625 -3.6875 L 7.765625 -0.875 C 7.765625 -0.34375 7.640625 -0.34375 6.859375 -0.34375 L 6.859375 0 C 7.171875 -0.03125 7.828125 -0.03125 8.15625 -0.03125 C 8.5 -0.03125 9.140625 -0.03125 9.453125 0 Z M 9.453125 0 "/>
</g>
<g id="glyph-6-6">
<path d="M 6.0625 -2.578125 C 6.0625 -4.09375 4.9375 -5.25 3.640625 -5.25 C 2.59375 -5.25 2.03125 -4.5 1.984375 -4.453125 L 1.984375 -5.25 L 0.328125 -5.125 L 0.328125 -4.78125 C 1.171875 -4.78125 1.234375 -4.703125 1.234375 -4.171875 L 1.234375 1.4375 C 1.234375 1.96875 1.109375 1.96875 0.328125 1.96875 L 0.328125 2.3125 C 0.640625 2.28125 1.28125 2.28125 1.625 2.28125 C 1.96875 2.28125 2.609375 2.28125 2.921875 2.3125 L 2.921875 1.96875 C 2.15625 1.96875 2.015625 1.96875 2.015625 1.4375 L 2.015625 -0.640625 C 2.234375 -0.34375 2.71875 0.125 3.484375 0.125 C 4.859375 0.125 6.0625 -1.03125 6.0625 -2.578125 Z M 5.15625 -2.578125 C 5.15625 -1.15625 4.34375 -0.125 3.421875 -0.125 C 3.046875 -0.125 2.703125 -0.28125 2.46875 -0.5 C 2.1875 -0.78125 2.015625 -1.015625 2.015625 -1.34375 L 2.015625 -3.796875 C 2.015625 -4.03125 2.015625 -4.046875 2.140625 -4.234375 C 2.5 -4.765625 3.09375 -5 3.546875 -5 C 4.4375 -5 5.15625 -3.90625 5.15625 -2.578125 Z M 5.15625 -2.578125 "/>
</g>
<g id="glyph-6-7">
<path d="M 2.953125 0 L 2.953125 -0.34375 C 2.1875 -0.34375 2.046875 -0.34375 2.046875 -0.875 L 2.046875 -8.28125 L 0.390625 -8.140625 L 0.390625 -7.796875 C 1.203125 -7.796875 1.296875 -7.71875 1.296875 -7.125 L 1.296875 -0.875 C 1.296875 -0.34375 1.171875 -0.34375 0.390625 -0.34375 L 0.390625 0 C 0.734375 -0.03125 1.3125 -0.03125 1.671875 -0.03125 C 2.03125 -0.03125 2.625 -0.03125 2.953125 0 Z M 2.953125 0 "/>
</g>
<g id="glyph-6-8">
<path d="M 4.859375 -1.421875 C 4.859375 -1.484375 4.796875 -1.53125 4.71875 -1.53125 C 4.625 -1.53125 4.609375 -1.484375 4.578125 -1.421875 C 4.265625 -0.421875 3.46875 -0.140625 2.96875 -0.140625 C 2.46875 -0.140625 1.265625 -0.484375 1.265625 -2.546875 L 1.265625 -2.765625 L 4.5625 -2.765625 C 4.828125 -2.765625 4.859375 -2.765625 4.859375 -3 C 4.859375 -4.203125 4.203125 -5.3125 2.765625 -5.3125 C 1.40625 -5.3125 0.359375 -4.09375 0.359375 -2.609375 C 0.359375 -1.03125 1.578125 0.125 2.890625 0.125 C 4.3125 0.125 4.859375 -1.171875 4.859375 -1.421875 Z M 4.109375 -3 L 1.28125 -3 C 1.375 -4.859375 2.421875 -5.078125 2.75 -5.078125 C 4.03125 -5.078125 4.09375 -3.390625 4.109375 -3 Z M 4.109375 -3 "/>
</g>
<g id="glyph-6-9">
<path d="M 3.890625 -1.484375 L 3.890625 -2.15625 L 3.625 -2.15625 L 3.625 -1.5 C 3.625 -0.640625 3.28125 -0.140625 2.8125 -0.140625 C 2 -0.140625 2 -1.25 2 -1.453125 L 2 -4.796875 L 3.6875 -4.796875 L 3.6875 -5.140625 L 2 -5.140625 L 2 -7.328125 L 1.734375 -7.328125 C 1.734375 -6.21875 1.296875 -5.0625 0.21875 -5.03125 L 0.21875 -4.796875 L 1.234375 -4.796875 L 1.234375 -1.484375 C 1.234375 -0.15625 2.109375 0.125 2.734375 0.125 C 3.5 0.125 3.890625 -0.625 3.890625 -1.484375 Z M 3.890625 -1.484375 "/>
</g>
<g id="glyph-6-10">
<path d="M 6.21875 0 L 6.21875 -0.34375 C 5.609375 -0.34375 5.3125 -0.34375 5.3125 -0.703125 L 5.3125 -2.890625 C 5.3125 -4 5.3125 -4.34375 5.03125 -4.71875 C 4.6875 -5.1875 4.125 -5.25 3.71875 -5.25 C 2.6875 -5.25 2.21875 -4.484375 2.046875 -4.109375 L 2.03125 -4.109375 L 2.03125 -8.28125 L 0.375 -8.140625 L 0.375 -7.796875 C 1.1875 -7.796875 1.28125 -7.71875 1.28125 -7.125 L 1.28125 -0.875 C 1.28125 -0.34375 1.15625 -0.34375 0.375 -0.34375 L 0.375 0 C 0.6875 -0.03125 1.328125 -0.03125 1.671875 -0.03125 C 2.015625 -0.03125 2.65625 -0.03125 2.96875 0 L 2.96875 -0.34375 C 2.203125 -0.34375 2.0625 -0.34375 2.0625 -0.875 L 2.0625 -3.09375 C 2.0625 -4.34375 2.890625 -5.015625 3.625 -5.015625 C 4.359375 -5.015625 4.53125 -4.40625 4.53125 -3.6875 L 4.53125 -0.875 C 4.53125 -0.34375 4.40625 -0.34375 3.625 -0.34375 L 3.625 0 C 3.9375 -0.03125 4.578125 -0.03125 4.90625 -0.03125 C 5.25 -0.03125 5.90625 -0.03125 6.21875 0 Z M 6.21875 0 "/>
</g>
<g id="glyph-6-11">
<path d="M 4.203125 -4.5625 C 4.203125 -4.921875 3.890625 -5.25 3.375 -5.25 C 2.359375 -5.25 2.015625 -4.15625 1.9375 -3.9375 L 1.9375 -5.25 L 0.328125 -5.125 L 0.328125 -4.78125 C 1.140625 -4.78125 1.234375 -4.703125 1.234375 -4.109375 L 1.234375 -0.875 C 1.234375 -0.34375 1.109375 -0.34375 0.328125 -0.34375 L 0.328125 0 C 0.671875 -0.03125 1.328125 -0.03125 1.6875 -0.03125 C 2 -0.03125 2.84375 -0.03125 3.125 0 L 3.125 -0.34375 L 2.890625 -0.34375 C 2.015625 -0.34375 1.984375 -0.484375 1.984375 -0.90625 L 1.984375 -2.78125 C 1.984375 -3.9375 2.46875 -5.015625 3.390625 -5.015625 C 3.484375 -5.015625 3.5 -5.015625 3.546875 -5 C 3.453125 -4.953125 3.265625 -4.890625 3.265625 -4.5625 C 3.265625 -4.21875 3.546875 -4.09375 3.734375 -4.09375 C 3.96875 -4.09375 4.203125 -4.25 4.203125 -4.5625 Z M 4.203125 -4.5625 "/>
</g>
<g id="glyph-6-12">
<path d="M 5.46875 -2.546875 C 5.46875 -4.09375 4.296875 -5.3125 2.921875 -5.3125 C 1.484375 -5.3125 0.359375 -4.046875 0.359375 -2.546875 C 0.359375 -1.03125 1.546875 0.125 2.90625 0.125 C 4.3125 0.125 5.46875 -1.046875 5.46875 -2.546875 Z M 4.5625 -2.65625 C 4.5625 -2.234375 4.5625 -1.5 4.25 -0.9375 C 3.921875 -0.375 3.375 -0.140625 2.921875 -0.140625 C 2.484375 -0.140625 1.9375 -0.328125 1.59375 -0.921875 C 1.28125 -1.453125 1.265625 -2.15625 1.265625 -2.65625 C 1.265625 -3.109375 1.265625 -3.84375 1.640625 -4.375 C 1.96875 -4.890625 2.484375 -5.078125 2.90625 -5.078125 C 3.375 -5.078125 3.875 -4.859375 4.203125 -4.40625 C 4.5625 -3.84375 4.5625 -3.09375 4.5625 -2.65625 Z M 4.5625 -2.65625 "/>
</g>
<g id="glyph-6-13">
<path d="M 6.140625 0 L 6.140625 -0.34375 C 5.328125 -0.34375 5.234375 -0.421875 5.234375 -1.015625 L 5.234375 -8.28125 L 3.578125 -8.140625 L 3.578125 -7.796875 C 4.390625 -7.796875 4.484375 -7.71875 4.484375 -7.125 L 4.484375 -4.5 C 4.234375 -4.84375 3.71875 -5.25 3 -5.25 C 1.609375 -5.25 0.421875 -4.09375 0.421875 -2.5625 C 0.421875 -1.046875 1.546875 0.125 2.859375 0.125 C 3.765625 0.125 4.296875 -0.484375 4.453125 -0.703125 L 4.453125 0.125 Z M 4.453125 -1.390625 C 4.453125 -1.1875 4.453125 -1.140625 4.296875 -0.875 C 4 -0.46875 3.515625 -0.125 2.921875 -0.125 C 2.609375 -0.125 1.328125 -0.234375 1.328125 -2.546875 C 1.328125 -3.40625 1.46875 -3.890625 1.734375 -4.28125 C 1.96875 -4.65625 2.4375 -5.015625 3.046875 -5.015625 C 3.78125 -5.015625 4.203125 -4.484375 4.3125 -4.296875 C 4.453125 -4.09375 4.453125 -4.0625 4.453125 -3.84375 Z M 4.453125 -1.390625 "/>
</g>
</g>
</defs>
<path fill="none" stroke-width="1.19553" stroke-linecap="butt" stroke-linejoin="miter" stroke="rgb(0%, 0%, 0%)" stroke-opacity="1" stroke-miterlimit="10" d="M -8.078366 0.00194984 L 367.735152 0.00194984 " transform="matrix(0.997492, 0, 0, -0.997492, 13.034671, 85.916007)"/>
<path fill="none" stroke-width="1.19553" stroke-linecap="round" stroke-linejoin="round" stroke="rgb(0%, 0%, 0%)" stroke-opacity="1" stroke-miterlimit="10" d="M -3.027501 3.831867 C -2.475335 1.533133 -1.241773 0.448382 -0.000379059 0.00194984 C -1.241773 -0.448398 -2.475335 -1.53315 -3.027501 -3.831883 " transform="matrix(0.997492, 0, 0, -0.997492, 380.445691, 85.916007)"/>
<g fill="rgb(0%, 0%, 0%)" fill-opacity="1">
<use xlink:href="#glyph-0-0" x="384.945688" y="88.654124"/>
<use xlink:href="#glyph-0-1" x="388.230675" y="88.654124"/>
<use xlink:href="#glyph-0-2" x="392.923626" y="88.654124"/>
<use xlink:href="#glyph-0-3" x="396.215768" y="88.654124"/>
<use xlink:href="#glyph-0-4" x="399.969812" y="88.654124"/>
<use xlink:href="#glyph-0-1" x="403.301705" y="88.654124"/>
<use xlink:href="#glyph-0-5" x="407.994657" y="88.654124"/>
<use xlink:href="#glyph-0-6" x="412.218552" y="88.654124"/>
<use xlink:href="#glyph-0-7" x="414.56463" y="88.654124"/>
</g>
<g fill="rgb(0%, 0%, 0%)" fill-opacity="1">
<use xlink:href="#glyph-1-0" x="422.071922" y="88.654124"/>
</g>
<path fill="none" stroke-width="0.79701" stroke-linecap="butt" stroke-linejoin="miter" stroke="rgb(79.998779%, 0%, 0%)" stroke-opacity="1" stroke-miterlimit="10" d="M 26.931302 -4.039435 L 26.931302 4.039418 " transform="matrix(0.997492, 0, 0, -0.997492, 13.034671, 85.916007)"/>
<path fill="none" stroke-width="0.79701" stroke-linecap="butt" stroke-linejoin="miter" stroke="rgb(79.998779%, 0%, 0%)" stroke-opacity="1" stroke-miterlimit="10" d="M 37.700496 -4.039435 L 37.700496 4.039418 " transform="matrix(0.997492, 0, 0, -0.997492, 13.034671, 85.916007)"/>
<path fill="none" stroke-width="0.79701" stroke-linecap="butt" stroke-linejoin="miter" stroke="rgb(79.998779%, 0%, 0%)" stroke-opacity="1" stroke-miterlimit="10" d="M 48.473605 -4.039435 L 48.473605 4.039418 " transform="matrix(0.997492, 0, 0, -0.997492, 13.034671, 85.916007)"/>
<path fill="none" stroke-width="0.79701" stroke-linecap="butt" stroke-linejoin="miter" stroke="rgb(79.998779%, 0%, 0%)" stroke-opacity="1" stroke-miterlimit="10" d="M 59.242798 -4.039435 L 59.242798 4.039418 " transform="matrix(0.997492, 0, 0, -0.997492, 13.034671, 85.916007)"/>
<path fill="none" stroke-width="0.79701" stroke-linecap="butt" stroke-linejoin="miter" stroke="rgb(79.998779%, 0%, 0%)" stroke-opacity="1" stroke-miterlimit="10" d="M 70.015908 -4.039435 L 70.015908 4.039418 " transform="matrix(0.997492, 0, 0, -0.997492, 13.034671, 85.916007)"/>
<path fill="none" stroke-width="0.79701" stroke-linecap="butt" stroke-linejoin="miter" stroke="rgb(79.998779%, 0%, 0%)" stroke-opacity="1" stroke-miterlimit="10" d="M 80.789017 -4.039435 L 80.789017 4.039418 " transform="matrix(0.997492, 0, 0, -0.997492, 13.034671, 85.916007)"/>
<path fill="none" stroke-width="0.79701" stroke-linecap="butt" stroke-linejoin="miter" stroke="rgb(79.998779%, 0%, 0%)" stroke-opacity="1" stroke-miterlimit="10" d="M 91.55821 -4.039435 L 91.55821 4.039418 " transform="matrix(0.997492, 0, 0, -0.997492, 13.034671, 85.916007)"/>
<path fill="none" stroke-width="0.79701" stroke-linecap="butt" stroke-linejoin="miter" stroke="rgb(79.998779%, 0%, 0%)" stroke-opacity="1" stroke-miterlimit="10" d="M 102.33132 -4.039435 L 102.33132 4.039418 " transform="matrix(0.997492, 0, 0, -0.997492, 13.034671, 85.916007)"/>
<path fill="none" stroke-width="0.79701" stroke-linecap="butt" stroke-linejoin="miter" stroke="rgb(79.998779%, 0%, 0%)" stroke-opacity="1" stroke-miterlimit="10" d="M 113.104429 -4.039435 L 113.104429 4.039418 " transform="matrix(0.997492, 0, 0, -0.997492, 13.034671, 85.916007)"/>
<path fill="none" stroke-width="0.79701" stroke-linecap="butt" stroke-linejoin="miter" stroke="rgb(79.998779%, 0%, 0%)" stroke-opacity="1" stroke-miterlimit="10" d="M 123.873623 -4.039435 L 123.873623 4.039418 " transform="matrix(0.997492, 0, 0, -0.997492, 13.034671, 85.916007)"/>
<path fill="none" stroke-width="0.79701" stroke-linecap="butt" stroke-linejoin="miter" stroke="rgb(79.998779%, 0%, 0%)" stroke-opacity="1" stroke-miterlimit="10" d="M 134.646732 -4.039435 L 134.646732 4.039418 " transform="matrix(0.997492, 0, 0, -0.997492, 13.034671, 85.916007)"/>
<path fill="none" stroke-width="0.79701" stroke-linecap="butt" stroke-linejoin="miter" stroke="rgb(79.998779%, 0%, 0%)" stroke-opacity="1" stroke-miterlimit="10" d="M 145.419841 -4.039435 L 145.419841 4.039418 " transform="matrix(0.997492, 0, 0, -0.997492, 13.034671, 85.916007)"/>
<path fill="none" stroke-width="0.79701" stroke-linecap="butt" stroke-linejoin="miter" stroke="rgb(79.998779%, 0%, 0%)" stroke-opacity="1" stroke-miterlimit="10" d="M 156.189035 -4.039435 L 156.189035 4.039418 " transform="matrix(0.997492, 0, 0, -0.997492, 13.034671, 85.916007)"/>
<path fill="none" stroke-width="0.79701" stroke-linecap="butt" stroke-linejoin="miter" stroke="rgb(79.998779%, 0%, 0%)" stroke-opacity="1" stroke-miterlimit="10" d="M 166.962144 -4.039435 L 166.962144 4.039418 " transform="matrix(0.997492, 0, 0, -0.997492, 13.034671, 85.916007)"/>
<path fill="none" stroke-width="0.79701" stroke-linecap="butt" stroke-linejoin="miter" stroke="rgb(79.998779%, 0%, 0%)" stroke-opacity="1" stroke-miterlimit="10" d="M 177.735253 -4.039435 L 177.735253 4.039418 " transform="matrix(0.997492, 0, 0, -0.997492, 13.034671, 85.916007)"/>
<path fill="none" stroke-width="0.79701" stroke-linecap="butt" stroke-linejoin="miter" stroke="rgb(79.998779%, 0%, 0%)" stroke-opacity="1" stroke-miterlimit="10" d="M 188.504447 -4.039435 L 188.504447 4.039418 " transform="matrix(0.997492, 0, 0, -0.997492, 13.034671, 85.916007)"/>
<path fill="none" stroke-width="0.79701" stroke-linecap="butt" stroke-linejoin="miter" stroke="rgb(79.998779%, 0%, 0%)" stroke-opacity="1" stroke-miterlimit="10" d="M 199.277556 -4.039435 L 199.277556 4.039418 " transform="matrix(0.997492, 0, 0, -0.997492, 13.034671, 85.916007)"/>
<path fill="none" stroke-width="0.79701" stroke-linecap="butt" stroke-linejoin="miter" stroke="rgb(79.998779%, 0%, 0%)" stroke-opacity="1" stroke-miterlimit="10" d="M 210.050666 -4.039435 L 210.050666 4.039418 " transform="matrix(0.997492, 0, 0, -0.997492, 13.034671, 85.916007)"/>
<path fill="none" stroke-width="0.79701" stroke-linecap="butt" stroke-linejoin="miter" stroke="rgb(79.998779%, 0%, 0%)" stroke-opacity="1" stroke-miterlimit="10" d="M 220.819859 -4.039435 L 220.819859 4.039418 " transform="matrix(0.997492, 0, 0, -0.997492, 13.034671, 85.916007)"/>
<path fill="none" stroke-width="0.79701" stroke-linecap="butt" stroke-linejoin="miter" stroke="rgb(79.998779%, 0%, 0%)" stroke-opacity="1" stroke-miterlimit="10" d="M 231.592968 -4.039435 L 231.592968 4.039418 " transform="matrix(0.997492, 0, 0, -0.997492, 13.034671, 85.916007)"/>
<path fill="none" stroke-width="0.79701" stroke-linecap="butt" stroke-linejoin="miter" stroke="rgb(79.998779%, 0%, 0%)" stroke-opacity="1" stroke-miterlimit="10" d="M 242.366078 -4.039435 L 242.366078 4.039418 " transform="matrix(0.997492, 0, 0, -0.997492, 13.034671, 85.916007)"/>
<path fill="none" stroke-width="0.79701" stroke-linecap="butt" stroke-linejoin="miter" stroke="rgb(79.998779%, 0%, 0%)" stroke-opacity="1" stroke-miterlimit="10" d="M 253.135271 -4.039435 L 253.135271 4.039418 " transform="matrix(0.997492, 0, 0, -0.997492, 13.034671, 85.916007)"/>
<path fill="none" stroke-width="0.79701" stroke-linecap="butt" stroke-linejoin="miter" stroke="rgb(79.998779%, 0%, 0%)" stroke-opacity="1" stroke-miterlimit="10" d="M 263.90838 -4.039435 L 263.90838 4.039418 " transform="matrix(0.997492, 0, 0, -0.997492, 13.034671, 85.916007)"/>
<path fill="none" stroke-width="0.79701" stroke-linecap="butt" stroke-linejoin="miter" stroke="rgb(79.998779%, 0%, 0%)" stroke-opacity="1" stroke-miterlimit="10" d="M 274.68149 -4.039435 L 274.68149 4.039418 " transform="matrix(0.997492, 0, 0, -0.997492, 13.034671, 85.916007)"/>
<path fill="none" stroke-width="0.79701" stroke-linecap="butt" stroke-linejoin="miter" stroke="rgb(79.998779%, 0%, 0%)" stroke-opacity="1" stroke-miterlimit="10" d="M 285.450683 -4.039435 L 285.450683 4.039418 " transform="matrix(0.997492, 0, 0, -0.997492, 13.034671, 85.916007)"/>
<path fill="none" stroke-width="0.79701" stroke-linecap="butt" stroke-linejoin="miter" stroke="rgb(79.998779%, 0%, 0%)" stroke-opacity="1" stroke-miterlimit="10" d="M 296.223792 -4.039435 L 296.223792 4.039418 " transform="matrix(0.997492, 0, 0, -0.997492, 13.034671, 85.916007)"/>
<path fill="none" stroke-width="0.79701" stroke-linecap="butt" stroke-linejoin="miter" stroke="rgb(79.998779%, 0%, 0%)" stroke-opacity="1" stroke-miterlimit="10" d="M 306.992986 -4.039435 L 306.992986 4.039418 " transform="matrix(0.997492, 0, 0, -0.997492, 13.034671, 85.916007)"/>
<path fill="none" stroke-width="0.79701" stroke-linecap="butt" stroke-linejoin="miter" stroke="rgb(79.998779%, 0%, 0%)" stroke-opacity="1" stroke-miterlimit="10" d="M 317.766095 -4.039435 L 317.766095 4.039418 " transform="matrix(0.997492, 0, 0, -0.997492, 13.034671, 85.916007)"/>
<path fill="none" stroke-width="0.79701" stroke-linecap="butt" stroke-linejoin="miter" stroke="rgb(79.998779%, 0%, 0%)" stroke-opacity="1" stroke-miterlimit="10" d="M 328.539205 -4.039435 L 328.539205 4.039418 " transform="matrix(0.997492, 0, 0, -0.997492, 13.034671, 85.916007)"/>
<path fill="none" stroke-width="0.79701" stroke-linecap="butt" stroke-linejoin="miter" stroke="rgb(79.998779%, 0%, 0%)" stroke-opacity="1" stroke-miterlimit="10" d="M 339.308398 -4.039435 L 339.308398 4.039418 " transform="matrix(0.997492, 0, 0, -0.997492, 13.034671, 85.916007)"/>
<path fill="none" stroke-width="0.79701" stroke-linecap="butt" stroke-linejoin="miter" stroke="rgb(79.998779%, 0%, 0%)" stroke-opacity="1" stroke-miterlimit="10" d="M 350.081507 -4.039435 L 350.081507 4.039418 " transform="matrix(0.997492, 0, 0, -0.997492, 13.034671, 85.916007)"/>
<path fill-rule="nonzero" fill="rgb(100%, 87.5%, 75%)" fill-opacity="1" d="M 158.089844 85.914062 L 158.089844 72.484375 L 168.832031 72.484375 L 168.832031 85.914062 Z M 158.089844 85.914062 "/>
<path fill="none" stroke-width="1.19553" stroke-linecap="butt" stroke-linejoin="miter" stroke="rgb(79.998779%, 39.99939%, 0%)" stroke-opacity="1" stroke-miterlimit="10" d="M 145.419841 0.00194984 L 145.419841 13.4654 L 156.189035 13.4654 L 156.189035 0.00194984 " transform="matrix(0.997492, 0, 0, -0.997492, 13.034671, 85.916007)"/>
<g fill="rgb(79.998779%, 0%, 0%)" fill-opacity="1">
<use xlink:href="#glyph-1-0" x="35.749566" y="100.800588"/>
</g>
<g fill="rgb(79.998779%, 0%, 0%)" fill-opacity="1">
<use xlink:href="#glyph-2-0" x="39.901128" y="101.904812"/>
</g>
<g fill="rgb(79.998779%, 0%, 0%)" fill-opacity="1">
<use xlink:href="#glyph-1-0" x="186.924512" y="100.800588"/>
</g>
<g fill="rgb(79.998779%, 0%, 0%)" fill-opacity="1">
<use xlink:href="#glyph-2-1" x="191.077073" y="101.904812"/>
<use xlink:href="#glyph-2-2" x="194.720824" y="101.904812"/>
</g>
<g fill="rgb(79.998779%, 0%, 0%)" fill-opacity="1">
<use xlink:href="#glyph-0-8" x="201.207605" y="100.800588"/>
</g>
<g fill="rgb(79.998779%, 0%, 0%)" fill-opacity="1">
<use xlink:href="#glyph-1-1" x="210.122862" y="100.800588"/>
</g>
<g fill="rgb(79.998779%, 0%, 0%)" fill-opacity="1">
<use xlink:href="#glyph-1-0" x="356.265789" y="100.800588"/>
</g>
<g fill="rgb(79.998779%, 0%, 0%)" fill-opacity="1">
<use xlink:href="#glyph-2-3" x="360.417352" y="101.904812"/>
<use xlink:href="#glyph-2-0" x="364.061103" y="101.904812"/>
</g>
<g fill="rgb(79.998779%, 39.99939%, 0%)" fill-opacity="1">
<use xlink:href="#glyph-0-9" x="153.879587" y="67.630976"/>
<use xlink:href="#glyph-0-10" x="158.572539" y="67.630976"/>
<use xlink:href="#glyph-0-11" x="160.918617" y="67.630976"/>
</g>
<g fill="rgb(79.998779%, 39.99939%, 0%)" fill-opacity="1">
<use xlink:href="#glyph-1-2" x="168.42591" y="67.630976"/>
</g>
<path fill="none" stroke-width="0.79701" stroke-linecap="butt" stroke-linejoin="miter" stroke="rgb(79.998779%, 39.99939%, 0%)" stroke-opacity="1" stroke-miterlimit="10" d="M 146.214804 26.928849 L 155.394072 26.928849 " transform="matrix(0.997492, 0, 0, -0.997492, 13.034671, 85.916007)"/>
<path fill="none" stroke-width="0.79701" stroke-linecap="round" stroke-linejoin="round" stroke="rgb(79.998779%, 39.99939%, 0%)" stroke-opacity="1" stroke-miterlimit="10" d="M -2.551652 3.109881 C -2.08564 1.245831 -1.047881 0.364715 0.00162561 0.000520786 C -1.047881 -0.363674 -2.08564 -1.24479 -2.551652 -3.112755 " transform="matrix(-0.997492, 0, 0, 0.997492, 158.485997, 59.054168)"/>
<path fill="none" stroke-width="0.79701" stroke-linecap="round" stroke-linejoin="round" stroke="rgb(79.998779%, 39.99939%, 0%)" stroke-opacity="1" stroke-miterlimit="10" d="M -2.551726 3.112755 C -2.085714 1.24479 -1.047955 0.363674 0.00155151 -0.000520786 C -1.047955 -0.364715 -2.085714 -1.245831 -2.551726 -3.109881 " transform="matrix(0.997492, 0, 0, -0.997492, 168.435952, 59.054168)"/>
<g fill="rgb(79.998779%, 39.99939%, 0%)" fill-opacity="1">
<use xlink:href="#glyph-0-12" x="157.603226" y="55.543364"/>
</g>
<g fill="rgb(79.998779%, 39.99939%, 0%)" fill-opacity="1">
<use xlink:href="#glyph-1-0" x="164.642256" y="55.543364"/>
</g>
<path fill="none" stroke-width="0.79701" stroke-linecap="butt" stroke-linejoin="miter" stroke="rgb(50%, 50%, 50%)" stroke-opacity="1" stroke-miterlimit="10" d="M 27.726265 -24.234609 L 349.286545 -24.234609 " transform="matrix(0.997492, 0, 0, -0.997492, 13.034671, 85.916007)"/>
<path fill="none" stroke-width="0.79701" stroke-linecap="round" stroke-linejoin="round" stroke="rgb(50%, 50%, 50%)" stroke-opacity="1" stroke-miterlimit="10" d="M -2.552223 3.111635 C -2.086211 1.24367 -1.044536 0.362554 0.00105466 -0.00164075 C -1.044536 -0.361919 -2.086211 -1.243035 -2.552223 -3.111001 " transform="matrix(-0.997492, 0, 0, 0.997492, 40.294021, 110.09148)"/>
<path fill="none" stroke-width="0.79701" stroke-linecap="round" stroke-linejoin="round" stroke="rgb(50%, 50%, 50%)" stroke-opacity="1" stroke-miterlimit="10" d="M -2.550754 3.111001 C -2.084741 1.243035 -1.046983 0.361919 -0.00139189 0.00164075 C -1.046983 -0.362554 -2.084741 -1.24367 -2.550754 -3.111635 " transform="matrix(0.997492, 0, 0, -0.997492, 361.841232, 110.09148)"/>
<g fill="rgb(50%, 50%, 50%)" fill-opacity="1">
<use xlink:href="#glyph-0-0" x="107.238842" y="120.074134"/>
<use xlink:href="#glyph-0-5" x="110.523829" y="120.074134"/>
<use xlink:href="#glyph-0-0" x="114.747724" y="120.074134"/>
<use xlink:href="#glyph-0-13" x="118.032711" y="120.074134"/>
<use xlink:href="#glyph-0-6" x="122.256606" y="120.074134"/>
</g>
<g fill="rgb(50%, 50%, 50%)" fill-opacity="1">
<use xlink:href="#glyph-0-2" x="127.417025" y="120.074134"/>
<use xlink:href="#glyph-0-13" x="130.709167" y="120.074134"/>
<use xlink:href="#glyph-0-11" x="134.933062" y="120.074134"/>
<use xlink:href="#glyph-0-14" x="139.626014" y="120.074134"/>
<use xlink:href="#glyph-0-3" x="143.849909" y="120.074134"/>
</g>
<g fill="rgb(50%, 50%, 50%)" fill-opacity="1">
<use xlink:href="#glyph-0-8" x="150.418293" y="120.074134"/>
</g>
<g fill="rgb(50%, 50%, 50%)" fill-opacity="1">
<use xlink:href="#glyph-0-15" x="159.33355" y="120.074134"/>
</g>
<g fill="rgb(50%, 50%, 50%)" fill-opacity="1">
<use xlink:href="#glyph-3-0" x="163.56025" y="114.317606"/>
</g>
<path fill="none" stroke-width="0.359" stroke-linecap="butt" stroke-linejoin="miter" stroke="rgb(50%, 50%, 50%)" stroke-opacity="1" stroke-miterlimit="10" d="M -0.00190161 -0.00157415 L 5.124234 -0.00157415 " transform="matrix(0.997492, 0, 0, -0.997492, 170.599553, 114.139055)"/>
<g fill="rgb(50%, 50%, 50%)" fill-opacity="1">
<use xlink:href="#glyph-1-3" x="170.599553" y="120.074134"/>
</g>
<g fill="rgb(50%, 50%, 50%)" fill-opacity="1">
<use xlink:href="#glyph-0-16" x="178.527406" y="120.074134"/>
<use xlink:href="#glyph-0-17" x="181.812393" y="120.074134"/>
<use xlink:href="#glyph-0-2" x="184.393795" y="120.074134"/>
<use xlink:href="#glyph-0-5" x="187.685937" y="120.074134"/>
<use xlink:href="#glyph-0-18" x="191.909832" y="120.074134"/>
</g>
<g fill="rgb(50%, 50%, 50%)" fill-opacity="1">
<use xlink:href="#glyph-1-1" x="201.763203" y="120.074134"/>
</g>
<g fill="rgb(50%, 50%, 50%)" fill-opacity="1">
<use xlink:href="#glyph-3-1" x="208.721142" y="120.074134"/>
</g>
<g fill="rgb(50%, 50%, 50%)" fill-opacity="1">
<use xlink:href="#glyph-0-19" x="217.167343" y="120.074134"/>
</g>
<g fill="rgb(50%, 50%, 50%)" fill-opacity="1">
<use xlink:href="#glyph-1-4" x="221.391238" y="120.074134"/>
</g>
<g fill="rgb(50%, 50%, 50%)" fill-opacity="1">
<use xlink:href="#glyph-0-20" x="223.737316" y="120.074134"/>
</g>
<g fill="rgb(50%, 50%, 50%)" fill-opacity="1">
<use xlink:href="#glyph-3-0" x="227.963341" y="114.317606"/>
</g>
<path fill="none" stroke-width="0.359" stroke-linecap="butt" stroke-linejoin="miter" stroke="rgb(50%, 50%, 50%)" stroke-opacity="1" stroke-miterlimit="10" d="M 0.00126548 -0.00157415 L 5.123485 -0.00157415 " transform="matrix(0.997492, 0, 0, -0.997492, 235.002644, 114.139055)"/>
<g fill="rgb(50%, 50%, 50%)" fill-opacity="1">
<use xlink:href="#glyph-1-3" x="235.002644" y="120.074134"/>
</g>
<g fill="rgb(50%, 50%, 50%)" fill-opacity="1">
<use xlink:href="#glyph-0-0" x="242.930497" y="120.074134"/>
<use xlink:href="#glyph-0-5" x="246.215484" y="120.074134"/>
</g>
<g fill="rgb(50%, 50%, 50%)" fill-opacity="1">
<use xlink:href="#glyph-1-1" x="253.253719" y="120.074134"/>
</g>
<g fill="rgb(50%, 50%, 50%)" fill-opacity="1">
<use xlink:href="#glyph-0-21" x="260.211659" y="120.074134"/>
</g>
<g fill="rgb(50%, 50%, 50%)" fill-opacity="1">
<use xlink:href="#glyph-0-19" x="268.657859" y="120.074134"/>
</g>
<g fill="rgb(50%, 50%, 50%)" fill-opacity="1">
<use xlink:href="#glyph-1-4" x="272.881754" y="120.074134"/>
</g>
<g fill="rgb(50%, 50%, 50%)" fill-opacity="1">
<use xlink:href="#glyph-0-20" x="275.227833" y="120.074134"/>
</g>
<g fill="rgb(50%, 50%, 50%)" fill-opacity="1">
<use xlink:href="#glyph-3-0" x="279.453894" y="114.317606"/>
</g>
<path fill="none" stroke-width="0.359" stroke-linecap="butt" stroke-linejoin="miter" stroke="rgb(50%, 50%, 50%)" stroke-opacity="1" stroke-miterlimit="10" d="M -0.0010119 -0.00157415 L 5.125124 -0.00157415 " transform="matrix(0.997492, 0, 0, -0.997492, 286.493197, 114.139055)"/>
<g fill="rgb(50%, 50%, 50%)" fill-opacity="1">
<use xlink:href="#glyph-1-3" x="286.493197" y="120.074134"/>
</g>
<g fill="rgb(50%, 50%, 50%)" fill-opacity="1">
<use xlink:href="#glyph-0-22" x="291.60671" y="120.074134"/>
</g>
<path fill-rule="nonzero" fill="rgb(39.99939%, 39.99939%, 100%)" fill-opacity="1" stroke-width="0.3985" stroke-linecap="butt" stroke-linejoin="miter" stroke="rgb(39.99939%, 39.99939%, 100%)" stroke-opacity="1" stroke-miterlimit="10" d="M 95.200156 45.780812 C 95.200156 46.301649 94.77722 46.724585 94.252467 46.724585 C 93.731629 46.724585 93.304778 46.301649 93.304778 45.780812 C 93.304778 45.256058 93.731629 44.833123 94.252467 44.833123 C 94.77722 44.833123 95.200156 45.256058 95.200156 45.780812 Z M 95.200156 45.780812 " transform="matrix(0.997492, 0, 0, -0.997492, 13.034671, 85.916007)"/>
<path fill-rule="nonzero" fill="rgb(39.99939%, 39.99939%, 100%)" fill-opacity="1" stroke-width="0.3985" stroke-linecap="butt" stroke-linejoin="miter" stroke="rgb(39.99939%, 39.99939%, 100%)" stroke-opacity="1" stroke-miterlimit="10" d="M 151.752127 45.780812 C 151.752127 46.301649 151.329191 46.724585 150.804438 46.724585 C 150.283601 46.724585 149.856749 46.301649 149.856749 45.780812 C 149.856749 45.256058 150.283601 44.833123 150.804438 44.833123 C 151.329191 44.833123 151.752127 45.256058 151.752127 45.780812 Z M 151.752127 45.780812 " transform="matrix(0.997492, 0, 0, -0.997492, 13.034671, 85.916007)"/>
<path fill-rule="nonzero" fill="rgb(39.99939%, 39.99939%, 100%)" fill-opacity="1" stroke-width="0.3985" stroke-linecap="butt" stroke-linejoin="miter" stroke="rgb(39.99939%, 39.99939%, 100%)" stroke-opacity="1" stroke-miterlimit="10" d="M 165.215577 45.780812 C 165.215577 46.301649 164.792641 46.724585 164.267888 46.724585 C 163.74705 46.724585 163.324115 46.301649 163.324115 45.780812 C 163.324115 45.256058 163.74705 44.833123 164.267888 44.833123 C 164.792641 44.833123 165.215577 45.256058 165.215577 45.780812 Z M 165.215577 45.780812 " transform="matrix(0.997492, 0, 0, -0.997492, 13.034671, 85.916007)"/>
<path fill-rule="nonzero" fill="rgb(39.99939%, 39.99939%, 100%)" fill-opacity="1" stroke-width="0.3985" stroke-linecap="butt" stroke-linejoin="miter" stroke="rgb(39.99939%, 39.99939%, 100%)" stroke-opacity="1" stroke-miterlimit="10" d="M 189.452136 45.780812 C 189.452136 46.301649 189.0292 46.724585 188.504447 46.724585 C 187.983609 46.724585 187.560674 46.301649 187.560674 45.780812 C 187.560674 45.256058 187.983609 44.833123 188.504447 44.833123 C 189.0292 44.833123 189.452136 45.256058 189.452136 45.780812 Z M 189.452136 45.780812 " transform="matrix(0.997492, 0, 0, -0.997492, 13.034671, 85.916007)"/>
<path fill-rule="nonzero" fill="rgb(39.99939%, 39.99939%, 100%)" fill-opacity="1" stroke-width="0.3985" stroke-linecap="butt" stroke-linejoin="miter" stroke="rgb(39.99939%, 39.99939%, 100%)" stroke-opacity="1" stroke-miterlimit="10" d="M 200.225245 45.780812 C 200.225245 46.301649 199.798393 46.724585 199.277556 46.724585 C 198.752803 46.724585 198.329867 46.301649 198.329867 45.780812 C 198.329867 45.256058 198.752803 44.833123 199.277556 44.833123 C 199.798393 44.833123 200.225245 45.256058 200.225245 45.780812 Z M 200.225245 45.780812 " transform="matrix(0.997492, 0, 0, -0.997492, 13.034671, 85.916007)"/>
<path fill-rule="nonzero" fill="rgb(39.99939%, 39.99939%, 100%)" fill-opacity="1" stroke-width="0.3985" stroke-linecap="butt" stroke-linejoin="miter" stroke="rgb(39.99939%, 39.99939%, 100%)" stroke-opacity="1" stroke-miterlimit="10" d="M 219.073291 45.780812 C 219.073291 46.301649 218.650356 46.724585 218.129519 46.724585 C 217.604765 46.724585 217.18183 46.301649 217.18183 45.780812 C 217.18183 45.256058 217.604765 44.833123 218.129519 44.833123 C 218.650356 44.833123 219.073291 45.256058 219.073291 45.780812 Z M 219.073291 45.780812 " transform="matrix(0.997492, 0, 0, -0.997492, 13.034671, 85.916007)"/>
<path fill-rule="nonzero" fill="rgb(39.99939%, 39.99939%, 100%)" fill-opacity="1" stroke-width="0.3985" stroke-linecap="butt" stroke-linejoin="miter" stroke="rgb(39.99939%, 39.99939%, 100%)" stroke-opacity="1" stroke-miterlimit="10" d="M 150.404999 45.780812 C 150.404999 46.301649 149.982063 46.724585 149.45731 46.724585 C 148.936472 46.724585 148.513537 46.301649 148.513537 45.780812 C 148.513537 45.256058 148.936472 44.833123 149.45731 44.833123 C 149.982063 44.833123 150.404999 45.256058 150.404999 45.780812 Z M 150.404999 45.780812 " transform="matrix(0.997492, 0, 0, -0.997492, 13.034671, 85.916007)"/>
<path fill-rule="nonzero" fill="rgb(39.99939%, 39.99939%, 100%)" fill-opacity="1" stroke-width="0.3985" stroke-linecap="butt" stroke-linejoin="miter" stroke="rgb(39.99939%, 39.99939%, 100%)" stroke-opacity="1" stroke-miterlimit="10" d="M 270.240666 45.780812 C 270.240666 46.301649 269.81773 46.724585 269.292977 46.724585 C 268.77214 46.724585 268.349204 46.301649 268.349204 45.780812 C 268.349204 45.256058 268.77214 44.833123 269.292977 44.833123 C 269.81773 44.833123 270.240666 45.256058 270.240666 45.780812 Z M 270.240666 45.780812 " transform="matrix(0.997492, 0, 0, -0.997492, 13.034671, 85.916007)"/>
<g fill="rgb(39.99939%, 39.99939%, 100%)" fill-opacity="1">
<use xlink:href="#glyph-0-23" x="44.893577" y="42.216867"/>
<use xlink:href="#glyph-0-10" x="49.586529" y="42.216867"/>
<use xlink:href="#glyph-0-24" x="51.932608" y="42.216867"/>
<use xlink:href="#glyph-0-3" x="56.390237" y="42.216867"/>
<use xlink:href="#glyph-0-6" x="60.14428" y="42.216867"/>
</g>
<g fill="rgb(39.99939%, 39.99939%, 100%)" fill-opacity="1">
<use xlink:href="#glyph-0-25" x="65.304699" y="42.216867"/>
</g>
<g fill="rgb(39.99939%, 39.99939%, 100%)" fill-opacity="1">
<use xlink:href="#glyph-0-13" x="69.293271" y="42.216867"/>
<use xlink:href="#glyph-0-6" x="73.517166" y="42.216867"/>
<use xlink:href="#glyph-0-26" x="75.863244" y="42.216867"/>
<use xlink:href="#glyph-0-3" x="80.556196" y="42.216867"/>
<use xlink:href="#glyph-0-4" x="84.31024" y="42.216867"/>
</g>
<g fill="rgb(39.99939%, 39.99939%, 100%)" fill-opacity="1">
<use xlink:href="#glyph-1-5" x="90.464423" y="42.216867"/>
</g>
<g fill="rgb(39.99939%, 39.99939%, 100%)" fill-opacity="1">
<use xlink:href="#glyph-4-0" x="95.351726" y="43.42882"/>
</g>
<g fill="rgb(39.99939%, 39.99939%, 100%)" fill-opacity="1">
<use xlink:href="#glyph-0-27" x="98.505797" y="42.216867"/>
</g>
<path fill="none" stroke-width="0.3985" stroke-linecap="butt" stroke-linejoin="miter" stroke="rgb(39.99939%, 39.99939%, 100%)" stroke-opacity="1" stroke-miterlimit="10" d="M 150.804438 44.433683 L 150.804438 15.208051 " transform="matrix(0.997492, 0, 0, -0.997492, 13.034671, 85.916007)"/>
<path fill="none" stroke-width="0.3985" stroke-linecap="round" stroke-linejoin="round" stroke="rgb(39.99939%, 39.99939%, 100%)" stroke-opacity="1" stroke-miterlimit="10" d="M -2.073378 2.392467 C -1.69352 0.955269 -0.851565 0.277789 -0.00177729 -0.000252048 C -0.851565 -0.278293 -1.69352 -0.955773 -2.073378 -2.392971 " transform="matrix(0, 0.997492, 0.997492, 0, 163.461189, 70.943179)"/>
<path fill="none" stroke-width="0.3985" stroke-linecap="butt" stroke-linejoin="miter" stroke="rgb(39.99939%, 39.99939%, 100%)" stroke-opacity="1" stroke-miterlimit="10" d="M 149.45731 44.433683 L 149.45731 15.208051 " transform="matrix(0.997492, 0, 0, -0.997492, 13.034671, 85.916007)"/>
<path fill="none" stroke-width="0.3985" stroke-linecap="round" stroke-linejoin="round" stroke="rgb(39.99939%, 39.99939%, 100%)" stroke-opacity="1" stroke-miterlimit="10" d="M -2.073378 2.391899 C -1.69352 0.954701 -0.851565 0.277221 -0.00177729 -0.000820231 C -0.851565 -0.278861 -1.69352 -0.956341 -2.073378 -2.389623 " transform="matrix(0, 0.997492, 0.997492, 0, 162.118006, 70.943179)"/>
<g fill="rgb(0%, 0%, 0%)" fill-opacity="1">
<use xlink:href="#glyph-5-0" x="97.175142" y="15.618735"/>
</g>
<g fill="rgb(0%, 0%, 0%)" fill-opacity="1">
<use xlink:href="#glyph-1-0" x="106.524637" y="17.408236"/>
</g>
<g fill="rgb(0%, 0%, 0%)" fill-opacity="1">
<use xlink:href="#glyph-6-0" x="115.006314" y="15.618735"/>
</g>
<g fill="rgb(0%, 0%, 0%)" fill-opacity="1">
<use xlink:href="#glyph-6-1" x="127.403773" y="15.618735"/>
<use xlink:href="#glyph-6-2" x="133.242361" y="15.618735"/>
</g>
<g fill="rgb(0%, 0%, 0%)" fill-opacity="1">
<use xlink:href="#glyph-6-3" x="142.96857" y="15.618735"/>
<use xlink:href="#glyph-6-4" x="147.57409" y="15.618735"/>
<use xlink:href="#glyph-6-5" x="153.412678" y="15.618735"/>
<use xlink:href="#glyph-6-6" x="163.143658" y="15.618735"/>
<use xlink:href="#glyph-6-7" x="169.630977" y="15.618735"/>
<use xlink:href="#glyph-6-8" x="172.874637" y="15.618735"/>
</g>
<g fill="rgb(0%, 0%, 0%)" fill-opacity="1">
<use xlink:href="#glyph-6-9" x="181.952115" y="15.618735"/>
<use xlink:href="#glyph-6-10" x="186.493238" y="15.618735"/>
<use xlink:href="#glyph-6-11" x="192.980558" y="15.618735"/>
<use xlink:href="#glyph-6-8" x="197.521682" y="15.618735"/>
<use xlink:href="#glyph-6-3" x="202.711538" y="15.618735"/>
<use xlink:href="#glyph-6-10" x="207.317058" y="15.618735"/>
<use xlink:href="#glyph-6-12" x="213.804377" y="15.618735"/>
<use xlink:href="#glyph-6-7" x="219.642965" y="15.618735"/>
<use xlink:href="#glyph-6-13" x="222.886625" y="15.618735"/>
<use xlink:href="#glyph-6-3" x="229.373945" y="15.618735"/>
</g>
<g fill="rgb(0%, 0%, 0%)" fill-opacity="1">
<use xlink:href="#glyph-5-1" x="237.879011" y="15.618735"/>
</g>
<g fill="rgb(0%, 0%, 0%)" fill-opacity="1">
<use xlink:href="#glyph-0-28" x="243.645915" y="17.408236"/>
</g>
<g fill="rgb(0%, 0%, 0%)" fill-opacity="1">
<use xlink:href="#glyph-5-2" x="248.366048" y="15.618735"/>
</g>
<g fill="rgb(0%, 0%, 0%)" fill-opacity="1">
<use xlink:href="#glyph-5-1" x="253.60122" y="15.618735"/>
</g>
<g fill="rgb(0%, 0%, 0%)" fill-opacity="1">
<use xlink:href="#glyph-0-29" x="259.366394" y="17.408236"/>
</g>
<g fill="rgb(0%, 0%, 0%)" fill-opacity="1">
<use xlink:href="#glyph-5-2" x="264.086527" y="15.618735"/>
</g>
<g fill="rgb(0%, 0%, 0%)" fill-opacity="1">
<use xlink:href="#glyph-5-3" x="269.321699" y="15.618735"/>
</g>
<g fill="rgb(0%, 0%, 0%)" fill-opacity="1">
<use xlink:href="#glyph-5-3" x="274.544945" y="15.618735"/>
</g>
<g fill="rgb(0%, 0%, 0%)" fill-opacity="1">
<use xlink:href="#glyph-5-3" x="279.780117" y="15.618735"/>
</g>
<g fill="rgb(0%, 0%, 0%)" fill-opacity="1">
<use xlink:href="#glyph-5-2" x="285.015288" y="15.618735"/>
</g>
<g fill="rgb(0%, 0%, 0%)" fill-opacity="1">
<use xlink:href="#glyph-5-1" x="290.238535" y="15.618735"/>
</g>
<g fill="rgb(0%, 0%, 0%)" fill-opacity="1">
<use xlink:href="#glyph-0-19" x="296.011268" y="17.408236"/>
<use xlink:href="#glyph-0-28" x="300.235164" y="17.408236"/>
</g>
</svg>
