<?xml version="1.0" encoding="UTF-8"?>
<svg xmlns="http://www.w3.org/2000/svg" xmlns:xlink="http://www.w3.org/1999/xlink" width="353.382pt" height="183.38pt" viewBox="0 0 353.382 183.38">
<defs>
<g>
<g id="glyph-0-0">
<path d="M 4.640625 -1.140625 C 4.640625 -1.1875 4.609375 -1.234375 4.515625 -1.234375 C 4.40625 -1.234375 4.390625 -1.203125 4.34375 -0.984375 C 4.25 -0.59375 4.109375 -0.140625 3.78125 -0.140625 C 3.59375 -0.140625 3.53125 -0.296875 3.53125 -0.515625 C 3.53125 -0.65625 3.59375 -0.921875 3.640625 -1.125 L 3.84375 -1.9375 C 3.921875 -2.234375 3.921875 -2.28125 4 -2.546875 C 4.046875 -2.75 4.140625 -3.125 4.140625 -3.171875 C 4.140625 -3.375 3.984375 -3.421875 3.890625 -3.421875 C 3.78125 -3.421875 3.609375 -3.34375 3.546875 -3.15625 L 2.96875 -0.859375 C 2.9375 -0.71875 2.5625 -0.140625 2.03125 -0.140625 C 1.640625 -0.140625 1.515625 -0.421875 1.515625 -0.78125 C 1.515625 -1.25 1.78125 -1.96875 1.953125 -2.40625 C 2.046875 -2.609375 2.0625 -2.6875 2.0625 -2.828125 C 2.0625 -3.265625 1.71875 -3.5 1.34375 -3.5 C 0.5625 -3.5 0.234375 -2.375 0.234375 -2.28125 C 0.234375 -2.21875 0.296875 -2.1875 0.359375 -2.1875 C 0.453125 -2.1875 0.46875 -2.234375 0.484375 -2.3125 C 0.703125 -3.015625 1.046875 -3.28125 1.328125 -3.28125 C 1.4375 -3.28125 1.515625 -3.203125 1.515625 -3.015625 C 1.515625 -2.828125 1.4375 -2.65625 1.34375 -2.375 C 1.015625 -1.53125 0.9375 -1.1875 0.9375 -0.90625 C 0.9375 -0.125 1.53125 0.078125 2 0.078125 C 2.59375 0.078125 2.953125 -0.390625 2.984375 -0.4375 C 3.109375 -0.0625 3.46875 0.078125 3.75 0.078125 C 4.125 0.078125 4.3125 -0.234375 4.359375 -0.359375 C 4.53125 -0.640625 4.640625 -1.109375 4.640625 -1.140625 Z M 4.640625 -1.140625 "/>
</g>
<g id="glyph-0-1">
<path d="M 3.25 -1.4375 C 3.3125 -1.703125 3.34375 -1.953125 3.34375 -2.21875 C 3.34375 -2.359375 3.34375 -2.5 3.3125 -2.625 C 3.234375 -3 3.046875 -3.3125 2.8125 -3.59375 C 2.4375 -4.03125 1.90625 -4.671875 1.90625 -5.015625 C 1.90625 -5.0625 1.90625 -5.109375 1.9375 -5.140625 C 1.96875 -5.21875 2.03125 -5.28125 2.109375 -5.3125 C 2.203125 -5.359375 2.28125 -5.375 2.359375 -5.359375 C 2.75 -5.34375 3 -5.09375 3.3125 -4.953125 C 3.34375 -4.953125 3.375 -4.953125 3.40625 -4.953125 C 3.515625 -4.953125 3.640625 -5.015625 3.703125 -5.140625 C 3.734375 -5.1875 3.734375 -5.234375 3.734375 -5.28125 C 3.734375 -5.390625 3.671875 -5.484375 3.5625 -5.5 C 3.234375 -5.578125 2.84375 -5.671875 2.546875 -5.671875 C 2.484375 -5.671875 2.421875 -5.65625 2.375 -5.65625 C 2.25 -5.640625 2.125 -5.609375 2.015625 -5.53125 C 1.890625 -5.46875 1.796875 -5.34375 1.734375 -5.234375 C 1.671875 -5.109375 1.640625 -4.984375 1.640625 -4.828125 C 1.640625 -4.40625 1.90625 -3.890625 2.15625 -3.453125 C 1.828125 -3.375 1.5 -3.21875 1.21875 -2.984375 C 0.8125 -2.65625 0.53125 -2.203125 0.40625 -1.734375 C 0.359375 -1.578125 0.34375 -1.421875 0.34375 -1.28125 C 0.34375 -0.96875 0.4375 -0.6875 0.609375 -0.453125 C 0.84375 -0.109375 1.25 0.078125 1.71875 0.078125 C 2.4375 0.078125 3.046875 -0.65625 3.25 -1.4375 Z M 2.65625 -1.296875 C 2.53125 -0.734375 2.21875 -0.140625 1.734375 -0.140625 C 1.390625 -0.140625 1.140625 -0.3125 1.015625 -0.578125 C 0.9375 -0.71875 0.90625 -0.890625 0.90625 -1.0625 C 0.90625 -1.265625 0.9375 -1.46875 0.984375 -1.6875 C 1.09375 -2.09375 1.265625 -2.5 1.578125 -2.828125 C 1.78125 -3.03125 2.03125 -3.171875 2.28125 -3.234375 L 2.296875 -3.203125 C 2.46875 -2.921875 2.625 -2.640625 2.6875 -2.3125 C 2.71875 -2.171875 2.734375 -2.03125 2.734375 -1.890625 C 2.734375 -1.6875 2.71875 -1.5 2.65625 -1.296875 Z M 2.65625 -1.296875 "/>
</g>
<g id="glyph-0-2">
<path d="M 4.375 -3.25 C 4.375 -3.421875 4.25 -3.5 4.125 -3.5 C 3.96875 -3.5 3.828125 -3.40625 3.765625 -3.203125 C 3.25 -1.375 1.890625 -0.5625 1.09375 -0.3125 L 1.828125 -3.265625 C 1.828125 -3.296875 1.84375 -3.34375 1.84375 -3.390625 C 1.84375 -3.390625 1.84375 -3.5 1.71875 -3.5 C 1.59375 -3.5 0.8125 -3.421875 0.671875 -3.40625 C 0.59375 -3.390625 0.5625 -3.328125 0.5625 -3.265625 C 0.5625 -3.15625 0.671875 -3.15625 0.765625 -3.15625 C 0.9375 -3.15625 1.15625 -3.15625 1.15625 -3.046875 C 1.15625 -3 1.0625 -2.640625 1.015625 -2.4375 L 0.8125 -1.640625 L 0.53125 -0.484375 C 0.484375 -0.359375 0.4375 -0.140625 0.4375 -0.109375 C 0.4375 0 0.5625 0 0.59375 0 L 0.703125 0 C 1.4375 -0.125 2.34375 -0.5 3.125 -1.1875 C 4.203125 -2.15625 4.375 -3.234375 4.375 -3.25 Z M 4.375 -3.25 "/>
</g>
<g id="glyph-0-3">
<path d="M 3.734375 -5.765625 C 3.734375 -5.875 3.65625 -5.953125 3.5625 -5.953125 C 3.421875 -5.953125 3.390625 -5.859375 3.359375 -5.78125 L 0.515625 1.65625 C 0.46875 1.765625 0.46875 1.78125 0.46875 1.796875 C 0.46875 1.90625 0.546875 1.984375 0.65625 1.984375 C 0.78125 1.984375 0.8125 1.890625 0.84375 1.8125 L 3.6875 -5.625 C 3.734375 -5.734375 3.734375 -5.75 3.734375 -5.765625 Z M 3.734375 -5.765625 "/>
</g>
<g id="glyph-1-0">
<path d="M 2.796875 1.890625 C 2.796875 1.859375 2.796875 1.84375 2.6875 1.75 C 1.609375 0.71875 1.328125 -0.75 1.328125 -1.984375 C 1.328125 -4.265625 2.28125 -5.34375 2.6875 -5.703125 C 2.796875 -5.8125 2.796875 -5.8125 2.796875 -5.859375 C 2.796875 -5.890625 2.765625 -5.953125 2.6875 -5.953125 C 2.5625 -5.953125 2.171875 -5.546875 2.109375 -5.484375 C 1.046875 -4.359375 0.8125 -2.9375 0.8125 -1.984375 C 0.8125 -0.203125 1.5625 1.21875 2.640625 1.984375 C 2.703125 1.984375 2.796875 1.984375 2.796875 1.890625 Z M 2.796875 1.890625 "/>
</g>
<g id="glyph-1-1">
<path d="M 2.453125 -1.984375 C 2.453125 -2.734375 2.328125 -3.640625 1.828125 -4.578125 C 1.4375 -5.3125 0.71875 -5.953125 0.578125 -5.953125 C 0.5 -5.953125 0.46875 -5.890625 0.46875 -5.859375 C 0.46875 -5.828125 0.46875 -5.8125 0.578125 -5.71875 C 1.6875 -4.65625 1.9375 -3.203125 1.9375 -1.984375 C 1.9375 0.296875 0.984375 1.375 0.59375 1.734375 C 0.484375 1.84375 0.46875 1.84375 0.46875 1.890625 C 0.46875 1.921875 0.5 1.984375 0.578125 1.984375 C 0.703125 1.984375 1.109375 1.578125 1.171875 1.515625 C 2.234375 0.390625 2.453125 -1.03125 2.453125 -1.984375 Z M 2.453125 -1.984375 "/>
</g>
<g id="glyph-1-2">
<path d="M 2.796875 -0.984375 L 2.796875 -1.4375 L 2.5625 -1.4375 L 2.5625 -1.015625 C 2.5625 -0.453125 2.3125 -0.171875 2.015625 -0.171875 C 1.46875 -0.171875 1.46875 -0.84375 1.46875 -0.96875 L 1.46875 -3.15625 L 2.65625 -3.15625 L 2.65625 -3.421875 L 1.46875 -3.421875 L 1.46875 -4.875 L 1.234375 -4.875 C 1.21875 -4.15625 0.890625 -3.40625 0.15625 -3.375 L 0.15625 -3.15625 L 0.875 -3.15625 L 0.875 -0.984375 C 0.875 -0.0625 1.59375 0.078125 1.953125 0.078125 C 2.484375 0.078125 2.796875 -0.390625 2.796875 -0.984375 Z M 2.796875 -0.984375 "/>
</g>
<g id="glyph-1-3">
<path d="M 3.96875 -1.6875 C 3.96875 -2.6875 3.15625 -3.546875 2.109375 -3.546875 C 1.0625 -3.546875 0.234375 -2.6875 0.234375 -1.6875 C 0.234375 -0.703125 1.09375 0.078125 2.109375 0.078125 C 3.125 0.078125 3.96875 -0.703125 3.96875 -1.6875 Z M 3.265625 -1.765625 C 3.265625 -1.390625 3.25 -0.953125 3.03125 -0.625 C 2.8125 -0.3125 2.453125 -0.171875 2.109375 -0.171875 C 1.671875 -0.171875 1.34375 -0.375 1.171875 -0.65625 C 0.96875 -0.96875 0.9375 -1.359375 0.9375 -1.765625 C 0.9375 -2.0625 0.9375 -2.546875 1.1875 -2.875 C 1.390625 -3.15625 1.734375 -3.3125 2.109375 -3.3125 C 2.515625 -3.3125 2.859375 -3.125 3.046875 -2.84375 C 3.25 -2.515625 3.265625 -2.078125 3.265625 -1.765625 Z M 3.265625 -1.765625 "/>
</g>
<g id="glyph-1-4">
<path d="M 4.078125 -0.71875 L 4.078125 -1.15625 L 3.828125 -1.15625 L 3.828125 -0.71875 C 3.828125 -0.390625 3.71875 -0.265625 3.546875 -0.265625 C 3.25 -0.265625 3.25 -0.625 3.25 -0.71875 L 3.25 -2.359375 C 3.25 -3.140625 2.5 -3.546875 1.78125 -3.546875 C 1.125 -3.546875 0.53125 -3.28125 0.53125 -2.765625 C 0.53125 -2.53125 0.703125 -2.375 0.90625 -2.375 C 1.125 -2.375 1.28125 -2.546875 1.28125 -2.75 C 1.28125 -2.9375 1.15625 -3.078125 0.984375 -3.125 C 1.28125 -3.3125 1.703125 -3.3125 1.765625 -3.3125 C 2.203125 -3.3125 2.65625 -3.015625 2.65625 -2.359375 L 2.65625 -2.109375 C 2.1875 -2.09375 1.65625 -2.0625 1.109375 -1.828125 C 0.40625 -1.53125 0.265625 -1.078125 0.265625 -0.8125 C 0.265625 -0.125 1.078125 0.078125 1.625 0.078125 C 2.203125 0.078125 2.5625 -0.25 2.734375 -0.5625 C 2.765625 -0.265625 2.96875 0.046875 3.328125 0.046875 C 3.40625 0.046875 4.078125 0.015625 4.078125 -0.71875 Z M 2.65625 -1.125 C 2.65625 -0.34375 2 -0.140625 1.6875 -0.140625 C 1.265625 -0.140625 0.921875 -0.421875 0.921875 -0.796875 C 0.921875 -1.328125 1.40625 -1.859375 2.65625 -1.90625 Z M 2.65625 -1.125 "/>
</g>
<g id="glyph-1-5">
<path d="M 2.125 0 L 2.125 -0.265625 C 1.609375 -0.265625 1.515625 -0.265625 1.515625 -0.625 L 1.515625 -5.515625 L 0.328125 -5.421875 L 0.328125 -5.15625 C 0.875 -5.15625 0.9375 -5.109375 0.9375 -4.71875 L 0.9375 -0.625 C 0.9375 -0.265625 0.84375 -0.265625 0.328125 -0.265625 L 0.328125 0 C 0.640625 -0.03125 1.09375 -0.03125 1.21875 -0.03125 C 1.375 -0.03125 1.8125 -0.03125 2.125 0 Z M 2.125 0 "/>
</g>
<g id="glyph-1-6">
<path d="M 3.390625 -1.53125 L 3.140625 -1.53125 C 3.0625 -0.609375 2.90625 -0.25 1.9375 -0.25 L 0.984375 -0.25 L 3.296875 -3.140625 C 3.34375 -3.21875 3.359375 -3.234375 3.359375 -3.296875 C 3.359375 -3.421875 3.265625 -3.421875 3.140625 -3.421875 L 0.4375 -3.421875 L 0.34375 -2.09375 L 0.59375 -2.09375 C 0.640625 -2.921875 0.8125 -3.203125 1.703125 -3.203125 L 2.609375 -3.203125 L 0.3125 -0.296875 C 0.25 -0.21875 0.234375 -0.203125 0.234375 -0.140625 C 0.234375 0 0.328125 0 0.453125 0 L 3.25 0 Z M 3.390625 -1.53125 "/>
</g>
<g id="glyph-1-7">
<path d="M 3.5 -0.953125 C 3.5 -0.984375 3.484375 -1.0625 3.375 -1.0625 C 3.28125 -1.0625 3.265625 -1.015625 3.25 -0.953125 C 2.96875 -0.1875 2.28125 -0.171875 2.140625 -0.171875 C 1.78125 -0.171875 1.421875 -0.328125 1.1875 -0.703125 C 0.9375 -1.0625 0.9375 -1.578125 0.9375 -1.8125 L 3.28125 -1.8125 C 3.453125 -1.8125 3.5 -1.8125 3.5 -2 C 3.5 -2.703125 3.109375 -3.546875 2 -3.546875 C 1.015625 -3.546875 0.234375 -2.71875 0.234375 -1.734375 C 0.234375 -0.71875 1.09375 0.078125 2.09375 0.078125 C 3.109375 0.078125 3.5 -0.765625 3.5 -0.953125 Z M 2.953125 -2.015625 L 0.953125 -2.015625 C 1.03125 -3.125 1.703125 -3.3125 2 -3.3125 C 2.921875 -3.3125 2.953125 -2.203125 2.953125 -2.015625 Z M 2.953125 -2.015625 "/>
</g>
<g id="glyph-1-8">
<path d="M 3.046875 -3 C 3.046875 -3.28125 2.796875 -3.5 2.4375 -3.5 C 1.921875 -3.5 1.578125 -3.109375 1.40625 -2.671875 L 1.40625 -3.5 L 0.28125 -3.40625 L 0.28125 -3.15625 C 0.8125 -3.15625 0.875 -3.09375 0.875 -2.703125 L 0.875 -0.625 C 0.875 -0.265625 0.78125 -0.265625 0.28125 -0.265625 L 0.28125 0 C 0.59375 -0.03125 1.03125 -0.03125 1.21875 -0.03125 C 1.6875 -0.03125 1.703125 -0.03125 2.21875 0 L 2.21875 -0.265625 L 2.0625 -0.265625 C 1.46875 -0.265625 1.453125 -0.34375 1.453125 -0.640625 L 1.453125 -1.8125 C 1.453125 -2.40625 1.703125 -3.265625 2.46875 -3.28125 C 2.421875 -3.25 2.34375 -3.1875 2.34375 -3 C 2.34375 -2.75 2.53125 -2.640625 2.6875 -2.640625 C 2.875 -2.640625 3.046875 -2.765625 3.046875 -3 Z M 3.046875 -3 "/>
</g>
<g id="glyph-1-9">
<path d="M 5.90625 -3.15625 L 5.90625 -3.421875 C 5.65625 -3.390625 5.640625 -3.390625 5.296875 -3.390625 C 5.046875 -3.390625 4.828125 -3.390625 4.578125 -3.421875 L 4.578125 -3.15625 C 4.921875 -3.140625 5.015625 -2.9375 5.015625 -2.796875 C 5.015625 -2.703125 4.984375 -2.65625 4.96875 -2.59375 L 4.21875 -0.625 L 3.390625 -2.78125 C 3.359375 -2.890625 3.359375 -2.90625 3.359375 -2.9375 C 3.359375 -3.15625 3.609375 -3.15625 3.796875 -3.15625 L 3.796875 -3.421875 C 3.5 -3.390625 3.078125 -3.390625 3 -3.390625 C 2.8125 -3.390625 2.5 -3.390625 2.25 -3.421875 L 2.25 -3.15625 C 2.734375 -3.15625 2.75 -3.125 2.90625 -2.703125 L 2.171875 -0.734375 L 1.390625 -2.796875 C 1.375 -2.828125 1.34375 -2.90625 1.34375 -2.9375 C 1.34375 -3.15625 1.65625 -3.15625 1.796875 -3.15625 L 1.796875 -3.421875 C 1.453125 -3.390625 1.09375 -3.390625 0.9375 -3.390625 C 0.796875 -3.390625 0.390625 -3.390625 0.171875 -3.421875 L 0.171875 -3.15625 C 0.5625 -3.15625 0.640625 -3.125 0.734375 -2.90625 L 1.796875 -0.109375 C 1.84375 0.015625 1.859375 0.078125 2 0.078125 C 2.125 0.078125 2.15625 -0.015625 2.203125 -0.109375 L 3.046875 -2.34375 L 3.875 -0.109375 C 3.921875 -0.015625 3.953125 0.078125 4.09375 0.078125 C 4.21875 0.078125 4.25 0 4.28125 -0.09375 L 5.234375 -2.625 C 5.3125 -2.796875 5.4375 -3.15625 5.90625 -3.15625 Z M 5.90625 -3.15625 "/>
</g>
<g id="glyph-1-10">
<path d="M 2.0625 0 L 2.0625 -0.265625 C 1.546875 -0.265625 1.515625 -0.296875 1.515625 -0.609375 L 1.515625 -3.5 L 0.359375 -3.40625 L 0.359375 -3.15625 C 0.859375 -3.15625 0.9375 -3.109375 0.9375 -2.71875 L 0.9375 -0.625 C 0.9375 -0.265625 0.84375 -0.265625 0.328125 -0.265625 L 0.328125 0 C 0.640625 -0.03125 1.09375 -0.03125 1.203125 -0.03125 C 1.3125 -0.03125 1.78125 -0.03125 2.0625 0 Z M 1.609375 -4.78125 C 1.609375 -5.046875 1.40625 -5.21875 1.171875 -5.21875 C 0.9375 -5.21875 0.734375 -5.046875 0.734375 -4.78125 C 0.734375 -4.546875 0.921875 -4.34375 1.171875 -4.34375 C 1.421875 -4.34375 1.609375 -4.546875 1.609375 -4.78125 Z M 1.609375 -4.78125 "/>
</g>
<g id="glyph-1-11">
<path d="M 4.390625 0 L 4.390625 -0.265625 C 3.859375 -0.265625 3.796875 -0.3125 3.796875 -0.703125 L 3.796875 -5.515625 L 2.609375 -5.421875 L 2.609375 -5.15625 C 3.15625 -5.15625 3.21875 -5.109375 3.21875 -4.71875 L 3.21875 -3.046875 C 2.9375 -3.34375 2.5625 -3.5 2.15625 -3.5 C 1.15625 -3.5 0.28125 -2.734375 0.28125 -1.703125 C 0.28125 -0.734375 1.078125 0.078125 2.078125 0.078125 C 2.546875 0.078125 2.921875 -0.140625 3.1875 -0.421875 L 3.1875 0.078125 Z M 3.1875 -0.984375 C 3.1875 -0.84375 3.1875 -0.8125 3.078125 -0.65625 C 2.84375 -0.328125 2.484375 -0.140625 2.109375 -0.140625 C 1.75 -0.140625 1.421875 -0.328125 1.234375 -0.625 C 1.03125 -0.9375 0.984375 -1.328125 0.984375 -1.703125 C 0.984375 -2.15625 1.0625 -2.484375 1.234375 -2.765625 C 1.421875 -3.0625 1.78125 -3.28125 2.1875 -3.28125 C 2.578125 -3.28125 2.953125 -3.09375 3.1875 -2.671875 Z M 3.1875 -0.984375 "/>
</g>
<g id="glyph-1-12">
<path d="M 4.453125 0 L 4.453125 -0.265625 C 3.953125 -0.265625 3.859375 -0.265625 3.859375 -0.625 L 3.859375 -2.40625 C 3.859375 -3.078125 3.5625 -3.5 2.71875 -3.5 C 2.03125 -3.5 1.65625 -3.0625 1.515625 -2.796875 L 1.515625 -5.515625 L 0.328125 -5.421875 L 0.328125 -5.15625 C 0.859375 -5.15625 0.921875 -5.109375 0.921875 -4.71875 L 0.921875 -0.625 C 0.921875 -0.265625 0.828125 -0.265625 0.328125 -0.265625 L 0.328125 0 C 0.671875 -0.03125 1.015625 -0.03125 1.234375 -0.03125 C 1.453125 -0.03125 1.796875 -0.03125 2.140625 0 L 2.140625 -0.265625 C 1.625 -0.265625 1.53125 -0.265625 1.53125 -0.625 L 1.53125 -2.0625 C 1.53125 -2.890625 2.171875 -3.28125 2.65625 -3.28125 C 3.140625 -3.28125 3.25 -2.9375 3.25 -2.4375 L 3.25 -0.625 C 3.25 -0.265625 3.15625 -0.265625 2.65625 -0.265625 L 2.65625 0 C 3 -0.03125 3.34375 -0.03125 3.5625 -0.03125 C 3.78125 -0.03125 4.125 -0.03125 4.453125 0 Z M 4.453125 0 "/>
</g>
<g id="glyph-1-13">
<path d="M 1.703125 -0.03125 C 1.703125 -0.46875 1.546875 -0.875 1.171875 -0.875 C 0.90625 -0.875 0.734375 -0.671875 0.734375 -0.4375 C 0.734375 -0.203125 0.890625 0 1.171875 0 C 1.34375 0 1.453125 -0.09375 1.484375 -0.125 C 1.484375 0.125 1.484375 0.765625 0.875 1.328125 C 0.859375 1.359375 0.828125 1.375 0.828125 1.421875 C 0.828125 1.5 0.90625 1.546875 0.9375 1.546875 C 1.046875 1.546875 1.703125 0.921875 1.703125 -0.03125 Z M 1.703125 -0.03125 "/>
</g>
<g id="glyph-1-14">
<path d="M 4.453125 0 L 4.453125 -0.265625 C 3.953125 -0.265625 3.859375 -0.265625 3.859375 -0.625 L 3.859375 -2.40625 C 3.859375 -3.078125 3.5625 -3.5 2.71875 -3.5 C 1.9375 -3.5 1.578125 -2.921875 1.484375 -2.734375 L 1.46875 -2.734375 L 1.46875 -3.5 L 0.328125 -3.40625 L 0.328125 -3.15625 C 0.859375 -3.15625 0.921875 -3.09375 0.921875 -2.703125 L 0.921875 -0.625 C 0.921875 -0.265625 0.828125 -0.265625 0.328125 -0.265625 L 0.328125 0 C 0.671875 -0.03125 1.015625 -0.03125 1.234375 -0.03125 C 1.453125 -0.03125 1.796875 -0.03125 2.140625 0 L 2.140625 -0.265625 C 1.625 -0.265625 1.53125 -0.265625 1.53125 -0.625 L 1.53125 -2.0625 C 1.53125 -2.890625 2.171875 -3.28125 2.65625 -3.28125 C 3.140625 -3.28125 3.25 -2.9375 3.25 -2.4375 L 3.25 -0.625 C 3.25 -0.265625 3.15625 -0.265625 2.65625 -0.265625 L 2.65625 0 C 3 -0.03125 3.34375 -0.03125 3.5625 -0.03125 C 3.78125 -0.03125 4.125 -0.03125 4.453125 0 Z M 4.453125 0 "/>
</g>
<g id="glyph-1-15">
<path d="M 4.390625 0 L 4.390625 -0.265625 C 3.890625 -0.265625 3.796875 -0.265625 3.796875 -0.625 L 3.796875 -3.515625 L 2.75 -3.4375 C 2.671875 -3.4375 2.625 -3.4375 2.609375 -3.421875 C 2.59375 -3.421875 2.578125 -3.421875 2.46875 -3.421875 L 1.4375 -3.421875 L 1.4375 -4.28125 C 1.4375 -5.078125 2.171875 -5.359375 2.671875 -5.359375 C 2.90625 -5.359375 3.140625 -5.3125 3.34375 -5.15625 C 3.34375 -5.15625 3.015625 -5.09375 3.015625 -4.765625 C 3.015625 -4.515625 3.21875 -4.390625 3.390625 -4.390625 C 3.515625 -4.390625 3.78125 -4.453125 3.78125 -4.78125 C 3.78125 -5.203125 3.359375 -5.59375 2.6875 -5.59375 C 1.90625 -5.59375 0.875 -5.203125 0.875 -4.296875 L 0.875 -3.421875 L 0.234375 -3.421875 L 0.234375 -3.15625 L 0.875 -3.15625 L 0.875 -0.625 C 0.875 -0.265625 0.78125 -0.265625 0.28125 -0.265625 L 0.28125 0 C 0.59375 -0.03125 1.03125 -0.03125 1.171875 -0.03125 C 1.328125 -0.03125 1.75 -0.03125 2.0625 0 L 2.0625 -0.265625 C 1.5625 -0.265625 1.453125 -0.265625 1.453125 -0.625 L 1.453125 -3.15625 L 2.828125 -3.15625 C 3.15625 -3.15625 3.21875 -3.0625 3.21875 -2.734375 L 3.21875 -0.625 C 3.21875 -0.265625 3.125 -0.265625 2.609375 -0.265625 L 2.609375 0 C 2.921875 -0.03125 3.359375 -0.03125 3.5 -0.03125 C 3.65625 -0.03125 4.09375 -0.03125 4.390625 0 Z M 4.390625 0 "/>
</g>
<g id="glyph-1-16">
<path d="M 4.09375 -3.1875 C 4.09375 -3.3125 3.984375 -3.59375 3.640625 -3.59375 C 3.5 -3.59375 3.125 -3.5625 2.75 -3.21875 C 2.5625 -3.359375 2.25 -3.5 1.875 -3.5 C 1.09375 -3.5 0.515625 -2.953125 0.515625 -2.328125 C 0.515625 -1.953125 0.71875 -1.6875 0.875 -1.53125 C 0.703125 -1.328125 0.640625 -1.078125 0.640625 -0.875 C 0.640625 -0.5625 0.796875 -0.3125 0.96875 -0.171875 C 0.5625 -0.0625 0.234375 0.25 0.234375 0.609375 C 0.234375 1.1875 1.0625 1.625 2.109375 1.625 C 3.09375 1.625 3.96875 1.21875 3.96875 0.59375 C 3.96875 0.171875 3.71875 -0.171875 3.453125 -0.296875 C 2.984375 -0.546875 2.59375 -0.546875 1.8125 -0.546875 L 1.375 -0.546875 C 1.125 -0.578125 0.921875 -0.78125 0.921875 -1.078125 C 0.921875 -1.265625 0.96875 -1.328125 1.03125 -1.40625 C 1.359375 -1.203125 1.671875 -1.171875 1.859375 -1.171875 C 2.65625 -1.171875 3.234375 -1.71875 3.234375 -2.328125 C 3.234375 -2.640625 3.09375 -2.890625 2.90625 -3.09375 C 3.015625 -3.1875 3.28125 -3.359375 3.671875 -3.359375 C 3.640625 -3.34375 3.59375 -3.296875 3.59375 -3.171875 C 3.59375 -3.03125 3.703125 -2.921875 3.84375 -2.921875 C 3.953125 -2.921875 4.09375 -3 4.09375 -3.1875 Z M 2.609375 -2.328125 C 2.609375 -2.046875 2.5625 -1.828125 2.4375 -1.671875 C 2.265625 -1.453125 2.015625 -1.390625 1.875 -1.390625 C 1.140625 -1.390625 1.140625 -2.15625 1.140625 -2.328125 C 1.140625 -2.625 1.171875 -2.828125 1.296875 -3 C 1.421875 -3.171875 1.65625 -3.265625 1.859375 -3.265625 C 2.609375 -3.265625 2.609375 -2.515625 2.609375 -2.328125 Z M 3.5 0.609375 C 3.5 1.03125 2.890625 1.390625 2.109375 1.390625 C 1.3125 1.390625 0.703125 1.03125 0.703125 0.609375 C 0.703125 0.4375 0.828125 -0.03125 1.484375 -0.03125 L 2.25 -0.03125 C 2.453125 -0.03125 3.5 -0.03125 3.5 0.609375 Z M 3.5 0.609375 "/>
</g>
<g id="glyph-1-17">
<path d="M 6.609375 -0.078125 C 6.609375 -0.078125 6.609375 -0.109375 6.5625 -0.203125 L 3.75 -5.515625 C 3.65625 -5.671875 3.5625 -5.671875 3.515625 -5.671875 C 3.453125 -5.671875 3.359375 -5.671875 3.265625 -5.515625 L 0.453125 -0.203125 C 0.40625 -0.109375 0.40625 -0.078125 0.40625 -0.078125 C 0.40625 0 0.46875 0 0.59375 0 L 6.421875 0 C 6.5625 0 6.609375 0 6.609375 -0.078125 Z M 5.515625 -0.625 L 0.984375 -0.625 L 3.25 -4.890625 Z M 5.515625 -0.625 "/>
</g>
<g id="glyph-1-18">
<path d="M 3.875 -2.53125 C 3.875 -3.375 3.796875 -3.890625 3.53125 -4.40625 C 3.1875 -5.109375 2.546875 -5.28125 2.109375 -5.28125 C 1.109375 -5.28125 0.734375 -4.53125 0.625 -4.3125 C 0.34375 -3.734375 0.328125 -2.9375 0.328125 -2.53125 C 0.328125 -2.015625 0.34375 -1.203125 0.734375 -0.578125 C 1.09375 0.015625 1.6875 0.171875 2.109375 0.171875 C 2.484375 0.171875 3.171875 0.046875 3.5625 -0.734375 C 3.859375 -1.3125 3.875 -2.015625 3.875 -2.53125 Z M 3.171875 -2.625 C 3.171875 -2.15625 3.171875 -1.4375 3.078125 -1 C 2.90625 -0.171875 2.359375 -0.0625 2.109375 -0.0625 C 1.828125 -0.0625 1.28125 -0.1875 1.125 -1.015625 C 1.03125 -1.46875 1.03125 -2.21875 1.03125 -2.625 C 1.03125 -3.171875 1.03125 -3.734375 1.125 -4.171875 C 1.28125 -4.984375 1.90625 -5.0625 2.109375 -5.0625 C 2.375 -5.0625 2.921875 -4.921875 3.078125 -4.203125 C 3.171875 -3.765625 3.171875 -3.171875 3.171875 -2.625 Z M 3.171875 -2.625 "/>
</g>
<g id="glyph-1-19">
<path d="M 3.546875 0 L 3.546875 -0.265625 L 3.265625 -0.265625 C 2.515625 -0.265625 2.5 -0.359375 2.5 -0.65625 L 2.5 -5.0625 C 2.5 -5.265625 2.46875 -5.28125 2.265625 -5.28125 C 1.9375 -4.953125 1.515625 -4.765625 0.765625 -4.765625 L 0.765625 -4.515625 C 0.96875 -4.515625 1.40625 -4.515625 1.859375 -4.71875 L 1.859375 -0.65625 C 1.859375 -0.359375 1.84375 -0.265625 1.09375 -0.265625 L 0.8125 -0.265625 L 0.8125 0 C 1.140625 -0.03125 1.8125 -0.03125 2.171875 -0.03125 C 2.53125 -0.03125 3.21875 -0.03125 3.546875 0 Z M 3.546875 0 "/>
</g>
<g id="glyph-1-20">
<path d="M 6.078125 -2.828125 C 6.078125 -3.015625 5.890625 -3.015625 5.765625 -3.015625 L 0.78125 -3.015625 C 0.65625 -3.015625 0.46875 -3.015625 0.46875 -2.828125 C 0.46875 -2.640625 0.625 -2.640625 0.75 -2.640625 L 5.796875 -2.640625 C 5.921875 -2.640625 6.078125 -2.640625 6.078125 -2.828125 Z M 6.078125 -1.140625 C 6.078125 -1.328125 5.921875 -1.328125 5.796875 -1.328125 L 0.75 -1.328125 C 0.625 -1.328125 0.46875 -1.328125 0.46875 -1.140625 C 0.46875 -0.953125 0.65625 -0.953125 0.78125 -0.953125 L 5.765625 -0.953125 C 5.890625 -0.953125 6.078125 -0.953125 6.078125 -1.140625 Z M 6.078125 -1.140625 "/>
</g>
<g id="glyph-2-0">
<path d="M 5.84375 -1.984375 C 5.84375 -2.171875 5.671875 -2.171875 5.5625 -2.171875 L 0.984375 -2.171875 C 0.875 -2.171875 0.703125 -2.171875 0.703125 -1.984375 C 0.703125 -1.796875 0.875 -1.796875 0.984375 -1.796875 L 5.5625 -1.796875 C 5.671875 -1.796875 5.84375 -1.796875 5.84375 -1.984375 Z M 5.84375 -1.984375 "/>
</g>
<g id="glyph-2-1">
<path d="M 7.96875 -1.71875 C 7.96875 -2.625 7.328125 -3.5 6.34375 -3.5 C 5.53125 -3.5 4.796875 -2.953125 4.28125 -2.171875 C 3.75 -2.8125 3.734375 -2.8125 3.5 -3 C 3.046875 -3.34375 2.546875 -3.5 2.109375 -3.5 C 1.140625 -3.5 0.46875 -2.640625 0.46875 -1.703125 C 0.46875 -0.796875 1.109375 0.078125 2.078125 0.078125 C 2.890625 0.078125 3.625 -0.453125 4.140625 -1.25 C 4.6875 -0.609375 4.6875 -0.609375 4.921875 -0.421875 C 5.390625 -0.078125 5.890625 0.078125 6.328125 0.078125 C 7.296875 0.078125 7.96875 -0.78125 7.96875 -1.71875 Z M 7.734375 -1.71875 C 7.734375 -0.921875 7.125 -0.34375 6.453125 -0.34375 C 5.75 -0.34375 5.234375 -0.984375 4.53125 -1.875 C 4.8125 -2.359375 5.46875 -3.203125 6.40625 -3.203125 C 7.28125 -3.203125 7.734375 -2.390625 7.734375 -1.71875 Z M 3.90625 -1.546875 C 3.609375 -1.0625 2.953125 -0.21875 2.015625 -0.21875 C 1.15625 -0.21875 0.6875 -1.03125 0.6875 -1.703125 C 0.6875 -2.5 1.296875 -3.078125 1.96875 -3.078125 C 2.6875 -3.078125 3.1875 -2.4375 3.90625 -1.546875 Z M 3.90625 -1.546875 "/>
</g>
<g id="glyph-2-2">
<path d="M 7.953125 -1.984375 C 7.953125 -2.03125 7.90625 -2.078125 7.859375 -2.09375 C 6.984375 -2.34375 6.3125 -3.078125 6.140625 -4 C 6.140625 -4.046875 6.09375 -4.078125 6.03125 -4.078125 L 5.890625 -4.078125 C 5.828125 -4.078125 5.78125 -4.03125 5.78125 -3.9375 C 5.921875 -3.21875 6.328125 -2.59375 6.9375 -2.171875 L 0.640625 -2.171875 C 0.53125 -2.171875 0.46875 -2.078125 0.46875 -1.984375 C 0.46875 -1.890625 0.53125 -1.796875 0.640625 -1.796875 L 6.9375 -1.796875 C 6.328125 -1.375 5.921875 -0.75 5.78125 -0.03125 C 5.78125 0.0625 5.828125 0.109375 5.890625 0.109375 L 6.03125 0.109375 C 6.09375 0.109375 6.140625 0.078125 6.140625 0.03125 C 6.3125 -0.890625 6.984375 -1.625 7.859375 -1.875 C 7.90625 -1.890625 7.953125 -1.9375 7.953125 -1.984375 Z M 7.953125 -1.984375 "/>
</g>
<g id="glyph-3-0">
<path d="M 3.5625 -0.859375 C 3.5625 -0.859375 3.5625 -0.9375 3.453125 -0.9375 C 3.375 -0.9375 3.359375 -0.90625 3.328125 -0.796875 C 3.265625 -0.59375 3.09375 -0.140625 2.796875 -0.140625 C 2.578125 -0.140625 2.578125 -0.390625 2.578125 -0.453125 C 2.578125 -0.546875 2.578125 -0.5625 2.59375 -0.671875 C 2.59375 -0.671875 2.625 -0.796875 2.625 -0.875 C 2.625 -1.328125 2.109375 -1.46875 1.65625 -1.515625 C 1.796875 -1.609375 1.921875 -1.703125 2.15625 -1.90625 C 2.453125 -2.171875 2.765625 -2.421875 3.09375 -2.421875 C 3.171875 -2.421875 3.25 -2.40625 3.296875 -2.34375 C 3.09375 -2.3125 3 -2.140625 3 -2.015625 C 3 -1.828125 3.15625 -1.78125 3.234375 -1.78125 C 3.375 -1.78125 3.578125 -1.875 3.578125 -2.171875 C 3.578125 -2.4375 3.390625 -2.625 3.09375 -2.625 C 2.71875 -2.625 2.375 -2.34375 2.09375 -2.09375 C 1.796875 -1.828125 1.609375 -1.671875 1.390625 -1.59375 L 1.96875 -3.953125 C 1.984375 -3.984375 2 -4.015625 2 -4.046875 C 2 -4.140625 1.875 -4.125 1.796875 -4.125 L 1.140625 -4.078125 C 1.03125 -4.0625 0.953125 -4.0625 0.953125 -3.921875 C 0.953125 -3.828125 1.03125 -3.828125 1.125 -3.828125 C 1.296875 -3.828125 1.34375 -3.8125 1.421875 -3.78125 C 1.421875 -3.71875 1.421875 -3.703125 1.40625 -3.609375 L 0.5625 -0.28125 C 0.546875 -0.1875 0.546875 -0.140625 0.546875 -0.140625 C 0.546875 0 0.65625 0.0625 0.75 0.0625 C 0.8125 0.0625 0.921875 0.03125 1 -0.078125 C 1.03125 -0.15625 1.28125 -1.140625 1.3125 -1.328125 C 1.71875 -1.296875 2.140625 -1.203125 2.140625 -0.859375 C 2.140625 -0.828125 2.140625 -0.796875 2.125 -0.734375 C 2.109375 -0.640625 2.109375 -0.609375 2.109375 -0.5625 C 2.109375 -0.171875 2.4375 0.0625 2.78125 0.0625 C 3.359375 0.0625 3.5625 -0.8125 3.5625 -0.859375 Z M 3.5625 -0.859375 "/>
</g>
<g id="glyph-3-1">
<path d="M 3.703125 -2.421875 C 3.703125 -2.5625 3.59375 -2.625 3.5 -2.625 C 3.421875 -2.625 3.265625 -2.59375 3.21875 -2.390625 C 2.859375 -1.15625 1.859375 -0.53125 1.1875 -0.3125 L 1.046875 -0.265625 L 1.625 -2.546875 C 1.609375 -2.5625 1.609375 -2.625 1.515625 -2.625 C 1.515625 -2.625 1.15625 -2.59375 1.09375 -2.59375 L 0.765625 -2.5625 C 0.65625 -2.5625 0.578125 -2.546875 0.578125 -2.40625 C 0.578125 -2.328125 0.65625 -2.328125 0.75 -2.328125 C 0.859375 -2.328125 0.9375 -2.3125 0.9375 -2.3125 C 1.03125 -2.296875 1.046875 -2.28125 1.046875 -2.234375 C 1.046875 -2.203125 0.984375 -1.96875 0.953125 -1.828125 L 0.8125 -1.265625 L 0.578125 -0.28125 C 0.546875 -0.21875 0.53125 -0.109375 0.53125 -0.09375 C 0.53125 0 0.609375 0 0.640625 0 L 0.75 0 C 1.546875 -0.125 2.265625 -0.5 2.78125 -0.953125 C 3.578125 -1.640625 3.703125 -2.375 3.703125 -2.421875 Z M 3.703125 -2.421875 "/>
</g>
<g id="glyph-3-2">
<path d="M 3.25 -4.3125 C 3.25 -4.390625 3.171875 -4.46875 3.09375 -4.46875 C 2.984375 -4.46875 2.953125 -4.390625 2.921875 -4.3125 L 0.59375 1.203125 C 0.546875 1.296875 0.546875 1.3125 0.546875 1.328125 C 0.546875 1.421875 0.625 1.484375 0.703125 1.484375 C 0.8125 1.484375 0.84375 1.421875 0.875 1.328125 L 3.203125 -4.171875 C 3.25 -4.28125 3.25 -4.28125 3.25 -4.3125 Z M 3.25 -4.3125 "/>
</g>
<g id="glyph-3-3">
<path d="M 1.5625 -0.046875 C 1.5625 -0.421875 1.40625 -0.71875 1.125 -0.71875 C 0.890625 -0.71875 0.765625 -0.53125 0.765625 -0.359375 C 0.765625 -0.1875 0.890625 0 1.125 0 C 1.21875 0 1.296875 -0.03125 1.375 -0.078125 C 1.375 0.484375 1.078125 0.8125 0.921875 0.9375 C 0.859375 1 0.84375 1.015625 0.84375 1.046875 C 0.84375 1.09375 0.90625 1.15625 0.953125 1.15625 C 1.03125 1.15625 1.5625 0.671875 1.5625 -0.046875 Z M 1.5625 -0.046875 "/>
</g>
<g id="glyph-4-0">
<path d="M 4.796875 -0.890625 L 4.796875 -1.4375 L 4.546875 -1.4375 L 4.546875 -0.890625 C 4.546875 -0.3125 4.296875 -0.25 4.1875 -0.25 C 3.859375 -0.25 3.8125 -0.6875 3.8125 -0.75 L 3.8125 -2.734375 C 3.8125 -3.140625 3.8125 -3.53125 3.46875 -3.90625 C 3.078125 -4.28125 2.578125 -4.4375 2.109375 -4.4375 C 1.296875 -4.4375 0.609375 -3.984375 0.609375 -3.328125 C 0.609375 -3.03125 0.796875 -2.859375 1.0625 -2.859375 C 1.34375 -2.859375 1.515625 -3.0625 1.515625 -3.3125 C 1.515625 -3.4375 1.46875 -3.765625 1.015625 -3.765625 C 1.28125 -4.125 1.765625 -4.234375 2.078125 -4.234375 C 2.5625 -4.234375 3.140625 -3.84375 3.140625 -2.953125 L 3.140625 -2.59375 C 2.625 -2.5625 1.9375 -2.53125 1.3125 -2.234375 C 0.5625 -1.890625 0.3125 -1.375 0.3125 -0.9375 C 0.3125 -0.140625 1.28125 0.109375 1.90625 0.109375 C 2.5625 0.109375 3.015625 -0.28125 3.203125 -0.75 C 3.25 -0.359375 3.515625 0.0625 3.984375 0.0625 C 4.1875 0.0625 4.796875 -0.078125 4.796875 -0.890625 Z M 3.140625 -1.390625 C 3.140625 -0.453125 2.421875 -0.109375 1.96875 -0.109375 C 1.484375 -0.109375 1.078125 -0.453125 1.078125 -0.953125 C 1.078125 -1.5 1.5 -2.328125 3.140625 -2.375 Z M 3.140625 -1.390625 "/>
</g>
<g id="glyph-4-1">
<path d="M 3.609375 -3.78125 C 3.609375 -4.09375 3.296875 -4.390625 2.875 -4.390625 C 2.15625 -4.390625 1.796875 -3.71875 1.65625 -3.296875 L 1.65625 -4.390625 L 0.28125 -4.28125 L 0.28125 -3.96875 C 0.96875 -3.96875 1.046875 -3.90625 1.046875 -3.40625 L 1.046875 -0.75 C 1.046875 -0.3125 0.9375 -0.3125 0.28125 -0.3125 L 0.28125 0 L 1.40625 -0.03125 C 1.8125 -0.03125 2.265625 -0.03125 2.671875 0 L 2.671875 -0.3125 L 2.453125 -0.3125 C 1.71875 -0.3125 1.703125 -0.421875 1.703125 -0.78125 L 1.703125 -2.296875 C 1.703125 -3.28125 2.125 -4.171875 2.875 -4.171875 C 2.953125 -4.171875 2.96875 -4.171875 2.984375 -4.15625 C 2.953125 -4.140625 2.765625 -4.03125 2.765625 -3.765625 C 2.765625 -3.5 2.96875 -3.34375 3.1875 -3.34375 C 3.359375 -3.34375 3.609375 -3.46875 3.609375 -3.78125 Z M 3.609375 -3.78125 "/>
</g>
<g id="glyph-4-2">
<path d="M 4.125 -1.1875 C 4.125 -1.28125 4.03125 -1.296875 3.984375 -1.296875 C 3.90625 -1.296875 3.875 -1.234375 3.859375 -1.15625 C 3.515625 -0.140625 2.625 -0.140625 2.515625 -0.140625 C 2.03125 -0.140625 1.625 -0.4375 1.40625 -0.796875 C 1.09375 -1.28125 1.09375 -1.9375 1.09375 -2.296875 L 3.875 -2.296875 C 4.09375 -2.296875 4.125 -2.296875 4.125 -2.5 C 4.125 -3.484375 3.578125 -4.4375 2.34375 -4.4375 C 1.1875 -4.4375 0.28125 -3.421875 0.28125 -2.1875 C 0.28125 -0.859375 1.3125 0.109375 2.453125 0.109375 C 3.671875 0.109375 4.125 -0.984375 4.125 -1.1875 Z M 3.46875 -2.5 L 1.109375 -2.5 C 1.171875 -3.984375 2 -4.234375 2.34375 -4.234375 C 3.359375 -4.234375 3.46875 -2.890625 3.46875 -2.5 Z M 3.46875 -2.5 "/>
</g>
<g id="glyph-4-3">
<path d="M 7.15625 -3.4375 C 7.15625 -3.640625 6.96875 -3.640625 6.828125 -3.640625 L 0.890625 -3.640625 C 0.75 -3.640625 0.5625 -3.640625 0.5625 -3.4375 C 0.5625 -3.25 0.75 -3.25 0.890625 -3.25 L 6.8125 -3.25 C 6.96875 -3.25 7.15625 -3.25 7.15625 -3.4375 Z M 7.15625 -1.515625 C 7.15625 -1.71875 6.96875 -1.71875 6.8125 -1.71875 L 0.890625 -1.71875 C 0.75 -1.71875 0.5625 -1.71875 0.5625 -1.515625 C 0.5625 -1.3125 0.75 -1.3125 0.890625 -1.3125 L 6.828125 -1.3125 C 6.96875 -1.3125 7.15625 -1.3125 7.15625 -1.515625 Z M 7.15625 -1.515625 "/>
</g>
<g id="glyph-4-4">
<path d="M 4.15625 0 L 4.15625 -0.3125 L 3.84375 -0.3125 C 2.953125 -0.3125 2.921875 -0.421875 2.921875 -0.78125 L 2.921875 -6.34375 C 2.921875 -6.59375 2.921875 -6.609375 2.6875 -6.609375 C 2.078125 -5.96875 1.203125 -5.96875 0.890625 -5.96875 L 0.890625 -5.671875 C 1.078125 -5.671875 1.671875 -5.671875 2.1875 -5.921875 L 2.1875 -0.78125 C 2.1875 -0.421875 2.15625 -0.3125 1.265625 -0.3125 L 0.9375 -0.3125 L 0.9375 0 C 1.296875 -0.03125 2.15625 -0.03125 2.546875 -0.03125 C 2.953125 -0.03125 3.8125 -0.03125 4.15625 0 Z M 4.15625 0 "/>
</g>
<g id="glyph-5-0">
<path d="M 6.890625 -2.671875 C 6.890625 -4.390625 5.65625 -5.4375 3.96875 -5.4375 L 0.375 -5.4375 L 0.375 -5.03125 L 1.234375 -5.03125 L 1.234375 -0.40625 L 0.375 -0.40625 L 0.375 0 L 3.984375 0 C 5.671875 0 6.890625 -1.015625 6.890625 -2.671875 Z M 5.671875 -2.6875 C 5.671875 -1.921875 5.671875 -0.40625 3.640625 -0.40625 L 2.359375 -0.40625 L 2.359375 -5.03125 L 3.640625 -5.03125 C 5.671875 -5.03125 5.671875 -3.453125 5.671875 -2.6875 Z M 5.671875 -2.6875 "/>
</g>
<g id="glyph-5-1">
<path d="M 2.375 0 L 2.375 -0.40625 L 1.90625 -0.40625 L 1.90625 -3.578125 L 0.484375 -3.515625 L 0.484375 -3.109375 C 0.9375 -3.109375 0.984375 -3.109375 0.984375 -2.796875 L 0.984375 -0.40625 L 0.46875 -0.40625 L 0.46875 0 C 0.921875 -0.03125 1.015625 -0.03125 1.4375 -0.03125 C 1.765625 -0.03125 2 -0.03125 2.375 0 Z M 2 -4.796875 C 2 -5.15625 1.6875 -5.4375 1.359375 -5.4375 C 1 -5.4375 0.71875 -5.15625 0.71875 -4.796875 C 0.71875 -4.4375 1.015625 -4.171875 1.34375 -4.171875 C 1.703125 -4.171875 2 -4.453125 2 -4.796875 Z M 2 -4.796875 "/>
</g>
<g id="glyph-5-2">
<path d="M 3.734375 -2.890625 C 3.734375 -3.328125 3.296875 -3.578125 2.828125 -3.578125 C 2.15625 -3.578125 1.828125 -3.03125 1.71875 -2.71875 L 1.703125 -2.734375 L 1.703125 -3.578125 L 0.359375 -3.515625 L 0.359375 -3.109375 C 0.828125 -3.109375 0.890625 -3.109375 0.890625 -2.796875 L 0.890625 -0.40625 L 0.359375 -0.40625 L 0.359375 0 C 0.828125 -0.03125 0.90625 -0.03125 1.375 -0.03125 L 2.453125 0 L 2.453125 -0.40625 L 1.8125 -0.40625 L 1.8125 -1.703125 C 1.8125 -2.328125 2.0625 -3.21875 2.8125 -3.25 C 2.8125 -3.25 2.6875 -3.109375 2.6875 -2.890625 C 2.6875 -2.578125 2.921875 -2.359375 3.21875 -2.359375 C 3.515625 -2.359375 3.734375 -2.578125 3.734375 -2.890625 Z M 3.734375 -2.890625 "/>
</g>
<g id="glyph-5-3">
<path d="M 4.671875 -0.203125 C 4.671875 -0.40625 4.546875 -0.40625 4.4375 -0.40625 C 3.9375 -0.40625 3.9375 -0.484375 3.9375 -0.671875 L 3.9375 -2.34375 C 3.9375 -3.0625 3.375 -3.609375 2.078125 -3.609375 C 1.6875 -3.609375 0.5625 -3.609375 0.5625 -2.828125 C 0.5625 -2.46875 0.828125 -2.28125 1.09375 -2.28125 C 1.40625 -2.28125 1.625 -2.515625 1.625 -2.8125 C 1.625 -3.078125 1.453125 -3.21875 1.453125 -3.21875 C 1.53125 -3.234375 1.75 -3.28125 2.0625 -3.28125 C 2.703125 -3.28125 2.96875 -2.921875 2.96875 -2.359375 L 2.96875 -2.125 C 1.78125 -2.125 0.234375 -1.859375 0.234375 -0.890625 C 0.234375 -0.21875 1 0.0625 1.859375 0.0625 C 2.6875 0.0625 3.03125 -0.375 3.125 -0.546875 C 3.125 -0.296875 3.21875 0 3.984375 0 L 4.40625 0 C 4.5625 0 4.671875 0 4.671875 -0.203125 Z M 2.96875 -1.09375 C 2.96875 -0.28125 2.03125 -0.28125 2 -0.28125 C 1.578125 -0.28125 1.203125 -0.53125 1.203125 -0.90625 C 1.203125 -1.453125 1.9375 -1.796875 2.96875 -1.828125 Z M 2.96875 -1.09375 "/>
</g>
<g id="glyph-5-4">
<path d="M 4.046875 -0.90625 C 4.046875 -1.0625 3.90625 -1.0625 3.8125 -1.0625 C 3.671875 -1.0625 3.640625 -1.0625 3.59375 -0.90625 C 3.359375 -0.390625 2.828125 -0.3125 2.578125 -0.3125 C 1.390625 -0.3125 1.390625 -1.453125 1.390625 -1.796875 C 1.390625 -2.265625 1.421875 -3.234375 2.484375 -3.234375 C 2.546875 -3.234375 2.984375 -3.21875 2.984375 -3.1875 C 2.984375 -3.1875 2.96875 -3.171875 2.953125 -3.140625 C 2.890625 -3.046875 2.859375 -2.921875 2.859375 -2.8125 C 2.859375 -2.5 3.109375 -2.28125 3.390625 -2.28125 C 3.6875 -2.28125 3.921875 -2.5 3.921875 -2.828125 C 3.921875 -3.609375 2.78125 -3.609375 2.453125 -3.609375 C 0.921875 -3.609375 0.328125 -2.65625 0.328125 -1.765625 C 0.328125 -0.78125 1.046875 0.0625 2.421875 0.0625 C 2.78125 0.0625 3.171875 -0.015625 3.5 -0.203125 C 3.921875 -0.46875 4.046875 -0.859375 4.046875 -0.90625 Z M 4.046875 -0.90625 "/>
</g>
<g id="glyph-5-5">
<path d="M 5.03125 0 L 5.03125 -0.40625 C 4.5625 -0.40625 4.515625 -0.40625 4.515625 -0.71875 L 4.515625 -5.515625 L 3.0625 -5.4375 L 3.0625 -5.03125 C 3.53125 -5.03125 3.59375 -5.03125 3.59375 -4.71875 L 3.59375 -3.234375 C 3.15625 -3.53125 2.75 -3.578125 2.453125 -3.578125 C 1.109375 -3.578125 0.328125 -2.78125 0.328125 -1.765625 C 0.328125 -0.71875 1.09375 0.0625 2.359375 0.0625 C 2.9375 0.0625 3.328125 -0.171875 3.546875 -0.328125 L 3.546875 0.0625 Z M 3.546875 -0.875 C 3.171875 -0.359375 2.703125 -0.28125 2.421875 -0.28125 C 1.390625 -0.28125 1.390625 -1.265625 1.390625 -1.734375 C 1.390625 -2.234375 1.390625 -3.25 2.53125 -3.25 C 2.890625 -3.25 3.265625 -3.09375 3.546875 -2.75 Z M 3.546875 -0.875 "/>
</g>
<g id="glyph-5-6">
<path d="M 4.171875 -0.90625 C 4.171875 -1.078125 4.015625 -1.078125 3.953125 -1.078125 C 3.8125 -1.078125 3.78125 -1.0625 3.71875 -0.921875 C 3.46875 -0.375 2.796875 -0.3125 2.578125 -0.3125 C 1.390625 -0.3125 1.359375 -1.234375 1.34375 -1.6875 L 3.90625 -1.6875 C 4.078125 -1.6875 4.171875 -1.6875 4.171875 -1.90625 C 4.171875 -2.25 4.09375 -2.78125 3.703125 -3.171875 C 3.25 -3.609375 2.546875 -3.609375 2.359375 -3.609375 C 0.9375 -3.609375 0.265625 -2.734375 0.265625 -1.796875 C 0.265625 -0.765625 1.0625 0.0625 2.46875 0.0625 C 3.875 0.0625 4.171875 -0.796875 4.171875 -0.90625 Z M 3.390625 -2 L 1.34375 -2 C 1.34375 -2.3125 1.375 -3.28125 2.359375 -3.28125 C 3.34375 -3.28125 3.390625 -2.296875 3.390625 -2 Z M 3.390625 -2 "/>
</g>
<g id="glyph-5-7">
<path d="M 2.4375 0 L 2.4375 -0.40625 L 1.90625 -0.40625 L 1.90625 -5.515625 L 0.46875 -5.4375 L 0.46875 -5.03125 C 0.9375 -5.03125 0.984375 -5.03125 0.984375 -4.71875 L 0.984375 -0.40625 L 0.46875 -0.40625 L 0.46875 0 C 0.921875 -0.03125 1.015625 -0.03125 1.453125 -0.03125 C 1.890625 -0.03125 1.96875 -0.03125 2.4375 0 Z M 2.4375 0 "/>
</g>
<g id="glyph-5-8">
<path d="M 3.234375 -0.96875 L 3.234375 -1.375 L 2.78125 -1.375 L 2.78125 -0.984375 C 2.78125 -0.4375 2.484375 -0.3125 2.296875 -0.3125 C 1.84375 -0.3125 1.828125 -0.734375 1.828125 -0.953125 L 1.828125 -3.109375 L 3.078125 -3.109375 L 3.078125 -3.53125 L 1.828125 -3.53125 L 1.828125 -5.046875 L 1.390625 -5.046875 C 1.375 -4.25 0.96875 -3.453125 0.1875 -3.4375 L 0.1875 -3.109375 L 0.859375 -3.109375 L 0.859375 -0.96875 C 0.859375 -0.15625 1.515625 0.0625 2.1875 0.0625 C 2.78125 0.0625 3.234375 -0.34375 3.234375 -0.96875 Z M 3.234375 -0.96875 "/>
</g>
<g id="glyph-5-9">
<path d="M 4.1875 0 L 4.1875 -0.40625 L 3.015625 -0.40625 L 3.015625 -4.953125 C 3.015625 -5.21875 2.953125 -5.21875 2.640625 -5.21875 C 2.15625 -4.84375 1.53125 -4.71875 0.90625 -4.71875 L 0.734375 -4.71875 L 0.734375 -4.296875 L 0.90625 -4.296875 C 1.109375 -4.296875 1.546875 -4.328125 2 -4.453125 L 2 -0.40625 L 0.8125 -0.40625 L 0.8125 0 C 1.09375 -0.03125 2.140625 -0.03125 2.5 -0.03125 C 2.859375 -0.03125 3.890625 -0.03125 4.1875 0 Z M 4.1875 0 "/>
</g>
<g id="glyph-5-10">
<path d="M 4.59375 -1.734375 C 4.59375 -2.734375 3.875 -3.609375 2.421875 -3.609375 C 0.96875 -3.609375 0.265625 -2.71875 0.265625 -1.734375 C 0.265625 -0.78125 0.96875 0.0625 2.421875 0.0625 C 3.90625 0.0625 4.59375 -0.796875 4.59375 -1.734375 Z M 3.515625 -1.828125 C 3.515625 -1.140625 3.515625 -0.3125 2.421875 -0.3125 C 1.34375 -0.3125 1.34375 -1.140625 1.34375 -1.828125 C 1.34375 -2.46875 1.34375 -3.28125 2.421875 -3.28125 C 3.515625 -3.28125 3.515625 -2.46875 3.515625 -1.828125 Z M 3.515625 -1.828125 "/>
</g>
<g id="glyph-5-11">
<path d="M 5.078125 -1.765625 C 5.078125 -2.765625 4.359375 -3.578125 3.09375 -3.578125 C 2.640625 -3.578125 2.1875 -3.453125 1.8125 -3.203125 L 1.8125 -3.578125 L 0.359375 -3.515625 L 0.359375 -3.109375 C 0.515625 -3.109375 0.65625 -3.109375 0.75 -3.078125 C 0.890625 -3.0625 0.890625 -2.96875 0.890625 -2.8125 L 0.890625 1.125 L 0.359375 1.125 L 0.359375 1.546875 C 0.796875 1.515625 1.078125 1.515625 1.375 1.515625 C 1.6875 1.515625 1.953125 1.515625 2.375 1.546875 L 2.375 1.125 L 1.859375 1.125 L 1.859375 -0.296875 C 2.265625 0.015625 2.65625 0.0625 2.9375 0.0625 C 4.234375 0.0625 5.078125 -0.703125 5.078125 -1.765625 Z M 4 -1.765625 C 4 -0.703125 3.4375 -0.28125 2.859375 -0.28125 C 2.5 -0.28125 2.125 -0.453125 1.859375 -0.84375 L 1.859375 -2.71875 C 2 -2.875 2.390625 -3.203125 2.953125 -3.203125 C 3.578125 -3.203125 4 -2.671875 4 -1.765625 Z M 4 -1.765625 "/>
</g>
<g id="glyph-5-12">
<path d="M 2.6875 -1.34375 L 2.6875 -2.1875 L 0.109375 -2.1875 L 0.109375 -1.34375 Z M 2.6875 -1.34375 "/>
</g>
<g id="glyph-5-13">
<path d="M 5.15625 0 L 5.15625 -0.40625 L 4.640625 -0.40625 L 4.640625 -2.40625 C 4.640625 -3.375 4.03125 -3.578125 3.328125 -3.578125 C 2.5 -3.578125 2.0625 -3.09375 1.890625 -2.84375 L 1.890625 -5.515625 L 0.4375 -5.4375 L 0.4375 -5.03125 C 0.90625 -5.03125 0.96875 -5.03125 0.96875 -4.71875 L 0.96875 -0.40625 L 0.4375 -0.40625 L 0.4375 0 C 0.875 -0.03125 1.15625 -0.03125 1.453125 -0.03125 C 1.765625 -0.03125 2.03125 -0.03125 2.453125 0 L 2.453125 -0.40625 L 1.9375 -0.40625 L 1.9375 -2.015625 C 1.9375 -2.890625 2.703125 -3.25 3.203125 -3.25 C 3.484375 -3.25 3.671875 -3.109375 3.671875 -2.5 L 3.671875 -0.40625 L 3.140625 -0.40625 L 3.140625 0 C 3.578125 -0.03125 3.84375 -0.03125 4.15625 -0.03125 C 4.453125 -0.03125 4.734375 -0.03125 5.15625 0 Z M 5.15625 0 "/>
</g>
<g id="glyph-5-14">
<path d="M 5.078125 -1.765625 C 5.078125 -2.8125 4.296875 -3.578125 3.046875 -3.578125 C 2.4375 -3.578125 2.015625 -3.34375 1.8125 -3.21875 L 1.8125 -5.515625 L 0.359375 -5.4375 L 0.359375 -5.03125 C 0.828125 -5.03125 0.890625 -5.03125 0.890625 -4.71875 L 0.890625 0 L 1.328125 0 L 1.703125 -0.4375 C 2.0625 -0.09375 2.46875 0.0625 2.9375 0.0625 C 4.28125 0.0625 5.078125 -0.734375 5.078125 -1.765625 Z M 4 -1.78125 C 4 -1.28125 4 -0.28125 2.859375 -0.28125 C 2.28125 -0.28125 1.9375 -0.71875 1.859375 -0.84375 L 1.859375 -2.734375 C 2 -2.921875 2.40625 -3.25 2.953125 -3.25 C 4 -3.25 4 -2.28125 4 -1.78125 Z M 4 -1.78125 "/>
</g>
<g id="glyph-5-15">
<path d="M 5.15625 0 L 5.15625 -0.40625 L 4.640625 -0.40625 L 4.640625 -2.40625 C 4.640625 -3.375 4.03125 -3.578125 3.328125 -3.578125 C 2.359375 -3.578125 1.9375 -2.9375 1.84375 -2.765625 L 1.828125 -2.765625 L 1.828125 -3.578125 L 0.4375 -3.515625 L 0.4375 -3.109375 C 0.90625 -3.109375 0.96875 -3.109375 0.96875 -2.796875 L 0.96875 -0.40625 L 0.4375 -0.40625 L 0.4375 0 C 0.875 -0.03125 1.15625 -0.03125 1.453125 -0.03125 C 1.765625 -0.03125 2.03125 -0.03125 2.453125 0 L 2.453125 -0.40625 L 1.9375 -0.40625 L 1.9375 -2.015625 C 1.9375 -2.890625 2.703125 -3.25 3.203125 -3.25 C 3.484375 -3.25 3.671875 -3.109375 3.671875 -2.5 L 3.671875 -0.40625 L 3.140625 -0.40625 L 3.140625 0 C 3.578125 -0.03125 3.84375 -0.03125 4.15625 -0.03125 C 4.453125 -0.03125 4.734375 -0.03125 5.15625 0 Z M 5.15625 0 "/>
</g>
<g id="glyph-6-0">
<path d="M 13.484375 -3.578125 C 13.484375 -3.71875 13.375 -3.859375 13.1875 -3.859375 L 2.359375 -3.859375 C 3.4375 -4.625 4.171875 -5.796875 4.40625 -7.125 C 4.40625 -7.234375 4.328125 -7.3125 4.25 -7.3125 L 3.984375 -7.3125 C 3.921875 -7.3125 3.84375 -7.25 3.828125 -7.171875 C 3.5625 -5.578125 2.4375 -4.265625 0.90625 -3.71875 C 0.84375 -3.703125 0.78125 -3.640625 0.78125 -3.578125 C 0.78125 -3.5 0.84375 -3.453125 0.90625 -3.4375 C 2.4375 -2.890625 3.5625 -1.578125 3.828125 0.03125 C 3.84375 0.09375 3.921875 0.15625 3.984375 0.15625 L 4.25 0.15625 C 4.328125 0.15625 4.40625 0.078125 4.40625 -0.03125 C 4.171875 -1.34375 3.4375 -2.515625 2.359375 -3.28125 L 13.1875 -3.28125 C 13.375 -3.28125 13.484375 -3.4375 13.484375 -3.578125 Z M 13.484375 -3.578125 "/>
</g>
<g id="glyph-6-1">
<path d="M 13.484375 -3.578125 C 13.484375 -3.640625 13.421875 -3.703125 13.375 -3.71875 C 11.84375 -4.265625 10.703125 -5.578125 10.4375 -7.171875 C 10.421875 -7.25 10.34375 -7.3125 10.28125 -7.3125 L 10.015625 -7.3125 C 9.9375 -7.3125 9.859375 -7.234375 9.859375 -7.125 C 10.09375 -5.796875 10.84375 -4.625 11.90625 -3.859375 L 1.09375 -3.859375 C 0.890625 -3.859375 0.78125 -3.71875 0.78125 -3.578125 C 0.78125 -3.4375 0.890625 -3.28125 1.09375 -3.28125 L 11.90625 -3.28125 C 10.84375 -2.515625 10.09375 -1.34375 9.859375 -0.03125 C 9.859375 0.078125 9.9375 0.15625 10.015625 0.15625 L 10.28125 0.15625 C 10.34375 0.15625 10.421875 0.09375 10.4375 0.03125 C 10.703125 -1.578125 11.84375 -2.890625 13.375 -3.4375 C 13.421875 -3.453125 13.484375 -3.5 13.484375 -3.578125 Z M 13.484375 -3.578125 "/>
</g>
<g id="glyph-7-0">
<path d="M 1.859375 1.484375 L 1.859375 1.171875 L 1.203125 1.171875 L 1.203125 -4.15625 L 1.859375 -4.15625 L 1.859375 -4.46875 L 0.890625 -4.46875 L 0.890625 1.484375 Z M 1.859375 1.484375 "/>
</g>
<g id="glyph-7-1">
<path d="M 5.53125 -0.0625 C 5.53125 -0.078125 5.515625 -0.09375 5.5 -0.140625 L 3.1875 -4.125 C 3.125 -4.21875 3.078125 -4.25 2.96875 -4.25 C 2.859375 -4.25 2.8125 -4.203125 2.765625 -4.125 L 0.453125 -0.15625 C 0.453125 -0.140625 0.421875 -0.09375 0.421875 -0.0625 C 0.421875 0 0.46875 0 0.578125 0 L 5.375 0 C 5.46875 0 5.53125 0 5.53125 -0.0625 Z M 4.59375 -0.515625 L 0.9375 -0.515625 L 2.765625 -3.65625 Z M 4.59375 -0.515625 "/>
</g>
<g id="glyph-7-2">
<path d="M 3.203125 -1.109375 L 2.984375 -1.109375 C 2.96875 -1.03125 2.90625 -0.640625 2.828125 -0.578125 C 2.78125 -0.53125 2.296875 -0.53125 2.21875 -0.53125 L 1.09375 -0.53125 L 1.859375 -1.15625 C 2.0625 -1.3125 2.59375 -1.703125 2.78125 -1.875 C 2.953125 -2.046875 3.203125 -2.359375 3.203125 -2.78125 C 3.203125 -3.53125 2.53125 -3.953125 1.734375 -3.953125 C 0.96875 -3.953125 0.421875 -3.453125 0.421875 -2.890625 C 0.421875 -2.59375 0.6875 -2.546875 0.75 -2.546875 C 0.90625 -2.546875 1.078125 -2.65625 1.078125 -2.875 C 1.078125 -3 1 -3.203125 0.734375 -3.203125 C 0.875 -3.5 1.234375 -3.734375 1.640625 -3.734375 C 2.265625 -3.734375 2.59375 -3.265625 2.59375 -2.78125 C 2.59375 -2.359375 2.328125 -1.921875 1.90625 -1.546875 L 0.5 -0.25 C 0.4375 -0.1875 0.421875 -0.1875 0.421875 0 L 3.015625 0 Z M 3.203125 -1.109375 "/>
</g>
<g id="glyph-7-3">
<path d="M 5.09375 -1.484375 C 5.09375 -1.640625 4.9375 -1.640625 4.859375 -1.640625 L 2.9375 -1.640625 L 2.9375 -3.578125 C 2.9375 -3.65625 2.9375 -3.796875 2.78125 -3.796875 C 2.625 -3.796875 2.625 -3.65625 2.625 -3.578125 L 2.625 -1.640625 L 0.703125 -1.640625 C 0.625 -1.640625 0.46875 -1.640625 0.46875 -1.484375 C 0.46875 -1.328125 0.625 -1.328125 0.703125 -1.328125 L 2.625 -1.328125 L 2.625 0.59375 C 2.625 0.671875 2.625 0.828125 2.78125 0.828125 C 2.9375 0.828125 2.9375 0.671875 2.9375 0.59375 L 2.9375 -1.328125 L 4.859375 -1.328125 C 4.9375 -1.328125 5.09375 -1.328125 5.09375 -1.484375 Z M 5.09375 -1.484375 "/>
</g>
<g id="glyph-7-4">
<path d="M 1.203125 1.484375 L 1.203125 -4.46875 L 0.234375 -4.46875 L 0.234375 -4.15625 L 0.890625 -4.15625 L 0.890625 1.171875 L 0.234375 1.171875 L 0.234375 1.484375 Z M 1.203125 1.484375 "/>
</g>
<g id="glyph-8-0">
<path d="M 3.3125 -0.71875 C 3.3125 -0.78125 3.234375 -0.78125 3.21875 -0.78125 C 3.125 -0.78125 3.125 -0.765625 3.09375 -0.671875 C 3.046875 -0.5 2.90625 -0.109375 2.640625 -0.109375 C 2.453125 -0.109375 2.421875 -0.296875 2.421875 -0.40625 C 2.421875 -0.40625 2.421875 -0.484375 2.4375 -0.5625 C 2.46875 -0.640625 2.46875 -0.703125 2.46875 -0.734375 C 2.46875 -1.171875 1.921875 -1.25 1.59375 -1.265625 C 1.734375 -1.34375 1.9375 -1.515625 2.015625 -1.59375 C 2.3125 -1.8125 2.578125 -2.03125 2.859375 -2.03125 C 2.96875 -2.03125 3 -2 3.03125 -1.96875 L 3 -1.953125 C 2.765625 -1.875 2.765625 -1.671875 2.765625 -1.65625 C 2.765625 -1.5625 2.828125 -1.453125 2.984375 -1.453125 C 3.09375 -1.453125 3.296875 -1.53125 3.296875 -1.796875 C 3.296875 -2.046875 3.109375 -2.203125 2.875 -2.203125 C 2.53125 -2.203125 2.25 -1.96875 1.890625 -1.671875 C 1.703125 -1.53125 1.546875 -1.40625 1.34375 -1.328125 L 1.828125 -3.265625 C 1.84375 -3.328125 1.84375 -3.34375 1.84375 -3.359375 C 1.84375 -3.453125 1.78125 -3.453125 1.6875 -3.4375 L 1.078125 -3.40625 C 1 -3.390625 0.984375 -3.390625 0.96875 -3.375 C 0.9375 -3.34375 0.921875 -3.28125 0.921875 -3.25 C 0.921875 -3.171875 1.015625 -3.171875 1.078125 -3.171875 C 1.078125 -3.171875 1.171875 -3.171875 1.25 -3.15625 C 1.34375 -3.15625 1.34375 -3.140625 1.34375 -3.09375 C 1.34375 -3.078125 1.34375 -3.078125 1.328125 -2.984375 L 0.640625 -0.234375 C 0.609375 -0.15625 0.609375 -0.15625 0.609375 -0.125 C 0.609375 -0.015625 0.703125 0.046875 0.8125 0.046875 C 1 0.046875 1.046875 -0.125 1.0625 -0.203125 L 1.28125 -1.109375 C 1.421875 -1.109375 2.03125 -1.078125 2.03125 -0.71875 C 2.03125 -0.6875 2.03125 -0.671875 2.015625 -0.609375 C 2 -0.53125 2 -0.5 2 -0.484375 C 2 -0.125 2.328125 0.046875 2.609375 0.046875 C 3.125 0.046875 3.3125 -0.65625 3.3125 -0.71875 Z M 3.3125 -0.71875 "/>
</g>
<g id="glyph-9-0">
<path d="M 4.984375 -1.484375 C 4.984375 -1.640625 4.828125 -1.640625 4.75 -1.640625 L 0.96875 -1.640625 C 0.890625 -1.640625 0.75 -1.640625 0.75 -1.484375 C 0.75 -1.328125 0.890625 -1.328125 0.96875 -1.328125 L 4.75 -1.328125 C 4.828125 -1.328125 4.984375 -1.328125 4.984375 -1.484375 Z M 4.984375 -1.484375 "/>
</g>
<g id="glyph-10-0">
<path d="M 5.171875 -0.1875 C 5.171875 -0.265625 5.109375 -0.390625 4.953125 -0.390625 C 4.8125 -0.390625 4.78125 -0.3125 4.71875 -0.15625 L 0.609375 11.078125 C 0.5625 11.234375 0.5625 11.296875 0.5625 11.296875 C 0.5625 11.359375 0.609375 11.5 0.78125 11.5 C 0.90625 11.5 0.9375 11.40625 1 11.25 L 5.109375 0.015625 C 5.171875 -0.140625 5.171875 -0.1875 5.171875 -0.1875 Z M 5.171875 -0.1875 "/>
</g>
</g>
</defs>
<path fill="none" stroke-width="0.79701" stroke-linecap="butt" stroke-linejoin="miter" stroke="rgb(0%, 0%, 0%)" stroke-opacity="1" stroke-miterlimit="10" d="M -56.693392 0.000283073 L 62.983304 0.000283073 " transform="matrix(0.99663, 0, 0, -0.99663, 61.15861, 114.519813)"/>
<path fill="none" stroke-width="0.79701" stroke-linecap="round" stroke-linejoin="round" stroke="rgb(0%, 0%, 0%)" stroke-opacity="1" stroke-miterlimit="10" d="M -2.550378 3.112332 C -2.083963 1.242751 -1.045307 0.364793 0.00118834 0.000283073 C -1.045307 -0.364226 -2.083963 -1.246104 -2.550378 -3.111766 " transform="matrix(0.99663, 0, 0, -0.99663, 124.326941, 114.519813)"/>
<g fill="rgb(0%, 0%, 0%)" fill-opacity="1">
<use xlink:href="#glyph-0-0" x="128.429171" y="116.230031"/>
</g>
<path fill="none" stroke-width="0.79701" stroke-linecap="butt" stroke-linejoin="miter" stroke="rgb(0%, 0%, 0%)" stroke-opacity="1" stroke-miterlimit="10" d="M 0.00155137 -7.086095 L 0.00155137 91.331467 " transform="matrix(0.99663, 0, 0, -0.99663, 61.15861, 114.519813)"/>
<path fill="none" stroke-width="0.79701" stroke-linecap="round" stroke-linejoin="round" stroke="rgb(0%, 0%, 0%)" stroke-opacity="1" stroke-miterlimit="10" d="M -2.549135 3.110497 C -2.082719 1.244836 -1.047983 0.362958 -0.0014879 -0.00155137 C -1.047983 -0.362141 -2.082719 -1.244019 -2.549135 -3.109681 " transform="matrix(0, -0.99663, -0.99663, 0, 61.15861, 23.10008)"/>
<g fill="rgb(0%, 0%, 0%)" fill-opacity="1">
<use xlink:href="#glyph-0-1" x="43.905941" y="17.210811"/>
</g>
<g fill="rgb(0%, 0%, 0%)" fill-opacity="1">
<use xlink:href="#glyph-1-0" x="47.941903" y="17.210811"/>
</g>
<g fill="rgb(0%, 0%, 0%)" fill-opacity="1">
<use xlink:href="#glyph-0-0" x="51.224052" y="17.210811"/>
</g>
<g fill="rgb(0%, 0%, 0%)" fill-opacity="1">
<use xlink:href="#glyph-2-0" x="57.985341" y="17.210811"/>
</g>
<g fill="rgb(0%, 0%, 0%)" fill-opacity="1">
<use xlink:href="#glyph-0-2" x="66.424244" y="17.210811"/>
</g>
<g fill="rgb(0%, 0%, 0%)" fill-opacity="1">
<use xlink:href="#glyph-3-0" x="70.570788" y="18.611077"/>
</g>
<g fill="rgb(0%, 0%, 0%)" fill-opacity="1">
<use xlink:href="#glyph-1-1" x="75.128379" y="17.210811"/>
</g>
<path fill="none" stroke-width="1.19553" stroke-linecap="butt" stroke-linejoin="miter" stroke="rgb(0%, 0%, 79.998779%)" stroke-opacity="1" stroke-miterlimit="10" d="M 0.00155137 0.000283073 L 0.00155137 77.875972 " transform="matrix(0.99663, 0, 0, -0.99663, 61.15861, 114.519813)"/>
<path fill-rule="nonzero" fill="rgb(0%, 0%, 79.998779%)" fill-opacity="1" stroke-width="1.00871" stroke-linecap="butt" stroke-linejoin="miter" stroke="rgb(0%, 0%, 79.998779%)" stroke-opacity="1" stroke-miterlimit="10" d="M 4.539609 -0.00155137 L 1.627453 1.107655 L 2.611236 -0.00155137 L 1.627453 -1.106838 Z M 4.539609 -0.00155137 " transform="matrix(0, -0.99663, -0.99663, 0, 61.15861, 39.254781)"/>
<g fill="rgb(0%, 0%, 79.998779%)" fill-opacity="1">
<use xlink:href="#glyph-2-1" x="67.138393" y="45.602819"/>
</g>
<path fill="none" stroke-width="0.3985" stroke-linecap="butt" stroke-linejoin="miter" stroke="rgb(0%, 0%, 0%)" stroke-opacity="1" stroke-miterlimit="10" d="M 0.00155137 -2.480733 L 0.00155137 2.481299 " transform="matrix(0.99663, 0, 0, -0.99663, 61.15861, 114.519813)"/>
<g fill="rgb(0%, 0%, 0%)" fill-opacity="1">
<use xlink:href="#glyph-0-2" x="56.805328" y="123.920032"/>
</g>
<g fill="rgb(0%, 0%, 0%)" fill-opacity="1">
<use xlink:href="#glyph-3-0" x="60.953304" y="125.321294"/>
</g>
<g fill="rgb(0%, 0%, 79.998779%)" fill-opacity="1">
<use xlink:href="#glyph-1-2" x="82.500454" y="66.38356"/>
<use xlink:href="#glyph-1-3" x="85.782603" y="66.38356"/>
<use xlink:href="#glyph-1-2" x="90.002848" y="66.38356"/>
<use xlink:href="#glyph-1-4" x="93.284997" y="66.38356"/>
<use xlink:href="#glyph-1-5" x="97.505243" y="66.38356"/>
</g>
<g fill="rgb(0%, 0%, 79.998779%)" fill-opacity="1">
<use xlink:href="#glyph-4-0" x="72.681651" y="76.311992"/>
<use xlink:href="#glyph-4-1" x="77.646166" y="76.311992"/>
<use xlink:href="#glyph-4-2" x="81.535368" y="76.311992"/>
<use xlink:href="#glyph-4-0" x="85.948822" y="76.311992"/>
</g>
<g fill="rgb(0%, 0%, 79.998779%)" fill-opacity="1">
<use xlink:href="#glyph-4-3" x="94.219704" y="76.311992"/>
</g>
<g fill="rgb(0%, 0%, 79.998779%)" fill-opacity="1">
<use xlink:href="#glyph-4-4" x="104.702774" y="76.311992"/>
</g>
<g fill="rgb(0%, 0%, 0%)" fill-opacity="1">
<use xlink:href="#glyph-5-0" x="37.299277" y="147.679701"/>
<use xlink:href="#glyph-5-1" x="44.746069" y="147.679701"/>
<use xlink:href="#glyph-5-2" x="47.449155" y="147.679701"/>
<use xlink:href="#glyph-5-3" x="51.47082" y="147.679701"/>
<use xlink:href="#glyph-5-4" x="56.201021" y="147.679701"/>
</g>
<g fill="rgb(0%, 0%, 0%)" fill-opacity="1">
<use xlink:href="#glyph-5-5" x="63.766167" y="147.679701"/>
<use xlink:href="#glyph-5-6" x="69.172339" y="147.679701"/>
<use xlink:href="#glyph-5-7" x="73.629294" y="147.679701"/>
<use xlink:href="#glyph-5-8" x="76.33238" y="147.679701"/>
<use xlink:href="#glyph-5-3" x="80.116541" y="147.679701"/>
</g>
<g fill="rgb(0%, 0%, 0%)" fill-opacity="1">
<use xlink:href="#glyph-1-6" x="40.524374" y="158.601774"/>
<use xlink:href="#glyph-1-7" x="44.275174" y="158.601774"/>
<use xlink:href="#glyph-1-8" x="48.025973" y="158.601774"/>
<use xlink:href="#glyph-1-3" x="51.315271" y="158.601774"/>
</g>
<g fill="rgb(0%, 0%, 0%)" fill-opacity="1">
<use xlink:href="#glyph-1-9" x="58.347425" y="158.601774"/>
<use xlink:href="#glyph-1-10" x="64.443071" y="158.601774"/>
<use xlink:href="#glyph-1-11" x="66.787122" y="158.601774"/>
<use xlink:href="#glyph-1-2" x="71.476019" y="158.601774"/>
<use xlink:href="#glyph-1-12" x="74.758168" y="158.601774"/>
<use xlink:href="#glyph-1-13" x="79.447065" y="158.601774"/>
</g>
<g fill="rgb(0%, 0%, 0%)" fill-opacity="1">
<use xlink:href="#glyph-1-10" x="35.486407" y="169.523847"/>
<use xlink:href="#glyph-1-14" x="37.830458" y="169.523847"/>
<use xlink:href="#glyph-1-15" x="42.519355" y="169.523847"/>
<use xlink:href="#glyph-1-14" x="47.208252" y="169.523847"/>
<use xlink:href="#glyph-1-10" x="51.897149" y="169.523847"/>
<use xlink:href="#glyph-1-2" x="54.241201" y="169.523847"/>
<use xlink:href="#glyph-1-7" x="57.523349" y="169.523847"/>
</g>
<g fill="rgb(0%, 0%, 0%)" fill-opacity="1">
<use xlink:href="#glyph-1-12" x="64.086058" y="169.523847"/>
<use xlink:href="#glyph-1-7" x="68.774955" y="169.523847"/>
<use xlink:href="#glyph-1-10" x="72.525755" y="169.523847"/>
<use xlink:href="#glyph-1-16" x="74.869806" y="169.523847"/>
<use xlink:href="#glyph-1-12" x="79.090052" y="169.523847"/>
</g>
<g fill="rgb(0%, 0%, 0%)" fill-opacity="1">
<use xlink:href="#glyph-1-2" x="83.548595" y="169.523847"/>
</g>
<g fill="rgb(0%, 0%, 0%)" fill-opacity="1">
<use xlink:href="#glyph-6-0" x="171.650043" y="81.829338"/>
</g>
<g fill="rgb(0%, 0%, 0%)" fill-opacity="1">
<use xlink:href="#glyph-6-1" x="183.56016" y="81.829338"/>
</g>
<g fill="rgb(0%, 0%, 0%)" fill-opacity="1">
<use xlink:href="#glyph-1-17" x="170.230842" y="68.635945"/>
</g>
<g fill="rgb(0%, 0%, 0%)" fill-opacity="1">
<use xlink:href="#glyph-0-2" x="177.26379" y="68.635945"/>
</g>
<g fill="rgb(0%, 0%, 0%)" fill-opacity="1">
<use xlink:href="#glyph-2-2" x="184.280058" y="68.635945"/>
</g>
<g fill="rgb(0%, 0%, 0%)" fill-opacity="1">
<use xlink:href="#glyph-1-18" x="195.063012" y="68.635945"/>
</g>
<path fill="none" stroke-width="0.79701" stroke-linecap="butt" stroke-linejoin="miter" stroke="rgb(0%, 0%, 0%)" stroke-opacity="1" stroke-miterlimit="10" d="M 155.905787 0.000283073 L 275.586402 0.000283073 " transform="matrix(0.99663, 0, 0, -0.99663, 61.15861, 114.519813)"/>
<path fill="none" stroke-width="0.79701" stroke-linecap="round" stroke-linejoin="round" stroke="rgb(0%, 0%, 0%)" stroke-opacity="1" stroke-miterlimit="10" d="M -2.552329 3.112332 C -2.085913 1.242751 -1.047257 0.364793 -0.000762359 0.000283073 C -1.047257 -0.364226 -2.085913 -1.246104 -2.552329 -3.111766 " transform="matrix(0.99663, 0, 0, -0.99663, 336.211697, 114.519813)"/>
<g fill="rgb(0%, 0%, 0%)" fill-opacity="1">
<use xlink:href="#glyph-0-0" x="340.311805" y="116.230031"/>
</g>
<path fill="none" stroke-width="0.79701" stroke-linecap="butt" stroke-linejoin="miter" stroke="rgb(0%, 0%, 0%)" stroke-opacity="1" stroke-miterlimit="10" d="M 212.600731 -7.086095 L 212.600731 91.331467 " transform="matrix(0.99663, 0, 0, -0.99663, 61.15861, 114.519813)"/>
<path fill="none" stroke-width="0.79701" stroke-linecap="round" stroke-linejoin="round" stroke="rgb(0%, 0%, 0%)" stroke-opacity="1" stroke-miterlimit="10" d="M -2.549135 3.112458 C -2.082719 1.242877 -1.047983 0.360999 -0.0014879 0.000409331 C -1.047983 -0.3641 -2.082719 -1.245978 -2.549135 -3.111639 " transform="matrix(0, -0.99663, -0.99663, 0, 273.043377, 23.10008)"/>
<g fill="rgb(0%, 0%, 0%)" fill-opacity="1">
<use xlink:href="#glyph-5-9" x="220.842725" y="15.224527"/>
</g>
<g fill="rgb(0%, 0%, 0%)" fill-opacity="1">
<use xlink:href="#glyph-7-0" x="225.708275" y="16.95667"/>
</g>
<g fill="rgb(0%, 0%, 0%)" fill-opacity="1">
<use xlink:href="#glyph-3-1" x="227.804108" y="16.95667"/>
</g>
<g fill="rgb(0%, 0%, 0%)" fill-opacity="1">
<use xlink:href="#glyph-8-0" x="231.506671" y="18.351953"/>
</g>
<g fill="rgb(0%, 0%, 0%)" fill-opacity="1">
<use xlink:href="#glyph-9-0" x="235.846996" y="16.95667"/>
</g>
<g fill="rgb(0%, 0%, 0%)" fill-opacity="1">
<use xlink:href="#glyph-7-1" x="241.584028" y="16.95667"/>
</g>
<g fill="rgb(0%, 0%, 0%)" fill-opacity="1">
<use xlink:href="#glyph-3-1" x="247.541486" y="16.95667"/>
</g>
<g fill="rgb(0%, 0%, 0%)" fill-opacity="1">
<use xlink:href="#glyph-3-2" x="251.649154" y="16.95667"/>
</g>
<g fill="rgb(0%, 0%, 0%)" fill-opacity="1">
<use xlink:href="#glyph-7-2" x="255.455374" y="16.95667"/>
</g>
<g fill="rgb(0%, 0%, 0%)" fill-opacity="1">
<use xlink:href="#glyph-3-3" x="259.095976" y="16.95667"/>
</g>
<g fill="rgb(0%, 0%, 0%)" fill-opacity="1">
<use xlink:href="#glyph-3-1" x="262.626366" y="16.95667"/>
</g>
<g fill="rgb(0%, 0%, 0%)" fill-opacity="1">
<use xlink:href="#glyph-8-0" x="266.330931" y="18.351953"/>
</g>
<g fill="rgb(0%, 0%, 0%)" fill-opacity="1">
<use xlink:href="#glyph-7-3" x="270.671257" y="16.95667"/>
<use xlink:href="#glyph-7-1" x="276.242672" y="16.95667"/>
</g>
<g fill="rgb(0%, 0%, 0%)" fill-opacity="1">
<use xlink:href="#glyph-3-1" x="282.20013" y="16.95667"/>
</g>
<g fill="rgb(0%, 0%, 0%)" fill-opacity="1">
<use xlink:href="#glyph-3-2" x="286.307797" y="16.95667"/>
</g>
<g fill="rgb(0%, 0%, 0%)" fill-opacity="1">
<use xlink:href="#glyph-7-2" x="290.114017" y="16.95667"/>
<use xlink:href="#glyph-7-4" x="293.75462" y="16.95667"/>
</g>
<g fill="rgb(0%, 0%, 0%)" fill-opacity="1">
<use xlink:href="#glyph-1-0" x="296.348443" y="15.224527"/>
</g>
<g fill="rgb(0%, 0%, 0%)" fill-opacity="1">
<use xlink:href="#glyph-0-0" x="299.630592" y="15.224527"/>
</g>
<g fill="rgb(0%, 0%, 0%)" fill-opacity="1">
<use xlink:href="#glyph-1-1" x="304.517276" y="15.224527"/>
</g>
<g fill="rgb(0%, 0%, 0%)" fill-opacity="1">
<use xlink:href="#glyph-10-0" x="307.799727" y="7.678041"/>
</g>
<g fill="rgb(0%, 0%, 0%)" fill-opacity="1">
<use xlink:href="#glyph-1-17" x="313.536332" y="15.224527"/>
</g>
<g fill="rgb(0%, 0%, 0%)" fill-opacity="1">
<use xlink:href="#glyph-0-2" x="320.56928" y="15.224527"/>
</g>
<path fill-rule="nonzero" fill="rgb(100%, 82.499695%, 64.99939%)" fill-opacity="1" d="M 253.621094 114.519531 L 253.621094 58.015625 L 292.464844 58.015625 L 292.464844 114.519531 Z M 253.621094 114.519531 "/>
<path fill="none" stroke-width="1.19553" stroke-linecap="butt" stroke-linejoin="miter" stroke="rgb(79.998779%, 39.99939%, 0%)" stroke-opacity="1" stroke-miterlimit="10" d="M 155.905787 0.000283073 L 193.113191 0.000283073 L 193.113191 56.695227 L 232.08827 56.695227 L 232.08827 0.000283073 L 269.295674 0.000283073 " transform="matrix(0.99663, 0, 0, -0.99663, 61.15861, 114.519813)"/>
<path fill="none" stroke-width="0.3985" stroke-linecap="butt" stroke-linejoin="miter" stroke="rgb(0%, 0%, 0%)" stroke-opacity="1" stroke-miterlimit="10" d="M 212.600731 -2.480733 L 212.600731 2.481299 " transform="matrix(0.99663, 0, 0, -0.99663, 61.15861, 114.519813)"/>
<g fill="rgb(0%, 0%, 0%)" fill-opacity="1">
<use xlink:href="#glyph-0-2" x="268.686966" y="123.920032"/>
</g>
<g fill="rgb(0%, 0%, 0%)" fill-opacity="1">
<use xlink:href="#glyph-3-0" x="272.835938" y="125.321294"/>
</g>
<path fill="none" stroke-width="0.3985" stroke-linecap="butt" stroke-linejoin="miter" stroke="rgb(50%, 50%, 50%)" stroke-opacity="1" stroke-miterlimit="10" d="M 193.512976 -12.400878 L 231.692405 -12.400878 " transform="matrix(0.99663, 0, 0, -0.99663, 61.15861, 114.519813)"/>
<path fill="none" stroke-width="0.3985" stroke-linecap="round" stroke-linejoin="round" stroke="rgb(50%, 50%, 50%)" stroke-opacity="1" stroke-miterlimit="10" d="M -2.070697 2.389817 C -1.694429 0.955296 -0.851746 0.27723 -0.00122343 -0.00105155 C -0.851746 -0.279333 -1.694429 -0.957399 -2.070697 -2.39192 " transform="matrix(-0.99663, 0, 0, 0.99663, 253.819093, 126.879954)"/>
<path fill="none" stroke-width="0.3985" stroke-linecap="round" stroke-linejoin="round" stroke="rgb(50%, 50%, 50%)" stroke-opacity="1" stroke-miterlimit="10" d="M -2.071505 2.39192 C -1.695237 0.957399 -0.848635 0.279333 0.00188736 0.00105155 C -0.848635 -0.27723 -1.695237 -0.955296 -2.071505 -2.389817 " transform="matrix(0.99663, 0, 0, -0.99663, 292.26765, 126.879954)"/>
<g fill="rgb(50%, 50%, 50%)" fill-opacity="1">
<use xlink:href="#glyph-1-9" x="255.233451" y="136.05899"/>
<use xlink:href="#glyph-1-10" x="261.329097" y="136.05899"/>
<use xlink:href="#glyph-1-11" x="263.673148" y="136.05899"/>
<use xlink:href="#glyph-1-2" x="268.362045" y="136.05899"/>
<use xlink:href="#glyph-1-12" x="271.644194" y="136.05899"/>
</g>
<g fill="rgb(50%, 50%, 50%)" fill-opacity="1">
<use xlink:href="#glyph-1-17" x="279.144999" y="136.05899"/>
</g>
<g fill="rgb(50%, 50%, 50%)" fill-opacity="1">
<use xlink:href="#glyph-0-2" x="286.177948" y="136.05899"/>
</g>
<path fill="none" stroke-width="0.3985" stroke-linecap="butt" stroke-linejoin="miter" stroke="rgb(50%, 50%, 50%)" stroke-opacity="1" stroke-miterlimit="10" d="M 180.71203 0.400068 L 180.71203 56.295442 " transform="matrix(0.99663, 0, 0, -0.99663, 61.15861, 114.519813)"/>
<path fill="none" stroke-width="0.3985" stroke-linecap="round" stroke-linejoin="round" stroke="rgb(50%, 50%, 50%)" stroke-opacity="1" stroke-miterlimit="10" d="M -2.070399 2.391688 C -1.694131 0.957167 -0.851448 0.279101 -0.000925374 0.000819611 C -0.851448 -0.277462 -1.694131 -0.955528 -2.070399 -2.390049 " transform="matrix(0, 0.99663, 0.99663, 0, 241.260902, 114.321235)"/>
<path fill="none" stroke-width="0.3985" stroke-linecap="round" stroke-linejoin="round" stroke="rgb(50%, 50%, 50%)" stroke-opacity="1" stroke-miterlimit="10" d="M -2.072608 2.390049 C -1.692421 0.955528 -0.849738 0.277462 0.000784333 -0.000819611 C -0.849738 -0.279101 -1.692421 -0.957167 -2.072608 -2.391688 " transform="matrix(0, -0.99663, -0.99663, 0, 241.260902, 58.215625)"/>
<g fill="rgb(50%, 50%, 50%)" fill-opacity="1">
<use xlink:href="#glyph-1-19" x="217.609656" y="88.254615"/>
</g>
<g fill="rgb(50%, 50%, 50%)" fill-opacity="1">
<use xlink:href="#glyph-0-3" x="221.829901" y="88.254615"/>
</g>
<g fill="rgb(50%, 50%, 50%)" fill-opacity="1">
<use xlink:href="#glyph-1-17" x="226.050147" y="88.254615"/>
</g>
<g fill="rgb(50%, 50%, 50%)" fill-opacity="1">
<use xlink:href="#glyph-0-2" x="233.083096" y="88.254615"/>
</g>
<g fill="rgb(79.998779%, 39.99939%, 0%)" fill-opacity="1">
<use xlink:href="#glyph-1-4" x="257.329365" y="92.359736"/>
<use xlink:href="#glyph-1-8" x="261.549611" y="92.359736"/>
<use xlink:href="#glyph-1-7" x="264.838908" y="92.359736"/>
<use xlink:href="#glyph-1-4" x="268.589708" y="92.359736"/>
</g>
<g fill="rgb(79.998779%, 39.99939%, 0%)" fill-opacity="1">
<use xlink:href="#glyph-1-20" x="275.621862" y="92.359736"/>
</g>
<g fill="rgb(79.998779%, 39.99939%, 0%)" fill-opacity="1">
<use xlink:href="#glyph-1-19" x="284.529416" y="92.359736"/>
</g>
<g fill="rgb(0%, 0%, 0%)" fill-opacity="1">
<use xlink:href="#glyph-5-8" x="228.458975" y="151.651273"/>
<use xlink:href="#glyph-5-10" x="232.243136" y="151.651273"/>
<use xlink:href="#glyph-5-11" x="237.108373" y="151.651273"/>
<use xlink:href="#glyph-5-12" x="242.514545" y="151.651273"/>
<use xlink:href="#glyph-5-13" x="245.757772" y="151.651273"/>
<use xlink:href="#glyph-5-3" x="251.163944" y="151.651273"/>
<use xlink:href="#glyph-5-8" x="255.894146" y="151.651273"/>
</g>
<g fill="rgb(0%, 0%, 0%)" fill-opacity="1">
<use xlink:href="#glyph-5-14" x="262.919151" y="151.651273"/>
<use xlink:href="#glyph-5-1" x="268.325323" y="151.651273"/>
<use xlink:href="#glyph-5-15" x="271.028409" y="151.651273"/>
</g>
<g fill="rgb(0%, 0%, 0%)" fill-opacity="1">
<use xlink:href="#glyph-5-1" x="279.675425" y="151.651273"/>
<use xlink:href="#glyph-5-15" x="282.378511" y="151.651273"/>
<use xlink:href="#glyph-5-5" x="287.784683" y="151.651273"/>
<use xlink:href="#glyph-5-1" x="293.190855" y="151.651273"/>
<use xlink:href="#glyph-5-4" x="295.893941" y="151.651273"/>
<use xlink:href="#glyph-5-3" x="300.218243" y="151.651273"/>
<use xlink:href="#glyph-5-8" x="304.948445" y="151.651273"/>
<use xlink:href="#glyph-5-10" x="308.732607" y="151.651273"/>
<use xlink:href="#glyph-5-2" x="313.597844" y="151.651273"/>
</g>
<g fill="rgb(0%, 0%, 0%)" fill-opacity="1">
<use xlink:href="#glyph-1-15" x="243.276876" y="162.573346"/>
<use xlink:href="#glyph-1-14" x="247.965773" y="162.573346"/>
<use xlink:href="#glyph-1-10" x="252.65467" y="162.573346"/>
<use xlink:href="#glyph-1-2" x="254.998721" y="162.573346"/>
<use xlink:href="#glyph-1-7" x="258.28087" y="162.573346"/>
</g>
<g fill="rgb(0%, 0%, 0%)" fill-opacity="1">
<use xlink:href="#glyph-1-9" x="264.843578" y="162.573346"/>
<use xlink:href="#glyph-1-10" x="270.939224" y="162.573346"/>
<use xlink:href="#glyph-1-11" x="273.283275" y="162.573346"/>
<use xlink:href="#glyph-1-2" x="277.972172" y="162.573346"/>
<use xlink:href="#glyph-1-12" x="281.254321" y="162.573346"/>
</g>
<g fill="rgb(0%, 0%, 0%)" fill-opacity="1">
<use xlink:href="#glyph-1-17" x="288.755126" y="162.573346"/>
</g>
<g fill="rgb(0%, 0%, 0%)" fill-opacity="1">
<use xlink:href="#glyph-0-2" x="295.788075" y="162.573346"/>
</g>
<g fill="rgb(0%, 0%, 0%)" fill-opacity="1">
<use xlink:href="#glyph-1-13" x="300.461086" y="162.573346"/>
</g>
<g fill="rgb(0%, 0%, 0%)" fill-opacity="1">
<use xlink:href="#glyph-1-12" x="250.192495" y="173.495419"/>
<use xlink:href="#glyph-1-7" x="254.881392" y="173.495419"/>
<use xlink:href="#glyph-1-10" x="258.632192" y="173.495419"/>
<use xlink:href="#glyph-1-16" x="260.976243" y="173.495419"/>
<use xlink:href="#glyph-1-12" x="265.196489" y="173.495419"/>
</g>
<g fill="rgb(0%, 0%, 0%)" fill-opacity="1">
<use xlink:href="#glyph-1-2" x="269.655032" y="173.495419"/>
</g>
<g fill="rgb(0%, 0%, 0%)" fill-opacity="1">
<use xlink:href="#glyph-1-19" x="275.749089" y="173.495419"/>
</g>
<g fill="rgb(0%, 0%, 0%)" fill-opacity="1">
<use xlink:href="#glyph-0-3" x="279.969334" y="173.495419"/>
</g>
<g fill="rgb(0%, 0%, 0%)" fill-opacity="1">
<use xlink:href="#glyph-1-17" x="284.18958" y="173.495419"/>
</g>
<g fill="rgb(0%, 0%, 0%)" fill-opacity="1">
<use xlink:href="#glyph-0-2" x="291.222528" y="173.495419"/>
</g>
</svg>
