<?xml version="1.0" encoding="utf-8" standalone="no"?>
<!DOCTYPE svg PUBLIC "-//W3C//DTD SVG 1.1//EN"
  "http://www.w3.org/Graphics/SVG/1.1/DTD/svg11.dtd">
<svg xmlns:xlink="http://www.w3.org/1999/xlink" width="551.406719pt" height="290.017812pt" viewBox="0 0 551.406719 290.017812" xmlns="http://www.w3.org/2000/svg" version="1.1">
 <metadata>
  <rdf:RDF xmlns:dc="http://purl.org/dc/elements/1.1/" xmlns:cc="http://creativecommons.org/ns#" xmlns:rdf="http://www.w3.org/1999/02/22-rdf-syntax-ns#">
   <cc:Work>
    <dc:type rdf:resource="http://purl.org/dc/dcmitype/StillImage"/>
    <dc:date>2026-06-29T19:10:26.105472</dc:date>
    <dc:format>image/svg+xml</dc:format>
    <dc:creator>
     <cc:Agent>
      <dc:title>Matplotlib v3.9.4, https://matplotlib.org/</dc:title>
     </cc:Agent>
    </dc:creator>
   </cc:Work>
  </rdf:RDF>
 </metadata>
 <defs>
  <style type="text/css">*{stroke-linejoin: round; stroke-linecap: butt}</style>
 </defs>
 <g id="figure_1">
  <g id="patch_1">
   <path d="M 0 290.017812 
L 551.406719 290.017812 
L 551.406719 0 
L 0 0 
z
" style="fill: #ffffff"/>
  </g>
  <g id="axes_1">
   <g id="patch_2">
    <path d="M 55.557031 250.525937 
L 528.109031 250.525937 
L 528.109031 23.229938 
L 55.557031 23.229938 
z
" style="fill: #ffffff"/>
   </g>
   <g id="PolyCollection_1">
    <defs>
     <path id="m35d1c5f372" d="M 77.036668 -151.688358 
L 77.036668 -152.774725 
L 77.753851 -152.757674 
L 78.471034 -152.739902 
L 79.188217 -152.721381 
L 79.9054 -152.702084 
L 80.622584 -152.681981 
L 81.339767 -152.661045 
L 82.05695 -152.639243 
L 82.774133 -152.616546 
L 83.491316 -152.59292 
L 84.208499 -152.568333 
L 84.925683 -152.542751 
L 85.642866 -152.516137 
L 86.360049 -152.488458 
L 87.077232 -152.459674 
L 87.794415 -152.429749 
L 88.511599 -152.398642 
L 89.228782 -152.366314 
L 89.945965 -152.332724 
L 90.663148 -152.297828 
L 91.380331 -152.261583 
L 92.097514 -152.223945 
L 92.814698 -152.184867 
L 93.531881 -152.144302 
L 94.249064 -152.102203 
L 94.966247 -152.058519 
L 95.68343 -152.0132 
L 96.400614 -151.966194 
L 97.117797 -151.917447 
L 97.83498 -151.866906 
L 98.552163 -151.814514 
L 99.269346 -151.760214 
L 99.98653 -151.703948 
L 100.703713 -151.645657 
L 101.420896 -151.585278 
L 102.138079 -151.52275 
L 102.855262 -151.45801 
L 103.572445 -151.390991 
L 104.289629 -151.321628 
L 105.006812 -151.249852 
L 105.723995 -151.175595 
L 106.441178 -151.098786 
L 107.158361 -151.019352 
L 107.875545 -150.937221 
L 108.592728 -150.852319 
L 109.309911 -150.764567 
L 110.027094 -150.67389 
L 110.744277 -150.580208 
L 111.46146 -150.483442 
L 112.178644 -150.383508 
L 112.895827 -150.280325 
L 113.61301 -150.173808 
L 114.330193 -150.063872 
L 115.047376 -149.950428 
L 115.76456 -149.83339 
L 116.481743 -149.712666 
L 117.198926 -149.588167 
L 117.916109 -149.4598 
L 118.633292 -149.327472 
L 119.350475 -149.191087 
L 120.067659 -149.050551 
L 120.784842 -148.905765 
L 121.502025 -148.756633 
L 122.219208 -148.603054 
L 122.936391 -148.444928 
L 123.653575 -148.282154 
L 124.370758 -148.11463 
L 125.087941 -147.942251 
L 125.805124 -147.764915 
L 126.522307 -147.582515 
L 127.239491 -147.394946 
L 127.956674 -147.202102 
L 128.673857 -147.003874 
L 129.39104 -146.800155 
L 130.108223 -146.590835 
L 130.825406 -146.375807 
L 131.54259 -146.15496 
L 132.259773 -145.928184 
L 132.976956 -145.695369 
L 133.694139 -145.456404 
L 134.411322 -145.211179 
L 135.128506 -144.959581 
L 135.845689 -144.701502 
L 136.562872 -144.436829 
L 137.280055 -144.165452 
L 137.997238 -143.88726 
L 138.714421 -143.602144 
L 139.431605 -143.309993 
L 140.148788 -143.010698 
L 140.865971 -142.704152 
L 141.583154 -142.390245 
L 142.300337 -142.068872 
L 143.017521 -141.739925 
L 143.734704 -141.403301 
L 144.451887 -141.058895 
L 145.16907 -140.706605 
L 145.886253 -140.346331 
L 146.603436 -139.977971 
L 147.32062 -139.60143 
L 148.037803 -139.21661 
L 148.754986 -138.823418 
L 149.472169 -138.421762 
L 150.189352 -138.011552 
L 150.906536 -137.592701 
L 151.623719 -137.165124 
L 152.340902 -136.728738 
L 153.058085 -136.283465 
L 153.775268 -135.829228 
L 154.492451 -135.365954 
L 155.209635 -134.893572 
L 155.926818 -134.412015 
L 156.644001 -133.921221 
L 157.361184 -133.42113 
L 158.078367 -132.911687 
L 158.795551 -132.39284 
L 159.512734 -131.864541 
L 160.229917 -131.326748 
L 160.9471 -130.779422 
L 161.664283 -130.222529 
L 162.381467 -129.656041 
L 163.09865 -129.079933 
L 163.815833 -128.494188 
L 164.533016 -127.898791 
L 165.250199 -127.293734 
L 165.967382 -126.679016 
L 166.684566 -126.05464 
L 167.401749 -125.420616 
L 168.118932 -124.776959 
L 168.836115 -124.123693 
L 169.553298 -123.460845 
L 170.270482 -122.788451 
L 170.987665 -122.106553 
L 171.704848 -121.4152 
L 172.422031 -120.714449 
L 173.139214 -120.004363 
L 173.856397 -119.285013 
L 174.573581 -118.556477 
L 175.290764 -117.818842 
L 176.007947 -117.072202 
L 176.72513 -116.316659 
L 177.442313 -115.552324 
L 178.159497 -114.779314 
L 178.87668 -113.997758 
L 179.593863 -113.207789 
L 180.311046 -112.409552 
L 181.028229 -111.603201 
L 181.745412 -110.788895 
L 182.462596 -109.966807 
L 183.179779 -109.137116 
L 183.896962 -108.30001 
L 184.614145 -107.455687 
L 185.331328 -106.604355 
L 186.048512 -105.746229 
L 186.765695 -104.881537 
L 187.482878 -104.010513 
L 188.200061 -103.133402 
L 188.917244 -102.25046 
L 189.634428 -101.36195 
L 190.351611 -100.468145 
L 191.068794 -99.569331 
L 191.785977 -98.665798 
L 192.50316 -97.757851 
L 193.220343 -96.845802 
L 193.937527 -95.929972 
L 194.65471 -95.010694 
L 195.371893 -94.088308 
L 196.089076 -93.163166 
L 196.806259 -92.235628 
L 197.523443 -91.306063 
L 198.240626 -90.374851 
L 198.957809 -89.442379 
L 199.674992 -88.509045 
L 200.392175 -87.575256 
L 201.109358 -86.641427 
L 201.826542 -85.707983 
L 202.543725 -84.775355 
L 203.260908 -83.843987 
L 203.978091 -82.914327 
L 204.695274 -81.986834 
L 205.412458 -81.061975 
L 206.129641 -80.140222 
L 206.846824 -79.222057 
L 207.564007 -78.30797 
L 208.28119 -77.398457 
L 208.998373 -76.494022 
L 209.715557 -75.595173 
L 210.43274 -74.702428 
L 211.149923 -73.816309 
L 211.867106 -72.937345 
L 212.584289 -72.06607 
L 213.301473 -71.203024 
L 214.018656 -70.348751 
L 214.735839 -69.503801 
L 215.453022 -68.668727 
L 216.170205 -67.844088 
L 216.887389 -67.030445 
L 217.604572 -66.228362 
L 218.321755 -65.438408 
L 219.038938 -64.661154 
L 219.756121 -63.897171 
L 220.473304 -63.147035 
L 221.190488 -62.411321 
L 221.907671 -61.690607 
L 222.624854 -60.98547 
L 223.342037 -60.296488 
L 224.05922 -59.624238 
L 224.776404 -58.969298 
L 225.493587 -58.332242 
L 226.21077 -57.713646 
L 226.927953 -57.114081 
L 227.645136 -56.534117 
L 228.362319 -55.97432 
L 229.079503 -55.435253 
L 229.796686 -54.917477 
L 230.513869 -54.421545 
L 231.231052 -53.948008 
L 231.948235 -53.497409 
L 232.665419 -53.070289 
L 233.382602 -52.667179 
L 234.099785 -52.288604 
L 234.816968 -51.935083 
L 235.534151 -51.607127 
L 236.251334 -51.305237 
L 236.968518 -51.029906 
L 237.685701 -50.781619 
L 238.402884 -50.56085 
L 239.120067 -50.368062 
L 239.83725 -50.203709 
L 240.554434 -50.068232 
L 241.271617 -49.962063 
L 241.9888 -49.885618 
L 242.705983 -49.839303 
L 243.423166 -49.823511 
L 244.14035 -49.838621 
L 244.857533 -49.884996 
L 245.574716 -49.962988 
L 246.291899 -50.072932 
L 247.009082 -50.215147 
L 247.726265 -50.389939 
L 248.443449 -50.597595 
L 249.160632 -50.838388 
L 249.877815 -51.112572 
L 250.594998 -51.420385 
L 251.312181 -51.762047 
L 252.029365 -52.13776 
L 252.746548 -52.547707 
L 253.463731 -52.992054 
L 254.180914 -53.470947 
L 254.898097 -53.984512 
L 255.61528 -54.532857 
L 256.332464 -55.116069 
L 257.049647 -55.734216 
L 257.76683 -56.387344 
L 258.484013 -57.075481 
L 259.201196 -57.798633 
L 259.91838 -58.556783 
L 260.635563 -59.349897 
L 261.352746 -60.177916 
L 262.069929 -61.040763 
L 262.787112 -61.938336 
L 263.504295 -62.870514 
L 264.221479 -63.837154 
L 264.938662 -64.838091 
L 265.655845 -65.873136 
L 266.373028 -66.942083 
L 267.090211 -68.044699 
L 267.807395 -69.180733 
L 268.524578 -70.349911 
L 269.241761 -71.551936 
L 269.958944 -72.786492 
L 270.676127 -74.053239 
L 271.393311 -75.351816 
L 272.110494 -76.681843 
L 272.827677 -78.042916 
L 273.54486 -79.434612 
L 274.262043 -80.856486 
L 274.979226 -82.308072 
L 275.69641 -83.788886 
L 276.413593 -85.298421 
L 277.130776 -86.836153 
L 277.847959 -88.401537 
L 278.565142 -89.994008 
L 279.282326 -91.612985 
L 279.999509 -93.257864 
L 280.716692 -94.928027 
L 281.433875 -96.622836 
L 282.151058 -98.341637 
L 282.868241 -100.083758 
L 283.585425 -101.84851 
L 284.302608 -103.635189 
L 285.019791 -105.443075 
L 285.736974 -107.271433 
L 286.454157 -109.119513 
L 287.171341 -110.986552 
L 287.888524 -112.871771 
L 288.605707 -114.774381 
L 289.32289 -116.693577 
L 290.040073 -118.628546 
L 290.757256 -120.57846 
L 291.47444 -122.542482 
L 292.191623 -124.519766 
L 292.908806 -126.509453 
L 293.625989 -128.510679 
L 294.343172 -130.522568 
L 295.060356 -132.544239 
L 295.777539 -134.574803 
L 296.494722 -136.613365 
L 297.211905 -138.659022 
L 297.929088 -140.71087 
L 298.646271 -142.767997 
L 299.363455 -144.829489 
L 300.080638 -146.894429 
L 300.797821 -148.961896 
L 301.515004 -151.030969 
L 302.232187 -153.100726 
L 302.949371 -155.170244 
L 303.666554 -157.238601 
L 304.383737 -159.304874 
L 305.10092 -161.368144 
L 305.818103 -163.427494 
L 306.535287 -165.48201 
L 307.25247 -167.530781 
L 307.969653 -169.5729 
L 308.686836 -171.607468 
L 309.404019 -173.633588 
L 310.121202 -175.650372 
L 310.838386 -177.656939 
L 311.555569 -179.652414 
L 312.272752 -181.635931 
L 312.989935 -183.606633 
L 313.707118 -185.563675 
L 314.424302 -187.506217 
L 315.141485 -189.433435 
L 315.858668 -191.344513 
L 316.575851 -193.238648 
L 317.293034 -195.115049 
L 318.010217 -196.97294 
L 318.727401 -198.811556 
L 319.444584 -200.630147 
L 320.161767 -202.427979 
L 320.87895 -204.20433 
L 321.596133 -205.958496 
L 322.313317 -207.689789 
L 323.0305 -209.397535 
L 323.747683 -211.081081 
L 324.464866 -212.739787 
L 325.182049 -214.373033 
L 325.899232 -215.980217 
L 326.616416 -217.560755 
L 327.333599 -219.114082 
L 328.050782 -220.63965 
L 328.767965 -222.136935 
L 329.485148 -223.605427 
L 330.202332 -225.044641 
L 330.919515 -226.454108 
L 331.636698 -227.833383 
L 332.353881 -229.182038 
L 333.071064 -230.499669 
L 333.788248 -231.785891 
L 334.505431 -233.04034 
L 335.222614 -234.262674 
L 335.939797 -235.452574 
L 336.65698 -236.609738 
L 337.374163 -237.733889 
L 338.091347 -238.82477 
L 338.80853 -239.882147 
L 339.525713 -240.905806 
L 340.242896 -241.895555 
L 340.960079 -242.851225 
L 341.677263 -243.772665 
L 342.394446 -244.65975 
L 343.111629 -245.512372 
L 343.828812 -246.330447 
L 344.545995 -247.113911 
L 345.263178 -247.862722 
L 345.980362 -248.576857 
L 346.697545 -249.256315 
L 347.414728 -249.901115 
L 348.131911 -250.511297 
L 348.849094 -251.08692 
L 349.566278 -251.628064 
L 350.283461 -252.134827 
L 351.000644 -252.607327 
L 351.717827 -253.045701 
L 352.43501 -253.450106 
L 353.152193 -253.820715 
L 353.869377 -254.15772 
L 354.58656 -254.461332 
L 355.303743 -254.731777 
L 356.020926 -254.969301 
L 356.738109 -255.174165 
L 357.455293 -255.346645 
L 358.172476 -255.487035 
L 358.889659 -255.595645 
L 359.606842 -255.672797 
L 360.324025 -255.71883 
L 361.041209 -255.734098 
L 361.758392 -255.718967 
L 362.475575 -255.673817 
L 363.192758 -255.599041 
L 363.909941 -255.495045 
L 364.627124 -255.362245 
L 365.344308 -255.201072 
L 366.061491 -255.011966 
L 366.778674 -254.795377 
L 367.495857 -254.551766 
L 368.21304 -254.281604 
L 368.930224 -253.985372 
L 369.647407 -253.663557 
L 370.36459 -253.316657 
L 371.081773 -252.945177 
L 371.798956 -252.549629 
L 372.516139 -252.130531 
L 373.233323 -251.688408 
L 373.950506 -251.223793 
L 374.667689 -250.737221 
L 375.384872 -250.229234 
L 376.102055 -249.700377 
L 376.819239 -249.151201 
L 377.536422 -248.582259 
L 378.253605 -247.994107 
L 378.970788 -247.387304 
L 379.687971 -246.762411 
L 380.405154 -246.119992 
L 381.122338 -245.460609 
L 381.839521 -244.78483 
L 382.556704 -244.093218 
L 383.273887 -243.386338 
L 383.99107 -242.664757 
L 384.708254 -241.929038 
L 385.425437 -241.179743 
L 386.14262 -240.417435 
L 386.859803 -239.642671 
L 387.576986 -238.85601 
L 388.29417 -238.058004 
L 389.011353 -237.249206 
L 389.728536 -236.430162 
L 390.445719 -235.601417 
L 391.162902 -234.763509 
L 391.880085 -233.916974 
L 392.597269 -233.062342 
L 393.314452 -232.200139 
L 394.031635 -231.330885 
L 394.748818 -230.455093 
L 395.466001 -229.573273 
L 396.183185 -228.685927 
L 396.900368 -227.79355 
L 397.617551 -226.896631 
L 398.334734 -225.995654 
L 399.051917 -225.091093 
L 399.7691 -224.183417 
L 400.486284 -223.273086 
L 401.203467 -222.360552 
L 401.92065 -221.446261 
L 402.637833 -220.53065 
L 403.355016 -219.614146 
L 404.0722 -218.697172 
L 404.789383 -217.780138 
L 405.506566 -216.863449 
L 406.223749 -215.947498 
L 406.940932 -215.032672 
L 407.658115 -214.119347 
L 408.375299 -213.207892 
L 409.092482 -212.298666 
L 409.809665 -211.392019 
L 410.526848 -210.48829 
L 411.244031 -209.587812 
L 411.961215 -208.690907 
L 412.678398 -207.797888 
L 413.395581 -206.909058 
L 414.112764 -206.024711 
L 414.829947 -205.145133 
L 415.547131 -204.270599 
L 416.264314 -203.401376 
L 416.981497 -202.53772 
L 417.69868 -201.67988 
L 418.415863 -200.828094 
L 419.133046 -199.982591 
L 419.85023 -199.143592 
L 420.567413 -198.311308 
L 421.284596 -197.485941 
L 422.001779 -196.667685 
L 422.718962 -195.856723 
L 423.436146 -195.053233 
L 424.153329 -194.25738 
L 424.870512 -193.469323 
L 425.587695 -192.689212 
L 426.304878 -191.917189 
L 427.022061 -191.153387 
L 427.739245 -190.39793 
L 428.456428 -189.650937 
L 429.173611 -188.912515 
L 429.890794 -188.182768 
L 430.607977 -187.461787 
L 431.325161 -186.749659 
L 432.042344 -186.046463 
L 432.759527 -185.35227 
L 433.47671 -184.667144 
L 434.193893 -183.991144 
L 434.911076 -183.324318 
L 435.62826 -182.666711 
L 436.345443 -182.018361 
L 437.062626 -181.379297 
L 437.779809 -180.749545 
L 438.496992 -180.129122 
L 439.214176 -179.518042 
L 439.931359 -178.916311 
L 440.648542 -178.32393 
L 441.365725 -177.740896 
L 442.082908 -177.167197 
L 442.800092 -176.60282 
L 443.517275 -176.047744 
L 444.234458 -175.501946 
L 444.951641 -174.965395 
L 445.668824 -174.438057 
L 446.386007 -173.919896 
L 447.103191 -173.410867 
L 447.820374 -172.910925 
L 448.537557 -172.420019 
L 449.25474 -171.938095 
L 449.971923 -171.465096 
L 450.689107 -171.000959 
L 451.40629 -170.545621 
L 452.123473 -170.099014 
L 452.840656 -169.661066 
L 453.557839 -169.231706 
L 454.275022 -168.810855 
L 454.992206 -168.398436 
L 455.709389 -167.994367 
L 456.426572 -167.598564 
L 457.143755 -167.210941 
L 457.860938 -166.831411 
L 458.578122 -166.459884 
L 459.295305 -166.096268 
L 460.012488 -165.740469 
L 460.729671 -165.392393 
L 461.446854 -165.051944 
L 462.164037 -164.719024 
L 462.881221 -164.393533 
L 463.598404 -164.075373 
L 464.315587 -163.764442 
L 465.03277 -163.460638 
L 465.749953 -163.163858 
L 466.467137 -162.874001 
L 467.18432 -162.59096 
L 467.901503 -162.314633 
L 468.618686 -162.044915 
L 469.335869 -161.781699 
L 470.053052 -161.524882 
L 470.770236 -161.274358 
L 471.487419 -161.03002 
L 472.204602 -160.791764 
L 472.921785 -160.559485 
L 473.638968 -160.333077 
L 474.356152 -160.112434 
L 475.073335 -159.897454 
L 475.790518 -159.68803 
L 476.507701 -159.48406 
L 477.224884 -159.28544 
L 477.942068 -159.092067 
L 478.659251 -158.90384 
L 479.376434 -158.720655 
L 480.093617 -158.542414 
L 480.8108 -158.369014 
L 481.527983 -158.200359 
L 482.245167 -158.036348 
L 482.96235 -157.876884 
L 483.679533 -157.721871 
L 484.396716 -157.571214 
L 485.113899 -157.424816 
L 485.831083 -157.282586 
L 486.548266 -157.144429 
L 487.265449 -157.010255 
L 487.982632 -156.879974 
L 488.699815 -156.753495 
L 489.416998 -156.630732 
L 490.134182 -156.511596 
L 490.851365 -156.396002 
L 491.568548 -156.283866 
L 492.285731 -156.175105 
L 493.002914 -156.069635 
L 493.720098 -155.967377 
L 494.437281 -155.868251 
L 495.154464 -155.772179 
L 495.871647 -155.679083 
L 496.58883 -155.588888 
L 497.306013 -155.501519 
L 498.023197 -155.416903 
L 498.74038 -155.334969 
L 499.457563 -155.255646 
L 500.174746 -155.178863 
L 500.891929 -155.104555 
L 501.609113 -155.032653 
L 502.326296 -154.963092 
L 503.043479 -154.895809 
L 503.760662 -154.830739 
L 504.477845 -154.767823 
L 505.195029 -154.706999 
L 505.912212 -154.648208 
L 506.629395 -154.591392 
L 506.629395 -153.505025 
L 506.629395 -153.505025 
L 505.912212 -153.522076 
L 505.195029 -153.539848 
L 504.477845 -153.558369 
L 503.760662 -153.577666 
L 503.043479 -153.597769 
L 502.326296 -153.618705 
L 501.609113 -153.640507 
L 500.891929 -153.663204 
L 500.174746 -153.68683 
L 499.457563 -153.711417 
L 498.74038 -153.736999 
L 498.023197 -153.763613 
L 497.306013 -153.791292 
L 496.58883 -153.820076 
L 495.871647 -153.850001 
L 495.154464 -153.881108 
L 494.437281 -153.913436 
L 493.720098 -153.947026 
L 493.002914 -153.981922 
L 492.285731 -154.018167 
L 491.568548 -154.055805 
L 490.851365 -154.094883 
L 490.134182 -154.135448 
L 489.416998 -154.177547 
L 488.699815 -154.221231 
L 487.982632 -154.26655 
L 487.265449 -154.313556 
L 486.548266 -154.362303 
L 485.831083 -154.412844 
L 485.113899 -154.465236 
L 484.396716 -154.519536 
L 483.679533 -154.575802 
L 482.96235 -154.634093 
L 482.245167 -154.694472 
L 481.527983 -154.757 
L 480.8108 -154.82174 
L 480.093617 -154.888759 
L 479.376434 -154.958122 
L 478.659251 -155.029898 
L 477.942068 -155.104155 
L 477.224884 -155.180964 
L 476.507701 -155.260398 
L 475.790518 -155.342529 
L 475.073335 -155.427431 
L 474.356152 -155.515183 
L 473.638968 -155.60586 
L 472.921785 -155.699542 
L 472.204602 -155.796308 
L 471.487419 -155.896242 
L 470.770236 -155.999425 
L 470.053052 -156.105942 
L 469.335869 -156.215878 
L 468.618686 -156.329322 
L 467.901503 -156.44636 
L 467.18432 -156.567084 
L 466.467137 -156.691583 
L 465.749953 -156.81995 
L 465.03277 -156.952278 
L 464.315587 -157.088663 
L 463.598404 -157.229199 
L 462.881221 -157.373985 
L 462.164037 -157.523117 
L 461.446854 -157.676696 
L 460.729671 -157.834822 
L 460.012488 -157.997596 
L 459.295305 -158.16512 
L 458.578122 -158.337499 
L 457.860938 -158.514835 
L 457.143755 -158.697235 
L 456.426572 -158.884804 
L 455.709389 -159.077648 
L 454.992206 -159.275876 
L 454.275022 -159.479595 
L 453.557839 -159.688915 
L 452.840656 -159.903943 
L 452.123473 -160.12479 
L 451.40629 -160.351566 
L 450.689107 -160.584381 
L 449.971923 -160.823346 
L 449.25474 -161.068571 
L 448.537557 -161.320169 
L 447.820374 -161.578248 
L 447.103191 -161.842921 
L 446.386007 -162.114298 
L 445.668824 -162.39249 
L 444.951641 -162.677606 
L 444.234458 -162.969757 
L 443.517275 -163.269052 
L 442.800092 -163.575598 
L 442.082908 -163.889505 
L 441.365725 -164.210878 
L 440.648542 -164.539825 
L 439.931359 -164.876449 
L 439.214176 -165.220855 
L 438.496992 -165.573145 
L 437.779809 -165.933419 
L 437.062626 -166.301779 
L 436.345443 -166.67832 
L 435.62826 -167.06314 
L 434.911076 -167.456332 
L 434.193893 -167.857988 
L 433.47671 -168.268198 
L 432.759527 -168.687049 
L 432.042344 -169.114626 
L 431.325161 -169.551012 
L 430.607977 -169.996285 
L 429.890794 -170.450522 
L 429.173611 -170.913796 
L 428.456428 -171.386178 
L 427.739245 -171.867735 
L 427.022061 -172.358529 
L 426.304878 -172.85862 
L 425.587695 -173.368063 
L 424.870512 -173.88691 
L 424.153329 -174.415209 
L 423.436146 -174.953002 
L 422.718962 -175.500328 
L 422.001779 -176.057221 
L 421.284596 -176.623709 
L 420.567413 -177.199817 
L 419.85023 -177.785562 
L 419.133046 -178.380959 
L 418.415863 -178.986016 
L 417.69868 -179.600734 
L 416.981497 -180.22511 
L 416.264314 -180.859134 
L 415.547131 -181.502791 
L 414.829947 -182.156057 
L 414.112764 -182.818905 
L 413.395581 -183.491299 
L 412.678398 -184.173197 
L 411.961215 -184.86455 
L 411.244031 -185.565301 
L 410.526848 -186.275387 
L 409.809665 -186.994737 
L 409.092482 -187.723273 
L 408.375299 -188.460908 
L 407.658115 -189.207548 
L 406.940932 -189.963091 
L 406.223749 -190.727426 
L 405.506566 -191.500436 
L 404.789383 -192.281992 
L 404.0722 -193.071961 
L 403.355016 -193.870198 
L 402.637833 -194.676549 
L 401.92065 -195.490855 
L 401.203467 -196.312943 
L 400.486284 -197.142634 
L 399.7691 -197.97974 
L 399.051917 -198.824063 
L 398.334734 -199.675395 
L 397.617551 -200.533521 
L 396.900368 -201.398213 
L 396.183185 -202.269237 
L 395.466001 -203.146348 
L 394.748818 -204.02929 
L 394.031635 -204.9178 
L 393.314452 -205.811605 
L 392.597269 -206.710419 
L 391.880085 -207.613952 
L 391.162902 -208.521899 
L 390.445719 -209.433948 
L 389.728536 -210.349778 
L 389.011353 -211.269056 
L 388.29417 -212.191442 
L 387.576986 -213.116584 
L 386.859803 -214.044122 
L 386.14262 -214.973687 
L 385.425437 -215.904899 
L 384.708254 -216.837371 
L 383.99107 -217.770705 
L 383.273887 -218.704494 
L 382.556704 -219.638323 
L 381.839521 -220.571767 
L 381.122338 -221.504395 
L 380.405154 -222.435763 
L 379.687971 -223.365423 
L 378.970788 -224.292916 
L 378.253605 -225.217775 
L 377.536422 -226.139528 
L 376.819239 -227.057693 
L 376.102055 -227.97178 
L 375.384872 -228.881293 
L 374.667689 -229.785728 
L 373.950506 -230.684577 
L 373.233323 -231.577322 
L 372.516139 -232.463441 
L 371.798956 -233.342405 
L 371.081773 -234.21368 
L 370.36459 -235.076726 
L 369.647407 -235.930999 
L 368.930224 -236.775949 
L 368.21304 -237.611023 
L 367.495857 -238.435662 
L 366.778674 -239.249305 
L 366.061491 -240.051388 
L 365.344308 -240.841342 
L 364.627124 -241.618596 
L 363.909941 -242.382579 
L 363.192758 -243.132715 
L 362.475575 -243.868429 
L 361.758392 -244.589143 
L 361.041209 -245.29428 
L 360.324025 -245.983262 
L 359.606842 -246.655512 
L 358.889659 -247.310452 
L 358.172476 -247.947508 
L 357.455293 -248.566104 
L 356.738109 -249.165669 
L 356.020926 -249.745633 
L 355.303743 -250.30543 
L 354.58656 -250.844497 
L 353.869377 -251.362273 
L 353.152193 -251.858205 
L 352.43501 -252.331742 
L 351.717827 -252.782341 
L 351.000644 -253.209461 
L 350.283461 -253.612571 
L 349.566278 -253.991146 
L 348.849094 -254.344667 
L 348.131911 -254.672623 
L 347.414728 -254.974513 
L 346.697545 -255.249844 
L 345.980362 -255.498131 
L 345.263178 -255.7189 
L 344.545995 -255.911688 
L 343.828812 -256.076041 
L 343.111629 -256.211518 
L 342.394446 -256.317687 
L 341.677263 -256.394132 
L 340.960079 -256.440447 
L 340.242896 -256.456239 
L 339.525713 -256.441129 
L 338.80853 -256.394754 
L 338.091347 -256.316762 
L 337.374163 -256.206818 
L 336.65698 -256.064603 
L 335.939797 -255.889811 
L 335.222614 -255.682155 
L 334.505431 -255.441362 
L 333.788248 -255.167178 
L 333.071064 -254.859365 
L 332.353881 -254.517703 
L 331.636698 -254.14199 
L 330.919515 -253.732043 
L 330.202332 -253.287696 
L 329.485148 -252.808803 
L 328.767965 -252.295238 
L 328.050782 -251.746893 
L 327.333599 -251.163681 
L 326.616416 -250.545534 
L 325.899232 -249.892406 
L 325.182049 -249.204269 
L 324.464866 -248.481117 
L 323.747683 -247.722967 
L 323.0305 -246.929853 
L 322.313317 -246.101834 
L 321.596133 -245.238987 
L 320.87895 -244.341414 
L 320.161767 -243.409236 
L 319.444584 -242.442596 
L 318.727401 -241.441659 
L 318.010217 -240.406614 
L 317.293034 -239.337667 
L 316.575851 -238.235051 
L 315.858668 -237.099017 
L 315.141485 -235.929839 
L 314.424302 -234.727814 
L 313.707118 -233.493258 
L 312.989935 -232.226511 
L 312.272752 -230.927934 
L 311.555569 -229.597907 
L 310.838386 -228.236834 
L 310.121202 -226.845138 
L 309.404019 -225.423264 
L 308.686836 -223.971678 
L 307.969653 -222.490864 
L 307.25247 -220.981329 
L 306.535287 -219.443597 
L 305.818103 -217.878213 
L 305.10092 -216.285742 
L 304.383737 -214.666765 
L 303.666554 -213.021886 
L 302.949371 -211.351723 
L 302.232187 -209.656914 
L 301.515004 -207.938113 
L 300.797821 -206.195992 
L 300.080638 -204.43124 
L 299.363455 -202.644561 
L 298.646271 -200.836675 
L 297.929088 -199.008317 
L 297.211905 -197.160237 
L 296.494722 -195.293198 
L 295.777539 -193.407979 
L 295.060356 -191.505369 
L 294.343172 -189.586173 
L 293.625989 -187.651204 
L 292.908806 -185.70129 
L 292.191623 -183.737268 
L 291.47444 -181.759984 
L 290.757256 -179.770297 
L 290.040073 -177.769071 
L 289.32289 -175.757182 
L 288.605707 -173.735511 
L 287.888524 -171.704947 
L 287.171341 -169.666385 
L 286.454157 -167.620728 
L 285.736974 -165.56888 
L 285.019791 -163.511753 
L 284.302608 -161.450261 
L 283.585425 -159.385321 
L 282.868241 -157.317854 
L 282.151058 -155.248781 
L 281.433875 -153.179024 
L 280.716692 -151.109506 
L 279.999509 -149.041149 
L 279.282326 -146.974876 
L 278.565142 -144.911606 
L 277.847959 -142.852256 
L 277.130776 -140.79774 
L 276.413593 -138.748969 
L 275.69641 -136.70685 
L 274.979226 -134.672282 
L 274.262043 -132.646162 
L 273.54486 -130.629378 
L 272.827677 -128.622811 
L 272.110494 -126.627336 
L 271.393311 -124.643819 
L 270.676127 -122.673117 
L 269.958944 -120.716075 
L 269.241761 -118.773533 
L 268.524578 -116.846315 
L 267.807395 -114.935237 
L 267.090211 -113.041102 
L 266.373028 -111.164701 
L 265.655845 -109.30681 
L 264.938662 -107.468194 
L 264.221479 -105.649603 
L 263.504295 -103.851771 
L 262.787112 -102.07542 
L 262.069929 -100.321254 
L 261.352746 -98.589961 
L 260.635563 -96.882215 
L 259.91838 -95.198669 
L 259.201196 -93.539963 
L 258.484013 -91.906717 
L 257.76683 -90.299533 
L 257.049647 -88.718995 
L 256.332464 -87.165668 
L 255.61528 -85.6401 
L 254.898097 -84.142815 
L 254.180914 -82.674323 
L 253.463731 -81.235109 
L 252.746548 -79.825642 
L 252.029365 -78.446367 
L 251.312181 -77.097712 
L 250.594998 -75.780081 
L 249.877815 -74.493859 
L 249.160632 -73.23941 
L 248.443449 -72.017076 
L 247.726265 -70.827176 
L 247.009082 -69.670012 
L 246.291899 -68.545861 
L 245.574716 -67.45498 
L 244.857533 -66.397603 
L 244.14035 -65.373944 
L 243.423166 -64.384195 
L 242.705983 -63.428525 
L 241.9888 -62.507085 
L 241.271617 -61.62 
L 240.554434 -60.767378 
L 239.83725 -59.949303 
L 239.120067 -59.165839 
L 238.402884 -58.417028 
L 237.685701 -57.702893 
L 236.968518 -57.023435 
L 236.251334 -56.378635 
L 235.534151 -55.768453 
L 234.816968 -55.19283 
L 234.099785 -54.651686 
L 233.382602 -54.144923 
L 232.665419 -53.672423 
L 231.948235 -53.234049 
L 231.231052 -52.829644 
L 230.513869 -52.459035 
L 229.796686 -52.12203 
L 229.079503 -51.818418 
L 228.362319 -51.547973 
L 227.645136 -51.310449 
L 226.927953 -51.105585 
L 226.21077 -50.933105 
L 225.493587 -50.792715 
L 224.776404 -50.684105 
L 224.05922 -50.606953 
L 223.342037 -50.56092 
L 222.624854 -50.545652 
L 221.907671 -50.560783 
L 221.190488 -50.605933 
L 220.473304 -50.680709 
L 219.756121 -50.784705 
L 219.038938 -50.917505 
L 218.321755 -51.078678 
L 217.604572 -51.267784 
L 216.887389 -51.484373 
L 216.170205 -51.727984 
L 215.453022 -51.998146 
L 214.735839 -52.294378 
L 214.018656 -52.616193 
L 213.301473 -52.963093 
L 212.584289 -53.334573 
L 211.867106 -53.730121 
L 211.149923 -54.149219 
L 210.43274 -54.591342 
L 209.715557 -55.055957 
L 208.998373 -55.542529 
L 208.28119 -56.050516 
L 207.564007 -56.579373 
L 206.846824 -57.128549 
L 206.129641 -57.697491 
L 205.412458 -58.285643 
L 204.695274 -58.892446 
L 203.978091 -59.517339 
L 203.260908 -60.159758 
L 202.543725 -60.819141 
L 201.826542 -61.49492 
L 201.109358 -62.186532 
L 200.392175 -62.893412 
L 199.674992 -63.614993 
L 198.957809 -64.350712 
L 198.240626 -65.100007 
L 197.523443 -65.862315 
L 196.806259 -66.637079 
L 196.089076 -67.42374 
L 195.371893 -68.221746 
L 194.65471 -69.030544 
L 193.937527 -69.849588 
L 193.220343 -70.678333 
L 192.50316 -71.516241 
L 191.785977 -72.362776 
L 191.068794 -73.217408 
L 190.351611 -74.079611 
L 189.634428 -74.948865 
L 188.917244 -75.824657 
L 188.200061 -76.706477 
L 187.482878 -77.593823 
L 186.765695 -78.4862 
L 186.048512 -79.383119 
L 185.331328 -80.284096 
L 184.614145 -81.188657 
L 183.896962 -82.096333 
L 183.179779 -83.006664 
L 182.462596 -83.919198 
L 181.745412 -84.833489 
L 181.028229 -85.7491 
L 180.311046 -86.665604 
L 179.593863 -87.582578 
L 178.87668 -88.499612 
L 178.159497 -89.416301 
L 177.442313 -90.332252 
L 176.72513 -91.247078 
L 176.007947 -92.160403 
L 175.290764 -93.071858 
L 174.573581 -93.981084 
L 173.856397 -94.887731 
L 173.139214 -95.79146 
L 172.422031 -96.691938 
L 171.704848 -97.588843 
L 170.987665 -98.481862 
L 170.270482 -99.370692 
L 169.553298 -100.255039 
L 168.836115 -101.134617 
L 168.118932 -102.009151 
L 167.401749 -102.878374 
L 166.684566 -103.74203 
L 165.967382 -104.59987 
L 165.250199 -105.451656 
L 164.533016 -106.297159 
L 163.815833 -107.136158 
L 163.09865 -107.968442 
L 162.381467 -108.793809 
L 161.664283 -109.612065 
L 160.9471 -110.423027 
L 160.229917 -111.226517 
L 159.512734 -112.02237 
L 158.795551 -112.810427 
L 158.078367 -113.590538 
L 157.361184 -114.362561 
L 156.644001 -115.126363 
L 155.926818 -115.88182 
L 155.209635 -116.628813 
L 154.492451 -117.367235 
L 153.775268 -118.096982 
L 153.058085 -118.817963 
L 152.340902 -119.530091 
L 151.623719 -120.233287 
L 150.906536 -120.92748 
L 150.189352 -121.612606 
L 149.472169 -122.288606 
L 148.754986 -122.955432 
L 148.037803 -123.613039 
L 147.32062 -124.261389 
L 146.603436 -124.900453 
L 145.886253 -125.530205 
L 145.16907 -126.150628 
L 144.451887 -126.761708 
L 143.734704 -127.363439 
L 143.017521 -127.95582 
L 142.300337 -128.538854 
L 141.583154 -129.112553 
L 140.865971 -129.67693 
L 140.148788 -130.232006 
L 139.431605 -130.777804 
L 138.714421 -131.314355 
L 137.997238 -131.841693 
L 137.280055 -132.359854 
L 136.562872 -132.868883 
L 135.845689 -133.368825 
L 135.128506 -133.859731 
L 134.411322 -134.341655 
L 133.694139 -134.814654 
L 132.976956 -135.278791 
L 132.259773 -135.734129 
L 131.54259 -136.180736 
L 130.825406 -136.618684 
L 130.108223 -137.048044 
L 129.39104 -137.468895 
L 128.673857 -137.881314 
L 127.956674 -138.285383 
L 127.239491 -138.681186 
L 126.522307 -139.068809 
L 125.805124 -139.448339 
L 125.087941 -139.819866 
L 124.370758 -140.183482 
L 123.653575 -140.539281 
L 122.936391 -140.887357 
L 122.219208 -141.227806 
L 121.502025 -141.560726 
L 120.784842 -141.886217 
L 120.067659 -142.204377 
L 119.350475 -142.515308 
L 118.633292 -142.819112 
L 117.916109 -143.115892 
L 117.198926 -143.405749 
L 116.481743 -143.68879 
L 115.76456 -143.965117 
L 115.047376 -144.234835 
L 114.330193 -144.498051 
L 113.61301 -144.754868 
L 112.895827 -145.005392 
L 112.178644 -145.24973 
L 111.46146 -145.487986 
L 110.744277 -145.720265 
L 110.027094 -145.946673 
L 109.309911 -146.167316 
L 108.592728 -146.382296 
L 107.875545 -146.59172 
L 107.158361 -146.79569 
L 106.441178 -146.99431 
L 105.723995 -147.187683 
L 105.006812 -147.37591 
L 104.289629 -147.559095 
L 103.572445 -147.737336 
L 102.855262 -147.910736 
L 102.138079 -148.079391 
L 101.420896 -148.243402 
L 100.703713 -148.402866 
L 99.98653 -148.557879 
L 99.269346 -148.708536 
L 98.552163 -148.854934 
L 97.83498 -148.997164 
L 97.117797 -149.135321 
L 96.400614 -149.269495 
L 95.68343 -149.399776 
L 94.966247 -149.526255 
L 94.249064 -149.649018 
L 93.531881 -149.768154 
L 92.814698 -149.883748 
L 92.097514 -149.995884 
L 91.380331 -150.104645 
L 90.663148 -150.210115 
L 89.945965 -150.312373 
L 89.228782 -150.411499 
L 88.511599 -150.507571 
L 87.794415 -150.600667 
L 87.077232 -150.690862 
L 86.360049 -150.778231 
L 85.642866 -150.862847 
L 84.925683 -150.944781 
L 84.208499 -151.024104 
L 83.491316 -151.100887 
L 82.774133 -151.175195 
L 82.05695 -151.247097 
L 81.339767 -151.316658 
L 80.622584 -151.383941 
L 79.9054 -151.449011 
L 79.188217 -151.511927 
L 78.471034 -151.572751 
L 77.753851 -151.631542 
L 77.036668 -151.688358 
z
" style="stroke: #d8b7c9; stroke-opacity: 0.35"/>
    </defs>
    <g clip-path="url(#p64c4d85902)">
     <use xlink:href="#m35d1c5f372" x="0" y="290.017812" style="fill: #d8b7c9; fill-opacity: 0.35; stroke: #d8b7c9; stroke-opacity: 0.35"/>
    </g>
   </g>
   <g id="matplotlib.axis_1">
    <g id="xtick_1">
     <g id="line2d_1">
      <path d="M 112.836062 250.525937 
L 112.836062 23.229938 
" clip-path="url(#p64c4d85902)" style="fill: none; stroke: #b0b0b0; stroke-opacity: 0.22; stroke-width: 0.8; stroke-linecap: square"/>
     </g>
     <g id="line2d_2">
      <defs>
       <path id="mc85f52c5f9" d="M 0 0 
L 0 3.5 
" style="stroke: #000000; stroke-width: 0.8"/>
      </defs>
      <g>
       <use xlink:href="#mc85f52c5f9" x="112.836062" y="250.525937" style="stroke: #000000; stroke-width: 0.8"/>
      </g>
     </g>
     <g id="text_1">
      <text style="font: 11px 'DejaVu Sans', 'Bitstream Vera Sans', 'Computer Modern Sans Serif', 'Lucida Grande', 'Verdana', 'Geneva', 'Lucid', 'Arial', 'Helvetica', 'Avant Garde', sans-serif; text-anchor: middle" x="112.836062" y="265.884219" transform="rotate(-0 112.836062 265.884219)">−3</text>
     </g>
    </g>
    <g id="xtick_2">
     <g id="line2d_3">
      <path d="M 172.501718 250.525937 
L 172.501718 23.229938 
" clip-path="url(#p64c4d85902)" style="fill: none; stroke: #b0b0b0; stroke-opacity: 0.22; stroke-width: 0.8; stroke-linecap: square"/>
     </g>
     <g id="line2d_4">
      <g>
       <use xlink:href="#mc85f52c5f9" x="172.501718" y="250.525937" style="stroke: #000000; stroke-width: 0.8"/>
      </g>
     </g>
     <g id="text_2">
      <text style="font: 11px 'DejaVu Sans', 'Bitstream Vera Sans', 'Computer Modern Sans Serif', 'Lucida Grande', 'Verdana', 'Geneva', 'Lucid', 'Arial', 'Helvetica', 'Avant Garde', sans-serif; text-anchor: middle" x="172.501718" y="265.884219" transform="rotate(-0 172.501718 265.884219)">−2</text>
     </g>
    </g>
    <g id="xtick_3">
     <g id="line2d_5">
      <path d="M 232.167375 250.525937 
L 232.167375 23.229938 
" clip-path="url(#p64c4d85902)" style="fill: none; stroke: #b0b0b0; stroke-opacity: 0.22; stroke-width: 0.8; stroke-linecap: square"/>
     </g>
     <g id="line2d_6">
      <g>
       <use xlink:href="#mc85f52c5f9" x="232.167375" y="250.525937" style="stroke: #000000; stroke-width: 0.8"/>
      </g>
     </g>
     <g id="text_3">
      <text style="font: 11px 'DejaVu Sans', 'Bitstream Vera Sans', 'Computer Modern Sans Serif', 'Lucida Grande', 'Verdana', 'Geneva', 'Lucid', 'Arial', 'Helvetica', 'Avant Garde', sans-serif; text-anchor: middle" x="232.167375" y="265.884219" transform="rotate(-0 232.167375 265.884219)">−1</text>
     </g>
    </g>
    <g id="xtick_4">
     <g id="line2d_7">
      <path d="M 291.833031 250.525937 
L 291.833031 23.229938 
" clip-path="url(#p64c4d85902)" style="fill: none; stroke: #b0b0b0; stroke-opacity: 0.22; stroke-width: 0.8; stroke-linecap: square"/>
     </g>
     <g id="line2d_8">
      <g>
       <use xlink:href="#mc85f52c5f9" x="291.833031" y="250.525937" style="stroke: #000000; stroke-width: 0.8"/>
      </g>
     </g>
     <g id="text_4">
      <text style="font: 11px 'DejaVu Sans', 'Bitstream Vera Sans', 'Computer Modern Sans Serif', 'Lucida Grande', 'Verdana', 'Geneva', 'Lucid', 'Arial', 'Helvetica', 'Avant Garde', sans-serif; text-anchor: middle" x="291.833031" y="265.884219" transform="rotate(-0 291.833031 265.884219)">0</text>
     </g>
    </g>
    <g id="xtick_5">
     <g id="line2d_9">
      <path d="M 351.498688 250.525937 
L 351.498688 23.229938 
" clip-path="url(#p64c4d85902)" style="fill: none; stroke: #b0b0b0; stroke-opacity: 0.22; stroke-width: 0.8; stroke-linecap: square"/>
     </g>
     <g id="line2d_10">
      <g>
       <use xlink:href="#mc85f52c5f9" x="351.498688" y="250.525937" style="stroke: #000000; stroke-width: 0.8"/>
      </g>
     </g>
     <g id="text_5">
      <text style="font: 11px 'DejaVu Sans', 'Bitstream Vera Sans', 'Computer Modern Sans Serif', 'Lucida Grande', 'Verdana', 'Geneva', 'Lucid', 'Arial', 'Helvetica', 'Avant Garde', sans-serif; text-anchor: middle" x="351.498688" y="265.884219" transform="rotate(-0 351.498688 265.884219)">1</text>
     </g>
    </g>
    <g id="xtick_6">
     <g id="line2d_11">
      <path d="M 411.164344 250.525937 
L 411.164344 23.229938 
" clip-path="url(#p64c4d85902)" style="fill: none; stroke: #b0b0b0; stroke-opacity: 0.22; stroke-width: 0.8; stroke-linecap: square"/>
     </g>
     <g id="line2d_12">
      <g>
       <use xlink:href="#mc85f52c5f9" x="411.164344" y="250.525937" style="stroke: #000000; stroke-width: 0.8"/>
      </g>
     </g>
     <g id="text_6">
      <text style="font: 11px 'DejaVu Sans', 'Bitstream Vera Sans', 'Computer Modern Sans Serif', 'Lucida Grande', 'Verdana', 'Geneva', 'Lucid', 'Arial', 'Helvetica', 'Avant Garde', sans-serif; text-anchor: middle" x="411.164344" y="265.884219" transform="rotate(-0 411.164344 265.884219)">2</text>
     </g>
    </g>
    <g id="xtick_7">
     <g id="line2d_13">
      <path d="M 470.830001 250.525937 
L 470.830001 23.229938 
" clip-path="url(#p64c4d85902)" style="fill: none; stroke: #b0b0b0; stroke-opacity: 0.22; stroke-width: 0.8; stroke-linecap: square"/>
     </g>
     <g id="line2d_14">
      <g>
       <use xlink:href="#mc85f52c5f9" x="470.830001" y="250.525937" style="stroke: #000000; stroke-width: 0.8"/>
      </g>
     </g>
     <g id="text_7">
      <text style="font: 11px 'DejaVu Sans', 'Bitstream Vera Sans', 'Computer Modern Sans Serif', 'Lucida Grande', 'Verdana', 'Geneva', 'Lucid', 'Arial', 'Helvetica', 'Avant Garde', sans-serif; text-anchor: middle" x="470.830001" y="265.884219" transform="rotate(-0 470.830001 265.884219)">3</text>
     </g>
    </g>
    <g id="text_8">
     <!-- threshold $\nu/\sigma_0$ -->
     <g transform="translate(253.003031 280.530156)">
      <text>
       <tspan style="font: 11px 'DejaVu Sans'" x="0 4.312988 11.284668 15.807129 22.574707 28.305664 35.277344 42.007324 45.063477 52.045898 61.687012" y="-0.640625">threshold /</tspan>
       <tspan style="font: oblique 11px 'DejaVu Sans'" x="55.54248 65.393066" y="-0.640625">νσ</tspan>
       <tspan style="font: 7.7px 'DejaVu Sans'" x="72.364746" y="1.1640625">0</tspan>
      </text>
     </g>
    </g>
   </g>
   <g id="matplotlib.axis_2">
    <g id="ytick_1">
     <g id="line2d_15">
      <path d="M 55.557031 235.579121 
L 528.109031 235.579121 
" clip-path="url(#p64c4d85902)" style="fill: none; stroke: #b0b0b0; stroke-opacity: 0.22; stroke-width: 0.8; stroke-linecap: square"/>
     </g>
     <g id="line2d_16">
      <defs>
       <path id="maa18b6838e" d="M 0 0 
L -3.5 0 
" style="stroke: #000000; stroke-width: 0.8"/>
      </defs>
      <g>
       <use xlink:href="#maa18b6838e" x="55.557031" y="235.579121" style="stroke: #000000; stroke-width: 0.8"/>
      </g>
     </g>
     <g id="text_9">
      <text style="font: 11px 'DejaVu Sans', 'Bitstream Vera Sans', 'Computer Modern Sans Serif', 'Lucida Grande', 'Verdana', 'Geneva', 'Lucid', 'Arial', 'Helvetica', 'Avant Garde', sans-serif; text-anchor: end" x="48.557031" y="239.758262" transform="rotate(-0 48.557031 239.758262)">−0.6</text>
     </g>
    </g>
    <g id="ytick_2">
     <g id="line2d_17">
      <path d="M 55.557031 202.678727 
L 528.109031 202.678727 
" clip-path="url(#p64c4d85902)" style="fill: none; stroke: #b0b0b0; stroke-opacity: 0.22; stroke-width: 0.8; stroke-linecap: square"/>
     </g>
     <g id="line2d_18">
      <g>
       <use xlink:href="#maa18b6838e" x="55.557031" y="202.678727" style="stroke: #000000; stroke-width: 0.8"/>
      </g>
     </g>
     <g id="text_10">
      <text style="font: 11px 'DejaVu Sans', 'Bitstream Vera Sans', 'Computer Modern Sans Serif', 'Lucida Grande', 'Verdana', 'Geneva', 'Lucid', 'Arial', 'Helvetica', 'Avant Garde', sans-serif; text-anchor: end" x="48.557031" y="206.857867" transform="rotate(-0 48.557031 206.857867)">−0.4</text>
     </g>
    </g>
    <g id="ytick_3">
     <g id="line2d_19">
      <path d="M 55.557031 169.778332 
L 528.109031 169.778332 
" clip-path="url(#p64c4d85902)" style="fill: none; stroke: #b0b0b0; stroke-opacity: 0.22; stroke-width: 0.8; stroke-linecap: square"/>
     </g>
     <g id="line2d_20">
      <g>
       <use xlink:href="#maa18b6838e" x="55.557031" y="169.778332" style="stroke: #000000; stroke-width: 0.8"/>
      </g>
     </g>
     <g id="text_11">
      <text style="font: 11px 'DejaVu Sans', 'Bitstream Vera Sans', 'Computer Modern Sans Serif', 'Lucida Grande', 'Verdana', 'Geneva', 'Lucid', 'Arial', 'Helvetica', 'Avant Garde', sans-serif; text-anchor: end" x="48.557031" y="173.957473" transform="rotate(-0 48.557031 173.957473)">−0.2</text>
     </g>
    </g>
    <g id="ytick_4">
     <g id="line2d_21">
      <path d="M 55.557031 136.877937 
L 528.109031 136.877937 
" clip-path="url(#p64c4d85902)" style="fill: none; stroke: #b0b0b0; stroke-opacity: 0.22; stroke-width: 0.8; stroke-linecap: square"/>
     </g>
     <g id="line2d_22">
      <g>
       <use xlink:href="#maa18b6838e" x="55.557031" y="136.877937" style="stroke: #000000; stroke-width: 0.8"/>
      </g>
     </g>
     <g id="text_12">
      <text style="font: 11px 'DejaVu Sans', 'Bitstream Vera Sans', 'Computer Modern Sans Serif', 'Lucida Grande', 'Verdana', 'Geneva', 'Lucid', 'Arial', 'Helvetica', 'Avant Garde', sans-serif; text-anchor: end" x="48.557031" y="141.057078" transform="rotate(-0 48.557031 141.057078)">0.0</text>
     </g>
    </g>
    <g id="ytick_5">
     <g id="line2d_23">
      <path d="M 55.557031 103.977543 
L 528.109031 103.977543 
" clip-path="url(#p64c4d85902)" style="fill: none; stroke: #b0b0b0; stroke-opacity: 0.22; stroke-width: 0.8; stroke-linecap: square"/>
     </g>
     <g id="line2d_24">
      <g>
       <use xlink:href="#maa18b6838e" x="55.557031" y="103.977543" style="stroke: #000000; stroke-width: 0.8"/>
      </g>
     </g>
     <g id="text_13">
      <text style="font: 11px 'DejaVu Sans', 'Bitstream Vera Sans', 'Computer Modern Sans Serif', 'Lucida Grande', 'Verdana', 'Geneva', 'Lucid', 'Arial', 'Helvetica', 'Avant Garde', sans-serif; text-anchor: end" x="48.557031" y="108.156684" transform="rotate(-0 48.557031 108.156684)">0.2</text>
     </g>
    </g>
    <g id="ytick_6">
     <g id="line2d_25">
      <path d="M 55.557031 71.077148 
L 528.109031 71.077148 
" clip-path="url(#p64c4d85902)" style="fill: none; stroke: #b0b0b0; stroke-opacity: 0.22; stroke-width: 0.8; stroke-linecap: square"/>
     </g>
     <g id="line2d_26">
      <g>
       <use xlink:href="#maa18b6838e" x="55.557031" y="71.077148" style="stroke: #000000; stroke-width: 0.8"/>
      </g>
     </g>
     <g id="text_14">
      <text style="font: 11px 'DejaVu Sans', 'Bitstream Vera Sans', 'Computer Modern Sans Serif', 'Lucida Grande', 'Verdana', 'Geneva', 'Lucid', 'Arial', 'Helvetica', 'Avant Garde', sans-serif; text-anchor: end" x="48.557031" y="75.256289" transform="rotate(-0 48.557031 75.256289)">0.4</text>
     </g>
    </g>
    <g id="ytick_7">
     <g id="line2d_27">
      <path d="M 55.557031 38.176754 
L 528.109031 38.176754 
" clip-path="url(#p64c4d85902)" style="fill: none; stroke: #b0b0b0; stroke-opacity: 0.22; stroke-width: 0.8; stroke-linecap: square"/>
     </g>
     <g id="line2d_28">
      <g>
       <use xlink:href="#maa18b6838e" x="55.557031" y="38.176754" style="stroke: #000000; stroke-width: 0.8"/>
      </g>
     </g>
     <g id="text_15">
      <text style="font: 11px 'DejaVu Sans', 'Bitstream Vera Sans', 'Computer Modern Sans Serif', 'Lucida Grande', 'Verdana', 'Geneva', 'Lucid', 'Arial', 'Helvetica', 'Avant Garde', sans-serif; text-anchor: end" x="48.557031" y="42.355894" transform="rotate(-0 48.557031 42.355894)">0.6</text>
     </g>
    </g>
    <g id="text_16">
     <!-- $V_2(\nu)$  (2D Euler) -->
     <g transform="translate(15.558281 182.032937) rotate(-90)">
      <text>
       <tspan style="font: oblique 11px 'DejaVu Sans'" x="0 17.016162" y="-0.640625">Vν</tspan>
       <tspan style="font: 7.7px 'DejaVu Sans'" x="7.524902" y="1.1640625">2</tspan>
       <tspan style="font: 11px 'DejaVu Sans'" x="12.724658 23.160693 27.452197 30.948779 34.445361 38.736865 45.7354 54.205615 57.702197 64.652393 71.624072 74.680225 81.447803 85.970264" y="-0.640625">()  (2D Euler)</tspan>
      </text>
     </g>
    </g>
   </g>
   <g id="line2d_29">
    <path d="M 77.036668 137.786271 
L 85.642866 138.32832 
L 92.814698 138.983505 
L 99.269346 139.783437 
L 105.006812 140.704931 
L 110.744277 141.867576 
L 115.76456 143.118559 
L 120.784842 144.621821 
L 125.087941 146.136754 
L 129.39104 147.883288 
L 133.694139 149.882283 
L 137.997238 152.153336 
L 142.300337 154.713949 
L 146.603436 157.5786 
L 150.906536 160.757722 
L 155.209635 164.25662 
L 159.512734 168.074357 
L 163.815833 172.20264 
L 168.118932 176.624757 
L 173.139214 182.119901 
L 178.87668 188.769128 
L 186.048512 197.453139 
L 198.240626 212.280384 
L 203.260908 218.01594 
L 207.564007 222.574141 
L 211.149923 226.035048 
L 214.018656 228.535341 
L 216.887389 230.760403 
L 219.756121 232.676874 
L 221.907671 233.892118 
L 224.05922 234.902217 
L 226.21077 235.694437 
L 228.362319 236.256666 
L 230.513869 236.577522 
L 232.665419 236.646457 
L 234.816968 236.453856 
L 236.968518 235.991142 
L 239.120067 235.250862 
L 241.271617 234.226781 
L 243.423166 232.91396 
L 245.574716 231.308828 
L 247.726265 229.409255 
L 249.877815 227.214597 
L 252.029365 224.725749 
L 254.180914 221.945178 
L 256.332464 218.876944 
L 259.201196 214.348515 
L 262.069929 209.336804 
L 264.938662 203.86467 
L 267.807395 197.959827 
L 271.393311 190.019995 
L 274.979226 181.527635 
L 279.282326 170.723882 
L 284.302608 157.475088 
L 292.191623 135.889296 
L 300.797821 112.438868 
L 305.818103 99.364959 
L 310.121202 88.770057 
L 313.707118 80.489346 
L 317.293034 72.791454 
L 320.161767 67.099205 
L 323.0305 61.854118 
L 325.899232 57.081501 
L 328.767965 52.801726 
L 330.919515 49.924737 
L 333.071064 47.338296 
L 335.222614 45.045398 
L 337.374163 43.047459 
L 339.525713 41.344345 
L 341.677263 39.934414 
L 343.828812 38.814568 
L 345.980362 37.980319 
L 348.131911 37.425852 
L 350.283461 37.144113 
L 352.43501 37.126888 
L 354.58656 37.364898 
L 356.738109 37.847896 
L 358.889659 38.564764 
L 361.041209 39.503623 
L 363.192758 40.651934 
L 366.061491 42.486136 
L 368.930224 44.637152 
L 371.798956 47.071796 
L 375.384872 50.462549 
L 378.970788 54.177703 
L 383.273887 58.972396 
L 389.011353 65.758681 
L 409.809665 90.824434 
L 414.829947 96.367217 
L 419.85023 101.553235 
L 424.153329 105.681518 
L 428.456428 109.499255 
L 432.759527 112.998153 
L 437.062626 116.177275 
L 441.365725 119.041926 
L 445.668824 121.602539 
L 449.971923 123.873592 
L 454.275022 125.872587 
L 458.578122 127.619121 
L 462.881221 129.134054 
L 467.18432 130.43879 
L 472.204602 131.723776 
L 477.224884 132.78461 
L 482.96235 133.762324 
L 489.416998 134.613673 
L 496.58883 135.313331 
L 504.477845 135.854717 
L 506.629395 135.969604 
L 506.629395 135.969604 
" clip-path="url(#p64c4d85902)" style="fill: none; stroke: #3a6ea5; stroke-width: 2.6; stroke-linecap: square"/>
   </g>
   <g id="line2d_30">
    <path d="M 77.036668 137.243088 
L 88.511599 137.61917 
L 97.117797 138.100365 
L 104.289629 138.696185 
L 110.744277 139.437604 
L 116.481743 140.305146 
L 121.502025 141.26118 
L 126.522307 142.435297 
L 131.54259 143.862852 
L 135.845689 145.316311 
L 140.148788 147.007114 
L 144.451887 148.958917 
L 148.754986 151.194395 
L 152.340902 153.289074 
L 155.926818 155.605797 
L 159.512734 158.153272 
L 163.09865 160.937879 
L 166.684566 163.963173 
L 170.987665 167.91126 
L 175.290764 172.19897 
L 179.593863 176.810024 
L 184.614145 182.562126 
L 189.634428 188.655863 
L 196.089076 196.854646 
L 211.867106 217.080468 
L 216.170205 222.173724 
L 219.756121 226.120641 
L 223.342037 229.721325 
L 226.21077 232.304167 
L 229.079503 234.582559 
L 231.948235 236.520403 
L 234.099785 237.729208 
L 236.251334 238.712576 
L 238.402884 239.456963 
L 240.554434 239.94958 
L 242.705983 240.178509 
L 244.857533 240.132816 
L 247.009082 239.802665 
L 249.160632 239.179424 
L 251.312181 238.255765 
L 253.463731 237.025758 
L 255.61528 235.484956 
L 257.76683 233.630468 
L 259.91838 231.461029 
L 262.069929 228.97705 
L 264.221479 226.180658 
L 266.373028 223.07573 
L 269.241761 218.465876 
L 272.110494 213.335969 
L 274.979226 207.709741 
L 277.847959 201.616275 
L 281.433875 193.394976 
L 285.019791 184.574738 
L 289.32289 173.324235 
L 294.343172 159.495244 
L 301.515004 138.986843 
L 310.838386 112.360874 
L 315.858668 98.6733 
L 320.161767 87.589834 
L 323.747683 78.936732 
L 327.333599 70.903731 
L 330.202332 64.973172 
L 333.071064 59.518144 
L 335.939797 54.565239 
L 338.80853 50.135666 
L 340.960079 47.166588 
L 343.111629 44.50544 
L 345.263178 42.155091 
L 347.414728 40.116697 
L 349.566278 38.389748 
L 351.717827 36.972111 
L 353.869377 35.860093 
L 356.020926 35.048511 
L 358.172476 34.530777 
L 360.324025 34.298982 
L 362.475575 34.343995 
L 364.627124 34.655567 
L 366.778674 35.222436 
L 368.930224 36.032441 
L 371.081773 37.072635 
L 373.233323 38.329404 
L 376.102055 40.317435 
L 378.970788 42.630509 
L 381.839521 45.232983 
L 385.425437 48.838069 
L 389.011353 52.768606 
L 393.314452 57.817673 
L 399.051917 64.926719 
L 416.981497 87.480092 
L 422.001779 93.350128 
L 427.022061 98.864426 
L 431.325161 103.268154 
L 435.62826 107.351101 
L 439.931359 111.101501 
L 444.234458 114.515867 
L 448.537557 117.597793 
L 452.840656 120.356746 
L 457.143755 122.806871 
L 461.446854 124.965869 
L 465.749953 126.853954 
L 470.053052 128.49293 
L 474.356152 129.905378 
L 479.376434 131.297157 
L 484.396716 132.446599 
L 490.134182 133.506217 
L 495.871647 134.33873 
L 502.326296 135.05472 
L 506.629395 135.42642 
L 506.629395 135.42642 
" clip-path="url(#p64c4d85902)" style="fill: none; stroke-dasharray: 7.4,3.2; stroke-dashoffset: 0; stroke: #c0392b; stroke-width: 2"/>
   </g>
   <g id="line2d_31">
    <path d="M 77.036668 138.329455 
L 84.208499 138.993708 
L 90.663148 139.807698 
L 96.400614 140.748318 
L 101.420896 141.77441 
L 106.441178 143.023503 
L 110.744277 144.297547 
L 115.047376 145.782977 
L 119.350475 147.502504 
L 123.653575 149.478532 
L 127.956674 151.732429 
L 132.259773 154.283683 
L 135.845689 156.648988 
L 139.431605 159.240008 
L 143.734704 162.654374 
L 148.037803 166.404774 
L 152.340902 170.487721 
L 156.644001 174.891449 
L 160.9471 179.594786 
L 165.967382 185.417942 
L 171.704848 192.42897 
L 180.311046 203.352209 
L 188.917244 214.193156 
L 193.937527 220.168225 
L 198.240626 224.917806 
L 201.826542 228.522892 
L 204.695274 231.125366 
L 207.564007 233.43844 
L 210.43274 235.426471 
L 212.584289 236.68324 
L 214.735839 237.723434 
L 216.887389 238.533439 
L 219.038938 239.100308 
L 221.190488 239.41188 
L 223.342037 239.456893 
L 225.493587 239.225098 
L 227.645136 238.707364 
L 229.796686 237.895782 
L 231.948235 236.783764 
L 234.099785 235.366127 
L 236.251334 233.639178 
L 238.402884 231.600784 
L 240.554434 229.250435 
L 242.705983 226.589287 
L 244.857533 223.620209 
L 247.009082 220.3478 
L 249.877815 215.523953 
L 252.746548 210.192171 
L 255.61528 204.377713 
L 258.484013 198.111096 
L 262.069929 189.696558 
L 265.655845 180.711003 
L 269.958944 169.301737 
L 274.979226 155.34553 
L 284.302608 128.567552 
L 291.47444 108.257828 
L 296.494722 94.724614 
L 300.797821 83.82182 
L 304.383737 75.351047 
L 307.969653 67.526948 
L 310.838386 61.780979 
L 313.707118 56.524554 
L 316.575851 51.782762 
L 319.444584 47.575217 
L 321.596133 44.778825 
L 323.747683 42.294846 
L 325.899232 40.125407 
L 328.050782 38.270919 
L 330.202332 36.730117 
L 332.353881 35.50011 
L 334.505431 34.576451 
L 336.65698 33.95321 
L 338.80853 33.623059 
L 340.960079 33.577366 
L 343.111629 33.806295 
L 345.263178 34.298912 
L 347.414728 35.043299 
L 349.566278 36.026667 
L 351.717827 37.235472 
L 353.869377 38.655539 
L 356.738109 40.852143 
L 359.606842 43.3623 
L 362.475575 46.149384 
L 366.061491 49.966425 
L 370.36459 54.941086 
L 375.384872 61.13652 
L 383.273887 71.313319 
L 393.314452 84.206208 
L 399.051917 91.193749 
L 404.0722 96.945851 
L 408.375299 101.556905 
L 412.678398 105.844615 
L 416.981497 109.792702 
L 421.284596 113.394103 
L 424.870512 116.130902 
L 428.456428 118.631634 
L 432.042344 120.903186 
L 436.345443 123.339492 
L 440.648542 125.477988 
L 444.951641 127.340206 
L 449.25474 128.949241 
L 453.557839 130.328898 
L 458.578122 131.680314 
L 463.598404 132.788613 
L 469.335869 133.801934 
L 475.073335 134.590381 
L 481.527983 135.260813 
L 489.416998 135.840265 
L 498.74038 136.280813 
L 506.629395 136.512787 
L 506.629395 136.512787 
" clip-path="url(#p64c4d85902)" style="fill: none; stroke-dasharray: 7.4,3.2; stroke-dashoffset: 0; stroke: #2f6d78; stroke-width: 2"/>
   </g>
   <g id="line2d_32">
    <path d="M 55.557031 136.877937 
L 528.109031 136.877937 
" clip-path="url(#p64c4d85902)" style="fill: none; stroke: #bbbbbb; stroke-width: 0.7; stroke-linecap: square"/>
   </g>
   <g id="patch_3">
    <path d="M 55.557031 250.525937 
L 55.557031 23.229938 
" style="fill: none; stroke: #000000; stroke-width: 0.8; stroke-linejoin: miter; stroke-linecap: square"/>
   </g>
   <g id="patch_4">
    <path d="M 528.109031 250.525937 
L 528.109031 23.229938 
" style="fill: none; stroke: #000000; stroke-width: 0.8; stroke-linejoin: miter; stroke-linecap: square"/>
   </g>
   <g id="patch_5">
    <path d="M 55.557031 250.525937 
L 528.109031 250.525937 
" style="fill: none; stroke: #000000; stroke-width: 0.8; stroke-linejoin: miter; stroke-linecap: square"/>
   </g>
   <g id="patch_6">
    <path d="M 55.557031 23.229938 
L 528.109031 23.229938 
" style="fill: none; stroke: #000000; stroke-width: 0.8; stroke-linejoin: miter; stroke-linecap: square"/>
   </g>
   <g id="text_17">
    <!-- deviation $\propto f_{\rm NL}\,\sigma_0$ -->
    <g style="fill: #c0392b" transform="translate(417.13091 107.267582)">
     <text>
      <tspan style="font: 9.5px 'DejaVu Sans'" x="0 6.030273 11.875 17.49707 20.136475 25.958008 29.682861 32.322266 38.134521 44.155518 49.026123" y="-0.40625">deviation ∝</tspan>
      <tspan style="font: oblique 9.5px 'DejaVu Sans'" x="57.66333 71.503058" y="-0.40625">fσ</tspan>
      <tspan style="font: 6.65px 'DejaVu Sans'" x="61.007812 65.982324 77.524054" y="1.234375">NL0</tspan>
     </text>
    </g>
   </g>
   <g id="text_18">
    <text style="font: 13.2px 'DejaVu Sans', 'Bitstream Vera Sans', 'Computer Modern Sans Serif', 'Lucida Grande', 'Verdana', 'Geneva', 'Lucid', 'Arial', 'Helvetica', 'Avant Garde', sans-serif; text-anchor: middle" x="291.833031" y="17.229938" transform="rotate(-0 291.833031 17.229938)">Non-Gaussianity tilts the exact Gaussian shape — a model-independent flag</text>
   </g>
   <g id="legend_1">
    <g id="patch_7">
     <path d="M 61.857031 70.10025 
L 193.977031 70.10025 
Q 195.777031 70.10025 195.777031 68.30025 
L 195.777031 29.529938 
Q 195.777031 27.729938 193.977031 27.729938 
L 61.857031 27.729938 
Q 60.057031 27.729938 60.057031 29.529938 
L 60.057031 68.30025 
Q 60.057031 70.10025 61.857031 70.10025 
z
" style="fill: #ffffff; opacity: 0.8; stroke: #cccccc; stroke-linejoin: miter"/>
    </g>
    <g id="line2d_33">
     <path d="M 63.657031 35.018531 
L 72.657031 35.018531 
L 81.657031 35.018531 
" style="fill: none; stroke: #3a6ea5; stroke-width: 2.6; stroke-linecap: square"/>
    </g>
    <g id="text_19">
     <!-- Gaussian ($f_{\rm NL}=0$) -->
     <g transform="translate(88.857031 38.168531)">
      <text>
       <tspan style="font: 9px 'DejaVu Sans'" x="0 6.974121 12.489258 18.193359 22.882324 27.571289 30.071777 35.586914 41.291016 44.151855 61.053662 70.348096 76.07417" y="-0.15625">Gaussian (=0)</tspan>
       <tspan style="font: oblique 9px 'DejaVu Sans'" x="47.663086" y="-0.15625">f</tspan>
       <tspan style="font: 6.3px 'DejaVu Sans'" x="50.831543 55.544238" y="1.3203125">NL</tspan>
      </text>
     </g>
    </g>
    <g id="line2d_34">
     <path d="M 63.657031 48.23025 
L 72.657031 48.23025 
L 81.657031 48.23025 
" style="fill: none; stroke-dasharray: 7.4,3.2; stroke-dashoffset: 0; stroke: #c0392b; stroke-width: 2"/>
    </g>
    <g id="text_20">
     <!-- $f_{\rm NL}&gt;0$ (positive skew) -->
     <g transform="translate(88.857031 51.38025)">
      <text>
       <tspan style="font: oblique 9px 'DejaVu Sans'" x="0" y="-0.15625">f</tspan>
       <tspan style="font: 6.3px 'DejaVu Sans'" x="3.168457 7.881152" y="1.3203125">NL</tspan>
       <tspan style="font: 9px 'DejaVu Sans'" x="13.390576 22.68501 28.411084 31.271924 34.783154 40.496045 46.002393 50.691357 53.191846 56.720654 59.221143 64.547314 70.084424 72.945264 77.634229 82.846143 88.383252 95.744092" y="-0.15625">&gt;0 (positive skew)</tspan>
      </text>
     </g>
    </g>
    <g id="line2d_35">
     <path d="M 63.657031 61.46025 
L 72.657031 61.46025 
L 81.657031 61.46025 
" style="fill: none; stroke-dasharray: 7.4,3.2; stroke-dashoffset: 0; stroke: #2f6d78; stroke-width: 2"/>
    </g>
    <g id="text_21">
     <!-- $f_{\rm NL}&lt;0$ (negative skew) -->
     <g transform="translate(88.857031 64.61025)">
      <text>
       <tspan style="font: oblique 9px 'DejaVu Sans'" x="0" y="-0.15625">f</tspan>
       <tspan style="font: 6.3px 'DejaVu Sans'" x="3.168457 7.881152" y="1.3203125">NL</tspan>
       <tspan style="font: 9px 'DejaVu Sans'" x="13.390576 22.68501 28.411084 31.271924 34.783154 40.487256 46.024365 51.737256 57.252393 60.781201 63.281689 68.607861 74.144971 77.005811 81.694775 86.906689 92.443799 99.804639" y="-0.15625">&lt;0 (negative skew)</tspan>
      </text>
     </g>
    </g>
   </g>
  </g>
 </g>
 <defs>
  <clipPath id="p64c4d85902">
   <rect x="55.557031" y="23.229938" width="472.552" height="227.296"/>
  </clipPath>
 </defs>
</svg>
