<?xml version="1.0" encoding="utf-8" standalone="no"?>
<!DOCTYPE svg PUBLIC "-//W3C//DTD SVG 1.1//EN"
  "http://www.w3.org/Graphics/SVG/1.1/DTD/svg11.dtd">
<svg xmlns:xlink="http://www.w3.org/1999/xlink" width="534.901094pt" height="288.483875pt" viewBox="0 0 534.901094 288.483875" xmlns="http://www.w3.org/2000/svg" version="1.1">
 <metadata>
  <rdf:RDF xmlns:dc="http://purl.org/dc/elements/1.1/" xmlns:cc="http://creativecommons.org/ns#" xmlns:rdf="http://www.w3.org/1999/02/22-rdf-syntax-ns#">
   <cc:Work>
    <dc:type rdf:resource="http://purl.org/dc/dcmitype/StillImage"/>
    <dc:date>2026-06-29T19:10:26.004815</dc:date>
    <dc:format>image/svg+xml</dc:format>
    <dc:creator>
     <cc:Agent>
      <dc:title>Matplotlib v3.9.4, https://matplotlib.org/</dc:title>
     </cc:Agent>
    </dc:creator>
   </cc:Work>
  </rdf:RDF>
 </metadata>
 <defs>
  <style type="text/css">*{stroke-linejoin: round; stroke-linecap: butt}</style>
 </defs>
 <g id="figure_1">
  <g id="patch_1">
   <path d="M 0 288.483875 
L 534.901094 288.483875 
L 534.901094 0 
L 0 0 
z
" style="fill: #ffffff"/>
  </g>
  <g id="axes_1">
   <g id="patch_2">
    <path d="M 55.581094 248.992 
L 527.701094 248.992 
L 527.701094 26.664 
L 55.581094 26.664 
z
" style="fill: #ffffff"/>
   </g>
   <g id="PolyCollection_1">
    <defs>
     <path id="mbb98f9b3e3" d="M 232.527571 -189.347896 
L 232.527571 -187.926891 
L 233.244099 -185.860497 
L 233.960626 -183.771147 
L 234.677154 -181.659786 
L 235.393681 -179.527385 
L 236.110209 -177.374943 
L 236.826736 -175.203482 
L 237.543264 -173.014052 
L 238.259792 -170.807726 
L 238.976319 -168.585604 
L 239.692847 -166.348804 
L 240.409374 -164.098473 
L 241.125902 -161.835774 
L 241.842429 -159.561896 
L 242.558957 -157.278044 
L 243.275484 -154.985446 
L 243.992012 -152.685347 
L 244.708539 -150.379009 
L 245.425067 -148.067711 
L 246.141595 -145.752749 
L 246.858122 -143.435433 
L 247.57465 -141.117086 
L 248.291177 -138.799045 
L 249.007705 -136.482657 
L 249.724232 -134.169283 
L 250.44076 -131.860289 
L 251.157287 -129.557054 
L 251.873815 -127.26096 
L 252.590342 -124.973399 
L 253.30687 -122.695766 
L 254.023398 -120.429458 
L 254.739925 -118.17588 
L 255.456453 -115.936432 
L 256.17298 -113.71252 
L 256.889508 -111.505545 
L 257.606035 -109.316908 
L 258.322563 -107.148005 
L 259.03909 -105.000228 
L 259.755618 -102.874964 
L 260.472146 -100.773591 
L 261.188673 -98.697481 
L 261.905201 -96.647994 
L 262.621728 -94.62648 
L 263.338256 -92.634276 
L 264.054783 -90.672708 
L 264.771311 -88.743085 
L 265.487838 -86.846701 
L 266.204366 -84.984834 
L 266.920893 -83.158741 
L 267.637421 -81.369663 
L 268.353949 -79.618817 
L 269.070476 -77.907401 
L 269.787004 -76.236589 
L 270.503531 -74.607531 
L 271.220059 -73.021351 
L 271.936586 -71.479148 
L 272.653114 -69.981994 
L 273.369641 -68.530931 
L 274.086169 -67.126972 
L 274.802696 -65.771102 
L 275.519224 -64.464272 
L 276.235752 -63.207401 
L 276.952279 -62.001377 
L 277.668807 -60.847052 
L 278.385334 -59.745242 
L 279.101862 -58.696731 
L 279.818389 -57.702264 
L 280.534917 -56.762549 
L 281.251444 -55.878256 
L 281.967972 -55.050017 
L 282.684499 -54.278426 
L 283.401027 -53.564033 
L 284.117555 -52.907353 
L 284.834082 -52.308857 
L 285.55061 -51.768974 
L 286.267137 -51.288094 
L 286.983665 -50.866562 
L 287.700192 -50.504683 
L 288.41672 -50.202717 
L 289.133247 -49.960882 
L 289.849775 -49.779353 
L 290.566302 -49.658261 
L 291.28283 -49.597693 
L 291.999358 -49.597693 
L 292.715885 -49.658261 
L 293.432413 -49.779353 
L 294.14894 -49.960882 
L 294.865468 -50.202717 
L 295.581995 -50.504683 
L 296.298523 -50.866562 
L 297.01505 -51.288094 
L 297.731578 -51.768974 
L 298.448105 -52.308857 
L 299.164633 -52.907353 
L 299.881161 -53.564033 
L 300.597688 -54.278426 
L 301.314216 -55.050017 
L 302.030743 -55.878256 
L 302.747271 -56.762549 
L 303.463798 -57.702264 
L 304.180326 -58.696731 
L 304.896853 -59.745242 
L 305.613381 -60.847052 
L 306.329908 -62.001377 
L 307.046436 -63.207401 
L 307.762964 -64.464272 
L 308.479491 -65.771102 
L 309.196019 -67.126972 
L 309.912546 -68.530931 
L 310.629074 -69.981994 
L 311.345601 -71.479148 
L 312.062129 -73.021351 
L 312.778656 -74.607531 
L 313.495184 -76.236589 
L 314.211711 -77.907401 
L 314.928239 -79.618817 
L 315.644767 -81.369663 
L 316.361294 -83.158741 
L 317.077822 -84.984834 
L 317.794349 -86.846701 
L 318.510877 -88.743085 
L 319.227404 -90.672708 
L 319.943932 -92.634276 
L 320.660459 -94.62648 
L 321.376987 -96.647994 
L 322.093514 -98.697481 
L 322.810042 -100.773591 
L 323.52657 -102.874964 
L 324.243097 -105.000228 
L 324.959625 -107.148005 
L 325.676152 -109.316908 
L 326.39268 -111.505545 
L 327.109207 -113.71252 
L 327.825735 -115.936432 
L 328.542262 -118.17588 
L 329.25879 -120.429458 
L 329.975317 -122.695766 
L 330.691845 -124.973399 
L 331.408373 -127.26096 
L 332.1249 -129.557054 
L 332.841428 -131.860289 
L 333.557955 -134.169283 
L 334.274483 -136.482657 
L 334.99101 -138.799045 
L 335.707538 -141.117086 
L 336.424065 -143.435433 
L 337.140593 -145.752749 
L 337.85712 -148.067711 
L 338.573648 -150.379009 
L 339.290176 -152.685347 
L 340.006703 -154.985446 
L 340.723231 -157.278044 
L 341.439758 -159.561896 
L 342.156286 -161.835774 
L 342.872813 -164.098473 
L 343.589341 -166.348804 
L 344.305868 -168.585604 
L 345.022396 -170.807726 
L 345.738923 -173.014052 
L 346.455451 -175.203482 
L 347.171979 -177.374943 
L 347.888506 -179.527385 
L 348.605034 -181.659786 
L 349.321561 -183.771147 
L 350.038089 -185.860497 
L 350.754616 -187.926891 
L 350.754616 -189.347896 
L 350.754616 -189.347896 
L 350.038089 -189.347896 
L 349.321561 -189.347896 
L 348.605034 -189.347896 
L 347.888506 -189.347896 
L 347.171979 -189.347896 
L 346.455451 -189.347896 
L 345.738923 -189.347896 
L 345.022396 -189.347896 
L 344.305868 -189.347896 
L 343.589341 -189.347896 
L 342.872813 -189.347896 
L 342.156286 -189.347896 
L 341.439758 -189.347896 
L 340.723231 -189.347896 
L 340.006703 -189.347896 
L 339.290176 -189.347896 
L 338.573648 -189.347896 
L 337.85712 -189.347896 
L 337.140593 -189.347896 
L 336.424065 -189.347896 
L 335.707538 -189.347896 
L 334.99101 -189.347896 
L 334.274483 -189.347896 
L 333.557955 -189.347896 
L 332.841428 -189.347896 
L 332.1249 -189.347896 
L 331.408373 -189.347896 
L 330.691845 -189.347896 
L 329.975317 -189.347896 
L 329.25879 -189.347896 
L 328.542262 -189.347896 
L 327.825735 -189.347896 
L 327.109207 -189.347896 
L 326.39268 -189.347896 
L 325.676152 -189.347896 
L 324.959625 -189.347896 
L 324.243097 -189.347896 
L 323.52657 -189.347896 
L 322.810042 -189.347896 
L 322.093514 -189.347896 
L 321.376987 -189.347896 
L 320.660459 -189.347896 
L 319.943932 -189.347896 
L 319.227404 -189.347896 
L 318.510877 -189.347896 
L 317.794349 -189.347896 
L 317.077822 -189.347896 
L 316.361294 -189.347896 
L 315.644767 -189.347896 
L 314.928239 -189.347896 
L 314.211711 -189.347896 
L 313.495184 -189.347896 
L 312.778656 -189.347896 
L 312.062129 -189.347896 
L 311.345601 -189.347896 
L 310.629074 -189.347896 
L 309.912546 -189.347896 
L 309.196019 -189.347896 
L 308.479491 -189.347896 
L 307.762964 -189.347896 
L 307.046436 -189.347896 
L 306.329908 -189.347896 
L 305.613381 -189.347896 
L 304.896853 -189.347896 
L 304.180326 -189.347896 
L 303.463798 -189.347896 
L 302.747271 -189.347896 
L 302.030743 -189.347896 
L 301.314216 -189.347896 
L 300.597688 -189.347896 
L 299.881161 -189.347896 
L 299.164633 -189.347896 
L 298.448105 -189.347896 
L 297.731578 -189.347896 
L 297.01505 -189.347896 
L 296.298523 -189.347896 
L 295.581995 -189.347896 
L 294.865468 -189.347896 
L 294.14894 -189.347896 
L 293.432413 -189.347896 
L 292.715885 -189.347896 
L 291.999358 -189.347896 
L 291.28283 -189.347896 
L 290.566302 -189.347896 
L 289.849775 -189.347896 
L 289.133247 -189.347896 
L 288.41672 -189.347896 
L 287.700192 -189.347896 
L 286.983665 -189.347896 
L 286.267137 -189.347896 
L 285.55061 -189.347896 
L 284.834082 -189.347896 
L 284.117555 -189.347896 
L 283.401027 -189.347896 
L 282.684499 -189.347896 
L 281.967972 -189.347896 
L 281.251444 -189.347896 
L 280.534917 -189.347896 
L 279.818389 -189.347896 
L 279.101862 -189.347896 
L 278.385334 -189.347896 
L 277.668807 -189.347896 
L 276.952279 -189.347896 
L 276.235752 -189.347896 
L 275.519224 -189.347896 
L 274.802696 -189.347896 
L 274.086169 -189.347896 
L 273.369641 -189.347896 
L 272.653114 -189.347896 
L 271.936586 -189.347896 
L 271.220059 -189.347896 
L 270.503531 -189.347896 
L 269.787004 -189.347896 
L 269.070476 -189.347896 
L 268.353949 -189.347896 
L 267.637421 -189.347896 
L 266.920893 -189.347896 
L 266.204366 -189.347896 
L 265.487838 -189.347896 
L 264.771311 -189.347896 
L 264.054783 -189.347896 
L 263.338256 -189.347896 
L 262.621728 -189.347896 
L 261.905201 -189.347896 
L 261.188673 -189.347896 
L 260.472146 -189.347896 
L 259.755618 -189.347896 
L 259.03909 -189.347896 
L 258.322563 -189.347896 
L 257.606035 -189.347896 
L 256.889508 -189.347896 
L 256.17298 -189.347896 
L 255.456453 -189.347896 
L 254.739925 -189.347896 
L 254.023398 -189.347896 
L 253.30687 -189.347896 
L 252.590342 -189.347896 
L 251.873815 -189.347896 
L 251.157287 -189.347896 
L 250.44076 -189.347896 
L 249.724232 -189.347896 
L 249.007705 -189.347896 
L 248.291177 -189.347896 
L 247.57465 -189.347896 
L 246.858122 -189.347896 
L 246.141595 -189.347896 
L 245.425067 -189.347896 
L 244.708539 -189.347896 
L 243.992012 -189.347896 
L 243.275484 -189.347896 
L 242.558957 -189.347896 
L 241.842429 -189.347896 
L 241.125902 -189.347896 
L 240.409374 -189.347896 
L 239.692847 -189.347896 
L 238.976319 -189.347896 
L 238.259792 -189.347896 
L 237.543264 -189.347896 
L 236.826736 -189.347896 
L 236.110209 -189.347896 
L 235.393681 -189.347896 
L 234.677154 -189.347896 
L 233.960626 -189.347896 
L 233.244099 -189.347896 
L 232.527571 -189.347896 
z
" style="stroke: #c0392b; stroke-opacity: 0.15"/>
    </defs>
    <g clip-path="url(#p54dfd7d384)">
     <use xlink:href="#mbb98f9b3e3" x="0" y="288.483875" style="fill: #c0392b; fill-opacity: 0.15; stroke: #c0392b; stroke-opacity: 0.15"/>
    </g>
   </g>
   <g id="PolyCollection_2">
    <defs>
     <path id="m0cfd71eaaf" d="M 351.471144 -189.347896 
L 351.471144 -189.969414 
L 352.187671 -191.987176 
L 352.904199 -193.979316 
L 353.620726 -195.945004 
L 354.337254 -197.883437 
L 355.053782 -199.793843 
L 355.770309 -201.675479 
L 356.486837 -203.527631 
L 357.203364 -205.349617 
L 357.919892 -207.140786 
L 358.636419 -208.900516 
L 359.352947 -210.628216 
L 360.069474 -212.323327 
L 360.786002 -213.985321 
L 361.502529 -215.613699 
L 362.219057 -217.207995 
L 362.935585 -218.767773 
L 363.652112 -220.292629 
L 364.36864 -221.782189 
L 365.085167 -223.236109 
L 365.801695 -224.654077 
L 366.518222 -226.03581 
L 367.23475 -227.381057 
L 367.951277 -228.689595 
L 368.667805 -229.961232 
L 369.384332 -231.195804 
L 370.10086 -232.393178 
L 370.817388 -233.553248 
L 371.533915 -234.675938 
L 372.250443 -235.761198 
L 372.96697 -236.809007 
L 373.683498 -237.81937 
L 374.400025 -238.792322 
L 375.116553 -239.72792 
L 375.83308 -240.626249 
L 376.549608 -241.487419 
L 377.266135 -242.311565 
L 377.982663 -243.098845 
L 378.699191 -243.849443 
L 379.415718 -244.563563 
L 380.132246 -245.241435 
L 380.848773 -245.883309 
L 381.565301 -246.489455 
L 382.281828 -247.060167 
L 382.998356 -247.595757 
L 383.714883 -248.096556 
L 384.431411 -248.562915 
L 385.147938 -248.995204 
L 385.864466 -249.393808 
L 386.580994 -249.759132 
L 387.297521 -250.091594 
L 388.014049 -250.39163 
L 388.730576 -250.65969 
L 389.447104 -250.896238 
L 390.163631 -251.101752 
L 390.880159 -251.276722 
L 391.596686 -251.421651 
L 392.313214 -251.537055 
L 393.029741 -251.623457 
L 393.746269 -251.681393 
L 394.462797 -251.711408 
L 395.179324 -251.714057 
L 395.895852 -251.6899 
L 396.612379 -251.639508 
L 397.328907 -251.563456 
L 398.045434 -251.462329 
L 398.761962 -251.336713 
L 399.478489 -251.187202 
L 400.195017 -251.014394 
L 400.911545 -250.818891 
L 401.628072 -250.601297 
L 402.3446 -250.362219 
L 403.061127 -250.102267 
L 403.777655 -249.822052 
L 404.494182 -249.522185 
L 405.21071 -249.203279 
L 405.927237 -248.865945 
L 406.643765 -248.510795 
L 407.360292 -248.138439 
L 408.07682 -247.749484 
L 408.793348 -247.344537 
L 409.509875 -246.924202 
L 410.226403 -246.489079 
L 410.94293 -246.039764 
L 411.659458 -245.576852 
L 412.375985 -245.100929 
L 413.092513 -244.61258 
L 413.80904 -244.112383 
L 414.525568 -243.600911 
L 415.242095 -243.078732 
L 415.958623 -242.546406 
L 416.675151 -242.004488 
L 417.391678 -241.453524 
L 418.108206 -240.894056 
L 418.824733 -240.326615 
L 419.541261 -239.751728 
L 420.257788 -239.16991 
L 420.974316 -238.581671 
L 421.690843 -237.987511 
L 422.407371 -237.387922 
L 423.123898 -236.783387 
L 423.840426 -236.174379 
L 424.556954 -235.561364 
L 425.273481 -234.944796 
L 425.990009 -234.325122 
L 426.706536 -233.702777 
L 427.423064 -233.078187 
L 428.139591 -232.45177 
L 428.856119 -231.823931 
L 429.572646 -231.195068 
L 430.289174 -230.565566 
L 431.005701 -229.935803 
L 431.722229 -229.306144 
L 432.438757 -228.676944 
L 433.155284 -228.048551 
L 433.871812 -227.421298 
L 434.588339 -226.795512 
L 435.304867 -226.171507 
L 436.021394 -225.549588 
L 436.737922 -224.93005 
L 437.454449 -224.313176 
L 438.170977 -223.699241 
L 438.887504 -223.08851 
L 439.604032 -222.481236 
L 440.32056 -221.877664 
L 441.037087 -221.278029 
L 441.753615 -220.682555 
L 442.470142 -220.091457 
L 443.18667 -219.504942 
L 443.903197 -218.923205 
L 444.619725 -218.346433 
L 445.336252 -217.774805 
L 446.05278 -217.208488 
L 446.769307 -216.647643 
L 447.485835 -216.09242 
L 448.202363 -215.542963 
L 448.91889 -214.999404 
L 449.635418 -214.461869 
L 450.351945 -213.930475 
L 451.068473 -213.405333 
L 451.785 -212.886542 
L 452.501528 -212.374197 
L 453.218055 -211.868384 
L 453.934583 -211.369181 
L 454.65111 -210.87666 
L 455.367638 -210.390885 
L 456.084166 -209.911914 
L 456.800693 -209.439798 
L 457.517221 -208.974581 
L 458.233748 -208.516301 
L 458.950276 -208.064989 
L 459.666803 -207.620672 
L 460.383331 -207.183369 
L 461.099858 -206.753095 
L 461.816386 -206.329858 
L 462.532913 -205.913663 
L 463.249441 -205.504507 
L 463.965969 -205.102384 
L 464.682496 -204.707283 
L 465.399024 -204.319188 
L 466.115551 -203.938078 
L 466.832079 -203.563929 
L 467.548606 -203.196713 
L 468.265134 -202.836396 
L 468.981661 -202.482942 
L 469.698189 -202.136312 
L 470.414716 -201.796462 
L 471.131244 -201.463345 
L 471.847772 -201.136911 
L 472.564299 -200.817108 
L 473.280827 -200.503881 
L 473.997354 -200.19717 
L 474.713882 -199.896915 
L 475.430409 -199.603053 
L 476.146937 -199.315519 
L 476.863464 -199.034244 
L 477.579992 -198.75916 
L 478.296519 -198.490195 
L 479.013047 -198.227277 
L 479.729575 -197.970329 
L 480.446102 -197.719277 
L 481.16263 -197.474043 
L 481.879157 -197.234548 
L 482.595685 -197.000713 
L 483.312212 -196.772456 
L 484.02874 -196.549696 
L 484.745267 -196.332351 
L 485.461795 -196.120336 
L 486.178322 -195.913569 
L 486.89485 -195.711965 
L 487.611378 -195.515439 
L 488.327905 -195.323907 
L 489.044433 -195.137283 
L 489.76096 -194.955481 
L 490.477488 -194.778417 
L 491.194015 -194.606003 
L 491.910543 -194.438156 
L 492.62707 -194.27479 
L 493.343598 -194.115819 
L 494.060125 -193.961159 
L 494.776653 -193.810725 
L 495.493181 -193.664433 
L 496.209708 -193.5222 
L 496.926236 -193.383942 
L 497.642763 -193.249576 
L 498.359291 -193.119021 
L 499.075818 -192.992195 
L 499.792346 -192.869018 
L 500.508873 -192.749408 
L 501.225401 -192.633288 
L 501.941928 -192.520579 
L 502.658456 -192.411203 
L 503.374984 -192.305083 
L 504.091511 -192.202144 
L 504.808039 -192.10231 
L 505.524566 -192.005509 
L 506.241094 -191.911665 
L 506.241094 -189.347896 
L 506.241094 -189.347896 
L 505.524566 -189.347896 
L 504.808039 -189.347896 
L 504.091511 -189.347896 
L 503.374984 -189.347896 
L 502.658456 -189.347896 
L 501.941928 -189.347896 
L 501.225401 -189.347896 
L 500.508873 -189.347896 
L 499.792346 -189.347896 
L 499.075818 -189.347896 
L 498.359291 -189.347896 
L 497.642763 -189.347896 
L 496.926236 -189.347896 
L 496.209708 -189.347896 
L 495.493181 -189.347896 
L 494.776653 -189.347896 
L 494.060125 -189.347896 
L 493.343598 -189.347896 
L 492.62707 -189.347896 
L 491.910543 -189.347896 
L 491.194015 -189.347896 
L 490.477488 -189.347896 
L 489.76096 -189.347896 
L 489.044433 -189.347896 
L 488.327905 -189.347896 
L 487.611378 -189.347896 
L 486.89485 -189.347896 
L 486.178322 -189.347896 
L 485.461795 -189.347896 
L 484.745267 -189.347896 
L 484.02874 -189.347896 
L 483.312212 -189.347896 
L 482.595685 -189.347896 
L 481.879157 -189.347896 
L 481.16263 -189.347896 
L 480.446102 -189.347896 
L 479.729575 -189.347896 
L 479.013047 -189.347896 
L 478.296519 -189.347896 
L 477.579992 -189.347896 
L 476.863464 -189.347896 
L 476.146937 -189.347896 
L 475.430409 -189.347896 
L 474.713882 -189.347896 
L 473.997354 -189.347896 
L 473.280827 -189.347896 
L 472.564299 -189.347896 
L 471.847772 -189.347896 
L 471.131244 -189.347896 
L 470.414716 -189.347896 
L 469.698189 -189.347896 
L 468.981661 -189.347896 
L 468.265134 -189.347896 
L 467.548606 -189.347896 
L 466.832079 -189.347896 
L 466.115551 -189.347896 
L 465.399024 -189.347896 
L 464.682496 -189.347896 
L 463.965969 -189.347896 
L 463.249441 -189.347896 
L 462.532913 -189.347896 
L 461.816386 -189.347896 
L 461.099858 -189.347896 
L 460.383331 -189.347896 
L 459.666803 -189.347896 
L 458.950276 -189.347896 
L 458.233748 -189.347896 
L 457.517221 -189.347896 
L 456.800693 -189.347896 
L 456.084166 -189.347896 
L 455.367638 -189.347896 
L 454.65111 -189.347896 
L 453.934583 -189.347896 
L 453.218055 -189.347896 
L 452.501528 -189.347896 
L 451.785 -189.347896 
L 451.068473 -189.347896 
L 450.351945 -189.347896 
L 449.635418 -189.347896 
L 448.91889 -189.347896 
L 448.202363 -189.347896 
L 447.485835 -189.347896 
L 446.769307 -189.347896 
L 446.05278 -189.347896 
L 445.336252 -189.347896 
L 444.619725 -189.347896 
L 443.903197 -189.347896 
L 443.18667 -189.347896 
L 442.470142 -189.347896 
L 441.753615 -189.347896 
L 441.037087 -189.347896 
L 440.32056 -189.347896 
L 439.604032 -189.347896 
L 438.887504 -189.347896 
L 438.170977 -189.347896 
L 437.454449 -189.347896 
L 436.737922 -189.347896 
L 436.021394 -189.347896 
L 435.304867 -189.347896 
L 434.588339 -189.347896 
L 433.871812 -189.347896 
L 433.155284 -189.347896 
L 432.438757 -189.347896 
L 431.722229 -189.347896 
L 431.005701 -189.347896 
L 430.289174 -189.347896 
L 429.572646 -189.347896 
L 428.856119 -189.347896 
L 428.139591 -189.347896 
L 427.423064 -189.347896 
L 426.706536 -189.347896 
L 425.990009 -189.347896 
L 425.273481 -189.347896 
L 424.556954 -189.347896 
L 423.840426 -189.347896 
L 423.123898 -189.347896 
L 422.407371 -189.347896 
L 421.690843 -189.347896 
L 420.974316 -189.347896 
L 420.257788 -189.347896 
L 419.541261 -189.347896 
L 418.824733 -189.347896 
L 418.108206 -189.347896 
L 417.391678 -189.347896 
L 416.675151 -189.347896 
L 415.958623 -189.347896 
L 415.242095 -189.347896 
L 414.525568 -189.347896 
L 413.80904 -189.347896 
L 413.092513 -189.347896 
L 412.375985 -189.347896 
L 411.659458 -189.347896 
L 410.94293 -189.347896 
L 410.226403 -189.347896 
L 409.509875 -189.347896 
L 408.793348 -189.347896 
L 408.07682 -189.347896 
L 407.360292 -189.347896 
L 406.643765 -189.347896 
L 405.927237 -189.347896 
L 405.21071 -189.347896 
L 404.494182 -189.347896 
L 403.777655 -189.347896 
L 403.061127 -189.347896 
L 402.3446 -189.347896 
L 401.628072 -189.347896 
L 400.911545 -189.347896 
L 400.195017 -189.347896 
L 399.478489 -189.347896 
L 398.761962 -189.347896 
L 398.045434 -189.347896 
L 397.328907 -189.347896 
L 396.612379 -189.347896 
L 395.895852 -189.347896 
L 395.179324 -189.347896 
L 394.462797 -189.347896 
L 393.746269 -189.347896 
L 393.029741 -189.347896 
L 392.313214 -189.347896 
L 391.596686 -189.347896 
L 390.880159 -189.347896 
L 390.163631 -189.347896 
L 389.447104 -189.347896 
L 388.730576 -189.347896 
L 388.014049 -189.347896 
L 387.297521 -189.347896 
L 386.580994 -189.347896 
L 385.864466 -189.347896 
L 385.147938 -189.347896 
L 384.431411 -189.347896 
L 383.714883 -189.347896 
L 382.998356 -189.347896 
L 382.281828 -189.347896 
L 381.565301 -189.347896 
L 380.848773 -189.347896 
L 380.132246 -189.347896 
L 379.415718 -189.347896 
L 378.699191 -189.347896 
L 377.982663 -189.347896 
L 377.266135 -189.347896 
L 376.549608 -189.347896 
L 375.83308 -189.347896 
L 375.116553 -189.347896 
L 374.400025 -189.347896 
L 373.683498 -189.347896 
L 372.96697 -189.347896 
L 372.250443 -189.347896 
L 371.533915 -189.347896 
L 370.817388 -189.347896 
L 370.10086 -189.347896 
L 369.384332 -189.347896 
L 368.667805 -189.347896 
L 367.951277 -189.347896 
L 367.23475 -189.347896 
L 366.518222 -189.347896 
L 365.801695 -189.347896 
L 365.085167 -189.347896 
L 364.36864 -189.347896 
L 363.652112 -189.347896 
L 362.935585 -189.347896 
L 362.219057 -189.347896 
L 361.502529 -189.347896 
L 360.786002 -189.347896 
L 360.069474 -189.347896 
L 359.352947 -189.347896 
L 358.636419 -189.347896 
L 357.919892 -189.347896 
L 357.203364 -189.347896 
L 356.486837 -189.347896 
L 355.770309 -189.347896 
L 355.053782 -189.347896 
L 354.337254 -189.347896 
L 353.620726 -189.347896 
L 352.904199 -189.347896 
L 352.187671 -189.347896 
L 351.471144 -189.347896 
z
" style="stroke: #2f6d78; stroke-opacity: 0.18"/>
    </defs>
    <g clip-path="url(#p54dfd7d384)">
     <use xlink:href="#m0cfd71eaaf" x="0" y="288.483875" style="fill: #2f6d78; fill-opacity: 0.18; stroke: #2f6d78; stroke-opacity: 0.18"/>
    </g>
   </g>
   <g id="PolyCollection_3">
    <defs>
     <path id="m75e0586935" d="M 77.041094 -189.347896 
L 77.041094 -191.911665 
L 77.757621 -192.005509 
L 78.474149 -192.10231 
L 79.190676 -192.202144 
L 79.907204 -192.305083 
L 80.623731 -192.411203 
L 81.340259 -192.520579 
L 82.056787 -192.633288 
L 82.773314 -192.749408 
L 83.489842 -192.869018 
L 84.206369 -192.992195 
L 84.922897 -193.119021 
L 85.639424 -193.249576 
L 86.355952 -193.383942 
L 87.072479 -193.5222 
L 87.789007 -193.664433 
L 88.505534 -193.810725 
L 89.222062 -193.961159 
L 89.93859 -194.115819 
L 90.655117 -194.27479 
L 91.371645 -194.438156 
L 92.088172 -194.606003 
L 92.8047 -194.778417 
L 93.521227 -194.955481 
L 94.237755 -195.137283 
L 94.954282 -195.323907 
L 95.67081 -195.515439 
L 96.387337 -195.711965 
L 97.103865 -195.913569 
L 97.820393 -196.120336 
L 98.53692 -196.332351 
L 99.253448 -196.549696 
L 99.969975 -196.772456 
L 100.686503 -197.000713 
L 101.40303 -197.234548 
L 102.119558 -197.474043 
L 102.836085 -197.719277 
L 103.552613 -197.970329 
L 104.26914 -198.227277 
L 104.985668 -198.490195 
L 105.702196 -198.75916 
L 106.418723 -199.034244 
L 107.135251 -199.315519 
L 107.851778 -199.603053 
L 108.568306 -199.896915 
L 109.284833 -200.19717 
L 110.001361 -200.503881 
L 110.717888 -200.817108 
L 111.434416 -201.136911 
L 112.150943 -201.463345 
L 112.867471 -201.796462 
L 113.583999 -202.136312 
L 114.300526 -202.482942 
L 115.017054 -202.836396 
L 115.733581 -203.196713 
L 116.450109 -203.563929 
L 117.166636 -203.938078 
L 117.883164 -204.319188 
L 118.599691 -204.707283 
L 119.316219 -205.102384 
L 120.032747 -205.504507 
L 120.749274 -205.913663 
L 121.465802 -206.329858 
L 122.182329 -206.753095 
L 122.898857 -207.183369 
L 123.615384 -207.620672 
L 124.331912 -208.064989 
L 125.048439 -208.516301 
L 125.764967 -208.974581 
L 126.481494 -209.439798 
L 127.198022 -209.911914 
L 127.91455 -210.390885 
L 128.631077 -210.87666 
L 129.347605 -211.369181 
L 130.064132 -211.868384 
L 130.78066 -212.374197 
L 131.497187 -212.886542 
L 132.213715 -213.405333 
L 132.930242 -213.930475 
L 133.64677 -214.461869 
L 134.363297 -214.999404 
L 135.079825 -215.542963 
L 135.796353 -216.09242 
L 136.51288 -216.647643 
L 137.229408 -217.208488 
L 137.945935 -217.774805 
L 138.662463 -218.346433 
L 139.37899 -218.923205 
L 140.095518 -219.504942 
L 140.812045 -220.091457 
L 141.528573 -220.682555 
L 142.2451 -221.278029 
L 142.961628 -221.877664 
L 143.678156 -222.481236 
L 144.394683 -223.08851 
L 145.111211 -223.699241 
L 145.827738 -224.313176 
L 146.544266 -224.93005 
L 147.260793 -225.549588 
L 147.977321 -226.171507 
L 148.693848 -226.795512 
L 149.410376 -227.421298 
L 150.126903 -228.048551 
L 150.843431 -228.676944 
L 151.559959 -229.306144 
L 152.276486 -229.935803 
L 152.993014 -230.565566 
L 153.709541 -231.195068 
L 154.426069 -231.823931 
L 155.142596 -232.45177 
L 155.859124 -233.078187 
L 156.575651 -233.702777 
L 157.292179 -234.325122 
L 158.008706 -234.944796 
L 158.725234 -235.561364 
L 159.441762 -236.174379 
L 160.158289 -236.783387 
L 160.874817 -237.387922 
L 161.591344 -237.987511 
L 162.307872 -238.581671 
L 163.024399 -239.16991 
L 163.740927 -239.751728 
L 164.457454 -240.326615 
L 165.173982 -240.894056 
L 165.890509 -241.453524 
L 166.607037 -242.004488 
L 167.323565 -242.546406 
L 168.040092 -243.078732 
L 168.75662 -243.600911 
L 169.473147 -244.112383 
L 170.189675 -244.61258 
L 170.906202 -245.100929 
L 171.62273 -245.576852 
L 172.339257 -246.039764 
L 173.055785 -246.489079 
L 173.772312 -246.924202 
L 174.48884 -247.344537 
L 175.205368 -247.749484 
L 175.921895 -248.138439 
L 176.638423 -248.510795 
L 177.35495 -248.865945 
L 178.071478 -249.203279 
L 178.788005 -249.522185 
L 179.504533 -249.822052 
L 180.22106 -250.102267 
L 180.937588 -250.362219 
L 181.654115 -250.601297 
L 182.370643 -250.818891 
L 183.087171 -251.014394 
L 183.803698 -251.187202 
L 184.520226 -251.336713 
L 185.236753 -251.462329 
L 185.953281 -251.563456 
L 186.669808 -251.639508 
L 187.386336 -251.6899 
L 188.102863 -251.714057 
L 188.819391 -251.711408 
L 189.535918 -251.681393 
L 190.252446 -251.623457 
L 190.968974 -251.537055 
L 191.685501 -251.421651 
L 192.402029 -251.276722 
L 193.118556 -251.101752 
L 193.835084 -250.896238 
L 194.551611 -250.65969 
L 195.268139 -250.39163 
L 195.984666 -250.091594 
L 196.701194 -249.759132 
L 197.417721 -249.393808 
L 198.134249 -248.995204 
L 198.850777 -248.562915 
L 199.567304 -248.096556 
L 200.283832 -247.595757 
L 201.000359 -247.060167 
L 201.716887 -246.489455 
L 202.433414 -245.883309 
L 203.149942 -245.241435 
L 203.866469 -244.563563 
L 204.582997 -243.849443 
L 205.299524 -243.098845 
L 206.016052 -242.311565 
L 206.73258 -241.487419 
L 207.449107 -240.626249 
L 208.165635 -239.72792 
L 208.882162 -238.792322 
L 209.59869 -237.81937 
L 210.315217 -236.809007 
L 211.031745 -235.761198 
L 211.748272 -234.675938 
L 212.4648 -233.553248 
L 213.181327 -232.393178 
L 213.897855 -231.195804 
L 214.614383 -229.961232 
L 215.33091 -228.689595 
L 216.047438 -227.381057 
L 216.763965 -226.03581 
L 217.480493 -224.654077 
L 218.19702 -223.236109 
L 218.913548 -221.782189 
L 219.630075 -220.292629 
L 220.346603 -218.767773 
L 221.06313 -217.207995 
L 221.779658 -215.613699 
L 222.496186 -213.985321 
L 223.212713 -212.323327 
L 223.929241 -210.628216 
L 224.645768 -208.900516 
L 225.362296 -207.140786 
L 226.078823 -205.349617 
L 226.795351 -203.527631 
L 227.511878 -201.675479 
L 228.228406 -199.793843 
L 228.944933 -197.883437 
L 229.661461 -195.945004 
L 230.377989 -193.979316 
L 231.094516 -191.987176 
L 231.811044 -189.969414 
L 231.811044 -189.347896 
L 231.811044 -189.347896 
L 231.094516 -189.347896 
L 230.377989 -189.347896 
L 229.661461 -189.347896 
L 228.944933 -189.347896 
L 228.228406 -189.347896 
L 227.511878 -189.347896 
L 226.795351 -189.347896 
L 226.078823 -189.347896 
L 225.362296 -189.347896 
L 224.645768 -189.347896 
L 223.929241 -189.347896 
L 223.212713 -189.347896 
L 222.496186 -189.347896 
L 221.779658 -189.347896 
L 221.06313 -189.347896 
L 220.346603 -189.347896 
L 219.630075 -189.347896 
L 218.913548 -189.347896 
L 218.19702 -189.347896 
L 217.480493 -189.347896 
L 216.763965 -189.347896 
L 216.047438 -189.347896 
L 215.33091 -189.347896 
L 214.614383 -189.347896 
L 213.897855 -189.347896 
L 213.181327 -189.347896 
L 212.4648 -189.347896 
L 211.748272 -189.347896 
L 211.031745 -189.347896 
L 210.315217 -189.347896 
L 209.59869 -189.347896 
L 208.882162 -189.347896 
L 208.165635 -189.347896 
L 207.449107 -189.347896 
L 206.73258 -189.347896 
L 206.016052 -189.347896 
L 205.299524 -189.347896 
L 204.582997 -189.347896 
L 203.866469 -189.347896 
L 203.149942 -189.347896 
L 202.433414 -189.347896 
L 201.716887 -189.347896 
L 201.000359 -189.347896 
L 200.283832 -189.347896 
L 199.567304 -189.347896 
L 198.850777 -189.347896 
L 198.134249 -189.347896 
L 197.417721 -189.347896 
L 196.701194 -189.347896 
L 195.984666 -189.347896 
L 195.268139 -189.347896 
L 194.551611 -189.347896 
L 193.835084 -189.347896 
L 193.118556 -189.347896 
L 192.402029 -189.347896 
L 191.685501 -189.347896 
L 190.968974 -189.347896 
L 190.252446 -189.347896 
L 189.535918 -189.347896 
L 188.819391 -189.347896 
L 188.102863 -189.347896 
L 187.386336 -189.347896 
L 186.669808 -189.347896 
L 185.953281 -189.347896 
L 185.236753 -189.347896 
L 184.520226 -189.347896 
L 183.803698 -189.347896 
L 183.087171 -189.347896 
L 182.370643 -189.347896 
L 181.654115 -189.347896 
L 180.937588 -189.347896 
L 180.22106 -189.347896 
L 179.504533 -189.347896 
L 178.788005 -189.347896 
L 178.071478 -189.347896 
L 177.35495 -189.347896 
L 176.638423 -189.347896 
L 175.921895 -189.347896 
L 175.205368 -189.347896 
L 174.48884 -189.347896 
L 173.772312 -189.347896 
L 173.055785 -189.347896 
L 172.339257 -189.347896 
L 171.62273 -189.347896 
L 170.906202 -189.347896 
L 170.189675 -189.347896 
L 169.473147 -189.347896 
L 168.75662 -189.347896 
L 168.040092 -189.347896 
L 167.323565 -189.347896 
L 166.607037 -189.347896 
L 165.890509 -189.347896 
L 165.173982 -189.347896 
L 164.457454 -189.347896 
L 163.740927 -189.347896 
L 163.024399 -189.347896 
L 162.307872 -189.347896 
L 161.591344 -189.347896 
L 160.874817 -189.347896 
L 160.158289 -189.347896 
L 159.441762 -189.347896 
L 158.725234 -189.347896 
L 158.008706 -189.347896 
L 157.292179 -189.347896 
L 156.575651 -189.347896 
L 155.859124 -189.347896 
L 155.142596 -189.347896 
L 154.426069 -189.347896 
L 153.709541 -189.347896 
L 152.993014 -189.347896 
L 152.276486 -189.347896 
L 151.559959 -189.347896 
L 150.843431 -189.347896 
L 150.126903 -189.347896 
L 149.410376 -189.347896 
L 148.693848 -189.347896 
L 147.977321 -189.347896 
L 147.260793 -189.347896 
L 146.544266 -189.347896 
L 145.827738 -189.347896 
L 145.111211 -189.347896 
L 144.394683 -189.347896 
L 143.678156 -189.347896 
L 142.961628 -189.347896 
L 142.2451 -189.347896 
L 141.528573 -189.347896 
L 140.812045 -189.347896 
L 140.095518 -189.347896 
L 139.37899 -189.347896 
L 138.662463 -189.347896 
L 137.945935 -189.347896 
L 137.229408 -189.347896 
L 136.51288 -189.347896 
L 135.796353 -189.347896 
L 135.079825 -189.347896 
L 134.363297 -189.347896 
L 133.64677 -189.347896 
L 132.930242 -189.347896 
L 132.213715 -189.347896 
L 131.497187 -189.347896 
L 130.78066 -189.347896 
L 130.064132 -189.347896 
L 129.347605 -189.347896 
L 128.631077 -189.347896 
L 127.91455 -189.347896 
L 127.198022 -189.347896 
L 126.481494 -189.347896 
L 125.764967 -189.347896 
L 125.048439 -189.347896 
L 124.331912 -189.347896 
L 123.615384 -189.347896 
L 122.898857 -189.347896 
L 122.182329 -189.347896 
L 121.465802 -189.347896 
L 120.749274 -189.347896 
L 120.032747 -189.347896 
L 119.316219 -189.347896 
L 118.599691 -189.347896 
L 117.883164 -189.347896 
L 117.166636 -189.347896 
L 116.450109 -189.347896 
L 115.733581 -189.347896 
L 115.017054 -189.347896 
L 114.300526 -189.347896 
L 113.583999 -189.347896 
L 112.867471 -189.347896 
L 112.150943 -189.347896 
L 111.434416 -189.347896 
L 110.717888 -189.347896 
L 110.001361 -189.347896 
L 109.284833 -189.347896 
L 108.568306 -189.347896 
L 107.851778 -189.347896 
L 107.135251 -189.347896 
L 106.418723 -189.347896 
L 105.702196 -189.347896 
L 104.985668 -189.347896 
L 104.26914 -189.347896 
L 103.552613 -189.347896 
L 102.836085 -189.347896 
L 102.119558 -189.347896 
L 101.40303 -189.347896 
L 100.686503 -189.347896 
L 99.969975 -189.347896 
L 99.253448 -189.347896 
L 98.53692 -189.347896 
L 97.820393 -189.347896 
L 97.103865 -189.347896 
L 96.387337 -189.347896 
L 95.67081 -189.347896 
L 94.954282 -189.347896 
L 94.237755 -189.347896 
L 93.521227 -189.347896 
L 92.8047 -189.347896 
L 92.088172 -189.347896 
L 91.371645 -189.347896 
L 90.655117 -189.347896 
L 89.93859 -189.347896 
L 89.222062 -189.347896 
L 88.505534 -189.347896 
L 87.789007 -189.347896 
L 87.072479 -189.347896 
L 86.355952 -189.347896 
L 85.639424 -189.347896 
L 84.922897 -189.347896 
L 84.206369 -189.347896 
L 83.489842 -189.347896 
L 82.773314 -189.347896 
L 82.056787 -189.347896 
L 81.340259 -189.347896 
L 80.623731 -189.347896 
L 79.907204 -189.347896 
L 79.190676 -189.347896 
L 78.474149 -189.347896 
L 77.757621 -189.347896 
L 77.041094 -189.347896 
z
" style="stroke: #2f6d78; stroke-opacity: 0.18"/>
    </defs>
    <g clip-path="url(#p54dfd7d384)">
     <use xlink:href="#m75e0586935" x="0" y="288.483875" style="fill: #2f6d78; fill-opacity: 0.18; stroke: #2f6d78; stroke-opacity: 0.18"/>
    </g>
   </g>
   <g id="matplotlib.axis_1">
    <g id="xtick_1">
     <g id="line2d_1">
      <path d="M 112.80776 248.992 
L 112.80776 26.664 
" clip-path="url(#p54dfd7d384)" style="fill: none; stroke: #b0b0b0; stroke-opacity: 0.22; stroke-width: 0.8; stroke-linecap: square"/>
     </g>
     <g id="line2d_2">
      <defs>
       <path id="m4ccc0f3a87" d="M 0 0 
L 0 3.5 
" style="stroke: #000000; stroke-width: 0.8"/>
      </defs>
      <g>
       <use xlink:href="#m4ccc0f3a87" x="112.80776" y="248.992" style="stroke: #000000; stroke-width: 0.8"/>
      </g>
     </g>
     <g id="text_1">
      <text style="font: 11px 'DejaVu Sans', 'Bitstream Vera Sans', 'Computer Modern Sans Serif', 'Lucida Grande', 'Verdana', 'Geneva', 'Lucid', 'Arial', 'Helvetica', 'Avant Garde', sans-serif; text-anchor: middle" x="112.80776" y="264.350281" transform="rotate(-0 112.80776 264.350281)">−3</text>
     </g>
    </g>
    <g id="xtick_2">
     <g id="line2d_3">
      <path d="M 172.418872 248.992 
L 172.418872 26.664 
" clip-path="url(#p54dfd7d384)" style="fill: none; stroke: #b0b0b0; stroke-opacity: 0.22; stroke-width: 0.8; stroke-linecap: square"/>
     </g>
     <g id="line2d_4">
      <g>
       <use xlink:href="#m4ccc0f3a87" x="172.418872" y="248.992" style="stroke: #000000; stroke-width: 0.8"/>
      </g>
     </g>
     <g id="text_2">
      <text style="font: 11px 'DejaVu Sans', 'Bitstream Vera Sans', 'Computer Modern Sans Serif', 'Lucida Grande', 'Verdana', 'Geneva', 'Lucid', 'Arial', 'Helvetica', 'Avant Garde', sans-serif; text-anchor: middle" x="172.418872" y="264.350281" transform="rotate(-0 172.418872 264.350281)">−2</text>
     </g>
    </g>
    <g id="xtick_3">
     <g id="line2d_5">
      <path d="M 232.029983 248.992 
L 232.029983 26.664 
" clip-path="url(#p54dfd7d384)" style="fill: none; stroke: #b0b0b0; stroke-opacity: 0.22; stroke-width: 0.8; stroke-linecap: square"/>
     </g>
     <g id="line2d_6">
      <g>
       <use xlink:href="#m4ccc0f3a87" x="232.029983" y="248.992" style="stroke: #000000; stroke-width: 0.8"/>
      </g>
     </g>
     <g id="text_3">
      <text style="font: 11px 'DejaVu Sans', 'Bitstream Vera Sans', 'Computer Modern Sans Serif', 'Lucida Grande', 'Verdana', 'Geneva', 'Lucid', 'Arial', 'Helvetica', 'Avant Garde', sans-serif; text-anchor: middle" x="232.029983" y="264.350281" transform="rotate(-0 232.029983 264.350281)">−1</text>
     </g>
    </g>
    <g id="xtick_4">
     <g id="line2d_7">
      <path d="M 291.641094 248.992 
L 291.641094 26.664 
" clip-path="url(#p54dfd7d384)" style="fill: none; stroke: #b0b0b0; stroke-opacity: 0.22; stroke-width: 0.8; stroke-linecap: square"/>
     </g>
     <g id="line2d_8">
      <g>
       <use xlink:href="#m4ccc0f3a87" x="291.641094" y="248.992" style="stroke: #000000; stroke-width: 0.8"/>
      </g>
     </g>
     <g id="text_4">
      <text style="font: 11px 'DejaVu Sans', 'Bitstream Vera Sans', 'Computer Modern Sans Serif', 'Lucida Grande', 'Verdana', 'Geneva', 'Lucid', 'Arial', 'Helvetica', 'Avant Garde', sans-serif; text-anchor: middle" x="291.641094" y="264.350281" transform="rotate(-0 291.641094 264.350281)">0</text>
     </g>
    </g>
    <g id="xtick_5">
     <g id="line2d_9">
      <path d="M 351.252205 248.992 
L 351.252205 26.664 
" clip-path="url(#p54dfd7d384)" style="fill: none; stroke: #b0b0b0; stroke-opacity: 0.22; stroke-width: 0.8; stroke-linecap: square"/>
     </g>
     <g id="line2d_10">
      <g>
       <use xlink:href="#m4ccc0f3a87" x="351.252205" y="248.992" style="stroke: #000000; stroke-width: 0.8"/>
      </g>
     </g>
     <g id="text_5">
      <text style="font: 11px 'DejaVu Sans', 'Bitstream Vera Sans', 'Computer Modern Sans Serif', 'Lucida Grande', 'Verdana', 'Geneva', 'Lucid', 'Arial', 'Helvetica', 'Avant Garde', sans-serif; text-anchor: middle" x="351.252205" y="264.350281" transform="rotate(-0 351.252205 264.350281)">1</text>
     </g>
    </g>
    <g id="xtick_6">
     <g id="line2d_11">
      <path d="M 410.863316 248.992 
L 410.863316 26.664 
" clip-path="url(#p54dfd7d384)" style="fill: none; stroke: #b0b0b0; stroke-opacity: 0.22; stroke-width: 0.8; stroke-linecap: square"/>
     </g>
     <g id="line2d_12">
      <g>
       <use xlink:href="#m4ccc0f3a87" x="410.863316" y="248.992" style="stroke: #000000; stroke-width: 0.8"/>
      </g>
     </g>
     <g id="text_6">
      <text style="font: 11px 'DejaVu Sans', 'Bitstream Vera Sans', 'Computer Modern Sans Serif', 'Lucida Grande', 'Verdana', 'Geneva', 'Lucid', 'Arial', 'Helvetica', 'Avant Garde', sans-serif; text-anchor: middle" x="410.863316" y="264.350281" transform="rotate(-0 410.863316 264.350281)">2</text>
     </g>
    </g>
    <g id="xtick_7">
     <g id="line2d_13">
      <path d="M 470.474427 248.992 
L 470.474427 26.664 
" clip-path="url(#p54dfd7d384)" style="fill: none; stroke: #b0b0b0; stroke-opacity: 0.22; stroke-width: 0.8; stroke-linecap: square"/>
     </g>
     <g id="line2d_14">
      <g>
       <use xlink:href="#m4ccc0f3a87" x="470.474427" y="248.992" style="stroke: #000000; stroke-width: 0.8"/>
      </g>
     </g>
     <g id="text_7">
      <text style="font: 11px 'DejaVu Sans', 'Bitstream Vera Sans', 'Computer Modern Sans Serif', 'Lucida Grande', 'Verdana', 'Geneva', 'Lucid', 'Arial', 'Helvetica', 'Avant Garde', sans-serif; text-anchor: middle" x="470.474427" y="264.350281" transform="rotate(-0 470.474427 264.350281)">3</text>
     </g>
    </g>
    <g id="text_8">
     <!-- threshold $\nu/\sigma_0$ -->
     <g transform="translate(252.811094 278.996219)">
      <text>
       <tspan style="font: 11px 'DejaVu Sans'" x="0 4.312988 11.284668 15.807129 22.574707 28.305664 35.277344 42.007324 45.063477 52.045898 61.687012" y="-0.640625">threshold /</tspan>
       <tspan style="font: oblique 11px 'DejaVu Sans'" x="55.54248 65.393066" y="-0.640625">νσ</tspan>
       <tspan style="font: 7.7px 'DejaVu Sans'" x="72.364746" y="1.1640625">0</tspan>
      </text>
     </g>
    </g>
   </g>
   <g id="matplotlib.axis_2">
    <g id="ytick_1">
     <g id="line2d_15">
      <path d="M 55.581094 238.893754 
L 527.701094 238.893754 
" clip-path="url(#p54dfd7d384)" style="fill: none; stroke: #b0b0b0; stroke-opacity: 0.22; stroke-width: 0.8; stroke-linecap: square"/>
     </g>
     <g id="line2d_16">
      <defs>
       <path id="ma8c0e66c50" d="M 0 0 
L -3.5 0 
" style="stroke: #000000; stroke-width: 0.8"/>
      </defs>
      <g>
       <use xlink:href="#ma8c0e66c50" x="55.581094" y="238.893754" style="stroke: #000000; stroke-width: 0.8"/>
      </g>
     </g>
     <g id="text_9">
      <text style="font: 11px 'DejaVu Sans', 'Bitstream Vera Sans', 'Computer Modern Sans Serif', 'Lucida Grande', 'Verdana', 'Geneva', 'Lucid', 'Arial', 'Helvetica', 'Avant Garde', sans-serif; text-anchor: end" x="48.581094" y="243.072894" transform="rotate(-0 48.581094 243.072894)">−1.0</text>
     </g>
    </g>
    <g id="ytick_2">
     <g id="line2d_17">
      <path d="M 55.581094 210.942199 
L 527.701094 210.942199 
" clip-path="url(#p54dfd7d384)" style="fill: none; stroke: #b0b0b0; stroke-opacity: 0.22; stroke-width: 0.8; stroke-linecap: square"/>
     </g>
     <g id="line2d_18">
      <g>
       <use xlink:href="#ma8c0e66c50" x="55.581094" y="210.942199" style="stroke: #000000; stroke-width: 0.8"/>
      </g>
     </g>
     <g id="text_10">
      <text style="font: 11px 'DejaVu Sans', 'Bitstream Vera Sans', 'Computer Modern Sans Serif', 'Lucida Grande', 'Verdana', 'Geneva', 'Lucid', 'Arial', 'Helvetica', 'Avant Garde', sans-serif; text-anchor: end" x="48.581094" y="215.121339" transform="rotate(-0 48.581094 215.121339)">−0.8</text>
     </g>
    </g>
    <g id="ytick_3">
     <g id="line2d_19">
      <path d="M 55.581094 182.990644 
L 527.701094 182.990644 
" clip-path="url(#p54dfd7d384)" style="fill: none; stroke: #b0b0b0; stroke-opacity: 0.22; stroke-width: 0.8; stroke-linecap: square"/>
     </g>
     <g id="line2d_20">
      <g>
       <use xlink:href="#ma8c0e66c50" x="55.581094" y="182.990644" style="stroke: #000000; stroke-width: 0.8"/>
      </g>
     </g>
     <g id="text_11">
      <text style="font: 11px 'DejaVu Sans', 'Bitstream Vera Sans', 'Computer Modern Sans Serif', 'Lucida Grande', 'Verdana', 'Geneva', 'Lucid', 'Arial', 'Helvetica', 'Avant Garde', sans-serif; text-anchor: end" x="48.581094" y="187.169784" transform="rotate(-0 48.581094 187.169784)">−0.6</text>
     </g>
    </g>
    <g id="ytick_4">
     <g id="line2d_21">
      <path d="M 55.581094 155.039089 
L 527.701094 155.039089 
" clip-path="url(#p54dfd7d384)" style="fill: none; stroke: #b0b0b0; stroke-opacity: 0.22; stroke-width: 0.8; stroke-linecap: square"/>
     </g>
     <g id="line2d_22">
      <g>
       <use xlink:href="#ma8c0e66c50" x="55.581094" y="155.039089" style="stroke: #000000; stroke-width: 0.8"/>
      </g>
     </g>
     <g id="text_12">
      <text style="font: 11px 'DejaVu Sans', 'Bitstream Vera Sans', 'Computer Modern Sans Serif', 'Lucida Grande', 'Verdana', 'Geneva', 'Lucid', 'Arial', 'Helvetica', 'Avant Garde', sans-serif; text-anchor: end" x="48.581094" y="159.218229" transform="rotate(-0 48.581094 159.218229)">−0.4</text>
     </g>
    </g>
    <g id="ytick_5">
     <g id="line2d_23">
      <path d="M 55.581094 127.087534 
L 527.701094 127.087534 
" clip-path="url(#p54dfd7d384)" style="fill: none; stroke: #b0b0b0; stroke-opacity: 0.22; stroke-width: 0.8; stroke-linecap: square"/>
     </g>
     <g id="line2d_24">
      <g>
       <use xlink:href="#ma8c0e66c50" x="55.581094" y="127.087534" style="stroke: #000000; stroke-width: 0.8"/>
      </g>
     </g>
     <g id="text_13">
      <text style="font: 11px 'DejaVu Sans', 'Bitstream Vera Sans', 'Computer Modern Sans Serif', 'Lucida Grande', 'Verdana', 'Geneva', 'Lucid', 'Arial', 'Helvetica', 'Avant Garde', sans-serif; text-anchor: end" x="48.581094" y="131.266674" transform="rotate(-0 48.581094 131.266674)">−0.2</text>
     </g>
    </g>
    <g id="ytick_6">
     <g id="line2d_25">
      <path d="M 55.581094 99.135979 
L 527.701094 99.135979 
" clip-path="url(#p54dfd7d384)" style="fill: none; stroke: #b0b0b0; stroke-opacity: 0.22; stroke-width: 0.8; stroke-linecap: square"/>
     </g>
     <g id="line2d_26">
      <g>
       <use xlink:href="#ma8c0e66c50" x="55.581094" y="99.135979" style="stroke: #000000; stroke-width: 0.8"/>
      </g>
     </g>
     <g id="text_14">
      <text style="font: 11px 'DejaVu Sans', 'Bitstream Vera Sans', 'Computer Modern Sans Serif', 'Lucida Grande', 'Verdana', 'Geneva', 'Lucid', 'Arial', 'Helvetica', 'Avant Garde', sans-serif; text-anchor: end" x="48.581094" y="103.315119" transform="rotate(-0 48.581094 103.315119)">0.0</text>
     </g>
    </g>
    <g id="ytick_7">
     <g id="line2d_27">
      <path d="M 55.581094 71.184424 
L 527.701094 71.184424 
" clip-path="url(#p54dfd7d384)" style="fill: none; stroke: #b0b0b0; stroke-opacity: 0.22; stroke-width: 0.8; stroke-linecap: square"/>
     </g>
     <g id="line2d_28">
      <g>
       <use xlink:href="#ma8c0e66c50" x="55.581094" y="71.184424" style="stroke: #000000; stroke-width: 0.8"/>
      </g>
     </g>
     <g id="text_15">
      <text style="font: 11px 'DejaVu Sans', 'Bitstream Vera Sans', 'Computer Modern Sans Serif', 'Lucida Grande', 'Verdana', 'Geneva', 'Lucid', 'Arial', 'Helvetica', 'Avant Garde', sans-serif; text-anchor: end" x="48.581094" y="75.363564" transform="rotate(-0 48.581094 75.363564)">0.2</text>
     </g>
    </g>
    <g id="ytick_8">
     <g id="line2d_29">
      <path d="M 55.581094 43.232869 
L 527.701094 43.232869 
" clip-path="url(#p54dfd7d384)" style="fill: none; stroke: #b0b0b0; stroke-opacity: 0.22; stroke-width: 0.8; stroke-linecap: square"/>
     </g>
     <g id="line2d_30">
      <g>
       <use xlink:href="#ma8c0e66c50" x="55.581094" y="43.232869" style="stroke: #000000; stroke-width: 0.8"/>
      </g>
     </g>
     <g id="text_16">
      <text style="font: 11px 'DejaVu Sans', 'Bitstream Vera Sans', 'Computer Modern Sans Serif', 'Lucida Grande', 'Verdana', 'Geneva', 'Lucid', 'Arial', 'Helvetica', 'Avant Garde', sans-serif; text-anchor: end" x="48.581094" y="47.412009" transform="rotate(-0 48.581094 47.412009)">0.4</text>
     </g>
    </g>
    <g id="text_17">
     <!-- $V_3(\nu)$  (3D genus) -->
     <g transform="translate(15.56 185.293) rotate(-90)">
      <text>
       <tspan style="font: oblique 11px 'DejaVu Sans'" x="0 17.016162" y="-0.65625">Vν</tspan>
       <tspan style="font: 7.7px 'DejaVu Sans'" x="7.524902" y="1.1484375">3</tspan>
       <tspan style="font: 11px 'DejaVu Sans'" x="12.724658 23.160693 27.452197 30.948779 34.445361 38.736865 45.2354 53.705615 57.202197 64.184619 70.952197 77.923877 84.895557 90.626514" y="-0.65625">()  (3D genus)</tspan>
      </text>
     </g>
    </g>
   </g>
   <g id="line2d_31">
    <path d="M 77.041094 96.57221 
L 82.773314 95.734467 
L 88.505534 94.67315 
L 93.521227 93.528394 
L 98.53692 92.151524 
L 102.836085 90.764598 
L 107.135251 89.168356 
L 111.434416 87.346964 
L 115.733581 85.287162 
L 120.032747 82.979368 
L 124.331912 80.418886 
L 128.631077 77.607215 
L 132.930242 74.5534 
L 137.945935 70.70907 
L 143.678156 66.002639 
L 151.559959 59.177731 
L 161.591344 50.496364 
L 166.607037 46.479387 
L 170.189675 43.871295 
L 173.772312 41.559673 
L 176.638423 39.97308 
L 179.504533 38.661823 
L 181.654115 37.882578 
L 183.803698 37.296673 
L 185.953281 36.920419 
L 188.102863 36.769818 
L 190.252446 36.860418 
L 192.402029 37.207153 
L 194.551611 37.824185 
L 196.701194 38.724743 
L 198.850777 39.92096 
L 201.000359 41.423708 
L 203.149942 43.24244 
L 205.299524 45.38503 
L 207.449107 47.857626 
L 209.59869 50.664505 
L 211.748272 53.807937 
L 213.897855 57.288071 
L 216.047438 61.102818 
L 218.913548 66.701686 
L 221.779658 72.870176 
L 224.645768 79.583359 
L 227.511878 86.808396 
L 231.094516 96.496699 
L 234.677154 106.824089 
L 238.976319 119.898271 
L 244.708539 138.104866 
L 256.17298 174.771355 
L 260.472146 187.710284 
L 264.054783 197.811167 
L 266.920893 205.325134 
L 269.787004 212.247286 
L 272.653114 218.501881 
L 274.802696 222.712773 
L 276.952279 226.482498 
L 279.101862 229.787144 
L 281.251444 232.605619 
L 282.684499 234.205449 
L 284.117555 235.576522 
L 285.55061 236.714901 
L 286.983665 237.617313 
L 288.41672 238.281158 
L 289.849775 238.704522 
L 291.28283 238.886182 
L 292.715885 238.825614 
L 294.14894 238.522993 
L 295.581995 237.979192 
L 297.01505 237.195781 
L 298.448105 236.175018 
L 299.881161 234.919842 
L 301.314216 233.433858 
L 303.463798 230.781611 
L 305.613381 227.636823 
L 307.762964 224.019603 
L 309.912546 219.952944 
L 312.062129 215.462524 
L 314.928239 208.865058 
L 317.794349 201.637174 
L 320.660459 193.857395 
L 324.243097 183.483647 
L 328.542262 170.307995 
L 334.99101 149.68483 
L 344.305868 119.898271 
L 348.605034 106.824089 
L 352.187671 96.496699 
L 355.770309 86.808396 
L 358.636419 79.583359 
L 361.502529 72.870176 
L 364.36864 66.701686 
L 367.23475 61.102818 
L 370.10086 56.090697 
L 372.250443 52.722677 
L 374.400025 49.691553 
L 376.549608 46.996456 
L 378.699191 44.634432 
L 380.848773 42.600566 
L 382.998356 40.888118 
L 385.147938 39.488671 
L 387.297521 38.392281 
L 389.447104 37.587637 
L 391.596686 37.062224 
L 393.746269 36.802482 
L 395.895852 36.793975 
L 398.045434 37.021546 
L 400.195017 37.469481 
L 402.3446 38.121656 
L 404.494182 38.96169 
L 407.360292 40.345436 
L 410.226403 41.994796 
L 413.80904 44.371492 
L 417.391678 47.030351 
L 421.690843 50.496364 
L 428.139591 56.032105 
L 441.037087 67.205846 
L 446.769307 71.836232 
L 451.785 75.597333 
L 456.084166 78.571961 
L 460.383331 81.300506 
L 464.682496 83.776592 
L 468.981661 86.000933 
L 473.280827 87.979994 
L 477.579992 89.724715 
L 481.879157 91.249327 
L 486.89485 92.77191 
L 491.910543 94.045719 
L 496.926236 95.099933 
L 502.658456 96.072672 
L 506.241094 96.57221 
L 506.241094 96.57221 
" clip-path="url(#p54dfd7d384)" style="fill: none; stroke: #7d3c98; stroke-width: 2.6; stroke-linecap: square"/>
   </g>
   <g id="line2d_32">
    <path d="M 55.581094 99.135979 
L 527.701094 99.135979 
" clip-path="url(#p54dfd7d384)" style="fill: none; stroke: #bbbbbb; stroke-width: 0.7; stroke-linecap: square"/>
   </g>
   <g id="patch_3">
    <path d="M 55.581094 248.992 
L 55.581094 26.664 
" style="fill: none; stroke: #000000; stroke-width: 0.8; stroke-linejoin: miter; stroke-linecap: square"/>
   </g>
   <g id="patch_4">
    <path d="M 527.701094 248.992 
L 527.701094 26.664 
" style="fill: none; stroke: #000000; stroke-width: 0.8; stroke-linejoin: miter; stroke-linecap: square"/>
   </g>
   <g id="patch_5">
    <path d="M 55.581094 248.992 
L 527.701094 248.992 
" style="fill: none; stroke: #000000; stroke-width: 0.8; stroke-linejoin: miter; stroke-linecap: square"/>
   </g>
   <g id="patch_6">
    <path d="M 55.581094 26.664 
L 527.701094 26.664 
" style="fill: none; stroke: #000000; stroke-width: 0.8; stroke-linejoin: miter; stroke-linecap: square"/>
   </g>
   <g id="text_18">
    <text style="fill: #2f6d78; font: 9.5px 'DejaVu Sans', 'Bitstream Vera Sans', 'Computer Modern Sans Serif', 'Lucida Grande', 'Verdana', 'Geneva', 'Lucid', 'Arial', 'Helvetica', 'Avant Garde', sans-serif" transform="translate(392.131988 14.969136)">isolated</text>
    <text style="fill: #2f6d78; font: 9.5px 'DejaVu Sans', 'Bitstream Vera Sans', 'Computer Modern Sans Serif', 'Lucida Grande', 'Verdana', 'Geneva', 'Lucid', 'Arial', 'Helvetica', 'Avant Garde', sans-serif" transform="translate(392.235152 25.607058)">clusters</text>
    <!-- $\chi&gt;0$ -->
    <g style="fill: #2f6d78" transform="translate(399.178316 36.24498)">
     <text>
      <tspan style="font: oblique 9.5px 'DejaVu Sans'" x="0" y="-0.578125">χ</tspan>
      <tspan style="font: 9.5px 'DejaVu Sans'" x="7.4729 17.283691" y="-0.578125">&gt;0</tspan>
     </text>
    </g>
   </g>
   <g id="text_19">
    <text style="fill: #2f6d78; font: 9.5px 'DejaVu Sans', 'Bitstream Vera Sans', 'Computer Modern Sans Serif', 'Lucida Grande', 'Verdana', 'Geneva', 'Lucid', 'Arial', 'Helvetica', 'Avant Garde', sans-serif" transform="translate(141.765321 14.969136)">isolated</text>
    <text style="fill: #2f6d78; font: 9.5px 'DejaVu Sans', 'Bitstream Vera Sans', 'Computer Modern Sans Serif', 'Lucida Grande', 'Verdana', 'Geneva', 'Lucid', 'Arial', 'Helvetica', 'Avant Garde', sans-serif" transform="translate(147.969266 25.607058)">voids</text>
    <!-- $\chi&gt;0$ -->
    <g style="fill: #2f6d78" transform="translate(148.811649 36.24498)">
     <text>
      <tspan style="font: oblique 9.5px 'DejaVu Sans'" x="0" y="-0.578125">χ</tspan>
      <tspan style="font: 9.5px 'DejaVu Sans'" x="7.4729 17.283691" y="-0.578125">&gt;0</tspan>
     </text>
    </g>
   </g>
   <g id="text_20">
    <!-- sponge phase  $\chi&lt;0$ -->
    <g style="fill: #c0392b" transform="translate(241.241094 208.147043)">
     <text>
      <tspan style="font: 10px 'DejaVu Sans'" x="0 5.209961 11.557617 17.675781 24.013672 30.361328 36.513672 39.692383 46.040039 52.37793 58.505859 63.71582 69.868164 73.046875 84.091797 94.418945" y="-0.40625">sponge phase  &lt;0</tspan>
      <tspan style="font: oblique 10px 'DejaVu Sans'" x="76.225586" y="-0.40625">χ</tspan>
     </text>
    </g>
   </g>
   <g id="text_21">
    <!-- $+1\sigma$ -->
    <g style="fill: #7d3c98" transform="translate(352.444427 90.750512)">
     <text>
      <tspan style="font: 8.5px 'DejaVu Sans'" x="0 7.12207" y="-0.4375">+1</tspan>
      <tspan style="font: oblique 8.5px 'DejaVu Sans'" x="12.530029" y="-0.4375">σ</tspan>
     </text>
    </g>
   </g>
   <g id="text_22">
    <!-- $-1\sigma$ -->
    <g style="fill: #7d3c98" transform="translate(202.224427 90.750512)">
     <text>
      <tspan style="font: 8.5px 'DejaVu Sans'" x="0 7.12207" y="-0.4375">−1</tspan>
      <tspan style="font: oblique 8.5px 'DejaVu Sans'" x="12.530029" y="-0.4375">σ</tspan>
     </text>
    </g>
   </g>
   <g id="text_23">
    <!-- The genus journey: $V_3\propto(\nu^2-1)\,e^{-\nu^2/2}$ -->
    <g transform="translate(167.561094 20.664)">
     <text>
      <tspan style="font: 13.2px 'DejaVu Sans'" x="0 8.093628 16.491333 24.643188 28.85498 37.265625 45.41748 53.815186 62.212891 69.116089 73.327881 77.009155 85.115723 93.513428 98.960938 107.358643 115.510498 123.351807 127.815918 149.929724 161.976355 183.96556 197.649032 206.079085" y="-0.8082812500000021">The genus journey: ∝(−1)</tspan>
      <tspan style="font: oblique 13.2px 'DejaVu Sans'" x="132.02771 167.145667 213.399624" y="-0.8082812500000021">Vνe</tspan>
      <tspan style="font: 9.24px 'DejaVu Sans'" x="141.091797 175.127633 222.156141 239.894507 242.669385" y="1.324531249999998 -5.784843750000002 -5.784843750000002 -5.784843750000002 -5.784843750000002">32−/2</tspan>
      <tspan style="font: oblique 9.24px 'DejaVu Sans'" x="229.927576" y="-5.784843750000002">ν</tspan>
      <tspan style="font: 6.468px 'DejaVu Sans'" x="235.514953" y="-9.268437500000003">2</tspan>
     </text>
    </g>
   </g>
   <g id="PathCollection_1">
    <defs>
     <path id="m94fadff61d" d="M 0 3 
C 0.795609 3 1.55874 2.683901 2.12132 2.12132 
C 2.683901 1.55874 3 0.795609 3 0 
C 3 -0.795609 2.683901 -1.55874 2.12132 -2.12132 
C 1.55874 -2.683901 0.795609 -3 0 -3 
C -0.795609 -3 -1.55874 -2.683901 -2.12132 -2.12132 
C -2.683901 -1.55874 -3 -0.795609 -3 0 
C -3 0.795609 -2.683901 1.55874 -2.12132 2.12132 
C -1.55874 2.683901 -0.795609 3 0 3 
z
" style="stroke: #7d3c98"/>
    </defs>
    <g clip-path="url(#p54dfd7d384)">
     <use xlink:href="#m94fadff61d" x="232.029983" y="99.135979" style="fill: #7d3c98; stroke: #7d3c98"/>
     <use xlink:href="#m94fadff61d" x="351.252205" y="99.135979" style="fill: #7d3c98; stroke: #7d3c98"/>
    </g>
   </g>
  </g>
 </g>
 <defs>
  <clipPath id="p54dfd7d384">
   <rect x="55.581094" y="26.664" width="472.12" height="222.328"/>
  </clipPath>
 </defs>
</svg>
