<?xml version="1.0" encoding="utf-8" standalone="no"?>
<!DOCTYPE svg PUBLIC "-//W3C//DTD SVG 1.1//EN"
  "http://www.w3.org/Graphics/SVG/1.1/DTD/svg11.dtd">
<svg xmlns:xlink="http://www.w3.org/1999/xlink" width="660.252812pt" height="310.968pt" viewBox="0 0 660.252812 310.968" xmlns="http://www.w3.org/2000/svg" version="1.1">
 <metadata>
  <rdf:RDF xmlns:dc="http://purl.org/dc/elements/1.1/" xmlns:cc="http://creativecommons.org/ns#" xmlns:rdf="http://www.w3.org/1999/02/22-rdf-syntax-ns#">
   <cc:Work>
    <dc:type rdf:resource="http://purl.org/dc/dcmitype/StillImage"/>
    <dc:date>2026-06-29T19:10:25.706498</dc:date>
    <dc:format>image/svg+xml</dc:format>
    <dc:creator>
     <cc:Agent>
      <dc:title>Matplotlib v3.9.4, https://matplotlib.org/</dc:title>
     </cc:Agent>
    </dc:creator>
   </cc:Work>
  </rdf:RDF>
 </metadata>
 <defs>
  <style type="text/css">*{stroke-linejoin: round; stroke-linecap: butt}</style>
 </defs>
 <g id="figure_1">
  <g id="patch_1">
   <path d="M 0 310.968 
L 660.252812 310.968 
L 660.252812 0 
L 0 0 
z
" style="fill: #ffffff"/>
  </g>
  <g id="axes_1">
   <g id="patch_2">
    <path d="M 7.2 270.480863 
L 284.592812 270.480863 
L 284.592812 76.305894 
L 7.2 76.305894 
z
" clip-path="url(#pd9c674bf47)" style="fill: #f4f4f4; stroke: #f4f4f4; stroke-linejoin: miter"/>
   </g>
   <g id="patch_3">
    <path d="M 68.226419 242.741581 
C 75.582962 242.741581 82.639191 239.818796 87.841052 234.616934 
C 93.042914 229.415072 95.9657 222.358844 95.9657 215.0023 
C 95.9657 207.645757 93.042914 200.589528 87.841052 195.387666 
C 82.639191 190.185805 75.582962 187.263019 68.226419 187.263019 
C 60.869875 187.263019 53.813646 190.185805 48.611785 195.387666 
C 43.409923 200.589528 40.487137 207.645757 40.487137 215.0023 
C 40.487137 222.358844 43.409923 229.415072 48.611785 234.616934 
C 53.813646 239.818796 60.869875 242.741581 68.226419 242.741581 
z
" clip-path="url(#pd9c674bf47)" style="fill: #c0392b; opacity: 0.55; stroke: #c0392b; stroke-width: 2; stroke-linejoin: miter"/>
   </g>
   <g id="patch_4">
    <path d="M 145.896406 181.715163 
C 154.724258 181.715163 163.191732 178.20782 169.433967 171.965586 
C 175.676201 165.723352 179.183543 157.255877 179.183543 148.428025 
C 179.183543 139.600173 175.676201 131.132699 169.433967 124.890465 
C 163.191732 118.648231 154.724258 115.140888 145.896406 115.140888 
C 137.068554 115.140888 128.601079 118.648231 122.358845 124.890465 
C 116.116611 131.132699 112.609268 139.600173 112.609268 148.428025 
C 112.609268 157.255877 116.116611 165.723352 122.358845 171.965586 
C 128.601079 178.20782 137.068554 181.715163 145.896406 181.715163 
z
" clip-path="url(#pd9c674bf47)" style="fill: #c0392b; opacity: 0.55; stroke: #c0392b; stroke-width: 2; stroke-linejoin: miter"/>
   </g>
   <g id="patch_5">
    <path d="M 218.018537 235.806761 
C 225.007253 235.806761 231.710671 233.030115 236.652439 228.088346 
C 241.594208 223.146578 244.370854 216.44316 244.370854 209.454444 
C 244.370854 202.465728 241.594208 195.76231 236.652439 190.820542 
C 231.710671 185.878773 225.007253 183.102127 218.018537 183.102127 
C 211.029821 183.102127 204.326403 185.878773 199.384635 190.820542 
C 194.442866 195.76231 191.66622 202.465728 191.66622 209.454444 
C 191.66622 216.44316 194.442866 223.146578 199.384635 228.088346 
C 204.326403 233.030115 211.029821 235.806761 218.018537 235.806761 
z
" clip-path="url(#pd9c674bf47)" style="fill: #c0392b; opacity: 0.55; stroke: #c0392b; stroke-width: 2; stroke-linejoin: miter"/>
   </g>
   <g id="patch_6">
    <path d="M 107.061412 148.428025 
C 112.946647 148.428025 118.59163 146.089797 122.753119 141.928307 
C 126.914609 137.766818 129.252837 132.121835 129.252837 126.2366 
C 129.252837 120.351366 126.914609 114.706383 122.753119 110.544893 
C 118.59163 106.383404 112.946647 104.045175 107.061412 104.045175 
C 101.176178 104.045175 95.531195 106.383404 91.369705 110.544893 
C 87.208216 114.706383 84.869987 120.351366 84.869987 126.2366 
C 84.869987 132.121835 87.208216 137.766818 91.369705 141.928307 
C 95.531195 146.089797 101.176178 148.428025 107.061412 148.428025 
z
" clip-path="url(#pd9c674bf47)" style="fill: #c0392b; opacity: 0.55; stroke: #c0392b; stroke-width: 2; stroke-linejoin: miter"/>
   </g>
   <g id="patch_7">
    <path d="M 212.470681 145.654097 
C 219.09157 145.654097 225.442176 143.02359 230.123851 138.341915 
C 234.805527 133.660239 237.436034 127.309633 237.436034 120.688744 
C 237.436034 114.067855 234.805527 107.717249 230.123851 103.035574 
C 225.442176 98.353898 219.09157 95.723391 212.470681 95.723391 
C 205.849792 95.723391 199.499186 98.353898 194.81751 103.035574 
C 190.135835 107.717249 187.505328 114.067855 187.505328 120.688744 
C 187.505328 127.309633 190.135835 133.660239 194.81751 138.341915 
C 199.499186 143.02359 205.849792 145.654097 212.470681 145.654097 
z
" clip-path="url(#pd9c674bf47)" style="fill: #c0392b; opacity: 0.55; stroke: #c0392b; stroke-width: 2; stroke-linejoin: miter"/>
   </g>
   <g id="text_1">
    <!-- 5 isolated clumps, 0 holes   →   $\chi = 5$ -->
    <g transform="translate(54.596406 289.898359)">
     <text>
      <tspan style="font: 10px 'DejaVu Sans'" x="0 6.362305 9.541016 12.319336 17.529297 23.647461 26.425781 32.553711 36.474609 42.626953 48.974609 52.15332 57.651367 60.429688 66.767578 76.508789 82.856445 88.066406 91.245117 94.423828 100.786133 103.964844 110.302734 116.420898 119.199219 125.351562 130.561523 133.740234 136.918945 140.097656 148.476562 151.655273 154.833984 165.878906 176.206055" y="-0.40625">5 isolated clumps, 0 holes   →   =5</tspan>
      <tspan style="font: oblique 10px 'DejaVu Sans'" x="158.012695" y="-0.40625">χ</tspan>
     </text>
    </g>
   </g>
   <g id="text_2">
    <!-- Meatball  $\chi&gt;0$ -->
    <g style="fill: #c0392b" transform="translate(101.616406 59.210182)">
     <text>
      <tspan style="font: 12px 'DejaVu Sans'" x="0 10.353516 17.736328 25.089844 29.794922 37.412109 44.765625 48.099609 51.433594 55.248047 68.501953 80.894531" y="-0.875">Meatball  &gt;0</tspan>
      <tspan style="font: oblique 12px 'DejaVu Sans'" x="59.0625" y="-0.875">χ</tspan>
     </text>
    </g>
   </g>
  </g>
  <g id="axes_2">
   <g id="patch_8">
    <path d="M 375.66 270.480863 
L 653.052812 270.480863 
L 653.052812 76.305894 
L 375.66 76.305894 
z
" clip-path="url(#p3f5384a070)" style="fill: #2f6d78; opacity: 0.45; stroke: #2f6d78; stroke-width: 2; stroke-linejoin: miter"/>
   </g>
   <g id="patch_9">
    <path d="M 436.686419 238.580689 
C 442.93948 238.580689 448.937275 236.096321 453.358857 231.674739 
C 457.78044 227.253157 460.264808 221.255362 460.264808 215.0023 
C 460.264808 208.749238 457.78044 202.751444 453.358857 198.329861 
C 448.937275 193.908279 442.93948 191.423911 436.686419 191.423911 
C 430.433357 191.423911 424.435562 193.908279 420.01398 198.329861 
C 415.592397 202.751444 413.10803 208.749238 413.10803 215.0023 
C 413.10803 221.255362 415.592397 227.253157 420.01398 231.674739 
C 424.435562 236.096321 430.433357 238.580689 436.686419 238.580689 
z
" clip-path="url(#p3f5384a070)" style="fill: #ffffff; stroke: #2f6d78; stroke-width: 2; stroke-linejoin: miter"/>
   </g>
   <g id="patch_10">
    <path d="M 514.356406 176.167307 
C 521.712949 176.167307 528.769178 173.244521 533.97104 168.042659 
C 539.172901 162.840798 542.095687 155.784569 542.095687 148.428025 
C 542.095687 141.071482 539.172901 134.015253 533.97104 128.813392 
C 528.769178 123.61153 521.712949 120.688744 514.356406 120.688744 
C 506.999863 120.688744 499.943634 123.61153 494.741772 128.813392 
C 489.53991 134.015253 486.617125 141.071482 486.617125 148.428025 
C 486.617125 155.784569 489.53991 162.840798 494.741772 168.042659 
C 499.943634 173.244521 506.999863 176.167307 514.356406 176.167307 
z
" clip-path="url(#p3f5384a070)" style="fill: #ffffff; stroke: #2f6d78; stroke-width: 2; stroke-linejoin: miter"/>
   </g>
   <g id="patch_11">
    <path d="M 586.478537 231.645869 
C 592.363772 231.645869 598.008755 229.30764 602.170244 225.146151 
C 606.331733 220.984662 608.669962 215.339679 608.669962 209.454444 
C 608.669962 203.569209 606.331733 197.924226 602.170244 193.762737 
C 598.008755 189.601248 592.363772 187.263019 586.478537 187.263019 
C 580.593302 187.263019 574.948319 189.601248 570.78683 193.762737 
C 566.625341 197.924226 564.287112 203.569209 564.287112 209.454444 
C 564.287112 215.339679 566.625341 220.984662 570.78683 225.146151 
C 574.948319 229.30764 580.593302 231.645869 586.478537 231.645869 
z
" clip-path="url(#p3f5384a070)" style="fill: #ffffff; stroke: #2f6d78; stroke-width: 2; stroke-linejoin: miter"/>
   </g>
   <g id="patch_12">
    <path d="M 475.521412 145.654097 
C 480.670993 145.654097 485.610353 143.608147 489.251656 139.966844 
C 492.892959 136.325541 494.938909 131.386181 494.938909 126.2366 
C 494.938909 121.08702 492.892959 116.14766 489.251656 112.506357 
C 485.610353 108.865054 480.670993 106.819104 475.521412 106.819104 
C 470.371832 106.819104 465.432472 108.865054 461.791169 112.506357 
C 458.149865 116.14766 456.103915 121.08702 456.103915 126.2366 
C 456.103915 131.386181 458.149865 136.325541 461.791169 139.966844 
C 465.432472 143.608147 470.371832 145.654097 475.521412 145.654097 
z
" clip-path="url(#p3f5384a070)" style="fill: #ffffff; stroke: #2f6d78; stroke-width: 2; stroke-linejoin: miter"/>
   </g>
   <g id="patch_13">
    <path d="M 580.930681 142.880169 
C 586.815915 142.880169 592.460898 140.541941 596.622388 136.380451 
C 600.783877 132.218962 603.122106 126.573979 603.122106 120.688744 
C 603.122106 114.803509 600.783877 109.158526 596.622388 104.997037 
C 592.460898 100.835548 586.815915 98.497319 580.930681 98.497319 
C 575.045446 98.497319 569.400463 100.835548 565.238974 104.997037 
C 561.077484 109.158526 558.739256 114.803509 558.739256 120.688744 
C 558.739256 126.573979 561.077484 132.218962 565.238974 136.380451 
C 569.400463 140.541941 575.045446 142.880169 580.930681 142.880169 
z
" clip-path="url(#p3f5384a070)" style="fill: #ffffff; stroke: #2f6d78; stroke-width: 2; stroke-linejoin: miter"/>
   </g>
   <g id="text_3">
    <!-- 1 connected body, 5 holes   →   $\chi = 1-5 = -4$ -->
    <g transform="translate(397.406406 289.898359)">
     <text>
      <tspan style="font: 10px 'DejaVu Sans'" x="0 6.362305 9.541016 15.039062 21.157227 27.495117 33.833008 39.985352 45.483398 49.404297 55.556641 61.904297 65.083008 71.430664 77.548828 83.896484 89.814453 92.993164 96.171875 102.53418 105.712891 112.050781 118.168945 120.947266 127.099609 132.30957 135.488281 138.666992 141.845703 150.224609 153.40332 156.582031 167.626953 177.954102 186.264648 196.591797 204.902344 217.177734 227.504883" y="-0.40625">1 connected body, 5 holes   →   =1−5=−4</tspan>
      <tspan style="font: oblique 10px 'DejaVu Sans'" x="159.760742" y="-0.40625">χ</tspan>
     </text>
    </g>
   </g>
   <g id="text_4">
    <!-- Sponge  $\chi&lt;0$ -->
    <g style="fill: #2f6d78" transform="translate(473.196406 59.210182)">
     <text>
      <tspan style="font: 12px 'DejaVu Sans'" x="0 7.617188 15.234375 22.576172 30.181641 37.798828 45.181641 48.996094 62.25 74.642578" y="-0.09375">Sponge  &lt;0</tspan>
      <tspan style="font: oblique 12px 'DejaVu Sans'" x="52.810547" y="-0.09375">χ</tspan>
     </text>
    </g>
   </g>
  </g>
  <g id="text_5">
   <!-- $\chi=$ #(pieces) $-$ #(holes): identical power spectra, opposite topology -->
   <g transform="translate(139.056406 15.56)">
    <text>
     <tspan style="font: oblique 11px 'DejaVu Sans'" x="0" y="-0.640625">χ</tspan>
     <tspan style="font: 11px 'DejaVu Sans'" x="8.652832 20.012695 23.509277 32.726074 37.017578 44 47.056152 53.82373 59.871582 66.63916 72.370117 76.661621 80.158203 89.375 92.871582 102.088379 106.379883 113.351562 120.081543 123.137695 129.905273 135.63623 139.927734 143.633789 147.130371 150.186523 157.168945 163.936523 170.908203 175.221191 178.277344 184.325195 191.065918 194.12207 197.618652 204.601074 211.331055 220.327637 227.095215 231.617676 235.114258 240.845215 247.827637 254.595215 260.643066 264.956055 269.478516 276.219238 279.71582 283.212402 289.942383 296.924805 303.907227 310.637207 316.368164 319.424316 323.737305 330.504883 334.001465 338.314453 345.044434 352.026855 358.756836 361.812988 368.542969 375.525391" y="-0.640625">= #(pieces) − #(holes): identical power spectra, opposite topology</tspan>
    </text>
   </g>
  </g>
 </g>
 <defs>
  <clipPath id="pd9c674bf47">
   <rect x="7.2" y="65.210182" width="277.392812" height="238.557818"/>
  </clipPath>
  <clipPath id="p3f5384a070">
   <rect x="375.66" y="65.210182" width="277.392812" height="238.557818"/>
  </clipPath>
 </defs>
</svg>
