<?xml version="1.0" encoding="utf-8" standalone="no"?>
<!DOCTYPE svg PUBLIC "-//W3C//DTD SVG 1.1//EN"
  "http://www.w3.org/Graphics/SVG/1.1/DTD/svg11.dtd">
<svg xmlns:xlink="http://www.w3.org/1999/xlink" width="494.485937pt" height="276.123875pt" viewBox="0 0 494.485937 276.123875" xmlns="http://www.w3.org/2000/svg" version="1.1">
 <metadata>
  <rdf:RDF xmlns:dc="http://purl.org/dc/elements/1.1/" xmlns:cc="http://creativecommons.org/ns#" xmlns:rdf="http://www.w3.org/1999/02/22-rdf-syntax-ns#">
   <cc:Work>
    <dc:type rdf:resource="http://purl.org/dc/dcmitype/StillImage"/>
    <dc:date>2026-06-29T19:10:25.912751</dc:date>
    <dc:format>image/svg+xml</dc:format>
    <dc:creator>
     <cc:Agent>
      <dc:title>Matplotlib v3.9.4, https://matplotlib.org/</dc:title>
     </cc:Agent>
    </dc:creator>
   </cc:Work>
  </rdf:RDF>
 </metadata>
 <defs>
  <style type="text/css">*{stroke-linejoin: round; stroke-linecap: butt}</style>
 </defs>
 <g id="figure_1">
  <g id="patch_1">
   <path d="M 0 276.123875 
L 494.485937 276.123875 
L 494.485937 0 
L 0 0 
z
" style="fill: #ffffff"/>
  </g>
  <g id="axes_1">
   <g id="patch_2">
    <path d="M 21.845938 236.632 
L 487.285937 236.632 
L 487.285937 23.232 
L 21.845938 23.232 
z
" style="fill: #ffffff"/>
   </g>
   <g id="PolyCollection_1">
    <defs>
     <path id="ma5a83c36f2" d="M 43.002301 -49.191875 
L 43.002301 -49.191875 
L 44.06277 -49.277041 
L 45.12324 -49.532376 
L 46.183709 -49.957384 
L 47.244179 -50.551241 
L 48.304648 -51.312799 
L 49.365117 -52.240585 
L 50.425587 -53.332804 
L 51.486056 -54.587347 
L 52.546525 -56.001794 
L 53.606995 -57.573421 
L 54.667464 -59.299204 
L 55.727933 -61.175829 
L 56.788403 -63.199698 
L 57.848872 -65.36694 
L 58.909341 -67.673416 
L 59.969811 -70.114736 
L 61.03028 -72.686259 
L 62.09075 -75.383115 
L 63.151219 -78.20021 
L 64.211688 -81.132237 
L 65.272158 -84.173693 
L 66.332627 -87.318889 
L 67.393096 -90.561965 
L 68.453566 -93.8969 
L 69.514035 -97.317528 
L 70.574504 -100.817555 
L 71.634974 -104.390568 
L 72.695443 -108.030052 
L 73.755912 -111.729406 
L 74.816382 -115.481954 
L 75.876851 -119.280963 
L 76.937321 -123.119657 
L 77.99779 -126.991231 
L 79.058259 -130.888867 
L 80.118729 -134.805746 
L 81.179198 -138.735066 
L 82.239667 -142.670052 
L 83.300137 -146.603975 
L 84.360606 -150.530163 
L 85.421075 -154.442011 
L 86.481545 -158.333004 
L 87.542014 -162.196718 
L 88.602483 -166.026841 
L 89.662953 -169.817183 
L 90.723422 -173.561685 
L 91.783891 -177.254433 
L 92.844361 -180.889668 
L 93.90483 -184.461794 
L 94.9653 -187.965392 
L 96.025769 -191.395226 
L 97.086238 -194.74625 
L 98.146708 -198.01362 
L 99.207177 -201.192699 
L 100.267646 -204.279065 
L 101.328116 -207.268515 
L 102.388585 -210.157071 
L 103.449054 -212.940989 
L 104.509524 -215.616757 
L 105.569993 -218.181103 
L 106.630462 -220.630996 
L 107.690932 -222.96365 
L 108.751401 -225.176525 
L 109.811871 -227.267327 
L 110.87234 -229.234011 
L 111.932809 -231.074778 
L 112.993279 -232.788078 
L 114.053748 -234.372607 
L 115.114217 -235.827303 
L 116.174687 -237.151347 
L 117.235156 -238.344161 
L 118.295625 -239.405402 
L 119.356095 -240.334956 
L 120.416564 -241.132941 
L 121.477033 -241.799698 
L 122.537503 -242.335782 
L 123.597972 -242.741965 
L 124.658441 -243.019225 
L 125.718911 -243.168737 
L 126.77938 -243.191875 
L 127.83985 -243.090196 
L 128.900319 -242.865439 
L 129.960788 -242.519514 
L 131.021258 -242.054498 
L 132.081727 -241.472623 
L 133.142196 -240.776271 
L 134.202666 -239.967964 
L 135.263135 -239.050357 
L 136.323604 -238.026229 
L 137.384074 -236.898477 
L 138.444543 -235.6701 
L 139.505012 -234.344201 
L 140.565482 -232.92397 
L 141.625951 -231.412679 
L 142.686421 -229.813673 
L 143.74689 -228.130363 
L 144.807359 -226.366215 
L 145.867829 -224.524741 
L 146.928298 -222.609498 
L 147.988767 -220.624069 
L 149.049237 -218.572065 
L 150.109706 -216.457112 
L 151.170175 -214.282845 
L 152.230645 -212.052899 
L 153.291114 -209.770906 
L 154.351583 -207.440482 
L 155.412053 -205.065229 
L 156.472522 -202.648718 
L 157.532991 -200.194493 
L 158.593461 -197.706056 
L 159.65393 -195.186871 
L 160.7144 -192.640349 
L 161.774869 -190.069849 
L 162.835338 -187.478674 
L 163.895808 -184.870061 
L 164.956277 -182.247182 
L 166.016746 -179.613136 
L 167.077216 -176.970951 
L 168.137685 -174.323574 
L 169.198154 -171.673873 
L 170.258624 -169.024631 
L 171.319093 -166.378547 
L 172.379562 -163.738228 
L 173.440032 -161.106195 
L 174.500501 -158.484874 
L 175.560971 -155.8766 
L 176.62144 -153.283611 
L 177.681909 -150.708051 
L 178.742379 -148.15197 
L 179.802848 -145.617319 
L 180.863317 -143.105952 
L 181.923787 -140.619629 
L 182.984256 -138.160012 
L 184.044725 -135.728667 
L 185.105195 -133.327067 
L 186.165664 -130.956589 
L 187.226133 -128.618515 
L 188.286603 -126.314039 
L 189.347072 -124.044261 
L 190.407542 -121.810193 
L 191.468011 -119.612758 
L 192.52848 -117.452795 
L 193.58895 -115.331058 
L 194.649419 -113.248217 
L 195.709888 -111.204866 
L 196.770358 -109.201516 
L 197.830827 -107.238608 
L 198.891296 -105.316504 
L 199.951766 -103.435499 
L 201.012235 -101.595817 
L 202.072704 -99.797617 
L 203.133174 -98.040994 
L 204.193643 -96.325982 
L 205.254112 -94.652557 
L 206.314582 -93.020637 
L 207.375051 -91.430089 
L 208.435521 -89.880726 
L 209.49599 -88.372317 
L 210.556459 -86.904581 
L 211.616929 -85.477196 
L 212.677398 -84.089799 
L 213.737867 -82.741989 
L 214.798337 -81.433327 
L 215.858806 -80.163343 
L 216.919275 -78.931535 
L 217.979745 -77.737373 
L 219.040214 -76.580299 
L 220.100683 -75.459733 
L 221.161153 -74.37507 
L 222.221622 -73.325687 
L 223.282092 -72.310942 
L 224.342561 -71.330179 
L 225.40303 -70.382725 
L 226.4635 -69.467897 
L 227.523969 -68.585001 
L 228.584438 -67.733334 
L 229.644908 -66.912185 
L 230.705377 -66.12084 
L 231.765846 -65.358579 
L 232.826316 -64.624679 
L 233.886785 -63.918417 
L 234.947254 -63.23907 
L 236.007724 -62.585917 
L 237.068193 -61.958238 
L 238.128662 -61.355316 
L 239.189132 -60.776442 
L 240.249601 -60.220909 
L 241.310071 -59.688018 
L 242.37054 -59.177077 
L 243.431009 -58.687403 
L 244.491479 -58.21832 
L 245.551948 -57.769164 
L 246.612417 -57.339278 
L 247.672887 -56.928019 
L 248.733356 -56.534752 
L 249.793825 -56.158855 
L 250.854295 -55.799719 
L 251.914764 -55.456745 
L 252.975233 -55.129349 
L 254.035703 -54.816957 
L 255.096172 -54.519011 
L 256.156642 -54.234965 
L 257.217111 -53.964286 
L 258.27758 -53.706455 
L 259.33805 -53.460968 
L 260.398519 -53.227331 
L 261.458988 -53.005067 
L 262.519458 -52.793711 
L 263.579927 -52.592812 
L 264.640396 -52.401934 
L 265.700866 -52.220651 
L 266.761335 -52.048553 
L 267.821804 -51.885243 
L 268.882274 -51.730335 
L 269.942743 -51.583459 
L 271.003213 -51.444255 
L 272.063682 -51.312377 
L 273.124151 -51.18749 
L 274.184621 -51.069272 
L 275.24509 -50.957412 
L 276.305559 -50.851611 
L 277.366029 -50.751583 
L 278.426498 -50.657049 
L 279.486967 -50.567745 
L 280.547437 -50.483414 
L 281.607906 -50.403813 
L 282.668375 -50.328705 
L 283.728845 -50.257866 
L 284.789314 -50.191079 
L 285.849783 -50.128139 
L 286.910253 -50.068846 
L 287.970722 -50.013011 
L 289.031192 -49.960455 
L 290.091661 -49.911003 
L 291.15213 -49.864491 
L 292.2126 -49.820761 
L 293.273069 -49.779663 
L 294.333538 -49.741053 
L 295.394008 -49.704796 
L 296.454477 -49.670761 
L 297.514946 -49.638824 
L 298.575416 -49.608868 
L 299.635885 -49.58078 
L 300.696354 -49.554455 
L 301.756824 -49.529792 
L 302.817293 -49.506693 
L 303.877763 -49.485069 
L 304.938232 -49.464833 
L 305.998701 -49.445904 
L 307.059171 -49.428203 
L 308.11964 -49.411657 
L 309.180109 -49.396197 
L 310.240579 -49.381758 
L 311.301048 -49.368276 
L 312.361517 -49.355693 
L 313.421987 -49.343954 
L 314.482456 -49.333006 
L 315.542925 -49.322801 
L 316.603395 -49.31329 
L 317.663864 -49.30443 
L 318.724333 -49.29618 
L 319.784803 -49.288501 
L 320.845272 -49.281355 
L 321.905742 -49.274709 
L 322.966211 -49.26853 
L 324.02668 -49.262786 
L 325.08715 -49.25745 
L 326.147619 -49.252494 
L 327.208088 -49.247893 
L 328.268558 -49.243623 
L 329.329027 -49.239661 
L 330.389496 -49.235988 
L 331.449966 -49.232583 
L 332.510435 -49.229427 
L 333.570904 -49.226504 
L 334.631374 -49.223797 
L 335.691843 -49.221292 
L 336.752313 -49.218973 
L 337.812782 -49.216829 
L 338.873251 -49.214846 
L 339.933721 -49.213014 
L 340.99419 -49.211321 
L 342.054659 -49.209757 
L 343.115129 -49.208313 
L 344.175598 -49.206981 
L 345.236067 -49.205752 
L 346.296537 -49.204618 
L 347.357006 -49.203573 
L 348.417475 -49.20261 
L 349.477945 -49.201723 
L 350.538414 -49.200906 
L 351.598884 -49.200154 
L 352.659353 -49.199461 
L 353.719822 -49.198825 
L 354.780292 -49.198239 
L 355.840761 -49.197701 
L 356.90123 -49.197207 
L 357.9617 -49.196753 
L 359.022169 -49.196335 
L 360.082638 -49.195953 
L 361.143108 -49.195601 
L 362.203577 -49.195279 
L 363.264046 -49.194984 
L 364.324516 -49.194713 
L 365.384985 -49.194465 
L 366.445454 -49.194238 
L 367.505924 -49.19403 
L 368.566393 -49.19384 
L 369.626863 -49.193665 
L 370.687332 -49.193506 
L 371.747801 -49.193361 
L 372.808271 -49.193227 
L 373.86874 -49.193106 
L 374.929209 -49.192995 
L 375.989679 -49.192893 
L 377.050148 -49.192801 
L 378.110617 -49.192716 
L 379.171087 -49.19264 
L 380.231556 -49.192569 
L 381.292025 -49.192505 
L 382.352495 -49.192447 
L 383.412964 -49.192394 
L 384.473434 -49.192346 
L 385.533903 -49.192302 
L 386.594372 -49.192262 
L 387.654842 -49.192226 
L 388.715311 -49.192193 
L 389.77578 -49.192162 
L 390.83625 -49.192135 
L 391.896719 -49.19211 
L 392.957188 -49.192088 
L 394.017658 -49.192068 
L 395.078127 -49.192049 
L 396.138596 -49.192032 
L 397.199066 -49.192017 
L 398.259535 -49.192003 
L 399.320004 -49.191991 
L 400.380474 -49.191979 
L 401.440943 -49.191969 
L 402.501413 -49.19196 
L 403.561882 -49.191952 
L 404.622351 -49.191944 
L 405.682821 -49.191937 
L 406.74329 -49.191931 
L 407.803759 -49.191925 
L 408.864229 -49.19192 
L 409.924698 -49.191916 
L 410.985167 -49.191912 
L 412.045637 -49.191908 
L 413.106106 -49.191905 
L 414.166575 -49.191902 
L 415.227045 -49.191899 
L 416.287514 -49.191896 
L 417.347984 -49.191894 
L 418.408453 -49.191892 
L 419.468922 -49.191891 
L 420.529392 -49.191889 
L 421.589861 -49.191887 
L 422.65033 -49.191886 
L 423.7108 -49.191885 
L 424.771269 -49.191884 
L 425.831738 -49.191883 
L 426.892208 -49.191882 
L 427.952677 -49.191881 
L 429.013146 -49.191881 
L 430.073616 -49.19188 
L 431.134085 -49.19188 
L 432.194554 -49.191879 
L 433.255024 -49.191879 
L 434.315493 -49.191878 
L 435.375963 -49.191878 
L 436.436432 -49.191878 
L 437.496901 -49.191877 
L 438.557371 -49.191877 
L 439.61784 -49.191877 
L 440.678309 -49.191877 
L 441.738779 -49.191876 
L 442.799248 -49.191876 
L 443.859717 -49.191876 
L 444.920187 -49.191876 
L 445.980656 -49.191876 
L 447.041125 -49.191876 
L 448.101595 -49.191876 
L 449.162064 -49.191876 
L 450.222534 -49.191876 
L 451.283003 -49.191876 
L 452.343472 -49.191875 
L 453.403942 -49.191875 
L 454.464411 -49.191875 
L 455.52488 -49.191875 
L 456.58535 -49.191875 
L 457.645819 -49.191875 
L 458.706288 -49.191875 
L 459.766758 -49.191875 
L 460.827227 -49.191875 
L 461.887696 -49.191875 
L 462.948166 -49.191875 
L 464.008635 -49.191875 
L 465.069105 -49.191875 
L 466.129574 -49.191875 
L 466.129574 -49.191875 
L 466.129574 -49.191875 
L 465.069105 -49.191875 
L 464.008635 -49.191875 
L 462.948166 -49.191875 
L 461.887696 -49.191875 
L 460.827227 -49.191875 
L 459.766758 -49.191875 
L 458.706288 -49.191875 
L 457.645819 -49.191875 
L 456.58535 -49.191875 
L 455.52488 -49.191875 
L 454.464411 -49.191875 
L 453.403942 -49.191875 
L 452.343472 -49.191875 
L 451.283003 -49.191875 
L 450.222534 -49.191875 
L 449.162064 -49.191875 
L 448.101595 -49.191875 
L 447.041125 -49.191875 
L 445.980656 -49.191875 
L 444.920187 -49.191875 
L 443.859717 -49.191875 
L 442.799248 -49.191875 
L 441.738779 -49.191875 
L 440.678309 -49.191875 
L 439.61784 -49.191875 
L 438.557371 -49.191875 
L 437.496901 -49.191875 
L 436.436432 -49.191875 
L 435.375963 -49.191875 
L 434.315493 -49.191875 
L 433.255024 -49.191875 
L 432.194554 -49.191875 
L 431.134085 -49.191875 
L 430.073616 -49.191875 
L 429.013146 -49.191875 
L 427.952677 -49.191875 
L 426.892208 -49.191875 
L 425.831738 -49.191875 
L 424.771269 -49.191875 
L 423.7108 -49.191875 
L 422.65033 -49.191875 
L 421.589861 -49.191875 
L 420.529392 -49.191875 
L 419.468922 -49.191875 
L 418.408453 -49.191875 
L 417.347984 -49.191875 
L 416.287514 -49.191875 
L 415.227045 -49.191875 
L 414.166575 -49.191875 
L 413.106106 -49.191875 
L 412.045637 -49.191875 
L 410.985167 -49.191875 
L 409.924698 -49.191875 
L 408.864229 -49.191875 
L 407.803759 -49.191875 
L 406.74329 -49.191875 
L 405.682821 -49.191875 
L 404.622351 -49.191875 
L 403.561882 -49.191875 
L 402.501413 -49.191875 
L 401.440943 -49.191875 
L 400.380474 -49.191875 
L 399.320004 -49.191875 
L 398.259535 -49.191875 
L 397.199066 -49.191875 
L 396.138596 -49.191875 
L 395.078127 -49.191875 
L 394.017658 -49.191875 
L 392.957188 -49.191875 
L 391.896719 -49.191875 
L 390.83625 -49.191875 
L 389.77578 -49.191875 
L 388.715311 -49.191875 
L 387.654842 -49.191875 
L 386.594372 -49.191875 
L 385.533903 -49.191875 
L 384.473434 -49.191875 
L 383.412964 -49.191875 
L 382.352495 -49.191875 
L 381.292025 -49.191875 
L 380.231556 -49.191875 
L 379.171087 -49.191875 
L 378.110617 -49.191875 
L 377.050148 -49.191875 
L 375.989679 -49.191875 
L 374.929209 -49.191875 
L 373.86874 -49.191875 
L 372.808271 -49.191875 
L 371.747801 -49.191875 
L 370.687332 -49.191875 
L 369.626863 -49.191875 
L 368.566393 -49.191875 
L 367.505924 -49.191875 
L 366.445454 -49.191875 
L 365.384985 -49.191875 
L 364.324516 -49.191875 
L 363.264046 -49.191875 
L 362.203577 -49.191875 
L 361.143108 -49.191875 
L 360.082638 -49.191875 
L 359.022169 -49.191875 
L 357.9617 -49.191875 
L 356.90123 -49.191875 
L 355.840761 -49.191875 
L 354.780292 -49.191875 
L 353.719822 -49.191875 
L 352.659353 -49.191875 
L 351.598884 -49.191875 
L 350.538414 -49.191875 
L 349.477945 -49.191875 
L 348.417475 -49.191875 
L 347.357006 -49.191875 
L 346.296537 -49.191875 
L 345.236067 -49.191875 
L 344.175598 -49.191875 
L 343.115129 -49.191875 
L 342.054659 -49.191875 
L 340.99419 -49.191875 
L 339.933721 -49.191875 
L 338.873251 -49.191875 
L 337.812782 -49.191875 
L 336.752313 -49.191875 
L 335.691843 -49.191875 
L 334.631374 -49.191875 
L 333.570904 -49.191875 
L 332.510435 -49.191875 
L 331.449966 -49.191875 
L 330.389496 -49.191875 
L 329.329027 -49.191875 
L 328.268558 -49.191875 
L 327.208088 -49.191875 
L 326.147619 -49.191875 
L 325.08715 -49.191875 
L 324.02668 -49.191875 
L 322.966211 -49.191875 
L 321.905742 -49.191875 
L 320.845272 -49.191875 
L 319.784803 -49.191875 
L 318.724333 -49.191875 
L 317.663864 -49.191875 
L 316.603395 -49.191875 
L 315.542925 -49.191875 
L 314.482456 -49.191875 
L 313.421987 -49.191875 
L 312.361517 -49.191875 
L 311.301048 -49.191875 
L 310.240579 -49.191875 
L 309.180109 -49.191875 
L 308.11964 -49.191875 
L 307.059171 -49.191875 
L 305.998701 -49.191875 
L 304.938232 -49.191875 
L 303.877763 -49.191875 
L 302.817293 -49.191875 
L 301.756824 -49.191875 
L 300.696354 -49.191875 
L 299.635885 -49.191875 
L 298.575416 -49.191875 
L 297.514946 -49.191875 
L 296.454477 -49.191875 
L 295.394008 -49.191875 
L 294.333538 -49.191875 
L 293.273069 -49.191875 
L 292.2126 -49.191875 
L 291.15213 -49.191875 
L 290.091661 -49.191875 
L 289.031192 -49.191875 
L 287.970722 -49.191875 
L 286.910253 -49.191875 
L 285.849783 -49.191875 
L 284.789314 -49.191875 
L 283.728845 -49.191875 
L 282.668375 -49.191875 
L 281.607906 -49.191875 
L 280.547437 -49.191875 
L 279.486967 -49.191875 
L 278.426498 -49.191875 
L 277.366029 -49.191875 
L 276.305559 -49.191875 
L 275.24509 -49.191875 
L 274.184621 -49.191875 
L 273.124151 -49.191875 
L 272.063682 -49.191875 
L 271.003213 -49.191875 
L 269.942743 -49.191875 
L 268.882274 -49.191875 
L 267.821804 -49.191875 
L 266.761335 -49.191875 
L 265.700866 -49.191875 
L 264.640396 -49.191875 
L 263.579927 -49.191875 
L 262.519458 -49.191875 
L 261.458988 -49.191875 
L 260.398519 -49.191875 
L 259.33805 -49.191875 
L 258.27758 -49.191875 
L 257.217111 -49.191875 
L 256.156642 -49.191875 
L 255.096172 -49.191875 
L 254.035703 -49.191875 
L 252.975233 -49.191875 
L 251.914764 -49.191875 
L 250.854295 -49.191875 
L 249.793825 -49.191875 
L 248.733356 -49.191875 
L 247.672887 -49.191875 
L 246.612417 -49.191875 
L 245.551948 -49.191875 
L 244.491479 -49.191875 
L 243.431009 -49.191875 
L 242.37054 -49.191875 
L 241.310071 -49.191875 
L 240.249601 -49.191875 
L 239.189132 -49.191875 
L 238.128662 -49.191875 
L 237.068193 -49.191875 
L 236.007724 -49.191875 
L 234.947254 -49.191875 
L 233.886785 -49.191875 
L 232.826316 -49.191875 
L 231.765846 -49.191875 
L 230.705377 -49.191875 
L 229.644908 -49.191875 
L 228.584438 -49.191875 
L 227.523969 -49.191875 
L 226.4635 -49.191875 
L 225.40303 -49.191875 
L 224.342561 -49.191875 
L 223.282092 -49.191875 
L 222.221622 -49.191875 
L 221.161153 -49.191875 
L 220.100683 -49.191875 
L 219.040214 -49.191875 
L 217.979745 -49.191875 
L 216.919275 -49.191875 
L 215.858806 -49.191875 
L 214.798337 -49.191875 
L 213.737867 -49.191875 
L 212.677398 -49.191875 
L 211.616929 -49.191875 
L 210.556459 -49.191875 
L 209.49599 -49.191875 
L 208.435521 -49.191875 
L 207.375051 -49.191875 
L 206.314582 -49.191875 
L 205.254112 -49.191875 
L 204.193643 -49.191875 
L 203.133174 -49.191875 
L 202.072704 -49.191875 
L 201.012235 -49.191875 
L 199.951766 -49.191875 
L 198.891296 -49.191875 
L 197.830827 -49.191875 
L 196.770358 -49.191875 
L 195.709888 -49.191875 
L 194.649419 -49.191875 
L 193.58895 -49.191875 
L 192.52848 -49.191875 
L 191.468011 -49.191875 
L 190.407542 -49.191875 
L 189.347072 -49.191875 
L 188.286603 -49.191875 
L 187.226133 -49.191875 
L 186.165664 -49.191875 
L 185.105195 -49.191875 
L 184.044725 -49.191875 
L 182.984256 -49.191875 
L 181.923787 -49.191875 
L 180.863317 -49.191875 
L 179.802848 -49.191875 
L 178.742379 -49.191875 
L 177.681909 -49.191875 
L 176.62144 -49.191875 
L 175.560971 -49.191875 
L 174.500501 -49.191875 
L 173.440032 -49.191875 
L 172.379562 -49.191875 
L 171.319093 -49.191875 
L 170.258624 -49.191875 
L 169.198154 -49.191875 
L 168.137685 -49.191875 
L 167.077216 -49.191875 
L 166.016746 -49.191875 
L 164.956277 -49.191875 
L 163.895808 -49.191875 
L 162.835338 -49.191875 
L 161.774869 -49.191875 
L 160.7144 -49.191875 
L 159.65393 -49.191875 
L 158.593461 -49.191875 
L 157.532991 -49.191875 
L 156.472522 -49.191875 
L 155.412053 -49.191875 
L 154.351583 -49.191875 
L 153.291114 -49.191875 
L 152.230645 -49.191875 
L 151.170175 -49.191875 
L 150.109706 -49.191875 
L 149.049237 -49.191875 
L 147.988767 -49.191875 
L 146.928298 -49.191875 
L 145.867829 -49.191875 
L 144.807359 -49.191875 
L 143.74689 -49.191875 
L 142.686421 -49.191875 
L 141.625951 -49.191875 
L 140.565482 -49.191875 
L 139.505012 -49.191875 
L 138.444543 -49.191875 
L 137.384074 -49.191875 
L 136.323604 -49.191875 
L 135.263135 -49.191875 
L 134.202666 -49.191875 
L 133.142196 -49.191875 
L 132.081727 -49.191875 
L 131.021258 -49.191875 
L 129.960788 -49.191875 
L 128.900319 -49.191875 
L 127.83985 -49.191875 
L 126.77938 -49.191875 
L 125.718911 -49.191875 
L 124.658441 -49.191875 
L 123.597972 -49.191875 
L 122.537503 -49.191875 
L 121.477033 -49.191875 
L 120.416564 -49.191875 
L 119.356095 -49.191875 
L 118.295625 -49.191875 
L 117.235156 -49.191875 
L 116.174687 -49.191875 
L 115.114217 -49.191875 
L 114.053748 -49.191875 
L 112.993279 -49.191875 
L 111.932809 -49.191875 
L 110.87234 -49.191875 
L 109.811871 -49.191875 
L 108.751401 -49.191875 
L 107.690932 -49.191875 
L 106.630462 -49.191875 
L 105.569993 -49.191875 
L 104.509524 -49.191875 
L 103.449054 -49.191875 
L 102.388585 -49.191875 
L 101.328116 -49.191875 
L 100.267646 -49.191875 
L 99.207177 -49.191875 
L 98.146708 -49.191875 
L 97.086238 -49.191875 
L 96.025769 -49.191875 
L 94.9653 -49.191875 
L 93.90483 -49.191875 
L 92.844361 -49.191875 
L 91.783891 -49.191875 
L 90.723422 -49.191875 
L 89.662953 -49.191875 
L 88.602483 -49.191875 
L 87.542014 -49.191875 
L 86.481545 -49.191875 
L 85.421075 -49.191875 
L 84.360606 -49.191875 
L 83.300137 -49.191875 
L 82.239667 -49.191875 
L 81.179198 -49.191875 
L 80.118729 -49.191875 
L 79.058259 -49.191875 
L 77.99779 -49.191875 
L 76.937321 -49.191875 
L 75.876851 -49.191875 
L 74.816382 -49.191875 
L 73.755912 -49.191875 
L 72.695443 -49.191875 
L 71.634974 -49.191875 
L 70.574504 -49.191875 
L 69.514035 -49.191875 
L 68.453566 -49.191875 
L 67.393096 -49.191875 
L 66.332627 -49.191875 
L 65.272158 -49.191875 
L 64.211688 -49.191875 
L 63.151219 -49.191875 
L 62.09075 -49.191875 
L 61.03028 -49.191875 
L 59.969811 -49.191875 
L 58.909341 -49.191875 
L 57.848872 -49.191875 
L 56.788403 -49.191875 
L 55.727933 -49.191875 
L 54.667464 -49.191875 
L 53.606995 -49.191875 
L 52.546525 -49.191875 
L 51.486056 -49.191875 
L 50.425587 -49.191875 
L 49.365117 -49.191875 
L 48.304648 -49.191875 
L 47.244179 -49.191875 
L 46.183709 -49.191875 
L 45.12324 -49.191875 
L 44.06277 -49.191875 
L 43.002301 -49.191875 
z
" style="stroke: #3a6ea5; stroke-opacity: 0.25"/>
    </defs>
    <g clip-path="url(#p3e217f2226)">
     <use xlink:href="#ma5a83c36f2" x="0" y="276.123875" style="fill: #3a6ea5; fill-opacity: 0.25; stroke: #3a6ea5; stroke-opacity: 0.25"/>
    </g>
   </g>
   <g id="PolyCollection_2">
    <defs>
     <path id="m80a4079ea4" d="M 43.002301 -49.191875 
L 43.002301 -49.191875 
L 44.06277 -49.191884 
L 45.12324 -49.192024 
L 46.183709 -49.192631 
L 47.244179 -49.194262 
L 48.304648 -49.197695 
L 49.365117 -49.203922 
L 50.425587 -49.214147 
L 51.486056 -49.229778 
L 52.546525 -49.252421 
L 53.606995 -49.283874 
L 54.667464 -49.326115 
L 55.727933 -49.381294 
L 56.788403 -49.451722 
L 57.848872 -49.539861 
L 58.909341 -49.648312 
L 59.969811 -49.779799 
L 61.03028 -49.937159 
L 62.09075 -50.123328 
L 63.151219 -50.341324 
L 64.211688 -50.594235 
L 65.272158 -50.885202 
L 66.332627 -51.217402 
L 67.393096 -51.594035 
L 68.453566 -52.018308 
L 69.514035 -52.493414 
L 70.574504 -53.022524 
L 71.634974 -53.608761 
L 72.695443 -54.255192 
L 73.755912 -54.964809 
L 74.816382 -55.740511 
L 75.876851 -56.585095 
L 76.937321 -57.501233 
L 77.99779 -58.491463 
L 79.058259 -59.558174 
L 80.118729 -60.703591 
L 81.179198 -61.929762 
L 82.239667 -63.23855 
L 83.300137 -64.631614 
L 84.360606 -66.110405 
L 85.421075 -67.676153 
L 86.481545 -69.329859 
L 87.542014 -71.072286 
L 88.602483 -72.903952 
L 89.662953 -74.825122 
L 90.723422 -76.835808 
L 91.783891 -78.935759 
L 92.844361 -81.124458 
L 93.90483 -83.401124 
L 94.9653 -85.764707 
L 96.025769 -88.213889 
L 97.086238 -90.747082 
L 98.146708 -93.362436 
L 99.207177 -96.057836 
L 100.267646 -98.830905 
L 101.328116 -101.679016 
L 102.388585 -104.599289 
L 103.449054 -107.588603 
L 104.509524 -110.643601 
L 105.569993 -113.7607 
L 106.630462 -116.936099 
L 107.690932 -120.165788 
L 108.751401 -123.445559 
L 109.811871 -126.771021 
L 110.87234 -130.137605 
L 111.932809 -133.540582 
L 112.993279 -136.975075 
L 114.053748 -140.436069 
L 115.114217 -143.918432 
L 116.174687 -147.416921 
L 117.235156 -150.926202 
L 118.295625 -154.440865 
L 119.356095 -157.955435 
L 120.416564 -161.464393 
L 121.477033 -164.962186 
L 122.537503 -168.443246 
L 123.597972 -171.902001 
L 124.658441 -175.332898 
L 125.718911 -178.730409 
L 126.77938 -182.089051 
L 127.83985 -185.403402 
L 128.900319 -188.668112 
L 129.960788 -191.877918 
L 131.021258 -195.027657 
L 132.081727 -198.112283 
L 133.142196 -201.126873 
L 134.202666 -204.066648 
L 135.263135 -206.926976 
L 136.323604 -209.70339 
L 137.384074 -212.391592 
L 138.444543 -214.98747 
L 139.505012 -217.487101 
L 140.565482 -219.886766 
L 141.625951 -222.182949 
L 142.686421 -224.372354 
L 143.74689 -226.451904 
L 144.807359 -228.418749 
L 145.867829 -230.270272 
L 146.928298 -232.004094 
L 147.988767 -233.618073 
L 149.049237 -235.110311 
L 150.109706 -236.479154 
L 151.170175 -237.723193 
L 152.230645 -238.841266 
L 153.291114 -239.832455 
L 154.351583 -240.696089 
L 155.412053 -241.431739 
L 156.472522 -242.039217 
L 157.532991 -242.518571 
L 158.593461 -242.870085 
L 159.65393 -243.094273 
L 160.7144 -243.191875 
L 161.774869 -243.163849 
L 162.835338 -243.011367 
L 163.895808 -242.735812 
L 164.956277 -242.338766 
L 166.016746 -241.822004 
L 167.077216 -241.187489 
L 168.137685 -240.437363 
L 169.198154 -239.573937 
L 170.258624 -238.599685 
L 171.319093 -237.517233 
L 172.379562 -236.329352 
L 173.440032 -235.038947 
L 174.500501 -233.649051 
L 175.560971 -232.16281 
L 176.62144 -230.583479 
L 177.681909 -228.914409 
L 178.742379 -227.159041 
L 179.802848 -225.32089 
L 180.863317 -223.403543 
L 181.923787 -221.410645 
L 182.984256 -219.345889 
L 184.044725 -217.213011 
L 185.105195 -215.015777 
L 186.165664 -212.757975 
L 187.226133 -210.443407 
L 188.286603 -208.075882 
L 189.347072 -205.659202 
L 190.407542 -203.19716 
L 191.468011 -200.693531 
L 192.52848 -198.15206 
L 193.58895 -195.576462 
L 194.649419 -192.970409 
L 195.709888 -190.337526 
L 196.770358 -187.681384 
L 197.830827 -185.005497 
L 198.891296 -182.313311 
L 199.951766 -179.608202 
L 201.012235 -176.893473 
L 202.072704 -174.172345 
L 203.133174 -171.447956 
L 204.193643 -168.723357 
L 205.254112 -166.001505 
L 206.314582 -163.285266 
L 207.375051 -160.577406 
L 208.435521 -157.880593 
L 209.49599 -155.197394 
L 210.556459 -152.53027 
L 211.616929 -149.881579 
L 212.677398 -147.253572 
L 213.737867 -144.648393 
L 214.798337 -142.06808 
L 215.858806 -139.51456 
L 216.919275 -136.989656 
L 217.979745 -134.495082 
L 219.040214 -132.032443 
L 220.100683 -129.603241 
L 221.161153 -127.208872 
L 222.221622 -124.850626 
L 223.282092 -122.529694 
L 224.342561 -120.247163 
L 225.40303 -118.004023 
L 226.4635 -115.801166 
L 227.523969 -113.639388 
L 228.584438 -111.519394 
L 229.644908 -109.441799 
L 230.705377 -107.407127 
L 231.765846 -105.415821 
L 232.826316 -103.468237 
L 233.886785 -101.564655 
L 234.947254 -99.705277 
L 236.007724 -97.890229 
L 237.068193 -96.119568 
L 238.128662 -94.393282 
L 239.189132 -92.711295 
L 240.249601 -91.073468 
L 241.310071 -89.479603 
L 242.37054 -87.929447 
L 243.431009 -86.422691 
L 244.491479 -84.95898 
L 245.551948 -83.53791 
L 246.612417 -82.159034 
L 247.672887 -80.821861 
L 248.733356 -79.525866 
L 249.793825 -78.270486 
L 250.854295 -77.055125 
L 251.914764 -75.879159 
L 252.975233 -74.741934 
L 254.035703 -73.642775 
L 255.096172 -72.580981 
L 256.156642 -71.555833 
L 257.217111 -70.566595 
L 258.27758 -69.612513 
L 259.33805 -68.692824 
L 260.398519 -67.806751 
L 261.458988 -66.953508 
L 262.519458 -66.132305 
L 263.579927 -65.342344 
L 264.640396 -64.582823 
L 265.700866 -63.852941 
L 266.761335 -63.151895 
L 267.821804 -62.478884 
L 268.882274 -61.833108 
L 269.942743 -61.213774 
L 271.003213 -60.620093 
L 272.063682 -60.05128 
L 273.124151 -59.506562 
L 274.184621 -58.985171 
L 275.24509 -58.48635 
L 276.305559 -58.009351 
L 277.366029 -57.55344 
L 278.426498 -57.117891 
L 279.486967 -56.701994 
L 280.547437 -56.305049 
L 281.607906 -55.926372 
L 282.668375 -55.565291 
L 283.728845 -55.22115 
L 284.789314 -54.893306 
L 285.849783 -54.581133 
L 286.910253 -54.284018 
L 287.970722 -54.001366 
L 289.031192 -53.732596 
L 290.091661 -53.477142 
L 291.15213 -53.234456 
L 292.2126 -53.004003 
L 293.273069 -52.785266 
L 294.333538 -52.577743 
L 295.394008 -52.380947 
L 296.454477 -52.194408 
L 297.514946 -52.017668 
L 298.575416 -51.850289 
L 299.635885 -51.691844 
L 300.696354 -51.541922 
L 301.756824 -51.400128 
L 302.817293 -51.26608 
L 303.877763 -51.13941 
L 304.938232 -51.019765 
L 305.998701 -50.906803 
L 307.059171 -50.800197 
L 308.11964 -50.699634 
L 309.180109 -50.604813 
L 310.240579 -50.515442 
L 311.301048 -50.431246 
L 312.361517 -50.351959 
L 313.421987 -50.277325 
L 314.482456 -50.207103 
L 315.542925 -50.141059 
L 316.603395 -50.078972 
L 317.663864 -50.020627 
L 318.724333 -49.965824 
L 319.784803 -49.914369 
L 320.845272 -49.866077 
L 321.905742 -49.820773 
L 322.966211 -49.77829 
L 324.02668 -49.738469 
L 325.08715 -49.701159 
L 326.147619 -49.666215 
L 327.208088 -49.633501 
L 328.268558 -49.602888 
L 329.329027 -49.574252 
L 330.389496 -49.547477 
L 331.449966 -49.522452 
L 332.510435 -49.499072 
L 333.570904 -49.477238 
L 334.631374 -49.456856 
L 335.691843 -49.437838 
L 336.752313 -49.420099 
L 337.812782 -49.403559 
L 338.873251 -49.388145 
L 339.933721 -49.373785 
L 340.99419 -49.360413 
L 342.054659 -49.347965 
L 343.115129 -49.336383 
L 344.175598 -49.32561 
L 345.236067 -49.315594 
L 346.296537 -49.306286 
L 347.357006 -49.297639 
L 348.417475 -49.289609 
L 349.477945 -49.282155 
L 350.538414 -49.275238 
L 351.598884 -49.268823 
L 352.659353 -49.262876 
L 353.719822 -49.257364 
L 354.780292 -49.252257 
L 355.840761 -49.247528 
L 356.90123 -49.243151 
L 357.9617 -49.2391 
L 359.022169 -49.235353 
L 360.082638 -49.231889 
L 361.143108 -49.228688 
L 362.203577 -49.22573 
L 363.264046 -49.222998 
L 364.324516 -49.220476 
L 365.384985 -49.218149 
L 366.445454 -49.216003 
L 367.505924 -49.214023 
L 368.566393 -49.212199 
L 369.626863 -49.210518 
L 370.687332 -49.20897 
L 371.747801 -49.207545 
L 372.808271 -49.206233 
L 373.86874 -49.205026 
L 374.929209 -49.203917 
L 375.989679 -49.202897 
L 377.050148 -49.201959 
L 378.110617 -49.201098 
L 379.171087 -49.200308 
L 380.231556 -49.199582 
L 381.292025 -49.198917 
L 382.352495 -49.198306 
L 383.412964 -49.197746 
L 384.473434 -49.197233 
L 385.533903 -49.196764 
L 386.594372 -49.196333 
L 387.654842 -49.195939 
L 388.715311 -49.195579 
L 389.77578 -49.195249 
L 390.83625 -49.194948 
L 391.896719 -49.194672 
L 392.957188 -49.194421 
L 394.017658 -49.194191 
L 395.078127 -49.193981 
L 396.138596 -49.193789 
L 397.199066 -49.193614 
L 398.259535 -49.193455 
L 399.320004 -49.19331 
L 400.380474 -49.193177 
L 401.440943 -49.193057 
L 402.501413 -49.192947 
L 403.561882 -49.192847 
L 404.622351 -49.192756 
L 405.682821 -49.192673 
L 406.74329 -49.192598 
L 407.803759 -49.19253 
L 408.864229 -49.192468 
L 409.924698 -49.192411 
L 410.985167 -49.19236 
L 412.045637 -49.192313 
L 413.106106 -49.192271 
L 414.166575 -49.192233 
L 415.227045 -49.192198 
L 416.287514 -49.192167 
L 417.347984 -49.192139 
L 418.408453 -49.192113 
L 419.468922 -49.192089 
L 420.529392 -49.192068 
L 421.589861 -49.192049 
L 422.65033 -49.192032 
L 423.7108 -49.192016 
L 424.771269 -49.192002 
L 425.831738 -49.19199 
L 426.892208 -49.191978 
L 427.952677 -49.191968 
L 429.013146 -49.191958 
L 430.073616 -49.19195 
L 431.134085 -49.191942 
L 432.194554 -49.191935 
L 433.255024 -49.191929 
L 434.315493 -49.191924 
L 435.375963 -49.191919 
L 436.436432 -49.191914 
L 437.496901 -49.19191 
L 438.557371 -49.191906 
L 439.61784 -49.191903 
L 440.678309 -49.1919 
L 441.738779 -49.191898 
L 442.799248 -49.191895 
L 443.859717 -49.191893 
L 444.920187 -49.191891 
L 445.980656 -49.191889 
L 447.041125 -49.191888 
L 448.101595 -49.191887 
L 449.162064 -49.191885 
L 450.222534 -49.191884 
L 451.283003 -49.191883 
L 452.343472 -49.191882 
L 453.403942 -49.191882 
L 454.464411 -49.191881 
L 455.52488 -49.19188 
L 456.58535 -49.19188 
L 457.645819 -49.191879 
L 458.706288 -49.191879 
L 459.766758 -49.191878 
L 460.827227 -49.191878 
L 461.887696 -49.191878 
L 462.948166 -49.191877 
L 464.008635 -49.191877 
L 465.069105 -49.191877 
L 466.129574 -49.191877 
L 466.129574 -49.191875 
L 466.129574 -49.191875 
L 465.069105 -49.191875 
L 464.008635 -49.191875 
L 462.948166 -49.191875 
L 461.887696 -49.191875 
L 460.827227 -49.191875 
L 459.766758 -49.191875 
L 458.706288 -49.191875 
L 457.645819 -49.191875 
L 456.58535 -49.191875 
L 455.52488 -49.191875 
L 454.464411 -49.191875 
L 453.403942 -49.191875 
L 452.343472 -49.191875 
L 451.283003 -49.191875 
L 450.222534 -49.191875 
L 449.162064 -49.191875 
L 448.101595 -49.191875 
L 447.041125 -49.191875 
L 445.980656 -49.191875 
L 444.920187 -49.191875 
L 443.859717 -49.191875 
L 442.799248 -49.191875 
L 441.738779 -49.191875 
L 440.678309 -49.191875 
L 439.61784 -49.191875 
L 438.557371 -49.191875 
L 437.496901 -49.191875 
L 436.436432 -49.191875 
L 435.375963 -49.191875 
L 434.315493 -49.191875 
L 433.255024 -49.191875 
L 432.194554 -49.191875 
L 431.134085 -49.191875 
L 430.073616 -49.191875 
L 429.013146 -49.191875 
L 427.952677 -49.191875 
L 426.892208 -49.191875 
L 425.831738 -49.191875 
L 424.771269 -49.191875 
L 423.7108 -49.191875 
L 422.65033 -49.191875 
L 421.589861 -49.191875 
L 420.529392 -49.191875 
L 419.468922 -49.191875 
L 418.408453 -49.191875 
L 417.347984 -49.191875 
L 416.287514 -49.191875 
L 415.227045 -49.191875 
L 414.166575 -49.191875 
L 413.106106 -49.191875 
L 412.045637 -49.191875 
L 410.985167 -49.191875 
L 409.924698 -49.191875 
L 408.864229 -49.191875 
L 407.803759 -49.191875 
L 406.74329 -49.191875 
L 405.682821 -49.191875 
L 404.622351 -49.191875 
L 403.561882 -49.191875 
L 402.501413 -49.191875 
L 401.440943 -49.191875 
L 400.380474 -49.191875 
L 399.320004 -49.191875 
L 398.259535 -49.191875 
L 397.199066 -49.191875 
L 396.138596 -49.191875 
L 395.078127 -49.191875 
L 394.017658 -49.191875 
L 392.957188 -49.191875 
L 391.896719 -49.191875 
L 390.83625 -49.191875 
L 389.77578 -49.191875 
L 388.715311 -49.191875 
L 387.654842 -49.191875 
L 386.594372 -49.191875 
L 385.533903 -49.191875 
L 384.473434 -49.191875 
L 383.412964 -49.191875 
L 382.352495 -49.191875 
L 381.292025 -49.191875 
L 380.231556 -49.191875 
L 379.171087 -49.191875 
L 378.110617 -49.191875 
L 377.050148 -49.191875 
L 375.989679 -49.191875 
L 374.929209 -49.191875 
L 373.86874 -49.191875 
L 372.808271 -49.191875 
L 371.747801 -49.191875 
L 370.687332 -49.191875 
L 369.626863 -49.191875 
L 368.566393 -49.191875 
L 367.505924 -49.191875 
L 366.445454 -49.191875 
L 365.384985 -49.191875 
L 364.324516 -49.191875 
L 363.264046 -49.191875 
L 362.203577 -49.191875 
L 361.143108 -49.191875 
L 360.082638 -49.191875 
L 359.022169 -49.191875 
L 357.9617 -49.191875 
L 356.90123 -49.191875 
L 355.840761 -49.191875 
L 354.780292 -49.191875 
L 353.719822 -49.191875 
L 352.659353 -49.191875 
L 351.598884 -49.191875 
L 350.538414 -49.191875 
L 349.477945 -49.191875 
L 348.417475 -49.191875 
L 347.357006 -49.191875 
L 346.296537 -49.191875 
L 345.236067 -49.191875 
L 344.175598 -49.191875 
L 343.115129 -49.191875 
L 342.054659 -49.191875 
L 340.99419 -49.191875 
L 339.933721 -49.191875 
L 338.873251 -49.191875 
L 337.812782 -49.191875 
L 336.752313 -49.191875 
L 335.691843 -49.191875 
L 334.631374 -49.191875 
L 333.570904 -49.191875 
L 332.510435 -49.191875 
L 331.449966 -49.191875 
L 330.389496 -49.191875 
L 329.329027 -49.191875 
L 328.268558 -49.191875 
L 327.208088 -49.191875 
L 326.147619 -49.191875 
L 325.08715 -49.191875 
L 324.02668 -49.191875 
L 322.966211 -49.191875 
L 321.905742 -49.191875 
L 320.845272 -49.191875 
L 319.784803 -49.191875 
L 318.724333 -49.191875 
L 317.663864 -49.191875 
L 316.603395 -49.191875 
L 315.542925 -49.191875 
L 314.482456 -49.191875 
L 313.421987 -49.191875 
L 312.361517 -49.191875 
L 311.301048 -49.191875 
L 310.240579 -49.191875 
L 309.180109 -49.191875 
L 308.11964 -49.191875 
L 307.059171 -49.191875 
L 305.998701 -49.191875 
L 304.938232 -49.191875 
L 303.877763 -49.191875 
L 302.817293 -49.191875 
L 301.756824 -49.191875 
L 300.696354 -49.191875 
L 299.635885 -49.191875 
L 298.575416 -49.191875 
L 297.514946 -49.191875 
L 296.454477 -49.191875 
L 295.394008 -49.191875 
L 294.333538 -49.191875 
L 293.273069 -49.191875 
L 292.2126 -49.191875 
L 291.15213 -49.191875 
L 290.091661 -49.191875 
L 289.031192 -49.191875 
L 287.970722 -49.191875 
L 286.910253 -49.191875 
L 285.849783 -49.191875 
L 284.789314 -49.191875 
L 283.728845 -49.191875 
L 282.668375 -49.191875 
L 281.607906 -49.191875 
L 280.547437 -49.191875 
L 279.486967 -49.191875 
L 278.426498 -49.191875 
L 277.366029 -49.191875 
L 276.305559 -49.191875 
L 275.24509 -49.191875 
L 274.184621 -49.191875 
L 273.124151 -49.191875 
L 272.063682 -49.191875 
L 271.003213 -49.191875 
L 269.942743 -49.191875 
L 268.882274 -49.191875 
L 267.821804 -49.191875 
L 266.761335 -49.191875 
L 265.700866 -49.191875 
L 264.640396 -49.191875 
L 263.579927 -49.191875 
L 262.519458 -49.191875 
L 261.458988 -49.191875 
L 260.398519 -49.191875 
L 259.33805 -49.191875 
L 258.27758 -49.191875 
L 257.217111 -49.191875 
L 256.156642 -49.191875 
L 255.096172 -49.191875 
L 254.035703 -49.191875 
L 252.975233 -49.191875 
L 251.914764 -49.191875 
L 250.854295 -49.191875 
L 249.793825 -49.191875 
L 248.733356 -49.191875 
L 247.672887 -49.191875 
L 246.612417 -49.191875 
L 245.551948 -49.191875 
L 244.491479 -49.191875 
L 243.431009 -49.191875 
L 242.37054 -49.191875 
L 241.310071 -49.191875 
L 240.249601 -49.191875 
L 239.189132 -49.191875 
L 238.128662 -49.191875 
L 237.068193 -49.191875 
L 236.007724 -49.191875 
L 234.947254 -49.191875 
L 233.886785 -49.191875 
L 232.826316 -49.191875 
L 231.765846 -49.191875 
L 230.705377 -49.191875 
L 229.644908 -49.191875 
L 228.584438 -49.191875 
L 227.523969 -49.191875 
L 226.4635 -49.191875 
L 225.40303 -49.191875 
L 224.342561 -49.191875 
L 223.282092 -49.191875 
L 222.221622 -49.191875 
L 221.161153 -49.191875 
L 220.100683 -49.191875 
L 219.040214 -49.191875 
L 217.979745 -49.191875 
L 216.919275 -49.191875 
L 215.858806 -49.191875 
L 214.798337 -49.191875 
L 213.737867 -49.191875 
L 212.677398 -49.191875 
L 211.616929 -49.191875 
L 210.556459 -49.191875 
L 209.49599 -49.191875 
L 208.435521 -49.191875 
L 207.375051 -49.191875 
L 206.314582 -49.191875 
L 205.254112 -49.191875 
L 204.193643 -49.191875 
L 203.133174 -49.191875 
L 202.072704 -49.191875 
L 201.012235 -49.191875 
L 199.951766 -49.191875 
L 198.891296 -49.191875 
L 197.830827 -49.191875 
L 196.770358 -49.191875 
L 195.709888 -49.191875 
L 194.649419 -49.191875 
L 193.58895 -49.191875 
L 192.52848 -49.191875 
L 191.468011 -49.191875 
L 190.407542 -49.191875 
L 189.347072 -49.191875 
L 188.286603 -49.191875 
L 187.226133 -49.191875 
L 186.165664 -49.191875 
L 185.105195 -49.191875 
L 184.044725 -49.191875 
L 182.984256 -49.191875 
L 181.923787 -49.191875 
L 180.863317 -49.191875 
L 179.802848 -49.191875 
L 178.742379 -49.191875 
L 177.681909 -49.191875 
L 176.62144 -49.191875 
L 175.560971 -49.191875 
L 174.500501 -49.191875 
L 173.440032 -49.191875 
L 172.379562 -49.191875 
L 171.319093 -49.191875 
L 170.258624 -49.191875 
L 169.198154 -49.191875 
L 168.137685 -49.191875 
L 167.077216 -49.191875 
L 166.016746 -49.191875 
L 164.956277 -49.191875 
L 163.895808 -49.191875 
L 162.835338 -49.191875 
L 161.774869 -49.191875 
L 160.7144 -49.191875 
L 159.65393 -49.191875 
L 158.593461 -49.191875 
L 157.532991 -49.191875 
L 156.472522 -49.191875 
L 155.412053 -49.191875 
L 154.351583 -49.191875 
L 153.291114 -49.191875 
L 152.230645 -49.191875 
L 151.170175 -49.191875 
L 150.109706 -49.191875 
L 149.049237 -49.191875 
L 147.988767 -49.191875 
L 146.928298 -49.191875 
L 145.867829 -49.191875 
L 144.807359 -49.191875 
L 143.74689 -49.191875 
L 142.686421 -49.191875 
L 141.625951 -49.191875 
L 140.565482 -49.191875 
L 139.505012 -49.191875 
L 138.444543 -49.191875 
L 137.384074 -49.191875 
L 136.323604 -49.191875 
L 135.263135 -49.191875 
L 134.202666 -49.191875 
L 133.142196 -49.191875 
L 132.081727 -49.191875 
L 131.021258 -49.191875 
L 129.960788 -49.191875 
L 128.900319 -49.191875 
L 127.83985 -49.191875 
L 126.77938 -49.191875 
L 125.718911 -49.191875 
L 124.658441 -49.191875 
L 123.597972 -49.191875 
L 122.537503 -49.191875 
L 121.477033 -49.191875 
L 120.416564 -49.191875 
L 119.356095 -49.191875 
L 118.295625 -49.191875 
L 117.235156 -49.191875 
L 116.174687 -49.191875 
L 115.114217 -49.191875 
L 114.053748 -49.191875 
L 112.993279 -49.191875 
L 111.932809 -49.191875 
L 110.87234 -49.191875 
L 109.811871 -49.191875 
L 108.751401 -49.191875 
L 107.690932 -49.191875 
L 106.630462 -49.191875 
L 105.569993 -49.191875 
L 104.509524 -49.191875 
L 103.449054 -49.191875 
L 102.388585 -49.191875 
L 101.328116 -49.191875 
L 100.267646 -49.191875 
L 99.207177 -49.191875 
L 98.146708 -49.191875 
L 97.086238 -49.191875 
L 96.025769 -49.191875 
L 94.9653 -49.191875 
L 93.90483 -49.191875 
L 92.844361 -49.191875 
L 91.783891 -49.191875 
L 90.723422 -49.191875 
L 89.662953 -49.191875 
L 88.602483 -49.191875 
L 87.542014 -49.191875 
L 86.481545 -49.191875 
L 85.421075 -49.191875 
L 84.360606 -49.191875 
L 83.300137 -49.191875 
L 82.239667 -49.191875 
L 81.179198 -49.191875 
L 80.118729 -49.191875 
L 79.058259 -49.191875 
L 77.99779 -49.191875 
L 76.937321 -49.191875 
L 75.876851 -49.191875 
L 74.816382 -49.191875 
L 73.755912 -49.191875 
L 72.695443 -49.191875 
L 71.634974 -49.191875 
L 70.574504 -49.191875 
L 69.514035 -49.191875 
L 68.453566 -49.191875 
L 67.393096 -49.191875 
L 66.332627 -49.191875 
L 65.272158 -49.191875 
L 64.211688 -49.191875 
L 63.151219 -49.191875 
L 62.09075 -49.191875 
L 61.03028 -49.191875 
L 59.969811 -49.191875 
L 58.909341 -49.191875 
L 57.848872 -49.191875 
L 56.788403 -49.191875 
L 55.727933 -49.191875 
L 54.667464 -49.191875 
L 53.606995 -49.191875 
L 52.546525 -49.191875 
L 51.486056 -49.191875 
L 50.425587 -49.191875 
L 49.365117 -49.191875 
L 48.304648 -49.191875 
L 47.244179 -49.191875 
L 46.183709 -49.191875 
L 45.12324 -49.191875 
L 44.06277 -49.191875 
L 43.002301 -49.191875 
z
" style="stroke: #c0392b; stroke-opacity: 0.18"/>
    </defs>
    <g clip-path="url(#p3e217f2226)">
     <use xlink:href="#m80a4079ea4" x="0" y="276.123875" style="fill: #c0392b; fill-opacity: 0.18; stroke: #c0392b; stroke-opacity: 0.18"/>
    </g>
   </g>
   <g id="matplotlib.axis_1">
    <g id="xtick_1">
     <g id="line2d_1">
      <path d="M 43.002301 236.632 
L 43.002301 23.232 
" clip-path="url(#p3e217f2226)" style="fill: none; stroke: #b0b0b0; stroke-opacity: 0.22; stroke-width: 0.8; stroke-linecap: square"/>
     </g>
     <g id="line2d_2">
      <defs>
       <path id="me809b4fd88" d="M 0 0 
L 0 3.5 
" style="stroke: #000000; stroke-width: 0.8"/>
      </defs>
      <g>
       <use xlink:href="#me809b4fd88" x="43.002301" y="236.632" style="stroke: #000000; stroke-width: 0.8"/>
      </g>
     </g>
     <g id="text_1">
      <text style="font: 11px 'DejaVu Sans', 'Bitstream Vera Sans', 'Computer Modern Sans Serif', 'Lucida Grande', 'Verdana', 'Geneva', 'Lucid', 'Arial', 'Helvetica', 'Avant Garde', sans-serif; text-anchor: middle" x="43.002301" y="251.990281" transform="rotate(-0 43.002301 251.990281)">0</text>
     </g>
    </g>
    <g id="xtick_2">
     <g id="line2d_3">
      <path d="M 113.523513 236.632 
L 113.523513 23.232 
" clip-path="url(#p3e217f2226)" style="fill: none; stroke: #b0b0b0; stroke-opacity: 0.22; stroke-width: 0.8; stroke-linecap: square"/>
     </g>
     <g id="line2d_4">
      <g>
       <use xlink:href="#me809b4fd88" x="113.523513" y="236.632" style="stroke: #000000; stroke-width: 0.8"/>
      </g>
     </g>
     <g id="text_2">
      <text style="font: 11px 'DejaVu Sans', 'Bitstream Vera Sans', 'Computer Modern Sans Serif', 'Lucida Grande', 'Verdana', 'Geneva', 'Lucid', 'Arial', 'Helvetica', 'Avant Garde', sans-serif; text-anchor: middle" x="113.523513" y="251.990281" transform="rotate(-0 113.523513 251.990281)">1</text>
     </g>
    </g>
    <g id="xtick_3">
     <g id="line2d_5">
      <path d="M 184.044725 236.632 
L 184.044725 23.232 
" clip-path="url(#p3e217f2226)" style="fill: none; stroke: #b0b0b0; stroke-opacity: 0.22; stroke-width: 0.8; stroke-linecap: square"/>
     </g>
     <g id="line2d_6">
      <g>
       <use xlink:href="#me809b4fd88" x="184.044725" y="236.632" style="stroke: #000000; stroke-width: 0.8"/>
      </g>
     </g>
     <g id="text_3">
      <text style="font: 11px 'DejaVu Sans', 'Bitstream Vera Sans', 'Computer Modern Sans Serif', 'Lucida Grande', 'Verdana', 'Geneva', 'Lucid', 'Arial', 'Helvetica', 'Avant Garde', sans-serif; text-anchor: middle" x="184.044725" y="251.990281" transform="rotate(-0 184.044725 251.990281)">2</text>
     </g>
    </g>
    <g id="xtick_4">
     <g id="line2d_7">
      <path d="M 254.565938 236.632 
L 254.565938 23.232 
" clip-path="url(#p3e217f2226)" style="fill: none; stroke: #b0b0b0; stroke-opacity: 0.22; stroke-width: 0.8; stroke-linecap: square"/>
     </g>
     <g id="line2d_8">
      <g>
       <use xlink:href="#me809b4fd88" x="254.565938" y="236.632" style="stroke: #000000; stroke-width: 0.8"/>
      </g>
     </g>
     <g id="text_4">
      <text style="font: 11px 'DejaVu Sans', 'Bitstream Vera Sans', 'Computer Modern Sans Serif', 'Lucida Grande', 'Verdana', 'Geneva', 'Lucid', 'Arial', 'Helvetica', 'Avant Garde', sans-serif; text-anchor: middle" x="254.565938" y="251.990281" transform="rotate(-0 254.565938 251.990281)">3</text>
     </g>
    </g>
    <g id="xtick_5">
     <g id="line2d_9">
      <path d="M 325.08715 236.632 
L 325.08715 23.232 
" clip-path="url(#p3e217f2226)" style="fill: none; stroke: #b0b0b0; stroke-opacity: 0.22; stroke-width: 0.8; stroke-linecap: square"/>
     </g>
     <g id="line2d_10">
      <g>
       <use xlink:href="#me809b4fd88" x="325.08715" y="236.632" style="stroke: #000000; stroke-width: 0.8"/>
      </g>
     </g>
     <g id="text_5">
      <text style="font: 11px 'DejaVu Sans', 'Bitstream Vera Sans', 'Computer Modern Sans Serif', 'Lucida Grande', 'Verdana', 'Geneva', 'Lucid', 'Arial', 'Helvetica', 'Avant Garde', sans-serif; text-anchor: middle" x="325.08715" y="251.990281" transform="rotate(-0 325.08715 251.990281)">4</text>
     </g>
    </g>
    <g id="xtick_6">
     <g id="line2d_11">
      <path d="M 395.608362 236.632 
L 395.608362 23.232 
" clip-path="url(#p3e217f2226)" style="fill: none; stroke: #b0b0b0; stroke-opacity: 0.22; stroke-width: 0.8; stroke-linecap: square"/>
     </g>
     <g id="line2d_12">
      <g>
       <use xlink:href="#me809b4fd88" x="395.608362" y="236.632" style="stroke: #000000; stroke-width: 0.8"/>
      </g>
     </g>
     <g id="text_6">
      <text style="font: 11px 'DejaVu Sans', 'Bitstream Vera Sans', 'Computer Modern Sans Serif', 'Lucida Grande', 'Verdana', 'Geneva', 'Lucid', 'Arial', 'Helvetica', 'Avant Garde', sans-serif; text-anchor: middle" x="395.608362" y="251.990281" transform="rotate(-0 395.608362 251.990281)">5</text>
     </g>
    </g>
    <g id="xtick_7">
     <g id="line2d_13">
      <path d="M 466.129574 236.632 
L 466.129574 23.232 
" clip-path="url(#p3e217f2226)" style="fill: none; stroke: #b0b0b0; stroke-opacity: 0.22; stroke-width: 0.8; stroke-linecap: square"/>
     </g>
     <g id="line2d_14">
      <g>
       <use xlink:href="#me809b4fd88" x="466.129574" y="236.632" style="stroke: #000000; stroke-width: 0.8"/>
      </g>
     </g>
     <g id="text_7">
      <text style="font: 11px 'DejaVu Sans', 'Bitstream Vera Sans', 'Computer Modern Sans Serif', 'Lucida Grande', 'Verdana', 'Geneva', 'Lucid', 'Arial', 'Helvetica', 'Avant Garde', sans-serif; text-anchor: middle" x="466.129574" y="251.990281" transform="rotate(-0 466.129574 251.990281)">6</text>
     </g>
    </g>
    <g id="text_8">
     <!-- $k$ -->
     <g transform="translate(251.375938 266.636219)">
      <text>
       <tspan style="font: oblique 11px 'DejaVu Sans'" x="0" y="-0.640625">k</tspan>
      </text>
     </g>
    </g>
   </g>
   <g id="matplotlib.axis_2">
    <g id="text_9">
     <text style="font: 11px 'DejaVu Sans', 'Bitstream Vera Sans', 'Computer Modern Sans Serif', 'Lucida Grande', 'Verdana', 'Geneva', 'Lucid', 'Arial', 'Helvetica', 'Avant Garde', sans-serif; text-anchor: middle" x="15.558281" y="129.932" transform="rotate(-90 15.558281 129.932)">power</text>
    </g>
   </g>
   <g id="line2d_15">
    <path d="M 43.002301 226.932 
L 44.06277 226.846834 
L 45.12324 226.591499 
L 46.183709 226.166491 
L 47.244179 225.572634 
L 48.304648 224.811076 
L 49.365117 223.88329 
L 50.425587 222.791071 
L 52.546525 220.122081 
L 54.667464 216.824671 
L 56.788403 212.924177 
L 58.909341 208.450459 
L 61.03028 203.437616 
L 63.151219 197.923665 
L 66.332627 188.804986 
L 69.514035 178.806347 
L 72.695443 168.093823 
L 76.937321 153.004218 
L 92.844361 95.234207 
L 96.025769 84.728649 
L 99.207177 74.931176 
L 102.388585 65.966804 
L 104.509524 60.507118 
L 106.630462 55.492879 
L 108.751401 50.94735 
L 110.87234 46.889864 
L 112.993279 43.335797 
L 115.114217 40.296572 
L 117.235156 37.779714 
L 119.356095 35.788919 
L 121.477033 34.324177 
L 122.537503 33.788093 
L 123.597972 33.38191 
L 124.658441 33.10465 
L 125.718911 32.955138 
L 126.77938 32.932 
L 127.83985 33.033679 
L 128.900319 33.258436 
L 129.960788 33.604361 
L 132.081727 34.651252 
L 134.202666 36.155911 
L 136.323604 38.097646 
L 138.444543 40.453775 
L 140.565482 43.199905 
L 142.686421 46.310202 
L 144.807359 49.75766 
L 147.988767 55.499806 
L 151.170175 61.84103 
L 154.351583 68.683393 
L 158.593461 78.417819 
L 163.895808 91.253814 
L 180.863317 133.017923 
L 186.165664 145.167286 
L 190.407542 154.313682 
L 194.649419 162.875658 
L 197.830827 168.885267 
L 201.012235 174.528058 
L 204.193643 179.797893 
L 207.375051 184.693786 
L 210.556459 189.219294 
L 213.737867 193.381886 
L 216.919275 197.19234 
L 220.100683 200.664142 
L 223.282092 203.812933 
L 226.4635 206.655978 
L 229.644908 209.21169 
L 232.826316 211.499196 
L 236.007724 213.537958 
L 239.189132 215.347433 
L 242.37054 216.946798 
L 246.612417 218.784597 
L 250.854295 220.324156 
L 255.096172 221.604864 
L 259.33805 222.662907 
L 264.640396 223.721941 
L 269.942743 224.540416 
L 276.305559 225.272264 
L 283.728845 225.866009 
L 292.2126 226.303114 
L 302.817293 226.617182 
L 317.663864 226.819445 
L 344.175598 226.916894 
L 452.343472 226.932 
L 466.129574 226.932 
L 466.129574 226.932 
" clip-path="url(#p3e217f2226)" style="fill: none; stroke: #3a6ea5; stroke-width: 2.4; stroke-linecap: square"/>
   </g>
   <g id="line2d_16">
    <path d="M 43.002301 226.932 
L 53.606995 226.840001 
L 57.848872 226.584014 
L 61.03028 226.186716 
L 64.211688 225.52964 
L 66.332627 224.906473 
L 68.453566 224.105567 
L 70.574504 223.101351 
L 72.695443 221.868683 
L 74.816382 220.383364 
L 76.937321 218.622642 
L 79.058259 216.565701 
L 81.179198 214.194113 
L 83.300137 211.492261 
L 85.421075 208.447722 
L 87.542014 205.051589 
L 89.662953 201.298753 
L 91.783891 197.188116 
L 93.90483 192.722751 
L 97.086238 185.376793 
L 100.267646 177.29297 
L 103.449054 168.535272 
L 106.630462 159.187776 
L 110.87234 145.98627 
L 117.235156 125.197673 
L 125.718911 97.393466 
L 129.960788 84.245957 
L 133.142196 74.997002 
L 136.323604 66.420485 
L 139.505012 58.636774 
L 141.625951 53.940926 
L 143.74689 49.671971 
L 145.867829 45.853603 
L 147.988767 42.505802 
L 150.109706 39.644721 
L 152.230645 37.282609 
L 154.351583 35.427786 
L 156.472522 34.084658 
L 157.532991 33.605304 
L 158.593461 33.25379 
L 159.65393 33.029602 
L 160.7144 32.932 
L 161.774869 32.960026 
L 162.835338 33.112508 
L 163.895808 33.388063 
L 164.956277 33.785109 
L 167.077216 34.936386 
L 169.198154 36.549938 
L 171.319093 38.606642 
L 173.440032 41.084928 
L 175.560971 43.961065 
L 177.681909 47.209466 
L 179.802848 50.802985 
L 182.984256 56.777986 
L 186.165664 63.3659 
L 189.347072 70.464673 
L 193.58895 80.547413 
L 198.891296 93.810564 
L 213.737867 131.475482 
L 219.040214 144.091432 
L 223.282092 153.594181 
L 227.523969 162.484487 
L 230.705377 168.716748 
L 233.886785 174.55922 
L 237.068193 180.004307 
L 240.249601 185.050407 
L 243.431009 189.701184 
L 246.612417 193.964841 
L 249.793825 197.853389 
L 252.975233 201.381941 
L 256.156642 204.568042 
L 259.33805 207.431051 
L 262.519458 209.99157 
L 265.700866 212.270934 
L 268.882274 214.290767 
L 272.063682 216.072595 
L 275.24509 217.637525 
L 278.426498 219.005984 
L 282.668375 220.558584 
L 286.910253 221.839857 
L 291.15213 222.889419 
L 296.454477 223.929467 
L 301.756824 224.723747 
L 308.11964 225.424241 
L 315.542925 225.982816 
L 324.02668 226.385406 
L 335.691843 226.686037 
L 352.659353 226.860999 
L 386.594372 226.927542 
L 466.129574 226.931998 
L 466.129574 226.931998 
" clip-path="url(#p3e217f2226)" style="fill: none; stroke-dasharray: 8.88,3.84; stroke-dashoffset: 0; stroke: #c0392b; stroke-width: 2.4"/>
   </g>
   <g id="patch_3">
    <path d="M 21.845938 236.632 
L 21.845938 23.232 
" style="fill: none; stroke: #000000; stroke-width: 0.8; stroke-linejoin: miter; stroke-linecap: square"/>
   </g>
   <g id="patch_4">
    <path d="M 487.285937 236.632 
L 487.285937 23.232 
" style="fill: none; stroke: #000000; stroke-width: 0.8; stroke-linejoin: miter; stroke-linecap: square"/>
   </g>
   <g id="patch_5">
    <path d="M 21.845938 236.632 
L 487.285937 236.632 
" style="fill: none; stroke: #000000; stroke-width: 0.8; stroke-linejoin: miter; stroke-linecap: square"/>
   </g>
   <g id="patch_6">
    <path d="M 21.845938 23.232 
L 487.285937 23.232 
" style="fill: none; stroke: #000000; stroke-width: 0.8; stroke-linejoin: miter; stroke-linecap: square"/>
   </g>
   <g id="text_10">
    <!-- The only two numbers a Gaussian field gives the MFs: $\sigma_0$ and $\sigma_1$ -->
    <g transform="translate(42.903938 17.232)">
     <text>
      <tspan style="font: 13.2px 'DejaVu Sans'" x="0 8.093628 16.491333 24.643188 28.85498 36.961548 45.359253 49.040527 56.881836 61.093628 66.288818 77.12561 85.232178 89.44397 97.841675 106.23938 119.146484 127.557129 135.708984 141.156494 148.059692 152.271484 160.390991 164.602783 174.870239 182.989746 191.387451 198.290649 205.193848 208.875122 216.994629 225.392334 229.604126 234.268799 237.950073 246.101929 249.783203 258.193848 262.40564 270.816284 274.497559 282.338867 290.490723 297.393921 301.605713 306.800903 315.198608 323.350464 327.562256 338.994263 346.615601 353.518799 357.98291 376.848914 381.060706 389.180212 397.577917 405.988562" y="-0.125">The only two numbers a Gaussian field gives the MFs:  and </tspan>
      <tspan style="font: oblique 13.2px 'DejaVu Sans'" x="362.194702 410.200354" y="-0.125">σσ</tspan>
      <tspan style="font: 9.24px 'DejaVu Sans'" x="370.592407 418.598059" y="2.0078125">01</tspan>
     </text>
    </g>
   </g>
   <g id="legend_1">
    <g id="patch_7">
     <path d="M 322.045938 60.942 
L 480.985938 60.942 
Q 482.785938 60.942 482.785938 59.142 
L 482.785938 29.532 
Q 482.785938 27.732 480.985938 27.732 
L 322.045938 27.732 
Q 320.245938 27.732 320.245938 29.532 
L 320.245938 59.142 
Q 320.245938 60.942 322.045938 60.942 
z
" style="fill: #ffffff; opacity: 0.8; stroke: #cccccc; stroke-linejoin: miter"/>
    </g>
    <g id="line2d_17">
     <path d="M 323.845938 36.372 
L 332.845938 36.372 
L 341.845938 36.372 
" style="fill: none; stroke: #3a6ea5; stroke-width: 2.4; stroke-linecap: square"/>
    </g>
    <g id="text_11">
     <!-- $P(k)$  — area $=\sigma_0^2=\langle u^2\rangle$ -->
     <g transform="translate(349.045938 39.522)">
      <text>
       <tspan style="font: oblique 9px 'DejaVu Sans'" x="0 8.938477 69.42041 94.339893" y="-0.8734375000000014">Pkσu</tspan>
       <tspan style="font: 9px 'DejaVu Sans'" x="5.427246 14.150391 17.661621 20.522461 32.383301 35.244141 40.759277 44.459473 49.996582 55.511719 60.125977 81.534229 90.828662 104.700293" y="-0.8734375000000014">()   area ==⟨⟩</tspan>
       <tspan style="font: 9px 'DejaVu Sans Display'" x="23.383301" y="-0.8734375000000014">—</tspan>
       <tspan style="font: 6.3px 'DejaVu Sans'" x="75.124512 75.526465 100.445947" y="1.5874999999999986 -4.3187500000000005 -4.318750000000001">022</tspan>
      </text>
     </g>
    </g>
    <g id="line2d_18">
     <path d="M 323.845938 51.672 
L 332.845938 51.672 
L 341.845938 51.672 
" style="fill: none; stroke-dasharray: 8.88,3.84; stroke-dashoffset: 0; stroke: #c0392b; stroke-width: 2.4"/>
    </g>
    <g id="text_12">
     <!-- $k^2P(k)$  — area $=\sigma_1^2=\langle|\nabla u|^2\rangle$ -->
     <g transform="translate(349.045938 54.822)">
      <text>
       <tspan style="font: oblique 9px 'DejaVu Sans'" x="0 10.137275 19.075752 79.557686 113.529902" y="-0.8734375000000014">kPkσu</tspan>
       <tspan style="font: 6.3px 'DejaVu Sans'" x="5.88293 85.261787 85.66374 122.352363" y="-4.318750000000001 1.5874999999999986 -4.3187500000000005 -4.318750000000001">2122</tspan>
       <tspan style="font: 9px 'DejaVu Sans'" x="15.564521 24.287666 27.798896 30.659736 42.520576 45.381416 50.896553 54.596748 60.133857 65.648994 70.263252 91.671504 100.965938 104.477168 107.509395 119.234004 126.606709" y="-0.8734375000000014">()   area ==⟨|∇|⟩</tspan>
       <tspan style="font: 9px 'DejaVu Sans Display'" x="33.520576" y="-0.8734375000000014">—</tspan>
      </text>
     </g>
    </g>
   </g>
  </g>
 </g>
 <defs>
  <clipPath id="p3e217f2226">
   <rect x="21.845938" y="23.232" width="465.44" height="213.4"/>
  </clipPath>
 </defs>
</svg>
