<?xml version="1.0" encoding="utf-8" standalone="no"?>
<!DOCTYPE svg PUBLIC "-//W3C//DTD SVG 1.1//EN"
  "http://www.w3.org/Graphics/SVG/1.1/DTD/svg11.dtd">
<svg xmlns:xlink="http://www.w3.org/1999/xlink" width="394.35955pt" height="368.805591pt" viewBox="0 0 394.35955 368.805591" xmlns="http://www.w3.org/2000/svg" version="1.1">
 <metadata>
  <rdf:RDF xmlns:dc="http://purl.org/dc/elements/1.1/" xmlns:cc="http://creativecommons.org/ns#" xmlns:rdf="http://www.w3.org/1999/02/22-rdf-syntax-ns#">
   <cc:Work>
    <dc:type rdf:resource="http://purl.org/dc/dcmitype/StillImage"/>
    <dc:date>2026-06-29T19:10:25.616482</dc:date>
    <dc:format>image/svg+xml</dc:format>
    <dc:creator>
     <cc:Agent>
      <dc:title>Matplotlib v3.9.4, https://matplotlib.org/</dc:title>
     </cc:Agent>
    </dc:creator>
   </cc:Work>
  </rdf:RDF>
 </metadata>
 <defs>
  <style type="text/css">*{stroke-linejoin: round; stroke-linecap: butt}</style>
 </defs>
 <g id="figure_1">
  <g id="patch_1">
   <path d="M 0 368.805591 
L 394.35955 368.805591 
L 394.35955 0 
L 0 0 
z
" style="fill: #ffffff"/>
  </g>
  <g id="axes_1">
   <g id="patch_2">
    <path d="M 40.066756 286.481578 
C 40.066756 297.684601 44.521886 308.440237 52.44362 316.361971 
C 60.365354 324.283705 71.12099 328.738835 82.324014 328.738835 
L 82.324014 286.481578 
z
" clip-path="url(#pcaefed4eee)" style="fill: #2f6d78; opacity: 0.55; stroke: #2f6d78; stroke-linejoin: miter"/>
   </g>
   <g id="patch_3">
    <path d="M 223.181539 328.738835 
C 234.384563 328.738835 245.140199 324.283705 253.061933 316.361971 
C 260.983667 308.440237 265.438797 297.684601 265.438797 286.481578 
L 223.181539 286.481578 
z
" clip-path="url(#pcaefed4eee)" style="fill: #2f6d78; opacity: 0.55; stroke: #2f6d78; stroke-linejoin: miter"/>
   </g>
   <g id="patch_4">
    <path d="M 265.438797 145.624052 
C 265.438797 134.421029 260.983667 123.665392 253.061933 115.743658 
C 245.140199 107.821925 234.384563 103.366794 223.181539 103.366794 
L 223.181539 145.624052 
z
" clip-path="url(#pcaefed4eee)" style="fill: #2f6d78; opacity: 0.55; stroke: #2f6d78; stroke-linejoin: miter"/>
   </g>
   <g id="patch_5">
    <path d="M 82.324014 103.366794 
C 71.12099 103.366794 60.365354 107.821925 52.44362 115.743658 
C 44.521886 123.665392 40.066756 134.421029 40.066756 145.624052 
L 82.324014 145.624052 
z
" clip-path="url(#pcaefed4eee)" style="fill: #2f6d78; opacity: 0.55; stroke: #2f6d78; stroke-linejoin: miter"/>
   </g>
   <g id="patch_6">
    <path d="M 82.324014 328.738835 
L 223.181539 328.738835 
L 223.181539 286.481578 
L 82.324014 286.481578 
z
" clip-path="url(#pcaefed4eee)" style="fill: #e6953c; opacity: 0.6; stroke: #e6953c; stroke-linejoin: miter"/>
   </g>
   <g id="patch_7">
    <path d="M 82.324014 145.624052 
L 223.181539 145.624052 
L 223.181539 103.366794 
L 82.324014 103.366794 
z
" clip-path="url(#pcaefed4eee)" style="fill: #e6953c; opacity: 0.6; stroke: #e6953c; stroke-linejoin: miter"/>
   </g>
   <g id="patch_8">
    <path d="M 40.066756 286.481578 
L 82.324014 286.481578 
L 82.324014 145.624052 
L 40.066756 145.624052 
z
" clip-path="url(#pcaefed4eee)" style="fill: #e6953c; opacity: 0.6; stroke: #e6953c; stroke-linejoin: miter"/>
   </g>
   <g id="patch_9">
    <path d="M 223.181539 286.481578 
L 265.438797 286.481578 
L 265.438797 145.624052 
L 223.181539 145.624052 
z
" clip-path="url(#pcaefed4eee)" style="fill: #e6953c; opacity: 0.6; stroke: #e6953c; stroke-linejoin: miter"/>
   </g>
   <g id="patch_10">
    <path d="M 82.324014 286.481578 
L 223.181539 286.481578 
L 223.181539 145.624052 
L 82.324014 145.624052 
z
" clip-path="url(#pcaefed4eee)" style="fill: #3a6ea5; opacity: 0.55; stroke: #3a6ea5; stroke-linejoin: miter"/>
   </g>
   <g id="text_1">
    <!-- $K$ -->
    <g style="fill: #ffffff" transform="translate(148.792777 212.645377)">
     <text>
      <tspan style="font: oblique 12px 'DejaVu Sans'" x="0" y="-0.25">K</tspan>
     </text>
    </g>
    <!-- $\varepsilon^0$: area $a^2$ -->
    <g style="fill: #ffffff" transform="translate(120.232777 226.082752)">
     <text>
      <tspan style="font: oblique 12px 'DejaVu Sans'" x="0 51.414102" y="-0.171875">εa</tspan>
      <tspan style="font: 8.4px 'DejaVu Sans'" x="7.046328 59.32543" y="-4.765625">02</tspan>
      <tspan style="font: 12px 'DejaVu Sans'" x="12.718789 16.761758 20.576211 27.929727 32.86332 40.246133 47.599648" y="-0.171875">: area </tspan>
     </text>
    </g>
   </g>
   <g id="patch_11">
    <path d="M 275.525465 216.052815 
Q 250.355078 216.052815 226.302725 216.052815 
" style="fill: none; stroke: #e6953c; stroke-linecap: round"/>
    <path d="M 230.102725 217.952815 
L 226.302725 216.052815 
L 230.102725 214.152815 
" style="fill: none; stroke: #e6953c; stroke-linecap: round"/>
   </g>
   <g id="text_2">
    <!-- $\varepsilon^1$: edge slabs -->
    <g style="fill: #e6953c" transform="translate(279.52455 214.000815)">
     <text>
      <tspan style="font: oblique 9.5px 'DejaVu Sans'" x="0" y="-0.06406250000000036">ε</tspan>
      <tspan style="font: 6.65px 'DejaVu Sans'" x="5.601312" y="-3.8921875000000004">1</tspan>
      <tspan style="font: 9.5px 'DejaVu Sans'" x="10.105682 13.306366 16.326141 22.170868 28.201141 34.231414 40.076141 43.095916 48.045379 50.684784 56.506317 62.53659" y="-0.06406250000000036">: edge slabs</tspan>
     </text>
    </g>
    <!-- (perimeter $=2a\cdot 2W_1$) -->
    <g style="fill: #e6953c" transform="translate(279.52455 224.659815)">
     <text>
      <tspan style="font: 9.5px 'DejaVu Sans'" x="0 3.706299 9.736572 15.581299 19.487061 22.126465 31.380615 37.225342 40.950195 46.794922 50.700684 55.571289 65.38208 79.098633 83.969238 103.911108" y="-0.40625">(perimeter =2⋅2)</tspan>
      <tspan style="font: oblique 9.5px 'DejaVu Sans'" x="71.42627 90.013428" y="-0.40625">aW</tspan>
      <tspan style="font: 6.65px 'DejaVu Sans'" x="99.406738" y="1.234375">1</tspan>
     </text>
    </g>
   </g>
   <g id="patch_12">
    <path d="M 253.943882 71.803376 
Q 253.379486 92.923238 252.844957 112.925465 
" style="fill: none; stroke: #2f6d78; stroke-linecap: round"/>
    <path d="M 254.845792 109.177577 
L 252.844957 112.925465 
L 251.047148 109.076064 
" style="fill: none; stroke: #2f6d78; stroke-linecap: round"/>
   </g>
   <g id="text_3">
    <!-- $\varepsilon^2$: 4 corner arcs -->
    <g style="fill: #2f6d78" transform="translate(209.095787 44.527162)">
     <text>
      <tspan style="font: oblique 9.5px 'DejaVu Sans'" x="0" y="-0.9765625">ε</tspan>
      <tspan style="font: 6.65px 'DejaVu Sans'" x="5.601312" y="-4.8046875">2</tspan>
      <tspan style="font: 9.5px 'DejaVu Sans'" x="10.105682 13.306366 16.326141 22.37033 25.390106 30.61325 36.425506 40.331268 46.352264 52.196991 56.102752 59.122528 64.944061 68.849823 74.072967" y="-0.9765625">: 4 corner arcs</tspan>
     </text>
    </g>
    <!-- $=$ one full disc $\pi\varepsilon^2$ -->
    <g style="fill: #2f6d78" transform="translate(209.095787 55.165084)">
     <text>
      <tspan style="font: 9.5px 'DejaVu Sans'" x="1.85083 11.661621 14.681396 20.493652 26.514648 32.359375 35.37915 38.723633 44.744629 47.384033 50.023438 53.043213 59.073486 61.712891 66.662354 71.885498" y="-0.9765625">= one full disc </tspan>
      <tspan style="font: oblique 9.5px 'DejaVu Sans'" x="74.905273 80.624756" y="-0.9765625">πε</tspan>
      <tspan style="font: 6.65px 'DejaVu Sans'" x="86.226068" y="-4.8046875">2</tspan>
     </text>
    </g>
    <!-- (carries $\chi=1$) -->
    <g style="fill: #2f6d78" transform="translate(209.095787 65.804787)">
     <text>
      <tspan style="font: 9.5px 'DejaVu Sans'" x="0 3.706299 8.929443 14.750977 18.656738 22.5625 25.201904 31.046631 35.996094 46.48877 56.299561 62.34375" y="-0.40625">(carries =1)</tspan>
      <tspan style="font: oblique 9.5px 'DejaVu Sans'" x="39.015869" y="-0.40625">χ</tspan>
     </text>
    </g>
   </g>
   <g id="patch_13">
    <path d="M 226.298437 299.158755 
Q 244.309529 299.158755 262.320621 299.158755 
" style="fill: none; stroke: #000000; stroke-linecap: round"/>
    <path d="M 230.698437 301.358755 
L 226.298437 299.158755 
L 230.698437 296.958755 
" style="fill: none; stroke: #000000; stroke-linecap: round"/>
    <path d="M 257.920621 296.958755 
L 262.320621 299.158755 
L 257.920621 301.358755 
" style="fill: none; stroke: #000000; stroke-linecap: round"/>
   </g>
   <g id="text_4">
    <!-- $\varepsilon$ -->
    <g transform="translate(241.285168 312.681077)">
     <text>
      <tspan style="font: oblique 11px 'DejaVu Sans'" x="0" y="-0.828125">ε</tspan>
     </text>
    </g>
   </g>
   <g id="text_5">
    <text style="font: 10.5px 'DejaVu Sans', 'Bitstream Vera Sans', 'Computer Modern Sans Serif', 'Lucida Grande', 'Verdana', 'Geneva', 'Lucid', 'Arial', 'Helvetica', 'Avant Garde', sans-serif" transform="translate(96.768858 15.178359)">Steiner inflation of a square:</text>
    <!-- each power of $\varepsilon$ isolates one Minkowski functional -->
    <g transform="translate(39.96878 26.938031)">
     <text>
      <tspan style="font: 10.5px 'DejaVu Sans'" x="0 6.459961 12.894287 18.667236 25.322021 28.659668 35.324707 41.748779 50.336426 56.796387 61.113281 64.450928 70.875 74.571533 83.584717 86.922363 89.8396 95.310059 101.734131 104.651367 111.085693 115.202637 121.662598 127.133057 130.470703 136.894775 143.549561 150.009521 153.347168 162.406494 165.32373 171.978516 178.059082 184.483154 193.070801 198.54126 204.621826 207.539062 210.876709 214.573242 221.228027 227.882812 233.655762 237.772705 240.689941 247.114014 253.768799 260.203125" y="-0.640625">each power of  isolates one Minkowski functional</tspan>
      <tspan style="font: oblique 10.5px 'DejaVu Sans'" x="77.90918" y="-0.640625">ε</tspan>
     </text>
    </g>
   </g>
  </g>
 </g>
 <defs>
  <clipPath id="pcaefed4eee">
   <rect x="7.2" y="32.938031" width="328.66756" height="328.66756"/>
  </clipPath>
 </defs>
</svg>
