<?xml version="1.0" encoding="utf-8" standalone="no"?>
<!DOCTYPE svg PUBLIC "-//W3C//DTD SVG 1.1//EN"
  "http://www.w3.org/Graphics/SVG/1.1/DTD/svg11.dtd">
<svg xmlns:xlink="http://www.w3.org/1999/xlink" width="338.4pt" height="338.4pt" viewBox="0 0 338.4 338.4" xmlns="http://www.w3.org/2000/svg" version="1.1">
 <metadata>
  <rdf:RDF xmlns:dc="http://purl.org/dc/elements/1.1/" xmlns:cc="http://creativecommons.org/ns#" xmlns:rdf="http://www.w3.org/1999/02/22-rdf-syntax-ns#">
   <cc:Work>
    <dc:type rdf:resource="http://purl.org/dc/dcmitype/StillImage"/>
    <dc:date>2026-06-26T14:58:07.509226</dc:date>
    <dc:format>image/svg+xml</dc:format>
    <dc:creator>
     <cc:Agent>
      <dc:title>Matplotlib v3.11.0, https://matplotlib.org/</dc:title>
     </cc:Agent>
    </dc:creator>
   </cc:Work>
  </rdf:RDF>
 </metadata>
 <defs>
  <style type="text/css">*{stroke-linejoin: round; stroke-linecap: butt}</style>
 </defs>
 <g id="figure_1">
  <g id="patch_1">
   <path d="M 0 338.4 
L 338.4 338.4 
L 338.4 0 
L 0 0 
L 0 338.4 
z
" style="fill: none"/>
  </g>
  <g id="patch_2">
   <path d="M 7.2 331.2 
L 331.2 331.2 
L 331.2 7.2 
L 7.2 7.2 
L 7.2 331.2 
z
" style="fill: none"/>
  </g>
  <g id="axes_1">
   <g id="line2d_1">
    <path d="M 186.368443 252.086698 
L 185.623929 250.475497 
L 184.486569 248.92336 
L 182.974608 247.452255 
L 181.111374 246.0828 
L 178.924875 244.83401 
L 176.44734 243.723078 
L 173.714735 242.76518 
L 170.766253 241.973311 
L 167.643776 241.358153 
L 164.391335 240.927963 
L 161.05455 240.688497 
L 157.680067 240.642952 
L 154.314991 240.791934 
L 151.00632 241.133457 
L 147.80037 241.662957 
L 144.742214 242.373337 
L 141.875117 243.25504 
L 139.239982 244.296136 
L 136.874806 245.482452 
L 134.814155 246.797716 
L 133.088656 248.22374 
L 131.724523 249.740625 
L 130.743116 251.327003 
L 130.160552 252.9603 
L 129.987362 254.617035 
L 130.22823 256.273139 
L 130.881791 257.904297 
L 131.940531 259.486313 
L 133.390775 260.995486 
L 135.21278 262.408985 
L 137.380937 263.705236 
L 139.864083 264.864288 
L 142.625929 265.868169 
L 145.625584 266.70121 
L 148.818192 267.350337 
L 152.155647 267.805316 
L 155.587387 268.058951 
L 159.061247 268.107221 
L 162.524343 267.949361 
" clip-path="url(#peb201cb609)" style="fill: none; stroke: #2f6d78; stroke-width: 2; stroke-linecap: square"/>
   </g>
   <g id="patch_3">
    <path d="M 42.672717 259.568714 
Q 92.769318 227.77671 141.827531 196.643682 
" clip-path="url(#peb201cb609)" style="fill: none; stroke: #9aa0a6; stroke-width: 1.1; stroke-linecap: round"/>
    <path d="M 135.598977 197.280171 
L 141.827531 196.643682 
L 138.599589 202.008418 
z
" clip-path="url(#peb201cb609)" style="fill: #9aa0a6; stroke: #9aa0a6; stroke-width: 1.1; stroke-linecap: round"/>
   </g>
   <g id="Poly3DCollection_1">
    <defs>
     <path id="med2e813450" d="M 40.981698 -77.758143 
L 175.29782 -42.829565 
L 274.152361 -90.603869 
L 142.789653 -122.280705 
z
" style="stroke: #2f6d78; stroke-opacity: 0.25; stroke-width: 1.2"/>
    </defs>
    <g clip-path="url(#peb201cb609)">
     <use xlink:href="#med2e813450" x="0" y="338.4" style="fill: #2f6d78; fill-opacity: 0.25; stroke: #2f6d78; stroke-opacity: 0.25; stroke-width: 1.2"/>
    </g>
   </g>
   <g id="text_1">
    <!-- x -->
    <g style="fill: #80868b" transform="translate(195.729753 316.113404) scale(0.11 -0.11)">
     <defs>
      <path id="DejaVuSans-5b" d="M 3513 3500 
L 2247 1797 
L 3578 0 
L 2900 0 
L 1881 1375 
L 863 0 
L 184 0 
L 1544 1831 
L 300 3500 
L 978 3500 
L 1906 2253 
L 2834 3500 
L 3513 3500 
z
" transform="scale(0.015625)"/>
     </defs>
     <use xlink:href="#DejaVuSans-5b"/>
    </g>
   </g>
   <g id="text_2">
    <!-- y -->
    <g style="fill: #80868b" transform="translate(150.314686 191.257615) scale(0.11 -0.11)">
     <defs>
      <path id="DejaVuSans-5c" d="M 2059 -325 
Q 1816 -950 1584 -1140 
Q 1353 -1331 966 -1331 
L 506 -1331 
L 506 -850 
L 844 -850 
Q 1081 -850 1212 -737 
Q 1344 -625 1503 -206 
L 1606 56 
L 191 3500 
L 800 3500 
L 1894 763 
L 2988 3500 
L 3597 3500 
L 2059 -325 
z
" transform="scale(0.015625)"/>
     </defs>
     <use xlink:href="#DejaVuSans-5c"/>
    </g>
   </g>
   <g id="text_3">
    <!-- z -->
    <g style="fill: #80868b" transform="translate(34.455116 88.614263) scale(0.11 -0.11)">
     <defs>
      <path id="DejaVuSans-5d" d="M 353 3500 
L 3084 3500 
L 3084 2975 
L 922 459 
L 3084 459 
L 3084 0 
L 275 0 
L 275 525 
L 2438 3041 
L 353 3041 
L 353 3500 
z
" transform="scale(0.015625)"/>
     </defs>
     <use xlink:href="#DejaVuSans-5d"/>
    </g>
   </g>
   <g id="text_4">
    <!-- u -->
    <g style="fill: #333333" transform="translate(185.070784 298.11187) scale(0.13 -0.13)">
     <defs>
      <path id="DejaVuSans-Bold-58" d="M 500 1363 
L 500 3500 
L 1625 3500 
L 1625 3150 
Q 1625 2866 1622 2436 
Q 1619 2006 1619 1863 
Q 1619 1441 1641 1255 
Q 1663 1069 1716 984 
Q 1784 875 1895 815 
Q 2006 756 2150 756 
Q 2500 756 2700 1025 
Q 2900 1294 2900 1772 
L 2900 3500 
L 4019 3500 
L 4019 0 
L 2900 0 
L 2900 506 
Q 2647 200 2364 54 
Q 2081 -91 1741 -91 
Q 1134 -91 817 281 
Q 500 653 500 1363 
z
" transform="scale(0.015625)"/>
     </defs>
     <use xlink:href="#DejaVuSans-Bold-58"/>
    </g>
   </g>
   <g id="text_5">
    <!-- v -->
    <g style="fill: #333333" transform="translate(149.560012 213.158488) scale(0.13 -0.13)">
     <defs>
      <path id="DejaVuSans-Bold-59" d="M 97 3500 
L 1216 3500 
L 2088 1081 
L 2956 3500 
L 4078 3500 
L 2700 0 
L 1472 0 
L 97 3500 
z
" transform="scale(0.015625)"/>
     </defs>
     <use xlink:href="#DejaVuSans-Bold-59"/>
    </g>
   </g>
   <g id="text_6">
    <!-- u × v -->
    <g style="fill: #e52e71" transform="translate(35.969035 128.518121) scale(0.13 -0.13)">
     <defs>
      <path id="DejaVuSans-Bold-3" transform="scale(0.015625)"/>
      <path id="DejaVuSans-Bold-99" d="M 4563 3359 
L 3206 2003 
L 4563 653 
L 4038 128 
L 2681 1478 
L 1325 128 
L 800 653 
L 2156 2003 
L 800 3359 
L 1325 3884 
L 2681 2528 
L 4038 3884 
L 4563 3359 
z
" transform="scale(0.015625)"/>
     </defs>
     <use xlink:href="#DejaVuSans-Bold-58"/>
     <use xlink:href="#DejaVuSans-Bold-3" transform="translate(71.1875 0)"/>
     <use xlink:href="#DejaVuSans-Bold-99" transform="translate(106 0)"/>
     <use xlink:href="#DejaVuSans-Bold-3" transform="translate(189.796875 0)"/>
     <use xlink:href="#DejaVuSans-Bold-59" transform="translate(224.609375 0)"/>
    </g>
   </g>
   <g id="text_7">
    <!-- normal -->
    <g style="fill: #e52e71" transform="translate(91.858791 174.646581) scale(0.1 -0.1)">
     <defs>
      <path id="DejaVuSans-51" d="M 3513 2113 
L 3513 0 
L 2938 0 
L 2938 2094 
Q 2938 2591 2744 2837 
Q 2550 3084 2163 3084 
Q 1697 3084 1428 2787 
Q 1159 2491 1159 1978 
L 1159 0 
L 581 0 
L 581 3500 
L 1159 3500 
L 1159 2956 
Q 1366 3272 1645 3428 
Q 1925 3584 2291 3584 
Q 2894 3584 3203 3211 
Q 3513 2838 3513 2113 
z
" transform="scale(0.015625)"/>
      <path id="DejaVuSans-52" d="M 1959 3097 
Q 1497 3097 1228 2736 
Q 959 2375 959 1747 
Q 959 1119 1226 758 
Q 1494 397 1959 397 
Q 2419 397 2687 759 
Q 2956 1122 2956 1747 
Q 2956 2369 2687 2733 
Q 2419 3097 1959 3097 
z
M 1959 3584 
Q 2709 3584 3137 3096 
Q 3566 2609 3566 1747 
Q 3566 888 3137 398 
Q 2709 -91 1959 -91 
Q 1206 -91 779 398 
Q 353 888 353 1747 
Q 353 2609 779 3096 
Q 1206 3584 1959 3584 
z
" transform="scale(0.015625)"/>
      <path id="DejaVuSans-55" d="M 2631 2963 
Q 2534 3019 2420 3045 
Q 2306 3072 2169 3072 
Q 1681 3072 1420 2755 
Q 1159 2438 1159 1844 
L 1159 0 
L 581 0 
L 581 3500 
L 1159 3500 
L 1159 2956 
Q 1341 3275 1631 3429 
Q 1922 3584 2338 3584 
Q 2397 3584 2469 3576 
Q 2541 3569 2628 3553 
L 2631 2963 
z
" transform="scale(0.015625)"/>
      <path id="DejaVuSans-50" d="M 3328 2828 
Q 3544 3216 3844 3400 
Q 4144 3584 4550 3584 
Q 5097 3584 5394 3201 
Q 5691 2819 5691 2113 
L 5691 0 
L 5113 0 
L 5113 2094 
Q 5113 2597 4934 2840 
Q 4756 3084 4391 3084 
Q 3944 3084 3684 2787 
Q 3425 2491 3425 1978 
L 3425 0 
L 2847 0 
L 2847 2094 
Q 2847 2600 2669 2842 
Q 2491 3084 2119 3084 
Q 1678 3084 1418 2786 
Q 1159 2488 1159 1978 
L 1159 0 
L 581 0 
L 581 3500 
L 1159 3500 
L 1159 2956 
Q 1356 3278 1631 3431 
Q 1906 3584 2284 3584 
Q 2666 3584 2933 3390 
Q 3200 3197 3328 2828 
z
" transform="scale(0.015625)"/>
      <path id="DejaVuSans-44" d="M 2194 1759 
Q 1497 1759 1228 1600 
Q 959 1441 959 1056 
Q 959 750 1161 570 
Q 1363 391 1709 391 
Q 2188 391 2477 730 
Q 2766 1069 2766 1631 
L 2766 1759 
L 2194 1759 
z
M 3341 1997 
L 3341 0 
L 2766 0 
L 2766 531 
Q 2569 213 2275 61 
Q 1981 -91 1556 -91 
Q 1019 -91 701 211 
Q 384 513 384 1019 
Q 384 1609 779 1909 
Q 1175 2209 1959 2209 
L 2766 2209 
L 2766 2266 
Q 2766 2663 2505 2880 
Q 2244 3097 1772 3097 
Q 1472 3097 1187 3025 
Q 903 2953 641 2809 
L 641 3341 
Q 956 3463 1253 3523 
Q 1550 3584 1831 3584 
Q 2591 3584 2966 3190 
Q 3341 2797 3341 1997 
z
" transform="scale(0.015625)"/>
      <path id="DejaVuSans-4f" d="M 603 4863 
L 1178 4863 
L 1178 0 
L 603 0 
L 603 4863 
z
" transform="scale(0.015625)"/>
     </defs>
     <use xlink:href="#DejaVuSans-51"/>
     <use xlink:href="#DejaVuSans-52" transform="translate(63.375 0)"/>
     <use xlink:href="#DejaVuSans-55" transform="translate(124.5625 0)"/>
     <use xlink:href="#DejaVuSans-50" transform="translate(163.921875 0)"/>
     <use xlink:href="#DejaVuSans-44" transform="translate(261.328125 0)"/>
     <use xlink:href="#DejaVuSans-4f" transform="translate(322.609375 0)"/>
    </g>
    <!-- (the "dual") -->
    <g style="fill: #e52e71" transform="translate(91.858791 186.649315) scale(0.1 -0.1)">
     <defs>
      <path id="DejaVuSans-b" d="M 1984 4856 
Q 1566 4138 1362 3434 
Q 1159 2731 1159 2009 
Q 1159 1288 1364 580 
Q 1569 -128 1984 -844 
L 1484 -844 
Q 1016 -109 783 600 
Q 550 1309 550 2009 
Q 550 2706 781 3412 
Q 1013 4119 1484 4856 
L 1984 4856 
z
" transform="scale(0.015625)"/>
      <path id="DejaVuSans-57" d="M 1172 4494 
L 1172 3500 
L 2356 3500 
L 2356 3053 
L 1172 3053 
L 1172 1153 
Q 1172 725 1289 603 
Q 1406 481 1766 481 
L 2356 481 
L 2356 0 
L 1766 0 
Q 1100 0 847 248 
Q 594 497 594 1153 
L 594 3053 
L 172 3053 
L 172 3500 
L 594 3500 
L 594 4494 
L 1172 4494 
z
" transform="scale(0.015625)"/>
      <path id="DejaVuSans-4b" d="M 3513 2113 
L 3513 0 
L 2938 0 
L 2938 2094 
Q 2938 2591 2744 2837 
Q 2550 3084 2163 3084 
Q 1697 3084 1428 2787 
Q 1159 2491 1159 1978 
L 1159 0 
L 581 0 
L 581 4863 
L 1159 4863 
L 1159 2956 
Q 1366 3272 1645 3428 
Q 1925 3584 2291 3584 
Q 2894 3584 3203 3211 
Q 3513 2838 3513 2113 
z
" transform="scale(0.015625)"/>
      <path id="DejaVuSans-48" d="M 3597 1894 
L 3597 1613 
L 953 1613 
Q 991 1019 1311 708 
Q 1631 397 2203 397 
Q 2534 397 2845 478 
Q 3156 559 3463 722 
L 3463 178 
Q 3153 47 2828 -22 
Q 2503 -91 2169 -91 
Q 1331 -91 842 396 
Q 353 884 353 1716 
Q 353 2575 817 3079 
Q 1281 3584 2069 3584 
Q 2775 3584 3186 3129 
Q 3597 2675 3597 1894 
z
M 3022 2063 
Q 3016 2534 2758 2815 
Q 2500 3097 2075 3097 
Q 1594 3097 1305 2825 
Q 1016 2553 972 2059 
L 3022 2063 
z
" transform="scale(0.015625)"/>
      <path id="DejaVuSans-3" transform="scale(0.015625)"/>
      <path id="DejaVuSans-5" d="M 1147 4666 
L 1147 2931 
L 616 2931 
L 616 4666 
L 1147 4666 
z
M 2328 4666 
L 2328 2931 
L 1797 2931 
L 1797 4666 
L 2328 4666 
z
" transform="scale(0.015625)"/>
      <path id="DejaVuSans-47" d="M 2906 2969 
L 2906 4863 
L 3481 4863 
L 3481 0 
L 2906 0 
L 2906 525 
Q 2725 213 2448 61 
Q 2172 -91 1784 -91 
Q 1150 -91 751 415 
Q 353 922 353 1747 
Q 353 2572 751 3078 
Q 1150 3584 1784 3584 
Q 2172 3584 2448 3432 
Q 2725 3281 2906 2969 
z
M 947 1747 
Q 947 1113 1208 752 
Q 1469 391 1925 391 
Q 2381 391 2643 752 
Q 2906 1113 2906 1747 
Q 2906 2381 2643 2742 
Q 2381 3103 1925 3103 
Q 1469 3103 1208 2742 
Q 947 2381 947 1747 
z
" transform="scale(0.015625)"/>
      <path id="DejaVuSans-58" d="M 544 1381 
L 544 3500 
L 1119 3500 
L 1119 1403 
Q 1119 906 1312 657 
Q 1506 409 1894 409 
Q 2359 409 2629 706 
Q 2900 1003 2900 1516 
L 2900 3500 
L 3475 3500 
L 3475 0 
L 2900 0 
L 2900 538 
Q 2691 219 2414 64 
Q 2138 -91 1772 -91 
Q 1169 -91 856 284 
Q 544 659 544 1381 
z
M 1991 3584 
L 1991 3584 
z
" transform="scale(0.015625)"/>
      <path id="DejaVuSans-c" d="M 513 4856 
L 1013 4856 
Q 1481 4119 1714 3412 
Q 1947 2706 1947 2009 
Q 1947 1309 1714 600 
Q 1481 -109 1013 -844 
L 513 -844 
Q 928 -128 1133 580 
Q 1338 1288 1338 2009 
Q 1338 2731 1133 3434 
Q 928 4138 513 4856 
z
" transform="scale(0.015625)"/>
     </defs>
     <use xlink:href="#DejaVuSans-b"/>
     <use xlink:href="#DejaVuSans-57" transform="translate(39.015625 0)"/>
     <use xlink:href="#DejaVuSans-4b" transform="translate(78.21875 0)"/>
     <use xlink:href="#DejaVuSans-48" transform="translate(141.59375 0)"/>
     <use xlink:href="#DejaVuSans-3" transform="translate(203.125 0)"/>
     <use xlink:href="#DejaVuSans-5" transform="translate(234.90625 0)"/>
     <use xlink:href="#DejaVuSans-47" transform="translate(280.90625 0)"/>
     <use xlink:href="#DejaVuSans-58" transform="translate(344.390625 0)"/>
     <use xlink:href="#DejaVuSans-44" transform="translate(407.765625 0)"/>
     <use xlink:href="#DejaVuSans-4f" transform="translate(469.046875 0)"/>
     <use xlink:href="#DejaVuSans-5" transform="translate(496.828125 0)"/>
     <use xlink:href="#DejaVuSans-c" transform="translate(542.828125 0)"/>
    </g>
   </g>
   <g id="patch_4">
    <path d="M 42.811681 259.841571 
Q 91.883816 238.38139 138.702352 217.90675 
" clip-path="url(#peb201cb609)" style="fill: none; stroke: #333333; stroke-width: 2.2; stroke-linecap: round"/>
    <path d="M 132.449627 217.585145 
L 138.702352 217.90675 
L 134.693434 222.715967 
z
" clip-path="url(#peb201cb609)" style="fill: #333333; stroke: #333333; stroke-width: 2.2; stroke-linecap: round"/>
   </g>
   <g id="patch_5">
    <path d="M 164.520899 267.917819 
Q 164.598871 267.916588 162.664633 267.947145 
" clip-path="url(#peb201cb609)" style="fill: none; stroke: #2f6d78; stroke-width: 1.8; stroke-linecap: round"/>
    <path d="M 157.021103 265.235952 
L 162.664633 267.947145 
L 157.10956 270.835253 
z
" clip-path="url(#peb201cb609)" style="fill: #2f6d78; stroke: #2f6d78; stroke-width: 1.8; stroke-linecap: round"/>
   </g>
   <g id="patch_6">
    <path d="M 40.90597 258.645819 
Q 38.645199 199.056427 36.494633 142.371834 
" clip-path="url(#peb201cb609)" style="fill: none; stroke: #e52e71; stroke-width: 2.6; stroke-linecap: round"/>
    <path d="M 33.908953 148.073961 
L 36.494633 142.371834 
L 39.504927 147.861655 
z
" clip-path="url(#peb201cb609)" style="fill: #e52e71; stroke: #e52e71; stroke-width: 2.6; stroke-linecap: round"/>
   </g>
   <g id="patch_7">
    <path d="M 42.920527 261.146045 
Q 108.141633 278.106634 170.982238 294.448179 
" clip-path="url(#peb201cb609)" style="fill: none; stroke: #333333; stroke-width: 2.2; stroke-linecap: round"/>
    <path d="M 166.26719 290.328916 
L 170.982238 294.448179 
L 164.857799 295.748659 
z
" clip-path="url(#peb201cb609)" style="fill: #333333; stroke: #333333; stroke-width: 2.2; stroke-linecap: round"/>
   </g>
   <g id="patch_8">
    <path d="M 40.90581 258.641586 
Q 37.911577 179.719611 34.963969 102.02659 
" clip-path="url(#peb201cb609)" style="fill: none; stroke: #9aa0a6; stroke-width: 1.1; stroke-linecap: round"/>
    <path d="M 32.378288 107.728718 
L 34.963969 102.02659 
L 37.974262 107.516411 
z
" clip-path="url(#peb201cb609)" style="fill: #9aa0a6; stroke: #9aa0a6; stroke-width: 1.1; stroke-linecap: round"/>
   </g>
   <g id="patch_9">
    <path d="M 42.860049 261.315178 
Q 113.734578 286.721117 183.451402 311.712061 
" clip-path="url(#peb201cb609)" style="fill: none; stroke: #9aa0a6; stroke-width: 1.1; stroke-linecap: round"/>
    <path d="M 179.124685 307.186631 
L 183.451402 311.712061 
L 177.235027 312.458177 
z
" clip-path="url(#peb201cb609)" style="fill: #9aa0a6; stroke: #9aa0a6; stroke-width: 1.1; stroke-linecap: round"/>
   </g>
  </g>
 </g>
 <defs>
  <clipPath id="peb201cb609">
   <rect x="7.2" y="7.2" width="324" height="324"/>
  </clipPath>
 </defs>
</svg>
