<?xml version="1.0" encoding="utf-8" standalone="no"?>
<!DOCTYPE svg PUBLIC "-//W3C//DTD SVG 1.1//EN"
  "http://www.w3.org/Graphics/SVG/1.1/DTD/svg11.dtd">
<svg xmlns:xlink="http://www.w3.org/1999/xlink" width="621.108pt" height="366.100879pt" viewBox="0 0 621.108 366.100879" xmlns="http://www.w3.org/2000/svg" version="1.1">
 <metadata>
  <rdf:RDF xmlns:dc="http://purl.org/dc/elements/1.1/" xmlns:cc="http://creativecommons.org/ns#" xmlns:rdf="http://www.w3.org/1999/02/22-rdf-syntax-ns#">
   <cc:Work>
    <dc:type rdf:resource="http://purl.org/dc/dcmitype/StillImage"/>
    <dc:date>2026-06-25T17:03:44.134295</dc:date>
    <dc:format>image/svg+xml</dc:format>
    <dc:creator>
     <cc:Agent>
      <dc:title>Matplotlib v3.11.0, https://matplotlib.org/</dc:title>
     </cc:Agent>
    </dc:creator>
   </cc:Work>
  </rdf:RDF>
 </metadata>
 <defs>
  <style type="text/css">*{stroke-linejoin: round; stroke-linecap: butt}</style>
 </defs>
 <g id="figure_1">
  <g id="patch_1">
   <path d="M 0 366.100879 
L 621.108 366.100879 
L 621.108 0 
L 0 0 
L 0 366.100879 
z
" style="fill: none"/>
  </g>
  <g id="axes_1">
   <g id="patch_2">
    <path d="M 7.2 322.54 
L 304.074 322.54 
L 304.074 54.94 
L 7.2 54.94 
L 7.2 322.54 
z
" style="fill: none"/>
   </g>
   <g id="patch_3">
    <path d="M 102.19968 295.453659 
L 164.780719 295.453659 
L 164.780719 284.358049 
L 102.19968 284.358049 
z
" clip-path="url(#pa26252b181)" style="fill: #1f77b4; stroke: #ffffff; stroke-width: 0.4; stroke-linejoin: miter"/>
   </g>
   <g id="patch_4">
    <path d="M 164.780719 295.453659 
L 173.983813 295.453659 
L 173.983813 284.358049 
L 164.780719 284.358049 
z
" clip-path="url(#pa26252b181)" style="fill: #2ca02c; stroke: #ffffff; stroke-width: 0.4; stroke-linejoin: miter"/>
   </g>
   <g id="patch_5">
    <path d="M 173.983813 295.453659 
L 194.23062 295.453659 
L 194.23062 284.358049 
L 173.983813 284.358049 
z
" clip-path="url(#pa26252b181)" style="fill: #d62728; stroke: #ffffff; stroke-width: 0.4; stroke-linejoin: miter"/>
   </g>
   <g id="patch_6">
    <path d="M 102.19968 262.819512 
L 129.808962 262.819512 
L 129.808962 251.723902 
L 102.19968 251.723902 
z
" clip-path="url(#pa26252b181)" style="fill: #1f77b4; stroke: #ffffff; stroke-width: 0.4; stroke-linejoin: miter"/>
   </g>
   <g id="patch_7">
    <path d="M 129.808962 262.819512 
L 162.9401 262.819512 
L 162.9401 251.723902 
L 129.808962 251.723902 
z
" clip-path="url(#pa26252b181)" style="fill: #2ca02c; stroke: #ffffff; stroke-width: 0.4; stroke-linejoin: miter"/>
   </g>
   <g id="patch_8">
    <path d="M 162.9401 262.819512 
L 194.23062 262.819512 
L 194.23062 251.723902 
L 162.9401 251.723902 
z
" clip-path="url(#pa26252b181)" style="fill: #d62728; stroke: #ffffff; stroke-width: 0.4; stroke-linejoin: miter"/>
   </g>
   <g id="patch_9">
    <path d="M 102.19968 99.64878 
L 104.040299 99.64878 
L 104.040299 88.553171 
L 102.19968 88.553171 
z
" clip-path="url(#pa26252b181)" style="fill: #1f77b4; stroke: #ffffff; stroke-width: 0.4; stroke-linejoin: miter"/>
   </g>
   <g id="patch_10">
    <path d="M 104.040299 99.64878 
L 151.896388 99.64878 
L 151.896388 88.553171 
L 104.040299 88.553171 
z
" clip-path="url(#pa26252b181)" style="fill: #2ca02c; stroke: #ffffff; stroke-width: 0.4; stroke-linejoin: miter"/>
   </g>
   <g id="patch_11">
    <path d="M 151.896388 99.64878 
L 194.23062 99.64878 
L 194.23062 88.553171 
L 151.896388 88.553171 
z
" clip-path="url(#pa26252b181)" style="fill: #d62728; stroke: #ffffff; stroke-width: 0.4; stroke-linejoin: miter"/>
   </g>
   <g id="matplotlib.axis_1"/>
   <g id="matplotlib.axis_2"/>
   <g id="text_1">
    <!-- $\nu_1$ -->
    <g transform="translate(201.65247 293.282807) scale(0.13 -0.13)">
     <defs>
      <path id="DejaVuSerif-Italic-335" d="M 1103 363 
Q 1516 513 1997 875 
Q 2291 1094 2691 1638 
Q 2950 1975 3034 2288 
Q 3116 2575 3025 2794 
Q 2906 3097 2691 3138 
L 2725 3322 
L 3075 3322 
Q 3400 3169 3584 2828 
Q 3728 2566 3666 2247 
Q 3622 2016 3494 1825 
Q 3400 1688 3116 1366 
Q 2738 950 2297 663 
Q 1494 138 1034 0 
L 456 0 
L 1041 2988 
L 491 2988 
L 553 3322 
L 1678 3322 
L 1103 363 
z
" transform="scale(0.015625)"/>
      <path id="DejaVuSerif-14" d="M 909 0 
L 909 331 
L 1722 331 
L 1722 4213 
L 781 3603 
L 781 4013 
L 1919 4750 
L 2350 4750 
L 2350 331 
L 3163 331 
L 3163 0 
L 909 0 
z
" transform="scale(0.015625)"/>
     </defs>
     <use xlink:href="#DejaVuSerif-Italic-335" transform="translate(0 0.09375)"/>
     <use xlink:href="#DejaVuSerif-14" transform="translate(60.791016 -14.906201) scale(0.7)"/>
    </g>
   </g>
   <g id="text_2">
    <!-- $\nu_2$ -->
    <g transform="translate(201.65247 260.64866) scale(0.13 -0.13)">
     <defs>
      <path id="DejaVuSerif-15" d="M 819 3553 
L 469 3553 
L 469 4384 
Q 803 4563 1142 4656 
Q 1481 4750 1806 4750 
Q 2534 4750 2956 4397 
Q 3378 4044 3378 3438 
Q 3378 2753 2422 1800 
Q 2347 1728 2309 1691 
L 1131 513 
L 3078 513 
L 3078 1088 
L 3444 1088 
L 3444 0 
L 434 0 
L 434 341 
L 1850 1753 
Q 2319 2222 2519 2614 
Q 2719 3006 2719 3438 
Q 2719 3909 2473 4175 
Q 2228 4441 1797 4441 
Q 1350 4441 1106 4219 
Q 863 3997 819 3553 
z
" transform="scale(0.015625)"/>
     </defs>
     <use xlink:href="#DejaVuSerif-Italic-335" transform="translate(0 0.09375)"/>
     <use xlink:href="#DejaVuSerif-15" transform="translate(60.791016 -14.906201) scale(0.7)"/>
    </g>
   </g>
   <g id="text_3">
    <!-- $\nu_3$ -->
    <g transform="translate(201.65247 97.477929) scale(0.13 -0.13)">
     <defs>
      <path id="DejaVuSerif-16" d="M 622 4469 
Q 988 4606 1323 4678 
Q 1659 4750 1953 4750 
Q 2638 4750 3022 4454 
Q 3406 4159 3406 3634 
Q 3406 3213 3140 2930 
Q 2875 2647 2388 2547 
Q 2963 2466 3280 2130 
Q 3597 1794 3597 1259 
Q 3597 606 3158 257 
Q 2719 -91 1894 -91 
Q 1528 -91 1179 -12 
Q 831 66 488 225 
L 488 1131 
L 838 1131 
Q 869 681 1141 450 
Q 1413 219 1906 219 
Q 2384 219 2661 495 
Q 2938 772 2938 1253 
Q 2938 1803 2653 2086 
Q 2369 2369 1819 2369 
L 1522 2369 
L 1522 2688 
L 1678 2688 
Q 2225 2688 2498 2914 
Q 2772 3141 2772 3597 
Q 2772 4006 2547 4223 
Q 2322 4441 1900 4441 
Q 1478 4441 1245 4241 
Q 1013 4041 972 3647 
L 622 3647 
L 622 4469 
z
" transform="scale(0.015625)"/>
     </defs>
     <use xlink:href="#DejaVuSerif-Italic-335" transform="translate(0 0.09375)"/>
     <use xlink:href="#DejaVuSerif-16" transform="translate(60.791016 -14.906201) scale(0.7)"/>
    </g>
   </g>
   <g id="patch_12">
    <path d="M 81.4185 286.448628 
Q 81.4185 273.587088 81.4185 260.725548 
" style="fill: none; stroke: #595959; stroke-width: 1.3; stroke-linecap: round"/>
    <path d="M 83.8185 281.648628 
L 81.4185 286.448628 
L 79.0185 281.648628 
" style="fill: none; stroke: #595959; stroke-width: 1.3; stroke-linecap: round"/>
    <path d="M 79.0185 265.525548 
L 81.4185 260.725548 
L 83.8185 265.525548 
" style="fill: none; stroke: #595959; stroke-width: 1.3; stroke-linecap: round"/>
   </g>
   <g id="text_4">
    <!-- $\Delta m^2_{21}$ -->
    <g transform="translate(46.42291 269.834239) scale(0.095 -0.095)">
     <defs>
      <path id="DejaVuSerif-30d" d="M 4350 0 
L 244 0 
L 2034 4666 
L 2559 4666 
L 4350 0 
z
M 3506 331 
L 2138 3909 
L 763 331 
L 3506 331 
z
" transform="scale(0.015625)"/>
      <path id="DejaVuSerif-Italic-50" d="M 3503 2675 
Q 3741 3041 4034 3227 
Q 4328 3413 4672 3413 
Q 5194 3413 5388 3088 
Q 5503 2894 5503 2578 
Q 5503 2372 5453 2113 
L 5106 331 
L 5625 331 
L 5563 0 
L 4469 0 
L 4866 2047 
Q 4913 2291 4913 2466 
Q 4913 2659 4856 2772 
Q 4750 2988 4403 2988 
Q 4019 2988 3761 2697 
Q 3503 2406 3394 1850 
L 3034 0 
L 2459 0 
L 2863 2069 
Q 2906 2303 2906 2472 
Q 2906 2666 2850 2775 
Q 2741 2988 2394 2988 
Q 2009 2988 1751 2697 
Q 1494 2406 1384 1850 
L 1025 0 
L 450 0 
L 1031 2994 
L 481 2994 
L 544 3322 
L 1669 3322 
L 1556 2731 
Q 1778 3063 2059 3238 
Q 2341 3413 2653 3413 
Q 3041 3413 3262 3220 
Q 3484 3028 3503 2675 
z
" transform="scale(0.015625)"/>
     </defs>
     <use xlink:href="#DejaVuSerif-30d" transform="translate(0 0.523438)"/>
     <use xlink:href="#DejaVuSerif-Italic-50" transform="translate(72.216797 0.523438)"/>
     <use xlink:href="#DejaVuSerif-15" transform="translate(171.479202 42.046875) scale(0.7)"/>
     <use xlink:href="#DejaVuSerif-15" transform="translate(167.041016 -34.90625) scale(0.7)"/>
     <use xlink:href="#DejaVuSerif-14" transform="translate(211.577148 -34.90625) scale(0.7)"/>
    </g>
    <!-- $7.5\times10^{-5}$ -->
    <g transform="translate(22.10291 283.991095) scale(0.095 -0.095)">
     <defs>
      <path id="DejaVuSerif-1a" d="M 3609 4347 
L 1784 0 
L 1319 0 
L 3059 4153 
L 903 4153 
L 903 3578 
L 538 3578 
L 538 4666 
L 3609 4666 
L 3609 4347 
z
" transform="scale(0.015625)"/>
      <path id="DejaVuSerif-11" d="M 603 325 
Q 603 500 722 622 
Q 841 744 1019 744 
Q 1191 744 1312 622 
Q 1434 500 1434 325 
Q 1434 153 1312 31 
Q 1191 -91 1019 -91 
Q 841 -91 722 29 
Q 603 150 603 325 
z
" transform="scale(0.015625)"/>
      <path id="DejaVuSerif-18" d="M 3219 4666 
L 3219 4153 
L 1081 4153 
L 1081 2816 
Q 1244 2928 1461 2984 
Q 1678 3041 1947 3041 
Q 2703 3041 3140 2622 
Q 3578 2203 3578 1478 
Q 3578 738 3136 323 
Q 2694 -91 1894 -91 
Q 1572 -91 1234 -12 
Q 897 66 544 225 
L 544 1131 
L 897 1131 
Q 925 688 1179 453 
Q 1434 219 1894 219 
Q 2388 219 2653 544 
Q 2919 869 2919 1478 
Q 2919 2084 2655 2407 
Q 2391 2731 1894 2731 
Q 1613 2731 1398 2631 
Q 1184 2531 1019 2322 
L 750 2322 
L 750 4666 
L 3219 4666 
z
" transform="scale(0.015625)"/>
      <path id="DejaVuSerif-99" d="M 4481 3450 
L 3034 2003 
L 4481 563 
L 4122 213 
L 2681 1650 
L 1241 213 
L 884 563 
L 2322 2003 
L 884 3450 
L 1241 3803 
L 2681 2363 
L 4122 3803 
L 4481 3450 
z
" transform="scale(0.015625)"/>
      <path id="DejaVuSerif-13" d="M 2034 219 
Q 2513 219 2750 744 
Q 2988 1269 2988 2328 
Q 2988 3391 2750 3916 
Q 2513 4441 2034 4441 
Q 1556 4441 1318 3916 
Q 1081 3391 1081 2328 
Q 1081 1269 1318 744 
Q 1556 219 2034 219 
z
M 2034 -91 
Q 1275 -91 848 546 
Q 422 1184 422 2328 
Q 422 3475 848 4112 
Q 1275 4750 2034 4750 
Q 2797 4750 3222 4112 
Q 3647 3475 3647 2328 
Q 3647 1184 3222 546 
Q 2797 -91 2034 -91 
z
" transform="scale(0.015625)"/>
      <path id="DejaVuSerif-8cf" d="M 678 2259 
L 4684 2259 
L 4684 1753 
L 678 1753 
L 678 2259 
z
" transform="scale(0.015625)"/>
     </defs>
     <use xlink:href="#DejaVuSerif-1a" transform="translate(0 0.665625)"/>
     <use xlink:href="#DejaVuSerif-11" transform="translate(63.623047 0.665625)"/>
     <use xlink:href="#DejaVuSerif-18" transform="translate(95.410156 0.665625)"/>
     <use xlink:href="#DejaVuSerif-99" transform="translate(177.998047 0.665625)"/>
     <use xlink:href="#DejaVuSerif-14" transform="translate(280.751953 0.665625)"/>
     <use xlink:href="#DejaVuSerif-13" transform="translate(344.375 0.665625)"/>
     <use xlink:href="#DejaVuSerif-8cf" transform="translate(408.906372 41.965625) scale(0.7)"/>
     <use xlink:href="#DejaVuSerif-18" transform="translate(467.558716 41.965625) scale(0.7)"/>
    </g>
   </g>
   <g id="patch_13">
    <path d="M 148.21515 270.133298 
Q 148.21515 183.844545 148.21515 97.555793 
" style="fill: none; stroke: #595959; stroke-width: 1.3; stroke-linecap: round"/>
    <path d="M 150.61515 265.333298 
L 148.21515 270.133298 
L 145.81515 265.333298 
" style="fill: none; stroke: #595959; stroke-width: 1.3; stroke-linecap: round"/>
    <path d="M 145.81515 102.355793 
L 148.21515 97.555793 
L 150.61515 102.355793 
" style="fill: none; stroke: #595959; stroke-width: 1.3; stroke-linecap: round"/>
   </g>
   <g id="text_5">
    <!-- $\Delta m^2_{31}\approx 2.5\times10^{-3}\,$eV$^2$ -->
    <g transform="translate(160.09011 188.184085) scale(0.095 -0.095)">
     <defs>
      <path id="DejaVuSerif-8f0" d="M 4684 1913 
L 4684 1453 
Q 4375 1172 4092 1040 
Q 3809 909 3519 909 
Q 3231 909 2713 1106 
Q 2666 1125 2641 1134 
Q 2609 1147 2541 1172 
Q 2081 1350 1784 1350 
Q 1497 1350 1226 1236 
Q 956 1122 678 884 
L 678 1344 
Q 994 1625 1273 1753 
Q 1553 1881 1844 1881 
Q 2144 1881 2688 1675 
L 2719 1663 
Q 2753 1653 2816 1625 
Q 3269 1447 3572 1447 
Q 3859 1447 4134 1561 
Q 4409 1675 4684 1913 
z
M 4684 3128 
L 4684 2669 
Q 4378 2391 4095 2261 
Q 3813 2131 3519 2131 
Q 3219 2131 2675 2338 
L 2644 2350 
Q 2609 2363 2541 2388 
Q 2081 2566 1784 2566 
Q 1497 2566 1226 2452 
Q 956 2338 678 2100 
L 678 2559 
Q 994 2841 1273 2969 
Q 1553 3097 1844 3097 
Q 2144 3097 2688 2894 
L 2719 2881 
Q 2753 2869 2816 2841 
Q 3269 2663 3572 2663 
Q 3859 2663 4134 2777 
Q 4409 2891 4684 3128 
z
" transform="scale(0.015625)"/>
      <path id="DejaVuSerif-48" d="M 3469 1600 
L 991 1600 
L 991 1575 
Q 991 903 1244 561 
Q 1497 219 1991 219 
Q 2369 219 2611 417 
Q 2853 616 2950 1006 
L 3413 1006 
Q 3275 459 2904 184 
Q 2534 -91 1931 -91 
Q 1203 -91 761 389 
Q 319 869 319 1663 
Q 319 2450 753 2931 
Q 1188 3413 1894 3413 
Q 2647 3413 3050 2948 
Q 3453 2484 3469 1600 
z
M 2791 1931 
Q 2772 2513 2545 2808 
Q 2319 3103 1894 3103 
Q 1497 3103 1269 2806 
Q 1041 2509 991 1931 
L 2791 1931 
z
" transform="scale(0.015625)"/>
      <path id="DejaVuSerif-39" d="M 1119 4331 
L 2497 750 
L 3872 4331 
L 3347 4331 
L 3347 4666 
L 4716 4666 
L 4716 4331 
L 4263 4331 
L 2597 0 
L 2059 0 
L 403 4331 
L -63 4331 
L -63 4666 
L 1638 4666 
L 1638 4331 
L 1119 4331 
z
" transform="scale(0.015625)"/>
     </defs>
     <use xlink:href="#DejaVuSerif-30d" transform="translate(0 0.523438)"/>
     <use xlink:href="#DejaVuSerif-Italic-50" transform="translate(72.216797 0.523438)"/>
     <use xlink:href="#DejaVuSerif-15" transform="translate(171.479202 42.046875) scale(0.7)"/>
     <use xlink:href="#DejaVuSerif-16" transform="translate(167.041016 -34.90625) scale(0.7)"/>
     <use xlink:href="#DejaVuSerif-14" transform="translate(211.577148 -34.90625) scale(0.7)"/>
     <use xlink:href="#DejaVuSerif-8f0" transform="translate(277.67334 0.523438)"/>
     <use xlink:href="#DejaVuSerif-15" transform="translate(380.427246 0.523438)"/>
     <use xlink:href="#DejaVuSerif-11" transform="translate(444.050293 0.523438)"/>
     <use xlink:href="#DejaVuSerif-18" transform="translate(475.837402 0.523438)"/>
     <use xlink:href="#DejaVuSerif-99" transform="translate(558.425293 0.523438)"/>
     <use xlink:href="#DejaVuSerif-14" transform="translate(661.179199 0.523438)"/>
     <use xlink:href="#DejaVuSerif-13" transform="translate(724.802246 0.523438)"/>
     <use xlink:href="#DejaVuSerif-8cf" transform="translate(789.333618 41.823437) scale(0.7)"/>
     <use xlink:href="#DejaVuSerif-16" transform="translate(847.985962 41.823437) scale(0.7)"/>
     <use xlink:href="#DejaVuSerif-48" transform="translate(910.921662 0.523438)"/>
     <use xlink:href="#DejaVuSerif-39" transform="translate(970.10135 0.523438)"/>
     <use xlink:href="#DejaVuSerif-15" transform="translate(1043.226472 41.823437) scale(0.7)"/>
    </g>
   </g>
   <g id="patch_14">
    <path d="M 32.43429 317.274248 
Q 32.43429 190.371738 32.43429 64.810869 
" style="fill: none; stroke: #4c4c4c; stroke-width: 1.2; stroke-linecap: round"/>
    <path d="M 30.03429 69.610869 
L 32.43429 64.810869 
L 34.83429 69.610869 
" style="fill: none; stroke: #4c4c4c; stroke-width: 1.2; stroke-linecap: round"/>
   </g>
   <g id="text_6">
    <!-- mass$^2$ -->
    <g style="fill: #4c4c4c" transform="translate(24.757924 203.836585) rotate(-90) scale(0.12 -0.12)">
     <defs>
      <path id="DejaVuSerif-50" d="M 3316 2675 
Q 3481 3041 3739 3227 
Q 3997 3413 4341 3413 
Q 4863 3413 5119 3089 
Q 5375 2766 5375 2113 
L 5375 331 
L 5894 331 
L 5894 0 
L 4300 0 
L 4300 331 
L 4800 331 
L 4800 2047 
Q 4800 2556 4650 2772 
Q 4500 2988 4153 2988 
Q 3769 2988 3567 2697 
Q 3366 2406 3366 1850 
L 3366 331 
L 3866 331 
L 3866 0 
L 2291 0 
L 2291 331 
L 2791 331 
L 2791 2069 
Q 2791 2566 2641 2777 
Q 2491 2988 2144 2988 
Q 1759 2988 1557 2697 
Q 1356 2406 1356 1850 
L 1356 331 
L 1856 331 
L 1856 0 
L 263 0 
L 263 331 
L 781 331 
L 781 2994 
L 231 2994 
L 231 3322 
L 1356 3322 
L 1356 2731 
Q 1516 3063 1762 3238 
Q 2009 3413 2322 3413 
Q 2709 3413 2968 3220 
Q 3228 3028 3316 2675 
z
" transform="scale(0.015625)"/>
      <path id="DejaVuSerif-44" d="M 2547 1044 
L 2547 1747 
L 1806 1747 
Q 1378 1747 1168 1562 
Q 959 1378 959 997 
Q 959 650 1171 447 
Q 1384 244 1747 244 
Q 2106 244 2326 466 
Q 2547 688 2547 1044 
z
M 3122 2075 
L 3122 331 
L 3634 331 
L 3634 0 
L 2547 0 
L 2547 359 
Q 2356 128 2106 18 
Q 1856 -91 1522 -91 
Q 969 -91 644 203 
Q 319 497 319 997 
Q 319 1513 691 1797 
Q 1063 2081 1741 2081 
L 2547 2081 
L 2547 2309 
Q 2547 2688 2317 2895 
Q 2088 3103 1672 3103 
Q 1328 3103 1125 2947 
Q 922 2791 872 2484 
L 575 2484 
L 575 3156 
Q 875 3284 1158 3348 
Q 1441 3413 1709 3413 
Q 2400 3413 2761 3070 
Q 3122 2728 3122 2075 
z
" transform="scale(0.015625)"/>
      <path id="DejaVuSerif-56" d="M 359 184 
L 359 959 
L 691 959 
Q 703 588 923 403 
Q 1144 219 1575 219 
Q 1963 219 2166 364 
Q 2369 509 2369 788 
Q 2369 1006 2220 1140 
Q 2072 1275 1594 1428 
L 1178 1569 
Q 750 1706 558 1912 
Q 366 2119 366 2438 
Q 366 2894 700 3153 
Q 1034 3413 1625 3413 
Q 1888 3413 2178 3344 
Q 2469 3275 2778 3144 
L 2778 2419 
L 2447 2419 
Q 2434 2741 2221 2922 
Q 2009 3103 1644 3103 
Q 1281 3103 1095 2975 
Q 909 2847 909 2591 
Q 909 2381 1050 2254 
Q 1191 2128 1613 1997 
L 2069 1856 
Q 2541 1709 2748 1489 
Q 2956 1269 2956 922 
Q 2956 450 2595 179 
Q 2234 -91 1600 -91 
Q 1278 -91 972 -22 
Q 666 47 359 184 
z
" transform="scale(0.015625)"/>
     </defs>
     <use xlink:href="#DejaVuSerif-50" transform="translate(0 0.746875)"/>
     <use xlink:href="#DejaVuSerif-44" transform="translate(94.824219 0.746875)"/>
     <use xlink:href="#DejaVuSerif-56" transform="translate(154.443359 0.746875)"/>
     <use xlink:href="#DejaVuSerif-56" transform="translate(205.761719 0.746875)"/>
     <use xlink:href="#DejaVuSerif-15" transform="translate(257.988403 42.046875) scale(0.7)"/>
    </g>
   </g>
   <g id="text_7">
    <!-- Normal ordering -->
    <g transform="translate(100.183875 48.94) scale(0.13 -0.13)">
     <defs>
      <path id="DejaVuSerif-31" d="M 313 0 
L 313 331 
L 941 331 
L 941 4331 
L 313 4331 
L 313 4666 
L 1509 4666 
L 4306 984 
L 4306 4331 
L 3681 4331 
L 3681 4666 
L 5319 4666 
L 5319 4331 
L 4691 4331 
L 4691 -91 
L 4313 -91 
L 1325 3841 
L 1325 331 
L 1953 331 
L 1953 0 
L 313 0 
z
" transform="scale(0.015625)"/>
      <path id="DejaVuSerif-52" d="M 1925 219 
Q 2388 219 2623 584 
Q 2859 950 2859 1663 
Q 2859 2375 2623 2739 
Q 2388 3103 1925 3103 
Q 1463 3103 1227 2739 
Q 991 2375 991 1663 
Q 991 950 1228 584 
Q 1466 219 1925 219 
z
M 1925 -91 
Q 1200 -91 759 389 
Q 319 869 319 1663 
Q 319 2456 758 2934 
Q 1197 3413 1925 3413 
Q 2653 3413 3092 2934 
Q 3531 2456 3531 1663 
Q 3531 869 3092 389 
Q 2653 -91 1925 -91 
z
" transform="scale(0.015625)"/>
      <path id="DejaVuSerif-55" d="M 3059 3328 
L 3059 2497 
L 2728 2497 
Q 2713 2744 2591 2866 
Q 2469 2988 2234 2988 
Q 1809 2988 1582 2694 
Q 1356 2400 1356 1850 
L 1356 331 
L 2022 331 
L 2022 0 
L 263 0 
L 263 331 
L 781 331 
L 781 2994 
L 231 2994 
L 231 3322 
L 1356 3322 
L 1356 2731 
Q 1525 3078 1790 3245 
Q 2056 3413 2438 3413 
Q 2578 3413 2733 3391 
Q 2888 3369 3059 3328 
z
" transform="scale(0.015625)"/>
      <path id="DejaVuSerif-4f" d="M 1313 331 
L 1856 331 
L 1856 0 
L 184 0 
L 184 331 
L 738 331 
L 738 4531 
L 184 4531 
L 184 4863 
L 1313 4863 
L 1313 331 
z
" transform="scale(0.015625)"/>
      <path id="DejaVuSerif-3" transform="scale(0.015625)"/>
      <path id="DejaVuSerif-47" d="M 3359 331 
L 3909 331 
L 3909 0 
L 2784 0 
L 2784 519 
Q 2616 206 2355 57 
Q 2094 -91 1709 -91 
Q 1097 -91 708 395 
Q 319 881 319 1663 
Q 319 2444 706 2928 
Q 1094 3413 1709 3413 
Q 2094 3413 2355 3264 
Q 2616 3116 2784 2803 
L 2784 4531 
L 2241 4531 
L 2241 4863 
L 3359 4863 
L 3359 331 
z
M 2784 1497 
L 2784 1825 
Q 2784 2422 2554 2737 
Q 2325 3053 1888 3053 
Q 1444 3053 1217 2703 
Q 991 2353 991 1663 
Q 991 975 1217 622 
Q 1444 269 1888 269 
Q 2325 269 2554 583 
Q 2784 897 2784 1497 
z
" transform="scale(0.015625)"/>
      <path id="DejaVuSerif-4c" d="M 622 4353 
Q 622 4497 726 4603 
Q 831 4709 978 4709 
Q 1122 4709 1226 4603 
Q 1331 4497 1331 4353 
Q 1331 4206 1228 4103 
Q 1125 4000 978 4000 
Q 831 4000 726 4103 
Q 622 4206 622 4353 
z
M 1356 331 
L 1900 331 
L 1900 0 
L 231 0 
L 231 331 
L 781 331 
L 781 2988 
L 231 2988 
L 231 3322 
L 1356 3322 
L 1356 331 
z
" transform="scale(0.015625)"/>
      <path id="DejaVuSerif-51" d="M 263 0 
L 263 331 
L 781 331 
L 781 2988 
L 231 2988 
L 231 3322 
L 1356 3322 
L 1356 2731 
Q 1516 3069 1770 3241 
Q 2025 3413 2363 3413 
Q 2913 3413 3172 3097 
Q 3431 2781 3431 2113 
L 3431 331 
L 3944 331 
L 3944 0 
L 2356 0 
L 2356 331 
L 2853 331 
L 2853 1931 
Q 2853 2541 2703 2767 
Q 2553 2994 2175 2994 
Q 1775 2994 1565 2701 
Q 1356 2409 1356 1850 
L 1356 331 
L 1856 331 
L 1856 0 
L 263 0 
z
" transform="scale(0.015625)"/>
      <path id="DejaVuSerif-4a" d="M 3359 2988 
L 3359 72 
Q 3359 -644 2965 -1033 
Q 2572 -1422 1844 -1422 
Q 1516 -1422 1216 -1362 
Q 916 -1303 641 -1184 
L 641 -488 
L 941 -488 
Q 997 -813 1206 -963 
Q 1416 -1113 1806 -1113 
Q 2313 -1113 2548 -827 
Q 2784 -541 2784 72 
L 2784 519 
Q 2616 206 2355 57 
Q 2094 -91 1709 -91 
Q 1097 -91 708 395 
Q 319 881 319 1663 
Q 319 2444 706 2928 
Q 1094 3413 1709 3413 
Q 2094 3413 2355 3264 
Q 2616 3116 2784 2803 
L 2784 3322 
L 3909 3322 
L 3909 2988 
L 3359 2988 
z
M 2784 1825 
Q 2784 2422 2554 2737 
Q 2325 3053 1888 3053 
Q 1444 3053 1217 2703 
Q 991 2353 991 1663 
Q 991 975 1217 622 
Q 1444 269 1888 269 
Q 2325 269 2554 583 
Q 2784 897 2784 1497 
L 2784 1825 
z
" transform="scale(0.015625)"/>
     </defs>
     <use xlink:href="#DejaVuSerif-31"/>
     <use xlink:href="#DejaVuSerif-52" transform="translate(87.5 0)"/>
     <use xlink:href="#DejaVuSerif-55" transform="translate(147.703125 0)"/>
     <use xlink:href="#DejaVuSerif-50" transform="translate(195.5 0)"/>
     <use xlink:href="#DejaVuSerif-44" transform="translate(290.328125 0)"/>
     <use xlink:href="#DejaVuSerif-4f" transform="translate(349.953125 0)"/>
     <use xlink:href="#DejaVuSerif-3" transform="translate(381.9375 0)"/>
     <use xlink:href="#DejaVuSerif-52" transform="translate(413.71875 0)"/>
     <use xlink:href="#DejaVuSerif-55" transform="translate(473.921875 0)"/>
     <use xlink:href="#DejaVuSerif-47" transform="translate(521.71875 0)"/>
     <use xlink:href="#DejaVuSerif-48" transform="translate(585.734375 0)"/>
     <use xlink:href="#DejaVuSerif-55" transform="translate(644.921875 0)"/>
     <use xlink:href="#DejaVuSerif-4c" transform="translate(692.71875 0)"/>
     <use xlink:href="#DejaVuSerif-51" transform="translate(724.703125 0)"/>
     <use xlink:href="#DejaVuSerif-4a" transform="translate(789.109375 0)"/>
    </g>
   </g>
  </g>
  <g id="axes_2">
   <g id="patch_15">
    <path d="M 317.034 322.54 
L 613.908 322.54 
L 613.908 54.94 
L 317.034 54.94 
L 317.034 322.54 
z
" style="fill: none"/>
   </g>
   <g id="patch_16">
    <path d="M 412.03368 295.453659 
L 413.874299 295.453659 
L 413.874299 284.358049 
L 412.03368 284.358049 
z
" clip-path="url(#p11abad7b4b)" style="fill: #1f77b4; stroke: #ffffff; stroke-width: 0.4; stroke-linejoin: miter"/>
   </g>
   <g id="patch_17">
    <path d="M 413.874299 295.453659 
L 461.730388 295.453659 
L 461.730388 284.358049 
L 413.874299 284.358049 
z
" clip-path="url(#p11abad7b4b)" style="fill: #2ca02c; stroke: #ffffff; stroke-width: 0.4; stroke-linejoin: miter"/>
   </g>
   <g id="patch_18">
    <path d="M 461.730388 295.453659 
L 504.06462 295.453659 
L 504.06462 284.358049 
L 461.730388 284.358049 
z
" clip-path="url(#p11abad7b4b)" style="fill: #d62728; stroke: #ffffff; stroke-width: 0.4; stroke-linejoin: miter"/>
   </g>
   <g id="patch_19">
    <path d="M 412.03368 132.282927 
L 474.614719 132.282927 
L 474.614719 121.187317 
L 412.03368 121.187317 
z
" clip-path="url(#p11abad7b4b)" style="fill: #1f77b4; stroke: #ffffff; stroke-width: 0.4; stroke-linejoin: miter"/>
   </g>
   <g id="patch_20">
    <path d="M 474.614719 132.282927 
L 483.817813 132.282927 
L 483.817813 121.187317 
L 474.614719 121.187317 
z
" clip-path="url(#p11abad7b4b)" style="fill: #2ca02c; stroke: #ffffff; stroke-width: 0.4; stroke-linejoin: miter"/>
   </g>
   <g id="patch_21">
    <path d="M 483.817813 132.282927 
L 504.06462 132.282927 
L 504.06462 121.187317 
L 483.817813 121.187317 
z
" clip-path="url(#p11abad7b4b)" style="fill: #d62728; stroke: #ffffff; stroke-width: 0.4; stroke-linejoin: miter"/>
   </g>
   <g id="patch_22">
    <path d="M 412.03368 99.64878 
L 439.642962 99.64878 
L 439.642962 88.553171 
L 412.03368 88.553171 
z
" clip-path="url(#p11abad7b4b)" style="fill: #1f77b4; stroke: #ffffff; stroke-width: 0.4; stroke-linejoin: miter"/>
   </g>
   <g id="patch_23">
    <path d="M 439.642962 99.64878 
L 472.7741 99.64878 
L 472.7741 88.553171 
L 439.642962 88.553171 
z
" clip-path="url(#p11abad7b4b)" style="fill: #2ca02c; stroke: #ffffff; stroke-width: 0.4; stroke-linejoin: miter"/>
   </g>
   <g id="patch_24">
    <path d="M 472.7741 99.64878 
L 504.06462 99.64878 
L 504.06462 88.553171 
L 472.7741 88.553171 
z
" clip-path="url(#p11abad7b4b)" style="fill: #d62728; stroke: #ffffff; stroke-width: 0.4; stroke-linejoin: miter"/>
   </g>
   <g id="matplotlib.axis_3"/>
   <g id="matplotlib.axis_4"/>
   <g id="text_8">
    <!-- $\nu_3$ -->
    <g transform="translate(511.48647 293.282807) scale(0.13 -0.13)">
     <use xlink:href="#DejaVuSerif-Italic-335" transform="translate(0 0.09375)"/>
     <use xlink:href="#DejaVuSerif-16" transform="translate(60.791016 -14.906201) scale(0.7)"/>
    </g>
   </g>
   <g id="text_9">
    <!-- $\nu_1$ -->
    <g transform="translate(511.48647 130.112075) scale(0.13 -0.13)">
     <use xlink:href="#DejaVuSerif-Italic-335" transform="translate(0 0.09375)"/>
     <use xlink:href="#DejaVuSerif-14" transform="translate(60.791016 -14.906201) scale(0.7)"/>
    </g>
   </g>
   <g id="text_10">
    <!-- $\nu_2$ -->
    <g transform="translate(511.48647 97.477929) scale(0.13 -0.13)">
     <use xlink:href="#DejaVuSerif-Italic-335" transform="translate(0 0.09375)"/>
     <use xlink:href="#DejaVuSerif-15" transform="translate(60.791016 -14.906201) scale(0.7)"/>
    </g>
   </g>
   <g id="patch_25">
    <path d="M 391.2525 123.277897 
Q 391.2525 110.416356 391.2525 97.554816 
" style="fill: none; stroke: #595959; stroke-width: 1.3; stroke-linecap: round"/>
    <path d="M 393.6525 118.477897 
L 391.2525 123.277897 
L 388.8525 118.477897 
" style="fill: none; stroke: #595959; stroke-width: 1.3; stroke-linecap: round"/>
    <path d="M 388.8525 102.354816 
L 391.2525 97.554816 
L 393.6525 102.354816 
" style="fill: none; stroke: #595959; stroke-width: 1.3; stroke-linecap: round"/>
   </g>
   <g id="text_11">
    <!-- $\Delta m^2_{21}$ -->
    <g transform="translate(356.25691 113.173049) scale(0.095 -0.095)">
     <use xlink:href="#DejaVuSerif-30d" transform="translate(0 0.523438)"/>
     <use xlink:href="#DejaVuSerif-Italic-50" transform="translate(72.216797 0.523438)"/>
     <use xlink:href="#DejaVuSerif-15" transform="translate(171.479202 42.046875) scale(0.7)"/>
     <use xlink:href="#DejaVuSerif-15" transform="translate(167.041016 -34.90625) scale(0.7)"/>
     <use xlink:href="#DejaVuSerif-14" transform="translate(211.577148 -34.90625) scale(0.7)"/>
    </g>
   </g>
   <g id="patch_26">
    <path d="M 342.26829 317.274248 
Q 342.26829 190.371738 342.26829 64.810869 
" style="fill: none; stroke: #4c4c4c; stroke-width: 1.2; stroke-linecap: round"/>
    <path d="M 339.86829 69.610869 
L 342.26829 64.810869 
L 344.66829 69.610869 
" style="fill: none; stroke: #4c4c4c; stroke-width: 1.2; stroke-linecap: round"/>
   </g>
   <g id="text_12">
    <!-- mass$^2$ -->
    <g style="fill: #4c4c4c" transform="translate(334.591924 203.836585) rotate(-90) scale(0.12 -0.12)">
     <use xlink:href="#DejaVuSerif-50" transform="translate(0 0.746875)"/>
     <use xlink:href="#DejaVuSerif-44" transform="translate(94.824219 0.746875)"/>
     <use xlink:href="#DejaVuSerif-56" transform="translate(154.443359 0.746875)"/>
     <use xlink:href="#DejaVuSerif-56" transform="translate(205.761719 0.746875)"/>
     <use xlink:href="#DejaVuSerif-15" transform="translate(257.988403 42.046875) scale(0.7)"/>
    </g>
   </g>
   <g id="text_13">
    <!-- Inverted ordering -->
    <g transform="translate(406.843031 48.94) scale(0.13 -0.13)">
     <defs>
      <path id="DejaVuSerif-2c" d="M 1581 331 
L 2175 331 
L 2175 0 
L 353 0 
L 353 331 
L 947 331 
L 947 4331 
L 353 4331 
L 353 4666 
L 2175 4666 
L 2175 4331 
L 1581 4331 
L 1581 331 
z
" transform="scale(0.015625)"/>
      <path id="DejaVuSerif-59" d="M 1581 0 
L 359 2988 
L -19 2988 
L -19 3322 
L 1509 3322 
L 1509 2988 
L 978 2988 
L 1913 703 
L 2847 2988 
L 2350 2988 
L 2350 3322 
L 3597 3322 
L 3597 2988 
L 3225 2988 
L 2003 0 
L 1581 0 
z
" transform="scale(0.015625)"/>
      <path id="DejaVuSerif-57" d="M 691 2988 
L 184 2988 
L 184 3322 
L 691 3322 
L 691 4353 
L 1269 4353 
L 1269 3322 
L 2350 3322 
L 2350 2988 
L 1269 2988 
L 1269 878 
Q 1269 456 1350 337 
Q 1431 219 1650 219 
Q 1875 219 1978 351 
Q 2081 484 2088 781 
L 2522 781 
Q 2497 328 2275 118 
Q 2053 -91 1600 -91 
Q 1103 -91 897 129 
Q 691 350 691 878 
L 691 2988 
z
" transform="scale(0.015625)"/>
     </defs>
     <use xlink:href="#DejaVuSerif-2c"/>
     <use xlink:href="#DejaVuSerif-51" transform="translate(39.5 0)"/>
     <use xlink:href="#DejaVuSerif-59" transform="translate(103.90625 0)"/>
     <use xlink:href="#DejaVuSerif-48" transform="translate(160.40625 0)"/>
     <use xlink:href="#DejaVuSerif-55" transform="translate(219.59375 0)"/>
     <use xlink:href="#DejaVuSerif-57" transform="translate(267.390625 0)"/>
     <use xlink:href="#DejaVuSerif-48" transform="translate(307.578125 0)"/>
     <use xlink:href="#DejaVuSerif-47" transform="translate(366.765625 0)"/>
     <use xlink:href="#DejaVuSerif-3" transform="translate(430.78125 0)"/>
     <use xlink:href="#DejaVuSerif-52" transform="translate(462.5625 0)"/>
     <use xlink:href="#DejaVuSerif-55" transform="translate(522.765625 0)"/>
     <use xlink:href="#DejaVuSerif-47" transform="translate(570.5625 0)"/>
     <use xlink:href="#DejaVuSerif-48" transform="translate(634.578125 0)"/>
     <use xlink:href="#DejaVuSerif-55" transform="translate(693.765625 0)"/>
     <use xlink:href="#DejaVuSerif-4c" transform="translate(741.5625 0)"/>
     <use xlink:href="#DejaVuSerif-51" transform="translate(773.546875 0)"/>
     <use xlink:href="#DejaVuSerif-4a" transform="translate(837.953125 0)"/>
    </g>
   </g>
  </g>
  <g id="text_14">
   <!-- Bar widths = flavour content $|U_{\alpha i}|^2$.  Vertical scale schematic. Oscillations fix the gaps; the -->
   <g style="fill: #595959" transform="translate(102.843 342.156133) scale(0.09 -0.09)">
    <defs>
     <path id="DejaVuSerif-25" d="M 1581 331 
L 2516 331 
Q 3078 331 3337 575 
Q 3597 819 3597 1350 
Q 3597 1878 3339 2120 
Q 3081 2363 2516 2363 
L 1581 2363 
L 1581 331 
z
M 1581 2694 
L 2375 2694 
Q 2888 2694 3123 2891 
Q 3359 3088 3359 3513 
Q 3359 3941 3123 4136 
Q 2888 4331 2375 4331 
L 1581 4331 
L 1581 2694 
z
M 353 0 
L 353 331 
L 947 331 
L 947 4331 
L 353 4331 
L 353 4666 
L 2656 4666 
Q 3363 4666 3720 4377 
Q 4078 4088 4078 3513 
Q 4078 3097 3829 2850 
Q 3581 2603 3103 2547 
Q 3697 2472 4005 2167 
Q 4313 1863 4313 1350 
Q 4313 656 3875 328 
Q 3438 0 2509 0 
L 353 0 
z
" transform="scale(0.015625)"/>
     <path id="DejaVuSerif-5a" d="M 3072 3322 
L 3922 728 
L 4672 2988 
L 4191 2988 
L 4191 3322 
L 5394 3322 
L 5394 2988 
L 5025 2988 
L 4038 0 
L 3559 0 
L 2741 2484 
L 1919 0 
L 1459 0 
L 475 2988 
L 103 2988 
L 103 3322 
L 1606 3322 
L 1606 2988 
L 1069 2988 
L 1813 728 
L 2669 3322 
L 3072 3322 
z
" transform="scale(0.015625)"/>
     <path id="DejaVuSerif-4b" d="M 263 0 
L 263 331 
L 781 331 
L 781 4531 
L 231 4531 
L 231 4863 
L 1356 4863 
L 1356 2731 
Q 1516 3069 1770 3241 
Q 2025 3413 2363 3413 
Q 2913 3413 3172 3097 
Q 3431 2781 3431 2113 
L 3431 331 
L 3944 331 
L 3944 0 
L 2356 0 
L 2356 331 
L 2853 331 
L 2853 1931 
Q 2853 2541 2704 2764 
Q 2556 2988 2175 2988 
Q 1775 2988 1565 2697 
Q 1356 2406 1356 1850 
L 1356 331 
L 1856 331 
L 1856 0 
L 263 0 
z
" transform="scale(0.015625)"/>
     <path id="DejaVuSerif-20" d="M 678 2894 
L 4684 2894 
L 4684 2394 
L 678 2394 
L 678 2894 
z
M 678 1619 
L 4684 1619 
L 4684 1119 
L 678 1119 
L 678 1619 
z
" transform="scale(0.015625)"/>
     <path id="DejaVuSerif-49" d="M 2753 4078 
L 2450 4078 
Q 2447 4313 2317 4434 
Q 2188 4556 1941 4556 
Q 1619 4556 1487 4379 
Q 1356 4203 1356 3750 
L 1356 3322 
L 2284 3322 
L 2284 2988 
L 1356 2988 
L 1356 331 
L 2094 331 
L 2094 0 
L 231 0 
L 231 331 
L 781 331 
L 781 2988 
L 231 2988 
L 231 3322 
L 781 3322 
L 781 3738 
Q 781 4294 1070 4578 
Q 1359 4863 1919 4863 
Q 2128 4863 2337 4825 
Q 2547 4788 2753 4709 
L 2753 4078 
z
" transform="scale(0.015625)"/>
     <path id="DejaVuSerif-58" d="M 2266 3322 
L 3341 3322 
L 3341 331 
L 3884 331 
L 3884 0 
L 2766 0 
L 2766 588 
Q 2606 256 2353 82 
Q 2100 -91 1766 -91 
Q 1213 -91 952 223 
Q 691 538 691 1209 
L 691 2988 
L 172 2988 
L 172 3322 
L 1269 3322 
L 1269 1388 
Q 1269 781 1417 556 
Q 1566 331 1947 331 
Q 2347 331 2556 625 
Q 2766 919 2766 1478 
L 2766 2988 
L 2266 2988 
L 2266 3322 
z
" transform="scale(0.015625)"/>
     <path id="DejaVuSerif-46" d="M 3291 997 
Q 3169 466 2822 187 
Q 2475 -91 1925 -91 
Q 1200 -91 759 389 
Q 319 869 319 1663 
Q 319 2459 759 2936 
Q 1200 3413 1925 3413 
Q 2241 3413 2553 3339 
Q 2866 3266 3181 3116 
L 3181 2266 
L 2847 2266 
Q 2781 2703 2561 2903 
Q 2341 3103 1931 3103 
Q 1466 3103 1228 2742 
Q 991 2381 991 1663 
Q 991 944 1227 581 
Q 1463 219 1931 219 
Q 2303 219 2525 412 
Q 2747 606 2828 997 
L 3291 997 
z
" transform="scale(0.015625)"/>
     <path id="DejaVuSerif-5f" d="M 1331 4891 
L 1331 -1509 
L 825 -1509 
L 825 4891 
L 1331 4891 
z
" transform="scale(0.015625)"/>
     <path id="DejaVuSerif-Italic-38" d="M 1294 4331 
L 697 4331 
L 763 4666 
L 2588 4666 
L 2522 4331 
L 1925 4331 
L 1456 1919 
Q 1281 1025 1506 672 
Q 1731 319 2447 319 
Q 3163 319 3522 672 
Q 3881 1025 4056 1919 
L 4525 4331 
L 3928 4331 
L 3994 4666 
L 5569 4666 
L 5503 4331 
L 4909 4331 
L 4428 1856 
Q 4222 791 3726 350 
Q 3231 -91 2250 -91 
Q 1269 -91 937 353 
Q 606 797 813 1856 
L 1294 4331 
z
" transform="scale(0.015625)"/>
     <path id="DejaVuSerif-Italic-329" d="M 2597 819 
L 2406 472 
Q 2259 206 1925 31 
Q 1719 -78 1388 -78 
Q 1378 -78 1369 -78 
Q 753 -75 463 406 
Q 269 728 269 1175 
Q 269 1409 322 1675 
Q 472 2441 953 2941 
Q 1406 3409 2172 3409 
Q 2713 3409 2941 3200 
Q 3144 3013 3156 2613 
L 3159 2497 
L 3347 2844 
Q 3525 3172 3878 3334 
L 4194 3334 
L 4156 3150 
Q 3838 3056 3675 2763 
L 3178 1875 
L 3213 919 
Q 3228 428 3338 375 
Q 3375 356 3434 356 
Q 3603 356 3928 531 
L 3856 153 
Q 3509 -25 3244 -25 
Q 2966 -25 2778 169 
Q 2609 344 2603 597 
L 2597 819 
z
M 2581 1431 
L 2566 2350 
Q 2550 3081 2119 3084 
Q 1763 3084 1419 2703 
Q 1131 2388 991 1663 
Q 928 1347 928 1103 
Q 928 813 1016 622 
Q 1175 266 1550 266 
Q 1963 266 2384 1063 
L 2581 1431 
z
" transform="scale(0.015625)"/>
     <path id="DejaVuSerif-Italic-4c" d="M 1009 4353 
Q 1038 4497 1163 4603 
Q 1288 4709 1434 4709 
Q 1578 4709 1663 4603 
Q 1728 4522 1728 4422 
Q 1728 4388 1719 4353 
Q 1691 4206 1567 4103 
Q 1444 4000 1297 4000 
Q 1150 4000 1066 4103 
Q 1003 4181 1003 4281 
Q 1003 4316 1009 4353 
z
M 963 331 
L 1506 331 
L 1444 0 
L 325 0 
L 903 2988 
L 353 2988 
L 419 3322 
L 1544 3322 
L 963 331 
z
" transform="scale(0.015625)"/>
     <path id="DejaVuSerif-32" d="M 2625 244 
Q 3391 244 3781 770 
Q 4172 1297 4172 2328 
Q 4172 3363 3781 3889 
Q 3391 4416 2625 4416 
Q 1856 4416 1465 3889 
Q 1075 3363 1075 2328 
Q 1075 1297 1465 770 
Q 1856 244 2625 244 
z
M 2625 -91 
Q 2150 -91 1751 65 
Q 1353 222 1050 525 
Q 700 875 529 1319 
Q 359 1763 359 2328 
Q 359 2894 529 3339 
Q 700 3784 1050 4134 
Q 1356 4441 1750 4595 
Q 2144 4750 2625 4750 
Q 3641 4750 4266 4084 
Q 4891 3419 4891 2328 
Q 4891 1769 4719 1320 
Q 4547 872 4197 525 
Q 3891 219 3497 64 
Q 3103 -91 2625 -91 
z
" transform="scale(0.015625)"/>
     <path id="DejaVuSerif-5b" d="M 1863 2028 
L 2559 2988 
L 2113 2988 
L 2113 3322 
L 3391 3322 
L 3391 2988 
L 2950 2988 
L 2059 1759 
L 3097 331 
L 3531 331 
L 3531 0 
L 1997 0 
L 1997 331 
L 2419 331 
L 1697 1325 
L 972 331 
L 1403 331 
L 1403 0 
L 141 0 
L 141 331 
L 581 331 
L 1497 1594 
L 488 2988 
L 78 2988 
L 78 3322 
L 1563 3322 
L 1563 2988 
L 1166 2988 
L 1863 2028 
z
" transform="scale(0.015625)"/>
     <path id="DejaVuSerif-53" d="M 1313 1825 
L 1313 1497 
Q 1313 897 1542 583 
Q 1772 269 2209 269 
Q 2650 269 2876 622 
Q 3103 975 3103 1663 
Q 3103 2353 2876 2703 
Q 2650 3053 2209 3053 
Q 1772 3053 1542 2737 
Q 1313 2422 1313 1825 
z
M 738 2988 
L 184 2988 
L 184 3322 
L 1313 3322 
L 1313 2803 
Q 1481 3116 1742 3264 
Q 2003 3413 2388 3413 
Q 3000 3413 3387 2928 
Q 3775 2444 3775 1663 
Q 3775 881 3387 395 
Q 3000 -91 2388 -91 
Q 2003 -91 1742 57 
Q 1481 206 1313 519 
L 1313 -997 
L 1856 -997 
L 1856 -1331 
L 184 -1331 
L 184 -997 
L 738 -997 
L 738 2988 
z
" transform="scale(0.015625)"/>
     <path id="DejaVuSerif-1e" d="M 231 -622 
Q 525 -406 662 -114 
Q 800 178 800 594 
L 800 709 
L 1416 709 
Q 1391 175 1164 -208 
Q 938 -591 481 -872 
L 231 -622 
z
M 678 2363 
Q 678 2538 798 2658 
Q 919 2778 1094 2778 
Q 1269 2778 1389 2656 
Q 1509 2534 1509 2363 
Q 1509 2188 1389 2067 
Q 1269 1947 1094 1947 
Q 919 1947 798 2067 
Q 678 2188 678 2363 
z
" transform="scale(0.015625)"/>
    </defs>
    <use xlink:href="#DejaVuSerif-25" transform="translate(0 0.746875)"/>
    <use xlink:href="#DejaVuSerif-44" transform="translate(73.486328 0.746875)"/>
    <use xlink:href="#DejaVuSerif-55" transform="translate(133.105469 0.746875)"/>
    <use xlink:href="#DejaVuSerif-3" transform="translate(180.908203 0.746875)"/>
    <use xlink:href="#DejaVuSerif-5a" transform="translate(212.695312 0.746875)"/>
    <use xlink:href="#DejaVuSerif-4c" transform="translate(298.291016 0.746875)"/>
    <use xlink:href="#DejaVuSerif-47" transform="translate(330.273438 0.746875)"/>
    <use xlink:href="#DejaVuSerif-57" transform="translate(394.287109 0.746875)"/>
    <use xlink:href="#DejaVuSerif-4b" transform="translate(434.472656 0.746875)"/>
    <use xlink:href="#DejaVuSerif-56" transform="translate(498.876953 0.746875)"/>
    <use xlink:href="#DejaVuSerif-3" transform="translate(550.195312 0.746875)"/>
    <use xlink:href="#DejaVuSerif-20" transform="translate(581.982422 0.746875)"/>
    <use xlink:href="#DejaVuSerif-3" transform="translate(665.771484 0.746875)"/>
    <use xlink:href="#DejaVuSerif-49" transform="translate(697.558594 0.746875)"/>
    <use xlink:href="#DejaVuSerif-4f" transform="translate(734.570312 0.746875)"/>
    <use xlink:href="#DejaVuSerif-44" transform="translate(766.552734 0.746875)"/>
    <use xlink:href="#DejaVuSerif-59" transform="translate(826.171875 0.746875)"/>
    <use xlink:href="#DejaVuSerif-52" transform="translate(882.666016 0.746875)"/>
    <use xlink:href="#DejaVuSerif-58" transform="translate(942.871094 0.746875)"/>
    <use xlink:href="#DejaVuSerif-55" transform="translate(1007.275391 0.746875)"/>
    <use xlink:href="#DejaVuSerif-3" transform="translate(1055.078125 0.746875)"/>
    <use xlink:href="#DejaVuSerif-46" transform="translate(1086.865234 0.746875)"/>
    <use xlink:href="#DejaVuSerif-52" transform="translate(1142.871094 0.746875)"/>
    <use xlink:href="#DejaVuSerif-51" transform="translate(1203.076172 0.746875)"/>
    <use xlink:href="#DejaVuSerif-57" transform="translate(1267.480469 0.746875)"/>
    <use xlink:href="#DejaVuSerif-48" transform="translate(1307.666016 0.746875)"/>
    <use xlink:href="#DejaVuSerif-51" transform="translate(1366.845703 0.746875)"/>
    <use xlink:href="#DejaVuSerif-57" transform="translate(1431.25 0.746875)"/>
    <use xlink:href="#DejaVuSerif-3" transform="translate(1471.435547 0.746875)"/>
    <use xlink:href="#DejaVuSerif-5f" transform="translate(1503.222656 0.746875)"/>
    <use xlink:href="#DejaVuSerif-Italic-38" transform="translate(1536.914062 0.746875)"/>
    <use xlink:href="#DejaVuSerif-Italic-329" transform="translate(1621.191406 -14.253076) scale(0.7)"/>
    <use xlink:href="#DejaVuSerif-Italic-4c" transform="translate(1668.461914 -14.253076) scale(0.7)"/>
    <use xlink:href="#DejaVuSerif-5f" transform="translate(1693.444824 0.746875)"/>
    <use xlink:href="#DejaVuSerif-15" transform="translate(1728.044556 42.046875) scale(0.7)"/>
    <use xlink:href="#DejaVuSerif-11" transform="translate(1775.175903 0.746875)"/>
    <use xlink:href="#DejaVuSerif-3" transform="translate(1806.963013 0.746875)"/>
    <use xlink:href="#DejaVuSerif-3" transform="translate(1838.750122 0.746875)"/>
    <use xlink:href="#DejaVuSerif-39" transform="translate(1870.537231 0.746875)"/>
    <use xlink:href="#DejaVuSerif-48" transform="translate(1933.754028 0.746875)"/>
    <use xlink:href="#DejaVuSerif-55" transform="translate(1992.933716 0.746875)"/>
    <use xlink:href="#DejaVuSerif-57" transform="translate(2040.73645 0.746875)"/>
    <use xlink:href="#DejaVuSerif-4c" transform="translate(2080.921997 0.746875)"/>
    <use xlink:href="#DejaVuSerif-46" transform="translate(2112.904419 0.746875)"/>
    <use xlink:href="#DejaVuSerif-44" transform="translate(2168.910278 0.746875)"/>
    <use xlink:href="#DejaVuSerif-4f" transform="translate(2228.529419 0.746875)"/>
    <use xlink:href="#DejaVuSerif-3" transform="translate(2260.511841 0.746875)"/>
    <use xlink:href="#DejaVuSerif-56" transform="translate(2292.29895 0.746875)"/>
    <use xlink:href="#DejaVuSerif-46" transform="translate(2343.61731 0.746875)"/>
    <use xlink:href="#DejaVuSerif-44" transform="translate(2399.623169 0.746875)"/>
    <use xlink:href="#DejaVuSerif-4f" transform="translate(2459.24231 0.746875)"/>
    <use xlink:href="#DejaVuSerif-48" transform="translate(2491.224731 0.746875)"/>
    <use xlink:href="#DejaVuSerif-3" transform="translate(2550.404419 0.746875)"/>
    <use xlink:href="#DejaVuSerif-56" transform="translate(2582.191528 0.746875)"/>
    <use xlink:href="#DejaVuSerif-46" transform="translate(2633.509888 0.746875)"/>
    <use xlink:href="#DejaVuSerif-4b" transform="translate(2689.515747 0.746875)"/>
    <use xlink:href="#DejaVuSerif-48" transform="translate(2753.920044 0.746875)"/>
    <use xlink:href="#DejaVuSerif-50" transform="translate(2813.099731 0.746875)"/>
    <use xlink:href="#DejaVuSerif-44" transform="translate(2907.92395 0.746875)"/>
    <use xlink:href="#DejaVuSerif-57" transform="translate(2967.543091 0.746875)"/>
    <use xlink:href="#DejaVuSerif-4c" transform="translate(3007.728638 0.746875)"/>
    <use xlink:href="#DejaVuSerif-46" transform="translate(3039.71106 0.746875)"/>
    <use xlink:href="#DejaVuSerif-11" transform="translate(3095.716919 0.746875)"/>
    <use xlink:href="#DejaVuSerif-3" transform="translate(3127.504028 0.746875)"/>
    <use xlink:href="#DejaVuSerif-32" transform="translate(3159.291138 0.746875)"/>
    <use xlink:href="#DejaVuSerif-56" transform="translate(3241.27356 0.746875)"/>
    <use xlink:href="#DejaVuSerif-46" transform="translate(3292.591919 0.746875)"/>
    <use xlink:href="#DejaVuSerif-4c" transform="translate(3348.597778 0.746875)"/>
    <use xlink:href="#DejaVuSerif-4f" transform="translate(3380.5802 0.746875)"/>
    <use xlink:href="#DejaVuSerif-4f" transform="translate(3412.562622 0.746875)"/>
    <use xlink:href="#DejaVuSerif-44" transform="translate(3444.545044 0.746875)"/>
    <use xlink:href="#DejaVuSerif-57" transform="translate(3504.164185 0.746875)"/>
    <use xlink:href="#DejaVuSerif-4c" transform="translate(3544.349731 0.746875)"/>
    <use xlink:href="#DejaVuSerif-52" transform="translate(3576.332153 0.746875)"/>
    <use xlink:href="#DejaVuSerif-51" transform="translate(3636.537231 0.746875)"/>
    <use xlink:href="#DejaVuSerif-56" transform="translate(3700.941528 0.746875)"/>
    <use xlink:href="#DejaVuSerif-3" transform="translate(3752.259888 0.746875)"/>
    <use xlink:href="#DejaVuSerif-49" transform="translate(3784.046997 0.746875)"/>
    <use xlink:href="#DejaVuSerif-4c" transform="translate(3821.058716 0.746875)"/>
    <use xlink:href="#DejaVuSerif-5b" transform="translate(3853.041138 0.746875)"/>
    <use xlink:href="#DejaVuSerif-3" transform="translate(3909.437622 0.746875)"/>
    <use xlink:href="#DejaVuSerif-57" transform="translate(3941.224731 0.746875)"/>
    <use xlink:href="#DejaVuSerif-4b" transform="translate(3981.410278 0.746875)"/>
    <use xlink:href="#DejaVuSerif-48" transform="translate(4045.814575 0.746875)"/>
    <use xlink:href="#DejaVuSerif-3" transform="translate(4104.994263 0.746875)"/>
    <use xlink:href="#DejaVuSerif-4a" transform="translate(4136.781372 0.746875)"/>
    <use xlink:href="#DejaVuSerif-44" transform="translate(4200.795044 0.746875)"/>
    <use xlink:href="#DejaVuSerif-53" transform="translate(4260.414185 0.746875)"/>
    <use xlink:href="#DejaVuSerif-56" transform="translate(4324.427856 0.746875)"/>
    <use xlink:href="#DejaVuSerif-1e" transform="translate(4375.746216 0.746875)"/>
    <use xlink:href="#DejaVuSerif-3" transform="translate(4409.437622 0.746875)"/>
    <use xlink:href="#DejaVuSerif-57" transform="translate(4441.224731 0.746875)"/>
    <use xlink:href="#DejaVuSerif-4b" transform="translate(4481.410278 0.746875)"/>
    <use xlink:href="#DejaVuSerif-48" transform="translate(4545.814575 0.746875)"/>
   </g>
   <!-- absolute scale is bounded by KATRIN ($m_\beta&lt;0.45$ eV) and cosmology ($\sum m_\nu&lt;0.12$ eV). -->
   <g style="fill: #595959" transform="translate(115.128 355.3) scale(0.09 -0.09)">
    <defs>
     <path id="DejaVuSerif-45" d="M 738 331 
L 738 4531 
L 184 4531 
L 184 4863 
L 1313 4863 
L 1313 2803 
Q 1481 3116 1742 3264 
Q 2003 3413 2388 3413 
Q 3000 3413 3387 2928 
Q 3775 2444 3775 1663 
Q 3775 881 3387 395 
Q 3000 -91 2388 -91 
Q 2003 -91 1742 57 
Q 1481 206 1313 519 
L 1313 0 
L 184 0 
L 184 331 
L 738 331 
z
M 1313 1497 
Q 1313 897 1542 583 
Q 1772 269 2209 269 
Q 2650 269 2876 622 
Q 3103 975 3103 1663 
Q 3103 2353 2876 2703 
Q 2650 3053 2209 3053 
Q 1772 3053 1542 2737 
Q 1313 2422 1313 1825 
L 1313 1497 
z
" transform="scale(0.015625)"/>
     <path id="DejaVuSerif-5c" d="M 1381 -609 
L 1600 -56 
L 359 2988 
L -19 2988 
L -19 3322 
L 1509 3322 
L 1509 2988 
L 978 2988 
L 1913 703 
L 2847 2988 
L 2350 2988 
L 2350 3322 
L 3597 3322 
L 3597 2988 
L 3225 2988 
L 1703 -750 
Q 1547 -1138 1356 -1280 
Q 1166 -1422 819 -1422 
Q 672 -1422 517 -1397 
Q 363 -1372 206 -1325 
L 206 -691 
L 500 -691 
Q 519 -903 608 -995 
Q 697 -1088 884 -1088 
Q 1056 -1088 1161 -992 
Q 1266 -897 1381 -609 
z
" transform="scale(0.015625)"/>
     <path id="DejaVuSerif-2e" d="M 353 0 
L 353 331 
L 947 331 
L 947 4331 
L 353 4331 
L 353 4666 
L 2175 4666 
L 2175 4331 
L 1581 4331 
L 1581 2566 
L 3591 4331 
L 3084 4331 
L 3084 4666 
L 4634 4666 
L 4634 4331 
L 4109 4331 
L 2106 2572 
L 4347 331 
L 4878 331 
L 4878 0 
L 3794 0 
L 1581 2216 
L 1581 331 
L 2175 331 
L 2175 0 
L 353 0 
z
" transform="scale(0.015625)"/>
     <path id="DejaVuSerif-24" d="M 1281 1691 
L 2994 1691 
L 2138 3909 
L 1281 1691 
z
M -38 0 
L -38 331 
L 372 331 
L 2034 4666 
L 2559 4666 
L 4225 331 
L 4684 331 
L 4684 0 
L 2988 0 
L 2988 331 
L 3506 331 
L 3116 1356 
L 1153 1356 
L 763 331 
L 1275 331 
L 1275 0 
L -38 0 
z
" transform="scale(0.015625)"/>
     <path id="DejaVuSerif-37" d="M 1222 0 
L 1222 331 
L 1819 331 
L 1819 4294 
L 447 4294 
L 447 3566 
L 63 3566 
L 63 4666 
L 4206 4666 
L 4206 3566 
L 3822 3566 
L 3822 4294 
L 2450 4294 
L 2450 331 
L 3047 331 
L 3047 0 
L 1222 0 
z
" transform="scale(0.015625)"/>
     <path id="DejaVuSerif-35" d="M 3066 2316 
Q 3284 2256 3442 2114 
Q 3600 1972 3725 1716 
L 4403 331 
L 4972 331 
L 4972 0 
L 3872 0 
L 3144 1484 
Q 2934 1916 2759 2042 
Q 2584 2169 2278 2169 
L 1581 2169 
L 1581 331 
L 2241 331 
L 2241 0 
L 353 0 
L 353 331 
L 947 331 
L 947 4331 
L 353 4331 
L 353 4666 
L 2719 4666 
Q 3400 4666 3770 4341 
Q 4141 4016 4141 3419 
Q 4141 2938 3870 2661 
Q 3600 2384 3066 2316 
z
M 1581 2503 
L 2503 2503 
Q 2975 2503 3200 2726 
Q 3425 2950 3425 3419 
Q 3425 3888 3200 4109 
Q 2975 4331 2503 4331 
L 1581 4331 
L 1581 2503 
z
" transform="scale(0.015625)"/>
     <path id="DejaVuSerif-b" d="M 2041 -997 
Q 1281 -656 893 83 
Q 506 822 506 1931 
Q 506 3044 893 3783 
Q 1281 4522 2041 4863 
L 2041 4556 
Q 1559 4225 1350 3623 
Q 1141 3022 1141 1931 
Q 1141 844 1350 242 
Q 1559 -359 2041 -691 
L 2041 -997 
z
" transform="scale(0.015625)"/>
     <path id="DejaVuSerif-Italic-32a" d="M 712 403 
Q 928 219 1387 219 
Q 1866 219 2195 495 
Q 2525 772 2619 1253 
Q 2747 1906 2516 2188 
Q 2281 2478 1737 2478 
L 1441 2478 
L 1506 2813 
L 1662 2813 
Q 2059 2813 2378 3038 
Q 2641 3228 2737 3725 
Q 2778 3941 2681 4188 
Q 2519 4597 2228 4588 
Q 1522 4566 1281 3319 
L 712 403 
z
M -200 -1331 
L 706 3319 
Q 959 4628 1694 4803 
Q 2087 4897 2344 4897 
Q 2928 4897 3212 4438 
Q 3441 4075 3378 3763 
Q 3291 3319 3022 3056 
Q 2756 2797 2344 2672 
Q 2897 2591 3153 2250 
Q 3406 1913 3279 1259 
Q 3153 606 2645 257 
Q 2137 -91 1312 -91 
Q 806 -91 631 -19 
L 375 -1331 
L -200 -1331 
z
" transform="scale(0.015625)"/>
     <path id="DejaVuSerif-1f" d="M 4684 3188 
L 1441 2003 
L 4684 825 
L 4684 294 
L 678 1747 
L 678 2266 
L 4684 3719 
L 4684 3188 
z
" transform="scale(0.015625)"/>
     <path id="DejaVuSerif-17" d="M 2234 1581 
L 2234 4063 
L 641 1581 
L 2234 1581 
z
M 3609 0 
L 1484 0 
L 1484 331 
L 2234 331 
L 2234 1247 
L 197 1247 
L 197 1588 
L 2241 4750 
L 2859 4750 
L 2859 1581 
L 3750 1581 
L 3750 1247 
L 2859 1247 
L 2859 331 
L 3609 331 
L 3609 0 
z
" transform="scale(0.015625)"/>
     <path id="DejaVuSerif-c" d="M 453 -997 
L 453 -691 
Q 934 -359 1145 242 
Q 1356 844 1356 1931 
Q 1356 3022 1145 3623 
Q 934 4225 453 4556 
L 453 4863 
Q 1216 4522 1603 3783 
Q 1991 3044 1991 1931 
Q 1991 822 1603 83 
Q 1216 -656 453 -997 
z
" transform="scale(0.015625)"/>
     <path id="DejaVuSerifDisplay-10" d="M 72 6509 
L 5206 6509 
L 5694 4897 
L 5347 4897 
L 5025 5900 
Q 4975 6050 4840 6115 
Q 4706 6181 4406 6181 
L 1356 6181 
L 4931 2506 
L 4931 2344 
L 1288 -906 
L 5197 -906 
Q 5475 -903 5554 -847 
Q 5634 -791 5684 -628 
L 6003 388 
L 6347 388 
L 5694 -1738 
L 72 -1738 
L 72 -1556 
L 4138 2047 
L 72 6272 
L 72 6509 
z
" transform="scale(0.015625)"/>
    </defs>
    <use xlink:href="#DejaVuSerif-44" transform="translate(0 0.296875)"/>
    <use xlink:href="#DejaVuSerif-45" transform="translate(59.619141 0.296875)"/>
    <use xlink:href="#DejaVuSerif-56" transform="translate(123.632812 0.296875)"/>
    <use xlink:href="#DejaVuSerif-52" transform="translate(174.951172 0.296875)"/>
    <use xlink:href="#DejaVuSerif-4f" transform="translate(235.15625 0.296875)"/>
    <use xlink:href="#DejaVuSerif-58" transform="translate(267.138672 0.296875)"/>
    <use xlink:href="#DejaVuSerif-57" transform="translate(331.542969 0.296875)"/>
    <use xlink:href="#DejaVuSerif-48" transform="translate(371.728516 0.296875)"/>
    <use xlink:href="#DejaVuSerif-3" transform="translate(430.908203 0.296875)"/>
    <use xlink:href="#DejaVuSerif-56" transform="translate(462.695312 0.296875)"/>
    <use xlink:href="#DejaVuSerif-46" transform="translate(514.013672 0.296875)"/>
    <use xlink:href="#DejaVuSerif-44" transform="translate(570.019531 0.296875)"/>
    <use xlink:href="#DejaVuSerif-4f" transform="translate(629.638672 0.296875)"/>
    <use xlink:href="#DejaVuSerif-48" transform="translate(661.621094 0.296875)"/>
    <use xlink:href="#DejaVuSerif-3" transform="translate(720.800781 0.296875)"/>
    <use xlink:href="#DejaVuSerif-4c" transform="translate(752.587891 0.296875)"/>
    <use xlink:href="#DejaVuSerif-56" transform="translate(784.570312 0.296875)"/>
    <use xlink:href="#DejaVuSerif-3" transform="translate(835.888672 0.296875)"/>
    <use xlink:href="#DejaVuSerif-45" transform="translate(867.675781 0.296875)"/>
    <use xlink:href="#DejaVuSerif-52" transform="translate(931.689453 0.296875)"/>
    <use xlink:href="#DejaVuSerif-58" transform="translate(991.894531 0.296875)"/>
    <use xlink:href="#DejaVuSerif-51" transform="translate(1056.298828 0.296875)"/>
    <use xlink:href="#DejaVuSerif-47" transform="translate(1120.703125 0.296875)"/>
    <use xlink:href="#DejaVuSerif-48" transform="translate(1184.716797 0.296875)"/>
    <use xlink:href="#DejaVuSerif-47" transform="translate(1243.896484 0.296875)"/>
    <use xlink:href="#DejaVuSerif-3" transform="translate(1307.910156 0.296875)"/>
    <use xlink:href="#DejaVuSerif-45" transform="translate(1339.697266 0.296875)"/>
    <use xlink:href="#DejaVuSerif-5c" transform="translate(1403.710938 0.296875)"/>
    <use xlink:href="#DejaVuSerif-3" transform="translate(1460.205078 0.296875)"/>
    <use xlink:href="#DejaVuSerif-2e" transform="translate(1491.992188 0.296875)"/>
    <use xlink:href="#DejaVuSerif-24" transform="translate(1562.699219 0.296875)"/>
    <use xlink:href="#DejaVuSerif-37" transform="translate(1629.916016 0.296875)"/>
    <use xlink:href="#DejaVuSerif-35" transform="translate(1696.615234 0.296875)"/>
    <use xlink:href="#DejaVuSerif-2c" transform="translate(1771.908203 0.296875)"/>
    <use xlink:href="#DejaVuSerif-31" transform="translate(1811.410156 0.296875)"/>
    <use xlink:href="#DejaVuSerif-3" transform="translate(1898.910156 0.296875)"/>
    <use xlink:href="#DejaVuSerif-b" transform="translate(1930.697266 0.296875)"/>
    <use xlink:href="#DejaVuSerif-Italic-50" transform="translate(1969.710938 0.296875)"/>
    <use xlink:href="#DejaVuSerif-Italic-32a" transform="translate(2064.535156 -14.703076) scale(0.7)"/>
    <use xlink:href="#DejaVuSerif-1f" transform="translate(2126.563965 0.296875)"/>
    <use xlink:href="#DejaVuSerif-13" transform="translate(2229.317871 0.296875)"/>
    <use xlink:href="#DejaVuSerif-11" transform="translate(2292.940918 0.296875)"/>
    <use xlink:href="#DejaVuSerif-17" transform="translate(2324.728027 0.296875)"/>
    <use xlink:href="#DejaVuSerif-18" transform="translate(2388.351074 0.296875)"/>
    <use xlink:href="#DejaVuSerif-3" transform="translate(2451.974121 0.296875)"/>
    <use xlink:href="#DejaVuSerif-48" transform="translate(2483.76123 0.296875)"/>
    <use xlink:href="#DejaVuSerif-39" transform="translate(2542.940918 0.296875)"/>
    <use xlink:href="#DejaVuSerif-c" transform="translate(2615.157715 0.296875)"/>
    <use xlink:href="#DejaVuSerif-3" transform="translate(2654.171387 0.296875)"/>
    <use xlink:href="#DejaVuSerif-44" transform="translate(2685.958496 0.296875)"/>
    <use xlink:href="#DejaVuSerif-51" transform="translate(2745.577637 0.296875)"/>
    <use xlink:href="#DejaVuSerif-47" transform="translate(2809.981934 0.296875)"/>
    <use xlink:href="#DejaVuSerif-3" transform="translate(2873.995605 0.296875)"/>
    <use xlink:href="#DejaVuSerif-46" transform="translate(2905.782715 0.296875)"/>
    <use xlink:href="#DejaVuSerif-52" transform="translate(2961.788574 0.296875)"/>
    <use xlink:href="#DejaVuSerif-56" transform="translate(3021.993652 0.296875)"/>
    <use xlink:href="#DejaVuSerif-50" transform="translate(3073.312012 0.296875)"/>
    <use xlink:href="#DejaVuSerif-52" transform="translate(3168.13623 0.296875)"/>
    <use xlink:href="#DejaVuSerif-4f" transform="translate(3228.341309 0.296875)"/>
    <use xlink:href="#DejaVuSerif-52" transform="translate(3260.32373 0.296875)"/>
    <use xlink:href="#DejaVuSerif-4a" transform="translate(3320.528809 0.296875)"/>
    <use xlink:href="#DejaVuSerif-5c" transform="translate(3384.54248 0.296875)"/>
    <use xlink:href="#DejaVuSerif-3" transform="translate(3441.036621 0.296875)"/>
    <use xlink:href="#DejaVuSerif-b" transform="translate(3472.82373 0.296875)"/>
    <use xlink:href="#DejaVuSerifDisplay-10" transform="translate(3511.837402 0.296875)"/>
    <use xlink:href="#DejaVuSerif-Italic-50" transform="translate(3612.765137 0.296875)"/>
    <use xlink:href="#DejaVuSerif-Italic-335" transform="translate(3707.589355 -14.703076) scale(0.7)"/>
    <use xlink:href="#DejaVuSerif-1f" transform="translate(3771.703125 0.296875)"/>
    <use xlink:href="#DejaVuSerif-13" transform="translate(3874.457031 0.296875)"/>
    <use xlink:href="#DejaVuSerif-11" transform="translate(3938.080078 0.296875)"/>
    <use xlink:href="#DejaVuSerif-14" transform="translate(3969.867188 0.296875)"/>
    <use xlink:href="#DejaVuSerif-15" transform="translate(4033.490234 0.296875)"/>
    <use xlink:href="#DejaVuSerif-3" transform="translate(4097.113281 0.296875)"/>
    <use xlink:href="#DejaVuSerif-48" transform="translate(4128.900391 0.296875)"/>
    <use xlink:href="#DejaVuSerif-39" transform="translate(4188.080078 0.296875)"/>
    <use xlink:href="#DejaVuSerif-c" transform="translate(4260.296875 0.296875)"/>
    <use xlink:href="#DejaVuSerif-11" transform="translate(4299.310547 0.296875)"/>
   </g>
  </g>
  <g id="legend_1">
   <g id="patch_27">
    <path d="M 208.863 22.277969 
L 234.863 22.277969 
L 234.863 13.177969 
L 208.863 13.177969 
z
" style="fill: #1f77b4; stroke: #1f77b4; stroke-linejoin: miter"/>
   </g>
   <g id="text_15">
    <!-- $\nu_e$ -->
    <g transform="translate(245.263 22.277969) scale(0.13 -0.13)">
     <defs>
      <path id="DejaVuSerif-Italic-48" d="M 938 1275 
Q 925 1156 925 1050 
Q 925 756 1031 563 
Q 1216 219 1709 219 
Q 2072 219 2250 328 
Q 2569 525 2644 778 
L 3066 778 
Q 2941 381 2475 103 
Q 2150 -91 1506 -91 
Q 863 -91 516 388 
Q 272 722 272 1206 
Q 272 1419 319 1659 
Q 472 2450 1000 2931 
Q 1528 3413 2278 3413 
Q 3500 3413 3500 2547 
Q 3500 1913 2859 1603 
Q 2206 1288 938 1275 
z
M 2541 1975 
Q 2891 2181 2891 2569 
Q 2891 3103 2181 3103 
Q 1763 3103 1472 2784 
Q 1181 2466 1003 1606 
Q 2006 1653 2541 1975 
z
" transform="scale(0.015625)"/>
     </defs>
     <use xlink:href="#DejaVuSerif-Italic-335" transform="translate(0 0.09375)"/>
     <use xlink:href="#DejaVuSerif-Italic-48" transform="translate(60.791016 -14.906201) scale(0.7)"/>
    </g>
   </g>
   <g id="patch_28">
    <path d="M 284.913 22.277969 
L 310.913 22.277969 
L 310.913 13.177969 
L 284.913 13.177969 
z
" style="fill: #2ca02c; stroke: #2ca02c; stroke-linejoin: miter"/>
   </g>
   <g id="text_16">
    <!-- $\nu_\mu$ -->
    <g transform="translate(321.313 22.277969) scale(0.13 -0.13)">
     <defs>
      <path id="DejaVuSerif-Italic-334" d="M 284 -1331 
L 1125 2988 
L 606 2988 
L 672 3322 
L 1766 3322 
L 1388 1388 
Q 1272 781 1378 556 
Q 1484 331 1863 331 
Q 2263 331 2528 625 
Q 2794 919 2903 1478 
L 3197 2988 
L 2697 2988 
L 2763 3322 
L 3838 3322 
L 3253 325 
L 3797 325 
L 3734 0 
L 2616 0 
L 2731 588 
Q 2503 256 2239 82 
Q 1975 -91 1694 -91 
Q 1516 -91 1380 -34 
Q 1244 22 1144 134 
L 859 -1331 
L 284 -1331 
z
" transform="scale(0.015625)"/>
     </defs>
     <use xlink:href="#DejaVuSerif-Italic-335" transform="translate(0 0.09375)"/>
     <use xlink:href="#DejaVuSerif-Italic-334" transform="translate(60.791016 -14.906201) scale(0.7)"/>
    </g>
   </g>
   <g id="patch_29">
    <path d="M 361.483 22.277969 
L 387.483 22.277969 
L 387.483 13.177969 
L 361.483 13.177969 
z
" style="fill: #d62728; stroke: #d62728; stroke-linejoin: miter"/>
   </g>
   <g id="text_17">
    <!-- $\nu_\tau$ -->
    <g transform="translate(397.883 22.277969) scale(0.13 -0.13)">
     <defs>
      <path id="DejaVuSerif-Italic-33c" d="M 2328 2988 
L 1922 906 
Q 1838 469 2047 363 
Q 2203 284 2641 519 
L 2569 141 
Q 1859 -225 1491 156 
Q 1247 406 1347 906 
L 1753 2988 
L 850 2988 
L 753 2488 
L 425 2488 
L 588 3322 
L 3625 3322 
L 3559 2988 
L 2328 2988 
z
" transform="scale(0.015625)"/>
     </defs>
     <use xlink:href="#DejaVuSerif-Italic-335" transform="translate(0 0.09375)"/>
     <use xlink:href="#DejaVuSerif-Italic-33c" transform="translate(60.791016 -14.906201) scale(0.7)"/>
    </g>
   </g>
  </g>
 </g>
 <defs>
  <clipPath id="pa26252b181">
   <rect x="7.2" y="54.94" width="296.874" height="267.6"/>
  </clipPath>
  <clipPath id="p11abad7b4b">
   <rect x="317.034" y="54.94" width="296.874" height="267.6"/>
  </clipPath>
 </defs>
</svg>
