<?xml version="1.0" encoding="utf-8" standalone="no"?>
<!DOCTYPE svg PUBLIC "-//W3C//DTD SVG 1.1//EN"
  "http://www.w3.org/Graphics/SVG/1.1/DTD/svg11.dtd">
<svg xmlns:xlink="http://www.w3.org/1999/xlink" width="577.85625pt" height="290.29pt" viewBox="0 0 577.85625 290.29" xmlns="http://www.w3.org/2000/svg" version="1.1">
 <metadata>
  <rdf:RDF xmlns:dc="http://purl.org/dc/elements/1.1/" xmlns:cc="http://creativecommons.org/ns#" xmlns:rdf="http://www.w3.org/1999/02/22-rdf-syntax-ns#">
   <cc:Work>
    <dc:type rdf:resource="http://purl.org/dc/dcmitype/StillImage"/>
    <dc:date>2026-06-25T17:21:00.422586</dc:date>
    <dc:format>image/svg+xml</dc:format>
    <dc:creator>
     <cc:Agent>
      <dc:title>Matplotlib v3.11.0, https://matplotlib.org/</dc:title>
     </cc:Agent>
    </dc:creator>
   </cc:Work>
  </rdf:RDF>
 </metadata>
 <defs>
  <style type="text/css">*{stroke-linejoin: round; stroke-linecap: butt}</style>
 </defs>
 <g id="figure_1">
  <g id="patch_1">
   <path d="M -0 290.29 
L 577.85625 290.29 
L 577.85625 0 
L -0 0 
L -0 290.29 
z
" style="fill: none"/>
  </g>
  <g id="axes_1">
   <g id="patch_2">
    <path d="M 49.286563 247.73 
L 559.20375 247.73 
L 559.20375 24.01 
L 49.286563 24.01 
L 49.286563 247.73 
z
" style="fill: none"/>
   </g>
   <g id="matplotlib.axis_1">
    <g id="xtick_1">
     <g id="line2d_1">
      <path d="M 49.286563 247.73 
L 49.286563 24.01 
" clip-path="url(#pfd0aaa541a)" style="fill: none; stroke: #b0b0b0; stroke-opacity: 0.18; stroke-width: 0.8; stroke-linecap: square"/>
     </g>
     <g id="line2d_2">
      <defs>
       <path id="mad2dd4d238" d="M 0 0 
L 0 3.5 
" style="stroke: #000000; stroke-width: 0.8"/>
      </defs>
      <g>
       <use xlink:href="#mad2dd4d238" x="49.286563" y="247.73" style="stroke: #000000; stroke-width: 0.8"/>
      </g>
     </g>
     <g id="text_1">
      <!-- 0 -->
      <g transform="translate(45.469062 263.847187) scale(0.12 -0.12)">
       <defs>
        <path id="DejaVuSerif-13" d="M 2034 219 
Q 2513 219 2750 744 
Q 2988 1269 2988 2328 
Q 2988 3391 2750 3916 
Q 2513 4441 2034 4441 
Q 1556 4441 1318 3916 
Q 1081 3391 1081 2328 
Q 1081 1269 1318 744 
Q 1556 219 2034 219 
z
M 2034 -91 
Q 1275 -91 848 546 
Q 422 1184 422 2328 
Q 422 3475 848 4112 
Q 1275 4750 2034 4750 
Q 2797 4750 3222 4112 
Q 3647 3475 3647 2328 
Q 3647 1184 3222 546 
Q 2797 -91 2034 -91 
z
" transform="scale(0.015625)"/>
       </defs>
       <use xlink:href="#DejaVuSerif-13"/>
      </g>
     </g>
    </g>
    <g id="xtick_2">
     <g id="line2d_3">
      <path d="M 151.27 247.73 
L 151.27 24.01 
" clip-path="url(#pfd0aaa541a)" style="fill: none; stroke: #b0b0b0; stroke-opacity: 0.18; stroke-width: 0.8; stroke-linecap: square"/>
     </g>
     <g id="line2d_4">
      <g>
       <use xlink:href="#mad2dd4d238" x="151.27" y="247.73" style="stroke: #000000; stroke-width: 0.8"/>
      </g>
     </g>
     <g id="text_2">
      <!-- 20 -->
      <g transform="translate(143.635 263.847187) scale(0.12 -0.12)">
       <defs>
        <path id="DejaVuSerif-15" d="M 819 3553 
L 469 3553 
L 469 4384 
Q 803 4563 1142 4656 
Q 1481 4750 1806 4750 
Q 2534 4750 2956 4397 
Q 3378 4044 3378 3438 
Q 3378 2753 2422 1800 
Q 2347 1728 2309 1691 
L 1131 513 
L 3078 513 
L 3078 1088 
L 3444 1088 
L 3444 0 
L 434 0 
L 434 341 
L 1850 1753 
Q 2319 2222 2519 2614 
Q 2719 3006 2719 3438 
Q 2719 3909 2473 4175 
Q 2228 4441 1797 4441 
Q 1350 4441 1106 4219 
Q 863 3997 819 3553 
z
" transform="scale(0.015625)"/>
       </defs>
       <use xlink:href="#DejaVuSerif-15"/>
       <use xlink:href="#DejaVuSerif-13" transform="translate(63.625 0)"/>
      </g>
     </g>
    </g>
    <g id="xtick_3">
     <g id="line2d_5">
      <path d="M 253.253437 247.73 
L 253.253437 24.01 
" clip-path="url(#pfd0aaa541a)" style="fill: none; stroke: #b0b0b0; stroke-opacity: 0.18; stroke-width: 0.8; stroke-linecap: square"/>
     </g>
     <g id="line2d_6">
      <g>
       <use xlink:href="#mad2dd4d238" x="253.253437" y="247.73" style="stroke: #000000; stroke-width: 0.8"/>
      </g>
     </g>
     <g id="text_3">
      <!-- 40 -->
      <g transform="translate(245.618437 263.847187) scale(0.12 -0.12)">
       <defs>
        <path id="DejaVuSerif-17" d="M 2234 1581 
L 2234 4063 
L 641 1581 
L 2234 1581 
z
M 3609 0 
L 1484 0 
L 1484 331 
L 2234 331 
L 2234 1247 
L 197 1247 
L 197 1588 
L 2241 4750 
L 2859 4750 
L 2859 1581 
L 3750 1581 
L 3750 1247 
L 2859 1247 
L 2859 331 
L 3609 331 
L 3609 0 
z
" transform="scale(0.015625)"/>
       </defs>
       <use xlink:href="#DejaVuSerif-17"/>
       <use xlink:href="#DejaVuSerif-13" transform="translate(63.625 0)"/>
      </g>
     </g>
    </g>
    <g id="xtick_4">
     <g id="line2d_7">
      <path d="M 355.236875 247.73 
L 355.236875 24.01 
" clip-path="url(#pfd0aaa541a)" style="fill: none; stroke: #b0b0b0; stroke-opacity: 0.18; stroke-width: 0.8; stroke-linecap: square"/>
     </g>
     <g id="line2d_8">
      <g>
       <use xlink:href="#mad2dd4d238" x="355.236875" y="247.73" style="stroke: #000000; stroke-width: 0.8"/>
      </g>
     </g>
     <g id="text_4">
      <!-- 60 -->
      <g transform="translate(347.601875 263.847187) scale(0.12 -0.12)">
       <defs>
        <path id="DejaVuSerif-19" d="M 2094 219 
Q 2534 219 2771 542 
Q 3009 866 3009 1472 
Q 3009 2078 2771 2401 
Q 2534 2725 2094 2725 
Q 1647 2725 1412 2412 
Q 1178 2100 1178 1509 
Q 1178 888 1415 553 
Q 1653 219 2094 219 
z
M 1075 2569 
Q 1288 2803 1556 2918 
Q 1825 3034 2163 3034 
Q 2859 3034 3264 2615 
Q 3669 2197 3669 1472 
Q 3669 763 3233 336 
Q 2797 -91 2069 -91 
Q 1278 -91 853 498 
Q 428 1088 428 2181 
Q 428 3406 931 4078 
Q 1434 4750 2350 4750 
Q 2597 4750 2869 4703 
Q 3141 4656 3425 4563 
L 3425 3794 
L 3072 3794 
Q 3034 4109 2831 4275 
Q 2628 4441 2284 4441 
Q 1678 4441 1381 3981 
Q 1084 3522 1075 2569 
z
" transform="scale(0.015625)"/>
       </defs>
       <use xlink:href="#DejaVuSerif-19"/>
       <use xlink:href="#DejaVuSerif-13" transform="translate(63.625 0)"/>
      </g>
     </g>
    </g>
    <g id="xtick_5">
     <g id="line2d_9">
      <path d="M 457.220312 247.73 
L 457.220312 24.01 
" clip-path="url(#pfd0aaa541a)" style="fill: none; stroke: #b0b0b0; stroke-opacity: 0.18; stroke-width: 0.8; stroke-linecap: square"/>
     </g>
     <g id="line2d_10">
      <g>
       <use xlink:href="#mad2dd4d238" x="457.220312" y="247.73" style="stroke: #000000; stroke-width: 0.8"/>
      </g>
     </g>
     <g id="text_5">
      <!-- 80 -->
      <g transform="translate(449.585312 263.847187) scale(0.12 -0.12)">
       <defs>
        <path id="DejaVuSerif-1b" d="M 2981 1275 
Q 2981 1775 2732 2051 
Q 2484 2328 2034 2328 
Q 1584 2328 1336 2051 
Q 1088 1775 1088 1275 
Q 1088 772 1336 495 
Q 1584 219 2034 219 
Q 2484 219 2732 495 
Q 2981 772 2981 1275 
z
M 2853 3541 
Q 2853 3966 2637 4203 
Q 2422 4441 2034 4441 
Q 1650 4441 1433 4203 
Q 1216 3966 1216 3541 
Q 1216 3113 1433 2875 
Q 1650 2638 2034 2638 
Q 2422 2638 2637 2875 
Q 2853 3113 2853 3541 
z
M 2516 2484 
Q 3047 2413 3344 2092 
Q 3641 1772 3641 1275 
Q 3641 619 3225 264 
Q 2809 -91 2034 -91 
Q 1263 -91 845 264 
Q 428 619 428 1275 
Q 428 1772 725 2092 
Q 1022 2413 1556 2484 
Q 1084 2569 832 2842 
Q 581 3116 581 3541 
Q 581 4103 968 4426 
Q 1356 4750 2034 4750 
Q 2713 4750 3100 4426 
Q 3488 4103 3488 3541 
Q 3488 3116 3236 2842 
Q 2984 2569 2516 2484 
z
" transform="scale(0.015625)"/>
       </defs>
       <use xlink:href="#DejaVuSerif-1b"/>
       <use xlink:href="#DejaVuSerif-13" transform="translate(63.625 0)"/>
      </g>
     </g>
    </g>
    <g id="xtick_6">
     <g id="line2d_11">
      <path d="M 559.20375 247.73 
L 559.20375 24.01 
" clip-path="url(#pfd0aaa541a)" style="fill: none; stroke: #b0b0b0; stroke-opacity: 0.18; stroke-width: 0.8; stroke-linecap: square"/>
     </g>
     <g id="line2d_12">
      <g>
       <use xlink:href="#mad2dd4d238" x="559.20375" y="247.73" style="stroke: #000000; stroke-width: 0.8"/>
      </g>
     </g>
     <g id="text_6">
      <!-- 100 -->
      <g transform="translate(547.75125 263.847187) scale(0.12 -0.12)">
       <defs>
        <path id="DejaVuSerif-14" d="M 909 0 
L 909 331 
L 1722 331 
L 1722 4213 
L 781 3603 
L 781 4013 
L 1919 4750 
L 2350 4750 
L 2350 331 
L 3163 331 
L 3163 0 
L 909 0 
z
" transform="scale(0.015625)"/>
       </defs>
       <use xlink:href="#DejaVuSerif-14"/>
       <use xlink:href="#DejaVuSerif-13" transform="translate(63.625 0)"/>
       <use xlink:href="#DejaVuSerif-13" transform="translate(127.25 0)"/>
      </g>
     </g>
    </g>
    <g id="text_7">
     <!-- $L_0/E_{\bar\nu_e}$   (km / MeV) -->
     <g transform="translate(246.825156 279.85) scale(0.12 -0.12)">
      <defs>
       <path id="DejaVuSerif-Italic-2f" d="M -97 0 
L -35 331 
L 559 331 
L 1337 4331 
L 744 4331 
L 809 4666 
L 2631 4666 
L 2566 4331 
L 1972 4331 
L 1206 384 
L 3337 384 
L 3487 1166 
L 3872 1166 
L 3647 0 
L -97 0 
z
" transform="scale(0.015625)"/>
       <path id="DejaVuSerif-12" d="M 1656 4666 
L 2156 4666 
L 500 -594 
L 0 -594 
L 1656 4666 
z
" transform="scale(0.015625)"/>
       <path id="DejaVuSerif-Italic-28" d="M -97 0 
L -35 331 
L 559 331 
L 1337 4331 
L 744 4331 
L 809 4666 
L 4566 4666 
L 4366 3628 
L 3981 3628 
L 4106 4281 
L 1962 4281 
L 1659 2719 
L 3187 2719 
L 3300 3303 
L 3684 3303 
L 3384 1753 
L 3000 1753 
L 3112 2338 
L 1584 2338 
L 1206 384 
L 3400 384 
L 3525 1038 
L 3909 1038 
L 3709 0 
L -97 0 
z
" transform="scale(0.015625)"/>
       <path id="DejaVuSerif-2b1" d="M -2534 4769 
L -666 4769 
L -666 4306 
L -2534 4306 
L -2534 4769 
z
" transform="scale(0.015625)"/>
       <path id="DejaVuSerif-Italic-335" d="M 1103 363 
Q 1516 513 1997 875 
Q 2291 1094 2691 1638 
Q 2950 1975 3034 2288 
Q 3116 2575 3025 2794 
Q 2906 3097 2691 3138 
L 2725 3322 
L 3075 3322 
Q 3400 3169 3584 2828 
Q 3728 2566 3666 2247 
Q 3622 2016 3494 1825 
Q 3400 1688 3116 1366 
Q 2738 950 2297 663 
Q 1494 138 1034 0 
L 456 0 
L 1041 2988 
L 491 2988 
L 553 3322 
L 1678 3322 
L 1103 363 
z
" transform="scale(0.015625)"/>
       <path id="DejaVuSerif-Italic-48" d="M 938 1275 
Q 925 1156 925 1050 
Q 925 756 1031 563 
Q 1216 219 1709 219 
Q 2072 219 2250 328 
Q 2569 525 2644 778 
L 3066 778 
Q 2941 381 2475 103 
Q 2150 -91 1506 -91 
Q 863 -91 516 388 
Q 272 722 272 1206 
Q 272 1419 319 1659 
Q 472 2450 1000 2931 
Q 1528 3413 2278 3413 
Q 3500 3413 3500 2547 
Q 3500 1913 2859 1603 
Q 2206 1288 938 1275 
z
M 2541 1975 
Q 2891 2181 2891 2569 
Q 2891 3103 2181 3103 
Q 1763 3103 1472 2784 
Q 1181 2466 1003 1606 
Q 2006 1653 2541 1975 
z
" transform="scale(0.015625)"/>
       <path id="DejaVuSerif-3" transform="scale(0.015625)"/>
       <path id="DejaVuSerif-b" d="M 2041 -997 
Q 1281 -656 893 83 
Q 506 822 506 1931 
Q 506 3044 893 3783 
Q 1281 4522 2041 4863 
L 2041 4556 
Q 1559 4225 1350 3623 
Q 1141 3022 1141 1931 
Q 1141 844 1350 242 
Q 1559 -359 2041 -691 
L 2041 -997 
z
" transform="scale(0.015625)"/>
       <path id="DejaVuSerif-4e" d="M 1831 0 
L 219 0 
L 219 331 
L 738 331 
L 738 4531 
L 184 4531 
L 184 4863 
L 1313 4863 
L 1313 1697 
L 2713 2988 
L 2234 2988 
L 2234 3322 
L 3738 3322 
L 3738 2988 
L 3169 2988 
L 2181 2075 
L 3444 331 
L 3922 331 
L 3922 0 
L 2284 0 
L 2284 331 
L 2759 331 
L 1766 1697 
L 1313 1275 
L 1313 331 
L 1831 331 
L 1831 0 
z
" transform="scale(0.015625)"/>
       <path id="DejaVuSerif-50" d="M 3316 2675 
Q 3481 3041 3739 3227 
Q 3997 3413 4341 3413 
Q 4863 3413 5119 3089 
Q 5375 2766 5375 2113 
L 5375 331 
L 5894 331 
L 5894 0 
L 4300 0 
L 4300 331 
L 4800 331 
L 4800 2047 
Q 4800 2556 4650 2772 
Q 4500 2988 4153 2988 
Q 3769 2988 3567 2697 
Q 3366 2406 3366 1850 
L 3366 331 
L 3866 331 
L 3866 0 
L 2291 0 
L 2291 331 
L 2791 331 
L 2791 2069 
Q 2791 2566 2641 2777 
Q 2491 2988 2144 2988 
Q 1759 2988 1557 2697 
Q 1356 2406 1356 1850 
L 1356 331 
L 1856 331 
L 1856 0 
L 263 0 
L 263 331 
L 781 331 
L 781 2994 
L 231 2994 
L 231 3322 
L 1356 3322 
L 1356 2731 
Q 1516 3063 1762 3238 
Q 2009 3413 2322 3413 
Q 2709 3413 2968 3220 
Q 3228 3028 3316 2675 
z
" transform="scale(0.015625)"/>
       <path id="DejaVuSerif-30" d="M 353 0 
L 353 331 
L 947 331 
L 947 4331 
L 319 4331 
L 319 4666 
L 1678 4666 
L 3316 1344 
L 4953 4666 
L 6228 4666 
L 6228 4331 
L 5606 4331 
L 5606 331 
L 6203 331 
L 6203 0 
L 4378 0 
L 4378 331 
L 4972 331 
L 4972 3938 
L 3372 684 
L 2931 684 
L 1331 3938 
L 1331 331 
L 1925 331 
L 1925 0 
L 353 0 
z
" transform="scale(0.015625)"/>
       <path id="DejaVuSerif-48" d="M 3469 1600 
L 991 1600 
L 991 1575 
Q 991 903 1244 561 
Q 1497 219 1991 219 
Q 2369 219 2611 417 
Q 2853 616 2950 1006 
L 3413 1006 
Q 3275 459 2904 184 
Q 2534 -91 1931 -91 
Q 1203 -91 761 389 
Q 319 869 319 1663 
Q 319 2450 753 2931 
Q 1188 3413 1894 3413 
Q 2647 3413 3050 2948 
Q 3453 2484 3469 1600 
z
M 2791 1931 
Q 2772 2513 2545 2808 
Q 2319 3103 1894 3103 
Q 1497 3103 1269 2806 
Q 1041 2509 991 1931 
L 2791 1931 
z
" transform="scale(0.015625)"/>
       <path id="DejaVuSerif-39" d="M 1119 4331 
L 2497 750 
L 3872 4331 
L 3347 4331 
L 3347 4666 
L 4716 4666 
L 4716 4331 
L 4263 4331 
L 2597 0 
L 2059 0 
L 403 4331 
L -63 4331 
L -63 4666 
L 1638 4666 
L 1638 4331 
L 1119 4331 
z
" transform="scale(0.015625)"/>
       <path id="DejaVuSerif-c" d="M 453 -997 
L 453 -691 
Q 934 -359 1145 242 
Q 1356 844 1356 1931 
Q 1356 3022 1145 3623 
Q 934 4225 453 4556 
L 453 4863 
Q 1216 4522 1603 3783 
Q 1991 3044 1991 1931 
Q 1991 822 1603 83 
Q 1216 -656 453 -997 
z
" transform="scale(0.015625)"/>
      </defs>
      <use xlink:href="#DejaVuSerif-Italic-2f" transform="translate(0 0.015625)"/>
      <use xlink:href="#DejaVuSerif-13" transform="translate(66.40625 -14.984326) scale(0.7)"/>
      <use xlink:href="#DejaVuSerif-12" transform="translate(113.537598 0.015625)"/>
      <use xlink:href="#DejaVuSerif-Italic-28" transform="translate(147.229004 0.015625)"/>
      <use xlink:href="#DejaVuSerif-2b1" transform="translate(259.892676 -16.993701) scale(0.7)"/>
      <use xlink:href="#DejaVuSerif-Italic-335" transform="translate(220.227051 -14.984326) scale(0.7)"/>
      <use xlink:href="#DejaVuSerif-Italic-48" transform="translate(263.416589 -25.484292) scale(0.49)"/>
      <use xlink:href="#DejaVuSerif-3" transform="translate(296.826501 0.015625)"/>
      <use xlink:href="#DejaVuSerif-3" transform="translate(328.613611 0.015625)"/>
      <use xlink:href="#DejaVuSerif-3" transform="translate(360.40072 0.015625)"/>
      <use xlink:href="#DejaVuSerif-b" transform="translate(392.18783 0.015625)"/>
      <use xlink:href="#DejaVuSerif-4e" transform="translate(431.201501 0.015625)"/>
      <use xlink:href="#DejaVuSerif-50" transform="translate(491.797205 0.015625)"/>
      <use xlink:href="#DejaVuSerif-3" transform="translate(586.621423 0.015625)"/>
      <use xlink:href="#DejaVuSerif-12" transform="translate(618.408533 0.015625)"/>
      <use xlink:href="#DejaVuSerif-3" transform="translate(652.099939 0.015625)"/>
      <use xlink:href="#DejaVuSerif-30" transform="translate(683.887048 0.015625)"/>
      <use xlink:href="#DejaVuSerif-48" transform="translate(786.279626 0.015625)"/>
      <use xlink:href="#DejaVuSerif-39" transform="translate(845.459314 0.015625)"/>
      <use xlink:href="#DejaVuSerif-c" transform="translate(917.676111 0.015625)"/>
     </g>
    </g>
   </g>
   <g id="matplotlib.axis_2">
    <g id="ytick_1">
     <g id="line2d_13">
      <path d="M 49.286563 247.73 
L 559.20375 247.73 
" clip-path="url(#pfd0aaa541a)" style="fill: none; stroke: #b0b0b0; stroke-opacity: 0.18; stroke-width: 0.8; stroke-linecap: square"/>
     </g>
     <g id="line2d_14">
      <defs>
       <path id="meadae86432" d="M 0 0 
L -3.5 0 
" style="stroke: #000000; stroke-width: 0.8"/>
      </defs>
      <g>
       <use xlink:href="#meadae86432" x="49.286563" y="247.73" style="stroke: #000000; stroke-width: 0.8"/>
      </g>
     </g>
     <g id="text_8">
      <!-- 0.0 -->
      <g transform="translate(23.202813 252.288594) scale(0.12 -0.12)">
       <defs>
        <path id="DejaVuSerif-11" d="M 603 325 
Q 603 500 722 622 
Q 841 744 1019 744 
Q 1191 744 1312 622 
Q 1434 500 1434 325 
Q 1434 153 1312 31 
Q 1191 -91 1019 -91 
Q 841 -91 722 29 
Q 603 150 603 325 
z
" transform="scale(0.015625)"/>
       </defs>
       <use xlink:href="#DejaVuSerif-13"/>
       <use xlink:href="#DejaVuSerif-11" transform="translate(63.625 0)"/>
       <use xlink:href="#DejaVuSerif-13" transform="translate(95.40625 0)"/>
      </g>
     </g>
    </g>
    <g id="ytick_2">
     <g id="line2d_15">
      <path d="M 49.286563 205.116667 
L 559.20375 205.116667 
" clip-path="url(#pfd0aaa541a)" style="fill: none; stroke: #b0b0b0; stroke-opacity: 0.18; stroke-width: 0.8; stroke-linecap: square"/>
     </g>
     <g id="line2d_16">
      <g>
       <use xlink:href="#meadae86432" x="49.286563" y="205.116667" style="stroke: #000000; stroke-width: 0.8"/>
      </g>
     </g>
     <g id="text_9">
      <!-- 0.2 -->
      <g transform="translate(23.202813 209.67526) scale(0.12 -0.12)">
       <use xlink:href="#DejaVuSerif-13"/>
       <use xlink:href="#DejaVuSerif-11" transform="translate(63.625 0)"/>
       <use xlink:href="#DejaVuSerif-15" transform="translate(95.40625 0)"/>
      </g>
     </g>
    </g>
    <g id="ytick_3">
     <g id="line2d_17">
      <path d="M 49.286563 162.503333 
L 559.20375 162.503333 
" clip-path="url(#pfd0aaa541a)" style="fill: none; stroke: #b0b0b0; stroke-opacity: 0.18; stroke-width: 0.8; stroke-linecap: square"/>
     </g>
     <g id="line2d_18">
      <g>
       <use xlink:href="#meadae86432" x="49.286563" y="162.503333" style="stroke: #000000; stroke-width: 0.8"/>
      </g>
     </g>
     <g id="text_10">
      <!-- 0.4 -->
      <g transform="translate(23.202813 167.061927) scale(0.12 -0.12)">
       <use xlink:href="#DejaVuSerif-13"/>
       <use xlink:href="#DejaVuSerif-11" transform="translate(63.625 0)"/>
       <use xlink:href="#DejaVuSerif-17" transform="translate(95.40625 0)"/>
      </g>
     </g>
    </g>
    <g id="ytick_4">
     <g id="line2d_19">
      <path d="M 49.286563 119.89 
L 559.20375 119.89 
" clip-path="url(#pfd0aaa541a)" style="fill: none; stroke: #b0b0b0; stroke-opacity: 0.18; stroke-width: 0.8; stroke-linecap: square"/>
     </g>
     <g id="line2d_20">
      <g>
       <use xlink:href="#meadae86432" x="49.286563" y="119.89" style="stroke: #000000; stroke-width: 0.8"/>
      </g>
     </g>
     <g id="text_11">
      <!-- 0.6 -->
      <g transform="translate(23.202813 124.448594) scale(0.12 -0.12)">
       <use xlink:href="#DejaVuSerif-13"/>
       <use xlink:href="#DejaVuSerif-11" transform="translate(63.625 0)"/>
       <use xlink:href="#DejaVuSerif-19" transform="translate(95.40625 0)"/>
      </g>
     </g>
    </g>
    <g id="ytick_5">
     <g id="line2d_21">
      <path d="M 49.286563 77.276667 
L 559.20375 77.276667 
" clip-path="url(#pfd0aaa541a)" style="fill: none; stroke: #b0b0b0; stroke-opacity: 0.18; stroke-width: 0.8; stroke-linecap: square"/>
     </g>
     <g id="line2d_22">
      <g>
       <use xlink:href="#meadae86432" x="49.286563" y="77.276667" style="stroke: #000000; stroke-width: 0.8"/>
      </g>
     </g>
     <g id="text_12">
      <!-- 0.8 -->
      <g transform="translate(23.202813 81.83526) scale(0.12 -0.12)">
       <use xlink:href="#DejaVuSerif-13"/>
       <use xlink:href="#DejaVuSerif-11" transform="translate(63.625 0)"/>
       <use xlink:href="#DejaVuSerif-1b" transform="translate(95.40625 0)"/>
      </g>
     </g>
    </g>
    <g id="ytick_6">
     <g id="line2d_23">
      <path d="M 49.286563 34.663333 
L 559.20375 34.663333 
" clip-path="url(#pfd0aaa541a)" style="fill: none; stroke: #b0b0b0; stroke-opacity: 0.18; stroke-width: 0.8; stroke-linecap: square"/>
     </g>
     <g id="line2d_24">
      <g>
       <use xlink:href="#meadae86432" x="49.286563" y="34.663333" style="stroke: #000000; stroke-width: 0.8"/>
      </g>
     </g>
     <g id="text_13">
      <!-- 1.0 -->
      <g transform="translate(23.202813 39.221927) scale(0.12 -0.12)">
       <use xlink:href="#DejaVuSerif-14"/>
       <use xlink:href="#DejaVuSerif-11" transform="translate(63.625 0)"/>
       <use xlink:href="#DejaVuSerif-13" transform="translate(95.40625 0)"/>
      </g>
     </g>
    </g>
    <g id="text_14">
     <!-- $P(\bar\nu_e\to\bar\nu_e)$  survival -->
     <g transform="translate(16.32 192.45) rotate(-90) scale(0.12 -0.12)">
      <defs>
       <path id="DejaVuSerif-Italic-33" d="M 1594 2375 
L 2419 2375 
Q 2884 2375 3176 2626 
Q 3469 2878 3559 3353 
Q 3653 3831 3457 4081 
Q 3262 4331 2797 4331 
L 1972 4331 
L 1594 2375 
z
M -97 0 
L -35 331 
L 559 331 
L 1337 4331 
L 744 4331 
L 809 4666 
L 3016 4666 
Q 3716 4666 4056 4311 
Q 4397 3956 4278 3353 
Q 4162 2753 3684 2397 
Q 3206 2041 2506 2041 
L 1528 2041 
L 1194 331 
L 1916 331 
L 1853 0 
L -97 0 
z
" transform="scale(0.015625)"/>
       <path id="DejaVuSerif-854" d="M 366 2322 
L 4391 2322 
L 3788 3375 
L 3822 3375 
L 5125 2084 
L 5125 2053 
L 3822 763 
L 3788 763 
L 4391 1816 
L 366 1816 
L 366 2322 
z
" transform="scale(0.015625)"/>
       <path id="DejaVuSerif-56" d="M 359 184 
L 359 959 
L 691 959 
Q 703 588 923 403 
Q 1144 219 1575 219 
Q 1963 219 2166 364 
Q 2369 509 2369 788 
Q 2369 1006 2220 1140 
Q 2072 1275 1594 1428 
L 1178 1569 
Q 750 1706 558 1912 
Q 366 2119 366 2438 
Q 366 2894 700 3153 
Q 1034 3413 1625 3413 
Q 1888 3413 2178 3344 
Q 2469 3275 2778 3144 
L 2778 2419 
L 2447 2419 
Q 2434 2741 2221 2922 
Q 2009 3103 1644 3103 
Q 1281 3103 1095 2975 
Q 909 2847 909 2591 
Q 909 2381 1050 2254 
Q 1191 2128 1613 1997 
L 2069 1856 
Q 2541 1709 2748 1489 
Q 2956 1269 2956 922 
Q 2956 450 2595 179 
Q 2234 -91 1600 -91 
Q 1278 -91 972 -22 
Q 666 47 359 184 
z
" transform="scale(0.015625)"/>
       <path id="DejaVuSerif-58" d="M 2266 3322 
L 3341 3322 
L 3341 331 
L 3884 331 
L 3884 0 
L 2766 0 
L 2766 588 
Q 2606 256 2353 82 
Q 2100 -91 1766 -91 
Q 1213 -91 952 223 
Q 691 538 691 1209 
L 691 2988 
L 172 2988 
L 172 3322 
L 1269 3322 
L 1269 1388 
Q 1269 781 1417 556 
Q 1566 331 1947 331 
Q 2347 331 2556 625 
Q 2766 919 2766 1478 
L 2766 2988 
L 2266 2988 
L 2266 3322 
z
" transform="scale(0.015625)"/>
       <path id="DejaVuSerif-55" d="M 3059 3328 
L 3059 2497 
L 2728 2497 
Q 2713 2744 2591 2866 
Q 2469 2988 2234 2988 
Q 1809 2988 1582 2694 
Q 1356 2400 1356 1850 
L 1356 331 
L 2022 331 
L 2022 0 
L 263 0 
L 263 331 
L 781 331 
L 781 2994 
L 231 2994 
L 231 3322 
L 1356 3322 
L 1356 2731 
Q 1525 3078 1790 3245 
Q 2056 3413 2438 3413 
Q 2578 3413 2733 3391 
Q 2888 3369 3059 3328 
z
" transform="scale(0.015625)"/>
       <path id="DejaVuSerif-59" d="M 1581 0 
L 359 2988 
L -19 2988 
L -19 3322 
L 1509 3322 
L 1509 2988 
L 978 2988 
L 1913 703 
L 2847 2988 
L 2350 2988 
L 2350 3322 
L 3597 3322 
L 3597 2988 
L 3225 2988 
L 2003 0 
L 1581 0 
z
" transform="scale(0.015625)"/>
       <path id="DejaVuSerif-4c" d="M 622 4353 
Q 622 4497 726 4603 
Q 831 4709 978 4709 
Q 1122 4709 1226 4603 
Q 1331 4497 1331 4353 
Q 1331 4206 1228 4103 
Q 1125 4000 978 4000 
Q 831 4000 726 4103 
Q 622 4206 622 4353 
z
M 1356 331 
L 1900 331 
L 1900 0 
L 231 0 
L 231 331 
L 781 331 
L 781 2988 
L 231 2988 
L 231 3322 
L 1356 3322 
L 1356 331 
z
" transform="scale(0.015625)"/>
       <path id="DejaVuSerif-44" d="M 2547 1044 
L 2547 1747 
L 1806 1747 
Q 1378 1747 1168 1562 
Q 959 1378 959 997 
Q 959 650 1171 447 
Q 1384 244 1747 244 
Q 2106 244 2326 466 
Q 2547 688 2547 1044 
z
M 3122 2075 
L 3122 331 
L 3634 331 
L 3634 0 
L 2547 0 
L 2547 359 
Q 2356 128 2106 18 
Q 1856 -91 1522 -91 
Q 969 -91 644 203 
Q 319 497 319 997 
Q 319 1513 691 1797 
Q 1063 2081 1741 2081 
L 2547 2081 
L 2547 2309 
Q 2547 2688 2317 2895 
Q 2088 3103 1672 3103 
Q 1328 3103 1125 2947 
Q 922 2791 872 2484 
L 575 2484 
L 575 3156 
Q 875 3284 1158 3348 
Q 1441 3413 1709 3413 
Q 2400 3413 2761 3070 
Q 3122 2728 3122 2075 
z
" transform="scale(0.015625)"/>
       <path id="DejaVuSerif-4f" d="M 1313 331 
L 1856 331 
L 1856 0 
L 184 0 
L 184 331 
L 738 331 
L 738 4531 
L 184 4531 
L 184 4863 
L 1313 4863 
L 1313 331 
z
" transform="scale(0.015625)"/>
      </defs>
      <use xlink:href="#DejaVuSerif-Italic-33" transform="translate(0 0.015625)"/>
      <use xlink:href="#DejaVuSerif-b" transform="translate(67.285156 0.015625)"/>
      <use xlink:href="#DejaVuSerif-2b1" transform="translate(163.673828 -2.859375)"/>
      <use xlink:href="#DejaVuSerif-Italic-335" transform="translate(106.298828 0.015625)"/>
      <use xlink:href="#DejaVuSerif-Italic-48" transform="translate(167.998169 -14.984326) scale(0.7)"/>
      <use xlink:href="#DejaVuSerif-854" transform="translate(230.984009 0.015625)"/>
      <use xlink:href="#DejaVuSerif-2b1" transform="translate(391.112915 -2.859375)"/>
      <use xlink:href="#DejaVuSerif-Italic-335" transform="translate(333.737915 0.015625)"/>
      <use xlink:href="#DejaVuSerif-Italic-48" transform="translate(395.437256 -14.984326) scale(0.7)"/>
      <use xlink:href="#DejaVuSerif-c" transform="translate(439.458252 0.015625)"/>
      <use xlink:href="#DejaVuSerif-3" transform="translate(478.471924 0.015625)"/>
      <use xlink:href="#DejaVuSerif-3" transform="translate(510.259033 0.015625)"/>
      <use xlink:href="#DejaVuSerif-56" transform="translate(542.046143 0.015625)"/>
      <use xlink:href="#DejaVuSerif-58" transform="translate(593.364502 0.015625)"/>
      <use xlink:href="#DejaVuSerif-55" transform="translate(657.768799 0.015625)"/>
      <use xlink:href="#DejaVuSerif-59" transform="translate(705.571533 0.015625)"/>
      <use xlink:href="#DejaVuSerif-4c" transform="translate(762.065674 0.015625)"/>
      <use xlink:href="#DejaVuSerif-59" transform="translate(794.048096 0.015625)"/>
      <use xlink:href="#DejaVuSerif-44" transform="translate(850.542236 0.015625)"/>
      <use xlink:href="#DejaVuSerif-4f" transform="translate(910.161377 0.015625)"/>
     </g>
    </g>
   </g>
   <g id="line2d_25">
    <path d="M 51.836148 35.080197 
L 53.105202 35.5975 
L 54.628066 36.487906 
L 56.15093 37.669445 
L 57.673795 39.137927 
L 59.45047 41.206824 
L 61.227145 43.649187 
L 63.00382 46.453249 
L 65.034305 50.083399 
L 67.318602 54.682384 
L 69.602898 59.791473 
L 72.141005 66.017144 
L 74.932923 73.462242 
L 78.232462 82.950053 
L 82.039622 94.630858 
L 87.115837 111.00429 
L 98.537318 148.113669 
L 102.344479 159.632862 
L 105.644018 168.949163 
L 108.689747 176.868689 
L 111.227854 182.89369 
L 113.765961 188.339975 
L 116.050257 192.708342 
L 118.080743 196.142393 
L 120.111228 199.135489 
L 121.887903 201.381107 
L 123.664578 203.269864 
L 125.187443 204.600023 
L 126.710307 205.660571 
L 128.233171 206.449633 
L 129.756035 206.966309 
L 131.278899 207.210669 
L 132.547953 207.207003 
L 133.817007 207.01604 
L 135.339871 206.541882 
L 136.862735 205.803838 
L 138.385599 204.806371 
L 139.908463 203.554829 
L 141.685138 201.781906 
L 143.461813 199.682936 
L 145.492299 196.901306 
L 147.522785 193.731804 
L 149.807081 189.731813 
L 152.345188 184.791072 
L 155.137106 178.815798 
L 158.182834 171.740326 
L 161.736184 162.890316 
L 166.304777 150.844444 
L 181.78723 109.408384 
L 185.34058 100.802108 
L 188.386308 93.95218 
L 191.178226 88.174913 
L 193.716333 83.388134 
L 196.25444 79.082353 
L 198.538737 75.644191 
L 200.569222 72.951527 
L 202.599708 70.61211 
L 204.630194 68.634156 
L 206.406868 67.204574 
L 208.183543 66.05857 
L 209.960218 65.197098 
L 211.483083 64.684858 
L 213.005947 64.38028 
L 214.528811 64.281555 
L 216.051675 64.386169 
L 217.57454 64.690915 
L 219.351214 65.294188 
L 221.127889 66.157297 
L 222.904564 67.271838 
L 224.93505 68.841259 
L 226.965536 70.710883 
L 229.249832 73.151363 
L 231.534128 75.922852 
L 234.072235 79.355217 
L 236.864153 83.510957 
L 240.163692 88.856736 
L 243.970853 95.482672 
L 249.047067 104.812542 
L 260.97617 126.932595 
L 265.037142 133.909373 
L 268.590491 139.573845 
L 271.63622 144.031357 
L 274.428138 147.751474 
L 277.220055 151.089484 
L 279.758163 153.770988 
L 282.042459 155.883906 
L 284.326755 157.703672 
L 286.611052 159.224728 
L 288.641537 160.323537 
L 290.672023 161.183506 
L 292.702509 161.805747 
L 294.732994 162.192858 
L 296.76348 162.34887 
L 298.793966 162.279183 
L 300.824451 161.990491 
L 302.854937 161.490708 
L 305.139233 160.687431 
L 307.42353 159.642909 
L 309.961637 158.218817 
L 312.499744 156.540351 
L 315.291661 154.430645 
L 318.33739 151.85531 
L 321.89074 148.552599 
L 326.205522 144.219337 
L 332.550789 137.487165 
L 341.434164 128.089415 
L 346.002757 123.580083 
L 349.809917 120.110775 
L 353.363267 117.165169 
L 356.662807 114.718048 
L 359.708535 112.72755 
L 362.754263 111.00977 
L 365.546181 109.683247 
L 368.338099 108.598486 
L 371.130017 107.756583 
L 373.921935 107.155628 
L 376.713852 106.790871 
L 379.50577 106.654914 
L 382.297688 106.737934 
L 385.343416 107.064077 
L 388.389145 107.618299 
L 391.688684 108.45226 
L 395.242034 109.590001 
L 399.049194 111.042386 
L 403.617787 113.036295 
L 409.455433 115.852661 
L 427.222183 124.60873 
L 432.298397 126.762521 
L 436.86699 128.460102 
L 441.181772 129.823645 
L 445.242743 130.87805 
L 449.303714 131.702793 
L 453.364686 132.297026 
L 457.425657 132.665925 
L 461.486628 132.820052 
L 465.80141 132.76556 
L 470.370003 132.487919 
L 475.446217 131.95225 
L 481.283863 131.101295 
L 488.644374 129.78428 
L 513.771634 125.077983 
L 520.878333 124.092932 
L 527.477412 123.404362 
L 534.07649 122.944014 
L 540.675568 122.704847 
L 547.782268 122.670572 
L 555.6504 122.856312 
L 559.20375 123.000933 
L 559.20375 123.000933 
" clip-path="url(#pfd0aaa541a)" style="fill: none; stroke: #c0392b; stroke-width: 2.2; stroke-linecap: square"/>
   </g>
   <g id="line2d_26">
    <path d="M 51.836148 35.071863 
L 53.105202 35.578911 
L 54.628066 36.451892 
L 56.15093 37.610752 
L 57.673795 39.05176 
L 59.45047 41.083296 
L 61.227145 43.483609 
L 63.00382 46.242175 
L 65.034305 49.817921 
L 67.064791 53.825278 
L 69.349087 58.820811 
L 71.887194 64.933815 
L 74.679112 72.278467 
L 77.72484 80.941048 
L 81.27819 91.759463 
L 85.592972 105.664837 
L 92.445861 128.63727 
L 99.29875 151.387769 
L 103.359722 164.159384 
L 106.913072 174.613644 
L 109.9588 182.892418 
L 112.750718 189.831541 
L 115.288825 195.535089 
L 117.573121 200.132012 
L 119.603607 203.763524 
L 121.634093 206.945403 
L 123.410768 209.346325 
L 125.187443 211.378487 
L 126.710307 212.820041 
L 128.233171 213.979456 
L 129.756035 214.852999 
L 131.278899 215.437855 
L 132.547953 215.703323 
L 133.817007 215.766397 
L 135.08606 215.626934 
L 136.355114 215.285247 
L 137.624167 214.742101 
L 139.147031 213.82614 
L 140.669896 212.624799 
L 142.19276 211.141949 
L 143.969435 209.06258 
L 145.74611 206.615696 
L 147.522785 203.812022 
L 149.55327 200.18677 
L 151.837567 195.596515 
L 154.121863 190.496427 
L 156.65997 184.276765 
L 159.451888 176.827451 
L 162.497616 168.067106 
L 166.050966 157.157895 
L 170.619559 142.337699 
L 187.371066 87.128412 
L 190.924415 76.613643 
L 193.970144 68.271889 
L 196.762062 61.266747 
L 199.300169 55.496918 
L 201.584465 50.835749 
L 203.614951 47.143863 
L 205.645436 43.898896 
L 207.422111 41.440831 
L 209.198786 39.349974 
L 210.72165 37.85707 
L 212.244515 36.64552 
L 213.767379 35.719226 
L 215.290243 35.081171 
L 216.559297 34.771152 
L 217.82835 34.663436 
L 219.097404 34.758264 
L 220.366457 35.055423 
L 221.635511 35.55425 
L 223.158375 36.41744 
L 224.681239 37.566621 
L 226.204104 38.998091 
L 227.980778 41.018721 
L 229.757453 43.40841 
L 231.534128 46.156682 
L 233.564614 49.721124 
L 235.5951 53.717732 
L 237.879396 58.701911 
L 240.417503 64.803313 
L 243.209421 72.136555 
L 246.255149 80.788443 
L 249.808499 91.596873 
L 254.123281 105.493964 
L 260.97617 128.462351 
L 268.08287 152.039507 
L 272.143841 164.7736 
L 275.697191 175.18347 
L 278.74292 183.41622 
L 281.534837 190.307214 
L 284.072945 195.962528 
L 286.357241 200.512759 
L 288.387727 204.100442 
L 290.418212 207.236563 
L 292.194887 209.596069 
L 293.971562 211.585721 
L 295.494426 212.990108 
L 297.017291 214.111809 
L 298.540155 214.94721 
L 300.063019 215.493621 
L 301.332073 215.72691 
L 302.601126 215.757752 
L 303.87018 215.586076 
L 305.139233 215.212268 
L 306.408287 214.637163 
L 307.931151 213.683168 
L 309.454015 212.444254 
L 310.976879 210.924411 
L 312.753554 208.802779 
L 314.530229 206.31477 
L 316.560715 203.036768 
L 318.591201 199.313293 
L 320.875497 194.61854 
L 323.159793 189.42104 
L 325.6979 183.102306 
L 328.489818 175.556174 
L 331.789357 165.942675 
L 335.596518 154.095551 
L 340.418921 138.287556 
L 354.37851 92.012919 
L 358.185671 80.432527 
L 361.48521 71.116414 
L 364.277128 63.866488 
L 366.815235 57.849648 
L 369.099531 52.948113 
L 371.383827 48.570093 
L 373.414313 45.14374 
L 375.444799 42.175756 
L 377.221474 39.968198 
L 378.998149 38.134303 
L 380.521013 36.865936 
L 382.043877 35.882116 
L 383.566741 35.18601 
L 384.835795 34.827349 
L 386.104848 34.670865 
L 387.373902 34.716909 
L 388.642955 34.965377 
L 389.912009 35.415714 
L 391.434873 36.221134 
L 392.957737 37.313178 
L 394.480602 38.688326 
L 396.003466 40.342152 
L 397.780141 42.616676 
L 399.556816 45.253255 
L 401.587301 48.694923 
L 403.617787 52.574632 
L 405.902083 57.435153 
L 408.440191 63.409957 
L 411.232108 70.61837 
L 414.277837 79.152856 
L 417.577376 89.064033 
L 421.638347 101.995474 
L 427.475994 121.436236 
L 436.613179 151.872274 
L 440.67415 164.616073 
L 444.2275 175.037399 
L 447.273229 183.282013 
L 450.065146 190.185404 
L 452.603253 195.853137 
L 454.88755 200.415384 
L 456.918035 204.014342 
L 458.948521 207.162231 
L 460.725196 209.532386 
L 462.501871 211.532966 
L 464.024735 212.946906 
L 465.547599 214.078299 
L 467.070464 214.9235 
L 468.593328 215.479788 
L 469.862381 215.721342 
L 471.131435 215.760461 
L 472.400489 215.597058 
L 473.669542 215.231497 
L 474.938596 214.664596 
L 476.46146 213.720364 
L 477.984324 212.491093 
L 479.507188 210.980742 
L 481.283863 208.869952 
L 483.060538 206.392491 
L 485.091024 203.126125 
L 487.121509 199.413774 
L 489.405806 194.730845 
L 491.690102 189.544354 
L 494.228209 183.236802 
L 497.020127 175.701579 
L 500.319666 166.098935 
L 504.126827 154.261395 
L 508.94923 138.460736 
L 522.908819 92.175827 
L 526.71598 80.584744 
L 530.015519 71.25688 
L 532.807437 63.995346 
L 535.345544 57.96674 
L 537.62984 53.053718 
L 539.914136 48.663445 
L 541.944622 45.225631 
L 543.975108 42.245716 
L 545.751783 40.027387 
L 547.528458 38.182463 
L 549.051322 36.904472 
L 550.574186 35.910904 
L 552.09705 35.204957 
L 553.366104 34.838048 
L 554.635157 34.673292 
L 555.904211 34.711058 
L 557.173264 34.951261 
L 558.442318 35.393365 
L 559.20375 35.755146 
L 559.20375 35.755146 
" clip-path="url(#pfd0aaa541a)" style="fill: none; stroke: #c0392b; stroke-opacity: 0.22; stroke-width: 0.8; stroke-linecap: square"/>
   </g>
   <g id="line2d_27">
    <path d="M 49.286563 125.216667 
L 559.20375 125.216667 
" clip-path="url(#pfd0aaa541a)" style="fill: none; stroke-dasharray: 1,1.65; stroke-dashoffset: 0; stroke: #808080"/>
   </g>
   <g id="patch_3">
    <path d="M 49.286563 247.73 
L 49.286563 24.01 
" style="fill: none; stroke: #000000; stroke-width: 1.1; stroke-linejoin: miter; stroke-linecap: square"/>
   </g>
   <g id="patch_4">
    <path d="M 49.286563 247.73 
L 559.20375 247.73 
" style="fill: none; stroke: #000000; stroke-width: 1.1; stroke-linejoin: miter; stroke-linecap: square"/>
   </g>
   <g id="text_15">
    <!-- average $\langle P\rangle=1-\frac{1}{2}\sin^2 2\theta_{12}$ -->
    <g style="fill: #666666" transform="translate(365.435219 120.955333) scale(0.1 -0.1)">
     <defs>
      <path id="DejaVuSerif-4a" d="M 3359 2988 
L 3359 72 
Q 3359 -644 2965 -1033 
Q 2572 -1422 1844 -1422 
Q 1516 -1422 1216 -1362 
Q 916 -1303 641 -1184 
L 641 -488 
L 941 -488 
Q 997 -813 1206 -963 
Q 1416 -1113 1806 -1113 
Q 2313 -1113 2548 -827 
Q 2784 -541 2784 72 
L 2784 519 
Q 2616 206 2355 57 
Q 2094 -91 1709 -91 
Q 1097 -91 708 395 
Q 319 881 319 1663 
Q 319 2444 706 2928 
Q 1094 3413 1709 3413 
Q 2094 3413 2355 3264 
Q 2616 3116 2784 2803 
L 2784 3322 
L 3909 3322 
L 3909 2988 
L 3359 2988 
z
M 2784 1825 
Q 2784 2422 2554 2737 
Q 2325 3053 1888 3053 
Q 1444 3053 1217 2703 
Q 991 2353 991 1663 
Q 991 975 1217 622 
Q 1444 269 1888 269 
Q 2325 269 2554 583 
Q 2784 897 2784 1497 
L 2784 1825 
z
" transform="scale(0.015625)"/>
      <path id="DejaVuSerif-a6e" d="M 572 2006 
L 1453 4856 
L 1984 4856 
L 1103 2006 
L 1984 -844 
L 1453 -844 
L 572 2006 
z
" transform="scale(0.015625)"/>
      <path id="DejaVuSerif-a6f" d="M 1925 2006 
L 1044 -844 
L 513 -844 
L 1394 2006 
L 513 4856 
L 1044 4856 
L 1925 2006 
z
" transform="scale(0.015625)"/>
      <path id="DejaVuSerif-20" d="M 678 2894 
L 4684 2894 
L 4684 2394 
L 678 2394 
L 678 2894 
z
M 678 1619 
L 4684 1619 
L 4684 1119 
L 678 1119 
L 678 1619 
z
" transform="scale(0.015625)"/>
      <path id="DejaVuSerif-8cf" d="M 678 2259 
L 4684 2259 
L 4684 1753 
L 678 1753 
L 678 2259 
z
" transform="scale(0.015625)"/>
      <path id="DejaVuSerif-51" d="M 263 0 
L 263 331 
L 781 331 
L 781 2988 
L 231 2988 
L 231 3322 
L 1356 3322 
L 1356 2731 
Q 1516 3069 1770 3241 
Q 2025 3413 2363 3413 
Q 2913 3413 3172 3097 
Q 3431 2781 3431 2113 
L 3431 331 
L 3944 331 
L 3944 0 
L 2356 0 
L 2356 331 
L 2853 331 
L 2853 1931 
Q 2853 2541 2703 2767 
Q 2553 2994 2175 2994 
Q 1775 2994 1565 2701 
Q 1356 2409 1356 1850 
L 1356 331 
L 1856 331 
L 1856 0 
L 263 0 
z
" transform="scale(0.015625)"/>
      <path id="DejaVuSerif-Italic-330" d="M 2888 2600 
Q 3059 3603 2947 4113 
Q 2822 4678 2359 4678 
Q 1900 4678 1553 4113 
Q 1244 3603 1025 2600 
L 2888 2600 
z
M 2822 2266 
L 959 2266 
Q 791 1269 903 759 
Q 1031 191 1488 191 
Q 1947 191 2294 759 
Q 2603 1269 2822 2266 
z
M 2409 4931 
Q 3138 4931 3444 4248 
Q 3750 3566 3529 2433 
Q 3309 1300 2734 615 
Q 2159 -69 1434 -69 
Q 713 -69 406 615 
Q 100 1300 320 2433 
Q 541 3566 1112 4248 
Q 1684 4931 2409 4931 
z
" transform="scale(0.015625)"/>
     </defs>
     <use xlink:href="#DejaVuSerif-44" transform="translate(0 0.746875)"/>
     <use xlink:href="#DejaVuSerif-59" transform="translate(59.619141 0.746875)"/>
     <use xlink:href="#DejaVuSerif-48" transform="translate(116.113281 0.746875)"/>
     <use xlink:href="#DejaVuSerif-55" transform="translate(175.292969 0.746875)"/>
     <use xlink:href="#DejaVuSerif-44" transform="translate(223.095703 0.746875)"/>
     <use xlink:href="#DejaVuSerif-4a" transform="translate(282.714844 0.746875)"/>
     <use xlink:href="#DejaVuSerif-48" transform="translate(346.728516 0.746875)"/>
     <use xlink:href="#DejaVuSerif-3" transform="translate(405.908203 0.746875)"/>
     <use xlink:href="#DejaVuSerif-a6e" transform="translate(437.695312 0.746875)"/>
     <use xlink:href="#DejaVuSerif-Italic-33" transform="translate(476.708984 0.746875)"/>
     <use xlink:href="#DejaVuSerif-a6f" transform="translate(543.994141 0.746875)"/>
     <use xlink:href="#DejaVuSerif-20" transform="translate(601.972656 0.746875)"/>
     <use xlink:href="#DejaVuSerif-14" transform="translate(704.726562 0.746875)"/>
     <use xlink:href="#DejaVuSerif-8cf" transform="translate(787.314453 0.746875)"/>
     <use xlink:href="#DejaVuSerif-14" transform="translate(896.318359 35.121875) scale(0.7)"/>
     <use xlink:href="#DejaVuSerif-15" transform="translate(896.318359 -35.58125) scale(0.7)"/>
     <use xlink:href="#DejaVuSerif-56" transform="translate(947.104492 0.746875)"/>
     <use xlink:href="#DejaVuSerif-4c" transform="translate(998.422852 0.746875)"/>
     <use xlink:href="#DejaVuSerif-51" transform="translate(1030.405273 0.746875)"/>
     <use xlink:href="#DejaVuSerif-15" transform="translate(1095.717896 42.046875) scale(0.7)"/>
     <use xlink:href="#DejaVuSerif-15" transform="translate(1158.653596 0.746875)"/>
     <use xlink:href="#DejaVuSerif-Italic-330" transform="translate(1222.276643 0.746875)"/>
     <use xlink:href="#DejaVuSerif-14" transform="translate(1282.481721 -14.253076) scale(0.7)"/>
     <use xlink:href="#DejaVuSerif-15" transform="translate(1327.017854 -14.253076) scale(0.7)"/>
     <path d="M 896.318359 22.621875 
L 896.318359 28.871875 
L 940.854492 28.871875 
L 940.854492 22.621875 
L 896.318359 22.621875 
z
"/>
    </g>
   </g>
   <g id="text_16">
    <!-- Reactor $\bar\nu_e$ disappearance  ($\Delta m^2_{21}=7.5\times10^{-5}\,$eV$^2$, $\sin^2 2\theta_{12}=0.85$) -->
    <g transform="translate(110.125156 18.01) scale(0.115 -0.115)">
     <defs>
      <path id="DejaVuSerif-35" d="M 3066 2316 
Q 3284 2256 3442 2114 
Q 3600 1972 3725 1716 
L 4403 331 
L 4972 331 
L 4972 0 
L 3872 0 
L 3144 1484 
Q 2934 1916 2759 2042 
Q 2584 2169 2278 2169 
L 1581 2169 
L 1581 331 
L 2241 331 
L 2241 0 
L 353 0 
L 353 331 
L 947 331 
L 947 4331 
L 353 4331 
L 353 4666 
L 2719 4666 
Q 3400 4666 3770 4341 
Q 4141 4016 4141 3419 
Q 4141 2938 3870 2661 
Q 3600 2384 3066 2316 
z
M 1581 2503 
L 2503 2503 
Q 2975 2503 3200 2726 
Q 3425 2950 3425 3419 
Q 3425 3888 3200 4109 
Q 2975 4331 2503 4331 
L 1581 4331 
L 1581 2503 
z
" transform="scale(0.015625)"/>
      <path id="DejaVuSerif-46" d="M 3291 997 
Q 3169 466 2822 187 
Q 2475 -91 1925 -91 
Q 1200 -91 759 389 
Q 319 869 319 1663 
Q 319 2459 759 2936 
Q 1200 3413 1925 3413 
Q 2241 3413 2553 3339 
Q 2866 3266 3181 3116 
L 3181 2266 
L 2847 2266 
Q 2781 2703 2561 2903 
Q 2341 3103 1931 3103 
Q 1466 3103 1228 2742 
Q 991 2381 991 1663 
Q 991 944 1227 581 
Q 1463 219 1931 219 
Q 2303 219 2525 412 
Q 2747 606 2828 997 
L 3291 997 
z
" transform="scale(0.015625)"/>
      <path id="DejaVuSerif-57" d="M 691 2988 
L 184 2988 
L 184 3322 
L 691 3322 
L 691 4353 
L 1269 4353 
L 1269 3322 
L 2350 3322 
L 2350 2988 
L 1269 2988 
L 1269 878 
Q 1269 456 1350 337 
Q 1431 219 1650 219 
Q 1875 219 1978 351 
Q 2081 484 2088 781 
L 2522 781 
Q 2497 328 2275 118 
Q 2053 -91 1600 -91 
Q 1103 -91 897 129 
Q 691 350 691 878 
L 691 2988 
z
" transform="scale(0.015625)"/>
      <path id="DejaVuSerif-52" d="M 1925 219 
Q 2388 219 2623 584 
Q 2859 950 2859 1663 
Q 2859 2375 2623 2739 
Q 2388 3103 1925 3103 
Q 1463 3103 1227 2739 
Q 991 2375 991 1663 
Q 991 950 1228 584 
Q 1466 219 1925 219 
z
M 1925 -91 
Q 1200 -91 759 389 
Q 319 869 319 1663 
Q 319 2456 758 2934 
Q 1197 3413 1925 3413 
Q 2653 3413 3092 2934 
Q 3531 2456 3531 1663 
Q 3531 869 3092 389 
Q 2653 -91 1925 -91 
z
" transform="scale(0.015625)"/>
      <path id="DejaVuSerif-47" d="M 3359 331 
L 3909 331 
L 3909 0 
L 2784 0 
L 2784 519 
Q 2616 206 2355 57 
Q 2094 -91 1709 -91 
Q 1097 -91 708 395 
Q 319 881 319 1663 
Q 319 2444 706 2928 
Q 1094 3413 1709 3413 
Q 2094 3413 2355 3264 
Q 2616 3116 2784 2803 
L 2784 4531 
L 2241 4531 
L 2241 4863 
L 3359 4863 
L 3359 331 
z
M 2784 1497 
L 2784 1825 
Q 2784 2422 2554 2737 
Q 2325 3053 1888 3053 
Q 1444 3053 1217 2703 
Q 991 2353 991 1663 
Q 991 975 1217 622 
Q 1444 269 1888 269 
Q 2325 269 2554 583 
Q 2784 897 2784 1497 
z
" transform="scale(0.015625)"/>
      <path id="DejaVuSerif-53" d="M 1313 1825 
L 1313 1497 
Q 1313 897 1542 583 
Q 1772 269 2209 269 
Q 2650 269 2876 622 
Q 3103 975 3103 1663 
Q 3103 2353 2876 2703 
Q 2650 3053 2209 3053 
Q 1772 3053 1542 2737 
Q 1313 2422 1313 1825 
z
M 738 2988 
L 184 2988 
L 184 3322 
L 1313 3322 
L 1313 2803 
Q 1481 3116 1742 3264 
Q 2003 3413 2388 3413 
Q 3000 3413 3387 2928 
Q 3775 2444 3775 1663 
Q 3775 881 3387 395 
Q 3000 -91 2388 -91 
Q 2003 -91 1742 57 
Q 1481 206 1313 519 
L 1313 -997 
L 1856 -997 
L 1856 -1331 
L 184 -1331 
L 184 -997 
L 738 -997 
L 738 2988 
z
" transform="scale(0.015625)"/>
      <path id="DejaVuSerif-30d" d="M 4350 0 
L 244 0 
L 2034 4666 
L 2559 4666 
L 4350 0 
z
M 3506 331 
L 2138 3909 
L 763 331 
L 3506 331 
z
" transform="scale(0.015625)"/>
      <path id="DejaVuSerif-Italic-50" d="M 3503 2675 
Q 3741 3041 4034 3227 
Q 4328 3413 4672 3413 
Q 5194 3413 5388 3088 
Q 5503 2894 5503 2578 
Q 5503 2372 5453 2113 
L 5106 331 
L 5625 331 
L 5563 0 
L 4469 0 
L 4866 2047 
Q 4913 2291 4913 2466 
Q 4913 2659 4856 2772 
Q 4750 2988 4403 2988 
Q 4019 2988 3761 2697 
Q 3503 2406 3394 1850 
L 3034 0 
L 2459 0 
L 2863 2069 
Q 2906 2303 2906 2472 
Q 2906 2666 2850 2775 
Q 2741 2988 2394 2988 
Q 2009 2988 1751 2697 
Q 1494 2406 1384 1850 
L 1025 0 
L 450 0 
L 1031 2994 
L 481 2994 
L 544 3322 
L 1669 3322 
L 1556 2731 
Q 1778 3063 2059 3238 
Q 2341 3413 2653 3413 
Q 3041 3413 3262 3220 
Q 3484 3028 3503 2675 
z
" transform="scale(0.015625)"/>
      <path id="DejaVuSerif-1a" d="M 3609 4347 
L 1784 0 
L 1319 0 
L 3059 4153 
L 903 4153 
L 903 3578 
L 538 3578 
L 538 4666 
L 3609 4666 
L 3609 4347 
z
" transform="scale(0.015625)"/>
      <path id="DejaVuSerif-18" d="M 3219 4666 
L 3219 4153 
L 1081 4153 
L 1081 2816 
Q 1244 2928 1461 2984 
Q 1678 3041 1947 3041 
Q 2703 3041 3140 2622 
Q 3578 2203 3578 1478 
Q 3578 738 3136 323 
Q 2694 -91 1894 -91 
Q 1572 -91 1234 -12 
Q 897 66 544 225 
L 544 1131 
L 897 1131 
Q 925 688 1179 453 
Q 1434 219 1894 219 
Q 2388 219 2653 544 
Q 2919 869 2919 1478 
Q 2919 2084 2655 2407 
Q 2391 2731 1894 2731 
Q 1613 2731 1398 2631 
Q 1184 2531 1019 2322 
L 750 2322 
L 750 4666 
L 3219 4666 
z
" transform="scale(0.015625)"/>
      <path id="DejaVuSerif-99" d="M 4481 3450 
L 3034 2003 
L 4481 563 
L 4122 213 
L 2681 1650 
L 1241 213 
L 884 563 
L 2322 2003 
L 884 3450 
L 1241 3803 
L 2681 2363 
L 4122 3803 
L 4481 3450 
z
" transform="scale(0.015625)"/>
      <path id="DejaVuSerif-f" d="M 231 -622 
Q 525 -406 662 -114 
Q 800 178 800 594 
L 800 709 
L 1416 709 
Q 1391 175 1164 -208 
Q 938 -591 481 -872 
L 231 -622 
z
" transform="scale(0.015625)"/>
     </defs>
     <use xlink:href="#DejaVuSerif-35" transform="translate(0 0.523438)"/>
     <use xlink:href="#DejaVuSerif-48" transform="translate(75.292969 0.523438)"/>
     <use xlink:href="#DejaVuSerif-44" transform="translate(134.472656 0.523438)"/>
     <use xlink:href="#DejaVuSerif-46" transform="translate(194.091797 0.523438)"/>
     <use xlink:href="#DejaVuSerif-57" transform="translate(250.097656 0.523438)"/>
     <use xlink:href="#DejaVuSerif-52" transform="translate(290.283203 0.523438)"/>
     <use xlink:href="#DejaVuSerif-55" transform="translate(350.488281 0.523438)"/>
     <use xlink:href="#DejaVuSerif-3" transform="translate(398.291016 0.523438)"/>
     <use xlink:href="#DejaVuSerif-2b1" transform="translate(487.453125 -2.351562)"/>
     <use xlink:href="#DejaVuSerif-Italic-335" transform="translate(430.078125 0.523438)"/>
     <use xlink:href="#DejaVuSerif-Italic-48" transform="translate(491.777466 -14.476514) scale(0.7)"/>
     <use xlink:href="#DejaVuSerif-3" transform="translate(535.798462 0.523438)"/>
     <use xlink:href="#DejaVuSerif-47" transform="translate(567.585571 0.523438)"/>
     <use xlink:href="#DejaVuSerif-4c" transform="translate(631.599243 0.523438)"/>
     <use xlink:href="#DejaVuSerif-56" transform="translate(663.581665 0.523438)"/>
     <use xlink:href="#DejaVuSerif-44" transform="translate(714.900024 0.523438)"/>
     <use xlink:href="#DejaVuSerif-53" transform="translate(774.519165 0.523438)"/>
     <use xlink:href="#DejaVuSerif-53" transform="translate(838.532837 0.523438)"/>
     <use xlink:href="#DejaVuSerif-48" transform="translate(902.546509 0.523438)"/>
     <use xlink:href="#DejaVuSerif-44" transform="translate(961.726196 0.523438)"/>
     <use xlink:href="#DejaVuSerif-55" transform="translate(1021.345337 0.523438)"/>
     <use xlink:href="#DejaVuSerif-44" transform="translate(1069.148071 0.523438)"/>
     <use xlink:href="#DejaVuSerif-51" transform="translate(1128.767212 0.523438)"/>
     <use xlink:href="#DejaVuSerif-46" transform="translate(1193.171509 0.523438)"/>
     <use xlink:href="#DejaVuSerif-48" transform="translate(1249.177368 0.523438)"/>
     <use xlink:href="#DejaVuSerif-3" transform="translate(1308.357056 0.523438)"/>
     <use xlink:href="#DejaVuSerif-3" transform="translate(1340.144165 0.523438)"/>
     <use xlink:href="#DejaVuSerif-b" transform="translate(1371.931274 0.523438)"/>
     <use xlink:href="#DejaVuSerif-30d" transform="translate(1410.944946 0.523438)"/>
     <use xlink:href="#DejaVuSerif-Italic-50" transform="translate(1483.161743 0.523438)"/>
     <use xlink:href="#DejaVuSerif-15" transform="translate(1582.424149 42.046875) scale(0.7)"/>
     <use xlink:href="#DejaVuSerif-15" transform="translate(1577.985962 -34.90625) scale(0.7)"/>
     <use xlink:href="#DejaVuSerif-14" transform="translate(1622.522095 -34.90625) scale(0.7)"/>
     <use xlink:href="#DejaVuSerif-20" transform="translate(1688.618286 0.523438)"/>
     <use xlink:href="#DejaVuSerif-1a" transform="translate(1791.372192 0.523438)"/>
     <use xlink:href="#DejaVuSerif-11" transform="translate(1854.995239 0.523438)"/>
     <use xlink:href="#DejaVuSerif-18" transform="translate(1886.782349 0.523438)"/>
     <use xlink:href="#DejaVuSerif-99" transform="translate(1969.370239 0.523438)"/>
     <use xlink:href="#DejaVuSerif-14" transform="translate(2072.124146 0.523438)"/>
     <use xlink:href="#DejaVuSerif-13" transform="translate(2135.747192 0.523438)"/>
     <use xlink:href="#DejaVuSerif-8cf" transform="translate(2200.278564 41.823437) scale(0.7)"/>
     <use xlink:href="#DejaVuSerif-18" transform="translate(2258.930908 41.823437) scale(0.7)"/>
     <use xlink:href="#DejaVuSerif-48" transform="translate(2321.866608 0.523438)"/>
     <use xlink:href="#DejaVuSerif-39" transform="translate(2381.046296 0.523438)"/>
     <use xlink:href="#DejaVuSerif-15" transform="translate(2454.171418 41.823437) scale(0.7)"/>
     <use xlink:href="#DejaVuSerif-f" transform="translate(2501.302766 0.523438)"/>
     <use xlink:href="#DejaVuSerif-3" transform="translate(2533.089875 0.523438)"/>
     <use xlink:href="#DejaVuSerif-56" transform="translate(2564.876984 0.523438)"/>
     <use xlink:href="#DejaVuSerif-4c" transform="translate(2616.195344 0.523438)"/>
     <use xlink:href="#DejaVuSerif-51" transform="translate(2648.177766 0.523438)"/>
     <use xlink:href="#DejaVuSerif-15" transform="translate(2713.490388 41.823437) scale(0.7)"/>
     <use xlink:href="#DejaVuSerif-15" transform="translate(2776.426088 0.523438)"/>
     <use xlink:href="#DejaVuSerif-Italic-330" transform="translate(2840.049135 0.523438)"/>
     <use xlink:href="#DejaVuSerif-14" transform="translate(2900.254213 -14.476514) scale(0.7)"/>
     <use xlink:href="#DejaVuSerif-15" transform="translate(2944.790346 -14.476514) scale(0.7)"/>
     <use xlink:href="#DejaVuSerif-20" transform="translate(3010.886537 0.523438)"/>
     <use xlink:href="#DejaVuSerif-13" transform="translate(3113.640443 0.523438)"/>
     <use xlink:href="#DejaVuSerif-11" transform="translate(3177.26349 0.523438)"/>
     <use xlink:href="#DejaVuSerif-1b" transform="translate(3209.0506 0.523438)"/>
     <use xlink:href="#DejaVuSerif-18" transform="translate(3272.673646 0.523438)"/>
     <use xlink:href="#DejaVuSerif-c" transform="translate(3336.296693 0.523438)"/>
    </g>
   </g>
   <g id="legend_1">
    <g id="line2d_28">
     <path d="M 303.001875 234.317891 
L 312.001875 234.317891 
L 321.001875 234.317891 
" style="fill: none; stroke: #c0392b; stroke-width: 2.2; stroke-linecap: square"/>
    </g>
    <g id="text_17">
     <!-- two-flavour prediction (with resolution damping) -->
     <g transform="translate(328.201875 237.467891) scale(0.09 -0.09)">
      <defs>
       <path id="DejaVuSerif-5a" d="M 3072 3322 
L 3922 728 
L 4672 2988 
L 4191 2988 
L 4191 3322 
L 5394 3322 
L 5394 2988 
L 5025 2988 
L 4038 0 
L 3559 0 
L 2741 2484 
L 1919 0 
L 1459 0 
L 475 2988 
L 103 2988 
L 103 3322 
L 1606 3322 
L 1606 2988 
L 1069 2988 
L 1813 728 
L 2669 3322 
L 3072 3322 
z
" transform="scale(0.015625)"/>
       <path id="DejaVuSerif-10" d="M 281 1959 
L 1881 1959 
L 1881 1472 
L 281 1472 
L 281 1959 
z
" transform="scale(0.015625)"/>
       <path id="DejaVuSerif-cf1" d="M 2291 4863 
L 3531 4863 
L 3531 331 
L 4078 331 
L 4078 0 
L 2406 0 
L 2406 331 
L 2956 331 
L 2956 4531 
L 2284 4531 
Q 1775 4531 1565 4328 
Q 1356 4125 1356 3634 
L 1356 3322 
L 2278 3322 
L 2278 2988 
L 1356 2988 
L 1356 331 
L 1900 331 
L 1900 0 
L 231 0 
L 231 331 
L 781 331 
L 781 2988 
L 231 2988 
L 231 3322 
L 781 3322 
L 781 3622 
Q 781 4250 1154 4556 
Q 1528 4863 2291 4863 
z
" transform="scale(0.015625)"/>
       <path id="DejaVuSerif-4b" d="M 263 0 
L 263 331 
L 781 331 
L 781 4531 
L 231 4531 
L 231 4863 
L 1356 4863 
L 1356 2731 
Q 1516 3069 1770 3241 
Q 2025 3413 2363 3413 
Q 2913 3413 3172 3097 
Q 3431 2781 3431 2113 
L 3431 331 
L 3944 331 
L 3944 0 
L 2356 0 
L 2356 331 
L 2853 331 
L 2853 1931 
Q 2853 2541 2704 2764 
Q 2556 2988 2175 2988 
Q 1775 2988 1565 2697 
Q 1356 2406 1356 1850 
L 1356 331 
L 1856 331 
L 1856 0 
L 263 0 
z
" transform="scale(0.015625)"/>
      </defs>
      <use xlink:href="#DejaVuSerif-57"/>
      <use xlink:href="#DejaVuSerif-5a" transform="translate(40.1875 0)"/>
      <use xlink:href="#DejaVuSerif-52" transform="translate(125.78125 0)"/>
      <use xlink:href="#DejaVuSerif-10" transform="translate(185.984375 0)"/>
      <use xlink:href="#DejaVuSerif-cf1" transform="translate(219.78125 0)"/>
      <use xlink:href="#DejaVuSerif-44" transform="translate(286.484375 0)"/>
      <use xlink:href="#DejaVuSerif-59" transform="translate(346.109375 0)"/>
      <use xlink:href="#DejaVuSerif-52" transform="translate(402.609375 0)"/>
      <use xlink:href="#DejaVuSerif-58" transform="translate(462.8125 0)"/>
      <use xlink:href="#DejaVuSerif-55" transform="translate(527.21875 0)"/>
      <use xlink:href="#DejaVuSerif-3" transform="translate(575.015625 0)"/>
      <use xlink:href="#DejaVuSerif-53" transform="translate(606.796875 0)"/>
      <use xlink:href="#DejaVuSerif-55" transform="translate(670.8125 0)"/>
      <use xlink:href="#DejaVuSerif-48" transform="translate(718.609375 0)"/>
      <use xlink:href="#DejaVuSerif-47" transform="translate(777.796875 0)"/>
      <use xlink:href="#DejaVuSerif-4c" transform="translate(841.8125 0)"/>
      <use xlink:href="#DejaVuSerif-46" transform="translate(873.796875 0)"/>
      <use xlink:href="#DejaVuSerif-57" transform="translate(929.796875 0)"/>
      <use xlink:href="#DejaVuSerif-4c" transform="translate(969.984375 0)"/>
      <use xlink:href="#DejaVuSerif-52" transform="translate(1001.96875 0)"/>
      <use xlink:href="#DejaVuSerif-51" transform="translate(1062.171875 0)"/>
      <use xlink:href="#DejaVuSerif-3" transform="translate(1126.578125 0)"/>
      <use xlink:href="#DejaVuSerif-b" transform="translate(1158.359375 0)"/>
      <use xlink:href="#DejaVuSerif-5a" transform="translate(1197.375 0)"/>
      <use xlink:href="#DejaVuSerif-4c" transform="translate(1282.96875 0)"/>
      <use xlink:href="#DejaVuSerif-57" transform="translate(1314.953125 0)"/>
      <use xlink:href="#DejaVuSerif-4b" transform="translate(1355.140625 0)"/>
      <use xlink:href="#DejaVuSerif-3" transform="translate(1419.546875 0)"/>
      <use xlink:href="#DejaVuSerif-55" transform="translate(1451.328125 0)"/>
      <use xlink:href="#DejaVuSerif-48" transform="translate(1499.125 0)"/>
      <use xlink:href="#DejaVuSerif-56" transform="translate(1558.3125 0)"/>
      <use xlink:href="#DejaVuSerif-52" transform="translate(1609.625 0)"/>
      <use xlink:href="#DejaVuSerif-4f" transform="translate(1669.828125 0)"/>
      <use xlink:href="#DejaVuSerif-58" transform="translate(1701.8125 0)"/>
      <use xlink:href="#DejaVuSerif-57" transform="translate(1766.21875 0)"/>
      <use xlink:href="#DejaVuSerif-4c" transform="translate(1806.40625 0)"/>
      <use xlink:href="#DejaVuSerif-52" transform="translate(1838.390625 0)"/>
      <use xlink:href="#DejaVuSerif-51" transform="translate(1898.59375 0)"/>
      <use xlink:href="#DejaVuSerif-3" transform="translate(1963 0)"/>
      <use xlink:href="#DejaVuSerif-47" transform="translate(1994.78125 0)"/>
      <use xlink:href="#DejaVuSerif-44" transform="translate(2058.796875 0)"/>
      <use xlink:href="#DejaVuSerif-50" transform="translate(2118.421875 0)"/>
      <use xlink:href="#DejaVuSerif-53" transform="translate(2213.25 0)"/>
      <use xlink:href="#DejaVuSerif-4c" transform="translate(2277.265625 0)"/>
      <use xlink:href="#DejaVuSerif-51" transform="translate(2309.25 0)"/>
      <use xlink:href="#DejaVuSerif-4a" transform="translate(2373.65625 0)"/>
      <use xlink:href="#DejaVuSerif-c" transform="translate(2437.671875 0)"/>
     </g>
    </g>
   </g>
  </g>
 </g>
 <defs>
  <clipPath id="pfd0aaa541a">
   <rect x="49.286563" y="24.01" width="509.917187" height="223.72"/>
  </clipPath>
 </defs>
</svg>
