<?xml version="1.0" encoding="utf-8" standalone="no"?>
<!DOCTYPE svg PUBLIC "-//W3C//DTD SVG 1.1//EN"
  "http://www.w3.org/Graphics/SVG/1.1/DTD/svg11.dtd">
<svg xmlns:xlink="http://www.w3.org/1999/xlink" width="626.695273pt" height="314.895273pt" viewBox="0 0 626.695273 314.895273" xmlns="http://www.w3.org/2000/svg" version="1.1">
 <metadata>
  <rdf:RDF xmlns:dc="http://purl.org/dc/elements/1.1/" xmlns:cc="http://creativecommons.org/ns#" xmlns:rdf="http://www.w3.org/1999/02/22-rdf-syntax-ns#">
   <cc:Work>
    <dc:type rdf:resource="http://purl.org/dc/dcmitype/StillImage"/>
    <dc:date>2026-06-26T14:58:07.490041</dc:date>
    <dc:format>image/svg+xml</dc:format>
    <dc:creator>
     <cc:Agent>
      <dc:title>Matplotlib v3.11.0, https://matplotlib.org/</dc:title>
     </cc:Agent>
    </dc:creator>
   </cc:Work>
  </rdf:RDF>
 </metadata>
 <defs>
  <style type="text/css">*{stroke-linejoin: round; stroke-linecap: butt}</style>
 </defs>
 <g id="figure_1">
  <g id="patch_1">
   <path d="M 0 314.895273 
L 626.695273 314.895273 
L 626.695273 0 
L 0 0 
L 0 314.895273 
z
" style="fill: none"/>
  </g>
  <g id="patch_2">
   <path d="M 7.2 307.695273 
L 293.695273 307.695273 
L 293.695273 21.2 
L 7.2 21.2 
L 7.2 307.695273 
z
" style="fill: none"/>
  </g>
  <g id="axes_1">
   <g id="line2d_1">
    <path d="M 164.88877 202.248351 
L 163.653373 200.783625 
L 162.106115 199.483842 
L 160.270556 198.366898 
L 158.174098 197.447969 
L 155.847552 196.739353 
L 153.324679 196.250352 
L 150.641706 195.987194 
L 147.836835 195.952996 
L 144.949739 196.147754 
L 142.021051 196.568375 
L 139.091858 197.20873 
L 136.203191 198.059748 
L 133.395522 199.109532 
L 130.708267 200.343502 
L 128.179298 201.744566 
L 125.844462 203.293323 
L 123.737122 204.968283 
L 121.887707 206.746125 
L 120.323289 208.601967 
L 119.067182 210.509675 
L 118.138581 212.442187 
L 117.552227 214.371867 
L 117.318132 216.27087 
L 117.441347 218.111533 
L 117.921796 219.866775 
L 118.754178 221.510501 
L 119.927943 223.018009 
L 121.427353 224.366398 
L 123.23163 225.534945 
L 125.315189 226.505477 
L 127.647972 227.262697 
L 130.195855 227.794478 
L 132.921158 228.092104 
L 135.783221 228.150457 
L 138.739047 227.968133 
L 141.744008 227.547506 
L 144.752584 226.894701 
L 147.719129 226.019513 
L 150.598643 224.935247 
" clip-path="url(#pc423df76a9)" style="fill: none; stroke: #2f6d78; stroke-width: 2; stroke-linecap: square"/>
   </g>
   <g id="patch_3">
    <path d="M 39.139219 248.282472 
Q 77.332906 224.770636 114.47929 201.903516 
" clip-path="url(#pc423df76a9)" style="fill: none; stroke: #9aa0a6; stroke-width: 1.1; stroke-linecap: round"/>
    <path d="M 108.242615 202.454769 
L 114.47929 201.903516 
L 111.178287 207.223608 
z
" clip-path="url(#pc423df76a9)" style="fill: #9aa0a6; stroke: #9aa0a6; stroke-width: 1.1; stroke-linecap: round"/>
   </g>
   <g id="Poly3DCollection_1">
    <defs>
     <path id="m64eed1dece" d="M 37.437082 -65.564974 
L 156.306594 -65.549265 
L 244.869859 -139.994725 
L 128.419063 -138.047239 
z
" style="stroke: #2f6d78; stroke-opacity: 0.22; stroke-width: 1.2"/>
    </defs>
    <g clip-path="url(#pc423df76a9)">
     <use xlink:href="#m64eed1dece" x="0" y="314.895273" style="fill: #2f6d78; fill-opacity: 0.22; stroke: #2f6d78; stroke-opacity: 0.22; stroke-width: 1.2"/>
    </g>
   </g>
   <g id="text_1">
    <!-- x -->
    <g style="fill: #80868b" transform="translate(168.861184 286.064256) scale(0.11 -0.11)">
     <defs>
      <path id="DejaVuSans-5b" d="M 3513 3500 
L 2247 1797 
L 3578 0 
L 2900 0 
L 1881 1375 
L 863 0 
L 184 0 
L 1544 1831 
L 300 3500 
L 978 3500 
L 1906 2253 
L 2834 3500 
L 3513 3500 
z
" transform="scale(0.015625)"/>
     </defs>
     <use xlink:href="#DejaVuSans-5b"/>
    </g>
   </g>
   <g id="text_2">
    <!-- y -->
    <g style="fill: #80868b" transform="translate(121.670676 197.476536) scale(0.11 -0.11)">
     <defs>
      <path id="DejaVuSans-5c" d="M 2059 -325 
Q 1816 -950 1584 -1140 
Q 1353 -1331 966 -1331 
L 506 -1331 
L 506 -850 
L 844 -850 
Q 1081 -850 1212 -737 
Q 1344 -625 1503 -206 
L 1606 56 
L 191 3500 
L 800 3500 
L 1894 763 
L 2988 3500 
L 3597 3500 
L 2059 -325 
z
" transform="scale(0.015625)"/>
     </defs>
     <use xlink:href="#DejaVuSans-5c"/>
    </g>
   </g>
   <g id="text_3">
    <!-- z -->
    <g style="fill: #80868b" transform="translate(32.910421 104.32244) scale(0.11 -0.11)">
     <defs>
      <path id="DejaVuSans-5d" d="M 353 3500 
L 3084 3500 
L 3084 2975 
L 922 459 
L 3084 459 
L 3084 0 
L 275 0 
L 275 525 
L 2438 3041 
L 353 3041 
L 353 3500 
z
" transform="scale(0.015625)"/>
     </defs>
     <use xlink:href="#DejaVuSans-5d"/>
    </g>
   </g>
   <g id="text_4">
    <!-- u -->
    <g style="fill: #333333" transform="translate(164.879352 249.34714) scale(0.13 -0.13)">
     <defs>
      <path id="DejaVuSans-Bold-58" d="M 500 1363 
L 500 3500 
L 1625 3500 
L 1625 3150 
Q 1625 2866 1622 2436 
Q 1619 2006 1619 1863 
Q 1619 1441 1641 1255 
Q 1663 1069 1716 984 
Q 1784 875 1895 815 
Q 2006 756 2150 756 
Q 2500 756 2700 1025 
Q 2900 1294 2900 1772 
L 2900 3500 
L 4019 3500 
L 4019 0 
L 2900 0 
L 2900 506 
Q 2647 200 2364 54 
Q 2081 -91 1741 -91 
Q 1134 -91 817 281 
Q 500 653 500 1363 
z
" transform="scale(0.015625)"/>
     </defs>
     <use xlink:href="#DejaVuSans-Bold-58"/>
    </g>
   </g>
   <g id="text_5">
    <!-- v -->
    <g style="fill: #333333" transform="translate(134.516056 171.990766) scale(0.13 -0.13)">
     <defs>
      <path id="DejaVuSans-Bold-59" d="M 97 3500 
L 1216 3500 
L 2088 1081 
L 2956 3500 
L 4078 3500 
L 2700 0 
L 1472 0 
L 97 3500 
z
" transform="scale(0.015625)"/>
     </defs>
     <use xlink:href="#DejaVuSans-Bold-59"/>
    </g>
   </g>
   <g id="text_6">
    <!-- u ∧ v -->
    <g style="fill: #2f6d78" transform="translate(130.343418 17.836719) scale(0.14 -0.14)">
     <defs>
      <path id="DejaVuSans-Bold-3" transform="scale(0.015625)"/>
      <path id="DejaVuSans-Bold-cb1" d="M 966 0 
L 1981 3706 
L 3209 3706 
L 4231 0 
L 3109 0 
L 2597 2419 
L 2084 0 
L 966 0 
z
" transform="scale(0.015625)"/>
     </defs>
     <use xlink:href="#DejaVuSans-Bold-58"/>
     <use xlink:href="#DejaVuSans-Bold-3" transform="translate(71.1875 0)"/>
     <use xlink:href="#DejaVuSans-Bold-cb1" transform="translate(106 0)"/>
     <use xlink:href="#DejaVuSans-Bold-3" transform="translate(187.203125 0)"/>
     <use xlink:href="#DejaVuSans-Bold-59" transform="translate(222.015625 0)"/>
    </g>
   </g>
   <g id="patch_4">
    <path d="M 39.000279 248.084952 
Q 82.927857 213.089337 124.931627 179.626356 
" clip-path="url(#pc423df76a9)" style="fill: none; stroke: #333333; stroke-width: 2.2; stroke-linecap: round"/>
    <path d="M 118.806957 180.925747 
L 124.931627 179.626356 
L 122.296339 185.305727 
z
" clip-path="url(#pc423df76a9)" style="fill: #333333; stroke: #333333; stroke-width: 2.2; stroke-linecap: round"/>
   </g>
   <g id="patch_5">
    <path d="M 152.486226 224.302576 
Q 153.292559 224.032313 152.19076 224.401608 
" clip-path="url(#pc423df76a9)" style="fill: none; stroke: #2f6d78; stroke-width: 1.8; stroke-linecap: round"/>
    <path d="M 145.991238 223.526441 
L 152.19076 224.401608 
L 147.770912 228.836126 
z
" clip-path="url(#pc423df76a9)" style="fill: #2f6d78; stroke: #2f6d78; stroke-width: 1.8; stroke-linecap: round"/>
   </g>
   <g id="patch_6">
    <path d="M 39.435895 249.330563 
Q 96.87081 249.338153 151.846051 249.345418 
" clip-path="url(#pc423df76a9)" style="fill: none; stroke: #333333; stroke-width: 2.2; stroke-linecap: round"/>
    <path d="M 146.246421 246.544678 
L 151.846051 249.345418 
L 146.245681 252.144678 
z
" clip-path="url(#pc423df76a9)" style="fill: #333333; stroke: #333333; stroke-width: 2.2; stroke-linecap: round"/>
   </g>
   <g id="patch_7">
    <path d="M 37.374793 247.334943 
Q 35.306592 181.081817 33.276764 116.057929 
" clip-path="url(#pc423df76a9)" style="fill: none; stroke: #9aa0a6; stroke-width: 1.1; stroke-linecap: round"/>
    <path d="M 30.652855 121.742567 
L 33.276764 116.057929 
L 36.250129 121.567839 
z
" clip-path="url(#pc423df76a9)" style="fill: #9aa0a6; stroke: #9aa0a6; stroke-width: 1.1; stroke-linecap: round"/>
   </g>
   <g id="patch_8">
    <path d="M 39.364953 249.869152 
Q 99.249862 266.607404 157.95033 283.014596 
" clip-path="url(#pc423df76a9)" style="fill: none; stroke: #9aa0a6; stroke-width: 1.1; stroke-linecap: round"/>
    <path d="M 153.310773 278.81049 
L 157.95033 283.014596 
L 151.803311 284.203778 
z
" clip-path="url(#pc423df76a9)" style="fill: #9aa0a6; stroke: #9aa0a6; stroke-width: 1.1; stroke-linecap: round"/>
   </g>
  </g>
  <g id="patch_9">
   <path d="M 333 307.695273 
L 619.495273 307.695273 
L 619.495273 21.2 
L 333 21.2 
L 333 307.695273 
z
" style="fill: none"/>
  </g>
  <g id="axes_2">
   <g id="line2d_2">
    <path d="M 476.398643 224.935247 
L 473.519129 226.019513 
L 470.552584 226.894701 
L 467.544008 227.547506 
L 464.539047 227.968133 
L 461.583221 228.150457 
L 458.721158 228.092104 
L 455.995855 227.794478 
L 453.447972 227.262697 
L 451.115189 226.505477 
L 449.03163 225.534945 
L 447.227353 224.366398 
L 445.727943 223.018009 
L 444.554178 221.510501 
L 443.721796 219.866775 
L 443.241347 218.111533 
L 443.118132 216.27087 
L 443.352227 214.371867 
L 443.938581 212.442187 
L 444.867182 210.509675 
L 446.123289 208.601967 
L 447.687707 206.746125 
L 449.537122 204.968283 
L 451.644462 203.293323 
L 453.979298 201.744566 
L 456.508267 200.343502 
L 459.195522 199.109532 
L 462.003191 198.059748 
L 464.891858 197.20873 
L 467.821051 196.568375 
L 470.749739 196.147754 
L 473.636835 195.952996 
L 476.441706 195.987194 
L 479.124679 196.250352 
L 481.647552 196.739353 
L 483.974098 197.447969 
L 486.070556 198.366898 
L 487.906115 199.483842 
L 489.453373 200.783625 
L 490.68877 202.248351 
" clip-path="url(#p07bc6ae245)" style="fill: none; stroke: #e52e71; stroke-width: 2; stroke-linecap: square"/>
   </g>
   <g id="Poly3DCollection_2">
    <defs>
     <path id="m9b35bb6b51" d="M 363.237082 -65.564974 
L 482.106594 -65.549265 
L 570.669859 -139.994725 
L 454.219063 -138.047239 
z
" style="stroke: #e52e71; stroke-opacity: 0.22; stroke-width: 1.2"/>
    </defs>
    <g clip-path="url(#p07bc6ae245)">
     <use xlink:href="#m9b35bb6b51" x="0" y="314.895273" style="fill: #e52e71; fill-opacity: 0.22; stroke: #e52e71; stroke-opacity: 0.22; stroke-width: 1.2"/>
    </g>
   </g>
   <g id="patch_10">
    <path d="M 492.104849 203.655198 
Q 492.234285 203.783789 490.936048 202.494017 
" clip-path="url(#p07bc6ae245)" style="fill: none; stroke: #e52e71; stroke-width: 1.8; stroke-linecap: round"/>
    <path d="M 488.936731 196.560828 
L 490.936048 202.494017 
L 484.989906 200.533557 
z
" clip-path="url(#p07bc6ae245)" style="fill: #e52e71; stroke: #e52e71; stroke-width: 1.8; stroke-linecap: round"/>
   </g>
   <g id="text_7">
    <!-- x -->
    <g style="fill: #80868b" transform="translate(494.661184 286.064256) scale(0.11 -0.11)">
     <use xlink:href="#DejaVuSans-5b"/>
    </g>
   </g>
   <g id="text_8">
    <!-- y -->
    <g style="fill: #80868b" transform="translate(447.470676 197.476536) scale(0.11 -0.11)">
     <use xlink:href="#DejaVuSans-5c"/>
    </g>
   </g>
   <g id="text_9">
    <!-- z -->
    <g style="fill: #80868b" transform="translate(358.710421 104.32244) scale(0.11 -0.11)">
     <use xlink:href="#DejaVuSans-5d"/>
    </g>
   </g>
   <g id="text_10">
    <!-- u -->
    <g style="fill: #333333" transform="translate(490.679352 249.34714) scale(0.13 -0.13)">
     <use xlink:href="#DejaVuSans-Bold-58"/>
    </g>
   </g>
   <g id="text_11">
    <!-- v -->
    <g style="fill: #333333" transform="translate(460.316056 171.990766) scale(0.13 -0.13)">
     <use xlink:href="#DejaVuSans-Bold-59"/>
    </g>
   </g>
   <g id="text_12">
    <!-- v ∧ u  =  − u ∧ v -->
    <g style="fill: #e52e71" transform="translate(412.123261 17.836719) scale(0.14 -0.14)">
     <defs>
      <path id="DejaVuSans-Bold-20" d="M 678 3084 
L 4684 3084 
L 4684 2350 
L 678 2350 
L 678 3084 
z
M 678 1663 
L 4684 1663 
L 4684 922 
L 678 922 
L 678 1663 
z
" transform="scale(0.015625)"/>
      <path id="DejaVuSans-Bold-c9c" d="M 678 2375 
L 4684 2375 
L 4684 1638 
L 678 1638 
L 678 2375 
z
" transform="scale(0.015625)"/>
     </defs>
     <use xlink:href="#DejaVuSans-Bold-59"/>
     <use xlink:href="#DejaVuSans-Bold-3" transform="translate(65.1875 0)"/>
     <use xlink:href="#DejaVuSans-Bold-cb1" transform="translate(100 0)"/>
     <use xlink:href="#DejaVuSans-Bold-3" transform="translate(181.203125 0)"/>
     <use xlink:href="#DejaVuSans-Bold-58" transform="translate(216.015625 0)"/>
     <use xlink:href="#DejaVuSans-Bold-3" transform="translate(287.203125 0)"/>
     <use xlink:href="#DejaVuSans-Bold-3" transform="translate(322.015625 0)"/>
     <use xlink:href="#DejaVuSans-Bold-20" transform="translate(356.828125 0)"/>
     <use xlink:href="#DejaVuSans-Bold-3" transform="translate(440.625 0)"/>
     <use xlink:href="#DejaVuSans-Bold-3" transform="translate(475.4375 0)"/>
     <use xlink:href="#DejaVuSans-Bold-c9c" transform="translate(510.25 0)"/>
     <use xlink:href="#DejaVuSans-Bold-3" transform="translate(594.046875 0)"/>
     <use xlink:href="#DejaVuSans-Bold-58" transform="translate(628.859375 0)"/>
     <use xlink:href="#DejaVuSans-Bold-3" transform="translate(700.046875 0)"/>
     <use xlink:href="#DejaVuSans-Bold-cb1" transform="translate(734.859375 0)"/>
     <use xlink:href="#DejaVuSans-Bold-3" transform="translate(816.0625 0)"/>
     <use xlink:href="#DejaVuSans-Bold-59" transform="translate(850.875 0)"/>
    </g>
   </g>
   <g id="patch_11">
    <path d="M 364.939219 248.282472 
Q 403.132906 224.770636 440.27929 201.903516 
" clip-path="url(#p07bc6ae245)" style="fill: none; stroke: #9aa0a6; stroke-width: 1.1; stroke-linecap: round"/>
    <path d="M 434.042615 202.454769 
L 440.27929 201.903516 
L 436.978287 207.223608 
z
" clip-path="url(#p07bc6ae245)" style="fill: #9aa0a6; stroke: #9aa0a6; stroke-width: 1.1; stroke-linecap: round"/>
   </g>
   <g id="patch_12">
    <path d="M 364.800279 248.084952 
Q 408.727857 213.089337 450.731627 179.626356 
" clip-path="url(#p07bc6ae245)" style="fill: none; stroke: #333333; stroke-width: 2.2; stroke-linecap: round"/>
    <path d="M 444.606957 180.925747 
L 450.731627 179.626356 
L 448.096339 185.305727 
z
" clip-path="url(#p07bc6ae245)" style="fill: #333333; stroke: #333333; stroke-width: 2.2; stroke-linecap: round"/>
   </g>
   <g id="patch_13">
    <path d="M 365.235895 249.330563 
Q 422.67081 249.338153 477.646051 249.345418 
" clip-path="url(#p07bc6ae245)" style="fill: none; stroke: #333333; stroke-width: 2.2; stroke-linecap: round"/>
    <path d="M 472.046421 246.544678 
L 477.646051 249.345418 
L 472.045681 252.144678 
z
" clip-path="url(#p07bc6ae245)" style="fill: #333333; stroke: #333333; stroke-width: 2.2; stroke-linecap: round"/>
   </g>
   <g id="patch_14">
    <path d="M 363.174793 247.334943 
Q 361.106592 181.081817 359.076764 116.057929 
" clip-path="url(#p07bc6ae245)" style="fill: none; stroke: #9aa0a6; stroke-width: 1.1; stroke-linecap: round"/>
    <path d="M 356.452855 121.742567 
L 359.076764 116.057929 
L 362.050129 121.567839 
z
" clip-path="url(#p07bc6ae245)" style="fill: #9aa0a6; stroke: #9aa0a6; stroke-width: 1.1; stroke-linecap: round"/>
   </g>
   <g id="patch_15">
    <path d="M 365.164953 249.869152 
Q 425.049862 266.607404 483.75033 283.014596 
" clip-path="url(#p07bc6ae245)" style="fill: none; stroke: #9aa0a6; stroke-width: 1.1; stroke-linecap: round"/>
    <path d="M 479.110773 278.81049 
L 483.75033 283.014596 
L 477.603311 284.203778 
z
" clip-path="url(#p07bc6ae245)" style="fill: #9aa0a6; stroke: #9aa0a6; stroke-width: 1.1; stroke-linecap: round"/>
   </g>
  </g>
 </g>
 <defs>
  <clipPath id="pc423df76a9">
   <rect x="7.2" y="21.2" width="286.495273" height="286.495273"/>
  </clipPath>
  <clipPath id="p07bc6ae245">
   <rect x="333" y="21.2" width="286.495273" height="286.495273"/>
  </clipPath>
 </defs>
</svg>
