<?xml version="1.0" encoding="utf-8" standalone="no"?>
<!DOCTYPE svg PUBLIC "-//W3C//DTD SVG 1.1//EN"
  "http://www.w3.org/Graphics/SVG/1.1/DTD/svg11.dtd">
<svg xmlns:xlink="http://www.w3.org/1999/xlink" width="322.32pt" height="338.197969pt" viewBox="0 0 322.32 338.197969" xmlns="http://www.w3.org/2000/svg" version="1.1">
 <metadata>
  <rdf:RDF xmlns:dc="http://purl.org/dc/elements/1.1/" xmlns:cc="http://creativecommons.org/ns#" xmlns:rdf="http://www.w3.org/1999/02/22-rdf-syntax-ns#">
   <cc:Work>
    <dc:type rdf:resource="http://purl.org/dc/dcmitype/StillImage"/>
    <dc:date>2026-06-26T14:58:07.527186</dc:date>
    <dc:format>image/svg+xml</dc:format>
    <dc:creator>
     <cc:Agent>
      <dc:title>Matplotlib v3.11.0, https://matplotlib.org/</dc:title>
     </cc:Agent>
    </dc:creator>
   </cc:Work>
  </rdf:RDF>
 </metadata>
 <defs>
  <style type="text/css">*{stroke-linejoin: round; stroke-linecap: butt}</style>
 </defs>
 <g id="figure_1">
  <g id="patch_1">
   <path d="M 0 338.197969 
L 322.32 338.197969 
L 322.32 0 
L 0 0 
L 0 338.197969 
z
" style="fill: none"/>
  </g>
  <g id="patch_2">
   <path d="M 7.2 330.997969 
L 315.12 330.997969 
L 315.12 23.077969 
L 7.2 23.077969 
L 7.2 330.997969 
z
" style="fill: none"/>
  </g>
  <g id="axes_1">
   <g id="patch_3">
    <path d="M 39.868559 262.584374 
Q 89.197247 239.852962 137.408987 217.636257 
" clip-path="url(#p0eb668fd7d)" style="fill: none; stroke: #9aa0a6; stroke-width: 1.1; stroke-linecap: round"/>
    <path d="M 131.151169 217.436964 
L 137.408987 217.636257 
L 133.494862 222.522935 
z
" clip-path="url(#p0eb668fd7d)" style="fill: #9aa0a6; stroke: #9aa0a6; stroke-width: 1.1; stroke-linecap: round"/>
   </g>
   <g id="Poly3DCollection_1">
    <path d="M 128.386713 215.741817 
L 229.179516 228.198677 
L 265.196535 112.350146 
L 160.804416 104.05719 
z
" clip-path="url(#p0eb668fd7d)" style="fill: #9c7a3c; fill-opacity: 0.13; stroke: #9c7a3c; stroke-opacity: 0.13; stroke-width: 1.1"/>
    <path d="M 38.054896 263.420138 
L 128.386713 215.741817 
L 160.804416 104.05719 
L 69.845435 147.833431 
z
" clip-path="url(#p0eb668fd7d)" style="fill: #9c7a3c; fill-opacity: 0.13; stroke: #9c7a3c; stroke-opacity: 0.13; stroke-width: 1.1"/>
    <path d="M 38.054896 263.420138 
L 139.759111 278.385591 
L 229.179516 228.198677 
L 128.386713 215.741817 
z
" clip-path="url(#p0eb668fd7d)" style="fill: #9c7a3c; fill-opacity: 0.13; stroke: #9c7a3c; stroke-opacity: 0.13; stroke-width: 1.1"/>
    <path d="M 69.845435 147.833431 
L 175.312481 158.33826 
L 265.196535 112.350146 
L 160.804416 104.05719 
z
" clip-path="url(#p0eb668fd7d)" style="fill: #9c7a3c; fill-opacity: 0.13; stroke: #9c7a3c; stroke-opacity: 0.13; stroke-width: 1.1"/>
    <path d="M 139.759111 278.385591 
L 229.179516 228.198677 
L 265.196535 112.350146 
L 175.312481 158.33826 
z
" clip-path="url(#p0eb668fd7d)" style="fill: #9c7a3c; fill-opacity: 0.13; stroke: #9c7a3c; stroke-opacity: 0.13; stroke-width: 1.1"/>
    <path d="M 38.054896 263.420138 
L 139.759111 278.385591 
L 175.312481 158.33826 
L 69.845435 147.833431 
z
" clip-path="url(#p0eb668fd7d)" style="fill: #9c7a3c; fill-opacity: 0.13; stroke: #9c7a3c; stroke-opacity: 0.13; stroke-width: 1.1"/>
   </g>
   <g id="text_1">
    <!-- x -->
    <g style="fill: #80868b" transform="translate(174.953543 307.969866) scale(0.11 -0.11)">
     <defs>
      <path id="DejaVuSans-5b" d="M 3513 3500 
L 2247 1797 
L 3578 0 
L 2900 0 
L 1881 1375 
L 863 0 
L 184 0 
L 1544 1831 
L 300 3500 
L 978 3500 
L 1906 2253 
L 2834 3500 
L 3513 3500 
z
" transform="scale(0.015625)"/>
     </defs>
     <use xlink:href="#DejaVuSans-5b"/>
    </g>
   </g>
   <g id="text_2">
    <!-- y -->
    <g style="fill: #80868b" transform="translate(146.043008 213.657568) scale(0.11 -0.11)">
     <defs>
      <path id="DejaVuSans-5c" d="M 2059 -325 
Q 1816 -950 1584 -1140 
Q 1353 -1331 966 -1331 
L 506 -1331 
L 506 -850 
L 844 -850 
Q 1081 -850 1212 -737 
Q 1344 -625 1503 -206 
L 1606 56 
L 191 3500 
L 800 3500 
L 1894 763 
L 2988 3500 
L 3597 3500 
L 2059 -325 
z
" transform="scale(0.015625)"/>
     </defs>
     <use xlink:href="#DejaVuSans-5c"/>
    </g>
   </g>
   <g id="text_3">
    <!-- z -->
    <g style="fill: #80868b" transform="translate(33.364133 98.2066) scale(0.11 -0.11)">
     <defs>
      <path id="DejaVuSans-5d" d="M 353 3500 
L 3084 3500 
L 3084 2975 
L 922 459 
L 3084 459 
L 3084 0 
L 275 0 
L 275 525 
L 2438 3041 
L 353 3041 
L 353 3500 
z
" transform="scale(0.015625)"/>
     </defs>
     <use xlink:href="#DejaVuSans-5d"/>
    </g>
   </g>
   <g id="text_4">
    <!-- a -->
    <g style="fill: #333333" transform="translate(147.189469 279.478945) scale(0.13 -0.13)">
     <defs>
      <path id="DejaVuSans-Bold-44" d="M 2106 1575 
Q 1756 1575 1579 1456 
Q 1403 1338 1403 1106 
Q 1403 894 1545 773 
Q 1688 653 1941 653 
Q 2256 653 2472 879 
Q 2688 1106 2688 1447 
L 2688 1575 
L 2106 1575 
z
M 3816 1997 
L 3816 0 
L 2688 0 
L 2688 519 
Q 2463 200 2181 54 
Q 1900 -91 1497 -91 
Q 953 -91 614 226 
Q 275 544 275 1050 
Q 275 1666 698 1953 
Q 1122 2241 2028 2241 
L 2688 2241 
L 2688 2328 
Q 2688 2594 2478 2717 
Q 2269 2841 1825 2841 
Q 1466 2841 1156 2769 
Q 847 2697 581 2553 
L 581 3406 
Q 941 3494 1303 3539 
Q 1666 3584 2028 3584 
Q 2975 3584 3395 3211 
Q 3816 2838 3816 1997 
z
" transform="scale(0.015625)"/>
     </defs>
     <use xlink:href="#DejaVuSans-Bold-44"/>
    </g>
   </g>
   <g id="text_5">
    <!-- b -->
    <g style="fill: #333333" transform="translate(134.427153 212.553593) scale(0.13 -0.13)">
     <defs>
      <path id="DejaVuSans-Bold-45" d="M 2400 722 
Q 2759 722 2948 984 
Q 3138 1247 3138 1747 
Q 3138 2247 2948 2509 
Q 2759 2772 2400 2772 
Q 2041 2772 1848 2508 
Q 1656 2244 1656 1747 
Q 1656 1250 1848 986 
Q 2041 722 2400 722 
z
M 1656 2988 
Q 1888 3294 2169 3439 
Q 2450 3584 2816 3584 
Q 3463 3584 3878 3070 
Q 4294 2556 4294 1747 
Q 4294 938 3878 423 
Q 3463 -91 2816 -91 
Q 2450 -91 2169 54 
Q 1888 200 1656 506 
L 1656 0 
L 538 0 
L 538 4863 
L 1656 4863 
L 1656 2988 
z
" transform="scale(0.015625)"/>
     </defs>
     <use xlink:href="#DejaVuSans-Bold-45"/>
    </g>
   </g>
   <g id="text_6">
    <!-- c -->
    <g style="fill: #333333" transform="translate(72.125641 139.542868) scale(0.13 -0.13)">
     <defs>
      <path id="DejaVuSans-Bold-46" d="M 3366 3391 
L 3366 2478 
Q 3138 2634 2908 2709 
Q 2678 2784 2431 2784 
Q 1963 2784 1702 2511 
Q 1441 2238 1441 1747 
Q 1441 1256 1702 982 
Q 1963 709 2431 709 
Q 2694 709 2930 787 
Q 3166 866 3366 1019 
L 3366 103 
Q 3103 6 2833 -42 
Q 2563 -91 2291 -91 
Q 1344 -91 809 395 
Q 275 881 275 1747 
Q 275 2613 809 3098 
Q 1344 3584 2291 3584 
Q 2566 3584 2833 3536 
Q 3100 3488 3366 3391 
z
" transform="scale(0.015625)"/>
     </defs>
     <use xlink:href="#DejaVuSans-Bold-46"/>
    </g>
   </g>
   <g id="text_7">
    <!-- a ∧ b ∧ c   (oriented volume) -->
    <g style="fill: #9c7a3c" transform="translate(55.823438 17.077969) scale(0.13 -0.13)">
     <defs>
      <path id="DejaVuSans-Bold-3" transform="scale(0.015625)"/>
      <path id="DejaVuSans-Bold-cb1" d="M 966 0 
L 1981 3706 
L 3209 3706 
L 4231 0 
L 3109 0 
L 2597 2419 
L 2084 0 
L 966 0 
z
" transform="scale(0.015625)"/>
      <path id="DejaVuSans-Bold-b" d="M 2413 -844 
L 1484 -844 
Q 1006 -72 778 623 
Q 550 1319 550 2003 
Q 550 2688 779 3389 
Q 1009 4091 1484 4856 
L 2413 4856 
Q 2013 4116 1813 3408 
Q 1613 2700 1613 2009 
Q 1613 1319 1811 609 
Q 2009 -100 2413 -844 
z
" transform="scale(0.015625)"/>
      <path id="DejaVuSans-Bold-52" d="M 2203 2784 
Q 1831 2784 1636 2517 
Q 1441 2250 1441 1747 
Q 1441 1244 1636 976 
Q 1831 709 2203 709 
Q 2569 709 2762 976 
Q 2956 1244 2956 1747 
Q 2956 2250 2762 2517 
Q 2569 2784 2203 2784 
z
M 2203 3584 
Q 3106 3584 3614 3096 
Q 4122 2609 4122 1747 
Q 4122 884 3614 396 
Q 3106 -91 2203 -91 
Q 1297 -91 786 396 
Q 275 884 275 1747 
Q 275 2609 786 3096 
Q 1297 3584 2203 3584 
z
" transform="scale(0.015625)"/>
      <path id="DejaVuSans-Bold-55" d="M 3138 2547 
Q 2991 2616 2845 2648 
Q 2700 2681 2553 2681 
Q 2122 2681 1889 2404 
Q 1656 2128 1656 1613 
L 1656 0 
L 538 0 
L 538 3500 
L 1656 3500 
L 1656 2925 
Q 1872 3269 2151 3426 
Q 2431 3584 2822 3584 
Q 2878 3584 2943 3579 
Q 3009 3575 3134 3559 
L 3138 2547 
z
" transform="scale(0.015625)"/>
      <path id="DejaVuSans-Bold-4c" d="M 538 3500 
L 1656 3500 
L 1656 0 
L 538 0 
L 538 3500 
z
M 538 4863 
L 1656 4863 
L 1656 3950 
L 538 3950 
L 538 4863 
z
" transform="scale(0.015625)"/>
      <path id="DejaVuSans-Bold-48" d="M 4031 1759 
L 4031 1441 
L 1416 1441 
Q 1456 1047 1700 850 
Q 1944 653 2381 653 
Q 2734 653 3104 758 
Q 3475 863 3866 1075 
L 3866 213 
Q 3469 63 3072 -14 
Q 2675 -91 2278 -91 
Q 1328 -91 801 392 
Q 275 875 275 1747 
Q 275 2603 792 3093 
Q 1309 3584 2216 3584 
Q 3041 3584 3536 3087 
Q 4031 2591 4031 1759 
z
M 2881 2131 
Q 2881 2450 2695 2645 
Q 2509 2841 2209 2841 
Q 1884 2841 1681 2658 
Q 1478 2475 1428 2131 
L 2881 2131 
z
" transform="scale(0.015625)"/>
      <path id="DejaVuSans-Bold-51" d="M 4056 2131 
L 4056 0 
L 2931 0 
L 2931 347 
L 2931 1631 
Q 2931 2084 2911 2256 
Q 2891 2428 2841 2509 
Q 2775 2619 2662 2680 
Q 2550 2741 2406 2741 
Q 2056 2741 1856 2470 
Q 1656 2200 1656 1722 
L 1656 0 
L 538 0 
L 538 3500 
L 1656 3500 
L 1656 2988 
Q 1909 3294 2193 3439 
Q 2478 3584 2822 3584 
Q 3428 3584 3742 3212 
Q 4056 2841 4056 2131 
z
" transform="scale(0.015625)"/>
      <path id="DejaVuSans-Bold-57" d="M 1759 4494 
L 1759 3500 
L 2913 3500 
L 2913 2700 
L 1759 2700 
L 1759 1216 
Q 1759 972 1856 886 
Q 1953 800 2241 800 
L 2816 800 
L 2816 0 
L 1856 0 
Q 1194 0 917 276 
Q 641 553 641 1216 
L 641 2700 
L 84 2700 
L 84 3500 
L 641 3500 
L 641 4494 
L 1759 4494 
z
" transform="scale(0.015625)"/>
      <path id="DejaVuSans-Bold-47" d="M 2919 2988 
L 2919 4863 
L 4044 4863 
L 4044 0 
L 2919 0 
L 2919 506 
Q 2688 197 2409 53 
Q 2131 -91 1766 -91 
Q 1119 -91 703 423 
Q 288 938 288 1747 
Q 288 2556 703 3070 
Q 1119 3584 1766 3584 
Q 2128 3584 2408 3439 
Q 2688 3294 2919 2988 
z
M 2181 722 
Q 2541 722 2730 984 
Q 2919 1247 2919 1747 
Q 2919 2247 2730 2509 
Q 2541 2772 2181 2772 
Q 1825 2772 1636 2509 
Q 1447 2247 1447 1747 
Q 1447 1247 1636 984 
Q 1825 722 2181 722 
z
" transform="scale(0.015625)"/>
      <path id="DejaVuSans-Bold-59" d="M 97 3500 
L 1216 3500 
L 2088 1081 
L 2956 3500 
L 4078 3500 
L 2700 0 
L 1472 0 
L 97 3500 
z
" transform="scale(0.015625)"/>
      <path id="DejaVuSans-Bold-4f" d="M 538 4863 
L 1656 4863 
L 1656 0 
L 538 0 
L 538 4863 
z
" transform="scale(0.015625)"/>
      <path id="DejaVuSans-Bold-58" d="M 500 1363 
L 500 3500 
L 1625 3500 
L 1625 3150 
Q 1625 2866 1622 2436 
Q 1619 2006 1619 1863 
Q 1619 1441 1641 1255 
Q 1663 1069 1716 984 
Q 1784 875 1895 815 
Q 2006 756 2150 756 
Q 2500 756 2700 1025 
Q 2900 1294 2900 1772 
L 2900 3500 
L 4019 3500 
L 4019 0 
L 2900 0 
L 2900 506 
Q 2647 200 2364 54 
Q 2081 -91 1741 -91 
Q 1134 -91 817 281 
Q 500 653 500 1363 
z
" transform="scale(0.015625)"/>
      <path id="DejaVuSans-Bold-50" d="M 3781 2919 
Q 3994 3244 4286 3414 
Q 4578 3584 4928 3584 
Q 5531 3584 5847 3212 
Q 6163 2841 6163 2131 
L 6163 0 
L 5038 0 
L 5038 1825 
Q 5041 1866 5042 1909 
Q 5044 1953 5044 2034 
Q 5044 2406 4934 2573 
Q 4825 2741 4581 2741 
Q 4263 2741 4089 2478 
Q 3916 2216 3909 1719 
L 3909 0 
L 2784 0 
L 2784 1825 
Q 2784 2406 2684 2573 
Q 2584 2741 2328 2741 
Q 2006 2741 1831 2477 
Q 1656 2213 1656 1722 
L 1656 0 
L 531 0 
L 531 3500 
L 1656 3500 
L 1656 2988 
Q 1863 3284 2130 3434 
Q 2397 3584 2719 3584 
Q 3081 3584 3359 3409 
Q 3638 3234 3781 2919 
z
" transform="scale(0.015625)"/>
      <path id="DejaVuSans-Bold-c" d="M 513 -844 
Q 913 -100 1113 609 
Q 1313 1319 1313 2009 
Q 1313 2700 1113 3408 
Q 913 4116 513 4856 
L 1441 4856 
Q 1916 4091 2145 3389 
Q 2375 2688 2375 2003 
Q 2375 1319 2147 623 
Q 1919 -72 1441 -844 
L 513 -844 
z
" transform="scale(0.015625)"/>
     </defs>
     <use xlink:href="#DejaVuSans-Bold-44"/>
     <use xlink:href="#DejaVuSans-Bold-3" transform="translate(67.484375 0)"/>
     <use xlink:href="#DejaVuSans-Bold-cb1" transform="translate(102.296875 0)"/>
     <use xlink:href="#DejaVuSans-Bold-3" transform="translate(183.5 0)"/>
     <use xlink:href="#DejaVuSans-Bold-45" transform="translate(218.3125 0)"/>
     <use xlink:href="#DejaVuSans-Bold-3" transform="translate(289.890625 0)"/>
     <use xlink:href="#DejaVuSans-Bold-cb1" transform="translate(324.703125 0)"/>
     <use xlink:href="#DejaVuSans-Bold-3" transform="translate(405.90625 0)"/>
     <use xlink:href="#DejaVuSans-Bold-46" transform="translate(440.71875 0)"/>
     <use xlink:href="#DejaVuSans-Bold-3" transform="translate(500 0)"/>
     <use xlink:href="#DejaVuSans-Bold-3" transform="translate(534.8125 0)"/>
     <use xlink:href="#DejaVuSans-Bold-3" transform="translate(569.625 0)"/>
     <use xlink:href="#DejaVuSans-Bold-b" transform="translate(604.4375 0)"/>
     <use xlink:href="#DejaVuSans-Bold-52" transform="translate(650.140625 0)"/>
     <use xlink:href="#DejaVuSans-Bold-55" transform="translate(718.84375 0)"/>
     <use xlink:href="#DejaVuSans-Bold-4c" transform="translate(768.15625 0)"/>
     <use xlink:href="#DejaVuSans-Bold-48" transform="translate(802.4375 0)"/>
     <use xlink:href="#DejaVuSans-Bold-51" transform="translate(870.265625 0)"/>
     <use xlink:href="#DejaVuSans-Bold-57" transform="translate(941.453125 0)"/>
     <use xlink:href="#DejaVuSans-Bold-48" transform="translate(989.25 0)"/>
     <use xlink:href="#DejaVuSans-Bold-47" transform="translate(1057.078125 0)"/>
     <use xlink:href="#DejaVuSans-Bold-3" transform="translate(1128.65625 0)"/>
     <use xlink:href="#DejaVuSans-Bold-59" transform="translate(1163.46875 0)"/>
     <use xlink:href="#DejaVuSans-Bold-52" transform="translate(1228.65625 0)"/>
     <use xlink:href="#DejaVuSans-Bold-4f" transform="translate(1297.359375 0)"/>
     <use xlink:href="#DejaVuSans-Bold-58" transform="translate(1331.640625 0)"/>
     <use xlink:href="#DejaVuSans-Bold-50" transform="translate(1402.828125 0)"/>
     <use xlink:href="#DejaVuSans-Bold-48" transform="translate(1507.03125 0)"/>
     <use xlink:href="#DejaVuSans-Bold-c" transform="translate(1574.859375 0)"/>
    </g>
   </g>
   <g id="patch_4">
    <path d="M 39.821946 262.487465 
Q 83.219168 239.581841 124.441124 217.824351 
" clip-path="url(#p0eb668fd7d)" style="fill: none; stroke: #333333; stroke-width: 2.2; stroke-linecap: round"/>
    <path d="M 118.181649 217.962095 
L 124.441124 217.824351 
L 120.795634 222.914577 
z
" clip-path="url(#p0eb668fd7d)" style="fill: #333333; stroke: #333333; stroke-width: 2.2; stroke-linecap: round"/>
   </g>
   <g id="patch_5">
    <path d="M 38.585579 261.490636 
Q 53.950779 205.624554 68.6637 152.130082 
" clip-path="url(#p0eb668fd7d)" style="fill: none; stroke: #333333; stroke-width: 2.2; stroke-linecap: round"/>
    <path d="M 64.478892 156.787053 
L 68.6637 152.130082 
L 69.878392 158.272112 
z
" clip-path="url(#p0eb668fd7d)" style="fill: #333333; stroke: #333333; stroke-width: 2.2; stroke-linecap: round"/>
   </g>
   <g id="patch_6">
    <path d="M 37.998159 261.42181 
Q 35.846913 185.652692 33.730571 111.112916 
" clip-path="url(#p0eb668fd7d)" style="fill: none; stroke: #9aa0a6; stroke-width: 1.1; stroke-linecap: round"/>
    <path d="M 31.09063 116.790126 
L 33.730571 111.112916 
L 36.688375 116.631195 
z
" clip-path="url(#p0eb668fd7d)" style="fill: #9aa0a6; stroke: #9aa0a6; stroke-width: 1.1; stroke-linecap: round"/>
   </g>
   <g id="patch_7">
    <path d="M 40.031995 263.711062 
Q 88.904916 270.902557 135.344367 277.735976 
" clip-path="url(#p0eb668fd7d)" style="fill: none; stroke: #333333; stroke-width: 2.2; stroke-linecap: round"/>
    <path d="M 130.211648 274.150562 
L 135.344367 277.735976 
L 129.396404 279.690903 
z
" clip-path="url(#p0eb668fd7d)" style="fill: #333333; stroke: #333333; stroke-width: 2.2; stroke-linecap: round"/>
   </g>
   <g id="patch_8">
    <path d="M 39.959546 264.039951 
Q 102.399217 284.359147 163.669415 304.297771 
" clip-path="url(#p0eb668fd7d)" style="fill: none; stroke: #9aa0a6; stroke-width: 1.1; stroke-linecap: round"/>
    <path d="M 159.210739 299.902295 
L 163.669415 304.297771 
L 157.477829 305.227426 
z
" clip-path="url(#p0eb668fd7d)" style="fill: #9aa0a6; stroke: #9aa0a6; stroke-width: 1.1; stroke-linecap: round"/>
   </g>
  </g>
 </g>
 <defs>
  <clipPath id="p0eb668fd7d">
   <rect x="7.2" y="23.077969" width="307.92" height="307.92"/>
  </clipPath>
 </defs>
</svg>
